<?xml version="1.0" encoding="UTF-8"?>
<svg id="Layer_1" xmlns="http://www.w3.org/2000/svg" version="1.1" viewBox="0 0 721.67 378.63">
  <!-- Generator: Adobe Illustrator 30.5.0, SVG Export Plug-In . SVG Version: 2.1.4 Build 167)  -->
  <path d="M178.95,153.27s8.04-29.99-2.16-52.72c-9.8-7.06-18.42-16.27-28.03-21.17.98,5.29,1.18,8.43-.59,13.52-5.29,13.72-20.58,22.34-20.58,22.34,0,0,22.54,2.55,25.87,14.31,0,0-7.25-4.51-17.84-3.72,0,0,10.58,5.49,11.17,14.9,0,0-9.6-7.25-19.8-8.43,0,0,7.64,8.43,7.64,14.5-18.42-13.72-44.1-19.4-44.1-19.4l-.2-.98c5.29-2.74,16.86-17.25,16.86-31.95,0-7.25-2.35-15.09-6.47-19.6-10.78,4.51-21.17,30.97-59.19,30.97-10.78,0-28.42-4.12-33.71-15.48,5.49,3.53,12.15,4.12,18.03,4.12C74.09,94.47,63.31,0,132.3,0c36.46,0,45.28,24.11,79.18,24.11,25.68,0,27.05-12.74,57.62-12.74,6.47,0,15.68,1.18,19.4,2.16,14.7,3.53,37.83,9.8,51.16,11.76l1.18,9.02s-38.02-2.16-52.14,8.43h49.39l-1.96,6.86s-50.37,3.14-70.56,26.85l2.74,38.81s24.3,2.55,28.03,14.31c0,0-7.64-4.51-19.4-3.72,0,0,11.76,5.49,12.15,14.9,0,0-10.19-7.25-20.97-8.43,0,0,7.84,8.43,7.84,14.5-19.6-12.35-40.77-17.64-40.77-17.64,0,0,3.72-11.96,1.96-24.7-9.41,4.31-19.01,5.68-25.68,6.08l.78,28.62s24.3,2.74,27.64,14.5c0,0-7.64-4.51-19.01-3.53,0,0,11.37,5.29,12.15,14.5,0,0-10.39-6.86-21.17-8.43,0,0,8.04,8.43,8.04,14.5-19.6-12.15-40.96-17.44-40.96-17.44ZM300.08,27.24c0-2.35-1.18-4.31-3.33-4.31s-3.33,1.96-3.33,4.31,1.18,4.31,3.33,4.31,3.33-1.96,3.33-4.31Z"/>
  <path d="M444.72,141.71l-.98-1.18c2.55-5.49,10.98-17.25,22.54-25.09,0-2.55-6.86-6.27-9.41-6.27-12.35,0-29.6,32.54-71.54,32.54-10.98,0-22.54-2.35-31.75-11.17,7.25,2.55,13.92,2.94,19.99,2.94,45.47,0,55.47-97.61,124.85-97.61,20.78,0,32.54,7.84,55.86,7.84,25.68,0,34.69-38.22,72.91-38.22,19.01,0,51.94,11.17,70.36,13.92l1.18,9.02s-38.02-2.16-52.14,8.43h49.39l-1.96,6.86s-44.3-.39-56.45,25.09l-5.29,11.17c16.46-1.57,53.7-3.72,59.19,7.06,0,0-9.6-2.74-19.21,1.96,0,0,12.54,1.96,16.27,10.78,0,0-11.96-4.31-22.54-1.76,0,0,10,6.27,11.76,11.96-19.21-4.51-43.9-5.29-62.72-5.1-6.27,10-14.11,14.11-14.11,14.11,11.76,0,58.8,2.55,63.31,15.09,0,0-8.23-4.12-19.4-.78,0,0,12.15,4.12,14.9,13.13,0,0-11.56-5.68-22.15-4.9,0,0,9.02,7.84,10,13.72-35.28-13.72-91.34-16.46-91.34-16.46v-1.57s4.12-5.1,8.82-12.35c-18.23-.98-31.16-5.49-43.32-9.21-11.17,6.08-24.5,8.62-24.5,8.62,9.8.2,36.85,5.68,40.38,17.44,0,0-9.41-4.51-19.4-3.72,0,0,12.15,5.88,12.74,15.09,0,0-10.98-6.86-21.95-8.23,0,0,7.45,9.8,7.45,15.88-32.14-20.19-52.72-19.4-71.74-19.01ZM657.97,21.36c0-2.35-1.18-4.31-3.33-4.31s-3.33,1.96-3.33,4.31,1.18,4.31,3.33,4.31,3.33-1.96,3.33-4.31Z"/>
  <path d="M171.11,361.18s8.04-29.99-2.16-52.72c-9.8-7.06-18.42-16.27-28.03-21.17.98,5.29,1.18,8.43-.59,13.52-5.29,13.72-20.58,22.34-20.58,22.34,0,0,22.54,2.55,25.87,14.31,0,0-7.25-4.51-17.84-3.72,0,0,10.58,5.49,11.17,14.9,0,0-9.6-7.25-19.8-8.43,0,0,7.64,8.43,7.64,14.5-18.42-13.72-44.1-19.4-44.1-19.4l-.2-.98c5.29-2.74,16.86-17.25,16.86-31.95,0-7.25-2.35-15.09-6.47-19.6-10.78,4.51-21.17,30.97-59.19,30.97-10.78,0-28.42-4.12-33.71-15.48,5.49,3.53,12.15,4.12,18.03,4.12,48.22,0,37.44-94.47,106.43-94.47,36.46,0,45.28,24.11,79.18,24.11,21.95,0,26.26-9.41,46.26-11.96,2.55-3.92,8.23-5.49,13.13-5.49,12.74,0,20.58,9.6,22.74,12.35,1.37.98,2.74,2.74,3.72,4.31,5.88-.98,12.35-5.68,20.58-5.68,1.76,0,6.27.78,7.25.98,14.7,2.74,31.95,4.7,47.04,4.9.2,1.37.2,1.96.2,2.16,0,6.47-4.9,9.21-11.37,9.21-3.72,0-6.27-.39-10-1.96-2.74.78-5.49,1.18-9.41.98,2.35.98,3.33,2.16,3.33,4.12,0,3.33-2.94,6.08-4.51,6.47.2.59.39,1.18.39,2.16,0,3.14-3.33,6.08-6.08,6.86,0,4.7-6.08,9.02-10.58,9.02-3.53,0-7.84-2.35-10.78-6.86-2.74.2-4.51.39-7.25.39-4.31,0-6.08-.2-9.6-.39-1.18,1.18-1.76,2.35-2.94,2.55-6.27,8.62-14.5,12.54-21.76,12.74-2.35,1.76-4.51,3.33-6.27,5.49l2.74,38.81s24.3,2.55,28.03,14.31c0,0-7.64-4.51-19.4-3.72,0,0,11.76,5.49,12.15,14.9,0,0-10.19-7.25-20.97-8.43,0,0,7.84,8.43,7.84,14.5-19.6-12.35-40.77-17.64-40.77-17.64,0,0,3.72-11.96,1.96-24.7-9.41,4.31-19.01,5.68-25.68,6.08l.78,28.62s24.3,2.74,27.64,14.5c0,0-7.64-4.51-19.01-3.53,0,0,11.37,5.29,12.15,14.5,0,0-10.39-6.86-21.17-8.43,0,0,8.04,8.43,8.04,14.5-19.6-12.15-40.96-17.44-40.96-17.44ZM279.3,268.47l-3.53.59c-6.66,1.37-12.35-10-12.35-22.34s5.68-23.72,12.35-22.54l3.53.98c-3.53-3.33-9.41-7.45-16.27-7.45-6.08,0-11.56,2.94-11.56,9.8,0,3.92,2.74,7.45,6.08,9.02,0,0-1.18-.2-2.35-.2-3.53,0-10.78,1.18-10.78,10.39s7.25,10.19,10.78,10.19h2.35c-3.53,1.57-6.08,5.1-6.08,9.21,0,6.86,6.08,9.41,11.56,9.41,6.86,0,12.74-3.72,16.27-7.06ZM247.94,246.72l7.45-3.92,7.25,3.92-7.25,3.92-7.45-3.92ZM254.8,225.55l6.86-2.74,5.88,5.1-6.86,2.16-5.88-4.51ZM254.8,268.28l5.88-5.1,6.86,2.55-5.88,4.9-6.86-2.35ZM323.2,262.2c0-3.53-5.49-5.1-8.62-6.66-2.16-.98-3.53-2.55-4.12-4.7l.2-.2c2.94,1.57,10.19,3.92,13.33,6.27,1.18.78,2.16,1.96,2.55,2.74,1.37-.59,2.74-2.74,2.74-4.7,0-3.14-7.25-5.29-10.78-7.06-1.76-.78-3.53-2.16-4.12-4.7l.2-.2c3.53,1.96,9.8,3.92,13.92,5.88,1.37.78,2.74,1.57,3.14,2.35.78-.78,1.96-2.74,1.96-4.51,0-4.31-9.21-4.7-15.09-8.04-1.37-.78-2.74-2.55-3.33-3.72l.2-.2c1.76.78,3.72,1.37,5.88,1.96,4.51,1.18,9.41,2.16,13.92,2.16,1.96,0,4.31-.2,5.49-.59-.2-.2-.78-1.18-.98-1.76l.2-.2c4.31,2.35,8.23,3.72,12.94,3.72,3.14,0,5.88-.39,7.64-2.35-.59.2-.98.2-1.37.2-3.14,0-6.66-.98-7.64-4.12-14.7-.78-24.3-2.35-36.46-4.31-.59-.2-3.72-.39-5.29-.39-4.9,0-11.37,3.14-17.05,4.7-4.7,1.57-11.76,1.57-17.05,1.57-1.37,2.55-2.16,6.27-2.16,11.37,0,4.31.39,8.04,1.96,10.98.78.2,1.96.2,2.94,0-.2-.2-.78-2.16-.78-3.14h.39c3.72,3.92,8.62,6.47,19.99,6.47,4.51,0,7.25-.39,10.19-.39,3.14,0,7.25.78,8.23,3.14l-.2.2c-2.16-.98-5.68-.98-7.64-.78,1.96,2.35,4.9,4.51,7.84,4.51s6.86-2.94,6.86-5.49ZM284.98,262.4c-.2,0-2.35-.98-4.51-2.16-1.18.39-2.94.39-4.12.39,1.18,1.57,2.94,3.72,5.1,3.72,1.37,0,2.94-.98,3.53-1.96ZM285.77,232.02c-.59-1.18-2.35-2.94-4.31-2.94-1.76,0-3.53,1.57-4.51,3.14,3.33,0,6.27,0,8.82-.2ZM361.42,235.74c.2-.59.2-.98.2-1.57-2.35,0-4.7,0-7.45-.2.2.59,1.76,1.96,5.29,1.96.39,0,1.57,0,1.96-.2Z"/>
  <path d="M433.55,349.62l-.98-1.18c2.55-5.49,10.98-17.25,22.54-25.09,0-2.55-6.86-6.27-9.41-6.27-12.35,0-29.6,32.54-71.54,32.54-10.98,0-22.54-2.35-31.75-11.17,7.25,2.55,13.92,2.94,19.99,2.94,45.47,0,55.47-97.61,124.85-97.61,20.78,0,32.54,7.84,55.86,7.84s33.52-33.32,65.66-37.83c2.94-2.55,7.45-3.33,11.37-3.33,12.74,0,20.58,9.6,22.74,12.35,1.37.98,2.74,2.74,3.72,4.31,5.88-.98,12.35-5.68,20.58-5.68,1.76,0,6.27.78,7.25.98,14.7,2.74,31.95,4.7,47.04,4.9.2,1.37.2,1.96.2,2.16,0,6.47-4.9,9.21-11.37,9.21-3.72,0-6.27-.39-10-1.96-2.74.78-5.49,1.18-9.41.98,2.35.98,3.33,2.16,3.33,4.12,0,3.33-2.94,6.08-4.51,6.47.2.59.39,1.18.39,2.16,0,3.14-3.33,6.08-6.08,6.86,0,4.7-6.08,9.02-10.58,9.02-3.53,0-7.84-2.35-10.78-6.86-2.74.2-4.51.39-7.25.39-4.31,0-6.08-.2-9.6-.39-1.18,1.18-1.76,2.35-2.94,2.55-1.76,2.35-6.86,9.02-15.29,11.76l-1.18,2.94-5.29,11.17c16.46-1.57,53.7-3.72,59.19,7.06,0,0-9.6-2.74-19.21,1.96,0,0,12.54,1.96,16.27,10.78,0,0-11.96-4.31-22.54-1.76,0,0,10,6.27,11.76,11.96-19.21-4.51-43.9-5.29-62.72-5.1-6.27,10-14.11,14.11-14.11,14.11,11.76,0,58.8,2.55,63.31,15.09,0,0-8.23-4.12-19.4-.78,0,0,12.15,4.12,14.9,13.13,0,0-11.56-5.68-22.15-4.9,0,0,9.02,7.84,10,13.72-35.28-13.72-91.33-16.46-91.33-16.46v-1.57s4.12-5.1,8.82-12.35c-18.23-.98-31.16-5.49-43.32-9.21-11.17,6.08-24.5,8.62-24.5,8.62,9.8.2,36.85,5.68,40.38,17.44,0,0-9.41-4.51-19.4-3.72,0,0,12.15,5.88,12.74,15.09,0,0-10.98-6.86-21.95-8.23,0,0,7.45,9.8,7.45,15.88-32.14-20.19-52.72-19.4-71.74-19.01ZM636.41,264.36l-3.53.59c-6.66,1.37-12.35-10-12.35-22.34s5.68-23.72,12.35-22.54l3.53.98c-3.53-3.33-9.41-7.45-16.27-7.45-6.08,0-11.56,2.94-11.56,9.8,0,3.92,2.74,7.45,6.08,9.02,0,0-1.18-.2-2.35-.2-3.53,0-10.78,1.18-10.78,10.39s7.25,10.19,10.78,10.19h2.35c-3.53,1.57-6.08,5.1-6.08,9.21,0,6.86,6.08,9.41,11.56,9.41,6.86,0,12.74-3.92,16.27-7.06ZM605.05,242.6l7.45-3.92,7.25,3.92-7.25,3.92-7.45-3.92ZM611.91,221.44l6.86-2.74,5.88,5.1-6.86,2.16-5.88-4.51ZM611.91,264.16l5.88-5.1,6.86,2.55-5.88,4.9-6.86-2.35ZM680.31,258.09c0-3.53-5.49-5.1-8.62-6.66-2.16-.98-3.53-2.55-4.12-4.7l.2-.2c2.94,1.57,10.19,3.92,13.33,6.27,1.18.78,2.16,1.96,2.55,2.74,1.37-.59,2.74-2.74,2.74-4.7,0-3.14-7.25-5.29-10.78-7.06-1.76-.78-3.53-2.16-4.12-4.7l.2-.2c3.53,1.96,9.8,3.92,13.92,5.88,1.37.78,2.74,1.57,3.14,2.35.78-.78,1.96-2.74,1.96-4.51,0-4.31-9.21-4.7-15.09-8.04-1.37-.78-2.74-2.55-3.33-3.72l.2-.2c1.76.78,3.72,1.37,5.88,1.96,4.51,1.18,9.41,2.16,13.92,2.16,1.96,0,4.31-.2,5.49-.59-.2-.2-.78-1.18-.98-1.76l.2-.2c4.31,2.35,8.23,3.72,12.94,3.72,3.14,0,5.88-.39,7.64-2.35-.59.2-.98.2-1.37.2-3.14,0-6.66-.98-7.64-4.12-14.7-.78-24.3-2.35-36.46-4.31-.59-.2-3.72-.39-5.29-.39-4.9,0-11.37,3.14-17.05,4.7-4.7,1.57-11.76,1.57-17.05,1.57-1.37,2.55-2.16,6.27-2.16,11.37,0,4.31.39,8.04,1.96,10.98.78.2,1.96.2,2.94,0-.2-.2-.78-2.16-.78-3.14h.39c3.72,3.92,8.62,6.47,19.99,6.47,4.51,0,7.25-.39,10.19-.39,3.14,0,7.25.78,8.23,3.14l-.2.2c-2.16-.98-5.68-.98-7.64-.78,1.96,2.35,4.9,4.51,7.84,4.51s6.86-2.94,6.86-5.49ZM642.09,258.28c-.2,0-2.35-.98-4.51-2.16-1.18.39-2.94.39-4.12.39,1.18,1.57,2.94,3.72,5.1,3.72,1.37,0,2.94-.98,3.53-1.96ZM642.88,227.9c-.59-1.18-2.35-2.94-4.31-2.94-1.76,0-3.53,1.57-4.51,3.14,3.33,0,6.27,0,8.82-.2ZM718.53,231.63c.2-.59.2-.98.2-1.57-2.35,0-4.7,0-7.45-.2.2.59,1.76,1.96,5.29,1.96.39,0,1.57,0,1.96-.2Z"/>
</svg>