<?xml version="1.0" encoding="UTF-8"?>
<svg id="Layer_1" xmlns="http://www.w3.org/2000/svg" version="1.1" viewBox="0 0 3851.55 373.72">
  <!-- Generator: Adobe Illustrator 30.5.0, SVG Export Plug-In . SVG Version: 2.1.4 Build 167)  -->
  <defs>
    <style>
      .st0 {
        fill: #efe9e2;
      }
    </style>
  </defs>
  <g>
    <polygon class="st0" points="177.6 3.59 155.15 28.89 142.01 49.72 135.81 71.79 135.81 91.14 139.13 108.5 148.46 127.34 162.1 144.95 139.13 169.5 120.44 154.62 98.61 145.94 78.77 144.95 55.46 148.27 34.88 159.09 15.54 174.46 3.88 186.74 11.82 196.04 26.45 208.68 43.81 219.6 62.41 226.54 81.01 228.77 101.34 226.54 120.93 218.36 137.8 206.95 140.77 203.72 162.84 226.79 153.17 239.19 141.27 260.51 135.07 287.55 136.8 306.39 142.01 323.26 153.17 343.84 177.6 370.13 188.14 362 202.27 345.33 214.18 323.75 219.38 301.19 219.38 278.03 214.43 260.02 204.75 243.9 195.83 231 202.77 221.08 217.15 205.71 229.8 223.68 254.35 264.98 267.99 296.97 274.69 323.26 277.91 348.55 277.91 365.36 3574.37 365.36 3574.37 337.11 3579.73 306.21 3589.19 278.08 3601.51 254.42 3633.84 206.74 3654.91 228.17 3644.73 244.06 3635.53 268 3632.77 291.03 3634.2 314.25 3642.23 332.47 3653.84 350.5 3674 369.61 3692.6 351.22 3706.53 330.32 3713.49 312.46 3716.88 289.25 3712.47 265.67 3704.38 248.17 3689.02 226.74 3710.81 204.24 3726.17 216.03 3747.07 226.21 3765.28 229.24 3790.11 226.38 3808.68 219.06 3828.68 205.67 3848.68 186.86 3827.25 165.84 3807.43 152.8 3786.18 145.84 3763.14 144.41 3744.03 150.48 3727.24 159.06 3714.03 168.88 3690.81 145.3 3701.88 129.23 3712.47 110.12 3716.17 88.69 3714.38 62.26 3706.17 41.36 3692.77 22.25 3672.59 3.59 3658.49 17.25 3645.09 35.65 3639.73 47.61 3634.02 64.4 3633.48 79.05 3632.77 92.8 3638.3 112.26 3647.41 129.41 3656.52 142.62 3654.38 146.91 3637.59 163.7 3633.84 165.66 3613.48 139.95 3590.08 97.08 3578.48 64.4 3573.83 38.51 3573.3 8.12 277.67 8.12 278.35 24.02 275.1 52.3 269.96 74.75 261.56 98.74 250.93 118.79 240.31 136.96 217.69 166.78 194.72 144.33 201.41 134.9 213.06 113.31 219.57 90.86 218.37 68.92 214.78 50.59 205.18 32.94 191.98 15.8 177.6 3.59"/>
    <path d="M3768.19,142.28c-21.37,0-40,10.38-55.57,23.2l-5.5-5.8-13.44-14.66c18.32-21.68,25.34-43.36,25.34-61.68,0-26.56-8.85-50.99-45.49-83.35-36.95,32.36-43.66,58.01-43.66,83.35,0,19.24,5.5,36.03,23.51,60.15-6.41,6.72-12.21,12.82-18.32,19.85-37.25-47.94-62.29-100.45-57.1-157.86H273.57c5.19,57.4-19.85,109.92-57.1,157.86-6.11-7.02-11.91-13.13-18.32-19.85,18.01-24.12,23.51-40.91,23.51-60.15,0-25.34-6.72-50.99-43.66-83.35-36.64,32.36-45.49,56.79-45.49,83.35,0,18.32,7.02,40,25.34,61.68l-13.43,14.66-5.5,5.8c-15.57-12.82-34.2-23.2-55.57-23.2-25.65,0-50.99,7.63-83.36,44.58,32.36,36.94,57.71,44.58,83.36,44.58,23.51,0,41.83-10.99,56.48-23.82l12.21,12.52,7.02,7.02c-19.24,22.29-26.56,44.58-26.56,63.2,0,26.56,8.85,50.99,45.49,83.35,36.95-32.36,43.66-58.01,43.66-83.35,0-19.24-5.8-38.78-22.29-61.68,5.8-5.8,11.3-11.91,17.1-18.32,37.25,47.94,62.29,100.45,57.1,157.86h3304.4c-5.19-57.4,19.85-109.92,57.1-157.86,5.8,6.41,11.3,12.52,17.1,18.32-16.49,22.9-22.29,42.44-22.29,61.68,0,25.34,6.72,50.99,43.66,83.35,36.64-32.36,45.49-56.79,45.49-83.35,0-18.63-7.33-40.91-26.56-63.2l7.02-7.02,12.21-12.52c14.66,12.82,32.98,23.82,56.49,23.82,25.65,0,50.99-7.63,83.35-44.58-32.36-36.94-57.71-44.58-83.35-44.58ZM3657.05,148.39l4.28-4.27,6.41-6.41,6.41-7.02,3.97-4.58c12.21-15.88,16.49-30.84,16.49-42.75,0-15.88-4.58-30.84-21.07-49.16-15.88,18.01-19.24,32.67-19.24,49.16,0,12.82,3.36,24.43,16.18,42.44l-7.02,7.63-5.8,5.8c-16.79-22.59-21.68-38.17-21.68-55.88,0-23.51,5.5-45.8,37.56-75.11,31.45,29.01,39.39,50.99,39.39,75.11,0,17.1-6.41,36.95-23.2,57.1l-3.97,4.58-5.19,5.5-7.63,7.63-4.28,4.27-18.01,19.85-11.91-14.35,18.32-19.54ZM138.62,83.35c0-24.12,7.94-46.1,39.39-75.11,32.06,29.31,37.56,51.6,37.56,75.11,0,17.71-4.89,33.28-21.68,55.88l-5.8-5.8-7.02-7.63c12.82-18.01,16.18-29.62,16.18-42.44,0-16.49-3.36-31.14-19.24-49.16-16.49,18.32-21.07,33.28-21.07,49.16,0,11.91,4.28,26.87,16.49,42.75l3.97,4.58,6.41,7.02,6.41,6.41,4.28,4.27,18.32,19.54-11.91,14.35-18.01-19.85-4.27-4.27-7.63-7.63-5.19-5.5-3.97-4.58c-16.79-20.15-23.2-40-23.2-57.1ZM135.57,203.35c-13.74,11.91-30.84,21.98-52.21,21.98-23.82,0-46.11-6.41-75.42-38.47,29.31-32.06,51.6-38.47,75.42-38.47,19.24,0,36.64,9.77,51.3,21.68-3.97,4.28-8.55,9.16-12.82,13.13-11.91-9.47-24.73-16.49-38.47-16.49-16.18,0-30.53,3.66-49.16,20.15,18.63,16.49,32.98,20.15,49.16,20.15,15.27,0,27.48-6.41,38.78-15.88l4.58-4.27,12.82-12.82,22.29-24.43,4.89,5.19,7.94,7.94-21.98,23.82-12.82,12.82-4.27,3.97ZM215.56,290.37c0,23.51-5.5,45.8-37.56,75.11-31.45-29.01-39.39-50.99-39.39-75.11,0-17.4,6.41-37.56,24.43-58.62,4.58,5.19,8.55,10.08,11.6,14.35-13.13,16.49-17.71,31.75-17.71,44.27,0,15.88,4.58,30.84,21.07,49.16,15.88-18.01,19.24-32.67,19.24-49.16,0-13.43-3.67-27.17-14.96-43.97l-3.66-4.89c-3.36-4.89-7.02-9.16-11.6-14.35l-3.97-4.27-6.72-7.02-11.91-12.21c4.58-4.28,8.85-8.85,12.52-12.82l12.21,12.21,6.41,6.72,4.28,4.58c4.27,4.58,8.24,9.46,11.6,13.74l3.66,5.19c15.27,21.37,20.46,39.08,20.46,57.1ZM3571.26,362.12H280.29c3.05-57.71-22.9-109.61-59.54-156.33l12.21-14.35c35.72,43.97,62.59,92.82,65.65,149.31h3254.33c3.05-56.49,29.92-105.34,65.65-149.31l12.21,14.35c-36.64,46.72-62.59,98.62-59.54,156.33ZM3638.73,205.79l-3.97-4.58-12.52-14.35-3.66-4.58c-35.72-43.97-62.59-92.82-65.65-149.31H298.61c-3.05,56.49-29.92,105.34-65.65,149.31l-3.66,4.58-12.52,14.35-3.97,4.58-17.1,18.01-11.6-14.04,16.79-18.32,3.97-4.58,11.91-14.35,3.97-4.58c36.64-46.72,62.59-98.62,59.54-156.33h3290.96c-3.05,57.71,22.9,109.61,59.54,156.33l3.97,4.58,11.91,14.35,3.97,4.58,16.79,18.32-11.6,14.04-17.1-18.01ZM3695.22,215.87l-6.72,7.02-3.97,4.27c-4.58,5.19-8.24,9.47-11.6,14.35l-3.67,4.89c-11.3,16.79-14.96,30.53-14.96,43.97,0,16.49,3.36,31.14,19.24,49.16,16.49-18.32,21.07-33.28,21.07-49.16,0-12.52-4.58-27.79-17.71-44.27,3.05-4.27,7.02-9.16,11.6-14.35,18.01,21.07,24.43,41.22,24.43,58.62,0,24.12-7.94,46.1-39.39,75.11-32.06-29.31-37.56-51.6-37.56-75.11,0-18.01,5.19-35.72,20.46-57.1l3.66-5.19c3.36-4.28,7.33-9.16,11.6-13.74l4.28-4.58,6.41-6.72,12.21-12.21c3.66,3.97,7.94,8.55,12.52,12.82l-11.91,12.21ZM3768.19,225.33c-21.37,0-38.47-10.08-52.21-21.98l-4.27-3.97-12.82-12.82-21.98-23.82,7.94-7.94,4.89-5.19,22.29,24.43,12.82,12.82,4.58,4.27c11.3,9.46,23.51,15.88,38.78,15.88,16.18,0,30.53-3.66,49.16-20.15-18.63-16.49-32.98-20.15-49.16-20.15-13.74,0-26.56,7.02-38.47,16.49-4.28-3.97-8.85-8.85-12.82-13.13,14.66-11.91,32.06-21.68,51.3-21.68,23.82,0,46.1,6.41,75.42,38.47-29.31,32.06-51.6,38.47-75.42,38.47Z"/>
  </g>
  <g>
    <path class="st0" d="M379.97,230.9l39.03-138.22h.92l45.69,108.14,45.46-108.14h.92l47.99,149.7c4.36,13.78,10.56,26.17,15.38,31.23v.92h-36.74c1.38-8.04.23-17.91-2.98-28.7l-29.39-97.35-42.48,98.96h-.92l-42.25-96.43-25.49,93.45c-3.67,13.78-3.21,23.88-1.61,30.08h-31.68v-.92c6.89-8.04,13.09-24.57,18.14-42.71Z"/>
    <path class="st0" d="M596.94,243.76v-116.64c0-14.24-2.53-24.8-7.12-29.85v-.92h102.17l3.44,24.34-.92.23c-6.89-5.97-23.65-8.5-41.56-8.5h-32.6v57.4h30.08c10.79,0,22.96-.92,30.31-5.97l.92.23v27.32l-.92.23c-7.35-5.05-19.52-5.97-30.31-5.97h-30.08v72.78h40.41c25.03,0,37.88-3.21,43.39-8.73l.69.46-3.21,24.34h-111.81v-.92c4.59-5.05,7.12-15.61,7.12-29.85Z"/>
    <path class="st0" d="M719.08,186.36c0-58.78,46.15-93.68,97.12-93.68,25.49,0,43.16,5.74,50.97,10.33l3.44,26.86-.92.23c-9.41-10.1-26.4-20.89-54.64-20.89-36.05,0-69.8,27.32-69.8,72.32,0,42.48,28.7,80.13,73.24,80.13,12.17,0,23.88-2.53,30.31-5.97v-61.76c0-14.23-5.28-24.8-10.56-29.85v-.92h42.25v.92c-5.28,5.05-8.27,15.61-8.27,29.85v40.18c0,14.24,1.84,21.35,7.12,26.4v.92c-12.17,8.72-34.21,16.76-63.14,16.76-49.36,0-97.12-31.68-97.12-91.84Z"/>
    <path class="st0" d="M910.79,237.56l62.68-144.88h.92l69.8,153.83c4.59,10.1,14.46,24.11,18.14,27.09v.92h-38.57c0-6.66-1.61-16.76-8.73-32.83l-8.72-19.98h-69.34l-8.27,19.98c-6.66,16.07-7.58,26.17-6.66,32.83h-32.14v-.92c7.35-8.04,14.69-21.58,20.89-36.05ZM998.96,204.96l-28.24-64.29-26.63,64.29h54.87Z"/>
    <path class="st0" d="M1078.16,243.76v-116.64c0-14.24-2.98-24.8-8.27-29.85v-.92h39.95v.92c-5.28,5.05-8.27,15.61-8.27,29.85v131.33h40.18c25.03,0,37.88-3.21,43.39-8.73l.69.46-3.21,24.34h-112.73v-.92c5.28-5.05,8.27-15.61,8.27-29.85ZM1123.16,161.79c0-43.39,32.83-69.11,70.03-69.11s70.26,25.71,70.26,69.11-32.83,69.11-70.26,69.11-70.03-25.71-70.03-69.11ZM1238.42,164.78c0-28.01-15.15-54.87-46.38-54.87-27.32,0-43.85,21.12-43.85,48.68s14.69,55.1,46.15,55.1c27.55,0,44.08-20.89,44.08-48.9Z"/>
    <path class="st0" d="M1279.28,263.74l-3.67-29.39.92-.23c10.79,16.07,32.6,27.55,54.19,27.55,23.19,0,38.57-11.94,38.57-31.68,0-17.68-14.92-26.86-36.74-37.88l-10.1-5.05c-27.78-13.78-42.25-27.78-42.25-48.68,0-25.94,19.98-45.69,58.55-45.69,18.6,0,32.83,3.67,42.02,9.64l4.36,27.09-.92.23c-6.66-9.87-22.04-20.43-46.15-20.43-20.43,0-34.67,9.64-34.67,24.11,0,11.94,6.66,19.29,31.91,31.91l14.23,7.12c31.91,16.07,45.23,30.31,45.23,53.73,0,32.83-25.03,52.12-64.52,52.12-17.22,0-38.57-4.59-50.97-14.46Z"/>
    <path class="st0" d="M1416.81,237.56l62.68-144.88h.92l69.8,153.83c4.59,10.1,14.46,24.11,18.14,27.09v.92h-38.57c0-6.66-1.61-16.76-8.73-32.83l-8.72-19.98h-69.34l-8.27,19.98c-6.66,16.07-7.58,26.17-6.66,32.83h-32.14v-.92c7.35-8.04,14.69-21.58,20.89-36.05ZM1504.98,204.96l-28.24-64.29-26.63,64.29h54.87Z"/>
    <path class="st0" d="M1572.01,215.98v-88.85c0-14.24-2.98-24.8-8.27-29.85v-.92h39.95v.92c-5.28,5.05-8.27,15.61-8.27,29.85v84.26c0,35.36,14.46,49.82,38.8,49.82,33.98,0,49.13-31.23,49.13-57.17v-76.92c0-14.24-2.98-24.8-8.27-29.85v-.92h60.16c39.72,0,61.76,18.14,61.76,44.31,0,23.42-14.92,39.49-37.42,46.84l31.91,56.25c12.4,21.81,16.3,25.71,20.43,29.85v.92h-37.2c0-11.71-5.74-24.34-9.18-30.77l-28.01-52.12c-2.76.23-5.28.23-8.04.23h-22.73v51.89c0,14.23,2.98,24.8,8.27,29.85v.92h-31.68c1.61-6.2,1.84-14.69,1.84-26.4-5.74,12.86-24.11,30.08-53.96,30.08-33.52,0-59.24-17.45-59.24-62.22ZM1770.85,142.97c-.46-17.91-12.63-30.54-38.11-30.54h-25.94v63.37h22.5c25.26,0,42.02-10.79,41.56-32.83Z"/>
    <path class="st0" d="M1826.4,215.98v-88.85c0-14.24-2.98-24.8-8.27-29.85v-.92h39.95v.92c-5.28,5.05-8.27,15.61-8.27,29.85v84.26c0,35.36,14.46,49.82,38.8,49.82,33.98,0,49.13-31.23,49.13-57.17v-76.92c0-14.24-2.98-24.8-8.27-29.85v-.92h39.95v.92c-5.28,5.05-8.27,15.61-8.27,29.85v116.64c0,14.23,2.99,24.8,8.27,29.85v.92h-31.68c1.61-6.2,1.84-14.69,1.84-26.4-5.74,12.86-24.11,30.08-53.96,30.08-33.52,0-59.24-17.45-59.24-62.22Z"/>
    <path class="st0" d="M1996.3,263.74l-3.67-29.39.92-.23c10.79,16.07,32.6,27.55,54.19,27.55,23.19,0,38.57-11.94,38.57-31.68,0-17.68-14.92-26.86-36.74-37.88l-10.1-5.05c-27.78-13.78-42.25-27.78-42.25-48.68,0-25.94,19.97-45.69,58.55-45.69,18.6,0,32.83,3.67,42.02,9.64l4.36,27.09-.92.23c-6.66-9.87-22.04-20.43-46.15-20.43-20.43,0-34.67,9.64-34.67,24.11,0,11.94,6.66,19.29,31.91,31.91l14.24,7.12c31.91,16.07,45.23,30.31,45.23,53.73,0,32.83-25.03,52.12-64.52,52.12-17.22,0-38.57-4.59-50.97-14.46Z"/>
    <path class="st0" d="M2201.55,243.76v-116.64c0-14.24-2.53-24.8-7.12-29.85v-.92h55.1c44.54,0,62.91,14.46,62.91,40.64,0,19.52-9.64,33.52-28.01,41.56,24.34,6.66,38.11,21.12,38.11,42.93,0,33.06-23.88,53.04-70.49,53.04h-57.63v-.92c4.59-5.05,7.12-15.61,7.12-29.85ZM2286.27,140.44c-.46-17.68-11.25-28.01-35.36-28.01h-25.95v60.38h11.71c36.51,0,50.05-10.33,49.59-32.37ZM2296.38,223.33c-.46-22.73-15.38-35.13-48.9-35.13h-22.5v70.26h25.49c30.08,0,46.38-10.1,45.92-35.13Z"/>
    <path class="st0" d="M2350.1,215.98v-88.85c0-14.24-2.99-24.8-8.27-29.85v-.92h39.95v.92c-5.28,5.05-8.27,15.61-8.27,29.85v84.26c0,35.36,14.46,49.82,38.8,49.82,33.98,0,49.13-31.23,49.13-57.17v-76.92c0-14.24-2.99-24.8-8.27-29.85v-.92h39.95v.92c-5.28,5.05-8.27,15.61-8.27,29.85v116.64c0,14.23,2.98,24.8,8.27,29.85v.92h-31.68c1.61-6.2,1.84-14.69,1.84-26.4-5.74,12.86-24.11,30.08-53.96,30.08-33.52,0-59.24-17.45-59.24-62.22Z"/>
    <path class="st0" d="M2514.72,186.36c0-58.78,42.93-93.68,97.81-93.68,20.66,0,40.18,5.05,47.76,9.18l3.9,26.86-.92.46c-11.25-11.71-27.78-20.21-51.43-19.98-40.41,0-70.95,30.54-70.95,72.32,0,44.77,27.78,80.13,76,80.13,25.03,0,43.39-10.33,53.96-24.57l.92.23-6.66,29.16c-8.72,5.74-27.32,11.71-50.28,11.71-51.66,0-100.1-31.68-100.1-91.84Z"/>
    <path class="st0" d="M2693.34,243.76v-116.64c0-14.24-2.99-24.8-8.27-29.85v-.92h39.95v.92c-5.28,5.05-8.27,15.61-8.27,29.85v47.99l44.08-47.3c16.76-17.91,21.12-26.4,21.12-31.46h35.36v.92c-8.96,5.28-14.92,10.79-32.83,29.85l-46.15,48.67,59.01,67.96c12.4,14.23,22.96,23.65,29.62,29.85v.92h-40.41c0-7.12-10.1-20.66-19.06-30.77l-50.74-58.09v58.09c0,14.23,2.98,24.8,8.27,29.85v.92h-39.95v-.92c5.28-5.05,8.27-15.61,8.27-29.85Z"/>
    <path class="st0" d="M2844.18,243.76v-116.64c0-14.24-2.99-24.8-8.27-29.85v-.92h39.95v.92c-5.28,5.05-8.27,15.61-8.27,29.85v131.33h40.18c25.03,0,37.88-3.21,43.39-8.73l.69.46-3.21,24.34h-112.73v-.92c5.28-5.05,8.27-15.61,8.27-29.85ZM2900.44,199.22l45.92-106.53h.92l50.74,113.19c4.59,10.1,8.27,15.84,12.63,20.43v.92h-34.9c0-9.41-.69-14.69-6.2-26.86h-51.2c-5.05,11.71-5.51,17.45-4.13,26.86h-29.62v-.92c5.97-6.66,11.02-15.84,15.84-27.09ZM2962.43,183.61l-19.06-44.31-18.14,44.31h37.2Z"/>
    <path class="st0" d="M3043.7,144.57v99.19c0,14.23,2.3,24.8,7.58,29.85v.92h-33.52v-.92c5.28-5.05,7.58-15.61,7.58-29.85V90.85h.92l126.05,135.46v-99.19c0-14.24-2.3-24.8-7.58-29.85v-.92h33.52v.92c-5.28,5.05-7.58,15.61-7.58,29.85v152.91h-.92l-126.05-135.46Z"/>
    <path class="st0" d="M3209.93,243.76v-116.64c0-14.24-2.99-24.8-8.27-29.85v-.92h55.79c59.24,0,104.47,27.78,104.47,86.1s-45.23,92.07-109.06,92.07h-51.2v-.92c5.28-5.05,8.27-15.61,8.27-29.85ZM3335.75,186.13c-.23-43.16-23.42-73.01-84.49-73.01h-17.91v144.65h16.3c58.55,0,86.33-28.93,86.1-71.63Z"/>
    <path class="st0" d="M3388.55,243.76v-116.64c0-14.24-2.53-24.8-7.12-29.85v-.92h37.65v.92c-4.59,5.05-7.12,15.61-7.12,29.85v116.64c0,14.23,2.53,24.8,7.12,29.85v.92h-37.65v-.92c4.59-5.05,7.12-15.61,7.12-29.85Z"/>
    <path class="st0" d="M3449.63,243.76v-116.64c0-14.24-2.53-24.8-7.12-29.85v-.92h37.65v.92c-4.59,5.05-7.12,15.61-7.12,29.85v116.64c0,14.23,2.53,24.8,7.12,29.85v.92h-37.65v-.92c4.59-5.05,7.12-15.61,7.12-29.85Z"/>
  </g>
</svg>