<?xml version="1.0" encoding="UTF-8"?>
<svg id="Layer_1" xmlns="http://www.w3.org/2000/svg" version="1.1" viewBox="0 0 859.21 494.24">
  <!-- Generator: Adobe Illustrator 30.5.0, SVG Export Plug-In . SVG Version: 2.1.4 Build 167)  -->
  <g>
    <rect x="11.01" y="415.87" width="814.94" height="2.32"/>
    <rect x="805.48" y="401.78" width="2.32" height="30.49"/>
    <rect x="48.84" y="401.78" width="2.32" height="30.49"/>
    <g>
      <path d="M15.27,452.39v-1.67H5.04v-.11l12.88-16.63h.11v14.85c.73,0,2.16-.19,3.02-.78l.11.03v3.4l-.11.03c-.86-.59-2.29-.78-3.02-.78v1.67c0,1.67.38,2.92,1,3.51v.11h-4.75v-.11c.62-.59,1-1.84,1-3.51ZM15.27,448.83v-8.1l-6.34,8.1h6.34Z"/>
      <path d="M22.5,445.53c0-6.32,3.29-10.91,8.5-10.91s8.5,4.59,8.5,10.91-3.29,10.9-8.5,10.9-8.5-4.59-8.5-10.9ZM36.43,445.53c0-4.64-1.78-8.96-5.43-8.96s-5.43,4.32-5.43,8.96,1.78,8.96,5.43,8.96,5.43-4.32,5.43-8.96Z"/>
      <path d="M.97,484.79v-13.71c0-1.67-.35-2.92-.97-3.51v-.11h4.7v.11c-.62.59-.97,1.84-.97,3.51v15.44h4.72c2.94,0,4.45-.38,5.1-1.03l.08.05-.38,2.86H0v-.11c.62-.59.97-1.84.97-3.51Z"/>
      <path d="M15.28,487.14l-.43-3.46.11-.03c1.27,1.89,3.83,3.24,6.37,3.24,2.73,0,4.53-1.4,4.53-3.73,0-2.08-1.75-3.16-4.32-4.45l-1.19-.59c-3.27-1.62-4.97-3.27-4.97-5.72,0-3.05,2.35-5.37,6.88-5.37,2.19,0,3.86.43,4.94,1.13l.51,3.19-.11.03c-.78-1.16-2.59-2.4-5.43-2.4-2.4,0-4.08,1.13-4.08,2.83,0,1.4.78,2.27,3.75,3.75l1.67.84c3.75,1.89,5.32,3.56,5.32,6.32,0,3.86-2.94,6.13-7.58,6.13-2.02,0-4.53-.54-5.99-1.7Z"/>
      <path d="M32.02,484.79v-13.71c0-1.67-.3-2.92-.84-3.51v-.11h6.48c5.24,0,7.4,1.7,7.4,4.78,0,2.29-1.13,3.94-3.29,4.89,2.86.78,4.48,2.48,4.48,5.05,0,3.89-2.81,6.24-8.29,6.24h-6.78v-.11c.54-.59.84-1.84.84-3.51ZM41.98,472.64c-.05-2.08-1.32-3.29-4.16-3.29h-3.05v7.1h1.38c4.29,0,5.88-1.21,5.83-3.81ZM43.17,482.39c-.05-2.67-1.81-4.13-5.75-4.13h-2.65v8.26h3c3.54,0,5.45-1.19,5.4-4.13Z"/>
    </g>
    <g>
      <path d="M828.25,440.35c0-2.27-1.48-3.78-3.91-3.78s-4.48,1.54-5.86,3.48l-.08-.11c.62-1.86,2.51-5.32,7.18-5.32,4.18,0,5.91,2.67,5.91,5.4,0,5.51-7.58,12.44-9.26,14.09h4.83c2.94,0,4.59-.65,5.24-1.3l.08.05-.51,3.13h-14.31v-.11c3.02-2.83,10.69-9.72,10.69-15.55Z"/>
      <path d="M833.95,445.53c0-6.32,3.29-10.91,8.5-10.91s8.5,4.59,8.5,10.91-3.29,10.9-8.5,10.9-8.5-4.59-8.5-10.9ZM847.87,445.53c0-4.64-1.78-8.96-5.43-8.96s-5.43,4.32-5.43,8.96,1.78,8.96,5.43,8.96,5.43-4.32,5.43-8.96Z"/>
      <path d="M811.72,484.79v-13.71c0-1.67-.35-2.92-.97-3.51v-.11h7.07c4.67,0,7.26,2.13,7.26,5.21,0,2.75-1.75,4.64-4.4,5.51l3.75,6.61c1.46,2.56,1.92,3.02,2.4,3.51v.11h-4.37c0-1.67-.67-2.86-1.08-3.62l-3.29-6.13c-.32.03-.62.03-.94.03h-2.67v6.1c0,1.67.35,2.92.97,3.51v.11h-4.7v-.11c.62-.59.97-1.84.97-3.51ZM822.01,472.94c-.05-2.11-1.48-3.59-4.48-3.59h-3.05v7.45h2.65c2.97,0,4.94-1.27,4.89-3.86Z"/>
      <path d="M828.25,487.14l-.43-3.46.11-.03c1.27,1.89,3.83,3.24,6.37,3.24,2.73,0,4.53-1.4,4.53-3.73,0-2.08-1.75-3.16-4.32-4.45l-1.19-.59c-3.27-1.62-4.97-3.27-4.97-5.72,0-3.05,2.35-5.37,6.88-5.37,2.19,0,3.86.43,4.94,1.13l.51,3.19-.11.03c-.78-1.16-2.59-2.4-5.43-2.4-2.4,0-4.08,1.13-4.08,2.83,0,1.4.78,2.27,3.75,3.75l1.67.84c3.75,1.89,5.32,3.56,5.32,6.32,0,3.86-2.94,6.13-7.58,6.13-2.02,0-4.53-.54-5.99-1.7Z"/>
      <path d="M844.99,484.79v-13.71c0-1.67-.3-2.92-.84-3.51v-.11h6.48c5.24,0,7.4,1.7,7.4,4.78,0,2.29-1.13,3.94-3.29,4.89,2.86.78,4.48,2.48,4.48,5.05,0,3.89-2.81,6.24-8.29,6.24h-6.78v-.11c.54-.59.84-1.84.84-3.51ZM854.95,472.64c-.05-2.08-1.32-3.29-4.16-3.29h-3.05v7.1h1.38c4.29,0,5.88-1.21,5.83-3.81ZM856.14,482.39c-.05-2.67-1.81-4.13-5.75-4.13h-2.65v8.26h3c3.54,0,5.45-1.19,5.4-4.13Z"/>
    </g>
    <g>
      <path d="M396.58,452.39v-13.6c0-1.46-.3-1.89-1.54-2.46v-.11l4.29-1.59v17.76c0,1.67.38,2.92,1,3.51v.11h-4.75v-.11c.62-.59,1-1.84,1-3.51Z"/>
      <path d="M406.13,451.8l6.8-14.85h-5.88c-2.11,0-4.08.3-4.89,1l-.11-.03.4-2.86h14.12v.11l-7.61,16.74c-.51,1.13-1.11,2.97-.84,4.1h-4.45v-.11c.65-.65,1.38-1.73,2.46-4.1Z"/>
      <path d="M416.21,452.58l.11-.13c1.54,1.46,3.56,2.27,5.72,2.27,2.83,0,5.26-1.84,5.26-5.26s-2.38-5.24-5.56-5.24c-1.75,0-3.43.54-4.43,1.13l-.05-.11,1.62-10.18h10.77l.35,2.97-.08.05c-.65-.65-2.16-1.13-5.1-1.13h-3.51l-.92,5.61c.57-.19,1.75-.32,2.83-.32,4.16,0,7.15,2.73,7.15,7.07s-3.32,7.13-7.69,7.13c-2.86,0-5.32-1.65-6.48-3.86Z"/>
      <path d="M434.57,456.17v-.11c5.99-.54,8.77-4.35,9.2-8.4-.73.92-2.48,2.13-5.1,2.13-3.78,0-6.83-3-6.83-7.56s3.05-7.61,7.42-7.61c4.91,0,7.91,3.51,7.91,9.45s-2.89,12.36-10.37,12.36c-1.05,0-1.94-.19-2.24-.27ZM443.85,442.19c0-3.4-1.86-5.61-4.67-5.61s-4.48,2.65-4.48,5.61c0,3.21,1.78,5.61,4.59,5.61s4.56-2.4,4.56-5.61Z"/>
    </g>
  </g>
  <path d="M343.09,354.7c-24.48,3.56-48.06,19.14-48.06,19.14,1.78-20.92,27.59-32.93,27.59-32.93-25.81-2.23-43.17,8.01-43.17,8.01,7.57-26.7,62.75-32.93,62.75-32.93l1.78-64.98c-15.13-.89-36.94-4-58.3-13.8-4.01,28.93,4.45,56.08,4.45,56.08,0,0-48.06,12.02-92.57,40.05,0-13.8,17.8-32.93,17.8-32.93-24.48,2.67-47.62,19.14-47.62,19.14.89-21.36,27.59-33.82,27.59-33.82-26.7-1.78-44.06,8.46-44.06,8.46,8.46-26.7,63.64-32.49,63.64-32.49l6.23-88.12c-45.84-53.85-160.21-60.97-160.21-60.97l-4.45-15.58h112.15c-32.04-24.03-118.38-19.14-118.38-19.14l2.67-20.47c30.26-4.45,82.78-18.69,116.15-26.7,8.46-2.23,29.37-4.9,44.06-4.9,69.43,0,72.54,28.93,130.84,28.93,76.99,0,97.02-54.74,179.8-54.74,156.65,0,132.18,214.51,241.66,214.51,13.35,0,28.48-1.33,40.94-9.35-12.02,25.81-52.07,35.16-76.55,35.16-86.34,0-109.92-60.08-134.4-70.32-9.35,10.24-14.69,28.04-14.69,44.5,0,33.38,26.26,66.31,38.27,72.54l-.45,2.22s-58.3,12.91-100.13,44.06c0-13.8,17.36-32.93,17.36-32.93-23.14,2.67-44.95,19.14-44.95,19.14,1.33-21.36,25.37-33.82,25.37-33.82-24.03-1.78-40.5,8.46-40.5,8.46,7.57-26.7,58.74-32.49,58.74-32.49,0,0-34.71-19.58-46.73-50.73-4.01-11.57-3.56-18.69-1.34-30.71-21.81,11.13-41.39,32.04-63.64,48.06-23.14,51.62-4.9,119.71-4.9,119.71,0,0-48.51,12.02-93.01,39.61,0-13.8,18.25-32.93,18.25-32.93ZM157.96,61.86c0-5.34-2.67-9.79-7.57-9.79s-7.57,4.45-7.57,9.79,2.67,9.79,7.57,9.79,7.57-4.45,7.57-9.79Z"/>
  <g>
    <path d="M325.5,490.19v-12.55c0-1.4-.32-2.56-1.11-3.1v-.11l3.64-1.03v2.56c.76-1.27,2.65-2.56,4.83-2.56,4.27,0,6.45,3.56,6.45,7.64,0,4.35-2.86,7.8-7.07,7.8-2.02,0-3.54-.94-4.21-1.83v3.18c0,1.67.27,2.92.89,3.51v.11h-4.32v-.11c.62-.59.89-1.84.89-3.51ZM336.51,481.69c0-3.13-1.46-6.4-4.48-6.4-2.54,0-4.16,2.48-4.16,5.64s1.59,6.29,4.53,6.29c2.46,0,4.1-2.4,4.1-5.53Z"/>
    <path d="M340.94,484.8c0-2.94,1.97-3.94,4.86-4.91,1.7-.57,3.16-1.08,4.21-1.49-.08-1.86-.89-3.18-3.43-3.18-1.67,0-3.43.67-4.54,1.73l-.11-.05.4-2.59c1.16-.49,3.08-.89,4.72-.89,3.54,0,5.48,1.59,5.48,5.96v5.43c0,1.67.27,2.32.89,2.92v.11l-3.32,1.03v-1.89c-1.13,1.4-3.02,1.92-4.32,1.89-3-.05-4.86-1.67-4.86-4.05ZM350.01,483.93v-3.89l-2.43.97c-2.46.95-3.89,1.62-3.89,3.38s1.16,2.7,2.78,2.7c1.19,0,3.54-.92,3.54-3.16Z"/>
    <path d="M355.96,484.8v-7.15c0-1.4-.32-2.56-1.11-3.1v-.11l3.64-1.03v3c1.05-1.92,3.72-2.97,5.97-2.97v3.05h-.11c-.24-.22-.76-.62-1.92-.62-2.19,0-3.94,1.97-3.94,4.64v4.29c0,1.67.27,2.92.89,3.51v.11h-4.32v-.11c.62-.59.89-1.83.89-3.51Z"/>
    <path d="M365.7,481.1c0-4.64,3.56-7.69,7.72-7.69,4.53,0,6.26,3.02,6.26,6.56h-11.17c-.03.19-.03.35-.03.54,0,3.89,2.51,6.59,6.24,6.59,2.08,0,3.81-.81,4.99-2.08l.11.05c-1.03,1.86-3,3.78-6.64,3.78-3.89,0-7.48-2.78-7.48-7.75ZM376.66,478.16c-.16-1.59-1.38-3-3.43-3-1.92,0-3.62,1.05-4.35,3h7.77Z"/>
    <path d="M382.09,484.8v-7.15c0-1.4-.32-2.56-1.11-3.1v-.11l3.64-1.03v2.54c.67-1.3,2.73-2.54,5.02-2.54,3.27,0,4.94,1.75,4.94,5.59v5.8c0,1.67.27,2.92.89,3.51v.11h-4.32v-.11c.62-.59.89-1.83.89-3.51v-5.37c0-2.54-.62-4.24-3.1-4.24-2.05,0-4.32,1.75-4.32,5.32v4.29c0,1.67.27,2.92.89,3.51v.11h-4.32v-.11c.62-.59.89-1.83.89-3.51Z"/>
    <path d="M398.21,484.8v-7.15c0-1.4-.32-2.56-1.11-3.1v-.11l3.64-1.03v3c1.05-1.92,3.72-2.97,5.97-2.97v3.05h-.11c-.24-.22-.76-.62-1.92-.62-2.19,0-3.94,1.97-3.94,4.64v4.29c0,1.67.27,2.92.89,3.51v.11h-4.32v-.11c.62-.59.89-1.83.89-3.51Z"/>
    <path d="M409.28,484.8v-7.15c0-1.4-.32-2.56-1.11-3.1v-.11l3.64-1.03v11.39c0,1.67.27,2.92.89,3.51v.11h-4.32v-.11c.62-.59.89-1.83.89-3.51ZM408.55,469.3c0-1.13.86-1.78,1.84-1.78s1.86.65,1.86,1.78-.89,1.81-1.86,1.81-1.84-.67-1.84-1.81Z"/>
    <path d="M414.63,490.25c0-1.54,1.21-2.83,2.65-3.46-1.38-.35-2.02-1.19-2.02-2.16,0-1.21,1.11-1.92,2.13-2.21-1.51-.84-2.46-2.24-2.46-4.05,0-3.1,2.7-4.97,6.18-4.97.97,0,1.86.13,2.7.43h6.21v.11l-1.57,1.97c-.62-.19-1.35-.27-2.11-.32.57.73.92,1.7.92,2.78,0,3.05-2.73,4.91-6.15,4.91-.7,0-1.38-.08-1.97-.22-.78.11-1.4.46-1.4,1,0,.7.73.97,2.38,1.08l3.29.24c3.08.22,5.43,1.43,5.43,3.73,0,2.78-2.97,5.13-7.69,5.13-3.13,0-6.51-1.27-6.51-3.99ZM426.12,489.57c0-1.19-.89-2.16-3.62-2.35l-2.35-.16c-1.4.05-2.86,1.21-2.86,2.78,0,1.89,1.97,2.62,4.26,2.65,2.81.03,4.56-1.3,4.56-2.92ZM424.64,478.34c-.13-1.94-1.54-3.37-3.67-3.37s-3.48,1.43-3.43,3.37c.05,1.94,1.54,3.37,3.67,3.37s3.56-1.43,3.43-3.37Z"/>
    <path d="M431.34,484.8v-14.17c0-1.4-.32-2.56-1.11-3.1v-.11l3.64-1.03v9.56c.67-1.3,2.73-2.54,5.02-2.54,3.27,0,4.94,2.02,4.94,5.86v5.53c0,1.67.27,2.92.89,3.51v.11h-4.32v-.11c.62-.59.89-1.83.89-3.51v-5.1c0-2.54-.62-4.24-3.1-4.24-2.05,0-4.32,1.49-4.32,5.05v4.29c0,1.67.27,2.92.89,3.51v.11h-4.32v-.11c.62-.59.89-1.83.89-3.51Z"/>
    <path d="M447.54,484.74v-9.1h-2.35v-.11l4.78-4.72h.11v3.02h5.43v.11l-1.57,1.97c-.81-.24-2.59-.32-3.86-.35v8.67c0,1.75.51,2.86,2.32,2.86.76,0,1.94-.32,2.56-1.19l.08.03-.49,2.43c-.51.22-1.4.49-2.83.49-2.62,0-4.18-1.11-4.18-4.1Z"/>
    <path d="M457.07,487.17c0-1.03.81-1.65,1.7-1.65s1.73.62,1.73,1.65-.84,1.67-1.73,1.67-1.7-.62-1.7-1.67Z"/>
    <path d="M463.25,487.68l-.38-2.83.11-.05c1.19,1.65,3,2.29,4.78,2.29,1.59,0,2.89-.67,2.89-1.94,0-1.08-.7-1.78-2.62-2.78l-1.65-.86c-2.38-1.24-3.21-2.46-3.21-4.24,0-1.97,1.94-3.86,5.21-3.86,1.62,0,2.65.32,3.51.73l.32,2.56-.08.05c-.59-.78-2.08-1.59-3.99-1.59-1.46,0-2.56.65-2.56,1.62,0,1.05.49,1.48,2.21,2.38l1.84.95c2.32,1.19,3.56,2.4,3.56,4.32,0,2.89-2.48,4.43-5.48,4.43-1.51,0-3.4-.32-4.45-1.16Z"/>
    <path d="M475.16,487.68l-.38-2.83.11-.05c1.19,1.65,3,2.29,4.78,2.29,1.59,0,2.89-.67,2.89-1.94,0-1.08-.7-1.78-2.62-2.78l-1.65-.86c-2.38-1.24-3.21-2.46-3.21-4.24,0-1.97,1.94-3.86,5.21-3.86,1.62,0,2.65.32,3.51.73l.32,2.56-.08.05c-.59-.78-2.08-1.59-3.99-1.59-1.46,0-2.56.65-2.56,1.62,0,1.05.49,1.48,2.21,2.38l1.84.95c2.32,1.19,3.56,2.4,3.56,4.32,0,2.89-2.48,4.43-5.48,4.43-1.51,0-3.4-.32-4.45-1.16Z"/>
    <path d="M486.74,481.1c0-4.45,3.29-7.69,7.96-7.69s7.96,3.24,7.96,7.69-3.29,7.75-7.96,7.75-7.96-3.27-7.96-7.75ZM499.56,481.1c0-3.27-1.75-5.83-4.86-5.83s-4.86,2.56-4.86,5.83,1.75,5.88,4.86,5.88,4.86-2.56,4.86-5.88Z"/>
    <path d="M503.32,488.79l.11-.13c1.3,1.4,2.94,2,4.4,2,2.54,0,4.24-1.94,4.24-4.26,0-2.59-1.75-4.43-4.59-4.43-1.38,0-2.54.43-3.19.84l-.05-.08,6.59-6.91h-1.94c-2.94,0-4.75.49-5.4,1.13l-.08-.05.65-3.05h11.26v.11l-6.05,6.18c3.89.22,5.91,2.83,5.91,5.97,0,2.94-2.48,6.1-6.13,6.1-2.67,0-4.64-1.19-5.72-3.4Z"/>
  </g>
</svg>