<?xml version="1.0" encoding="UTF-8"?>
<svg id="Layer_1" xmlns="http://www.w3.org/2000/svg" version="1.1" viewBox="0 0 1665.5 946.6">
  <!-- Generator: Adobe Illustrator 30.5.0, SVG Export Plug-In . SVG Version: 2.1.4 Build 167)  -->
  <defs>
    <style>
      .st0 {
        fill: #efe9e2;
      }
    </style>
  </defs>
  <g>
    <path class="st0" d="M123.06,328.58c-36.03,0-58.82-14.9-71.59-27.4-16.44-16.09-25.86-37.83-25.86-59.65,0-40.13,21.67-69.72,66.24-90.41-15.29-18.56-25.41-36.77-25.41-64.47,0-23.87,10.76-45.45,30.3-60.77C115.38,11.26,140.51,3.2,167.49,3.2c32.78,0,57.67,7.83,73.98,23.29,12.82,12.14,19.87,29.1,19.87,47.75,0,13.69-6.59,31.43-14.52,39.82h91.76v2.89l-30.18,47.71-.73-.22c-16.49-5.02-74.98-5.56-99.37-5.56h-.66l81.87,97.61c19.42,23.46,46.1,49.65,63.46,62.27l.41.3v3.11h-123.95l-.11-.88c-.97-7.73-6.06-18.02-15.13-30.6-17.67,17.82-44.02,37.88-91.13,37.88ZM167.49,5.2c-26.53,0-51.22,7.9-69.52,22.25-19.04,14.93-29.53,35.96-29.53,59.2,0,27.6,10.31,45.63,25.78,64.2l.84,1.01-1.19.54c-44.58,20.36-66.25,49.52-66.25,89.14,0,41.81,35.7,85.05,95.45,85.05,47.12,0,73.14-20.37,90.54-38.12l.83-.84.7.95c9.37,12.83,14.77,23.45,16.07,31.61h120.2v-.09c-17.48-12.82-44.05-38.92-63.41-62.3l-84.62-100.89h4.94c24.13,0,81.55.53,99.21,5.43l29.06-45.94v-.31h-94.97l2.07-1.76c8.96-7.62,15.66-27.43,15.66-40.06,0-16.2-6.62-69.04-91.85-69.04ZM144.68,268.55c-21.45,0-37.02-16.41-37.02-39.02,0-16.47,5.89-30.72,17.5-42.33l.75-.75,58.62,66.4-.79.66c-12.48,10.4-24.53,15.04-39.06,15.04ZM125.83,189.37c-10.73,11.08-16.17,24.59-16.17,40.16,0,21.8,14.4,37.02,35.02,37.02,13.91,0,25.03-4.17,36.99-13.92l-55.84-63.26ZM181.15,130.14l-1.96-1.96c-22.81-27.05-32.73-40.39-32.31-54.77.39-15.9,11.57-26.58,27.81-26.58,17.32,0,29.42,13.41,29.42,32.62,0,12.46-2.7,27.13-22.25,49.88l-.7.82ZM174.69,48.83c-15.32,0-25.45,9.67-25.82,24.64-.38,12.94,7.6,24.67,31.78,53.36l.38.37c18.5-21.79,21.07-35.83,21.07-47.76,0-18.03-11.27-30.62-27.42-30.62Z"/>
    <path class="st0" d="M570.11,286.36c-21.21,22.01-50.83,41.22-98.86,41.22-60.43,0-96.45-43.62-96.45-86.05,0-64.04,56.83-88.45,94.05-100.86L378,12.21v-1.6h229.33l15.21,66.44-1.6.4c-15.61-11.61-34.02-15.61-60.83-15.61h-62.43l90.45,128.47c7.2-16.41,10.01-34.42,10.01-51.23,0-12.81-2.4-25.21-7.2-32.42v-1.6h66.04c0,41.22-14.41,90.45-40.82,125.27l18.81,26.81c18.01,26.01,41.62,49.63,59.23,62.43v1.6h-114.46c0-12.01-4-24.01-9.61-34.82ZM492.87,267.55c18.41,0,34.02-6,50.43-21.61l-50.83-71.64c-23.61,13.61-35.62,31.62-35.62,55.23s15.21,38.02,36.02,38.02Z"/>
    <path class="st0" d="M1248.27,322.18h-114.95l.09-1.09c1.28-14.89-.67-31.14-5.97-49.67l-30.17-106.58-69.95,121.71h-2.76l-66.3-115.24-25,97.67c-5.58,22.31-7.52,41.74-5.2,51.96l.28,1.22h-83.1v-2.96l.23-.28c11.8-14.16,24.44-41.85,33.83-74.08L949.96,0h2.94l87.86,156.63L1127.02,0h2.91l88.68,264.83c7.75,23.25,20.08,45.96,29.32,53.99l.34.3v3.06ZM1135.5,320.18h110.78v-.15c-9.44-8.49-21.81-31.3-29.56-54.56L1128.49,2h-.29l-87.43,158.75L951.73,2h-.26l-70.23,243.42c-9.4,32.27-22.08,60.08-33.98,74.52v.24h78.62c-1.99-10.78.02-29.91,5.46-51.67l26.23-102.44,68.17,118.49h.44l71.73-124.82,31.46,111.14c5.23,18.32,7.24,34.46,6.12,49.3Z"/>
    <path class="st0" d="M1358.13,139.48l-8,128.07c-1.6,24.81,2,43.22,11.21,52.03v1.6h-86.45v-1.6c9.21-8.8,16.41-27.21,18.41-52.03l15.61-195.71c2-24.01-2.4-48.03-11.21-58.03v-1.6h96.85l72.04,163.69,75.64-163.69h88.45v1.6c-7.6,9.61-13.21,33.22-11.21,58.03l15.61,195.71c2,24.81,10.41,43.22,19.61,52.03v1.6h-113.66v-1.6c9.21-8.8,12.01-27.21,10-52.03l-10.41-132.87-90.85,195.71h-1.6l-90.05-190.91Z"/>
    <path class="st0" d="M400.42,868.63c-71.89,0-147.86-39.7-219.54-80.42-3.5.37-6.29.37-9.79.37-47.18,0-90.31-15.8-121.44-44.49C17.17,714.16,0,673.29,0,625.89s17.17-88.27,49.65-118.2c31.13-28.69,74.26-44.49,121.44-44.49s90.31,15.8,121.44,44.49c32.48,29.93,49.65,70.81,49.65,118.2,0,54.69-23.15,101.09-65.24,130.83,73.68,46.93,128.1,67.88,176.3,67.88,27.88,0,51.29-4.94,69.57-14.69l1.13-.6.82,3.27-.24.37c-18.18,27.67-66.65,55.68-124.1,55.68ZM181.31,786.15l.28.16c71.52,40.64,147.34,80.31,218.83,80.31,56.42,0,104-27.24,122.12-54.31-18.39,9.48-41.69,14.29-69.29,14.29-48.88,0-103.97-21.28-178.64-69l-1.27-.81,1.23-.86c42.31-29.32,65.61-75.51,65.61-130.05,0-46.82-16.95-87.19-49.01-116.73-30.76-28.35-73.41-43.96-120.09-43.96s-89.33,15.61-120.09,43.96c-32.06,29.55-49.01,69.91-49.01,116.73s16.95,87.19,49.01,116.73c30.76,28.35,73.41,43.96,120.09,43.96,3.55,0,6.35,0,9.89-.39l.32-.04ZM177.1,740.96c-29.75,0-52.53-14.16-67.72-42.1-12.21-22.46-18.93-53.92-18.93-88.58,0-63.2,27.35-99.45,75.04-99.45,30.08,0,53,14.69,68.12,43.66,15.77,30.21,18.12,66.98,18.12,86.21,0,63.71-27.21,100.26-74.64,100.26ZM165.49,512.83c-46.42,0-73.04,35.52-73.04,97.45,0,34.33,6.64,65.45,18.69,87.62,14.81,27.24,37,41.05,65.96,41.05,24.12,0,42.7-9.33,55.2-27.73,11.41-16.78,17.44-41.17,17.44-70.53,0-61.82-22.13-127.87-84.25-127.87Z"/>
    <path class="st0" d="M372,625.89c0-97.65,74.84-161.69,170.09-161.69s170.09,64.04,170.09,161.69c0,42.42-14.01,78.04-37.62,105.26h.4c22.81,0,54.03-7.6,66.44-19.21l1.6.4-16.81,68.84h-133.67c-15.61,4-32.82,6.4-50.43,6.4-95.25,0-170.09-64.04-170.09-161.69ZM621.74,640.7c0-56.83-19.61-128.87-85.25-128.87-51.23,0-74.04,41.62-74.04,98.45,0,62.04,21.61,129.67,85.65,129.67,51.23,0,73.64-42.02,73.64-99.26Z"/>
    <path class="st0" d="M955.92,868.63c-29.38,0-54.31-5.27-72.08-15.24-18.69-10.49-28.58-25.77-28.58-44.2,0-24.69,18-38.73,29.81-45.28-14.08-8.84-21.8-21.83-21.8-36.77,0-17.54,15.54-31.59,31.54-38.2-22.11-13.28-34.74-34.26-34.74-57.86,0-45.3,38.26-73.44,99.86-73.44,16.83,0,32.49,2.15,46.57,6.4h100.51v2.84l-23.71,45.78-.8-.25c-5.41-1.67-15.21-2.77-23.03-3.43,2.63,7.24,3.91,14.48,3.91,22.09,0,42.55-43.51,73.44-103.46,73.44-6.58,0-12.45-.36-19-1.17-1.9,1.15-4.02,3.12-4.02,6.17,0,6.55,9.07,8.5,22.68,9.41l37.22,2.4c59.34,3.68,86.98,22.18,86.98,58.23,0,28.15-13.43,51.4-38.84,67.24-22.57,14.07-54.19,21.81-89.03,21.81ZM959.92,559.66c-60.36,0-97.86,27.37-97.86,71.44,0,23.49,12.94,44.32,35.52,57.16l1.86,1.06-2,.75c-16.01,6-32.17,19.8-32.17,37.08,0,18.87,12.14,29.97,22.32,35.96l1.55.91-1.59.84c-11.31,5.94-30.28,19.59-30.28,44.34,0,17.66,9.53,32.34,27.55,42.45,17.47,9.8,42.06,14.98,71.1,14.98,34.47,0,65.71-7.64,87.97-21.51,24.79-15.45,37.9-38.11,37.9-65.54,0-34.76-27.04-52.63-85.11-56.23l-37.22-2.4c-11.88-.79-24.55-2.39-24.55-11.4,0-3.3,1.83-6.09,5.31-8.07l.29-.17.33.04c6.59.82,12.48,1.19,19.09,1.19,58.79,0,101.46-30.04,101.46-71.44,0-7.87-1.42-15.35-4.33-22.85l-.58-1.49,1.59.13c7.78.62,18.13,1.71,24.22,3.41l22.72-43.88v-.36h-98.8l-.14-.04c-13.93-4.22-29.45-6.36-46.14-6.36ZM962.32,825c-31.47,0-47.43-8.95-47.43-26.61,0-11.08,5.46-19.43,15.79-24.12l.23-.1,45.07,2.82c21.07,1.43,31.75,7.96,31.75,19.41,0,9.26-5.27,16.89-15.25,22.05-8.06,4.17-19.06,6.57-30.18,6.57ZM931.29,776.19c-9.55,4.42-14.4,11.89-14.4,22.2,0,16.33,15.28,24.61,45.43,24.61,20.91,0,43.42-8.33,43.42-26.62,0-10.35-9.78-16.05-29.89-17.41l-44.57-2.78ZM965.52,668.92c-10.58,0-18.8-6.07-23.78-17.56-4.86-11.22-5.24-24.16-5.24-27.86,0-9.7,2.09-17.25,6.22-22.44,4.11-5.16,10.03-7.78,17.59-7.78,21.42,0,29.02,24.25,29.02,45.02,0,9.67-2.14,17.28-6.37,22.63-4.13,5.22-10.16,7.98-17.44,7.98ZM960.32,595.27c-14.07,0-21.81,10.02-21.81,28.22,0,4.44.76,43.42,27.02,43.42,13.86,0,21.81-10.43,21.81-28.62,0-19.85-7.08-43.02-27.02-43.02Z"/>
    <path class="st0" d="M1133.21,854.02l-3.6-50.83,1.6-.8c2,2.8,28.42,17.21,61.23,17.21,37.22,0,52.83-16.81,52.83-41.22v-12.01c-9.61,12.01-26.42,21.21-58.43,21.21-59.23,0-87.25-49.63-87.25-107.26,0-72.84,47.63-121.67,106.86-121.67,28.02,0,50.83,7.2,67.64,24.81l41.22-18.41h1.6v198.91c0,67.64-36.42,103.66-110.06,103.66-33.62,0-52.03-4-73.64-13.61ZM1245.28,682.72c0-28.82-7.6-82.04-36.82-82.04-20.81,0-30.42,27.62-30.82,62.43,0,28.82,8.4,82.45,37.62,82.45,20.41,0,30.02-27.62,30.02-62.83Z"/>
    <path class="st0" d="M1423.61,868.75l-1.43-2.85.4-.5c25.31-31.96,29.4-65.4,29.4-133.05v-110.06c0-24.07-4.57-38.44-14.38-45.2l-.43-.3v-2.97l94.05-16.36v202.5c0,55.8-38.95,95.4-106.87,108.64l-.75.15ZM1424.54,866.15l.18.35c66.43-13.18,104.5-51.98,104.5-106.53v-200.12l-90.05,15.66v.24c10.1,7.28,14.81,22.1,14.81,46.54v110.06c0,74.53-6.62,104.74-29.44,133.8ZM1489.8,541.64c-22.26,0-46.22-13.84-46.22-44.22,0-13.46,4.82-24.76,13.95-32.67,8.29-7.19,19.75-11.15,32.27-11.15,23.17,0,46.63,15.05,46.63,43.82s-23.46,44.22-46.63,44.22ZM1489.8,455.6c-30.55,0-44.22,21.01-44.22,41.82,0,29.01,22.92,42.22,44.22,42.22s44.63-14.5,44.63-42.22c0-20.14-13.96-41.82-44.63-41.82Z"/>
    <path class="st0" d="M1578.25,732.35v-110.06c0-20.81-3.2-38.02-14.81-46.03v-1.6l92.05-16.01v201.31c0,58.03-42.42,95.25-106.06,107.66l-.8-1.6c24.41-30.82,29.62-62.83,29.62-133.67ZM1562.24,492.22v-.8c14.41-11.61,40.02-36.82,50.83-51.63h1.6c10.81,14.81,36.42,40.02,50.83,51.63v.8c-14.41,11.61-40.02,36.82-50.83,51.63h-1.6c-10.81-14.81-36.42-40.02-50.83-51.63Z"/>
  </g>
  <g>
    <path class="st0" d="M115.1,397.26c0-2.94,1.97-3.94,4.86-4.91,1.7-.57,3.16-1.08,4.21-1.49-.08-1.86-.89-3.18-3.43-3.18-1.67,0-3.43.67-4.54,1.73l-.11-.05.4-2.59c1.16-.49,3.08-.89,4.72-.89,3.54,0,5.48,1.59,5.48,5.96v5.43c0,1.67.27,2.32.89,2.92v.11l-3.32,1.03v-1.89c-1.13,1.4-3.02,1.92-4.32,1.89-3-.05-4.86-1.67-4.86-4.05ZM124.17,396.39v-3.89l-2.43.97c-2.46.95-3.89,1.62-3.89,3.38s1.16,2.7,2.78,2.7c1.19,0,3.54-.92,3.54-3.16Z"/>
    <path class="st0" d="M130.11,397.26v-7.15c0-1.4-.32-2.56-1.11-3.1v-.11l3.64-1.03v2.54c.67-1.3,2.38-2.54,4.56-2.54s3.59.92,4.21,2.83c.76-1.43,2.56-2.86,4.94-2.83,3,.03,4.59,1.75,4.59,5.59v5.8c0,1.67.27,2.92.89,3.51v.11h-4.32v-.11c.62-.59.89-1.83.89-3.51v-5.37c0-2.54-.54-4.24-2.75-4.24-1.94,0-3.86,1.75-3.86,5.32v4.29c0,1.67.27,2.92.89,3.51v.11h-4.32v-.11c.62-.59.89-1.83.89-3.51v-5.37c0-2.54-.54-4.24-2.75-4.24-1.94,0-3.86,1.75-3.86,5.32v4.29c0,1.67.27,2.92.89,3.51v.11h-4.32v-.11c.62-.59.89-1.83.89-3.51Z"/>
    <path class="st0" d="M154.49,402.65v-12.55c0-1.4-.32-2.56-1.11-3.1v-.11l3.64-1.03v2.56c.76-1.27,2.65-2.56,4.83-2.56,4.27,0,6.45,3.56,6.45,7.64,0,4.35-2.86,7.8-7.07,7.8-2.02,0-3.54-.94-4.21-1.83v3.18c0,1.67.27,2.92.89,3.51v.11h-4.32v-.11c.62-.59.89-1.84.89-3.51ZM165.51,394.15c0-3.13-1.46-6.4-4.48-6.4-2.54,0-4.16,2.48-4.16,5.64s1.59,6.29,4.53,6.29c2.46,0,4.1-2.4,4.1-5.53Z"/>
    <path class="st0" d="M170.26,393.56c0-4.64,3.56-7.69,7.72-7.69,4.53,0,6.26,3.02,6.26,6.56h-11.17c-.03.19-.03.35-.03.54,0,3.89,2.51,6.59,6.24,6.59,2.08,0,3.81-.81,4.99-2.08l.11.05c-1.03,1.86-3,3.78-6.64,3.78-3.89,0-7.48-2.78-7.48-7.75ZM181.22,390.62c-.16-1.59-1.38-3-3.43-3-1.92,0-3.62,1.05-4.35,3h7.77Z"/>
    <path class="st0" d="M186.65,397.26v-7.15c0-1.4-.32-2.56-1.11-3.1v-.11l3.64-1.03v3c1.05-1.92,3.72-2.97,5.97-2.97v3.05h-.11c-.24-.22-.76-.62-1.92-.62-2.19,0-3.94,1.97-3.94,4.64v4.29c0,1.67.27,2.92.89,3.51v.11h-4.32v-.11c.62-.59.89-1.83.89-3.51Z"/>
    <path class="st0" d="M196.99,400.14l-.38-2.83.11-.05c1.19,1.65,3,2.29,4.78,2.29,1.59,0,2.89-.67,2.89-1.94,0-1.08-.7-1.78-2.62-2.78l-1.65-.86c-2.38-1.24-3.21-2.46-3.21-4.24,0-1.97,1.94-3.86,5.21-3.86,1.62,0,2.65.32,3.51.73l.32,2.56-.08.05c-.59-.78-2.08-1.59-3.99-1.59-1.46,0-2.56.65-2.56,1.62,0,1.05.49,1.48,2.21,2.38l1.84.95c2.32,1.19,3.56,2.4,3.56,4.32,0,2.89-2.48,4.43-5.48,4.43-1.51,0-3.4-.32-4.45-1.16Z"/>
    <path class="st0" d="M208.46,397.26c0-2.94,1.97-3.94,4.86-4.91,1.7-.57,3.16-1.08,4.21-1.49-.08-1.86-.89-3.18-3.43-3.18-1.67,0-3.43.67-4.54,1.73l-.11-.05.4-2.59c1.16-.49,3.08-.89,4.72-.89,3.54,0,5.48,1.59,5.48,5.96v5.43c0,1.67.27,2.32.89,2.92v.11l-3.32,1.03v-1.89c-1.13,1.4-3.02,1.92-4.32,1.89-3-.05-4.86-1.67-4.86-4.05ZM217.53,396.39v-3.89l-2.43.97c-2.46.95-3.89,1.62-3.89,3.38s1.16,2.7,2.78,2.7c1.19,0,3.54-.92,3.54-3.16Z"/>
    <path class="st0" d="M223.48,397.26v-7.15c0-1.4-.32-2.56-1.11-3.1v-.11l3.64-1.03v2.54c.67-1.3,2.73-2.54,5.02-2.54,3.27,0,4.94,1.75,4.94,5.59v5.8c0,1.67.27,2.92.89,3.51v.11h-4.32v-.11c.62-.59.89-1.83.89-3.51v-5.37c0-2.54-.62-4.24-3.1-4.24-2.05,0-4.32,1.75-4.32,5.32v4.29c0,1.67.27,2.92.89,3.51v.11h-4.32v-.11c.62-.59.89-1.83.89-3.51Z"/>
    <path class="st0" d="M238.3,393.67c0-4.35,2.86-7.8,7.07-7.8,2.24,0,3.67,1.05,4.13,1.81v-4.59c0-1.4-.32-2.56-1.11-3.1v-.11l3.64-1.03v18.41c0,1.67.27,2.32.89,2.92v.11l-3.35,1.03v-2.56c-.65,1.38-2.54,2.56-4.72,2.56-4.26,0-6.56-3.56-6.56-7.64ZM249.74,393.58c-.05-3.32-1.92-5.97-4.48-5.97s-4.26,2.65-4.16,5.97c.08,3.35,1.94,5.97,4.53,5.97s4.24-2.62,4.1-5.97Z"/>
  </g>
  <g>
    <path class="st0" d="M427.3,397.26c0-2.94,1.97-3.94,4.86-4.91,1.7-.57,3.16-1.08,4.21-1.49-.08-1.86-.89-3.18-3.43-3.18-1.67,0-3.43.67-4.54,1.73l-.11-.05.4-2.59c1.16-.49,3.08-.89,4.72-.89,3.54,0,5.48,1.59,5.48,5.96v5.43c0,1.67.27,2.32.89,2.92v.11l-3.32,1.03v-1.89c-1.13,1.4-3.02,1.92-4.32,1.89-3-.05-4.86-1.67-4.86-4.05ZM436.37,396.39v-3.89l-2.43.97c-2.46.95-3.89,1.62-3.89,3.38s1.16,2.7,2.78,2.7c1.19,0,3.54-.92,3.54-3.16Z"/>
    <path class="st0" d="M442.31,397.26v-7.15c0-1.4-.32-2.56-1.11-3.1v-.11l3.64-1.03v2.54c.67-1.3,2.38-2.54,4.56-2.54s3.59.92,4.21,2.83c.76-1.43,2.56-2.86,4.94-2.83,3,.03,4.59,1.75,4.59,5.59v5.8c0,1.67.27,2.92.89,3.51v.11h-4.32v-.11c.62-.59.89-1.83.89-3.51v-5.37c0-2.54-.54-4.24-2.75-4.24-1.94,0-3.86,1.75-3.86,5.32v4.29c0,1.67.27,2.92.89,3.51v.11h-4.32v-.11c.62-.59.89-1.83.89-3.51v-5.37c0-2.54-.54-4.24-2.75-4.24-1.94,0-3.86,1.75-3.86,5.32v4.29c0,1.67.27,2.92.89,3.51v.11h-4.32v-.11c.62-.59.89-1.83.89-3.51Z"/>
    <path class="st0" d="M466.69,402.65v-12.55c0-1.4-.32-2.56-1.11-3.1v-.11l3.64-1.03v2.56c.76-1.27,2.65-2.56,4.83-2.56,4.27,0,6.45,3.56,6.45,7.64,0,4.35-2.86,7.8-7.07,7.8-2.02,0-3.54-.94-4.21-1.83v3.18c0,1.67.27,2.92.89,3.51v.11h-4.32v-.11c.62-.59.89-1.84.89-3.51ZM477.71,394.15c0-3.13-1.46-6.4-4.48-6.4-2.54,0-4.16,2.48-4.16,5.64s1.59,6.29,4.53,6.29c2.46,0,4.1-2.4,4.1-5.53Z"/>
    <path class="st0" d="M482.46,393.56c0-4.64,3.56-7.69,7.72-7.69,4.53,0,6.26,3.02,6.26,6.56h-11.17c-.03.19-.03.35-.03.54,0,3.89,2.51,6.59,6.24,6.59,2.08,0,3.81-.81,4.99-2.08l.11.05c-1.03,1.86-3,3.78-6.64,3.78-3.89,0-7.48-2.78-7.48-7.75ZM493.42,390.62c-.16-1.59-1.38-3-3.43-3-1.92,0-3.62,1.05-4.35,3h7.77Z"/>
    <path class="st0" d="M498.85,397.26v-7.15c0-1.4-.32-2.56-1.11-3.1v-.11l3.64-1.03v3c1.05-1.92,3.72-2.97,5.97-2.97v3.05h-.11c-.24-.22-.76-.62-1.92-.62-2.19,0-3.94,1.97-3.94,4.64v4.29c0,1.67.27,2.92.89,3.51v.11h-4.32v-.11c.62-.59.89-1.83.89-3.51Z"/>
    <path class="st0" d="M509.19,400.14l-.38-2.83.11-.05c1.19,1.65,3,2.29,4.78,2.29,1.59,0,2.89-.67,2.89-1.94,0-1.08-.7-1.78-2.62-2.78l-1.65-.86c-2.38-1.24-3.21-2.46-3.21-4.24,0-1.97,1.94-3.86,5.21-3.86,1.62,0,2.65.32,3.51.73l.32,2.56-.08.05c-.59-.78-2.08-1.59-3.99-1.59-1.46,0-2.56.65-2.56,1.62,0,1.05.49,1.48,2.21,2.38l1.84.95c2.32,1.19,3.56,2.4,3.56,4.32,0,2.89-2.48,4.43-5.48,4.43-1.51,0-3.4-.32-4.45-1.16Z"/>
    <path class="st0" d="M520.67,397.26c0-2.94,1.97-3.94,4.86-4.91,1.7-.57,3.16-1.08,4.21-1.49-.08-1.86-.89-3.18-3.43-3.18-1.67,0-3.43.67-4.54,1.73l-.11-.05.4-2.59c1.16-.49,3.08-.89,4.72-.89,3.54,0,5.48,1.59,5.48,5.96v5.43c0,1.67.27,2.32.89,2.92v.11l-3.32,1.03v-1.89c-1.13,1.4-3.02,1.92-4.32,1.89-3-.05-4.86-1.67-4.86-4.05ZM529.73,396.39v-3.89l-2.43.97c-2.46.95-3.89,1.62-3.89,3.38s1.16,2.7,2.78,2.7c1.19,0,3.54-.92,3.54-3.16Z"/>
    <path class="st0" d="M535.68,397.26v-7.15c0-1.4-.32-2.56-1.11-3.1v-.11l3.64-1.03v2.54c.67-1.3,2.73-2.54,5.02-2.54,3.27,0,4.94,1.75,4.94,5.59v5.8c0,1.67.27,2.92.89,3.51v.11h-4.32v-.11c.62-.59.89-1.83.89-3.51v-5.37c0-2.54-.62-4.24-3.1-4.24-2.05,0-4.32,1.75-4.32,5.32v4.29c0,1.67.27,2.92.89,3.51v.11h-4.32v-.11c.62-.59.89-1.83.89-3.51Z"/>
    <path class="st0" d="M550.5,393.67c0-4.35,2.86-7.8,7.07-7.8,2.24,0,3.67,1.05,4.13,1.81v-4.59c0-1.4-.32-2.56-1.11-3.1v-.11l3.64-1.03v18.41c0,1.67.27,2.32.89,2.92v.11l-3.35,1.03v-2.56c-.65,1.38-2.54,2.56-4.72,2.56-4.26,0-6.56-3.56-6.56-7.64ZM561.94,393.58c-.05-3.32-1.92-5.97-4.48-5.97s-4.26,2.65-4.16,5.97c.08,3.35,1.94,5.97,4.53,5.97s4.24-2.62,4.1-5.97Z"/>
    <path class="st0" d="M567.51,399.63c0-1.03.81-1.65,1.7-1.65s1.73.62,1.73,1.65-.84,1.67-1.73,1.67-1.7-.62-1.7-1.67Z"/>
    <path class="st0" d="M573.69,400.14l-.38-2.83.11-.05c1.19,1.65,3,2.29,4.78,2.29,1.59,0,2.89-.67,2.89-1.94,0-1.08-.7-1.78-2.62-2.78l-1.65-.86c-2.38-1.24-3.21-2.46-3.21-4.24,0-1.97,1.94-3.86,5.21-3.86,1.62,0,2.65.32,3.51.73l.32,2.56-.08.05c-.59-.78-2.08-1.59-3.99-1.59-1.46,0-2.56.65-2.56,1.62,0,1.05.49,1.48,2.21,2.38l1.84.95c2.32,1.19,3.56,2.4,3.56,4.32,0,2.89-2.48,4.43-5.48,4.43-1.51,0-3.4-.32-4.45-1.16Z"/>
    <path class="st0" d="M585.6,400.14l-.38-2.83.11-.05c1.19,1.65,3,2.29,4.78,2.29,1.59,0,2.89-.67,2.89-1.94,0-1.08-.7-1.78-2.62-2.78l-1.65-.86c-2.38-1.24-3.21-2.46-3.21-4.24,0-1.97,1.94-3.86,5.21-3.86,1.62,0,2.65.32,3.51.73l.32,2.56-.08.05c-.59-.78-2.08-1.59-3.99-1.59-1.46,0-2.56.65-2.56,1.62,0,1.05.49,1.48,2.21,2.38l1.84.95c2.32,1.19,3.56,2.4,3.56,4.32,0,2.89-2.48,4.43-5.48,4.43-1.51,0-3.4-.32-4.45-1.16Z"/>
    <path class="st0" d="M597.4,390.4c0-6.32,3.29-10.9,8.5-10.9s8.5,4.59,8.5,10.9-3.29,10.91-8.5,10.91-8.5-4.59-8.5-10.91ZM611.33,390.4c0-4.64-1.78-8.96-5.43-8.96s-5.43,4.32-5.43,8.96,1.78,8.96,5.43,8.96,5.43-4.32,5.43-8.96Z"/>
    <path class="st0" d="M617.16,397.26v-13.6c0-1.46-.3-1.89-1.54-2.46v-.11l4.29-1.59v17.76c0,1.67.38,2.92,1,3.51v.11h-4.75v-.11c.62-.59,1-1.83,1-3.51Z"/>
  </g>
  <path class="st0" d="M181.75,940.96c-.81.16-1.59.24-2.43.24-5.88,0-11.07-4.05-11.07-10.91s5.18-10.9,11.07-10.9,11.07,4.05,11.07,10.9c0,4.51-2.24,7.8-5.45,9.53,4.67,2.86,8.12,5.18,12.55,5.18,1.94,0,3.59-.16,5.37-1.19l.03.11c-1.89,1.7-4.24,2.67-6.91,2.67-5.4,0-9.56-2.94-14.23-5.64ZM187.31,930.78c0-4.8-2.89-9.45-8.18-9.45-4.7,0-7.8,3.75-7.8,8.45s2.83,9.47,8.15,9.47c4.72,0,7.85-3.72,7.83-8.48Z"/>
  <g>
    <path class="st0" d="M525.24,940.96c-.81.16-1.59.24-2.43.24-5.88,0-11.07-4.05-11.07-10.91s5.18-10.9,11.07-10.9,11.07,4.05,11.07,10.9c0,4.51-2.24,7.8-5.45,9.53,4.67,2.86,8.12,5.18,12.55,5.18,1.94,0,3.59-.16,5.37-1.19l.03.11c-1.89,1.7-4.24,2.67-6.91,2.67-5.4,0-9.56-2.94-14.23-5.64ZM530.8,930.78c0-4.8-2.89-9.45-8.18-9.45-4.7,0-7.8,3.75-7.8,8.45s2.83,9.47,8.15,9.47c4.72,0,7.85-3.72,7.83-8.48Z"/>
    <path class="st0" d="M536.23,939.53c0-1.03.81-1.65,1.7-1.65s1.73.62,1.73,1.65-.84,1.67-1.73,1.67-1.7-.62-1.7-1.67Z"/>
    <path class="st0" d="M542.41,940.04l-.38-2.83.11-.05c1.19,1.65,3,2.29,4.78,2.29,1.59,0,2.89-.67,2.89-1.94,0-1.08-.7-1.78-2.62-2.78l-1.65-.86c-2.38-1.24-3.21-2.46-3.21-4.24,0-1.97,1.94-3.86,5.21-3.86,1.62,0,2.65.32,3.51.73l.32,2.56-.08.05c-.59-.78-2.08-1.59-3.99-1.59-1.46,0-2.56.65-2.56,1.62,0,1.05.49,1.48,2.21,2.38l1.84.95c2.32,1.19,3.56,2.4,3.56,4.32,0,2.89-2.48,4.43-5.48,4.43-1.51,0-3.4-.32-4.45-1.16Z"/>
    <path class="st0" d="M554.32,940.04l-.38-2.83.11-.05c1.19,1.65,3,2.29,4.78,2.29,1.59,0,2.89-.67,2.89-1.94,0-1.08-.7-1.78-2.62-2.78l-1.65-.86c-2.38-1.24-3.21-2.46-3.21-4.24,0-1.97,1.94-3.86,5.21-3.86,1.62,0,2.65.32,3.51.73l.32,2.56-.08.05c-.59-.78-2.08-1.59-3.99-1.59-1.46,0-2.56.65-2.56,1.62,0,1.05.49,1.48,2.21,2.38l1.84.95c2.32,1.19,3.56,2.4,3.56,4.32,0,2.89-2.48,4.43-5.48,4.43-1.51,0-3.4-.32-4.45-1.16Z"/>
    <path class="st0" d="M566.12,930.3c0-6.32,3.29-10.9,8.5-10.9s8.5,4.59,8.5,10.9-3.29,10.91-8.5,10.91-8.5-4.59-8.5-10.91ZM580.05,930.3c0-4.64-1.78-8.96-5.43-8.96s-5.43,4.32-5.43,8.96,1.78,8.96,5.43,8.96,5.43-4.32,5.43-8.96Z"/>
    <path class="st0" d="M585.88,937.15v-13.6c0-1.46-.3-1.89-1.54-2.46v-.11l4.29-1.59v17.76c0,1.67.38,2.92,1,3.51v.11h-4.75v-.11c.62-.59,1-1.83,1-3.51Z"/>
  </g>
  <path class="st0" d="M1038.04,395.74l4.59-16.25h.11l5.37,12.71,5.34-12.71h.11l5.64,17.6c.51,1.62,1.24,3.08,1.81,3.67v.11h-4.32c.16-.94.03-2.11-.35-3.37l-3.46-11.45-4.99,11.63h-.11l-4.97-11.34-3,10.99c-.43,1.62-.38,2.81-.19,3.54h-3.73v-.11c.81-.94,1.54-2.89,2.13-5.02Z"/>
  <g>
    <path class="st0" d="M1430.44,395.74l4.59-16.25h.11l5.37,12.71,5.34-12.71h.11l5.64,17.6c.51,1.62,1.24,3.08,1.81,3.67v.11h-4.32c.16-.94.03-2.11-.35-3.37l-3.46-11.45-4.99,11.63h-.11l-4.97-11.34-3,10.99c-.43,1.62-.38,2.81-.19,3.54h-3.73v-.11c.81-.94,1.54-2.89,2.13-5.02Z"/>
    <path class="st0" d="M1455.09,399.63c0-1.03.81-1.65,1.7-1.65s1.73.62,1.73,1.65-.84,1.67-1.73,1.67-1.7-.62-1.7-1.67Z"/>
    <path class="st0" d="M1461.27,400.14l-.38-2.83.11-.05c1.19,1.65,3,2.29,4.78,2.29,1.59,0,2.89-.67,2.89-1.94,0-1.08-.7-1.78-2.62-2.78l-1.65-.86c-2.38-1.24-3.21-2.46-3.21-4.24,0-1.97,1.94-3.86,5.21-3.86,1.62,0,2.65.32,3.51.73l.32,2.56-.08.05c-.59-.78-2.08-1.59-3.99-1.59-1.46,0-2.56.65-2.56,1.62,0,1.05.49,1.48,2.21,2.38l1.84.95c2.32,1.19,3.56,2.4,3.56,4.32,0,2.89-2.48,4.43-5.48,4.43-1.51,0-3.4-.32-4.45-1.16Z"/>
    <path class="st0" d="M1473.18,400.14l-.38-2.83.11-.05c1.19,1.65,3,2.29,4.78,2.29,1.59,0,2.89-.67,2.89-1.94,0-1.08-.7-1.78-2.62-2.78l-1.65-.86c-2.38-1.24-3.21-2.46-3.21-4.24,0-1.97,1.94-3.86,5.21-3.86,1.62,0,2.65.32,3.51.73l.32,2.56-.08.05c-.59-.78-2.08-1.59-3.99-1.59-1.46,0-2.56.65-2.56,1.62,0,1.05.49,1.48,2.21,2.38l1.84.95c2.32,1.19,3.56,2.4,3.56,4.32,0,2.89-2.48,4.43-5.48,4.43-1.51,0-3.4-.32-4.45-1.16Z"/>
    <path class="st0" d="M1484.98,390.4c0-6.32,3.29-10.9,8.5-10.9s8.5,4.59,8.5,10.9-3.29,10.91-8.5,10.91-8.5-4.59-8.5-10.91ZM1498.91,390.4c0-4.64-1.78-8.96-5.43-8.96s-5.43,4.32-5.43,8.96,1.78,8.96,5.43,8.96,5.43-4.32,5.43-8.96Z"/>
    <path class="st0" d="M1504.74,397.26v-13.6c0-1.46-.3-1.89-1.54-2.46v-.11l4.29-1.59v17.76c0,1.67.38,2.92,1,3.51v.11h-4.75v-.11c.62-.59,1-1.83,1-3.51Z"/>
  </g>
  <path class="st0" d="M965.43,941.29c0-1.46,1.21-2.69,2.65-3.28-1.38-.33-2.02-1.13-2.02-2.05,0-1.15,1.11-1.82,2.13-2.1-1.51-.79-2.46-2.13-2.46-3.84,0-2.95,2.7-4.71,6.18-4.71.97,0,1.86.13,2.7.41h6.21v.1l-1.57,1.87c-.62-.18-1.35-.26-2.11-.31.57.69.92,1.61.92,2.64,0,2.89-2.73,4.66-6.15,4.66-.7,0-1.38-.08-1.97-.2-.78.1-1.4.44-1.4.95,0,.67.73.92,2.38,1.03l3.29.23c3.08.21,5.42,1.36,5.42,3.54,0,2.64-2.97,4.87-7.69,4.87-3.13,0-6.51-1.2-6.51-3.79ZM976.93,940.65c0-1.13-.89-2.05-3.62-2.23l-2.35-.15c-1.4.05-2.86,1.15-2.86,2.64,0,1.79,1.97,2.49,4.26,2.51,2.81.03,4.56-1.23,4.56-2.77ZM975.45,929.99c-.13-1.84-1.54-3.2-3.67-3.2s-3.48,1.36-3.43,3.2c.05,1.84,1.54,3.2,3.67,3.2s3.56-1.36,3.43-3.2Z"/>
  <g>
    <path class="st0" d="M1183.84,942.61c0-1.54,1.21-2.83,2.65-3.46-1.38-.35-2.02-1.19-2.02-2.16,0-1.21,1.11-1.92,2.13-2.21-1.51-.84-2.46-2.24-2.46-4.05,0-3.1,2.7-4.97,6.18-4.97.97,0,1.86.13,2.7.43h6.21v.11l-1.57,1.97c-.62-.19-1.35-.27-2.11-.32.57.73.92,1.7.92,2.78,0,3.05-2.73,4.91-6.15,4.91-.7,0-1.38-.08-1.97-.22-.78.11-1.4.46-1.4,1,0,.7.73.97,2.38,1.08l3.29.24c3.08.22,5.43,1.43,5.43,3.73,0,2.78-2.97,5.13-7.69,5.13-3.13,0-6.51-1.27-6.51-3.99ZM1195.34,941.93c0-1.19-.89-2.16-3.62-2.35l-2.35-.16c-1.4.05-2.86,1.21-2.86,2.78,0,1.89,1.97,2.62,4.26,2.65,2.81.03,4.56-1.3,4.56-2.92ZM1193.85,930.7c-.13-1.94-1.54-3.37-3.67-3.37s-3.48,1.43-3.43,3.37c.05,1.94,1.54,3.37,3.67,3.37s3.56-1.43,3.43-3.37Z"/>
    <path class="st0" d="M1200.31,939.53c0-1.03.81-1.65,1.7-1.65s1.73.62,1.73,1.65-.84,1.67-1.73,1.67-1.7-.62-1.7-1.67Z"/>
    <path class="st0" d="M1206.49,940.04l-.38-2.83.11-.05c1.19,1.65,3,2.29,4.78,2.29,1.59,0,2.89-.67,2.89-1.94,0-1.08-.7-1.78-2.62-2.78l-1.65-.86c-2.38-1.24-3.21-2.46-3.21-4.24,0-1.97,1.94-3.86,5.21-3.86,1.62,0,2.65.32,3.51.73l.32,2.56-.08.05c-.59-.78-2.08-1.59-3.99-1.59-1.46,0-2.56.65-2.56,1.62,0,1.05.49,1.48,2.21,2.38l1.84.95c2.32,1.19,3.56,2.4,3.56,4.32,0,2.89-2.48,4.43-5.48,4.43-1.51,0-3.4-.32-4.45-1.16Z"/>
    <path class="st0" d="M1218.4,940.04l-.38-2.83.11-.05c1.19,1.65,3,2.29,4.78,2.29,1.59,0,2.89-.67,2.89-1.94,0-1.08-.7-1.78-2.62-2.78l-1.65-.86c-2.38-1.24-3.21-2.46-3.21-4.24,0-1.97,1.94-3.86,5.21-3.86,1.62,0,2.65.32,3.51.73l.32,2.56-.08.05c-.59-.78-2.08-1.59-3.99-1.59-1.46,0-2.56.65-2.56,1.62,0,1.05.49,1.48,2.21,2.38l1.84.95c2.32,1.19,3.56,2.4,3.56,4.32,0,2.89-2.48,4.43-5.48,4.43-1.51,0-3.4-.32-4.45-1.16Z"/>
    <path class="st0" d="M1230.19,930.3c0-6.32,3.29-10.9,8.5-10.9s8.5,4.59,8.5,10.9-3.29,10.91-8.5,10.91-8.5-4.59-8.5-10.91ZM1244.12,930.3c0-4.64-1.78-8.96-5.43-8.96s-5.43,4.32-5.43,8.96,1.78,8.96,5.43,8.96,5.43-4.32,5.43-8.96Z"/>
    <path class="st0" d="M1249.96,937.15v-13.6c0-1.46-.3-1.89-1.54-2.46v-.11l4.29-1.59v17.76c0,1.67.38,2.92,1,3.51v.11h-4.75v-.11c.62-.59,1-1.83,1-3.51Z"/>
  </g>
  <path class="st0" d="M1478.55,938.21v-8.89c0-1.33-.32-2.43-1.11-2.95v-.1l3.64-.97v13.27c0,3.43-1.7,5.35-4.35,6.51l-.05-.1c1.65-2.23,1.86-3.82,1.86-6.76ZM1477.71,921.41c0-1.08.86-1.69,1.84-1.69s1.86.61,1.86,1.69-.89,1.72-1.86,1.72-1.84-.64-1.84-1.72Z"/>
  <g>
    <path class="st0" d="M1578.5,939.37v-9.37c0-1.4-.32-2.56-1.11-3.1v-.11l3.64-1.03v13.98c0,3.62-1.7,5.64-4.35,6.86l-.05-.11c1.65-2.35,1.86-4.02,1.86-7.13ZM1577.67,921.66c0-1.13.86-1.78,1.84-1.78s1.86.65,1.86,1.78-.89,1.81-1.86,1.81-1.84-.67-1.84-1.81Z"/>
    <path class="st0" d="M1583.06,939.53c0-1.03.81-1.65,1.7-1.65s1.73.62,1.73,1.65-.84,1.67-1.73,1.67-1.7-.62-1.7-1.67Z"/>
    <path class="st0" d="M1589.25,940.04l-.38-2.83.11-.05c1.19,1.65,3,2.29,4.78,2.29,1.59,0,2.89-.67,2.89-1.94,0-1.08-.7-1.78-2.62-2.78l-1.65-.86c-2.38-1.24-3.21-2.46-3.21-4.24,0-1.97,1.94-3.86,5.21-3.86,1.62,0,2.65.32,3.51.73l.32,2.56-.08.05c-.59-.78-2.08-1.59-3.99-1.59-1.46,0-2.56.65-2.56,1.62,0,1.05.49,1.48,2.21,2.38l1.84.95c2.32,1.19,3.56,2.4,3.56,4.32,0,2.89-2.48,4.43-5.48,4.43-1.51,0-3.4-.32-4.45-1.16Z"/>
    <path class="st0" d="M1601.15,940.04l-.38-2.83.11-.05c1.19,1.65,3,2.29,4.78,2.29,1.59,0,2.89-.67,2.89-1.94,0-1.08-.7-1.78-2.62-2.78l-1.65-.86c-2.38-1.24-3.21-2.46-3.21-4.24,0-1.97,1.94-3.86,5.21-3.86,1.62,0,2.65.32,3.51.73l.32,2.56-.08.05c-.59-.78-2.08-1.59-3.99-1.59-1.46,0-2.56.65-2.56,1.62,0,1.05.49,1.48,2.21,2.38l1.84.95c2.32,1.19,3.56,2.4,3.56,4.32,0,2.89-2.48,4.43-5.48,4.43-1.51,0-3.4-.32-4.45-1.16Z"/>
    <path class="st0" d="M1612.95,930.3c0-6.32,3.29-10.9,8.5-10.9s8.5,4.59,8.5,10.9-3.29,10.91-8.5,10.91-8.5-4.59-8.5-10.91ZM1626.88,930.3c0-4.64-1.78-8.96-5.43-8.96s-5.43,4.32-5.43,8.96,1.78,8.96,5.43,8.96,5.43-4.32,5.43-8.96Z"/>
    <path class="st0" d="M1632.72,937.15v-13.6c0-1.46-.3-1.89-1.54-2.46v-.11l4.29-1.59v17.76c0,1.67.38,2.92,1,3.51v.11h-4.75v-.11c.62-.59,1-1.83,1-3.51Z"/>
  </g>
</svg>