<?xml version="1.0" encoding="UTF-8"?>
<svg id="Layer_1" xmlns="http://www.w3.org/2000/svg" version="1.1" viewBox="0 0 1495.25 1095.47">
  <!-- Generator: Adobe Illustrator 30.5.0, SVG Export Plug-In . SVG Version: 2.1.4 Build 167)  -->
  <defs>
    <style>
      .st0 {
        fill: #efe9e2;
      }
    </style>
  </defs>
  <g>
    <path class="st0" d="M36.44,238.99V60.97c0-21.73-4.56-37.84-12.62-45.55v-1.4h60.97v1.4c-8.06,7.71-12.61,23.83-12.61,45.55v200.44h61.32c38.2,0,57.82-4.91,66.23-13.32l1.05.7-4.91,37.14H23.83v-1.4c8.06-7.71,12.62-23.83,12.62-45.55ZM242.49,238.99l-43.1-80.25c-6.31.7-13.32,1.05-19.97,1.05h-20.67c0,28.73,2.8,43.1,12.61,52.56v1.4h-60.97v-1.4c8.06-7.71,12.62-23.83,12.62-45.55V60.97c0-21.73-4.56-37.84-12.62-45.55v-1.4h77.79c60.62,0,94.26,27.68,94.26,67.63,0,33.29-20.32,57.12-50.46,69.03l50.11,88.31c18.92,33.29,24.88,39.25,31.19,45.55v1.4h-56.77c0-21.73-8.76-37.14-14.02-46.96ZM242.49,85.15c-.7-27.33-19.27-46.61-58.17-46.61h-25.58v96.72h20.32c38.55,0,64.13-16.47,63.43-50.11Z"/>
    <path class="st0" d="M372.5,149.98c0-89.01,67.28-141.57,143.67-141.57s143.67,52.56,143.67,141.57-67.28,141.57-143.67,141.57-143.67-52.56-143.67-141.57ZM619.89,156.29c0-62.38-37.49-122.65-106.18-122.65-60.97,0-101.27,48.71-101.27,109.68s36.79,123,105.83,123c61.32,0,101.97-48.36,101.62-110.03ZM467.46,196.94v-95.31c0-11.91-2.8-19.97-7.01-24.18v-.7h59.22c32.24,0,52.91,15.07,52.91,37.84,0,18.57-11.56,31.54-28.03,38.2l23.13,44.15c9.46,18.22,14.02,21.02,17.52,24.53v.7h-42.05c0-10.16-2.45-16.82-6.66-25.23l-19.27-38.55h-19.27v38.55c0,11.56,2.45,19.97,6.31,24.53v.7h-43.8v-.7c4.21-4.56,7.01-12.97,7.01-24.53ZM539.3,116.69c-.35-14.37-9.11-21.03-28.38-21.03h-12.97v43.8h10.16c19.27,0,31.19-5.26,31.19-22.78Z"/>
    <path class="st0" d="M752.7,190.98c0-60.27,49.76-99.87,107.23-99.87,12.62,0,22.43,1.05,30.84,2.8-9.46-9.81-17.52-26.28-17.52-41,0-28.03,22.08-52.91,60.97-52.91,58.17,0,65.53,51.16,65.53,79.19v17.52h70.43v1.4l-20.32,25.58c-10.51-3.15-33.64-4.21-50.11-4.56v112.48c0,22.78,6.66,37.14,30.14,37.14,9.81,0,25.23-4.21,33.29-15.42l1.05.35-6.31,31.54c-6.66,2.8-18.22,6.31-36.79,6.31-33.99,0-54.32-19.27-54.32-58.17v-113.19h-30.49v-1.4l30.49-30.14v-6.31c0-41-13.67-59.92-39.95-59.92-19.97,0-35.74,12.62-35.74,34.34,0,15.42,7.36,31.19,22.43,44.85l4.21,34.69-1.4.7c-11.21-12.97-30.49-23.13-59.92-23.13-35.04,0-67.63,22.78-67.63,69.38,0,50.46,32.59,85.5,80.95,85.5,26.98,0,44.5-9.46,59.92-26.98l1.4.7c-12.26,24.18-33.99,49.06-81.3,49.06-50.46,0-97.07-36.09-97.07-100.57Z"/>
    <path class="st0" d="M1158.84,196.58V60.97c0-21.73-4.56-37.84-12.62-45.55v-1.4h60.97v1.4c-8.06,7.71-12.61,23.83-12.61,45.55v128.6c0,53.96,22.08,76.04,59.22,76.04,51.86,0,74.99-47.66,74.99-87.25V60.97c0-21.73-4.56-37.84-12.62-45.55v-1.4h157.69l5.26,37.14-1.4.35c-10.51-9.11-36.09-12.97-63.43-12.97h-49.76v87.6h45.91c16.47,0,35.04-1.4,46.25-9.11l1.4.35v41.7l-1.4.35c-11.21-7.71-29.79-9.11-46.25-9.11h-45.91v111.08h61.67c38.2,0,57.82-4.91,66.23-13.32l1.05.7-4.91,37.14h-159.79c2.45-9.46,2.8-22.43,2.8-40.3-8.76,19.62-36.79,45.9-82.35,45.9-51.16,0-90.41-26.63-90.41-94.96Z"/>
    <path class="st0" d="M0,526.56c0-89.71,65.53-142.97,149.28-142.97,31.54,0,61.32,7.71,72.89,14.02l5.96,41-1.4.7c-17.17-17.87-42.4-30.84-78.49-30.49-61.67,0-108.28,46.61-108.28,110.38,0,68.33,42.4,122.3,115.99,122.3,38.2,0,66.23-15.77,82.35-37.5l1.4.35-10.16,44.5c-13.32,8.76-41.7,17.87-76.74,17.87-78.84,0-152.78-48.36-152.78-140.17ZM273.68,614.17v-85.85h-106.18v30.49c0,21.73,4.56,37.85,12.62,45.55v1.4h-60.97v-1.4c8.06-7.71,12.61-23.83,12.61-45.55v-67.28c0-21.73-4.56-37.84-12.61-45.55v-1.4h60.97v1.4c-8.06,7.71-12.62,23.83-12.62,45.55v11.21h106.18v-66.58c0-21.73-4.56-37.84-12.61-45.55v-1.4h60.97v1.4c-8.06,7.71-12.62,23.83-12.62,45.55v178.01c0,21.73,4.56,37.84,12.62,45.55v1.4h-60.97v-1.4c8.06-7.71,12.61-23.83,12.61-45.55Z"/>
    <path class="st0" d="M459.65,614.17v-178.01c0-21.73-4.56-37.84-12.62-45.55v-1.4h60.97v1.4c-8.06,7.71-12.61,23.83-12.61,45.55v200.44h61.32c38.2,0,57.82-4.91,66.23-13.32l1.05.7-4.91,37.14h-172.06v-1.4c8.06-7.71,12.62-23.83,12.62-45.55ZM546.21,541.98v-105.83c0-21.73-2.8-37.84-10.86-45.55v-1.4h125.8l4.91,35.39-1.05.7c-8.41-8.41-27.68-11.56-65.88-11.56h-18.57v57.12h21.73c16.47,0,35.04.35,46.25-7.36l1.4.35v37.49l-1.4.35c-11.21-7.71-29.79-7.36-46.25-7.36h-21.73v70.08h29.08c38.2,0,57.47-3.15,65.88-11.56l1.05.7-4.56,35.39h-136.66v-1.4c8.06-7.71,10.86-23.83,10.86-45.55Z"/>
    <path class="st0" d="M817.34,614.17v-118.79h-41.35v-1.05l17.87-22.43h23.48v-32.24c0-50.11,33.99-64.48,63.78-64.48,15.42,0,31.19,3.5,37.14,6.66l4.55,32.94-1.4.35c-7.71-12.62-21.38-17.17-37.84-17.17-24.18,0-33.29,14.37-33.29,41.7v32.24h35.39c33.64,0,59.22-1.75,74.64-5.61v32.94c8.76-16.82,35.39-32.94,65.18-32.94,42.4,0,64.13,22.78,64.13,72.54v75.34c0,21.73,3.5,37.84,11.56,45.55v1.4h-56.07v-1.4c8.06-7.71,11.56-23.83,11.56-45.55v-69.73c0-32.94-8.06-55.02-40.3-55.02-26.63,0-56.07,22.78-56.07,69.03v55.72c0,21.73,3.5,37.84,11.56,45.55v1.4h-56.07v-1.4c8.06-7.71,11.56-23.83,11.56-45.55v-118.79h-77.09v118.79c0,21.73,3.5,37.84,11.56,45.55v1.4h-56.07v-1.4c8.06-7.71,11.56-23.83,11.56-45.55Z"/>
    <path class="st0" d="M1450.45,642.9v-147.53h-72.54v118.79c0,21.73,3.5,37.84,11.56,45.55v1.4h-56.07v-1.4c8.06-7.71,11.56-23.83,11.56-45.55v-118.79h-74.29v118.79c0,21.73,3.5,37.84,11.56,45.55v1.4h-56.07v-1.4c8.06-7.71,11.56-23.83,11.56-45.55v-118.79h-41.35v-1.05l17.87-22.43h23.48v-25.58c0-50.11,37.84-71.13,73.94-71.13,23.83,0,43.1,7.36,54.67,14.72,12.26-9.81,30.14-14.72,51.51-14.72,34.34,0,68.33,17.52,68.33,40.3,0,10.86-7.01,21.03-20.32,21.03-11.91,0-18.57-7.71-22.08-16.82-6.31-16.47-17.17-21.73-29.08-21.73-23.13,0-36.79,12.97-36.79,43.45v30.49h26.98c38.55,0,63.08-1.75,78.49-5.61v181.52c0,46.96-22.08,73.24-56.42,89.01l-.7-1.4c21.38-30.49,24.18-52.21,24.18-92.51ZM1344.97,471.9v-29.44c0-12.96,2.1-23.48,6.31-32.59-9.46-7.01-22.78-11.91-37.14-11.91-34.34,0-43.45,21.03-43.45,48.36v25.58h74.29Z"/>
    <path class="st0" d="M187.12,1020.18c-24.18,10.51-53.26,16.12-85.15,16.12H23.83v-1.4c8.06-7.71,12.62-23.83,12.62-45.55v-178.01c0-21.73-4.56-37.84-12.62-45.55v-1.4h85.15c30.14,0,58.17,4.91,81.3,14.37,22.43-12.96,49.06-19.97,76.74-19.97,76.39,0,143.67,52.56,143.67,141.57s-67.28,141.57-143.67,141.57c-29.08,0-56.42-7.36-79.9-21.73ZM97.07,1010.72c25.58,0,47.31-3.5,65.18-10.16-24.18-24.53-38.9-58.17-38.9-100.22s15.42-76.74,39.6-100.92c-17.52-6.31-38.2-9.46-63.43-9.46h-27.33v220.76h24.88ZM193.78,982.69c23.13-18.92,35.04-46.96,34.69-81.3-.35-36.79-11.21-66.58-36.44-86.2-18.22,19.62-28.73,47.66-28.73,78.49,0,33.29,10.51,65.88,30.49,89.01ZM370.74,906.65c0-62.38-37.5-122.65-106.18-122.65-16.82,0-31.89,3.5-45.2,10.16,30.49,21.73,49.06,55.37,49.06,101.62s-19.27,83.4-51.16,107.23c14.37,8.76,31.89,13.67,51.86,13.67,61.32,0,101.97-48.36,101.62-110.03Z"/>
    <path class="st0" d="M503.91,901.74c0-89.71,65.53-142.97,149.28-142.97,31.54,0,61.32,7.71,72.89,14.02l5.96,41-1.4.7c-17.17-17.87-42.4-30.84-78.49-30.49-61.67,0-108.28,46.61-108.28,110.38,0,68.33,42.4,122.3,115.99,122.3,38.2,0,66.23-15.77,82.35-37.5l1.4.35-10.16,44.5c-13.32,8.76-41.7,17.87-76.74,17.87-78.84,0-152.78-48.36-152.78-140.17ZM584.5,901.04c0-51.16,38.55-80.95,82.35-80.95s82.35,29.79,82.35,80.95-38.55,80.95-82.35,80.95-82.35-30.14-82.35-80.95ZM712.06,904.54c-.35-33.99-17.87-60.27-46.61-60.27-25.58,0-43.8,19.62-43.8,52.91s17.52,60.62,46.26,60.62c25.93,0,44.5-19.62,44.15-53.26Z"/>
    <path class="st0" d="M837.86,900.34c0-89.01,67.28-141.57,143.67-141.57s143.67,52.56,143.67,141.57-67.28,141.57-143.67,141.57-143.67-52.56-143.67-141.57ZM1085.25,906.65c0-62.38-37.5-122.65-106.18-122.65-60.97,0-101.27,48.71-101.27,109.68s36.79,123,105.83,123c61.32,0,101.97-48.36,101.62-110.03ZM966.46,949.4v-98.47c0-10.86-1.75-18.92-5.26-22.78v-.7h41v.7c-3.5,3.85-5.26,11.91-5.26,22.78v98.47c0,10.86,1.75,18.92,5.26,22.78v.7h-41v-.7c3.5-3.85,5.26-11.91,5.26-22.78Z"/>
    <path class="st0" d="M1216.66,1026.84l-4.91-36.79,1.4-.7c15.42,21.38,38.9,29.79,62.02,29.79,20.67,0,37.85-11.21,37.85-26.28,0-13.67-9.46-22.08-34.34-35.04l-21.38-11.21c-30.84-16.12-41.7-31.89-41.7-55.02,0-25.58,23.48-50.11,65.88-50.11,9.11,0,16.47.7,23.83,2.1-9.11-9.46-17.17-25.93-17.17-40.3,0-28.03,23.13-52.91,65.53-52.91,58.17,0,71.13,49.06,71.13,83.75v12.97h70.43v1.4l-20.32,25.58c-10.51-3.15-33.64-4.21-50.11-4.56v112.48c0,22.78,6.66,37.14,30.14,37.14,9.81,0,25.23-4.21,33.29-15.42l1.05.35-6.31,31.54c-6.66,2.8-18.22,6.31-36.79,6.31-33.99,0-54.31-19.27-54.31-58.17v-113.19h-30.49v-1.4l30.49-30.14c0-26.63-3.5-66.23-48.01-66.23-22.08,0-37.85,12.62-37.85,34.34,0,15.42,8.41,30.84,21.73,43.8l4.21,33.29-1.05.7c-7.71-10.16-27.68-20.67-52.56-20.67-18.92,0-31.54,8.41-31.54,21.03,0,13.67,6.31,19.27,28.73,30.84l23.83,12.26c30.14,15.42,45.55,31.19,45.55,56.07,0,37.5-31.54,57.47-70.43,57.47-19.62,0-44.15-4.21-57.82-15.07Z"/>
  </g>
  <g>
    <path class="st0" d="M153.82,340.08v-13.71c0-1.67-.35-2.92-.97-3.51v-.11h4.7v.11c-.62.59-.97,1.84-.97,3.51v15.44h4.72c2.94,0,4.45-.38,5.1-1.03l.08.05-.38,2.86h-13.25v-.11c.62-.59.97-1.83.97-3.51Z"/>
    <path class="st0" d="M169.86,343.7h16.47v1.97h-16.47v-1.97Z"/>
    <path class="st0" d="M190.56,340.08v-13.71c0-1.67-.35-2.92-.97-3.51v-.11h7.07c4.67,0,7.26,2.13,7.26,5.21,0,2.75-1.75,4.64-4.4,5.51l3.75,6.61c1.46,2.56,1.92,3.02,2.4,3.51v.11h-4.37c0-1.67-.67-2.86-1.08-3.62l-3.29-6.13c-.32.03-.62.03-.94.03h-2.67v6.1c0,1.67.35,2.92.97,3.51v.11h-4.7v-.11c.62-.59.97-1.83.97-3.51ZM200.85,328.23c-.05-2.11-1.48-3.59-4.48-3.59h-3.05v7.45h2.65c2.97,0,4.94-1.27,4.89-3.86Z"/>
  </g>
  <g>
    <path class="st0" d="M494.57,333.22c0-6.86,5.18-10.9,11.07-10.9s11.07,4.05,11.07,10.9-5.18,10.91-11.07,10.91-11.07-4.05-11.07-10.91ZM513.63,333.71c0-4.8-2.89-9.45-8.18-9.45-4.7,0-7.8,3.75-7.8,8.45s2.83,9.47,8.15,9.47c4.72,0,7.86-3.72,7.83-8.48Z"/>
    <path class="st0" d="M515.98,343.7h16.47v1.97h-16.47v-1.97Z"/>
    <path class="st0" d="M536.69,340.08v-13.71c0-1.67-.35-2.92-.97-3.51v-.11h7.07c4.67,0,7.26,2.13,7.26,5.21,0,2.75-1.75,4.64-4.4,5.51l3.75,6.61c1.46,2.56,1.92,3.02,2.4,3.51v.11h-4.37c0-1.67-.67-2.86-1.08-3.62l-3.29-6.13c-.32.03-.62.03-.95.03h-2.67v6.1c0,1.67.35,2.92.97,3.51v.11h-4.7v-.11c.62-.59.97-1.83.97-3.51ZM546.98,328.23c-.05-2.11-1.48-3.59-4.48-3.59h-3.05v7.45h2.65c2.97,0,4.94-1.27,4.88-3.86Z"/>
  </g>
  <g>
    <path class="st0" d="M157.52,709c0-6.91,5.05-11.01,11.5-11.01,2.43,0,4.72.59,5.61,1.08l.46,3.16-.11.05c-1.32-1.38-3.27-2.38-6.05-2.35-4.75,0-8.34,3.59-8.34,8.5,0,5.26,3.27,9.42,8.93,9.42,2.94,0,5.1-1.21,6.34-2.89l.11.03-.78,3.43c-1.03.67-3.21,1.38-5.91,1.38-6.07,0-11.77-3.72-11.77-10.8Z"/>
    <path class="st0" d="M178.06,719.37h16.47v1.97h-16.47v-1.97Z"/>
    <path class="st0" d="M198.77,715.75v-13.71c0-1.67-.35-2.92-.97-3.51v-.11h4.7v.11c-.62.59-.97,1.84-.97,3.51v5.13h10.53v-5.13c0-1.67-.35-2.92-.97-3.51v-.11h4.7v.11c-.62.59-.97,1.84-.97,3.51v13.71c0,1.67.35,2.92.97,3.51v.11h-4.7v-.11c.62-.59.97-1.83.97-3.51v-6.56h-10.53v6.56c0,1.67.35,2.92.97,3.51v.11h-4.7v-.11c.62-.59.97-1.83.97-3.51Z"/>
  </g>
  <g>
    <path class="st0" d="M541.88,715.75v-13.71c0-1.67-.35-2.92-.97-3.51v-.11h4.7v.11c-.62.59-.97,1.84-.97,3.51v15.44h4.72c2.94,0,4.45-.38,5.1-1.03l.08.05-.38,2.86h-13.25v-.11c.62-.59.97-1.83.97-3.51Z"/>
    <path class="st0" d="M557.38,719.37h16.47v1.97h-16.47v-1.97Z"/>
    <path class="st0" d="M577.96,715.75v-13.71c0-1.67-.3-2.92-.84-3.51v-.11h12.01l.41,2.86-.11.03c-.81-.7-2.78-1-4.89-1h-3.83v6.75h3.54c1.27,0,2.7-.11,3.56-.7l.11.03v3.21l-.11.03c-.86-.59-2.29-.7-3.56-.7h-3.54v8.56h4.75c2.94,0,4.45-.38,5.1-1.03l.08.05-.38,2.86h-13.15v-.11c.54-.59.84-1.83.84-3.51Z"/>
  </g>
  <g>
    <path class="st0" d="M181.98,1089.88v-13.71c0-1.67-.35-2.92-.97-3.51v-.11h6.56c6.96,0,12.28,3.27,12.28,10.12s-5.32,10.82-12.82,10.82h-6.02v-.11c.62-.59.97-1.83.97-3.51ZM196.77,1083.11c-.03-5.07-2.75-8.58-9.93-8.58h-2.11v17h1.92c6.88,0,10.15-3.4,10.12-8.42Z"/>
    <path class="st0" d="M200.2,1093.5h16.47v1.97h-16.47v-1.97Z"/>
    <path class="st0" d="M217.02,1083.03c0-6.86,5.18-10.9,11.07-10.9s11.07,4.05,11.07,10.9-5.18,10.91-11.07,10.91-11.07-4.05-11.07-10.91ZM236.08,1083.51c0-4.8-2.89-9.45-8.18-9.45-4.7,0-7.8,3.75-7.8,8.45s2.83,9.47,8.15,9.47c4.72,0,7.85-3.72,7.83-8.48Z"/>
  </g>
  <g>
    <path class="st0" d="M621.31,1083.14c0-6.91,5.05-11.01,11.5-11.01,2.43,0,4.72.59,5.62,1.08l.46,3.16-.11.05c-1.32-1.38-3.27-2.38-6.05-2.35-4.75,0-8.34,3.59-8.34,8.5,0,5.26,3.27,9.42,8.93,9.42,2.94,0,5.1-1.21,6.34-2.89l.11.03-.78,3.43c-1.03.67-3.21,1.38-5.91,1.38-6.07,0-11.77-3.72-11.77-10.8Z"/>
    <path class="st0" d="M642.4,1093.5h16.47v1.97h-16.47v-1.97Z"/>
    <path class="st0" d="M659.22,1083.03c0-6.86,5.18-10.9,11.07-10.9s11.07,4.05,11.07,10.9-5.18,10.91-11.07,10.91-11.07-4.05-11.07-10.91ZM678.28,1083.51c0-4.8-2.89-9.45-8.18-9.45-4.7,0-7.8,3.75-7.8,8.45s2.83,9.47,8.15,9.47c4.72,0,7.85-3.72,7.83-8.48Z"/>
  </g>
  <g>
    <path class="st0" d="M899.93,336.38c0-4.64,3.83-7.69,8.26-7.69,2.05,0,3.27.35,4.13.81l.32,2.67-.11.05c-.86-1-2.35-1.78-4.62-1.78-2.7,0-5.21,1.75-5.21,5.34,0,3.89,2.51,6.59,6.24,6.59,2.08,0,3.43-.73,4.62-2.08l.11.05c-.94,1.86-2.62,3.78-6.26,3.78-3.89,0-7.48-2.78-7.48-7.75Z"/>
    <path class="st0" d="M915.05,343.7h16.47v1.97h-16.47v-1.97Z"/>
    <path class="st0" d="M935.84,340.03v-9.1h-2.35v-.11l4.78-4.72h.11v3.02h5.43v.11l-1.57,1.97c-.81-.24-2.59-.32-3.86-.35v8.67c0,1.75.51,2.86,2.32,2.86.76,0,1.94-.32,2.56-1.19l.08.03-.49,2.43c-.51.22-1.4.49-2.83.49-2.62,0-4.18-1.11-4.18-4.1Z"/>
  </g>
  <g>
    <path class="st0" d="M1299.72,336.82v-10.45c0-1.67-.35-2.92-.97-3.51v-.11h4.7v.11c-.62.59-.97,1.84-.97,3.51v9.91c0,4.16,1.7,5.86,4.56,5.86,3.99,0,5.78-3.67,5.78-6.72v-9.04c0-1.67-.35-2.92-.97-3.51v-.11h4.7v.11c-.62.59-.97,1.84-.97,3.51v13.71c0,1.67.35,2.92.97,3.51v.11h-3.73c.19-.73.22-1.73.22-3.1-.67,1.51-2.83,3.54-6.34,3.54-3.94,0-6.96-2.05-6.96-7.31Z"/>
    <path class="st0" d="M1318.73,343.7h16.47v1.97h-16.47v-1.97Z"/>
    <path class="st0" d="M1339.3,340.08v-13.71c0-1.67-.3-2.92-.84-3.51v-.11h12.01l.41,2.86-.11.03c-.81-.7-2.78-1-4.89-1h-3.83v6.75h3.54c1.27,0,2.7-.11,3.56-.7l.11.03v3.21l-.11.03c-.86-.59-2.29-.7-3.56-.7h-3.54v8.56h4.75c2.94,0,4.45-.38,5.1-1.03l.08.05-.38,2.86h-13.15v-.11c.54-.59.84-1.83.84-3.51Z"/>
  </g>
  <g>
    <path class="st0" d="M927.85,715.75v-9.15h-3.19v-.08l1.38-1.73h1.81v-2.48c0-3.86,2.62-4.97,4.91-4.97,1.19,0,2.4.27,2.86.51l.35,2.54-.11.03c-.59-.97-1.92-1.32-2.92-1.32-1.86,0-2.56,1.11-2.56,3.21v2.48h5.51v.11l-1.57,1.97c-.81-.24-2.59-.32-3.94-.35v9.23c0,1.67.27,2.92.89,3.51v.11h-4.32v-.11c.62-.59.89-1.83.89-3.51Z"/>
    <path class="st0" d="M935.17,719.37h16.47v1.97h-16.47v-1.97Z"/>
    <path class="st0" d="M955.93,715.75v-7.15c0-1.4-.32-2.56-1.11-3.1v-.11l3.64-1.03v2.54c.67-1.3,2.73-2.54,5.02-2.54,3.27,0,4.94,1.75,4.94,5.59v5.8c0,1.67.27,2.92.89,3.51v.11h-4.32v-.11c.62-.59.89-1.83.89-3.51v-5.37c0-2.54-.62-4.24-3.1-4.24-2.05,0-4.32,1.75-4.32,5.32v4.29c0,1.67.27,2.92.89,3.51v.11h-4.32v-.11c.62-.59.89-1.83.89-3.51Z"/>
  </g>
  <g>
    <path class="st0" d="M1322.31,715.75v-9.15h-3.19v-.08l1.38-1.73h1.81v-2.48c0-3.86,2.62-4.97,4.91-4.97,1.19,0,2.4.27,2.86.51l.35,2.54-.11.03c-.59-.97-1.92-1.32-2.92-1.32-1.86,0-2.56,1.11-2.56,3.21v2.48h5.51v.11l-1.57,1.97c-.81-.24-2.59-.32-3.94-.35v9.23c0,1.67.27,2.92.89,3.51v.11h-4.32v-.11c.62-.59.89-1.83.89-3.51Z"/>
    <path class="st0" d="M1329.62,719.37h16.47v1.97h-16.47v-1.97Z"/>
    <path class="st0" d="M1350.9,715.75v-9.15h-3.19v-.08l1.38-1.73h1.81v-2.48c0-3.86,2.62-4.97,4.91-4.97,1.19,0,2.4.27,2.86.51l.35,2.54-.11.03c-.59-.97-1.92-1.32-2.92-1.32-1.86,0-2.56,1.11-2.56,3.21v2.48h5.51v.11l-1.57,1.97c-.81-.24-2.59-.32-3.94-.35v9.23c0,1.67.27,2.92.89,3.51v.11h-4.32v-.11c.62-.59.89-1.83.89-3.51Z"/>
    <path class="st0" d="M1358.22,719.37h16.47v1.97h-16.47v-1.97Z"/>
    <path class="st0" d="M1379.46,717.96v-9.37c0-1.4-.32-2.56-1.11-3.1v-.11l3.64-1.03v13.98c0,3.62-1.7,5.64-4.35,6.86l-.05-.11c1.65-2.35,1.86-4.02,1.86-7.13ZM1378.63,700.26c0-1.13.86-1.78,1.84-1.78s1.86.65,1.86,1.78-.89,1.81-1.86,1.81-1.84-.67-1.84-1.81Z"/>
  </g>
  <g>
    <path class="st0" d="M957.18,1083.03c0-6.86,5.18-10.9,11.07-10.9s11.07,4.05,11.07,10.9-5.18,10.91-11.07,10.91-11.07-4.05-11.07-10.91ZM976.24,1083.51c0-4.8-2.89-9.45-8.18-9.45-4.7,0-7.8,3.75-7.8,8.45s2.83,9.47,8.15,9.47c4.72,0,7.85-3.72,7.83-8.48Z"/>
    <path class="st0" d="M979.67,1093.5h16.47v1.97h-16.47v-1.97Z"/>
    <path class="st0" d="M1000.79,1089.88v-13.71c0-1.67-.3-2.92-.84-3.51v-.11h4.43v.11c-.54.59-.84,1.84-.84,3.51v13.71c0,1.67.3,2.92.84,3.51v.11h-4.43v-.11c.54-.59.84-1.83.84-3.51Z"/>
  </g>
  <g>
    <path class="st0" d="M1339.81,1092.77l-.38-2.83.11-.05c1.19,1.65,3,2.29,4.78,2.29,1.59,0,2.89-.67,2.89-1.94,0-1.08-.7-1.78-2.62-2.78l-1.65-.86c-2.38-1.24-3.21-2.46-3.21-4.24,0-1.97,1.94-3.86,5.21-3.86,1.62,0,2.65.32,3.51.73l.32,2.56-.08.05c-.59-.78-2.08-1.59-3.99-1.59-1.46,0-2.56.65-2.56,1.62,0,1.05.49,1.48,2.21,2.38l1.84.95c2.32,1.19,3.56,2.4,3.56,4.32,0,2.89-2.48,4.43-5.48,4.43-1.51,0-3.4-.32-4.45-1.16Z"/>
    <path class="st0" d="M1351.13,1093.5h16.47v1.97h-16.47v-1.97Z"/>
    <path class="st0" d="M1370.84,1089.83v-9.1h-2.35v-.11l4.78-4.72h.11v3.02h5.43v.11l-1.57,1.97c-.81-.24-2.59-.32-3.86-.35v8.67c0,1.75.51,2.86,2.32,2.86.76,0,1.94-.32,2.56-1.19l.08.03-.49,2.43c-.51.22-1.4.49-2.83.49-2.62,0-4.18-1.11-4.18-4.1Z"/>
  </g>
</svg>