<?xml version="1.0" encoding="UTF-8"?>
<svg id="Layer_1" xmlns="http://www.w3.org/2000/svg" version="1.1" viewBox="0 0 1839.72 373.72">
  <!-- Generator: Adobe Illustrator 30.5.0, SVG Export Plug-In . SVG Version: 2.1.4 Build 167)  -->
  <defs>
    <style>
      .st0 {
        fill: #efe9e2;
      }
    </style>
  </defs>
  <polygon class="st0" points="177.09 3.72 154.65 29.01 141.5 49.84 135.3 71.91 135.3 91.26 138.62 108.62 147.95 127.46 161.59 145.07 138.62 169.62 119.93 154.74 98.1 146.06 78.26 145.07 54.95 148.39 34.37 159.21 15.03 174.58 3.37 186.86 11.31 196.16 25.94 208.81 43.3 219.72 61.9 226.66 80.5 228.89 100.83 226.66 120.42 218.48 137.29 207.07 140.26 203.85 162.33 226.91 152.66 239.31 140.76 260.64 134.56 287.67 136.29 306.51 141.5 323.38 152.66 343.96 177.09 370.25 187.63 362.12 201.76 345.45 213.67 323.87 218.88 301.31 218.88 278.15 213.92 260.14 204.24 244.02 195.32 231.12 202.26 221.2 216.64 205.83 229.29 223.81 253.84 265.1 267.48 297.09 274.18 323.38 277.4 348.67 277.4 365.48 1563.01 365.48 1563.01 337.23 1568.36 306.34 1577.83 278.2 1590.15 254.54 1622.48 206.86 1643.55 228.29 1633.37 244.19 1624.16 268.12 1621.4 291.15 1622.83 314.37 1630.87 332.59 1642.48 350.63 1662.63 369.73 1681.23 351.34 1695.16 330.44 1702.13 312.59 1705.52 289.37 1701.11 265.79 1693.02 248.29 1677.66 226.86 1699.45 204.36 1714.81 216.15 1735.7 226.33 1753.92 229.36 1778.74 226.5 1797.32 219.18 1817.32 205.79 1837.32 186.98 1815.89 165.96 1796.07 152.93 1774.81 145.96 1751.78 144.53 1732.67 150.6 1715.88 159.18 1702.66 169 1679.45 145.42 1690.52 129.35 1701.11 110.24 1704.81 88.81 1703.02 62.38 1694.81 41.48 1681.41 22.38 1661.23 3.72 1647.12 17.37 1633.73 35.77 1628.37 47.74 1622.65 64.52 1622.12 79.17 1621.4 92.92 1626.94 112.39 1636.05 129.53 1645.16 142.75 1643.01 147.03 1626.23 163.82 1622.48 165.78 1602.12 140.07 1578.72 97.21 1567.11 64.52 1562.47 38.63 1561.93 8.24 277.16 8.24 277.85 24.14 274.59 52.42 269.45 74.87 261.05 98.86 250.43 118.91 239.8 137.08 217.18 166.9 194.22 144.45 200.9 135.02 212.55 113.43 219.06 90.98 217.86 69.04 214.27 50.71 204.67 33.06 191.47 15.92 177.09 3.72"/>
  <path d="M1756.37,142.28c-21.37,0-40,10.38-55.57,23.2l-5.5-5.8-13.44-14.66c18.32-21.68,25.34-43.36,25.34-61.68,0-26.56-8.85-50.99-45.49-83.35-36.95,32.36-43.66,58.01-43.66,83.35,0,19.24,5.5,36.03,23.51,60.15-6.41,6.72-12.21,12.82-18.32,19.85-37.25-47.94-62.29-100.45-57.1-157.86H273.57c5.19,57.4-19.85,109.92-57.1,157.86-6.11-7.02-11.91-13.13-18.32-19.85,18.01-24.12,23.51-40.91,23.51-60.15,0-25.34-6.72-50.99-43.66-83.35-36.64,32.36-45.49,56.79-45.49,83.35,0,18.32,7.02,40,25.34,61.68l-13.43,14.66-5.5,5.8c-15.57-12.82-34.2-23.2-55.57-23.2-25.65,0-50.99,7.63-83.36,44.58,32.36,36.94,57.71,44.58,83.36,44.58,23.51,0,41.83-10.99,56.48-23.82l12.21,12.52,7.02,7.02c-19.24,22.29-26.56,44.58-26.56,63.2,0,26.56,8.85,50.99,45.49,83.35,36.95-32.36,43.66-58.01,43.66-83.35,0-19.24-5.8-38.78-22.29-61.68,5.8-5.8,11.3-11.91,17.1-18.32,37.25,47.94,62.29,100.45,57.1,157.86h1292.58c-5.19-57.4,19.85-109.92,57.1-157.86,5.8,6.41,11.3,12.52,17.1,18.32-16.49,22.9-22.29,42.44-22.29,61.68,0,25.34,6.72,50.99,43.66,83.35,36.64-32.36,45.49-56.79,45.49-83.35,0-18.63-7.33-40.91-26.56-63.2l7.02-7.02,12.21-12.52c14.66,12.82,32.98,23.82,56.49,23.82,25.65,0,50.99-7.63,83.35-44.58-32.36-36.94-57.71-44.58-83.35-44.58ZM1645.23,148.39l4.28-4.27,6.41-6.41,6.41-7.02,3.97-4.58c12.21-15.88,16.49-30.84,16.49-42.75,0-15.88-4.58-30.84-21.07-49.16-15.88,18.01-19.24,32.67-19.24,49.16,0,12.82,3.36,24.43,16.18,42.44l-7.02,7.63-5.8,5.8c-16.79-22.59-21.68-38.17-21.68-55.88,0-23.51,5.5-45.8,37.56-75.11,31.45,29.01,39.39,50.99,39.39,75.11,0,17.1-6.41,36.95-23.2,57.1l-3.97,4.58-5.19,5.5-7.63,7.63-4.28,4.27-18.01,19.85-11.91-14.35,18.32-19.54ZM138.62,83.35c0-24.12,7.94-46.1,39.39-75.11,32.06,29.31,37.56,51.6,37.56,75.11,0,17.71-4.89,33.28-21.68,55.88l-5.8-5.8-7.02-7.63c12.82-18.01,16.18-29.62,16.18-42.44,0-16.49-3.36-31.14-19.24-49.16-16.49,18.32-21.07,33.28-21.07,49.16,0,11.91,4.28,26.87,16.49,42.75l3.97,4.58,6.41,7.02,6.41,6.41,4.28,4.27,18.32,19.54-11.91,14.35-18.01-19.85-4.27-4.27-7.63-7.63-5.19-5.5-3.97-4.58c-16.79-20.15-23.2-40-23.2-57.1ZM135.57,203.35c-13.74,11.91-30.84,21.98-52.21,21.98-23.82,0-46.11-6.41-75.42-38.47,29.31-32.06,51.6-38.47,75.42-38.47,19.24,0,36.64,9.77,51.3,21.68-3.97,4.28-8.55,9.16-12.82,13.13-11.91-9.47-24.73-16.49-38.47-16.49-16.18,0-30.53,3.66-49.16,20.15,18.63,16.49,32.98,20.15,49.16,20.15,15.27,0,27.48-6.41,38.78-15.88l4.58-4.27,12.82-12.82,22.29-24.43,4.89,5.19,7.94,7.94-21.98,23.82-12.82,12.82-4.27,3.97ZM215.56,290.37c0,23.51-5.5,45.8-37.56,75.11-31.45-29.01-39.39-50.99-39.39-75.11,0-17.4,6.41-37.56,24.43-58.62,4.58,5.19,8.55,10.08,11.6,14.35-13.13,16.49-17.71,31.75-17.71,44.27,0,15.88,4.58,30.84,21.07,49.16,15.88-18.01,19.24-32.67,19.24-49.16,0-13.43-3.67-27.17-14.96-43.97l-3.66-4.89c-3.36-4.89-7.02-9.16-11.6-14.35l-3.97-4.27-6.72-7.02-11.91-12.21c4.58-4.28,8.85-8.85,12.52-12.82l12.21,12.21,6.41,6.72,4.28,4.58c4.27,4.58,8.24,9.46,11.6,13.74l3.66,5.19c15.27,21.37,20.46,39.08,20.46,57.1ZM1559.43,362.12H280.29c3.05-57.71-22.9-109.61-59.54-156.33l12.21-14.35c35.72,43.97,62.59,92.82,65.65,149.31h1242.5c3.05-56.49,29.92-105.34,65.65-149.31l12.21,14.35c-36.64,46.72-62.59,98.62-59.54,156.33ZM1626.91,205.79l-3.97-4.58-12.52-14.35-3.66-4.58c-35.72-43.97-62.59-92.82-65.65-149.31H298.61c-3.05,56.49-29.92,105.34-65.65,149.31l-3.66,4.58-12.52,14.35-3.97,4.58-17.1,18.01-11.6-14.04,16.79-18.32,3.97-4.58,11.91-14.35,3.97-4.58c36.64-46.72,62.59-98.62,59.54-156.33h1279.14c-3.05,57.71,22.9,109.61,59.54,156.33l3.97,4.58,11.91,14.35,3.97,4.58,16.79,18.32-11.6,14.04-17.1-18.01ZM1683.4,215.87l-6.72,7.02-3.97,4.27c-4.58,5.19-8.24,9.47-11.6,14.35l-3.67,4.89c-11.3,16.79-14.96,30.53-14.96,43.97,0,16.49,3.36,31.14,19.24,49.16,16.49-18.32,21.07-33.28,21.07-49.16,0-12.52-4.58-27.79-17.71-44.27,3.05-4.27,7.02-9.16,11.6-14.35,18.01,21.07,24.43,41.22,24.43,58.62,0,24.12-7.94,46.1-39.39,75.11-32.06-29.31-37.56-51.6-37.56-75.11,0-18.01,5.19-35.72,20.46-57.1l3.66-5.19c3.36-4.28,7.33-9.16,11.6-13.74l4.28-4.58,6.41-6.72,12.21-12.21c3.66,3.97,7.94,8.55,12.52,12.82l-11.91,12.21ZM1756.37,225.33c-21.37,0-38.47-10.08-52.21-21.98l-4.27-3.97-12.82-12.82-21.98-23.82,7.94-7.94,4.89-5.19,22.29,24.43,12.82,12.82,4.58,4.27c11.3,9.46,23.51,15.88,38.78,15.88,16.18,0,30.53-3.66,49.16-20.15-18.63-16.49-32.98-20.15-49.16-20.15-13.74,0-26.56,7.02-38.47,16.49-4.28-3.97-8.85-8.85-12.82-13.13,14.66-11.91,32.06-21.68,51.3-21.68,23.82,0,46.1,6.41,75.42,38.47-29.31,32.06-51.6,38.47-75.42,38.47Z"/>
  <g>
    <path class="st0" d="M379.06,243.76v-116.64c0-14.24-2.98-24.8-8.27-29.85v-.92h39.95v.92c-5.28,5.05-8.27,15.61-8.27,29.85v131.33h40.18c25.03,0,37.88-3.21,43.39-8.72l.69.46-3.21,24.34h-112.73v-.92c5.28-5.05,8.27-15.61,8.27-29.85ZM440.82,196.46v-69.34c0-14.24-1.38-24.8-5.97-29.85v-.92h34.44v.92c-4.59,5.05-5.97,15.61-5.97,29.85v69.34c0,14.24,1.38,24.8,5.97,29.85v.92h-34.44v-.92c4.59-5.05,5.97-15.61,5.97-29.85Z"/>
    <path class="st0" d="M499.13,186.36c0-58.78,46.15-93.68,97.12-93.68,25.49,0,43.16,5.74,50.97,10.33l3.44,26.86-.92.23c-9.41-10.1-26.4-20.89-54.64-20.89-36.05,0-69.8,27.32-69.8,72.32,0,42.48,28.7,80.13,73.24,80.13,12.17,0,23.88-2.53,30.31-5.97v-61.76c0-14.24-5.28-24.8-10.56-29.85v-.92h42.25v.92c-5.28,5.05-8.27,15.61-8.27,29.85v40.18c0,14.24,1.84,21.35,7.12,26.4v.92c-12.17,8.72-34.21,16.76-63.14,16.76-49.36,0-97.12-31.68-97.12-91.84Z"/>
    <path class="st0" d="M690.84,237.56l62.68-144.88h.92l69.8,153.83c4.59,10.1,14.46,24.11,18.14,27.09v.92h-38.57c0-6.66-1.61-16.76-8.72-32.83l-8.73-19.97h-69.34l-8.27,19.97c-6.66,16.07-7.58,26.17-6.66,32.83h-32.14v-.92c7.35-8.04,14.69-21.58,20.89-36.05ZM779.01,204.96l-28.24-64.29-26.63,64.29h54.87Z"/>
    <path class="st0" d="M877.27,243.76V112.43h-14.69c-25.03,0-38.11,4.13-43.62,9.64l-.69-.46,3.21-25.26h135l3.21,25.26-.69.46c-5.51-5.51-18.6-9.64-43.62-9.64h-14.69v131.33c0,14.24,2.98,24.8,8.27,29.85v.92h-39.95v-.92c5.28-5.05,8.27-15.61,8.27-29.85Z"/>
    <path class="st0" d="M978.52,215.98v-88.85c0-14.24-2.99-24.8-8.27-29.85v-.92h39.95v.92c-5.28,5.05-8.27,15.61-8.27,29.85v84.26c0,35.36,14.46,49.82,38.8,49.82,33.98,0,49.13-31.23,49.13-57.17v-76.92c0-14.24-2.99-24.8-8.27-29.85v-.92h60.15c39.72,0,61.76,18.14,61.76,44.31,0,23.42-14.92,39.49-37.42,46.84l31.91,56.25c12.4,21.81,16.3,25.72,20.43,29.85v.92h-37.2c0-11.71-5.74-24.34-9.18-30.77l-28.01-52.12c-2.75.23-5.28.23-8.04.23h-22.73v51.89c0,14.24,2.98,24.8,8.27,29.85v.92h-31.68c1.61-6.2,1.84-14.69,1.84-26.4-5.74,12.86-24.11,30.08-53.96,30.08-33.52,0-59.24-17.45-59.24-62.22ZM1177.35,142.97c-.46-17.91-12.63-30.54-38.11-30.54h-25.94v63.37h22.5c25.26,0,42.02-10.79,41.56-32.83Z"/>
    <path class="st0" d="M1236.58,243.76v-116.64c0-14.24-2.53-24.8-7.12-29.85v-.92h102.17l3.44,24.34-.92.23c-6.89-5.97-23.65-8.5-41.56-8.5h-32.6v57.4h30.08c10.79,0,22.96-.92,30.31-5.97l.92.23v27.32l-.92.23c-7.35-5.05-19.52-5.97-30.31-5.97h-30.08v72.78h40.41c25.03,0,37.88-3.21,43.39-8.72l.69.46-3.21,24.34h-111.81v-.92c4.59-5.05,7.12-15.61,7.12-29.85Z"/>
    <path class="st0" d="M1364,263.74l-3.67-29.39.92-.23c10.79,16.07,32.6,27.55,54.19,27.55,23.19,0,38.57-11.94,38.57-31.68,0-17.68-14.92-26.86-36.74-37.88l-10.1-5.05c-27.78-13.78-42.25-27.78-42.25-48.67,0-25.94,19.97-45.69,58.55-45.69,18.6,0,32.83,3.67,42.02,9.64l4.36,27.09-.92.23c-6.66-9.87-22.04-20.43-46.15-20.43-20.43,0-34.67,9.64-34.67,24.11,0,11.94,6.66,19.29,31.91,31.91l14.24,7.12c31.91,16.07,45.23,30.31,45.23,53.73,0,32.83-25.03,52.12-64.52,52.12-17.22,0-38.57-4.59-50.97-14.46Z"/>
  </g>
</svg>