<?xml version="1.0" encoding="UTF-8"?>
<svg id="Layer_1" xmlns="http://www.w3.org/2000/svg" version="1.1" viewBox="0 0 760.61 116.07">
  <!-- Generator: Adobe Illustrator 30.5.0, SVG Export Plug-In . SVG Version: 2.1.4 Build 167)  -->
  <defs>
    <style>
      .st0 {
        fill: #efe9e2;
      }
    </style>
  </defs>
  <polygon class="st0" points="55 1.15 48.03 9.01 43.95 15.48 42.02 22.34 42.02 28.34 43.05 33.73 45.95 39.59 50.19 45.06 43.05 52.68 37.25 48.06 30.47 45.36 24.31 45.06 17.07 46.09 10.67 49.45 4.67 54.22 1.05 58.04 3.51 60.92 8.06 64.85 13.45 68.24 19.22 70.4 25 71.09 31.32 70.4 37.4 67.85 42.64 64.31 43.56 63.31 50.42 70.47 47.41 74.32 43.72 80.95 41.79 89.34 42.33 95.2 43.95 100.44 47.41 106.83 55 114.99 58.27 112.47 62.66 107.29 66.36 100.59 67.98 93.58 67.98 86.39 66.44 80.79 63.43 75.79 60.66 71.78 62.82 68.7 67.29 63.93 71.21 69.51 78.84 82.34 83.08 92.27 85.15 100.44 86.16 108.29 86.16 113.51 674.36 113.51 674.36 104.74 676.02 95.14 678.96 86.4 682.79 79.06 692.83 64.25 699.38 70.9 696.21 75.84 693.35 83.27 692.5 90.43 692.94 97.64 695.44 103.3 699.04 108.9 705.3 114.83 711.08 109.12 715.41 102.63 717.57 97.08 718.62 89.87 717.25 82.55 714.74 77.12 709.97 70.46 716.74 63.47 721.51 67.13 728 70.29 733.65 71.24 741.36 70.35 747.13 68.07 753.34 63.91 759.56 58.07 752.9 51.54 746.74 47.5 740.14 45.33 732.99 44.89 727.05 46.77 721.84 49.44 717.73 52.49 710.52 45.17 713.96 40.17 717.25 34.24 718.4 27.58 717.85 19.37 715.29 12.88 711.13 6.95 704.87 1.15 700.48 5.4 696.32 11.11 694.66 14.83 692.89 20.04 692.72 24.59 692.5 28.86 694.22 34.9 697.05 40.23 699.87 44.33 699.21 45.67 694 50.88 692.83 51.49 686.51 43.5 679.24 30.19 675.64 20.04 674.19 12 674.03 2.56 86.08 2.56 86.29 7.5 85.28 16.28 83.69 23.25 81.08 30.71 77.78 36.93 74.48 42.57 67.45 51.84 60.32 44.86 62.4 41.94 66.01 35.23 68.04 28.26 67.66 21.44 66.55 15.75 63.57 10.27 59.47 4.94 55 1.15"/>
  <path d="M734.72,44.19c-6.64,0-12.42,3.22-17.26,7.21l-1.71-1.8-4.17-4.55c5.69-6.73,7.87-13.47,7.87-19.16,0-8.25-2.75-15.84-14.13-25.89-11.47,10.05-13.56,18.02-13.56,25.89,0,5.97,1.71,11.19,7.3,18.68-1.99,2.09-3.79,3.98-5.69,6.16-11.57-14.89-19.34-31.2-17.73-49.03H84.97c1.61,17.83-6.16,34.14-17.73,49.03-1.9-2.18-3.7-4.08-5.69-6.16,5.59-7.49,7.3-12.71,7.3-18.68,0-7.87-2.09-15.84-13.56-25.89-11.38,10.05-14.13,17.64-14.13,25.89,0,5.69,2.18,12.42,7.87,19.16l-4.17,4.55-1.71,1.8c-4.84-3.98-10.62-7.21-17.26-7.21-7.97,0-15.84,2.37-25.89,13.85,10.05,11.47,17.92,13.85,25.89,13.85,7.3,0,12.99-3.41,17.54-7.4l3.79,3.89,2.18,2.18c-5.97,6.92-8.25,13.85-8.25,19.63,0,8.25,2.75,15.84,14.13,25.89,11.47-10.05,13.56-18.02,13.56-25.89,0-5.97-1.8-12.04-6.92-19.16,1.8-1.8,3.51-3.7,5.31-5.69,11.57,14.89,19.35,31.2,17.73,49.03h590.67c-1.61-17.83,6.16-34.14,17.73-49.03,1.8,1.99,3.51,3.89,5.31,5.69-5.12,7.11-6.92,13.18-6.92,19.16,0,7.87,2.09,15.84,13.56,25.89,11.38-10.05,14.13-17.64,14.13-25.89,0-5.78-2.28-12.71-8.25-19.63l2.18-2.18,3.79-3.89c4.55,3.98,10.24,7.4,17.54,7.4,7.97,0,15.84-2.37,25.89-13.85-10.05-11.47-17.92-13.85-25.89-13.85ZM700.2,46.09l1.33-1.33,1.99-1.99,1.99-2.18,1.23-1.42c3.79-4.93,5.12-9.58,5.12-13.28,0-4.93-1.42-9.58-6.54-15.27-4.93,5.6-5.97,10.15-5.97,15.27,0,3.98,1.04,7.59,5.03,13.18l-2.18,2.37-1.8,1.8c-5.22-7.02-6.73-11.85-6.73-17.35,0-7.3,1.71-14.22,11.66-23.33,9.77,9.01,12.23,15.84,12.23,23.33,0,5.31-1.99,11.47-7.21,17.73l-1.23,1.42-1.61,1.71-2.37,2.37-1.33,1.33-5.59,6.16-3.7-4.46,5.69-6.07ZM43.05,25.89c0-7.49,2.47-14.32,12.23-23.33,9.96,9.1,11.66,16.03,11.66,23.33,0,5.5-1.52,10.34-6.73,17.35l-1.8-1.8-2.18-2.37c3.98-5.6,5.03-9.2,5.03-13.18,0-5.12-1.04-9.67-5.97-15.27-5.12,5.69-6.54,10.34-6.54,15.27,0,3.7,1.33,8.34,5.12,13.28l1.23,1.42,1.99,2.18,1.99,1.99,1.33,1.33,5.69,6.07-3.7,4.46-5.59-6.16-1.33-1.33-2.37-2.37-1.61-1.71-1.23-1.42c-5.22-6.26-7.21-12.42-7.21-17.73ZM42.1,63.16c-4.27,3.7-9.58,6.83-16.22,6.83-7.4,0-14.32-1.99-23.42-11.95,9.1-9.96,16.03-11.95,23.42-11.95,5.97,0,11.38,3.03,15.93,6.73-1.23,1.33-2.66,2.85-3.98,4.08-3.7-2.94-7.68-5.12-11.95-5.12-5.03,0-9.48,1.14-15.27,6.26,5.78,5.12,10.24,6.26,15.27,6.26,4.74,0,8.53-1.99,12.04-4.93l1.42-1.33,3.98-3.98,6.92-7.59,1.52,1.61,2.47,2.47-6.83,7.4-3.98,3.98-1.33,1.23ZM66.95,90.18c0,7.3-1.71,14.22-11.66,23.33-9.77-9.01-12.23-15.84-12.23-23.33,0-5.41,1.99-11.66,7.59-18.21,1.42,1.61,2.65,3.13,3.6,4.46-4.08,5.12-5.5,9.86-5.5,13.75,0,4.93,1.42,9.58,6.54,15.27,4.93-5.6,5.97-10.15,5.97-15.27,0-4.17-1.14-8.44-4.65-13.66l-1.14-1.52c-1.04-1.52-2.18-2.85-3.6-4.46l-1.23-1.33-2.09-2.18-3.7-3.79c1.42-1.33,2.75-2.75,3.89-3.98l3.79,3.79,1.99,2.09,1.33,1.42c1.33,1.42,2.56,2.94,3.6,4.27l1.14,1.61c4.74,6.64,6.35,12.14,6.35,17.73ZM673.55,112.47H87.05c.95-17.92-7.11-34.04-18.49-48.55l3.79-4.46c11.1,13.66,19.44,28.83,20.39,46.37h575.12c.95-17.54,9.29-32.72,20.39-46.37l3.79,4.46c-11.38,14.51-19.44,30.63-18.49,48.55ZM694.51,63.92l-1.23-1.42-3.89-4.46-1.14-1.42c-11.1-13.66-19.44-28.83-20.39-46.37H92.74c-.95,17.54-9.29,32.72-20.39,46.37l-1.14,1.42-3.89,4.46-1.23,1.42-5.31,5.59-3.6-4.36,5.22-5.69,1.23-1.42,3.7-4.46,1.23-1.42c11.38-14.51,19.44-30.63,18.49-48.55h586.5c-.95,17.92,7.11,34.04,18.49,48.55l1.23,1.42,3.7,4.46,1.23,1.42,5.22,5.69-3.6,4.36-5.31-5.59ZM712.05,67.04l-2.09,2.18-1.23,1.33c-1.42,1.61-2.56,2.94-3.6,4.46l-1.14,1.52c-3.51,5.22-4.65,9.48-4.65,13.66,0,5.12,1.04,9.67,5.97,15.27,5.12-5.69,6.54-10.34,6.54-15.27,0-3.89-1.42-8.63-5.5-13.75.95-1.33,2.18-2.84,3.6-4.46,5.59,6.54,7.59,12.8,7.59,18.21,0,7.49-2.47,14.32-12.23,23.33-9.96-9.1-11.66-16.03-11.66-23.33,0-5.6,1.61-11.1,6.35-17.73l1.14-1.61c1.04-1.33,2.28-2.85,3.6-4.27l1.33-1.42,1.99-2.09,3.79-3.79c1.14,1.23,2.47,2.66,3.89,3.98l-3.7,3.79ZM734.72,69.98c-6.64,0-11.95-3.13-16.22-6.83l-1.33-1.23-3.98-3.98-6.83-7.4,2.47-2.47,1.52-1.61,6.92,7.59,3.98,3.98,1.42,1.33c3.51,2.94,7.3,4.93,12.04,4.93,5.03,0,9.48-1.14,15.27-6.26-5.78-5.12-10.24-6.26-15.27-6.26-4.27,0-8.25,2.18-11.95,5.12-1.33-1.23-2.75-2.75-3.98-4.08,4.55-3.7,9.96-6.73,15.93-6.73,7.4,0,14.32,1.99,23.42,11.95-9.1,9.96-16.03,11.95-23.42,11.95Z"/>
  <g>
    <path class="st0" d="M113.16,57.88c0-18.25,14.33-29.09,30.16-29.09,7.92,0,13.41,1.78,15.83,3.21l1.07,8.34-.29.07c-2.92-3.14-8.2-6.49-16.97-6.49-11.19,0-21.68,8.49-21.68,22.46,0,13.19,8.91,24.88,22.75,24.88,3.78,0,7.42-.78,9.41-1.85v-19.18c0-4.42-1.64-7.7-3.28-9.27v-.29h13.12v.29c-1.64,1.57-2.57,4.85-2.57,9.27v12.48c0,4.42.57,6.63,2.21,8.2v.29c-3.78,2.71-10.62,5.21-19.61,5.21-15.33,0-30.16-9.84-30.16-28.52Z"/>
    <path class="st0" d="M173.13,75.71v-36.22c0-4.42-.93-7.7-2.57-9.27v-.29h18.68c12.34,0,19.18,5.63,19.18,13.76,0,7.27-4.63,12.26-11.62,14.55l9.91,17.47c3.85,6.77,5.06,7.99,6.35,9.27v.29h-11.55c0-4.42-1.78-7.56-2.85-9.55l-8.7-16.19c-.86.07-1.64.07-2.5.07h-7.06v16.11c0,4.42.93,7.7,2.57,9.27v.29h-12.41v-.29c1.64-1.57,2.57-4.85,2.57-9.27ZM200.3,44.41c-.14-5.56-3.92-9.48-11.84-9.48h-8.06v19.68h6.99c7.84,0,13.05-3.35,12.91-10.2Z"/>
    <path class="st0" d="M227.97,75.71v-18.4l-11.91-17.83c-3.64-5.42-6.28-7.99-7.92-9.27v-.29h11.98c0,2.28,1.71,5.7,4.35,9.55l8.06,11.98,7.49-11.77c1.92-2.99,3.99-6.84,3.99-9.77h9.84v.29c-1.57,1.28-4.06,3.78-7.7,9.27l-10.91,16.61v19.61c0,4.42.93,7.7,2.57,9.27v.29h-12.41v-.29c1.64-1.57,2.57-4.85,2.57-9.27Z"/>
    <path class="st0" d="M290.93,81.98c-4.92,2.14-10.84,3.28-17.33,3.28h-15.9v-.29c1.64-1.57,2.57-4.85,2.57-9.27v-36.22c0-4.42-.93-7.7-2.57-9.27v-.29h17.33c6.13,0,11.84,1,16.54,2.92,4.56-2.64,9.98-4.06,15.62-4.06,15.54,0,29.23,10.7,29.23,28.81s-13.69,28.81-29.23,28.81c-5.92,0-11.48-1.5-16.26-4.42ZM272.61,80.06c5.21,0,9.63-.71,13.26-2.07-4.92-4.99-7.92-11.84-7.92-20.39s3.14-15.62,8.06-20.54c-3.57-1.28-7.77-1.93-12.91-1.93h-5.56v44.92h5.06ZM292.29,74.35c4.71-3.85,7.13-9.55,7.06-16.54-.07-7.49-2.28-13.55-7.42-17.54-3.71,3.99-5.85,9.7-5.85,15.97,0,6.77,2.14,13.41,6.2,18.11ZM328.29,58.88c0-12.69-7.63-24.96-21.61-24.96-3.42,0-6.49.71-9.2,2.07,6.2,4.42,9.98,11.27,9.98,20.68s-3.92,16.97-10.41,21.82c2.92,1.78,6.49,2.78,10.55,2.78,12.48,0,20.75-9.84,20.68-22.39Z"/>
    <path class="st0" d="M350.55,44.9v30.8c0,4.42.71,7.7,2.35,9.27v.29h-10.41v-.29c1.64-1.57,2.35-4.85,2.35-9.27V28.22h.29l39.15,42.07v-30.8c0-4.42-.71-7.7-2.35-9.27v-.29h10.41v.29c-1.64,1.57-2.35,4.85-2.35,9.27v47.49h-.29l-39.15-42.07Z"/>
    <path class="st0" d="M421.71,75.71v-36.22c0-4.42-.78-7.7-2.21-9.27v-.29h11.69v.29c-1.43,1.57-2.21,4.85-2.21,9.27v36.22c0,4.42.78,7.7,2.21,9.27v.29h-11.69v-.29c1.43-1.57,2.21-4.85,2.21-9.27Z"/>
    <path class="st0" d="M446.53,44.9v30.8c0,4.42.71,7.7,2.35,9.27v.29h-10.41v-.29c1.64-1.57,2.35-4.85,2.35-9.27V28.22h.29l39.15,42.07v-30.8c0-4.42-.71-7.7-2.35-9.27v-.29h10.41v.29c-1.64,1.57-2.35,4.85-2.35,9.27v47.49h-.29l-39.15-42.07Z"/>
    <path class="st0" d="M517.4,67.08v-27.59c0-4.42-.93-7.7-2.57-9.27v-.29h12.41v.29c-1.64,1.57-2.57,4.85-2.57,9.27v26.17c0,10.98,4.49,15.47,12.05,15.47,10.55,0,15.26-9.7,15.26-17.75v-23.89c0-4.42-.93-7.7-2.57-9.27v-.29h12.41v.29c-1.64,1.57-2.57,4.85-2.57,9.27v36.22c0,4.42.93,7.7,2.57,9.27v.29h-9.84c.5-1.92.57-4.56.57-8.2-1.78,3.99-7.49,9.34-16.76,9.34-10.41,0-18.4-5.42-18.4-19.32Z"/>
    <path class="st0" d="M570.17,81.91l-1.14-9.13.29-.07c3.35,4.99,10.12,8.56,16.83,8.56,7.2,0,11.98-3.71,11.98-9.84,0-5.49-4.63-8.34-11.41-11.76l-3.14-1.57c-8.63-4.28-13.12-8.63-13.12-15.12,0-8.06,6.2-14.19,18.18-14.19,5.78,0,10.2,1.14,13.05,3l1.35,8.41-.29.07c-2.07-3.07-6.84-6.35-14.33-6.35-6.35,0-10.77,3-10.77,7.49,0,3.71,2.07,5.99,9.91,9.91l4.42,2.21c9.91,4.99,14.05,9.41,14.05,16.69,0,10.2-7.77,16.19-20.04,16.19-5.35,0-11.98-1.43-15.83-4.49Z"/>
    <path class="st0" d="M614.38,75.71v-36.22c0-4.42-.78-7.7-2.21-9.27v-.29h31.73l1.07,7.56-.29.07c-2.14-1.85-7.34-2.64-12.91-2.64h-10.12v17.83h9.34c3.35,0,7.13-.29,9.41-1.85l.29.07v8.49l-.29.07c-2.28-1.57-6.06-1.85-9.41-1.85h-9.34v22.6h12.55c7.77,0,11.76-1,13.48-2.71l.21.14-1,7.56h-34.73v-.29c1.43-1.57,2.21-4.85,2.21-9.27Z"/>
  </g>
</svg>