<?xml version="1.0" encoding="UTF-8"?>
<svg id="Layer_1" xmlns="http://www.w3.org/2000/svg" version="1.1" viewBox="0 0 1670.54 1057.06">
  <!-- Generator: Adobe Illustrator 30.5.0, SVG Export Plug-In . SVG Version: 2.1.4 Build 167)  -->
  <g>
    <path d="M127.45,828.77c0-17.91,7.05-39.35,25.55-60.79l-6.75-6.75-11.75-12.04c-14.1,12.33-31.71,22.91-54.33,22.91-24.67,0-49.04-7.34-80.17-42.87,31.13-35.53,55.5-42.87,80.17-42.87,20.56,0,38.47,9.98,53.45,22.32l5.29-5.58,12.92-14.09c-17.62-20.85-24.37-41.7-24.37-59.32,0-25.55,8.52-49.04,43.75-80.17,35.53,31.13,41.99,55.79,41.99,80.17,0,18.5-5.29,34.65-22.61,57.85,6.17,6.46,11.75,12.33,17.62,19.09,35.83-46.1,59.91-96.61,54.91-151.82h41.41v5.87h-34.95c2.94,55.5-22.02,105.42-57.26,150.35l-3.82,4.41-11.45,13.8-3.82,4.41-16.15,17.62,11.16,13.51,16.44-17.33,3.82-4.41,12.04-13.8,3.52-4.41c34.36-42.29,60.2-89.27,63.14-143.6h17.33v296h-17.33c-2.94-54.33-28.78-101.31-63.14-143.6l-11.75,13.8c35.24,44.93,60.2,94.85,57.26,150.35h34.95v5.87h-41.41c4.99-55.21-19.09-105.72-54.91-151.82-5.58,6.17-10.87,12.04-16.44,17.62,15.86,22.02,21.44,40.82,21.44,59.32,0,24.37-6.46,49.04-41.99,80.17-35.24-31.13-43.75-54.62-43.75-80.17ZM130.38,745.08l4.11-3.82,12.33-12.33,21.14-22.91-7.64-7.63-4.7-4.99-21.44,23.49-12.33,12.33-4.4,4.11c-10.87,9.1-22.61,15.27-37.29,15.27-15.56,0-29.37-3.52-47.28-19.38,17.91-15.86,31.71-19.38,47.28-19.38,13.21,0,25.55,6.75,37,15.86,4.11-3.82,8.52-8.52,12.33-12.63-14.1-11.45-30.83-20.85-49.33-20.85-22.91,0-44.34,6.17-72.53,37,28.19,30.83,49.63,37,72.53,37,20.56,0,37-9.69,50.22-21.14ZM204.68,711.02l-17.62-18.79-4.11-4.11-6.17-6.17-6.17-6.75-3.82-4.41c-11.75-15.27-15.86-29.66-15.86-41.11,0-15.27,4.4-29.66,20.26-47.28,15.27,17.33,18.5,31.42,18.5,47.28,0,12.33-3.23,23.49-15.56,40.82l6.75,7.34,5.58,5.58c16.15-21.73,20.85-36.71,20.85-53.74,0-22.61-5.29-44.05-36.12-72.24-30.25,27.9-37.88,49.04-37.88,72.24,0,16.44,6.17,35.53,22.32,54.91l3.82,4.41,4.99,5.29,7.34,7.34,4.11,4.11,17.33,19.09,11.45-13.8ZM207.32,828.77c0-17.33-4.99-34.36-19.67-54.91l-3.52-4.99c-3.23-4.11-7.05-8.81-11.16-13.21l-4.11-4.4-6.17-6.46-11.75-11.75c-3.52,3.82-7.63,8.22-12.04,12.33l11.45,11.75,6.46,6.75,3.82,4.11c4.41,4.99,7.93,9.1,11.16,13.8l3.52,4.7c10.87,16.15,14.39,29.37,14.39,42.29,0,15.86-3.23,29.95-18.5,47.28-15.86-17.62-20.26-32.01-20.26-47.28,0-12.04,4.4-26.72,17.03-42.58-2.94-4.11-6.75-8.81-11.16-13.8-17.33,20.26-23.49,39.64-23.49,56.38,0,23.2,7.63,44.34,37.88,72.24,30.83-28.19,36.12-49.63,36.12-72.24Z"/>
    <g>
      <rect x="481.73" y="554.79" width="701.83" height="5.87"/>
      <rect x="481.73" y="581.22" width="701.83" height="296"/>
      <polygon points="1080.78 897.78 983.88 897.78 980.94 897.78 884.04 897.78 881.1 897.78 784.19 897.78 781.25 897.78 684.35 897.78 681.41 897.78 584.51 897.78 581.57 897.78 481.73 897.78 481.73 903.66 581.57 903.66 584.51 903.66 681.41 903.66 684.35 903.66 781.25 903.66 784.19 903.66 881.1 903.66 884.04 903.66 980.94 903.66 983.88 903.66 1080.78 903.66 1083.72 903.66 1183.56 903.66 1183.56 897.78 1083.72 897.78 1080.78 897.78"/>
    </g>
    <path d="M1452.1,828.77c0-18.5,5.58-37.29,21.44-59.32-5.58-5.58-10.87-11.45-16.44-17.62-35.83,46.1-59.91,96.61-54.91,151.82h-41.41v-5.87h34.95c-2.94-55.5,22.02-105.42,57.26-150.35l-11.75-13.8c-34.36,42.29-60.2,89.27-63.14,143.6h-17.33v-296h17.33c2.94,54.33,28.78,101.31,63.14,143.6l3.52,4.41,12.04,13.8,3.82,4.41,16.44,17.33,11.16-13.51-16.15-17.62-3.82-4.41-11.45-13.8-3.82-4.41c-35.24-44.93-60.2-94.85-57.26-150.35h-34.95v-5.87h41.41c-4.99,55.21,19.09,105.72,54.91,151.82,5.87-6.75,11.45-12.63,17.62-19.09-17.33-23.2-22.61-39.35-22.61-57.85,0-24.37,6.46-49.04,41.99-80.17,35.24,31.13,43.75,54.62,43.75,80.17,0,17.62-6.75,38.47-24.37,59.32l12.92,14.09,5.29,5.58c14.98-12.33,32.89-22.32,53.45-22.32,24.67,0,49.04,7.34,80.17,42.87-31.13,35.53-55.5,42.87-80.17,42.87-22.61,0-40.23-10.57-54.33-22.91l-11.75,12.04-6.75,6.75c18.5,21.44,25.55,42.87,25.55,60.79,0,25.55-8.52,49.04-43.75,80.17-35.53-31.13-41.99-55.79-41.99-80.17ZM1489.39,705.73l4.11-4.11,7.34-7.34,4.99-5.29,3.82-4.41c16.15-19.38,22.32-38.47,22.32-54.91,0-23.2-7.63-44.34-37.88-72.24-30.83,28.19-36.12,49.63-36.12,72.24,0,17.03,4.7,32.01,20.85,53.74l5.58-5.58,6.75-7.34c-12.33-17.33-15.56-28.48-15.56-40.82,0-15.86,3.23-29.95,18.5-47.28,15.86,17.62,20.26,32.01,20.26,47.28,0,11.45-4.11,25.84-15.86,41.11l-3.82,4.41-6.17,6.75-6.17,6.17-4.11,4.11-17.62,18.79,11.45,13.8,17.33-19.09ZM1531.97,828.77c0-16.74-6.17-36.12-23.49-56.38-4.41,4.99-8.22,9.69-11.16,13.8,12.63,15.86,17.03,30.54,17.03,42.58,0,15.27-4.41,29.66-20.26,47.28-15.27-17.33-18.5-31.42-18.5-47.28,0-12.92,3.52-26.13,14.39-42.29l3.52-4.7c3.23-4.7,6.75-8.81,11.16-13.8l3.82-4.11,6.46-6.75,11.45-11.75c-4.41-4.11-8.52-8.52-12.04-12.33l-11.75,11.75-6.17,6.46-4.11,4.4c-4.11,4.41-7.93,9.1-11.16,13.21l-3.52,4.99c-14.68,20.56-19.67,37.59-19.67,54.91,0,22.61,5.29,44.05,36.12,72.24,30.25-27.9,37.88-49.04,37.88-72.24ZM1657.66,729.23c-28.19-30.83-49.63-37-72.53-37-18.5,0-35.24,9.4-49.33,20.85,3.82,4.11,8.22,8.81,12.33,12.63,11.45-9.1,23.79-15.86,37-15.86,15.56,0,29.37,3.52,47.28,19.38-17.91,15.86-31.71,19.38-47.28,19.38-14.68,0-26.43-6.17-37.29-15.27l-4.41-4.11-12.33-12.33-21.44-23.49-4.7,4.99-7.63,7.63,21.14,22.91,12.33,12.33,4.11,3.82c13.21,11.45,29.66,21.14,50.21,21.14,22.91,0,44.34-6.17,72.53-37Z"/>
    <g>
      <path d="M100.48,1013.01v-14.17c0-1.4-.32-2.56-1.11-3.1v-.11l3.64-1.03v18.41c0,1.67.27,2.92.89,3.51v.11h-4.32v-.11c.62-.59.89-1.83.89-3.51Z"/>
      <path d="M105.48,1009.31c0-4.64,3.56-7.69,7.72-7.69,4.53,0,6.26,3.02,6.26,6.56h-11.17c-.03.19-.03.35-.03.54,0,3.89,2.51,6.59,6.24,6.59,2.08,0,3.81-.81,4.99-2.08l.11.05c-1.03,1.86-3,3.78-6.64,3.78-3.89,0-7.48-2.78-7.48-7.75ZM116.44,1006.37c-.16-1.59-1.38-3-3.43-3-1.92,0-3.62,1.05-4.35,3h7.77Z"/>
      <path d="M123.24,1013.01v-9.15h-3.19v-.08l1.38-1.73h1.81v-2.48c0-3.86,2.62-4.97,4.91-4.97,1.19,0,2.4.27,2.86.51l.35,2.54-.11.03c-.59-.97-1.92-1.32-2.92-1.32-1.86,0-2.56,1.11-2.56,3.21v2.48h5.51v.11l-1.57,1.97c-.81-.24-2.59-.32-3.94-.35v9.23c0,1.67.27,2.92.89,3.51v.11h-4.32v-.11c.62-.59.89-1.83.89-3.51Z"/>
      <path d="M132.72,1012.96v-9.1h-2.35v-.11l4.78-4.72h.11v3.02h5.43v.11l-1.57,1.97c-.81-.24-2.59-.32-3.86-.35v8.67c0,1.75.51,2.86,2.32,2.86.76,0,1.94-.32,2.56-1.19l.08.03-.49,2.43c-.51.22-1.4.49-2.83.49-2.62,0-4.18-1.11-4.18-4.1Z"/>
      <path d="M142.58,1013.01v-13.71c0-1.67-.35-2.92-.97-3.51v-.11h6.56c6.96,0,12.28,3.27,12.28,10.12s-5.32,10.82-12.82,10.82h-6.02v-.11c.62-.59.97-1.83.97-3.51ZM157.37,1006.24c-.03-5.07-2.75-8.58-9.93-8.58h-2.11v17h1.92c6.88,0,10.15-3.4,10.12-8.42Z"/>
      <path d="M162.48,1009.34c0-4.86,3.62-7.72,7.75-7.72s7.72,2.86,7.72,7.72-3.64,7.72-7.72,7.72-7.75-2.86-7.75-7.72ZM175.14,1009.31c-.11-3.37-2.13-5.94-5.13-5.94s-4.83,2.56-4.72,5.94c.13,3.37,2.16,5.99,5.18,5.99s4.8-2.62,4.67-5.99Z"/>
      <path d="M180.48,1011.47v-5.62c0-1.4-.32-2.56-1.11-3.1v-.11l3.64-1.03v9.42c0,2.54.62,4.24,3.1,4.24,2.05,0,4.18-1.75,4.18-5.32v-4.1c0-1.4-.32-2.56-1.11-3.1v-.11l3.64-1.03v11.39c0,1.67.27,2.32.89,2.92v.11l-3.32,1.03v-2.7c-.67,1.38-2.7,2.7-4.99,2.7-3.27,0-4.94-1.75-4.94-5.59Z"/>
      <path d="M198.3,1015.28l-1.13,1.35h-.76v-17.79c0-1.4-.32-2.56-1.11-3.1v-.11l3.64-1.03v9.58c.65-1.38,2.65-2.56,4.83-2.56,4.27,0,6.32,3.56,6.32,7.64,0,4.35-2.83,7.8-7.04,7.8-2.35,0-3.91-1.03-4.75-1.78ZM207.29,1009.61c-.08-3.35-1.81-5.96-4.4-5.96s-4.16,2.62-4.1,5.96c.05,4.05,1.92,5.97,4.48,5.97s4.13-2.65,4.02-5.97Z"/>
      <path d="M212.7,1013.01v-14.17c0-1.4-.32-2.56-1.11-3.1v-.11l3.64-1.03v18.41c0,1.67.27,2.92.89,3.51v.11h-4.32v-.11c.62-.59.89-1.83.89-3.51Z"/>
      <path d="M217.69,1009.31c0-4.64,3.56-7.69,7.72-7.69,4.53,0,6.26,3.02,6.26,6.56h-11.17c-.03.19-.03.35-.03.54,0,3.89,2.51,6.59,6.24,6.59,2.08,0,3.81-.81,4.99-2.08l.11.05c-1.03,1.86-3,3.78-6.64,3.78-3.89,0-7.48-2.78-7.48-7.75ZM228.65,1006.37c-.16-1.59-1.38-3-3.43-3-1.92,0-3.62,1.05-4.35,3h7.77Z"/>
      <path d="M233.97,1013.01v-13.71c0-1.67-.35-2.92-.97-3.51v-.11h7.07c4.67,0,7.26,2.27,7.26,5.34,0,3.89-3.54,6.15-7.94,6.15h-2.67v5.83c0,1.67.35,2.92.97,3.51v.11h-4.7v-.11c.62-.59.97-1.83.97-3.51ZM244.26,1001.3c-.05-2.11-1.48-3.72-4.48-3.72h-3.05v7.72h2.65c2.97,0,4.94-1.4,4.89-4Z"/>
      <path d="M247.58,1013.01c0-2.94,1.97-3.94,4.86-4.91,1.7-.57,3.16-1.08,4.21-1.49-.08-1.86-.89-3.18-3.43-3.18-1.67,0-3.43.67-4.54,1.73l-.11-.05.4-2.59c1.16-.49,3.08-.89,4.72-.89,3.54,0,5.48,1.59,5.48,5.96v5.43c0,1.67.27,2.32.89,2.92v.11l-3.32,1.03v-1.89c-1.13,1.4-3.02,1.92-4.32,1.89-3-.05-4.86-1.67-4.86-4.05ZM256.65,1012.15v-3.89l-2.43.97c-2.46.95-3.89,1.62-3.89,3.38s1.16,2.7,2.78,2.7c1.19,0,3.54-.92,3.54-3.16Z"/>
      <path d="M262.59,1013.01v-7.15c0-1.4-.32-2.56-1.11-3.1v-.11l3.64-1.03v3c1.05-1.92,3.72-2.97,5.97-2.97v3.05h-.11c-.24-.22-.76-.62-1.92-.62-2.19,0-3.94,1.97-3.94,4.64v4.29c0,1.67.27,2.92.89,3.51v.11h-4.32v-.11c.62-.59.89-1.83.89-3.51Z"/>
      <path d="M272.34,1009.31c0-4.64,3.56-7.69,7.72-7.69,4.53,0,6.26,3.02,6.26,6.56h-11.17c-.03.19-.03.35-.03.54,0,3.89,2.51,6.59,6.24,6.59,2.08,0,3.81-.81,4.99-2.08l.11.05c-1.03,1.86-3,3.78-6.64,3.78-3.89,0-7.48-2.78-7.48-7.75ZM283.3,1006.37c-.16-1.59-1.38-3-3.43-3-1.92,0-3.62,1.05-4.35,3h7.77Z"/>
      <path d="M288.73,1013.01v-7.15c0-1.4-.32-2.56-1.11-3.1v-.11l3.64-1.03v2.54c.67-1.3,2.73-2.54,5.02-2.54,3.27,0,4.94,1.75,4.94,5.59v5.8c0,1.67.27,2.92.89,3.51v.11h-4.32v-.11c.62-.59.89-1.83.89-3.51v-5.37c0-2.54-.62-4.24-3.1-4.24-2.05,0-4.32,1.75-4.32,5.32v4.29c0,1.67.27,2.92.89,3.51v.11h-4.32v-.11c.62-.59.89-1.83.89-3.51Z"/>
      <path d="M151.82,1049.75v-10.45c0-1.67-.35-2.92-.97-3.51v-.11h4.7v.11c-.62.59-.97,1.84-.97,3.51v9.91c0,4.16,1.7,5.86,4.56,5.86,3.99,0,5.78-3.67,5.78-6.72v-9.04c0-1.67-.35-2.92-.97-3.51v-.11h4.7v.11c-.62.59-.97,1.84-.97,3.51v13.71c0,1.67.35,2.92.97,3.51v.11h-3.73c.19-.73.22-1.73.22-3.1-.67,1.51-2.83,3.54-6.34,3.54-3.94,0-6.96-2.05-6.96-7.31Z"/>
      <path d="M177.34,1048.48v-1.38h-1.27c-1.67,0-3.27.08-4.05.46h-.11v-2.81h.11c.78.38,2.38.46,4.05.46h1.27v-1.38c0-1.67-.08-3.27-.46-4.05v-.11h3.02v.11c-.38.78-.46,2.38-.46,4.05v1.38h1.27c1.67,0,3.27-.08,4.05-.46h.11v2.81h-.11c-.78-.38-2.38-.46-4.05-.46h-1.27v1.38c0,1.67.08,3.27.46,4.05v.11h-3.02v-.11c.38-.78.46-2.38.46-4.05Z"/>
      <path d="M197.42,1040.97c0-2.27-1.48-3.78-3.91-3.78s-4.48,1.54-5.86,3.48l-.08-.11c.62-1.86,2.51-5.32,7.18-5.32,4.18,0,5.91,2.67,5.91,5.4,0,5.51-7.58,12.44-9.26,14.09h4.83c2.94,0,4.59-.65,5.24-1.3l.08.05-.51,3.13h-14.31v-.11c3.02-2.83,10.69-9.72,10.69-15.55Z"/>
      <path d="M205.01,1053.01v-13.71c0-1.67-.3-2.92-.84-3.51v-.11h12.01l.41,2.86-.11.03c-.81-.7-2.78-1-4.89-1h-3.83v6.75h3.54c1.27,0,2.7-.11,3.56-.7l.11.03v3.21l-.11.03c-.86-.59-2.29-.7-3.56-.7h-3.54v8.56h4.75c2.94,0,4.45-.38,5.1-1.03l.08.05-.38,2.86h-13.15v-.11c.54-.59.84-1.83.84-3.51Z"/>
      <path d="M229.42,1040.97c0-2.27-1.48-3.78-3.91-3.78s-4.48,1.54-5.86,3.48l-.08-.11c.62-1.86,2.51-5.32,7.18-5.32,4.18,0,5.91,2.67,5.91,5.4,0,5.51-7.58,12.44-9.26,14.09h4.83c2.94,0,4.59-.65,5.24-1.3l.08.05-.51,3.13h-14.31v-.11c3.02-2.83,10.69-9.72,10.69-15.55Z"/>
      <path d="M235.36,1050.31c0-3.08,2.38-5.13,3.86-5.78-.94-.49-2.48-2.05-2.48-4.08,0-2.7,2.32-5.21,6.51-5.21s6.51,2.51,6.51,5.21c0,2.02-1.51,3.59-2.46,4.08,1.48.65,3.83,2.7,3.83,5.78,0,3.59-2.75,6.75-7.88,6.75s-7.88-3.16-7.88-6.75ZM248.05,1050.28c0-3-2.35-4.75-4.8-4.75s-4.8,1.75-4.8,4.75,2.08,4.83,4.8,4.83,4.8-1.97,4.8-4.83ZM246.89,1040.38c0-1.75-1.54-3.18-3.64-3.18s-3.64,1.43-3.64,3.18c0,1.94,1.54,3.27,3.64,3.27s3.64-1.32,3.64-3.27Z"/>
    </g>
    <g>
      <path d="M704.41,1013.01v-14.17c0-1.4-.32-2.56-1.11-3.1v-.11l3.64-1.03v18.41c0,1.67.27,2.92.89,3.51v.11h-4.32v-.11c.62-.59.89-1.83.89-3.51Z"/>
      <path d="M709.4,1009.31c0-4.64,3.56-7.69,7.72-7.69,4.53,0,6.26,3.02,6.26,6.56h-11.17c-.03.19-.03.35-.03.54,0,3.89,2.51,6.59,6.24,6.59,2.08,0,3.81-.81,4.99-2.08l.11.05c-1.03,1.86-3,3.78-6.64,3.78-3.89,0-7.48-2.78-7.48-7.75ZM720.36,1006.37c-.16-1.59-1.38-3-3.43-3-1.92,0-3.62,1.05-4.35,3h7.77Z"/>
      <path d="M727.17,1013.01v-9.15h-3.19v-.08l1.38-1.73h1.81v-2.48c0-3.86,2.62-4.97,4.91-4.97,1.19,0,2.4.27,2.86.51l.35,2.54-.11.03c-.59-.97-1.92-1.32-2.92-1.32-1.86,0-2.56,1.11-2.56,3.21v2.48h5.51v.11l-1.57,1.97c-.81-.24-2.59-.32-3.94-.35v9.23c0,1.67.27,2.92.89,3.51v.11h-4.32v-.11c.62-.59.89-1.83.89-3.51Z"/>
      <path d="M736.64,1012.96v-9.1h-2.35v-.11l4.78-4.72h.11v3.02h5.43v.11l-1.57,1.97c-.81-.24-2.59-.32-3.86-.35v8.67c0,1.75.51,2.86,2.32,2.86.76,0,1.94-.32,2.56-1.19l.08.03-.49,2.43c-.51.22-1.4.49-2.83.49-2.62,0-4.18-1.11-4.18-4.1Z"/>
      <path d="M746.5,1013.01v-13.71c0-1.67-.35-2.92-.97-3.51v-.11h6.56c6.96,0,12.28,3.27,12.28,10.12s-5.32,10.82-12.82,10.82h-6.02v-.11c.62-.59.97-1.83.97-3.51ZM761.29,1006.24c-.03-5.07-2.75-8.58-9.93-8.58h-2.11v17h1.92c6.88,0,10.15-3.4,10.12-8.42Z"/>
      <path d="M766.4,1009.34c0-4.86,3.62-7.72,7.75-7.72s7.72,2.86,7.72,7.72-3.64,7.72-7.72,7.72-7.75-2.86-7.75-7.72ZM779.06,1009.31c-.11-3.37-2.13-5.94-5.13-5.94s-4.83,2.56-4.72,5.94c.13,3.37,2.16,5.99,5.18,5.99s4.8-2.62,4.67-5.99Z"/>
      <path d="M784.41,1011.47v-5.62c0-1.4-.32-2.56-1.11-3.1v-.11l3.64-1.03v9.42c0,2.54.62,4.24,3.1,4.24,2.05,0,4.18-1.75,4.18-5.32v-4.1c0-1.4-.32-2.56-1.11-3.1v-.11l3.64-1.03v11.39c0,1.67.27,2.32.89,2.92v.11l-3.32,1.03v-2.7c-.67,1.38-2.7,2.7-4.99,2.7-3.27,0-4.94-1.75-4.94-5.59Z"/>
      <path d="M802.23,1015.28l-1.13,1.35h-.76v-17.79c0-1.4-.32-2.56-1.11-3.1v-.11l3.64-1.03v9.58c.65-1.38,2.65-2.56,4.83-2.56,4.26,0,6.32,3.56,6.32,7.64,0,4.35-2.83,7.8-7.04,7.8-2.35,0-3.91-1.03-4.75-1.78ZM811.21,1009.61c-.08-3.35-1.81-5.96-4.4-5.96s-4.16,2.62-4.1,5.96c.05,4.05,1.92,5.97,4.48,5.97s4.13-2.65,4.02-5.97Z"/>
      <path d="M816.62,1013.01v-14.17c0-1.4-.32-2.56-1.11-3.1v-.11l3.64-1.03v18.41c0,1.67.27,2.92.89,3.51v.11h-4.32v-.11c.62-.59.89-1.83.89-3.51Z"/>
      <path d="M821.61,1009.31c0-4.64,3.56-7.69,7.72-7.69,4.53,0,6.26,3.02,6.26,6.56h-11.17c-.03.19-.03.35-.03.54,0,3.89,2.51,6.59,6.24,6.59,2.08,0,3.81-.81,4.99-2.08l.11.05c-1.03,1.86-3,3.78-6.64,3.78-3.89,0-7.48-2.78-7.48-7.75ZM832.57,1006.37c-.16-1.59-1.38-3-3.43-3-1.92,0-3.62,1.05-4.35,3h7.77Z"/>
      <path d="M837.89,1013.01v-13.71c0-1.67-.35-2.92-.97-3.51v-.11h7.07c4.67,0,7.26,2.27,7.26,5.34,0,3.89-3.54,6.15-7.94,6.15h-2.67v5.83c0,1.67.35,2.92.97,3.51v.11h-4.7v-.11c.62-.59.97-1.83.97-3.51ZM848.18,1001.3c-.05-2.11-1.48-3.72-4.48-3.72h-3.05v7.72h2.65c2.97,0,4.94-1.4,4.89-4Z"/>
      <path d="M851.5,1013.01c0-2.94,1.97-3.94,4.86-4.91,1.7-.57,3.16-1.08,4.21-1.49-.08-1.86-.89-3.18-3.43-3.18-1.67,0-3.43.67-4.54,1.73l-.11-.05.41-2.59c1.16-.49,3.08-.89,4.72-.89,3.54,0,5.48,1.59,5.48,5.96v5.43c0,1.67.27,2.32.89,2.92v.11l-3.32,1.03v-1.89c-1.13,1.4-3.02,1.92-4.32,1.89-3-.05-4.86-1.67-4.86-4.05ZM860.57,1012.15v-3.89l-2.43.97c-2.46.95-3.89,1.62-3.89,3.38s1.16,2.7,2.78,2.7c1.19,0,3.54-.92,3.54-3.16Z"/>
      <path d="M866.51,1013.01v-7.15c0-1.4-.32-2.56-1.11-3.1v-.11l3.64-1.03v3c1.05-1.92,3.72-2.97,5.96-2.97v3.05h-.11c-.24-.22-.76-.62-1.92-.62-2.19,0-3.94,1.97-3.94,4.64v4.29c0,1.67.27,2.92.89,3.51v.11h-4.32v-.11c.62-.59.89-1.83.89-3.51Z"/>
      <path d="M876.26,1009.31c0-4.64,3.56-7.69,7.72-7.69,4.53,0,6.26,3.02,6.26,6.56h-11.17c-.03.19-.03.35-.03.54,0,3.89,2.51,6.59,6.24,6.59,2.08,0,3.81-.81,4.99-2.08l.11.05c-1.03,1.86-3,3.78-6.64,3.78-3.89,0-7.48-2.78-7.48-7.75ZM887.22,1006.37c-.16-1.59-1.38-3-3.43-3-1.92,0-3.62,1.05-4.35,3h7.77Z"/>
      <path d="M892.65,1013.01v-7.15c0-1.4-.32-2.56-1.11-3.1v-.11l3.64-1.03v2.54c.67-1.3,2.73-2.54,5.02-2.54,3.27,0,4.94,1.75,4.94,5.59v5.8c0,1.67.27,2.92.89,3.51v.11h-4.32v-.11c.62-.59.89-1.83.89-3.51v-5.37c0-2.54-.62-4.24-3.1-4.24-2.05,0-4.32,1.75-4.32,5.32v4.29c0,1.67.27,2.92.89,3.51v.11h-4.32v-.11c.62-.59.89-1.83.89-3.51Z"/>
      <path d="M908.36,1015.39c0-1.03.81-1.65,1.7-1.65s1.73.62,1.73,1.65-.84,1.67-1.73,1.67-1.7-.62-1.7-1.67Z"/>
      <path d="M914.55,1015.9l-.38-2.83.11-.05c1.19,1.65,3,2.29,4.78,2.29,1.59,0,2.89-.67,2.89-1.94,0-1.08-.7-1.78-2.62-2.78l-1.65-.86c-2.38-1.24-3.21-2.46-3.21-4.24,0-1.97,1.94-3.86,5.21-3.86,1.62,0,2.65.32,3.51.73l.32,2.56-.08.05c-.59-.78-2.08-1.59-3.99-1.59-1.46,0-2.56.65-2.56,1.62,0,1.05.49,1.48,2.21,2.38l1.84.95c2.32,1.19,3.56,2.4,3.56,4.32,0,2.89-2.48,4.43-5.48,4.43-1.51,0-3.4-.32-4.45-1.16Z"/>
      <path d="M926.45,1015.9l-.38-2.83.11-.05c1.19,1.65,3,2.29,4.78,2.29,1.59,0,2.89-.67,2.89-1.94,0-1.08-.7-1.78-2.62-2.78l-1.65-.86c-2.38-1.24-3.21-2.46-3.21-4.24,0-1.97,1.94-3.86,5.21-3.86,1.62,0,2.65.32,3.51.73l.32,2.56-.08.05c-.59-.78-2.08-1.59-4-1.59-1.46,0-2.56.65-2.56,1.62,0,1.05.49,1.48,2.21,2.38l1.83.95c2.32,1.19,3.56,2.4,3.56,4.32,0,2.89-2.48,4.43-5.48,4.43-1.51,0-3.4-.32-4.45-1.16Z"/>
      <path d="M938.25,1006.15c0-6.32,3.29-10.9,8.5-10.9s8.5,4.59,8.5,10.9-3.29,10.91-8.5,10.91-8.5-4.59-8.5-10.91ZM952.18,1006.15c0-4.64-1.78-8.96-5.43-8.96s-5.43,4.32-5.43,8.96,1.78,8.96,5.43,8.96,5.43-4.32,5.43-8.96Z"/>
      <path d="M958.01,1013.01v-13.6c0-1.46-.3-1.89-1.54-2.46v-.11l4.29-1.59v17.76c0,1.67.38,2.92,1,3.51v.11h-4.75v-.11c.62-.59,1-1.83,1-3.51Z"/>
      <path d="M783.81,1049.75v-10.45c0-1.67-.35-2.92-.97-3.51v-.11h4.7v.11c-.62.59-.97,1.84-.97,3.51v9.91c0,4.16,1.7,5.86,4.56,5.86,4,0,5.78-3.67,5.78-6.72v-9.04c0-1.67-.35-2.92-.97-3.51v-.11h4.7v.11c-.62.59-.97,1.84-.97,3.51v13.71c0,1.67.35,2.92.97,3.51v.11h-3.73c.19-.73.22-1.73.22-3.1-.67,1.51-2.83,3.54-6.34,3.54-3.94,0-6.96-2.05-6.96-7.31Z"/>
      <path d="M809.33,1048.48v-1.38h-1.27c-1.67,0-3.27.08-4.05.46h-.11v-2.81h.11c.78.38,2.38.46,4.05.46h1.27v-1.38c0-1.67-.08-3.27-.46-4.05v-.11h3.02v.11c-.38.78-.46,2.38-.46,4.05v1.38h1.27c1.67,0,3.27-.08,4.05-.46h.11v2.81h-.11c-.78-.38-2.38-.46-4.05-.46h-1.27v1.38c0,1.67.08,3.27.46,4.05v.11h-3.02v-.11c.38-.78.46-2.38.46-4.05Z"/>
      <path d="M829.41,1040.97c0-2.27-1.48-3.78-3.91-3.78s-4.48,1.54-5.86,3.48l-.08-.11c.62-1.86,2.51-5.32,7.18-5.32,4.18,0,5.91,2.67,5.91,5.4,0,5.51-7.58,12.44-9.26,14.09h4.83c2.94,0,4.59-.65,5.24-1.3l.08.05-.51,3.13h-14.31v-.11c3.02-2.83,10.69-9.72,10.69-15.55Z"/>
      <path d="M837,1053.01v-13.71c0-1.67-.3-2.92-.84-3.51v-.11h12.01l.41,2.86-.11.03c-.81-.7-2.78-1-4.89-1h-3.83v6.75h3.54c1.27,0,2.7-.11,3.56-.7l.11.03v3.21l-.11.03c-.86-.59-2.29-.7-3.56-.7h-3.54v8.56h4.75c2.94,0,4.45-.38,5.1-1.03l.08.05-.38,2.86h-13.15v-.11c.54-.59.84-1.83.84-3.51Z"/>
      <path d="M861.41,1040.97c0-2.27-1.49-3.78-3.91-3.78s-4.48,1.54-5.86,3.48l-.08-.11c.62-1.86,2.51-5.32,7.18-5.32,4.18,0,5.91,2.67,5.91,5.4,0,5.51-7.58,12.44-9.26,14.09h4.83c2.94,0,4.59-.65,5.24-1.3l.08.05-.51,3.13h-14.31v-.11c3.02-2.83,10.69-9.72,10.69-15.55Z"/>
      <path d="M867.35,1050.31c0-3.08,2.38-5.13,3.86-5.78-.94-.49-2.48-2.05-2.48-4.08,0-2.7,2.32-5.21,6.51-5.21s6.5,2.51,6.5,5.21c0,2.02-1.51,3.59-2.46,4.08,1.48.65,3.83,2.7,3.83,5.78,0,3.59-2.75,6.75-7.88,6.75s-7.88-3.16-7.88-6.75ZM880.04,1050.28c0-3-2.35-4.75-4.8-4.75s-4.8,1.75-4.8,4.75,2.08,4.83,4.8,4.83,4.8-1.97,4.8-4.83ZM878.87,1040.38c0-1.75-1.54-3.18-3.64-3.18s-3.64,1.43-3.64,3.18c0,1.94,1.54,3.27,3.64,3.27s3.64-1.32,3.64-3.27Z"/>
    </g>
    <g>
      <path d="M1372.89,1013.01v-7.15c0-1.4-.32-2.56-1.11-3.1v-.11l3.64-1.03v3c1.05-1.92,3.72-2.97,5.97-2.97v3.05h-.11c-.24-.22-.76-.62-1.92-.62-2.19,0-3.94,1.97-3.94,4.64v4.29c0,1.67.27,2.92.89,3.51v.11h-4.32v-.11c.62-.59.89-1.83.89-3.51Z"/>
      <path d="M1383.96,1013.01v-7.15c0-1.4-.32-2.56-1.11-3.1v-.11l3.64-1.03v11.39c0,1.67.27,2.92.89,3.51v.11h-4.32v-.11c.62-.59.89-1.83.89-3.51ZM1383.23,997.52c0-1.13.86-1.78,1.84-1.78s1.86.65,1.86,1.78-.89,1.81-1.86,1.81-1.84-.67-1.84-1.81Z"/>
      <path d="M1389.3,1018.46c0-1.54,1.21-2.83,2.65-3.46-1.38-.35-2.02-1.19-2.02-2.16,0-1.21,1.11-1.92,2.13-2.21-1.51-.84-2.46-2.24-2.46-4.05,0-3.1,2.7-4.97,6.18-4.97.97,0,1.86.13,2.7.43h6.21v.11l-1.57,1.97c-.62-.19-1.35-.27-2.11-.32.57.73.92,1.7.92,2.78,0,3.05-2.73,4.91-6.15,4.91-.7,0-1.38-.08-1.97-.22-.78.11-1.4.46-1.4,1,0,.7.73.97,2.38,1.08l3.29.24c3.08.22,5.43,1.43,5.43,3.73,0,2.78-2.97,5.13-7.69,5.13-3.13,0-6.51-1.27-6.51-3.99ZM1400.8,1017.79c0-1.19-.89-2.16-3.62-2.35l-2.35-.16c-1.4.05-2.86,1.21-2.86,2.78,0,1.89,1.97,2.62,4.26,2.65,2.81.03,4.56-1.3,4.56-2.92ZM1399.32,1006.56c-.13-1.94-1.54-3.37-3.67-3.37s-3.48,1.43-3.43,3.37c.05,1.94,1.54,3.37,3.67,3.37s3.56-1.43,3.43-3.37Z"/>
      <path d="M1406.02,1013.01v-14.17c0-1.4-.32-2.56-1.11-3.1v-.11l3.64-1.03v9.56c.67-1.3,2.73-2.54,5.02-2.54,3.27,0,4.94,2.02,4.94,5.86v5.53c0,1.67.27,2.92.89,3.51v.11h-4.32v-.11c.62-.59.89-1.83.89-3.51v-5.1c0-2.54-.62-4.24-3.1-4.24-2.05,0-4.32,1.49-4.32,5.05v4.29c0,1.67.27,2.92.89,3.51v.11h-4.32v-.11c.62-.59.89-1.83.89-3.51Z"/>
      <path d="M1422.22,1012.96v-9.1h-2.35v-.11l4.78-4.72h.11v3.02h5.43v.11l-1.57,1.97c-.81-.24-2.59-.32-3.86-.35v8.67c0,1.75.51,2.86,2.32,2.86.76,0,1.94-.32,2.56-1.19l.08.03-.49,2.43c-.51.22-1.4.49-2.83.49-2.62,0-4.18-1.11-4.18-4.1Z"/>
      <path d="M1432.07,1013.01v-13.71c0-1.67-.35-2.92-.97-3.51v-.11h6.56c6.96,0,12.28,3.27,12.28,10.12s-5.32,10.82-12.82,10.82h-6.02v-.11c.62-.59.97-1.83.97-3.51ZM1446.86,1006.24c-.03-5.07-2.75-8.58-9.93-8.58h-2.11v17h1.92c6.88,0,10.15-3.4,10.12-8.42Z"/>
      <path d="M1451.97,1009.34c0-4.86,3.62-7.72,7.75-7.72s7.72,2.86,7.72,7.72-3.64,7.72-7.72,7.72-7.75-2.86-7.75-7.72ZM1464.63,1009.31c-.11-3.37-2.13-5.94-5.13-5.94s-4.83,2.56-4.72,5.94c.13,3.37,2.16,5.99,5.18,5.99s4.8-2.62,4.67-5.99Z"/>
      <path d="M1469.98,1011.47v-5.62c0-1.4-.32-2.56-1.11-3.1v-.11l3.64-1.03v9.42c0,2.54.62,4.24,3.1,4.24,2.05,0,4.18-1.75,4.18-5.32v-4.1c0-1.4-.32-2.56-1.11-3.1v-.11l3.64-1.03v11.39c0,1.67.27,2.32.89,2.92v.11l-3.32,1.03v-2.7c-.67,1.38-2.7,2.7-4.99,2.7-3.27,0-4.94-1.75-4.94-5.59Z"/>
      <path d="M1487.8,1015.28l-1.13,1.35h-.76v-17.79c0-1.4-.32-2.56-1.11-3.1v-.11l3.64-1.03v9.58c.65-1.38,2.65-2.56,4.83-2.56,4.27,0,6.32,3.56,6.32,7.64,0,4.35-2.83,7.8-7.04,7.8-2.35,0-3.91-1.03-4.75-1.78ZM1496.79,1009.61c-.08-3.35-1.81-5.96-4.4-5.96s-4.16,2.62-4.1,5.96c.05,4.05,1.92,5.97,4.48,5.97s4.13-2.65,4.02-5.97Z"/>
      <path d="M1502.19,1013.01v-14.17c0-1.4-.32-2.56-1.11-3.1v-.11l3.64-1.03v18.41c0,1.67.27,2.92.89,3.51v.11h-4.32v-.11c.62-.59.89-1.83.89-3.51Z"/>
      <path d="M1507.18,1009.31c0-4.64,3.56-7.69,7.72-7.69,4.53,0,6.26,3.02,6.26,6.56h-11.17c-.03.19-.03.35-.03.54,0,3.89,2.51,6.59,6.24,6.59,2.08,0,3.81-.81,4.99-2.08l.11.05c-1.03,1.86-3,3.78-6.64,3.78-3.89,0-7.48-2.78-7.48-7.75ZM1518.14,1006.37c-.16-1.59-1.38-3-3.43-3-1.92,0-3.62,1.05-4.35,3h7.77Z"/>
      <path d="M1523.47,1013.01v-13.71c0-1.67-.35-2.92-.97-3.51v-.11h7.07c4.67,0,7.26,2.27,7.26,5.34,0,3.89-3.54,6.15-7.94,6.15h-2.67v5.83c0,1.67.35,2.92.97,3.51v.11h-4.7v-.11c.62-.59.97-1.83.97-3.51ZM1533.75,1001.3c-.05-2.11-1.48-3.72-4.48-3.72h-3.05v7.72h2.65c2.97,0,4.94-1.4,4.89-4Z"/>
      <path d="M1537.07,1013.01c0-2.94,1.97-3.94,4.86-4.91,1.7-.57,3.16-1.08,4.21-1.49-.08-1.86-.89-3.18-3.43-3.18-1.67,0-3.43.67-4.54,1.73l-.11-.05.4-2.59c1.16-.49,3.08-.89,4.72-.89,3.54,0,5.48,1.59,5.48,5.96v5.43c0,1.67.27,2.32.89,2.92v.11l-3.32,1.03v-1.89c-1.13,1.4-3.02,1.92-4.32,1.89-3-.05-4.86-1.67-4.86-4.05ZM1546.14,1012.15v-3.89l-2.43.97c-2.46.95-3.89,1.62-3.89,3.38s1.16,2.7,2.78,2.7c1.19,0,3.54-.92,3.54-3.16Z"/>
      <path d="M1552.08,1013.01v-7.15c0-1.4-.32-2.56-1.11-3.1v-.11l3.64-1.03v3c1.05-1.92,3.72-2.97,5.97-2.97v3.05h-.11c-.24-.22-.76-.62-1.92-.62-2.19,0-3.94,1.97-3.94,4.64v4.29c0,1.67.27,2.92.89,3.51v.11h-4.32v-.11c.62-.59.89-1.83.89-3.51Z"/>
      <path d="M1561.83,1009.31c0-4.64,3.56-7.69,7.72-7.69,4.53,0,6.26,3.02,6.26,6.56h-11.17c-.03.19-.03.35-.03.54,0,3.89,2.51,6.59,6.24,6.59,2.08,0,3.81-.81,4.99-2.08l.11.05c-1.03,1.86-3,3.78-6.64,3.78-3.89,0-7.48-2.78-7.48-7.75ZM1572.79,1006.37c-.16-1.59-1.38-3-3.43-3-1.92,0-3.62,1.05-4.35,3h7.77Z"/>
      <path d="M1578.22,1013.01v-7.15c0-1.4-.32-2.56-1.11-3.1v-.11l3.64-1.03v2.54c.67-1.3,2.73-2.54,5.02-2.54,3.27,0,4.94,1.75,4.94,5.59v5.8c0,1.67.27,2.92.89,3.51v.11h-4.32v-.11c.62-.59.89-1.83.89-3.51v-5.37c0-2.54-.62-4.24-3.1-4.24-2.05,0-4.32,1.75-4.32,5.32v4.29c0,1.67.27,2.92.89,3.51v.11h-4.32v-.11c.62-.59.89-1.83.89-3.51Z"/>
      <path d="M1433.02,1049.75v-10.45c0-1.67-.35-2.92-.97-3.51v-.11h4.7v.11c-.62.59-.97,1.84-.97,3.51v9.91c0,4.16,1.7,5.86,4.56,5.86,3.99,0,5.78-3.67,5.78-6.72v-9.04c0-1.67-.35-2.92-.97-3.51v-.11h4.7v.11c-.62.59-.97,1.84-.97,3.51v13.71c0,1.67.35,2.92.97,3.51v.11h-3.73c.19-.73.22-1.73.22-3.1-.67,1.51-2.83,3.54-6.34,3.54-3.94,0-6.96-2.05-6.96-7.31Z"/>
      <path d="M1458.53,1048.48v-1.38h-1.27c-1.67,0-3.27.08-4.05.46h-.11v-2.81h.11c.78.38,2.38.46,4.05.46h1.27v-1.38c0-1.67-.08-3.27-.46-4.05v-.11h3.02v.11c-.38.78-.46,2.38-.46,4.05v1.38h1.27c1.67,0,3.27-.08,4.05-.46h.11v2.81h-.11c-.78-.38-2.38-.46-4.05-.46h-1.27v1.38c0,1.67.08,3.27.46,4.05v.11h-3.02v-.11c.38-.78.46-2.38.46-4.05Z"/>
      <path d="M1478.62,1040.97c0-2.27-1.48-3.78-3.91-3.78s-4.48,1.54-5.86,3.48l-.08-.11c.62-1.86,2.51-5.32,7.18-5.32,4.18,0,5.91,2.67,5.91,5.4,0,5.51-7.58,12.44-9.26,14.09h4.83c2.94,0,4.59-.65,5.24-1.3l.08.05-.51,3.13h-14.31v-.11c3.02-2.83,10.69-9.72,10.69-15.55Z"/>
      <path d="M1486.21,1053.01v-13.71c0-1.67-.3-2.92-.84-3.51v-.11h12.01l.41,2.86-.11.03c-.81-.7-2.78-1-4.89-1h-3.83v6.75h3.54c1.27,0,2.7-.11,3.56-.7l.11.03v3.21l-.11.03c-.86-.59-2.29-.7-3.56-.7h-3.54v8.56h4.75c2.94,0,4.45-.38,5.1-1.03l.08.05-.38,2.86h-13.15v-.11c.54-.59.84-1.83.84-3.51Z"/>
      <path d="M1510.61,1040.97c0-2.27-1.48-3.78-3.91-3.78s-4.48,1.54-5.86,3.48l-.08-.11c.62-1.86,2.51-5.32,7.18-5.32,4.18,0,5.91,2.67,5.91,5.4,0,5.51-7.58,12.44-9.26,14.09h4.83c2.94,0,4.59-.65,5.24-1.3l.08.05-.51,3.13h-14.31v-.11c3.02-2.83,10.69-9.72,10.69-15.55Z"/>
      <path d="M1519.04,1056.79v-.11c5.99-.54,8.77-4.35,9.2-8.39-.73.92-2.48,2.13-5.1,2.13-3.78,0-6.83-3-6.83-7.56s3.05-7.61,7.42-7.61c4.91,0,7.91,3.51,7.91,9.45s-2.89,12.36-10.37,12.36c-1.05,0-1.94-.19-2.24-.27ZM1528.32,1042.81c0-3.4-1.86-5.61-4.67-5.61s-4.48,2.65-4.48,5.61c0,3.21,1.78,5.61,4.59,5.61s4.56-2.4,4.56-5.61Z"/>
    </g>
  </g>
  <g>
    <path d="M312.02,225.93c.87,13.52-3.49,40.56-7.41,48.41-20.06-16.57-30.53-60.19-33.58-85.49-3.05,13.52-8.72,44.05-17.01,53.65-13.52-18.32-25.3-74.15-26.61-104.68-.87,24.86-17.45,59.32-47.11,71.97,3.49-10.03,6.11-29.22,6.11-50.59,0-30.1-10.03-61.94-44.05-61.94-38.38,0-59.32,29.22-59.32,82,0,58.45,31.4,82,64.12,82s64.55-24.86,75.02-66.3l1.31.44c1.74,14.39,10.47,37.95,14.39,46.67-13.09,23.55-51.03,47.54-96.83,47.54-67.6,0-118.64-43.18-118.64-110.35s51.47-110.35,116.46-110.35c108.6,0,151.35,146.55,238.58,184.93-89.85-68.04-118.2-183.19-207.61-193.66l-.44-3.05s7.41-1.74,20.94-1.74c39.69,0,86.36,7.85,123.87,33.15-6.54,6.11-29.66,15.27-46.23,17.01,22.68,3.05,61.93,16.14,78.95,34.46-7.41,6.11-29.22,10.9-38.38,11.78,20.06,3.49,47.54,11.78,60.19,23.99-5.23,6.54-23.55,11.78-34.46,12.65,41.87,2.18,59.32,17.45,59.32,17.45-10.47,10.47-27.91,15.27-27.91,15.27,29.66,3.93,49.72,17.88,49.72,17.88-7.41,6.54-22.24,9.16-22.24,9.16,14.83,5.67,27.04,11.78,38.82,25.3-5.67,2.18-15.27,4.36-26.61,4.36-17.45,0-33.15-2.18-46.67-14.39,1.31,9.16.87,20.5-2.18,28.35-20.06-10.9-38.38-45.8-44.49-65.86ZM382.68,108.17c-15.7,0-27.91,6.54-35.77,16.57-5.67-4.8-19.63-13.09-32.28-17.45,13.96-23.99,34.46-38.38,59.75-38.38,34.02,0,54.52,28.35,50.16,65.86l-2.18.87c-4.8-11.34-16.14-27.48-39.69-27.48Z"/>
    <path d="M711.1,190.17c3.93,49.29,29.66,91.59,57.57,120.82v1.74c-16.14-1.74-41.87-10.47-54.96-18.32-6.54,7.41-21.37,35.77-23.55,43.18h-1.74c-2.18-7.41-17.01-35.77-23.55-43.18-13.09,7.85-39.25,16.57-55.39,18.32v-1.74c28.35-29.22,53.65-71.09,57.57-120.82-50.16,3.49-92.9,29.66-122.56,58.01h-1.74c1.74-16.14,10.47-42.31,18.32-55.39-7.41-6.54-35.76-20.94-43.18-23.12v-1.74c7.41-2.18,35.77-17.45,43.18-23.99-7.85-13.08-16.57-38.82-18.32-54.96h1.74c29.66,28.79,71.97,54.52,122.56,58.01-3.93-49.29-29.22-91.16-57.57-120.38v-1.74c16.14,1.74,42.31,10.47,55.39,18.32,6.54-7.41,21.37-35.77,23.55-43.18h1.74c2.18,7.41,17.01,35.77,23.55,43.18,13.09-7.85,38.82-16.57,54.96-18.32v1.74c-27.91,29.22-53.65,71.09-57.57,120.38,51.03-3.49,93.34-29.22,123-58.01h1.74c-1.74,16.14-10.47,41.87-18.32,54.96,7.41,6.54,35.77,21.81,43.18,23.99v1.74c-7.41,2.18-35.77,16.57-43.18,23.12,7.85,13.08,16.57,39.25,18.32,55.39h-1.74c-29.66-28.35-71.97-54.52-123-58.01Z"/>
    <path d="M1448.62,287.21c0-38.5,26.8-71.15,31.68-108.67-28.75,5.85-76.02,30.21-108.18,30.21-24.37,0-41.42-16.57-41.42-39.96s17.06-39.96,41.42-39.96c31.68,0,80.89,24.37,108.18,29.73-4.87-36.55-31.68-69.69-31.68-108.18,0-24.37,17.06-42.88,40.45-42.88,25.34,0,41.91,18.52,41.91,42.88,0,38.5-26.8,71.63-31.19,108.67,28.75-5.85,76.02-30.21,108.18-30.21,24.37,0,41.42,16.57,41.42,39.96s-17.06,39.96-41.42,39.96c-31.68,0-79.92-24.37-108.18-30.21,4.39,37.52,31.19,70.17,31.19,108.67,0,24.37-16.57,42.88-41.91,42.88-23.39,0-40.45-18.52-40.45-42.88Z"/>
    <path d="M935.45,172.28v-6.98c68.04-36.64,122.13-91.16,157.02-157.02h6.98c36.64,68.04,91.16,122.13,157.02,157.02v6.98c-67.17,36.2-120.82,89.85-157.02,157.02h-6.98c-35.77-67.17-89.85-121.25-157.02-157.02ZM1095.96,317.53c35.33-62.81,88.11-115.15,148.73-148.73-62.81-35.33-115.15-88.1-148.73-148.73-35.33,62.81-88.1,115.15-148.73,148.73,62.81,35.33,115.15,88.11,148.73,148.73ZM993.02,169.23v-.87c42.74-23.99,79.38-59.75,102.5-102.93h.87c23.12,43.18,59.75,78.95,102.5,102.93v.87c-42.74,23.12-79.38,58.88-102.5,102.5h-.87c-23.12-43.62-59.75-79.38-102.5-102.5Z"/>
    <g>
      <path d="M76.9,427.24v-7.15c0-1.4-.32-2.56-1.11-3.1v-.11l3.64-1.03v3c1.05-1.92,3.72-2.97,5.97-2.97v3.05h-.11c-.24-.22-.76-.62-1.92-.62-2.19,0-3.94,1.97-3.94,4.64v4.29c0,1.67.27,2.92.89,3.51v.11h-4.32v-.11c.62-.59.89-1.83.89-3.51Z"/>
      <path d="M86.65,423.57c0-4.86,3.62-7.72,7.75-7.72s7.72,2.86,7.72,7.72-3.64,7.72-7.72,7.72-7.75-2.86-7.75-7.72ZM99.31,423.54c-.11-3.37-2.13-5.94-5.13-5.94s-4.83,2.56-4.72,5.94c.13,3.37,2.16,5.99,5.18,5.99s4.8-2.62,4.67-5.99Z"/>
      <path d="M105.22,427.19v-9.1h-2.35v-.11l4.78-4.72h.11v3.02h5.43v.11l-1.57,1.97c-.81-.24-2.59-.32-3.86-.35v8.67c0,1.75.51,2.86,2.32,2.86.76,0,1.94-.32,2.56-1.19l.08.03-.49,2.43c-.51.22-1.4.49-2.83.49-2.62,0-4.18-1.11-4.18-4.1Z"/>
      <path d="M113.81,427.24c0-2.94,1.97-3.94,4.86-4.91,1.7-.57,3.16-1.08,4.21-1.49-.08-1.86-.89-3.18-3.43-3.18-1.67,0-3.43.67-4.54,1.73l-.11-.05.4-2.59c1.16-.49,3.08-.89,4.72-.89,3.54,0,5.48,1.59,5.48,5.96v5.43c0,1.67.27,2.32.89,2.92v.11l-3.32,1.03v-1.89c-1.13,1.4-3.02,1.92-4.32,1.89-3-.05-4.86-1.67-4.86-4.05ZM122.88,426.38v-3.89l-2.43.97c-2.46.95-3.89,1.62-3.89,3.38s1.16,2.7,2.78,2.7c1.19,0,3.54-.92,3.54-3.16Z"/>
      <path d="M129.28,427.19v-9.1h-2.35v-.11l4.78-4.72h.11v3.02h5.43v.11l-1.57,1.97c-.81-.24-2.59-.32-3.86-.35v8.67c0,1.75.51,2.86,2.32,2.86.76,0,1.94-.32,2.56-1.19l.08.03-.49,2.43c-.51.22-1.4.49-2.83.49-2.62,0-4.18-1.11-4.18-4.1Z"/>
      <path d="M137.25,423.54c0-4.64,3.56-7.69,7.72-7.69,4.53,0,6.26,3.02,6.26,6.56h-11.17c-.03.19-.03.35-.03.54,0,3.89,2.51,6.59,6.24,6.59,2.08,0,3.81-.81,4.99-2.08l.11.05c-1.03,1.86-3,3.78-6.64,3.78-3.89,0-7.48-2.78-7.48-7.75ZM148.21,420.6c-.16-1.59-1.38-3-3.43-3-1.92,0-3.62,1.05-4.35,3h7.77Z"/>
      <path d="M152.91,423.65c0-4.35,2.86-7.8,7.07-7.8,2.24,0,3.67,1.05,4.13,1.81v-4.59c0-1.4-.32-2.56-1.11-3.1v-.11l3.64-1.03v18.41c0,1.67.27,2.32.89,2.92v.11l-3.35,1.03v-2.56c-.65,1.38-2.54,2.56-4.72,2.56-4.26,0-6.56-3.56-6.56-7.64ZM164.35,423.57c-.05-3.32-1.92-5.97-4.48-5.97s-4.26,2.65-4.16,5.97c.08,3.35,1.94,5.97,4.53,5.97s4.24-2.62,4.1-5.97Z"/>
      <path d="M170.89,427.24v-13.71c0-1.67-.35-2.92-.97-3.51v-.11h11.96l.4,2.86-.11.03c-.81-.7-2.78-1-4.89-1h-3.64v7.15h3c1.27,0,2.7-.11,3.56-.7l.11.03v3.21l-.11.03c-.86-.59-2.29-.7-3.56-.7h-3v6.42c0,1.67.35,2.92.97,3.51v.11h-4.7v-.11c.62-.59.97-1.83.97-3.51Z"/>
      <path d="M185.17,427.24v-14.17c0-1.4-.32-2.56-1.11-3.1v-.11l3.64-1.03v18.41c0,1.67.27,2.92.89,3.51v.11h-4.32v-.11c.62-.59.89-1.83.89-3.51Z"/>
      <path d="M190.17,423.57c0-4.86,3.62-7.72,7.75-7.72s7.72,2.86,7.72,7.72-3.64,7.72-7.72,7.72-7.75-2.86-7.75-7.72ZM202.83,423.54c-.11-3.37-2.13-5.94-5.13-5.94s-4.83,2.56-4.72,5.94c.13,3.37,2.16,5.99,5.18,5.99s4.8-2.62,4.67-5.99Z"/>
      <path d="M207.96,427.24v-7.15c0-1.4-.32-2.56-1.11-3.1v-.11l3.64-1.03v3c1.05-1.92,3.72-2.97,5.97-2.97v3.05h-.11c-.24-.22-.76-.62-1.92-.62-2.19,0-3.94,1.97-3.94,4.64v4.29c0,1.67.27,2.92.89,3.51v.11h-4.32v-.11c.62-.59.89-1.83.89-3.51Z"/>
      <path d="M217.3,427.24c0-2.94,1.97-3.94,4.86-4.91,1.7-.57,3.16-1.08,4.21-1.49-.08-1.86-.89-3.18-3.43-3.18-1.67,0-3.43.67-4.54,1.73l-.11-.05.4-2.59c1.16-.49,3.08-.89,4.72-.89,3.54,0,5.48,1.59,5.48,5.96v5.43c0,1.67.27,2.32.89,2.92v.11l-3.32,1.03v-1.89c-1.13,1.4-3.02,1.92-4.32,1.89-3-.05-4.86-1.67-4.86-4.05ZM226.37,426.38v-3.89l-2.43.97c-2.46.95-3.89,1.62-3.89,3.38s1.16,2.7,2.78,2.7c1.19,0,3.54-.92,3.54-3.16Z"/>
      <path d="M232.23,427.24v-14.17c0-1.4-.32-2.56-1.11-3.1v-.11l3.64-1.03v18.41c0,1.67.27,2.92.89,3.51v.11h-4.32v-.11c.62-.59.89-1.83.89-3.51Z"/>
      <path d="M239.04,427.24v-13.71c0-1.67-.35-2.92-.97-3.51v-.11h4.7v.11c-.62.59-.97,1.84-.97,3.51v5.13h10.53v-5.13c0-1.67-.35-2.92-.97-3.51v-.11h4.7v.11c-.62.59-.97,1.84-.97,3.51v13.71c0,1.67.35,2.92.97,3.51v.11h-4.7v-.11c.62-.59.97-1.83.97-3.51v-6.56h-10.53v6.56c0,1.67.35,2.92.97,3.51v.11h-4.7v-.11c.62-.59.97-1.83.97-3.51Z"/>
      <path d="M257.72,423.54c0-4.64,3.56-7.69,7.72-7.69,4.53,0,6.26,3.02,6.26,6.56h-11.17c-.03.19-.03.35-.03.54,0,3.89,2.51,6.59,6.24,6.59,2.08,0,3.81-.81,4.99-2.08l.11.05c-1.03,1.86-3,3.78-6.64,3.78-3.89,0-7.48-2.78-7.48-7.75ZM268.68,420.6c-.16-1.59-1.38-3-3.43-3-1.92,0-3.62,1.05-4.35,3h7.77Z"/>
      <path d="M273.22,427.24c0-2.94,1.97-3.94,4.86-4.91,1.7-.57,3.16-1.08,4.21-1.49-.08-1.86-.89-3.18-3.43-3.18-1.67,0-3.43.67-4.54,1.73l-.11-.05.4-2.59c1.16-.49,3.08-.89,4.72-.89,3.54,0,5.48,1.59,5.48,5.96v5.43c0,1.67.27,2.32.89,2.92v.11l-3.32,1.03v-1.89c-1.13,1.4-3.02,1.92-4.32,1.89-3-.05-4.86-1.67-4.86-4.05ZM282.29,426.38v-3.89l-2.43.97c-2.46.95-3.89,1.62-3.89,3.38s1.16,2.7,2.78,2.7c1.19,0,3.54-.92,3.54-3.16Z"/>
      <path d="M288.23,427.24v-7.15c0-1.4-.32-2.56-1.11-3.1v-.11l3.64-1.03v3c1.05-1.92,3.72-2.97,5.97-2.97v3.05h-.11c-.24-.22-.76-.62-1.92-.62-2.19,0-3.94,1.97-3.94,4.64v4.29c0,1.67.27,2.92.89,3.51v.11h-4.32v-.11c.62-.59.89-1.83.89-3.51Z"/>
      <path d="M299.87,427.19v-9.1h-2.35v-.11l4.78-4.72h.11v3.02h5.43v.11l-1.57,1.97c-.81-.24-2.59-.32-3.86-.35v8.67c0,1.75.51,2.86,2.32,2.86.76,0,1.94-.32,2.56-1.19l.08.03-.49,2.43c-.51.22-1.4.49-2.83.49-2.62,0-4.18-1.11-4.18-4.1Z"/>
      <path d="M309.59,427.24v-13.71c0-1.67-.3-2.92-.84-3.51v-.11h6.48c5.24,0,7.4,1.7,7.4,4.78,0,2.29-1.13,3.94-3.29,4.89,2.86.78,4.48,2.48,4.48,5.05,0,3.89-2.81,6.24-8.29,6.24h-6.78v-.11c.54-.59.84-1.83.84-3.51ZM319.55,415.09c-.05-2.08-1.32-3.29-4.16-3.29h-3.05v7.1h1.38c4.29,0,5.88-1.21,5.83-3.81ZM320.74,424.84c-.05-2.67-1.81-4.13-5.75-4.13h-2.65v8.26h3c3.54,0,5.45-1.19,5.4-4.13Z"/>
      <path d="M326.73,425.7v-5.62c0-1.4-.32-2.56-1.11-3.1v-.11l3.64-1.03v9.42c0,2.54.62,4.24,3.1,4.24,2.05,0,4.18-1.75,4.18-5.32v-4.1c0-1.4-.32-2.56-1.11-3.1v-.11l3.64-1.03v11.39c0,1.67.27,2.32.89,2.92v.11l-3.32,1.03v-2.7c-.67,1.38-2.7,2.7-4.99,2.7-3.27,0-4.94-1.75-4.94-5.59Z"/>
      <path d="M342.74,427.24v-14.17c0-1.4-.32-2.56-1.11-3.1v-.11l3.64-1.03v18.41c0,1.67.27,2.92.89,3.51v.11h-4.32v-.11c.62-.59.89-1.83.89-3.51Z"/>
      <path d="M349.25,427.24v-14.17c0-1.4-.32-2.56-1.11-3.1v-.11l3.64-1.03v18.41c0,1.67.27,2.92.89,3.51v.11h-4.32v-.11c.62-.59.89-1.83.89-3.51Z"/>
      <path d="M354.25,423.54c0-4.64,3.56-7.69,7.72-7.69,4.53,0,6.26,3.02,6.26,6.56h-11.17c-.03.19-.03.35-.03.54,0,3.89,2.51,6.59,6.24,6.59,2.08,0,3.81-.81,4.99-2.08l.11.05c-1.03,1.86-3,3.78-6.64,3.78-3.89,0-7.48-2.78-7.48-7.75ZM365.21,420.6c-.16-1.59-1.38-3-3.43-3-1.92,0-3.62,1.05-4.35,3h7.77Z"/>
      <path d="M371.42,427.19v-9.1h-2.35v-.11l4.78-4.72h.11v3.02h5.43v.11l-1.57,1.97c-.81-.24-2.59-.32-3.86-.35v8.67c0,1.75.51,2.86,2.32,2.86.76,0,1.94-.32,2.56-1.19l.08.03-.49,2.43c-.51.22-1.4.49-2.83.49-2.62,0-4.18-1.11-4.18-4.1Z"/>
      <path d="M180.6,463.97v-10.45c0-1.67-.35-2.92-.97-3.51v-.11h4.7v.11c-.62.59-.97,1.84-.97,3.51v9.91c0,4.16,1.7,5.86,4.56,5.86,3.99,0,5.78-3.67,5.78-6.72v-9.04c0-1.67-.35-2.92-.97-3.51v-.11h4.7v.11c-.62.59-.97,1.84-.97,3.51v13.71c0,1.67.35,2.92.97,3.51v.11h-3.73c.19-.73.22-1.73.22-3.1-.67,1.51-2.83,3.54-6.34,3.54-3.94,0-6.96-2.05-6.96-7.31Z"/>
      <path d="M206.11,462.71v-1.38h-1.27c-1.67,0-3.27.08-4.05.46h-.11v-2.81h.11c.78.38,2.38.46,4.05.46h1.27v-1.38c0-1.67-.08-3.27-.46-4.05v-.11h3.02v.11c-.38.78-.46,2.38-.46,4.05v1.38h1.27c1.67,0,3.27-.08,4.05-.46h.11v2.81h-.11c-.78-.38-2.38-.46-4.05-.46h-1.27v1.38c0,1.67.08,3.27.46,4.05v.11h-3.02v-.11c.38-.78.46-2.38.46-4.05Z"/>
      <path d="M226.2,455.2c0-2.27-1.48-3.78-3.91-3.78s-4.48,1.54-5.86,3.48l-.08-.11c.62-1.86,2.51-5.32,7.18-5.32,4.18,0,5.91,2.67,5.91,5.4,0,5.51-7.58,12.44-9.26,14.09h4.83c2.94,0,4.59-.65,5.24-1.3l.08.05-.51,3.13h-14.31v-.11c3.02-2.83,10.69-9.72,10.69-15.55Z"/>
      <path d="M235.73,466.65l6.8-14.85h-5.88c-2.11,0-4.08.3-4.89,1l-.11-.03.4-2.86h14.12v.11l-7.61,16.74c-.51,1.13-1.11,2.97-.84,4.1h-4.45v-.11c.65-.65,1.38-1.73,2.46-4.1Z"/>
      <path d="M245.94,461.63c0-5.7,3.02-12.15,10.5-12.15,1.05,0,1.94.19,2.24.27v.11c-5.99.54-9.15,4.35-9.58,8.39.73-.92,2.59-2.13,5.21-2.13,3.78,0,6.83,2.73,6.83,7.29s-3.05,7.88-7.42,7.88c-4.8,0-7.77-3.72-7.77-9.66ZM258.3,463.73c0-3.21-1.86-5.61-4.67-5.61s-4.53,2.29-4.53,5.51c0,3.4,1.84,5.72,4.64,5.72s4.56-2.65,4.56-5.61Z"/>
      <path d="M265.43,466.65l6.8-14.85h-5.88c-2.11,0-4.08.3-4.89,1l-.11-.03.4-2.86h14.12v.11l-7.61,16.74c-.51,1.13-1.11,2.97-.84,4.1h-4.45v-.11c.65-.65,1.38-1.73,2.46-4.1Z"/>
    </g>
    <g>
      <path d="M580.33,432.64v-12.55c0-1.4-.32-2.56-1.11-3.1v-.11l3.64-1.03v2.56c.76-1.27,2.65-2.56,4.83-2.56,4.27,0,6.45,3.56,6.45,7.64,0,4.35-2.86,7.8-7.07,7.8-2.02,0-3.54-.94-4.21-1.83v3.18c0,1.67.27,2.92.89,3.51v.11h-4.32v-.11c.62-.59.89-1.84.89-3.51ZM591.35,424.14c0-3.13-1.46-6.4-4.48-6.4-2.54,0-4.16,2.48-4.16,5.64s1.59,6.29,4.53,6.29c2.46,0,4.1-2.4,4.1-5.53Z"/>
      <path d="M597.07,425.7v-5.62c0-1.4-.32-2.56-1.11-3.1v-.11l3.64-1.03v9.42c0,2.54.62,4.24,3.1,4.24,2.05,0,4.18-1.75,4.18-5.32v-4.1c0-1.4-.32-2.56-1.11-3.1v-.11l3.64-1.03v11.39c0,1.67.27,2.32.89,2.92v.11l-3.32,1.03v-2.7c-.67,1.38-2.7,2.7-4.99,2.7-3.27,0-4.94-1.75-4.94-5.59Z"/>
      <path d="M613.16,427.24v-7.15c0-1.4-.32-2.56-1.11-3.1v-.11l3.64-1.03v2.54c.67-1.3,2.73-2.54,5.02-2.54,3.27,0,4.94,1.75,4.94,5.59v5.8c0,1.67.27,2.92.89,3.51v.11h-4.32v-.11c.62-.59.89-1.83.89-3.51v-5.37c0-2.54-.62-4.24-3.1-4.24-2.05,0-4.32,1.75-4.32,5.32v4.29c0,1.67.27,2.92.89,3.51v.11h-4.32v-.11c.62-.59.89-1.83.89-3.51Z"/>
      <path d="M627.88,423.54c0-4.64,3.83-7.69,8.26-7.69,2.05,0,3.27.35,4.13.81l.32,2.67-.11.05c-.86-1-2.35-1.78-4.62-1.78-2.7,0-5.21,1.75-5.21,5.34,0,3.89,2.51,6.59,6.24,6.59,2.08,0,3.43-.73,4.62-2.08l.11.05c-.94,1.86-2.62,3.78-6.26,3.78-3.89,0-7.48-2.78-7.48-7.75Z"/>
      <path d="M644.35,427.19v-9.1h-2.35v-.11l4.78-4.72h.11v3.02h5.43v.11l-1.57,1.97c-.81-.24-2.59-.32-3.86-.35v8.67c0,1.75.51,2.86,2.32,2.86.76,0,1.94-.32,2.56-1.19l.08.03-.49,2.43c-.51.22-1.4.49-2.83.49-2.62,0-4.18-1.11-4.18-4.1Z"/>
      <path d="M653.42,420.49c0-6.91,5.05-11.01,11.5-11.01,2.43,0,4.72.59,5.61,1.08l.46,3.16-.11.05c-1.32-1.38-3.27-2.38-6.05-2.35-4.75,0-8.34,3.59-8.34,8.5,0,5.26,3.27,9.42,8.93,9.42,2.94,0,5.1-1.21,6.34-2.89l.11.03-.78,3.43c-1.03.67-3.21,1.38-5.91,1.38-6.07,0-11.77-3.72-11.77-10.8Z"/>
      <path d="M674.21,427.24v-7.15c0-1.4-.32-2.56-1.11-3.1v-.11l3.64-1.03v3c1.05-1.92,3.72-2.97,5.97-2.97v3.05h-.11c-.24-.22-.76-.62-1.92-.62-2.19,0-3.94,1.97-3.94,4.64v4.29c0,1.67.27,2.92.89,3.51v.11h-4.32v-.11c.62-.59.89-1.83.89-3.51Z"/>
      <path d="M683.96,423.57c0-4.86,3.62-7.72,7.75-7.72s7.72,2.86,7.72,7.72-3.64,7.72-7.72,7.72-7.75-2.86-7.75-7.72ZM696.62,423.54c-.11-3.37-2.13-5.94-5.13-5.94s-4.83,2.56-4.72,5.94c.13,3.37,2.16,5.99,5.18,5.99s4.8-2.62,4.67-5.99Z"/>
      <path d="M701.64,430.13l-.38-2.83.11-.05c1.19,1.65,3,2.29,4.78,2.29,1.59,0,2.89-.67,2.89-1.94,0-1.08-.7-1.78-2.62-2.78l-1.65-.86c-2.38-1.24-3.21-2.46-3.21-4.24,0-1.97,1.94-3.86,5.21-3.86,1.62,0,2.65.32,3.51.73l.32,2.56-.08.05c-.59-.78-2.08-1.59-3.99-1.59-1.46,0-2.56.65-2.56,1.62,0,1.05.49,1.48,2.21,2.38l1.84.95c2.32,1.19,3.56,2.4,3.56,4.32,0,2.89-2.48,4.43-5.48,4.43-1.51,0-3.4-.32-4.45-1.16Z"/>
      <path d="M713.55,430.13l-.38-2.83.11-.05c1.19,1.65,3,2.29,4.78,2.29,1.59,0,2.89-.67,2.89-1.94,0-1.08-.7-1.78-2.62-2.78l-1.65-.86c-2.38-1.24-3.21-2.46-3.21-4.24,0-1.97,1.94-3.86,5.21-3.86,1.62,0,2.65.32,3.51.73l.32,2.56-.08.05c-.59-.78-2.08-1.59-3.99-1.59-1.46,0-2.56.65-2.56,1.62,0,1.05.49,1.48,2.21,2.38l1.84.95c2.32,1.19,3.56,2.4,3.56,4.32,0,2.89-2.48,4.43-5.48,4.43-1.51,0-3.4-.32-4.45-1.16Z"/>
      <path d="M725.56,422.09h.11c.78.38,2.38.46,4.05.46h1.43c1.67,0,3.27-.08,4.05-.46h.11v2.97h-.11c-.78-.38-2.38-.46-4.05-.46h-1.43c-1.67,0-3.27.08-4.05.46h-.11v-2.97Z"/>
      <path d="M738.15,427.24v-7.15c0-1.4-.32-2.56-1.11-3.1v-.11l3.64-1.03v3c1.05-1.92,3.72-2.97,5.97-2.97v3.05h-.11c-.24-.22-.76-.62-1.92-.62-2.19,0-3.94,1.97-3.94,4.64v4.29c0,1.67.27,2.92.89,3.51v.11h-4.32v-.11c.62-.59.89-1.83.89-3.51Z"/>
      <path d="M749.16,425.7v-5.62c0-1.4-.32-2.56-1.11-3.1v-.11l3.64-1.03v9.42c0,2.54.62,4.24,3.1,4.24,2.05,0,4.18-1.75,4.18-5.32v-4.1c0-1.4-.32-2.56-1.11-3.1v-.11l3.64-1.03v11.39c0,1.67.27,2.32.89,2.92v.11l-3.32,1.03v-2.7c-.67,1.38-2.7,2.7-4.99,2.7-3.27,0-4.94-1.75-4.94-5.59Z"/>
      <path d="M765.25,427.24v-7.15c0-1.4-.32-2.56-1.11-3.1v-.11l3.64-1.03v2.54c.67-1.3,2.73-2.54,5.02-2.54,3.27,0,4.94,1.75,4.94,5.59v5.8c0,1.67.27,2.92.89,3.51v.11h-4.32v-.11c.62-.59.89-1.83.89-3.51v-5.37c0-2.54-.62-4.24-3.1-4.24-2.05,0-4.32,1.75-4.32,5.32v4.29c0,1.67.27,2.92.89,3.51v.11h-4.32v-.11c.62-.59.89-1.83.89-3.51Z"/>
      <path d="M781.21,427.24v-7.15c0-1.4-.32-2.56-1.11-3.1v-.11l3.64-1.03v11.39c0,1.67.27,2.92.89,3.51v.11h-4.32v-.11c.62-.59.89-1.83.89-3.51ZM780.48,411.75c0-1.13.86-1.78,1.84-1.78s1.86.65,1.86,1.78-.89,1.81-1.86,1.81-1.84-.67-1.84-1.81Z"/>
      <path d="M786.26,423.54c0-4.64,3.83-7.69,8.26-7.69,2.05,0,3.27.35,4.13.81l.32,2.67-.11.05c-.86-1-2.35-1.78-4.62-1.78-2.7,0-5.21,1.75-5.21,5.34,0,3.89,2.51,6.59,6.24,6.59,2.08,0,3.43-.73,4.62-2.08l.11.05c-.94,1.86-2.62,3.78-6.26,3.78-3.89,0-7.48-2.78-7.48-7.75Z"/>
      <path d="M642.34,463.97v-10.45c0-1.67-.35-2.92-.97-3.51v-.11h4.7v.11c-.62.59-.97,1.84-.97,3.51v9.91c0,4.16,1.7,5.86,4.56,5.86,3.99,0,5.78-3.67,5.78-6.72v-9.04c0-1.67-.35-2.92-.97-3.51v-.11h4.7v.11c-.62.59-.97,1.84-.97,3.51v13.71c0,1.67.35,2.92.97,3.51v.11h-3.73c.19-.73.22-1.73.22-3.1-.67,1.51-2.83,3.54-6.34,3.54-3.94,0-6.96-2.05-6.96-7.31Z"/>
      <path d="M667.85,462.71v-1.38h-1.27c-1.67,0-3.27.08-4.05.46h-.11v-2.81h.11c.78.38,2.38.46,4.05.46h1.27v-1.38c0-1.67-.08-3.27-.46-4.05v-.11h3.02v.11c-.38.78-.46,2.38-.46,4.05v1.38h1.27c1.67,0,3.27-.08,4.05-.46h.11v2.81h-.11c-.78-.38-2.38-.46-4.05-.46h-1.27v1.38c0,1.67.08,3.27.46,4.05v.11h-3.02v-.11c.38-.78.46-2.38.46-4.05Z"/>
      <path d="M679.79,467.24v-13.6c0-1.46-.3-1.89-1.54-2.46v-.11l4.29-1.59v17.76c0,1.67.38,2.92,1,3.51v.11h-4.75v-.11c.62-.59,1-1.83,1-3.51Z"/>
      <path d="M685.81,461.63c0-5.7,3.02-12.15,10.5-12.15,1.05,0,1.94.19,2.24.27v.11c-5.99.54-9.15,4.35-9.58,8.39.73-.92,2.59-2.13,5.21-2.13,3.78,0,6.83,2.73,6.83,7.29s-3.05,7.88-7.42,7.88c-4.8,0-7.77-3.72-7.77-9.66ZM698.17,463.73c0-3.21-1.86-5.61-4.67-5.61s-4.53,2.29-4.53,5.51c0,3.4,1.84,5.72,4.64,5.72s4.56-2.65,4.56-5.61Z"/>
      <path d="M704.17,467.24v-13.71c0-1.67-.3-2.92-.84-3.51v-.11h12.01l.41,2.86-.11.03c-.81-.7-2.78-1-4.89-1h-3.83v6.75h3.54c1.27,0,2.7-.11,3.56-.7l.11.03v3.21l-.11.03c-.86-.59-2.29-.7-3.56-.7h-3.54v8.56h4.75c2.94,0,4.45-.38,5.1-1.03l.08.05-.38,2.86h-13.15v-.11c.54-.59.84-1.83.84-3.51Z"/>
      <path d="M719.83,467.24v-13.71c0-1.67-.35-2.92-.97-3.51v-.11h6.56c6.96,0,12.28,3.27,12.28,10.12s-5.32,10.82-12.82,10.82h-6.02v-.11c.62-.59.97-1.83.97-3.51ZM734.62,460.46c-.03-5.07-2.75-8.58-9.93-8.58h-2.11v17h1.92c6.88,0,10.15-3.4,10.12-8.42Z"/>
    </g>
    <g>
      <path d="M968.76,416.39v-.11h3.91c0,.57.13,1.43.62,2.83l2.43,7.07,2.51-7.07c.49-1.38.65-2.27.65-2.83h3.05v.11c-.3.24-.94,1.05-1.43,2.29l-5.05,12.88h-.08l-3.62-8.96-3.67,8.96h-.08l-5.72-12.88c-.38-.86-1.13-2.05-1.43-2.29v-.11h3.99c0,.57.05,1.43.62,2.83l2.92,7.32,2.43-6.21-.62-1.54c-.35-.86-1.13-2.05-1.43-2.29Z"/>
      <path d="M983.45,427.24v-14.17c0-1.4-.32-2.56-1.11-3.1v-.11l3.64-1.03v9.56c.67-1.3,2.73-2.54,5.02-2.54,3.27,0,4.94,2.02,4.94,5.86v5.53c0,1.67.27,2.92.89,3.51v.11h-4.32v-.11c.62-.59.89-1.83.89-3.51v-5.1c0-2.54-.62-4.24-3.1-4.24-2.05,0-4.32,1.49-4.32,5.05v4.29c0,1.67.27,2.92.89,3.51v.11h-4.32v-.11c.62-.59.89-1.83.89-3.51Z"/>
      <path d="M999.4,427.24v-7.15c0-1.4-.32-2.56-1.11-3.1v-.11l3.64-1.03v11.39c0,1.67.27,2.92.89,3.51v.11h-4.32v-.11c.62-.59.89-1.83.89-3.51ZM998.68,411.75c0-1.13.86-1.78,1.84-1.78s1.86.65,1.86,1.78-.89,1.81-1.86,1.81-1.84-.67-1.84-1.81Z"/>
      <path d="M1005.97,427.19v-9.1h-2.35v-.11l4.78-4.72h.11v3.02h5.43v.11l-1.57,1.97c-.81-.24-2.59-.32-3.86-.35v8.67c0,1.75.51,2.86,2.32,2.86.76,0,1.94-.32,2.56-1.19l.08.03-.49,2.43c-.51.22-1.4.49-2.83.49-2.62,0-4.18-1.11-4.18-4.1Z"/>
      <path d="M1013.93,423.54c0-4.64,3.56-7.69,7.72-7.69,4.53,0,6.26,3.02,6.26,6.56h-11.17c-.03.19-.03.35-.03.54,0,3.89,2.51,6.59,6.24,6.59,2.08,0,3.81-.81,4.99-2.08l.11.05c-1.03,1.86-3,3.78-6.64,3.78-3.89,0-7.48-2.78-7.48-7.75ZM1024.89,420.6c-.16-1.59-1.38-3-3.43-3-1.92,0-3.62,1.05-4.35,3h7.77Z"/>
      <path d="M1030.21,427.24v-13.71c0-1.67-.35-2.92-.97-3.51v-.11h11.96l.4,2.86-.11.03c-.81-.7-2.78-1-4.89-1h-3.64v7.15h3c1.27,0,2.7-.11,3.56-.7l.11.03v3.21l-.11.03c-.86-.59-2.29-.7-3.56-.7h-3v6.42c0,1.67.35,2.92.97,3.51v.11h-4.7v-.11c.62-.59.97-1.83.97-3.51Z"/>
      <path d="M1042.36,423.57c0-4.86,3.62-7.72,7.75-7.72s7.72,2.86,7.72,7.72-3.64,7.72-7.72,7.72-7.75-2.86-7.75-7.72ZM1055.02,423.54c-.11-3.37-2.13-5.94-5.13-5.94s-4.83,2.56-4.72,5.94c.13,3.37,2.16,5.99,5.18,5.99s4.8-2.62,4.67-5.99Z"/>
      <path d="M1060.37,425.7v-5.62c0-1.4-.32-2.56-1.11-3.1v-.11l3.64-1.03v9.42c0,2.54.62,4.24,3.1,4.24,2.05,0,4.18-1.75,4.18-5.32v-4.1c0-1.4-.32-2.56-1.11-3.1v-.11l3.64-1.03v11.39c0,1.67.27,2.32.89,2.92v.11l-3.32,1.03v-2.7c-.67,1.38-2.7,2.7-4.99,2.7-3.27,0-4.94-1.75-4.94-5.59Z"/>
      <path d="M1076.46,427.24v-7.15c0-1.4-.32-2.56-1.11-3.1v-.11l3.64-1.03v3c1.05-1.92,3.72-2.97,5.97-2.97v3.05h-.11c-.24-.22-.76-.62-1.92-.62-2.19,0-3.94,1.97-3.94,4.64v4.29c0,1.67.27,2.92.89,3.51v.11h-4.32v-.11c.62-.59.89-1.83.89-3.51Z"/>
      <path d="M1087.02,427.24v-13.71c0-1.67-.35-2.92-.97-3.51v-.11h7.07c4.67,0,7.26,2.27,7.26,5.34,0,3.89-3.54,6.15-7.94,6.15h-2.67v5.83c0,1.67.35,2.92.97,3.51v.11h-4.7v-.11c.62-.59.97-1.83.97-3.51ZM1097.3,415.53c-.05-2.11-1.48-3.72-4.48-3.72h-3.05v7.72h2.65c2.97,0,4.94-1.4,4.89-4Z"/>
      <path d="M1100.49,423.57c0-4.86,3.62-7.72,7.75-7.72s7.72,2.86,7.72,7.72-3.64,7.72-7.72,7.72-7.75-2.86-7.75-7.72ZM1113.15,423.54c-.11-3.37-2.13-5.94-5.13-5.94s-4.83,2.56-4.72,5.94c.13,3.37,2.16,5.99,5.18,5.99s4.8-2.62,4.67-5.99Z"/>
      <path d="M1118.64,427.24v-7.15c0-1.4-.32-2.56-1.11-3.1v-.11l3.64-1.03v11.39c0,1.67.27,2.92.89,3.51v.11h-4.32v-.11c.62-.59.89-1.83.89-3.51ZM1117.91,411.75c0-1.13.86-1.78,1.84-1.78s1.86.65,1.86,1.78-.89,1.81-1.86,1.81-1.84-.67-1.84-1.81Z"/>
      <path d="M1124.9,427.24v-7.15c0-1.4-.32-2.56-1.11-3.1v-.11l3.64-1.03v2.54c.67-1.3,2.73-2.54,5.02-2.54,3.27,0,4.94,1.75,4.94,5.59v5.8c0,1.67.27,2.92.89,3.51v.11h-4.32v-.11c.62-.59.89-1.83.89-3.51v-5.37c0-2.54-.62-4.24-3.1-4.24-2.05,0-4.32,1.75-4.32,5.32v4.29c0,1.67.27,2.92.89,3.51v.11h-4.32v-.11c.62-.59.89-1.83.89-3.51Z"/>
      <path d="M1141.1,427.19v-9.1h-2.35v-.11l4.78-4.72h.11v3.02h5.43v.11l-1.57,1.97c-.81-.24-2.59-.32-3.86-.35v8.67c0,1.75.51,2.86,2.32,2.86.76,0,1.94-.32,2.56-1.19l.08.03-.49,2.43c-.51.22-1.4.49-2.83.49-2.62,0-4.18-1.11-4.18-4.1Z"/>
      <path d="M1149.07,423.54c0-4.64,3.56-7.69,7.72-7.69,4.53,0,6.26,3.02,6.26,6.56h-11.17c-.03.19-.03.35-.03.54,0,3.89,2.51,6.59,6.24,6.59,2.08,0,3.81-.81,4.99-2.08l.11.05c-1.03,1.86-3,3.78-6.64,3.78-3.89,0-7.48-2.78-7.48-7.75ZM1160.03,420.6c-.16-1.59-1.38-3-3.43-3-1.92,0-3.62,1.05-4.35,3h7.77Z"/>
      <path d="M1164.73,423.65c0-4.35,2.86-7.8,7.07-7.8,2.24,0,3.67,1.05,4.13,1.81v-4.59c0-1.4-.32-2.56-1.11-3.1v-.11l3.64-1.03v18.41c0,1.67.27,2.32.89,2.92v.11l-3.35,1.03v-2.56c-.65,1.38-2.54,2.56-4.72,2.56-4.26,0-6.56-3.56-6.56-7.64ZM1176.17,423.57c-.05-3.32-1.92-5.97-4.48-5.97s-4.26,2.65-4.16,5.97c.08,3.35,1.94,5.97,4.53,5.97s4.24-2.62,4.1-5.97Z"/>
      <path d="M1181.63,429.59l-.43-3.46.11-.03c1.27,1.89,3.83,3.24,6.37,3.24,2.73,0,4.53-1.4,4.53-3.72,0-2.08-1.75-3.16-4.32-4.45l-1.19-.59c-3.27-1.62-4.97-3.27-4.97-5.72,0-3.05,2.35-5.37,6.88-5.37,2.19,0,3.86.43,4.94,1.13l.51,3.18-.11.03c-.78-1.16-2.59-2.4-5.43-2.4-2.4,0-4.08,1.13-4.08,2.83,0,1.4.78,2.27,3.75,3.75l1.67.84c3.75,1.89,5.32,3.56,5.32,6.32,0,3.86-2.94,6.13-7.58,6.13-2.02,0-4.53-.54-5.99-1.7Z"/>
      <path d="M1198.39,427.19v-9.1h-2.35v-.11l4.78-4.72h.11v3.02h5.43v.11l-1.57,1.97c-.81-.24-2.59-.32-3.86-.35v8.67c0,1.75.51,2.86,2.32,2.86.76,0,1.94-.32,2.56-1.19l.08.03-.49,2.43c-.51.22-1.4.49-2.83.49-2.62,0-4.18-1.11-4.18-4.1Z"/>
      <path d="M1206.98,427.24c0-2.94,1.97-3.94,4.86-4.91,1.7-.57,3.16-1.08,4.21-1.49-.08-1.86-.89-3.18-3.43-3.18-1.67,0-3.43.67-4.54,1.73l-.11-.05.4-2.59c1.16-.49,3.08-.89,4.72-.89,3.54,0,5.48,1.59,5.48,5.96v5.43c0,1.67.27,2.32.89,2.92v.11l-3.32,1.03v-1.89c-1.13,1.4-3.02,1.92-4.32,1.89-3-.05-4.86-1.67-4.86-4.05ZM1216.05,426.38v-3.89l-2.43.97c-2.46.95-3.89,1.62-3.89,3.38s1.16,2.7,2.78,2.7c1.19,0,3.54-.92,3.54-3.16Z"/>
      <path d="M1221.99,427.24v-7.15c0-1.4-.32-2.56-1.11-3.1v-.11l3.64-1.03v3c1.05-1.92,3.72-2.97,5.97-2.97v3.05h-.11c-.24-.22-.76-.62-1.92-.62-2.19,0-3.94,1.97-3.94,4.64v4.29c0,1.67.27,2.92.89,3.51v.11h-4.32v-.11c.62-.59.89-1.83.89-3.51Z"/>
      <path d="M1049.34,463.97v-10.45c0-1.67-.35-2.92-.97-3.51v-.11h4.7v.11c-.62.59-.97,1.84-.97,3.51v9.91c0,4.16,1.7,5.86,4.56,5.86,3.99,0,5.78-3.67,5.78-6.72v-9.04c0-1.67-.35-2.92-.97-3.51v-.11h4.7v.11c-.62.59-.97,1.84-.97,3.51v13.71c0,1.67.35,2.92.97,3.51v.11h-3.73c.19-.73.22-1.73.22-3.1-.67,1.51-2.83,3.54-6.34,3.54-3.94,0-6.96-2.05-6.96-7.31Z"/>
      <path d="M1074.86,462.71v-1.38h-1.27c-1.67,0-3.27.08-4.05.46h-.11v-2.81h.11c.78.38,2.38.46,4.05.46h1.27v-1.38c0-1.67-.08-3.27-.46-4.05v-.11h3.02v.11c-.38.78-.46,2.38-.46,4.05v1.38h1.27c1.67,0,3.27-.08,4.05-.46h.11v2.81h-.11c-.78-.38-2.38-.46-4.05-.46h-1.27v1.38c0,1.67.08,3.27.46,4.05v.11h-3.02v-.11c.38-.78.46-2.38.46-4.05Z"/>
      <path d="M1094.94,455.2c0-2.27-1.48-3.78-3.91-3.78s-4.48,1.54-5.86,3.48l-.08-.11c.62-1.86,2.51-5.32,7.18-5.32,4.18,0,5.91,2.67,5.91,5.4,0,5.51-7.58,12.44-9.26,14.09h4.83c2.94,0,4.59-.65,5.24-1.3l.08.05-.51,3.13h-14.31v-.11c3.02-2.83,10.69-9.72,10.69-15.55Z"/>
      <path d="M1104.47,466.65l6.8-14.85h-5.88c-2.11,0-4.08.3-4.89,1l-.11-.03.4-2.86h14.12v.11l-7.61,16.74c-.51,1.13-1.11,2.97-.84,4.1h-4.45v-.11c.65-.65,1.38-1.73,2.46-4.1Z"/>
      <path d="M1124.7,455.2c0-2.27-1.48-3.78-3.91-3.78s-4.48,1.54-5.86,3.48l-.08-.11c.62-1.86,2.51-5.32,7.18-5.32,4.18,0,5.91,2.67,5.91,5.4,0,5.51-7.58,12.44-9.26,14.09h4.83c2.94,0,4.59-.65,5.24-1.3l.08.05-.51,3.13h-14.31v-.11c3.02-2.83,10.69-9.72,10.69-15.55Z"/>
      <path d="M1134.23,466.65l6.8-14.85h-5.88c-2.11,0-4.08.3-4.89,1l-.11-.03.4-2.86h14.12v.11l-7.61,16.74c-.51,1.13-1.11,2.97-.84,4.1h-4.45v-.11c.65-.65,1.38-1.73,2.46-4.1Z"/>
    </g>
    <g>
      <path d="M1313.01,427.24v-9.15h-3.19v-.08l1.38-1.73h1.81v-2.48c0-3.86,2.62-4.97,4.91-4.97,1.19,0,2.4.27,2.86.51l.35,2.54-.11.03c-.59-.97-1.92-1.32-2.92-1.32-1.86,0-2.56,1.11-2.56,3.21v2.48h5.51v.11l-1.57,1.97c-.81-.24-2.59-.32-3.94-.35v9.23c0,1.67.27,2.92.89,3.51v.11h-4.32v-.11c.62-.59.89-1.83.89-3.51Z"/>
      <path d="M1320.51,423.57c0-4.86,3.62-7.72,7.75-7.72s7.72,2.86,7.72,7.72-3.64,7.72-7.72,7.72-7.75-2.86-7.75-7.72ZM1333.17,423.54c-.11-3.37-2.13-5.94-5.13-5.94s-4.83,2.56-4.72,5.94c.13,3.37,2.16,5.99,5.18,5.99s4.8-2.62,4.67-5.99Z"/>
      <path d="M1338.52,425.7v-5.62c0-1.4-.32-2.56-1.11-3.1v-.11l3.64-1.03v9.42c0,2.54.62,4.24,3.1,4.24,2.05,0,4.18-1.75,4.18-5.32v-4.1c0-1.4-.32-2.56-1.11-3.1v-.11l3.64-1.03v11.39c0,1.67.27,2.32.89,2.92v.11l-3.32,1.03v-2.7c-.67,1.38-2.7,2.7-4.99,2.7-3.27,0-4.94-1.75-4.94-5.59Z"/>
      <path d="M1354.61,427.24v-7.15c0-1.4-.32-2.56-1.11-3.1v-.11l3.64-1.03v3c1.05-1.92,3.72-2.97,5.97-2.97v3.05h-.11c-.24-.22-.76-.62-1.92-.62-2.19,0-3.94,1.97-3.94,4.64v4.29c0,1.67.27,2.92.89,3.51v.11h-4.32v-.11c.62-.59.89-1.83.89-3.51Z"/>
      <path d="M1368.73,427.24v-15.44h-1.73c-2.94,0-4.48.49-5.13,1.13l-.08-.05.38-2.97h15.87l.38,2.97-.08.05c-.65-.65-2.19-1.13-5.13-1.13h-1.73v15.44c0,1.67.35,2.92.97,3.51v.11h-4.7v-.11c.62-.59.97-1.83.97-3.51Z"/>
      <path d="M1376.67,423.54c0-4.64,3.56-7.69,7.72-7.69,4.53,0,6.26,3.02,6.26,6.56h-11.17c-.03.19-.03.35-.03.54,0,3.89,2.51,6.59,6.24,6.59,2.08,0,3.81-.81,4.99-2.08l.11.05c-1.03,1.86-3,3.78-6.64,3.78-3.89,0-7.48-2.78-7.48-7.75ZM1387.63,420.6c-.16-1.59-1.38-3-3.43-3-1.92,0-3.62,1.05-4.35,3h7.77Z"/>
      <path d="M1392.17,427.24c0-2.94,1.97-3.94,4.86-4.91,1.7-.57,3.16-1.08,4.21-1.49-.08-1.86-.89-3.18-3.43-3.18-1.67,0-3.43.67-4.54,1.73l-.11-.05.4-2.59c1.16-.49,3.08-.89,4.72-.89,3.54,0,5.48,1.59,5.48,5.96v5.43c0,1.67.27,2.32.89,2.92v.11l-3.32,1.03v-1.89c-1.13,1.4-3.02,1.92-4.32,1.89-3-.05-4.86-1.67-4.86-4.05ZM1401.24,426.38v-3.89l-2.43.97c-2.46.95-3.89,1.62-3.89,3.38s1.16,2.7,2.78,2.7c1.19,0,3.54-.92,3.54-3.16Z"/>
      <path d="M1407.18,427.24v-7.15c0-1.4-.32-2.56-1.11-3.1v-.11l3.64-1.03v3c1.05-1.92,3.72-2.97,5.97-2.97v3.05h-.11c-.24-.22-.76-.62-1.92-.62-2.19,0-3.94,1.97-3.94,4.64v4.29c0,1.67.27,2.92.89,3.51v.11h-4.32v-.11c.62-.59.89-1.83.89-3.51Z"/>
      <path d="M1416.44,423.65c0-4.35,2.86-7.8,7.07-7.8,2.24,0,3.67,1.05,4.13,1.81v-4.59c0-1.4-.32-2.56-1.11-3.1v-.11l3.64-1.03v18.41c0,1.67.27,2.32.89,2.92v.11l-3.35,1.03v-2.56c-.65,1.38-2.54,2.56-4.72,2.56-4.26,0-6.56-3.56-6.56-7.64ZM1427.89,423.57c-.05-3.32-1.92-5.97-4.48-5.97s-4.26,2.65-4.16,5.97c.08,3.35,1.94,5.97,4.53,5.97s4.24-2.62,4.1-5.97Z"/>
      <path d="M1433.86,427.24v-7.15c0-1.4-.32-2.56-1.11-3.1v-.11l3.64-1.03v3c1.05-1.92,3.72-2.97,5.97-2.97v3.05h-.11c-.24-.22-.76-.62-1.92-.62-2.19,0-3.94,1.97-3.94,4.64v4.29c0,1.67.27,2.92.89,3.51v.11h-4.32v-.11c.62-.59.89-1.83.89-3.51Z"/>
      <path d="M1443.6,423.57c0-4.86,3.62-7.72,7.75-7.72s7.72,2.86,7.72,7.72-3.64,7.72-7.72,7.72-7.75-2.86-7.75-7.72ZM1456.26,423.54c-.11-3.37-2.13-5.94-5.13-5.94s-4.83,2.56-4.72,5.94c.13,3.37,2.16,5.99,5.18,5.99s4.8-2.62,4.67-5.99Z"/>
      <path d="M1461.32,432.64v-12.55c0-1.4-.32-2.56-1.11-3.1v-.11l3.64-1.03v2.56c.76-1.27,2.65-2.56,4.83-2.56,4.27,0,6.45,3.56,6.45,7.64,0,4.35-2.86,7.8-7.07,7.8-2.02,0-3.54-.94-4.21-1.83v3.18c0,1.67.27,2.92.89,3.51v.11h-4.32v-.11c.62-.59.89-1.84.89-3.51ZM1472.33,424.14c0-3.13-1.46-6.4-4.48-6.4-2.54,0-4.16,2.48-4.16,5.64s1.59,6.29,4.53,6.29c2.46,0,4.1-2.4,4.1-5.53Z"/>
      <path d="M1477.46,429.59l-.43-3.46.11-.03c1.27,1.89,3.83,3.24,6.37,3.24,2.73,0,4.53-1.4,4.53-3.72,0-2.08-1.75-3.16-4.32-4.45l-1.19-.59c-3.27-1.62-4.97-3.27-4.97-5.72,0-3.05,2.35-5.37,6.88-5.37,2.19,0,3.86.43,4.94,1.13l.51,3.18-.11.03c-.78-1.16-2.59-2.4-5.43-2.4-2.4,0-4.08,1.13-4.08,2.83,0,1.4.78,2.27,3.75,3.75l1.67.84c3.75,1.89,5.32,3.56,5.32,6.32,0,3.86-2.94,6.13-7.58,6.13-2.02,0-4.53-.54-5.99-1.7Z"/>
      <path d="M1493.8,432.64v-12.55c0-1.4-.32-2.56-1.11-3.1v-.11l3.64-1.03v2.56c.76-1.27,2.65-2.56,4.83-2.56,4.27,0,6.45,3.56,6.45,7.64,0,4.35-2.86,7.8-7.07,7.8-2.02,0-3.54-.94-4.21-1.83v3.18c0,1.67.27,2.92.89,3.51v.11h-4.32v-.11c.62-.59.89-1.84.89-3.51ZM1504.81,424.14c0-3.13-1.46-6.4-4.48-6.4-2.54,0-4.16,2.48-4.16,5.64s1.59,6.29,4.53,6.29c2.46,0,4.1-2.4,4.1-5.53Z"/>
      <path d="M1509.57,423.57c0-4.86,3.62-7.72,7.75-7.72s7.72,2.86,7.72,7.72-3.64,7.72-7.72,7.72-7.75-2.86-7.75-7.72ZM1522.22,423.54c-.11-3.37-2.13-5.94-5.13-5.94s-4.83,2.56-4.72,5.94c.13,3.37,2.16,5.99,5.18,5.99s4.8-2.62,4.67-5.99Z"/>
      <path d="M1527.44,427.24v-14.17c0-1.4-.32-2.56-1.11-3.1v-.11l3.64-1.03v13.6l3.56-3.51c1.21-1.21,1.65-2.21,1.65-2.65h3.73v.08c-.84.54-1.51,1.19-2.92,2.54l-3.72,3.56,5.4,5.75c1.13,1.19,2.05,2.21,2.48,2.56v.08h-4.21c0-.92-.84-1.94-1.48-2.65l-4.48-4.83v3.86c0,1.67.27,2.92.89,3.51v.11h-4.32v-.11c.62-.59.89-1.83.89-3.51Z"/>
      <path d="M1539.59,423.54c0-4.64,3.56-7.69,7.72-7.69,4.53,0,6.26,3.02,6.26,6.56h-11.17c-.03.19-.03.35-.03.54,0,3.89,2.51,6.59,6.24,6.59,2.08,0,3.81-.81,4.99-2.08l.11.05c-1.03,1.86-3,3.78-6.64,3.78-3.89,0-7.48-2.78-7.48-7.75ZM1550.55,420.6c-.16-1.59-1.38-3-3.43-3-1.92,0-3.62,1.05-4.35,3h7.77Z"/>
      <path d="M1555.25,423.65c0-4.35,2.86-7.8,7.07-7.8,2.24,0,3.67,1.05,4.13,1.81v-4.59c0-1.4-.32-2.56-1.11-3.1v-.11l3.64-1.03v18.41c0,1.67.27,2.32.89,2.92v.11l-3.35,1.03v-2.56c-.65,1.38-2.54,2.56-4.72,2.56-4.26,0-6.56-3.56-6.56-7.64ZM1566.69,423.57c-.05-3.32-1.92-5.97-4.48-5.97s-4.26,2.65-4.16,5.97c.08,3.35,1.94,5.97,4.53,5.97s4.24-2.62,4.1-5.97Z"/>
      <path d="M1573.1,426.51l7.37-17.03h.11l8.21,18.08c.54,1.19,1.7,2.83,2.13,3.18v.11h-4.53c0-.78-.19-1.97-1.03-3.86l-1.03-2.35h-8.15l-.97,2.35c-.78,1.89-.89,3.08-.78,3.86h-3.78v-.11c.86-.94,1.73-2.54,2.46-4.24ZM1583.46,422.68l-3.32-7.56-3.13,7.56h6.45Z"/>
      <path d="M1591.24,430.13l-.38-2.83.11-.05c1.19,1.65,3,2.29,4.78,2.29,1.59,0,2.89-.67,2.89-1.94,0-1.08-.7-1.78-2.62-2.78l-1.65-.86c-2.38-1.24-3.21-2.46-3.21-4.24,0-1.97,1.94-3.86,5.21-3.86,1.62,0,2.65.32,3.51.73l.32,2.56-.08.05c-.59-.78-2.08-1.59-3.99-1.59-1.46,0-2.56.65-2.56,1.62,0,1.05.49,1.48,2.21,2.38l1.84.95c2.32,1.19,3.56,2.4,3.56,4.32,0,2.89-2.48,4.43-5.48,4.43-1.51,0-3.4-.32-4.45-1.16Z"/>
      <path d="M1604.44,427.19v-9.1h-2.35v-.11l4.78-4.72h.11v3.02h5.43v.11l-1.57,1.97c-.81-.24-2.59-.32-3.86-.35v8.67c0,1.75.51,2.86,2.32,2.86.76,0,1.94-.32,2.56-1.19l.08.03-.49,2.43c-.51.22-1.4.49-2.83.49-2.62,0-4.18-1.11-4.18-4.1Z"/>
      <path d="M1612.41,423.54c0-4.64,3.56-7.69,7.72-7.69,4.53,0,6.26,3.02,6.26,6.56h-11.17c-.03.19-.03.35-.03.54,0,3.89,2.51,6.59,6.24,6.59,2.08,0,3.81-.81,4.99-2.08l.11.05c-1.03,1.86-3,3.78-6.64,3.78-3.89,0-7.48-2.78-7.48-7.75ZM1623.37,420.6c-.16-1.59-1.38-3-3.43-3-1.92,0-3.62,1.05-4.35,3h7.77Z"/>
      <path d="M1628.8,427.24v-7.15c0-1.4-.32-2.56-1.11-3.1v-.11l3.64-1.03v3c1.05-1.92,3.72-2.97,5.97-2.97v3.05h-.11c-.24-.22-.76-.62-1.92-.62-2.19,0-3.94,1.97-3.94,4.64v4.29c0,1.67.27,2.92.89,3.51v.11h-4.32v-.11c.62-.59.89-1.83.89-3.51Z"/>
      <path d="M1639.87,427.24v-7.15c0-1.4-.32-2.56-1.11-3.1v-.11l3.64-1.03v11.39c0,1.67.27,2.92.89,3.51v.11h-4.32v-.11c.62-.59.89-1.83.89-3.51ZM1639.14,411.75c0-1.13.86-1.78,1.84-1.78s1.86.65,1.86,1.78-.89,1.81-1.86,1.81-1.84-.67-1.84-1.81Z"/>
      <path d="M1645.46,430.13l-.38-2.83.11-.05c1.19,1.65,3,2.29,4.78,2.29,1.59,0,2.89-.67,2.89-1.94,0-1.08-.7-1.78-2.62-2.78l-1.65-.86c-2.38-1.24-3.21-2.46-3.21-4.24,0-1.97,1.94-3.86,5.21-3.86,1.62,0,2.65.32,3.51.73l.32,2.56-.08.05c-.59-.78-2.08-1.59-3.99-1.59-1.46,0-2.56.65-2.56,1.62,0,1.05.49,1.48,2.21,2.38l1.84.95c2.32,1.19,3.56,2.4,3.56,4.32,0,2.89-2.48,4.43-5.48,4.43-1.51,0-3.4-.32-4.45-1.16Z"/>
      <path d="M1657.82,427.24v-14.17c0-1.4-.32-2.56-1.11-3.1v-.11l3.64-1.03v13.6l3.56-3.51c1.21-1.21,1.65-2.21,1.65-2.65h3.73v.08c-.84.54-1.51,1.19-2.92,2.54l-3.72,3.56,5.4,5.75c1.13,1.19,2.05,2.21,2.48,2.56v.08h-4.21c0-.92-.84-1.94-1.48-2.65l-4.48-4.83v3.86c0,1.67.27,2.92.89,3.51v.11h-4.32v-.11c.62-.59.89-1.83.89-3.51Z"/>
      <path d="M1443.11,463.97v-10.45c0-1.67-.35-2.92-.97-3.51v-.11h4.7v.11c-.62.59-.97,1.84-.97,3.51v9.91c0,4.16,1.7,5.86,4.56,5.86,3.99,0,5.78-3.67,5.78-6.72v-9.04c0-1.67-.35-2.92-.97-3.51v-.11h4.7v.11c-.62.59-.97,1.84-.97,3.51v13.71c0,1.67.35,2.92.97,3.51v.11h-3.73c.19-.73.22-1.73.22-3.1-.67,1.51-2.83,3.54-6.34,3.54-3.94,0-6.96-2.05-6.96-7.31Z"/>
      <path d="M1468.62,462.71v-1.38h-1.27c-1.67,0-3.27.08-4.05.46h-.11v-2.81h.11c.78.38,2.38.46,4.05.46h1.27v-1.38c0-1.67-.08-3.27-.46-4.05v-.11h3.02v.11c-.38.78-.46,2.38-.46,4.05v1.38h1.27c1.67,0,3.27-.08,4.05-.46h.11v2.81h-.11c-.78-.38-2.38-.46-4.05-.46h-1.27v1.38c0,1.67.08,3.27.46,4.05v.11h-3.02v-.11c.38-.78.46-2.38.46-4.05Z"/>
      <path d="M1488.71,455.2c0-2.27-1.48-3.78-3.91-3.78s-4.48,1.54-5.86,3.48l-.08-.11c.62-1.86,2.51-5.32,7.18-5.32,4.18,0,5.91,2.67,5.91,5.4,0,5.51-7.58,12.44-9.26,14.09h4.83c2.94,0,4.59-.65,5.24-1.3l.08.05-.51,3.13h-14.31v-.11c3.02-2.83,10.69-9.72,10.69-15.55Z"/>
      <path d="M1498.24,466.65l6.8-14.85h-5.88c-2.11,0-4.08.3-4.89,1l-.11-.03.4-2.86h14.12v.11l-7.61,16.74c-.51,1.13-1.11,2.97-.84,4.1h-4.45v-.11c.65-.65,1.38-1.73,2.46-4.1Z"/>
      <path d="M1518.46,455.2c0-2.27-1.48-3.78-3.91-3.78s-4.48,1.54-5.86,3.48l-.08-.11c.62-1.86,2.51-5.32,7.18-5.32,4.18,0,5.91,2.67,5.91,5.4,0,5.51-7.58,12.44-9.26,14.09h4.83c2.94,0,4.59-.65,5.24-1.3l.08.05-.51,3.13h-14.31v-.11c3.02-2.83,10.69-9.72,10.69-15.55Z"/>
      <path d="M1534.23,455.2c0-2.27-1.48-3.78-3.91-3.78s-4.48,1.54-5.86,3.48l-.08-.11c.62-1.86,2.51-5.32,7.18-5.32,4.18,0,5.91,2.67,5.91,5.4,0,5.51-7.58,12.44-9.26,14.09h4.83c2.94,0,4.59-.65,5.24-1.3l.08.05-.51,3.13h-14.31v-.11c3.02-2.83,10.69-9.72,10.69-15.55Z"/>
    </g>
  </g>
</svg>