<?xml version="1.0" encoding="UTF-8"?>
<svg id="Layer_1" xmlns="http://www.w3.org/2000/svg" version="1.1" viewBox="0 0 2231.88 373.72">
  <!-- Generator: Adobe Illustrator 30.5.0, SVG Export Plug-In . SVG Version: 2.1.4 Build 167)  -->
  <defs>
    <style>
      .st0 {
        fill: #efe9e2;
      }
    </style>
  </defs>
  <polygon class="st0" points="176.92 3.87 154.48 29.17 141.33 50 135.13 72.07 135.13 91.41 138.45 108.77 147.78 127.62 161.42 145.23 138.45 169.78 119.76 154.9 97.94 146.22 78.1 145.23 54.79 148.55 34.2 159.36 14.86 174.74 3.2 187.02 11.14 196.31 25.77 208.96 43.13 219.87 61.73 226.82 80.33 229.05 100.66 226.82 120.26 218.63 137.12 207.23 140.09 204 162.17 227.06 152.49 239.46 140.59 260.79 134.39 287.82 136.13 306.67 141.33 323.53 152.49 344.12 176.92 370.4 187.46 362.28 201.6 345.6 213.5 324.03 218.71 301.46 218.71 278.31 213.75 260.3 204.08 244.18 195.15 231.28 202.09 221.36 216.48 205.99 229.12 223.96 253.68 265.26 267.31 297.25 274.01 323.53 277.23 348.83 277.23 365.63 1954.77 365.63 1954.77 337.39 1960.13 306.49 1969.59 278.36 1981.91 254.7 2014.24 207.02 2035.31 228.45 2025.13 244.34 2015.93 268.27 2013.17 291.31 2014.6 314.53 2022.63 332.74 2034.24 350.78 2054.4 369.89 2073 351.5 2086.93 330.6 2093.89 312.74 2097.28 289.52 2092.87 265.95 2084.78 248.45 2069.42 227.02 2091.21 204.52 2106.57 216.3 2127.47 226.48 2145.68 229.52 2170.51 226.66 2189.08 219.34 2209.08 205.94 2229.08 187.14 2207.65 166.12 2187.83 153.08 2166.58 146.12 2143.54 144.69 2124.43 150.76 2107.64 159.33 2094.43 169.15 2071.21 145.58 2082.28 129.51 2092.87 110.4 2096.57 88.97 2094.78 62.54 2086.57 41.64 2073.17 22.53 2052.99 3.87 2038.88 17.53 2025.49 35.93 2020.13 47.89 2014.42 64.68 2013.88 79.32 2013.17 93.07 2018.7 112.54 2027.81 129.69 2036.92 142.9 2034.78 147.19 2017.99 163.98 2014.24 165.94 1993.88 140.22 1970.48 97.36 1958.88 64.68 1954.23 38.78 1953.7 8.4 276.99 8.4 277.68 24.3 274.42 52.58 269.28 75.03 260.88 99.02 250.26 119.07 239.63 137.24 217.01 167.05 194.05 144.6 200.73 135.18 212.38 113.59 218.9 91.14 217.7 69.2 214.1 50.86 204.5 33.21 191.31 16.07 176.92 3.87"/>
  <path d="M2148.53,142.28c-21.37,0-40,10.38-55.57,23.2l-5.5-5.8-13.44-14.66c18.32-21.68,25.34-43.36,25.34-61.68,0-26.56-8.85-50.99-45.49-83.35-36.95,32.36-43.66,58.01-43.66,83.35,0,19.24,5.5,36.03,23.51,60.15-6.41,6.72-12.21,12.82-18.32,19.85-37.25-47.94-62.29-100.45-57.1-157.86H273.57c5.19,57.4-19.85,109.92-57.1,157.86-6.11-7.02-11.91-13.13-18.32-19.85,18.01-24.12,23.51-40.91,23.51-60.15,0-25.34-6.72-50.99-43.66-83.35-36.64,32.36-45.49,56.79-45.49,83.35,0,18.32,7.02,40,25.34,61.68l-13.43,14.66-5.5,5.8c-15.57-12.82-34.2-23.2-55.57-23.2-25.65,0-50.99,7.63-83.36,44.58,32.36,36.94,57.71,44.58,83.36,44.58,23.51,0,41.83-10.99,56.48-23.82l12.21,12.52,7.02,7.02c-19.24,22.29-26.56,44.58-26.56,63.2,0,26.56,8.85,50.99,45.49,83.35,36.95-32.36,43.66-58.01,43.66-83.35,0-19.24-5.8-38.78-22.29-61.68,5.8-5.8,11.3-11.91,17.1-18.32,37.25,47.94,62.29,100.45,57.1,157.86h1684.74c-5.19-57.4,19.85-109.92,57.1-157.86,5.8,6.41,11.3,12.52,17.1,18.32-16.49,22.9-22.29,42.44-22.29,61.68,0,25.34,6.72,50.99,43.66,83.35,36.64-32.36,45.49-56.79,45.49-83.35,0-18.63-7.33-40.91-26.56-63.2l7.02-7.02,12.21-12.52c14.66,12.82,32.98,23.82,56.49,23.82,25.65,0,50.99-7.63,83.35-44.58-32.36-36.94-57.71-44.58-83.35-44.58ZM2037.39,148.39l4.28-4.27,6.41-6.41,6.41-7.02,3.97-4.58c12.21-15.88,16.49-30.84,16.49-42.75,0-15.88-4.58-30.84-21.07-49.16-15.88,18.01-19.24,32.67-19.24,49.16,0,12.82,3.36,24.43,16.18,42.44l-7.02,7.63-5.8,5.8c-16.79-22.59-21.68-38.17-21.68-55.88,0-23.51,5.5-45.8,37.56-75.11,31.45,29.01,39.39,50.99,39.39,75.11,0,17.1-6.41,36.95-23.2,57.1l-3.97,4.58-5.19,5.5-7.63,7.63-4.28,4.27-18.01,19.85-11.91-14.35,18.32-19.54ZM138.62,83.35c0-24.12,7.94-46.1,39.39-75.11,32.06,29.31,37.56,51.6,37.56,75.11,0,17.71-4.89,33.28-21.68,55.88l-5.8-5.8-7.02-7.63c12.82-18.01,16.18-29.62,16.18-42.44,0-16.49-3.36-31.14-19.24-49.16-16.49,18.32-21.07,33.28-21.07,49.16,0,11.91,4.28,26.87,16.49,42.75l3.97,4.58,6.41,7.02,6.41,6.41,4.28,4.27,18.32,19.54-11.91,14.35-18.01-19.85-4.27-4.27-7.63-7.63-5.19-5.5-3.97-4.58c-16.79-20.15-23.2-40-23.2-57.1ZM135.57,203.35c-13.74,11.91-30.84,21.98-52.21,21.98-23.82,0-46.11-6.41-75.42-38.47,29.31-32.06,51.6-38.47,75.42-38.47,19.24,0,36.64,9.77,51.3,21.68-3.97,4.28-8.55,9.16-12.82,13.13-11.91-9.47-24.73-16.49-38.47-16.49-16.18,0-30.53,3.66-49.16,20.15,18.63,16.49,32.98,20.15,49.16,20.15,15.27,0,27.48-6.41,38.78-15.88l4.58-4.27,12.82-12.82,22.29-24.43,4.89,5.19,7.94,7.94-21.98,23.82-12.82,12.82-4.27,3.97ZM215.56,290.37c0,23.51-5.5,45.8-37.56,75.11-31.45-29.01-39.39-50.99-39.39-75.11,0-17.4,6.41-37.56,24.43-58.62,4.58,5.19,8.55,10.08,11.6,14.35-13.13,16.49-17.71,31.75-17.71,44.27,0,15.88,4.58,30.84,21.07,49.16,15.88-18.01,19.24-32.67,19.24-49.16,0-13.43-3.67-27.17-14.96-43.97l-3.66-4.89c-3.36-4.89-7.02-9.16-11.6-14.35l-3.97-4.27-6.72-7.02-11.91-12.21c4.58-4.28,8.85-8.85,12.52-12.82l12.21,12.21,6.41,6.72,4.28,4.58c4.27,4.58,8.24,9.46,11.6,13.74l3.66,5.19c15.27,21.37,20.46,39.08,20.46,57.1ZM1951.59,362.12H280.29c3.05-57.71-22.9-109.61-59.54-156.33l12.21-14.35c35.72,43.97,62.59,92.82,65.65,149.31h1634.66c3.05-56.49,29.92-105.34,65.65-149.31l12.21,14.35c-36.64,46.72-62.59,98.62-59.54,156.33ZM2019.07,205.79l-3.97-4.58-12.52-14.35-3.66-4.58c-35.72-43.97-62.59-92.82-65.65-149.31H298.61c-3.05,56.49-29.92,105.34-65.65,149.31l-3.66,4.58-12.52,14.35-3.97,4.58-17.1,18.01-11.6-14.04,16.79-18.32,3.97-4.58,11.91-14.35,3.97-4.58c36.64-46.72,62.59-98.62,59.54-156.33h1671.3c-3.05,57.71,22.9,109.61,59.54,156.33l3.97,4.58,11.91,14.35,3.97,4.58,16.79,18.32-11.6,14.04-17.1-18.01ZM2075.56,215.87l-6.72,7.02-3.97,4.27c-4.58,5.19-8.24,9.47-11.6,14.35l-3.67,4.89c-11.3,16.79-14.96,30.53-14.96,43.97,0,16.49,3.36,31.14,19.24,49.16,16.49-18.32,21.07-33.28,21.07-49.16,0-12.52-4.58-27.79-17.71-44.27,3.05-4.27,7.02-9.16,11.6-14.35,18.01,21.07,24.43,41.22,24.43,58.62,0,24.12-7.94,46.1-39.39,75.11-32.06-29.31-37.56-51.6-37.56-75.11,0-18.01,5.19-35.72,20.46-57.1l3.66-5.19c3.36-4.28,7.33-9.16,11.6-13.74l4.28-4.58,6.41-6.72,12.21-12.21c3.66,3.97,7.94,8.55,12.52,12.82l-11.91,12.21ZM2148.53,225.33c-21.37,0-38.47-10.08-52.21-21.98l-4.27-3.97-12.82-12.82-21.98-23.82,7.94-7.94,4.89-5.19,22.29,24.43,12.82,12.82,4.58,4.27c11.3,9.46,23.51,15.88,38.78,15.88,16.18,0,30.53-3.66,49.16-20.15-18.63-16.49-32.98-20.15-49.16-20.15-13.74,0-26.56,7.02-38.47,16.49-4.28-3.97-8.85-8.85-12.82-13.13,14.66-11.91,32.06-21.68,51.3-21.68,23.82,0,46.1,6.41,75.42,38.47-29.31,32.06-51.6,38.47-75.42,38.47Z"/>
  <g>
    <path class="st0" d="M364.36,185.44c0-58.32,44.08-92.76,94.14-92.76s94.14,34.44,94.14,92.76-44.08,92.76-94.14,92.76-94.14-34.44-94.14-92.76ZM526.46,189.57c0-40.87-24.57-80.36-69.57-80.36-39.95,0-66.35,31.91-66.35,71.86s24.11,80.59,69.34,80.59c40.18,0,66.81-31.68,66.58-72.09Z"/>
    <path class="st0" d="M580.41,243.76v-116.64c0-14.24-2.98-24.8-8.27-29.85v-.92h60.16c39.72,0,61.76,18.14,61.76,44.31,0,23.42-14.92,39.49-37.42,46.84l31.91,56.25c12.4,21.81,16.3,25.72,20.43,29.85v.92h-37.2c0-14.24-5.74-24.34-9.18-30.77l-28.01-52.12c-2.76.23-5.28.23-8.04.23h-22.73v51.89c0,14.24,2.98,24.8,8.27,29.85v.92h-39.95v-.92c5.28-5.05,8.27-15.61,8.27-29.85ZM667.88,142.97c-.46-17.91-12.63-30.54-38.11-30.54h-25.94v63.37h22.5c25.26,0,42.02-10.79,41.56-32.83Z"/>
    <path class="st0" d="M745.94,144.57v99.19c0,14.24,2.3,24.8,7.58,29.85v.92h-33.52v-.92c5.28-5.05,7.58-15.61,7.58-29.85V90.85h.92l126.05,135.46v-99.19c0-14.24-2.3-24.8-7.58-29.85v-.92h33.52v.92c-5.28,5.05-7.58,15.61-7.58,29.85v152.91h-.92l-126.05-135.46Z"/>
    <path class="st0" d="M908.49,237.56l62.68-144.88h.92l69.8,153.83c4.59,10.1,14.46,24.11,18.14,27.09v.92h-38.57c0-6.66-1.61-16.76-8.72-32.83l-8.72-19.97h-69.34l-8.27,19.97c-6.66,16.07-7.58,26.17-6.66,32.83h-32.14v-.92c7.35-8.04,14.69-21.58,20.89-36.05ZM996.66,204.96l-28.24-64.29-26.63,64.29h54.87Z"/>
    <path class="st0" d="M1077.47,230.9l39.03-138.22h.92l45.69,108.14,45.46-108.14h.92l47.99,149.7c4.36,13.78,10.56,26.17,15.38,31.23v.92h-36.74c1.38-8.04.23-17.91-2.99-28.7l-29.39-97.35-42.48,98.96h-.92l-42.25-96.43-25.49,93.45c-3.67,13.78-3.21,23.88-1.61,30.08h-31.68v-.92c6.89-8.04,13.09-24.57,18.14-42.71Z"/>
    <path class="st0" d="M1294.44,243.76v-116.64c0-14.24-2.53-24.8-7.12-29.85v-.92h102.17l3.44,24.34-.92.23c-6.89-5.97-23.65-8.5-41.56-8.5h-32.6v57.4h30.08c10.79,0,22.96-.92,30.31-5.97l.92.23v27.32l-.92.23c-7.35-5.05-19.52-5.97-30.31-5.97h-30.08v72.78h40.41c25.03,0,37.88-3.21,43.39-8.72l.69.46-3.21,24.34h-111.81v-.92c4.59-5.05,7.12-15.61,7.12-29.85Z"/>
    <path class="st0" d="M1445.28,144.57v99.19c0,14.24,2.3,24.8,7.58,29.85v.92h-33.52v-.92c5.28-5.05,7.58-15.61,7.58-29.85V90.85h.92l126.05,135.46v-99.19c0-14.24-2.3-24.8-7.58-29.85v-.92h33.52v.92c-5.28,5.05-7.58,15.61-7.58,29.85v152.91h-.92l-126.05-135.46Z"/>
    <path class="st0" d="M1651.69,243.76V112.43h-14.69c-25.03,0-38.11,4.13-43.62,9.64l-.69-.46,3.21-25.26h135l3.21,25.26-.69.46c-5.51-5.51-18.6-9.64-43.62-9.64h-14.69v131.33c0,14.24,2.98,24.8,8.27,29.85v.92h-39.95v-.92c5.28-5.05,8.27-15.61,8.27-29.85Z"/>
    <path class="st0" d="M1745.82,263.74l-3.67-29.39.92-.23c10.79,16.07,32.6,27.55,54.19,27.55,23.19,0,38.57-11.94,38.57-31.68,0-17.68-14.92-26.86-36.74-37.88l-10.1-5.05c-27.78-13.78-42.25-27.78-42.25-48.67,0-25.94,19.97-45.69,58.55-45.69,18.6,0,32.83,3.67,42.02,9.64l4.36,27.09-.92.23c-6.66-9.87-22.04-20.43-46.15-20.43-20.43,0-34.67,9.64-34.67,24.11,0,11.94,6.66,19.29,31.91,31.91l14.24,7.12c31.91,16.07,45.23,30.31,45.23,53.73,0,32.83-25.03,52.12-64.52,52.12-17.22,0-38.57-4.59-50.97-14.46Z"/>
  </g>
</svg>