<?xml version="1.0" encoding="UTF-8"?>
<svg id="Layer_1" xmlns="http://www.w3.org/2000/svg" version="1.1" viewBox="0 0 1716.81 674.93">
  <!-- Generator: Adobe Illustrator 30.5.0, SVG Export Plug-In . SVG Version: 2.1.4 Build 167)  -->
  <defs>
    <style>
      .st0 {
        fill: #13600d;
      }

      .st1 {
        fill: #e4dfcf;
      }

      .st2 {
        fill: #8c010e;
      }

      .st3 {
        fill: #f0e4cf;
      }

      .st4 {
        fill: #2c1611;
      }
    </style>
  </defs>
  <g>
    <g>
      <g>
        <polygon class="st4" points="832.54 58.23 30.17 58.21 3.73 88.5 3.73 168.97 30.17 199.26 832.54 199.27 858.98 168.98 858.98 88.52 832.54 58.23"/>
        <path class="st3" d="M834.24,203H28.47S0,170.37,0,170.37v-83.26l28.47-32.62h805.77s28.47,32.63,28.47,32.63v83.26l-28.47,32.62ZM31.86,195.53h798.99s24.41-27.95,24.41-27.95v-77.67l-24.41-27.96H31.86s-24.41,27.95-24.41,27.95v77.67l24.41,27.96Z"/>
      </g>
      <g>
        <path class="st3" d="M291.99,153.65l22.04-76.39h.5l27.68,49.34,27.17-49.34h.5l27.68,82.65c2.5,7.51,6.39,14.53,9.27,17.03v.5h-35.31c.38-4.38-.12-9.52-1.88-15.65l-9.64-34.06-22.16,38.57h-.5l-21.04-36.57-8.02,31.31c-2,8.01-2.25,13.65-1.63,16.4h-25.3v-.5c3.76-4.51,7.76-13.4,10.64-23.29Z"/>
        <path class="st3" d="M410.33,152.52v-24.8c0-6.51-1-11.9-4.63-14.4v-.5l28.8-5.01v44.46c0,9.52,2.88,12.77,7.64,12.77s9.39-5.64,9.39-13.4v-23.92c0-6.51-1-11.9-4.63-14.4v-.5l28.8-5.01v51.97c0,6.51,1,11.9,4.63,14.4v.5l-26.3,4.76v-9.64c-2.51,4.01-7.77,9.64-21.04,9.64-12.27,0-22.67-7.64-22.67-26.92Z"/>
        <path class="st3" d="M489.61,174.93l-2.13-18.53.38-.12c6.14,6.64,17.03,9.64,23.29,9.64,4.38,0,6.64-1.5,6.64-4.13s-1.75-4.13-8.64-7.64l-5.38-2.75c-11.02-5.64-15.53-12.9-15.53-21.92,0-12.77,12.9-21.66,29.05-21.66,8.39,0,14.03,1.13,17.66,2.38l2,18.16-.38.13c-3.63-4.38-11.15-7.51-18.54-7.51-3.26,0-7.26.75-7.26,3.38,0,2.13,1.38,3.01,4.26,4.63l7.89,4.26c9.52,5.13,17.78,12.52,17.78,22.92,0,16.15-13.03,23.29-28.3,23.29-7.89,0-18.16-2-22.79-4.51Z"/>
        <path class="st3" d="M546.46,144.25c0-22.42,16.66-36.44,35.94-36.44,25.8,0,33.19,19.54,33.19,34.81h-44.21c1,17.16,12.4,23.67,24.04,23.67,8.27,0,15.03-2.13,20.16-6.14l.38.38c-4.26,7.64-16.28,18.91-33.44,18.91-18.66,0-36.07-13.4-36.07-35.19ZM591.92,129.85c-.88-5.38-3.63-8.89-9.14-8.89s-8.64,3.76-10.14,8.89h19.29Z"/>
        <path class="st3" d="M625.11,152.52v-24.8c0-6.51-1-11.9-4.63-14.4v-.5l28.8-5.01v44.46c0,9.52,2.88,12.77,7.64,12.77s9.39-5.64,9.39-13.4v-23.92c0-6.51-1-11.9-4.63-14.4v-.5l28.8-5.01v51.97c0,6.51,1,11.9,4.63,14.4v.5l-26.3,4.76v-9.64c-2.5,4.01-7.76,9.64-21.04,9.64-12.27,0-22.67-7.64-22.67-26.92Z"/>
        <path class="st3" d="M706,160.66v-33.19c0-6.51-1-11.9-4.63-14.4v-.5l27.3-4.76v11.27c2.38-4.76,9.27-11.02,21.04-11.02,8.14,0,15.03,3.38,18.79,11.15,4.01-5.38,13.02-11.15,22.54-11.15,12.27,0,21.79,7.64,21.79,26.92v25.67c0,7.76.75,13.52,3.63,16.28v.5h-31.68v-.5c2.88-2.75,3.88-8.52,3.88-16.28v-21.66c0-10.64-2.63-13.4-8.02-13.4-4.51,0-9.14,3.51-9.14,15.53v19.54c0,7.76,1,13.52,3.88,16.28v.5h-31.93v-.5c2.88-2.75,3.88-8.52,3.88-16.28v-21.66c0-10.64-2.63-13.4-8.01-13.4-4.51,0-9.14,3.51-9.14,15.53v19.54c0,7.76,1,13.52,3.88,16.28v.5h-31.68v-.5c2.88-2.75,3.63-8.52,3.63-16.28Z"/>
      </g>
      <path class="st3" d="M92.88,143.08v-16.22h-17.86v16.22h-.5c-9.56-11.95-22.76-22.13-32.57-27.16,9.81-5.03,23.01-15.47,32.57-27.41h.5v15.97h41.5v38.6c0,10.31,1.26,16.85,4.65,20.87v.5h-32.95v-.5c3.39-4.02,4.65-10.56,4.65-20.87Z"/>
      <path class="st3" d="M158.27,156.82c0-12.07,9.81-21.75,21.88-21.75h5.66v-14.59h-5.66c-12.07,0-21.88-9.68-21.88-21.75s9.81-21.75,21.88-21.75,22.01,9.56,22.01,21.75v5.41h13.58v-5.41c0-12.2,9.81-21.75,22.01-21.75s21.88,9.56,21.88,21.75-9.81,21.75-21.88,21.75h-5.66v14.59h5.66c12.07,0,21.88,9.68,21.88,21.75s-9.81,21.75-21.88,21.75-22.01-9.68-22.01-21.75v-5.41h-13.58v5.41c0,12.07-9.81,21.75-22.01,21.75s-21.88-9.68-21.88-21.75ZM185.81,104.13v-5.41c0-3.02-2.39-5.41-5.66-5.41s-5.53,2.39-5.53,5.41,2.39,5.41,5.53,5.41h5.66ZM185.81,156.82v-5.41h-5.66c-3.14,0-5.53,2.39-5.53,5.41s2.39,5.41,5.53,5.41,5.66-2.39,5.66-5.41ZM215.74,135.06v-14.59h-13.58v14.59h13.58ZM243.27,98.72c0-3.02-2.39-5.41-5.53-5.41s-5.66,2.39-5.66,5.41v5.41h5.66c3.14,0,5.53-2.39,5.53-5.41ZM243.27,156.82c0-3.02-2.39-5.41-5.53-5.41h-5.66v5.41c0,3.02,2.39,5.41,5.66,5.41s5.53-2.39,5.53-5.41Z"/>
    </g>
    <g>
      <g>
        <polygon class="st2" points="28.33 622.91 4.53 595.63 4.54 481.58 28.35 454.31 594.14 454.37 617.94 481.65 617.93 595.7 594.12 622.97 28.33 622.91"/>
        <path class="st3" d="M29.86,457.62l562.78.06,22,25.2v111.57s-22.02,25.2-22.02,25.2l-562.78-.06-22-25.2v-111.57s22.02-25.2,22.02-25.2M26.85,451l-1.98,2.27-22,25.2-1.63,1.87v2.48s-.01,111.57-.01,111.57v2.48s1.63,1.87,1.63,1.87l22,25.2,1.98,2.27h3.01s562.78.06,562.78.06h3.01s1.98-2.27,1.98-2.27l22-25.2,1.63-1.87v-2.48s.01-111.57.01-111.57v-2.48s-1.63-1.87-1.63-1.87l-22-25.2-1.98-2.27h-3.01s-562.78-.06-562.78-.06h-3.01Z"/>
      </g>
      <rect class="st3" x="299.85" y="469.97" width="2.13" height="137.13"/>
      <g>
        <path class="st3" d="M337.79,544.96v-53.98c0-6.59-1.48-11.48-3.92-13.81v-.43h52.81s2.33,17.65,2.33,17.65l-.42.11c-4.14-3.08-9.03-4.15-16.15-4.15h-12.54s0,20.61,0,20.61h8.29c4.99,0,10.63-.74,14.03-3.08l.42.11v18.17s-.43.11-.43.11c-3.4-2.34-9.03-3.08-14.03-3.08h-8.29s0,21.78,0,21.78c0,6.59,1.49,11.48,3.93,13.81v.42h-29.97v-.43c2.45-2.34,3.93-7.23,3.93-13.81Z"/>
        <path class="st3" d="M404.21,544.97v-53.98c0-6.59-1.48-11.48-3.92-13.81v-.43h29.97v.43c-2.45,2.34-3.93,7.23-3.93,13.81v53.98c0,6.59,1.48,11.48,3.92,13.81v.42h-29.97v-.43c2.45-2.34,3.93-7.23,3.93-13.81Z"/>
        <path class="st3" d="M449.27,544.98v-53.98c0-6.59-1.48-11.48-3.92-13.81v-.43h33.47c21.57,0,31.98,10,31.98,22.11,0,8.71-4.68,16.04-12.33,20.61l12.43,25.5c4.46,9.03,7.12,12.12,9.14,13.82v.42h-28.05c0-2.34-1.38-7.97-4.14-14.24l-9.03-20.08c-.96.11-1.7.11-2.66.11h-4.78s0,19.98,0,19.98c0,6.59,1.49,11.48,3.93,13.81v.42h-29.97v-.43c2.45-2.34,3.93-7.23,3.93-13.81ZM487.85,500.46c-.21-8.29-4.78-11.69-14.45-11.69h-2.02v24.23s.42,0,.42,0c9.56,0,16.26-2.34,16.05-12.54Z"/>
        <path class="st3" d="M530.99,544.99v-53.98c0-6.59-1.48-11.48-3.92-13.81v-.43h52.81s2.33,17.65,2.33,17.65l-.42.11c-4.14-3.08-9.03-4.15-16.15-4.15h-12.54s0,18.49,0,18.49h9.35c4.99,0,10.63-.74,14.03-3.08l.43.11v18.17s-.43.11-.43.11c-3.4-2.34-9.03-3.08-14.03-3.08h-9.35s0,24.54,0,24.54h9.14c9.03,0,18.81-1.48,22.95-5.31l.42.11-2.34,18.81h-56.21v-.43c2.45-2.34,3.93-7.23,3.93-13.81Z"/>
      </g>
      <g>
        <path class="st3" d="M334.59,589.04c0-6.94,5.16-11.28,11.13-11.28,7.99,0,10.27,6.05,10.27,10.78h-13.69c.31,5.31,3.84,7.33,7.44,7.33,2.56,0,4.65-.66,6.24-1.9l.12.12c-1.32,2.37-5.04,5.85-10.35,5.85-5.78,0-11.17-4.15-11.16-10.9ZM348.66,584.58c-.27-1.67-1.12-2.75-2.83-2.75-1.71,0-2.68,1.16-3.14,2.75h5.97Z"/>
        <path class="st3" d="M359.25,594.12l3.65-5.2-3.61-5.35c-1.94-2.87-3.37-4.34-4.26-5.04v-.15h10.7v.16c.04.85.39,2.21,1.94,5.04l.39.7.46-.7c1.79-2.64,2.02-4.19,2.02-5.04v-.15h7.52v.16c-.85.7-2.29,2.29-4.19,5.04l-3.41,4.88,4.15,5.66c1.98,2.71,3.37,4.34,4.26,5.04v.16h-10.51v-.16c-.04-.85-.46-2.4-2.13-5.04l-.78-1.24-.78,1.24c-1.63,2.67-2.02,4.19-2.02,5.04v.16h-7.6v-.16c.85-.7,2.17-2.13,4.19-5.04Z"/>
        <path class="st3" d="M382.4,592.81v-10.47s-3.6,0-3.6,0v-.16l10.93-9.42h.16v5.62s7.44,0,7.44,0v.15l-3.02,4.34c-.78-.23-2.56-.39-4.42-.47v8.49c0,3.18.77,4.27,3.33,4.27,1.36,0,2.75-.66,3.18-1.12l.12.08-1.2,4.89c-1.51.74-2.95.93-4.85.93-3.8,0-8.07-1.47-8.06-7.13Z"/>
        <path class="st3" d="M399.23,594.13v-10.2c0-2.02-.31-3.68-1.43-4.46v-.16l8.92-1.55v16.36c0,2.4.23,4.19,1.12,5.04v.16h-9.73v-.16c.89-.85,1.12-2.64,1.12-5.04ZM398.41,571.83c0-2.71,2.06-4.15,4.38-4.15,2.25,0,4.42,1.44,4.42,4.15,0,2.71-2.17,4.19-4.42,4.19-2.33,0-4.38-1.47-4.38-4.19Z"/>
        <path class="st3" d="M411.36,594.13v-10.27c0-2.02-.31-3.68-1.43-4.46v-.15l8.45-1.47v3.02c.74-1.4,3.22-3.02,6.9-3.02,3.8,0,6.75,2.37,6.75,8.34v8.03c0,2.4.23,4.19,1.12,5.04v.16h-9.81v-.16c.89-.85,1.2-2.64,1.2-5.04v-6.67c0-3.3-1.12-4.73-2.79-4.73-1.4,0-2.91,1.28-2.91,5v6.4c0,2.4.31,4.19,1.2,5.04v.16h-9.81v-.16c.89-.85,1.12-2.64,1.12-5.04Z"/>
        <path class="st3" d="M434.55,602.04c0-2.13,1.43-3.57,2.99-4.38-1.32-.78-2.21-1.98-2.21-3.57,0-1.74,1.63-3.1,3.18-3.68-2.25-1.28-3.49-3.37-3.49-5.62,0-4.15,3.45-7.02,9.58-7.02,1.71,0,3.22.23,4.5.62h9.65v.16l-2.25,4.34c-.5-.16-1.43-.27-2.4-.35.27.7.42,1.43.42,2.25,0,3.8-3.8,7.02-9.93,7.02-.66,0-1.24-.04-1.86-.12-.27.16-.47.39-.47.7,0,.78,1.12.93,2.29,1.01l3.61.23c5,.31,8.34,1.71,8.33,5.55,0,5.78-5.82,8.53-12.29,8.53-5.62,0-9.65-2.02-9.65-5.66ZM449.13,600.8c0-.89-.7-1.63-2.99-1.78l-4.34-.27c-.85.39-1.47,1.08-1.47,2.25,0,1.59,1.39,2.48,4.5,2.48,1.94,0,4.31-.77,4.31-2.67ZM447.34,585.49c0-1.63-.54-4.27-2.71-4.27-1.4,0-2.21.97-2.21,2.83,0,1.36.43,4.3,2.71,4.3,1.36,0,2.21-1.01,2.21-2.87Z"/>
        <path class="st3" d="M460.02,591.62v-7.68c0-2.02-.31-3.68-1.43-4.46v-.16l8.92-1.55v13.76c0,2.95.89,3.96,2.36,3.96,1.51,0,2.91-1.74,2.91-4.15v-7.41c0-2.02-.31-3.68-1.43-4.46v-.16l8.92-1.55v16.09c0,2.02.31,3.68,1.43,4.46v.16l-8.14,1.47v-2.99c-.78,1.24-2.4,2.99-6.51,2.98-3.8,0-7.02-2.37-7.02-8.34Z"/>
        <path class="st3" d="M485.73,594.14v-10.2c0-2.02-.31-3.68-1.43-4.46v-.16l8.92-1.55v16.36c0,2.4.23,4.19,1.12,5.04v.16h-9.73v-.16c.89-.85,1.12-2.64,1.12-5.04ZM484.92,571.85c0-2.71,2.06-4.15,4.38-4.15,2.25,0,4.42,1.44,4.42,4.15,0,2.71-2.17,4.19-4.42,4.19-2.33,0-4.38-1.47-4.38-4.19Z"/>
        <path class="st3" d="M497.36,598.56l-.66-5.74.12-.04c1.9,2.06,5.27,2.99,7.21,2.99,1.36,0,2.05-.47,2.05-1.28s-.54-1.28-2.68-2.37l-1.67-.85c-3.41-1.75-4.81-3.99-4.81-6.79,0-3.95,3.99-6.71,9-6.71,2.6,0,4.34.35,5.47.74l.62,5.62-.12.04c-1.12-1.36-3.45-2.33-5.74-2.33-1.01,0-2.25.23-2.25,1.05,0,.66.42.93,1.32,1.43l2.44,1.32c2.95,1.59,5.51,3.88,5.5,7.1,0,5-4.03,7.21-8.76,7.21-2.44,0-5.62-.62-7.06-1.4Z"/>
        <path class="st3" d="M516.05,594.15v-20.28c0-2.02-.31-3.68-1.43-4.46v-.15l8.92-1.55v12.45c1.04-1.16,3.33-2.36,6.43-2.36,3.8,0,6.75,2.37,6.75,8.34v8.03c0,2.4.23,4.19,1.12,5.04v.16h-9.81v-.16c.89-.85,1.2-2.64,1.2-5.04v-6.67c0-3.3-1.12-4.73-2.79-4.73-1.4,0-2.91,1.28-2.91,5v6.4c0,2.4.23,4.19,1.12,5.04v.16h-9.73v-.16c.89-.85,1.12-2.64,1.12-5.04Z"/>
        <path class="st3" d="M539.32,589.07c0-6.94,5.16-11.28,11.13-11.28,7.99,0,10.27,6.05,10.27,10.78h-13.69c.31,5.31,3.84,7.33,7.44,7.33,2.56,0,4.65-.66,6.24-1.9l.12.12c-1.32,2.36-5.04,5.85-10.35,5.85-5.78,0-11.17-4.15-11.16-10.9ZM553.39,584.61c-.27-1.67-1.12-2.75-2.83-2.75-1.71,0-2.68,1.16-3.14,2.75h5.97Z"/>
        <path class="st3" d="M563.55,594.15v-10.2c0-2.02-.31-3.68-1.43-4.46v-.16l8.92-1.55v3.84c1.51-1.9,4.5-3.84,7.83-3.84v7.21s-.12.12-.12.12c-.43-.58-1.9-.97-3.26-.97-2.21,0-4.46,1.08-4.46,4.69v5.31c0,2.4.23,4.19,1.12,5.04v.16h-9.73v-.16c.89-.85,1.12-2.64,1.12-5.04Z"/>
      </g>
      <g>
        <g>
          <rect class="st3" x="130.95" y="520.68" width="47.23" height="63.18"/>
          <path class="st2" d="M132.67,522.39h43.79s0,59.75,0,59.75h-43.79s0-59.75,0-59.75M129.23,518.96v3.44s0,59.75,0,59.75v3.44s3.44,0,3.44,0h43.79s3.44,0,3.44,0v-3.44s0-59.75,0-59.75v-3.44s-3.44,0-3.44,0h-43.79s-3.44,0-3.44,0h0Z"/>
        </g>
        <g>
          <path class="st3" d="M138.25,607.95c-4.03,0-7.31-3.28-7.31-7.31v-16.12s47.23,0,47.23,0v16.11c0,4.03-3.28,7.31-7.31,7.31h-32.61Z"/>
          <path class="st2" d="M132.66,586.25h43.79s0,14.4,0,14.4c0,3.09-2.5,5.59-5.59,5.59h-32.61c-3.09,0-5.59-2.51-5.59-5.6v-14.4M129.22,582.81v3.44s0,14.4,0,14.4c0,2.41.94,4.68,2.64,6.38s3.97,2.64,6.38,2.64h32.61s0,0,0,0c4.98,0,9.02-4.05,9.03-9.02v-14.4s0-3.44,0-3.44h-3.44s-43.79,0-43.79,0h-3.44Z"/>
        </g>
        <g>
          <path class="st3" d="M130.95,520.01v-1.72c0-9.85,6.04-18.56,15.16-22.05v-2.25h-6.63s-15.24,19.86-15.24,19.86l-6.15-3.76,16.65-28.77h11.37s0-7.87,0-7.87h16.92s0,7.87,0,7.87h4.87s0-2.2,0-2.2l29.97-8.94v34.94s-29.97-8.95-29.97-8.95v-2.2h-4.87s0,2.23,0,2.23c9.13,3.49,15.18,12.2,15.18,22.07v1.72h-47.26Z"/>
          <path class="st2" d="M196.15,472.5v30.33s-26.54-7.92-26.54-7.92v-2.64s-8.3,0-8.3,0v5.17c8.81,2.84,15.18,11.1,15.18,20.85h-43.82c0-9.75,6.36-17.99,15.16-20.84v-5.18s-9.19,0-9.19,0h0l-14.82,19.31-3.4-2.08,15.31-26.46h7.46s4.64,0,4.64,0v-7.87s13.48,0,13.48,0v7.87s8.3,0,8.3,0v-2.64s26.53-7.92,26.53-7.92M199.59,467.89l-4.42,1.32-26.53,7.92-2.45.73v1.76s-1.43,0-1.43,0v-4.43s0-3.44,0-3.44h-3.44s-13.48,0-13.48,0h-3.44s0,3.44,0,3.44v4.43s-1.2,0-1.2,0h-7.46s-1.98,0-1.98,0l-.99,1.71-15.31,26.46-1.68,2.91,2.86,1.75,3.4,2.08,2.64,1.61,1.88-2.45,5.77-7.52c-1.98,3.63-3.08,7.78-3.08,12.14v3.44s3.44,0,3.44,0h43.82s3.44,0,3.44,0v-3.44c0-7.68-3.41-14.7-9.03-19.41l24.26,7.25,4.42,1.32v-4.61s0-30.33,0-30.33v-4.61h0ZM137.08,499.94l3.25-4.23h2.74c-2.22,1.13-4.23,2.56-5.99,4.23h0ZM166.18,495.75s-.05-.03-.08-.04h.08v.04h0Z"/>
        </g>
      </g>
      <g>
        <polygon class="st2" points="226.18 562.37 213.9 578.44 223.79 595.93 243.87 596.11 251.99 577.58 245.41 559.24 226.18 562.37"/>
        <path class="st3" d="M261.73,542.38l13.51-30.61,2.53-5.74-1.49-.88-6.98,9.19-17.05,22.45-5.5,7.24c-2.64,3.48-6.48,5.85-10.78,6.65l8.86-18.26-1.47-.87-17.74,21.06c-2.46.46-4.68,1.8-6.23,3.77l-13.2,16.76c-1.68,2.14-1.92,5.08-.61,7.46l11.23,20.33c1.19,2.16,3.47,3.5,5.93,3.5l23.23-.02c2.72,0,5.18-1.64,6.23-4.15l8.27-19.66c.97-2.31,1.07-4.9.28-7.27l9.83-25.72-1.47-.87-11.68,16.6c-1.38-4.14-1.17-8.65.6-12.65l3.67-8.32ZM243.87,596.11l-20.08-.18-9.89-17.48,12.28-16.08,19.23-3.13,6.57,18.34-8.11,18.53Z"/>
      </g>
      <g>
        <polygon class="st2" points="220.33 504.08 211.6 513.08 216.41 524.55 228.76 526.12 235.1 515.31 232.39 503.55 220.33 504.08"/>
        <path class="st3" d="M243.65,494.37l10.54-17.85,1.98-3.34-.85-.65-4.96,5.15-12.12,12.57-3.91,4.05c-1.88,1.95-4.41,3.13-7.11,3.31l6.78-10.59-.84-.64-12.45,11.66c-1.55.1-3.01.77-4.11,1.87l-9.34,9.35c-1.19,1.19-1.55,2.99-.92,4.55l5.43,13.33c.58,1.42,1.88,2.41,3.4,2.58l14.29,1.68c1.68.2,3.31-.63,4.14-2.1l6.52-11.49c.77-1.35,1.02-2.93.7-4.46l7.92-15.11-.84-.64-8.39,9.36c-.55-2.65-.09-5.41,1.29-7.74l2.86-4.85ZM228.76,526.12l-12.34-1.57-4.81-11.48,8.73-9,12.06-.53,2.71,11.76-6.34,10.81Z"/>
      </g>
      <path class="st3" d="M45.37,562.11v-.53h16.05s0-49.6,0-49.6c0-10.79-1.31-17.63-4.86-21.84v-.53h34.47v.53c-3.55,4.21-4.87,11.05-4.87,21.84v49.6s16.31,0,16.31,0v.53c-12.5,10-23.16,23.81-28.42,34.07-5.26-10.26-16.18-24.08-28.67-34.08Z"/>
    </g>
    <g>
      <g>
        <polygon class="st0" points="3.96 368.38 3.94 284.99 32.5 252.25 660.12 252.05 809.51 252.01 838.09 284.73 838.12 368.12 809.56 400.86 644.18 400.9 32.54 401.1 3.96 368.38"/>
        <path class="st3" d="M807.74,255.91l26.45,30.28.03,80.47-26.43,30.3-147.61.04h-15.99s-541.36.18-541.36.18h-17.07s-51.42.02-51.42.02l-26.45-30.28-.03-80.47,26.43-30.3,51.42-.02h17.07s541.36-.18,541.36-.18h15.99s147.61-.05,147.61-.05M811.28,248.11h-3.55s-147.61.04-147.61.04h-15.99s-541.36.18-541.36.18h-17.07s-51.42.02-51.42.02h-3.55s-2.33,2.67-2.33,2.67l-26.43,30.3-1.92,2.21v2.93s.03,80.47.03,80.47v2.93s1.93,2.2,1.93,2.2l26.45,30.28,2.33,2.67h3.55s51.42-.02,51.42-.02h17.07s541.36-.18,541.36-.18h15.99s147.61-.05,147.61-.05h3.55s2.33-2.67,2.33-2.67l26.43-30.3,1.92-2.21v-2.93s-.03-80.47-.03-80.47v-2.93s-1.93-2.2-1.93-2.2l-26.45-30.28-2.33-2.67h0Z"/>
      </g>
      <g>
        <path class="st3" d="M450.23,362.33l-.02-71.23c0-8.69-1.97-15.14-5.19-18.23v-.56l69.69-.02,3.09,23.27-.56.14c-5.47-4.06-11.92-5.46-21.31-5.46h-16.54s0,24.4,0,24.4h12.34c6.59,0,14.02-.99,18.51-4.08l.56.14v23.98s-.55.14-.55.14c-4.49-3.08-11.92-4.06-18.51-4.06h-12.34s0,32.39,0,32.39h12.06c11.92,0,24.82-1.97,30.28-7.02l.56.14-3.08,24.82-74.17.02v-.56c3.22-3.09,5.19-9.54,5.18-18.23Z"/>
        <path class="st3" d="M547.82,362.29l25.65-37.16-23.01-34.06c-7.15-10.51-10.94-15.7-14.17-18.22v-.56h41.5s0,.55,0,.55c.14,3.08,1.68,8.27,7.86,18.23l8.56,14.02,9.53-14.02c6.45-9.54,8.13-15.15,8.13-18.23v-.56h30s0,.55,0,.55c-3.08,2.52-7.85,7.57-15.14,18.23l-21.72,31.27,26.37,39.95c6.73,10.23,10.94,15.7,14.17,18.22v.56h-40.8s0-.55,0-.55c-.14-3.08-2.67-8.41-8.56-18.22l-12.07-19.91-12.75,19.91c-6.17,9.54-8.13,15.15-8.13,18.23v.56h-30.57s0-.55,0-.55c3.08-2.52,7.85-7.57,15.14-18.23Z"/>
        <path class="st3" d="M661.4,362.26l-.02-71.23c0-8.69-1.97-15.14-5.19-18.23v-.56h39.54s0,.55,0,.55c-3.22,3.09-5.19,9.54-5.18,18.23l.02,71.23c0,8.69,1.97,15.14,5.19,18.23v.56h-39.54s0-.55,0-.55c3.22-3.09,5.19-9.54,5.18-18.23Z"/>
        <path class="st3" d="M740.2,362.23l-.02-72.07h-11.92c-9.39,0-15.84,1.41-21.31,5.48l-.56-.14,3.08-23.28,91-.03,3.09,23.27-.56.14c-5.47-4.06-11.92-5.46-21.31-5.46h-12.34s.02,72.07.02,72.07c0,8.69,1.97,15.14,5.19,18.23v.56h-39.54s0-.55,0-.55c3.22-3.09,5.18-9.54,5.18-18.23Z"/>
      </g>
      <path class="st3" d="M33.42,325.86c9.81-5.03,23.01-15.47,32.56-27.42h.5v15.97s43.64-.01,43.64-.01c10.31,0,16.85-1.26,20.87-4.66h.5s0,31.69,0,31.69h-.5c-4.03-3.39-10.57-4.65-20.88-4.65h-43.63s0,16.24,0,16.24h-.5c-9.56-11.94-22.77-22.12-32.58-27.15Z"/>
      <rect class="st3" x="160.77" y="268.56" width="70.18" height="108.08"/>
      <polygon class="st3" points="243.6 386.26 173.41 386.29 160.79 376.65 230.97 376.63 243.6 386.26"/>
      <g>
        <g>
          <path class="st0" d="M190.66,301.49c-4.12,0-7.5-3.1-7.86-7.2l-.35-3.93c-.38-4.34,2.83-8.18,7.17-8.56l.71-.06c.24-.02.47-.03.7-.03,4.12,0,7.5,3.1,7.86,7.2l.35,3.93c.19,2.1-.46,4.15-1.81,5.77-1.35,1.62-3.26,2.61-5.36,2.8l-.71.06c-.24.02-.47.03-.7.03h0Z"/>
          <path class="st3" d="M191.03,282.98c3.39,0,6.28,2.59,6.58,6.03l.35,3.93c.32,3.64-2.37,6.85-6,7.17l-.71.06c-.2.02-.4.03-.59.03-3.39,0-6.28-2.59-6.58-6.03l-.35-3.93c-.32-3.64,2.37-6.85,6-7.17l.71-.06c.2-.02.4-.03.59-.03M191.03,280.42c-.27,0-.55.01-.82.04l-.71.06c-5.04.45-8.78,4.91-8.33,9.95l.35,3.93c.42,4.77,4.35,8.37,9.14,8.37.27,0,.55-.01.82-.04l.71-.06c2.44-.22,4.65-1.37,6.23-3.25,1.57-1.88,2.32-4.26,2.11-6.7l-.35-3.93c-.42-4.77-4.35-8.37-9.14-8.37h0Z"/>
        </g>
        <g>
          <path class="st0" d="M179.08,376.59c0-2.28,1.2-5.12,4.51-6.49l19.85-36-7.39-15.21.81,3.32-2.44,6.64-15.59,6.18c-.48.19-.98.29-1.49.29-1.67,0-3.15-1-3.77-2.56l-1.18-2.99c-.82-2.08.2-4.44,2.27-5.26l10.88-4.31,5.72-15.56c.04-.13.09-.25.14-.37l.25-.68.06.02c.75-1.42,1.98-2.51,3.49-3.09l7.83-2.99c.76-.29,1.56-.44,2.37-.44.94,0,1.89.21,2.76.59l17.77,5.27,11.34,10.47c1.64,1.52,1.74,4.08.23,5.73l-2.18,2.36c-.77.83-1.85,1.3-2.98,1.3-1.02,0-2-.38-2.75-1.08l-9.41-8.68-6.79-2.01,3.26,1.92,6.5,16.28,5.09,12.49,19.07-7.66,6.84,15.83-1.23.49c-1.25.49-2.34.73-3.34.73h0c-1.66,0-3.04-.66-4.11-1.96l-24.3,9.55-6.47-14.69,1.01-4.18-8.03,15.25-11.97,22.78h-16.64s0-1.28,0-1.28Z"/>
          <path class="st3" d="M205.41,298.36c.8,0,1.59.18,2.3.51l17.57,5.21,11.12,10.27c1.12,1.04,1.19,2.79.16,3.91l-2.18,2.36c-.55.59-1.29.89-2.04.89-.67,0-1.34-.24-1.88-.73l-9.63-8.89-2.48-.73-4.31-1.28-5.57-1.65-.31,1.2,7.45,4.4,6.34,15.87,5.57,13.68,19.09-7.67,5.82,13.47c-1.02.4-1.98.65-2.87.65-1.43,0-2.68-.63-3.64-2.24l-24.09,9.47-5.8-13.17,2.09-8.67-1.16-.57-2.72,5.17-7.71,14.66h0s-11.61,22.09-11.61,22.09h-9.15s-2.21,0-2.21,0h-3.22c0-1.42.64-4.24,4.13-5.46l20.4-36.99-5.45-11.23-.32-.67-2.06-4.25-2.53-5.22-1.13.55,2.14,8.81-2.11,5.74-15.05,5.97c-.33.13-.68.2-1.02.2-1.1,0-2.14-.66-2.58-1.75l-1.18-2.99c-.56-1.42.13-3.03,1.55-3.59l11.41-4.52,5.87-15.99h0c.47-1.54,1.6-2.87,3.23-3.49l7.83-2.99c.63-.24,1.28-.35,1.92-.35M205.41,295.8h0c-.97,0-1.92.18-2.83.52l-7.83,2.99c-1.44.55-2.66,1.49-3.55,2.7l-.29-.11-.69,1.85c-.06.15-.12.31-.17.47l-.03.08-5.48,14.91-10.35,4.1c-2.73,1.08-4.08,4.19-2.99,6.92l1.18,2.99c.81,2.05,2.76,3.37,4.96,3.37.67,0,1.34-.13,1.96-.38l15.05-5.97,1.07-.42.4-1.08,1.55-4.22,4.62,9.52-19.32,35.04c-3.58,1.67-4.88,4.89-4.88,7.49v2.57s2.57,0,2.57,0h3.22s2.21,0,2.21,0h9.15s1.55,0,1.55,0l.72-1.37,11.61-22.09,5.24-9.95,5.45,12.36.99,2.26,2.29-.9,22.35-8.78c1.49,1.39,3.16,1.73,4.45,1.73,1.16,0,2.41-.27,3.81-.83l2.46-.97-1.05-2.43-5.82-13.47-.99-2.29-2.32.93-16.72,6.72-4.61-11.31-5.94-14.88,1.14.34,9.19,8.48c.99.91,2.27,1.41,3.62,1.41,1.48,0,2.91-.63,3.92-1.72l2.18-2.36c2-2.16,1.86-5.54-.3-7.54l-11.12-10.27-.44-.4-.57-.17-17.41-5.16c-1.01-.44-2.11-.67-3.2-.67h0Z"/>
        </g>
      </g>
      <g>
        <g>
          <path class="st3" d="M262.95,288.79s-3.07,13.32-.46,15.54l.57-.06s1.13-6.95,5.51-13.08"/>
          <path class="st3" d="M268.53,293.98s-3.07,13.32-.46,15.54l.57-.06s1.13-6.95,5.51-13.08"/>
          <path class="st3" d="M275.24,297.84s-3.07,13.32-.46,15.54l.57-.06s1.13-6.95,5.51-13.08"/>
          <path class="st3" d="M282.38,299.52s-3.07,13.32-.46,15.54l.57-.06s1.13-6.95,5.51-13.08"/>
          <path class="st3" d="M289.2,299.51s-3.07,13.32-.46,15.54l.57-.06s1.13-6.95,5.51-13.08"/>
          <path class="st3" d="M296.01,298.81s-3.07,13.32-.46,15.54l.57-.06s1.13-6.95,5.51-13.08"/>
          <path class="st3" d="M278.55,365.72c-1.3-3.27-2.31-6.79-1.37-8.15l.57-.1s2.89,6.42,8.71,11.21"/>
          <path class="st3" d="M287.08,371.48s-6.42-12.07-4.47-14.89l.57-.1s2.89,6.42,8.71,11.21"/>
          <path class="st3" d="M291.9,369.02s-6.42-12.07-4.47-14.89l.57-.1s2.89,6.42,8.71,11.21"/>
          <path class="st3" d="M296.73,365.74s-6.42-12.07-4.47-14.89l.57-.1s2.89,6.42,8.71,11.21"/>
          <path class="st3" d="M301.55,361.8s-6.42-12.07-4.47-14.89l.57-.1s2.89,6.42,8.71,11.21"/>
        </g>
        <path class="st1" d="M310.87,358.82s-4.77-12.81-2.47-15.35l.58-.02s2.02,6.74,7.16,12.26"/>
        <path class="st3" d="M326.02,324.65s-9.21-2.76-17.32-2.69c-7.26.06-14.11,2.88-18.51,8.65-2.76,3.63-7.28,7.79-14.03,9.05-.74.14-1.35.73-1.36,1.48,0,.01,0,.02,0,.04,0,.81.7,1.46,1.51,1.52,2.99.22,11.88.35,18.38-4.85,3.66-2.93,8.81-3.51,12.91-1.23,2.55,1.41,4.4,3.68,3.61,7.29"/>
        <g>
          <path class="st3" d="M339.02,358.46l-51.34,14.56c-9.64.29-13.96-10.31-13.96-10.31,14.73.15,26.92-11.63,32.99-18.84,1.88-2.23,3.61-4.6,5.09-7.12,5.8-9.82,13.23-14.62,13.23-14.62-5.41-8.84-20.33-14.64-20.33-14.64-13.61,5.12-26.33-.1-26.33-.1-9.29-3.6-19.59-14.64-19.59-14.64,0,0,.64-6.43,3.14-12.87,3.06-7.89,11.46-12.33,19.74-10.58l48.27,9.42c7.98,1.56,15.46,5.27,21.23,11,3.44,3.41,6.74,7.87,9.09,13.69,1.35,3.33,3.5,5.7,5.98,7.37,7.43,5.02,17.74,3.8,17.74,3.8l.02,68.03h-10.21s-34.76-24.14-34.76-24.14Z"/>
          <path class="st0" d="M373.37,383.93l-34.58-24.03-50.89,14.44h-.16c-10.44.36-15.03-10.66-15.22-11.13l-.75-1.84,1.99.02c.09,0,.18,0,.27,0,14.12,0,25.91-11.49,31.7-18.37,1.93-2.3,3.61-4.63,4.97-6.94,4.63-7.84,10.23-12.54,12.56-14.28-5.01-6.97-16.16-11.89-18.54-12.88-13.74,4.94-26.27-.08-26.8-.3-9.44-3.66-19.62-14.5-20.05-14.96l-.41-.44.06-.6c.03-.27.69-6.68,3.22-13.22,3.3-8.51,12.23-13.3,21.24-11.4l48.25,9.41c8.52,1.66,16.09,5.59,21.91,11.36,4.07,4.04,7.23,8.79,9.38,14.13,1.13,2.79,2.97,5.07,5.49,6.77,6.92,4.67,16.74,3.59,16.84,3.58l1.47-.17v1.48s.02,69.36.02,69.36h-11.95ZM339.26,357.02l34.93,24.27h8.48s-.02-65.29-.02-65.29c-3.22.15-11.03.01-17.15-4.12-2.96-2-5.13-4.68-6.46-7.97-2.02-5-4.98-9.46-8.79-13.24-5.44-5.4-12.55-9.08-20.55-10.64l-48.27-9.42c-7.76-1.64-15.42,2.47-18.25,9.76-1.97,5.08-2.76,10.22-2.98,11.93,2,2.06,10.81,10.82,18.68,13.87.15.06,12.45,4.97,25.38.1l.47-.18.47.18c.63.24,15.4,6.06,20.98,15.18l.67,1.1-1.08.7c-.07.05-7.26,4.77-12.81,14.18-1.43,2.43-3.19,4.89-5.22,7.3-5.84,6.94-17.53,18.33-31.87,19.25,1.62,2.77,5.46,7.82,11.63,7.73l51.78-14.69Z"/>
        </g>
        <circle class="st0" cx="321.19" cy="292.07" r="6.73"/>
        <path class="st0" d="M325.63,320.71s3.59,4.5,4.63,12.23c0,0-2.34-8.23-10.06-6.8"/>
        <ellipse class="st0" cx="273.62" cy="276.38" rx="4.2" ry="1.93" transform="translate(-89.07 136) rotate(-24.13)"/>
      </g>
      <rect class="st3" x="412.32" y="269.94" width="2.57" height="111.45"/>
    </g>
  </g>
  <g>
    <g>
      <polygon class="st3" points="1293.81 3.59 972.94 29.44 941.31 66.84 976.41 502.54 1013.62 534.4 1334.49 508.55 1366.12 471.15 1331.02 35.45 1293.81 3.59"/>
      <path class="st4" d="M1012.45,537.99l-39.4-33.73-.12-1.43-35.21-437.14,33.49-39.61L1294.98,0l39.4,33.74.12,1.43,35.21,437.14-33.49,39.61-323.76,26.08ZM979.77,500.83l35.01,29.98,317.98-25.61,29.76-35.2-34.87-432.84-35.01-29.98-317.98,25.61-29.76,35.2,34.87,432.84Z"/>
    </g>
    <g>
      <path class="st4" d="M1019.29,93.24l2.08,25.83c.37,4.58,1.53,7.9,3.36,9.39l.02.29-13.5,1.09-.02-.29c1.57-1.76,2.18-5.23,1.81-9.8l-3.96-49.15.29-.02,42.2,34.26-2.08-25.75c-.37-4.58-1.53-7.9-3.36-9.39l-.02-.29,13.43-1.08.02.29c-1.57,1.76-2.18,5.23-1.81,9.8l3.96,49.15-.3.02-42.13-34.34Z"/>
      <path class="st4" d="M1069.31,114.83c-.62-7.67,4.99-10.88,11.58-13.86,3.66-1.63,8.59-3.96,11-5.42-.56-4.19-2.97-6.45-8.43-6-4.65.37-9.44,2.69-12.36,6.05l-.31-.12.59-9.26c3.64-1.78,8.73-3.23,14.11-3.66,9.67-.78,16.28,2.92,17.24,14.88l1.18,14.69c.34,4.21,1.21,6.66,3.25,8.06l.02.29-12.02,3.79-.38-4.72c-2.81,3.87-7.59,5.37-10.98,5.64-7.97.57-13.92-3.11-14.5-10.34ZM1093.25,111.42l-.82-10.18c-1.63,1.02-2.84,1.64-5.33,3.03-5.26,2.95-7.4,4.98-7.11,8.52.32,3.91,3.01,6,6.62,5.71,2.88-.23,6.99-2.72,6.63-7.07Z"/>
      <path class="st4" d="M1113.39,110.69l-1.84-22.8-6.64.54-.02-.3,15.66-16.79.29-.02.77,9.52,9.08-.73c6.57-.53,14.59-1.4,18.87-2.71l2.09,25.98c.51,6.27,2.46,9.38,7.26,9,4.28-.34,8.16-4.74,7.58-11.9l-1.02-12.62c-.31-3.84-1.3-6.95-3.56-8.25l-.02-.29,13.27-3.97,2.49,30.85c.34,4.21,1.2,6.66,3.25,8.06l.02.29-12.1,3.8-.53-6.57c-1.38,3.16-5.45,7.05-12.46,7.61-8.12.65-13.8-3.57-14.68-14.49l-1.55-19.26-17.49,1.41,1.65,20.51c.39,4.87,2,7.27,5.91,6.95,2.21-.18,4.78-1.5,5.91-3.22l.23.13-1.2,8.12c-1.63.95-4.3,1.91-8.07,2.21-7.23.58-12.44-2.34-13.15-11.05Z"/>
      <path class="st4" d="M1188.07,105.63l-1.57-19.48c-.31-3.84-1.3-6.95-3.56-8.25l-.02-.29,13.2-3.96.62,7.75c2.48-4.29,8.6-8.49,15.02-9.01l.89,11.07-.29.1c-.8-.75-2.95-1.55-5.83-1.31-5.09.41-9.36,4.54-8.79,11.63l.88,10.92c.37,4.58,1.23,7.92,3.06,9.41l.02.29-15.13,1.22-.02-.29c1.57-1.76,1.88-5.2,1.51-9.78Z"/>
      <path class="st4" d="M1216.89,102.94c-.62-7.67,4.99-10.88,11.58-13.86,3.66-1.63,8.59-3.96,11-5.42-.56-4.19-2.97-6.45-8.43-6-4.65.38-9.44,2.69-12.36,6.05l-.31-.12.59-9.26c3.64-1.78,8.73-3.23,14.11-3.66,9.67-.78,16.28,2.92,17.24,14.88l1.18,14.69c.34,4.21,1.21,6.66,3.25,8.06l.02.29-12.02,3.79-.38-4.72c-2.81,3.87-7.59,5.37-10.98,5.64-7.97.57-13.92-3.11-14.5-10.34ZM1240.83,99.52l-.82-10.18c-1.63,1.02-2.84,1.64-5.33,3.03-5.26,2.95-7.4,4.98-7.11,8.52.32,3.91,3.01,6,6.63,5.71,2.88-.23,6.99-2.72,6.63-7.07Z"/>
      <path class="st4" d="M1260.9,99.76l-3.12-38.67c-.31-3.84-1.3-6.95-3.56-8.25l-.02-.29,13.2-3.96,4.06,50.33c.37,4.58,1.23,7.92,3.06,9.41l.02.29-15.13,1.22-.02-.29c1.57-1.76,1.88-5.2,1.51-9.78Z"/>
      <path class="st4" d="M1020.98,193.37l-3.02-37.49c-.37-4.58-1.68-7.89-3.5-9.37l-.02-.29,16.83-1.36.02.29c-1.57,1.76-2.25,5.23-1.88,9.81l1.06,13.14,23.76-1.92-1.06-13.14c-.37-4.58-1.67-7.89-3.5-9.37l-.02-.29,16.83-1.36.02.29c-1.57,1.76-2.25,5.23-1.88,9.81l3.02,37.49c.37,4.58,1.6,7.89,3.43,9.38l.02.29-16.83,1.36-.02-.29c1.57-1.76,2.33-5.24,1.96-9.81l-1.36-16.9-23.76,1.92,1.36,16.9c.37,4.58,1.6,7.89,3.43,9.38l.02.29-16.83,1.36-.02-.29c1.57-1.76,2.33-5.24,1.96-9.81Z"/>
      <path class="st4" d="M1072.34,146.08v-.15c2.06-1.95,5.52-6.02,6.96-8.36l.22-.02c1.8,2.08,5.94,5.54,8.3,7.13v.15c-2.06,1.95-5.59,6.02-7.04,8.37l-.22.02c-1.8-2.08-5.94-5.54-8.22-7.14ZM1078.6,188.73l-1.57-19.48c-.31-3.84-1.3-6.95-3.56-8.25l-.02-.29,13.2-3.96,2.51,31.14c.37,4.58,1.23,7.92,3.06,9.41l.02.29-15.13,1.22-.02-.29c1.57-1.76,1.88-5.2,1.51-9.78Z"/>
      <path class="st4" d="M1098.74,195.28l-1.93-9.2.28-.17c3.81,4,9.56,5.25,13.84,4.9,3.47-.28,5.85-2.11,5.66-4.47-.17-2.14-1.75-3.35-6.67-5.4l-4-1.68c-6.84-2.87-9.51-6.44-9.92-11.53-.52-6.5,5.33-12.17,14.56-12.91,1.4-.11,2.59-.13,3.78-.08-2.14-1.69-3.86-4.59-4.12-7.77-.48-5.9,4.4-11.79,13.99-12.57,12.25-.99,18,6.79,18.81,16.76l.18,2.21,14.46-1.17.02.29-4.47,7.19c-1.88-.37-6.12-.32-9.52-.12l1.61,19.92c.43,5.39,2.04,7.86,6.99,7.46,2.29-.18,5.15-1.53,6.27-3.25l.23.13-1.13,8.11c-2.13,1.21-4.6,1.93-8.36,2.23-7.23.58-13.71-2.39-14.47-11.83l-1.77-21.92-6.27.51-.02-.3,5.78-6.63c-.55-6.79-1.33-14.67-10.26-13.95-4.21.34-7.26,2.96-6.89,7.54.27,3.32,2.42,6.12,5.33,8.11l1.75,8.77-.22.09c-2.03-2.14-6.55-3.85-11.35-3.47-2.95.24-5.37,1.55-5.21,3.61.17,2.07,1.35,2.86,4.66,4.3l5.07,2.12c6.23,2.69,10.6,6.2,11.06,11.88.7,8.71-6.12,13.49-14.75,14.19-4.35.35-10.04-.23-13-1.92Z"/>
      <path class="st4" d="M1159.63,172.1c-1.05-12.99,7.45-21.84,19.7-22.83,12.1-.98,21.98,6.4,23.03,19.39,1.05,12.99-7.52,21.85-19.63,22.82-12.25.99-22.05-6.39-23.1-19.38ZM1191.21,170.37c-.73-7.22-4.95-15.35-11.96-14.78-6.27.5-9.26,6.76-8.48,14.65.81,7.29,5.11,15.48,12.2,14.91,6.12-.49,9.11-6.83,8.24-14.78Z"/>
      <path class="st4" d="M1209.95,178.14l-1.57-19.48c-.31-3.84-1.3-6.95-3.56-8.26l-.02-.29,13.2-3.96.62,7.75c2.48-4.29,8.6-8.49,15.02-9.01l.89,11.07-.29.1c-.8-.75-2.95-1.55-5.82-1.31-5.09.41-9.37,4.54-8.79,11.63l.88,10.92c.37,4.58,1.23,7.92,3.06,9.41l.02.29-15.13,1.22-.02-.29c1.57-1.76,1.88-5.2,1.51-9.78Z"/>
      <path class="st4" d="M1251.76,190l4.59-11.29-15.12-25.45c-1.88-3.12-4.21-6.12-5.4-7.07l-.02-.29,15.5-1.25c-.06,2.01.68,4.77,2.71,8.77l7.03,13.47,4.85-14.43c1.38-4.05,1.57-7.18,1.2-9.08l11.51-.93.02.22c-1.22,1.43-2.9,4.54-4.31,8.3l-14.59,39.2c-1.02,2.98-1.88,6.17-1.66,8.9l-11.96.96-.02-.29c1.36-1.59,3.82-5.14,5.68-9.74Z"/>
      <path class="st4" d="M1003.79,264.87l9.16-45.75.29-.02,17.99,29.67,12.78-32.15.29-.02,19.77,47.13c1.84,4.38,4.3,8.2,6.05,9.61l.02.29-16.31,1.31c.09-2.61-.46-5.68-1.78-9.14l-9.67-25.07-11.25,27.2-.3.02-15.02-24.12-4.46,24.8c-.81,4.67-.55,7.92.04,9.73l-12.55,1.01-.02-.29c2-2.83,3.72-8.25,4.95-14.21Z"/>
      <path class="st4" d="M1072.9,258.93l-1.21-14.98c-.31-3.84-1.3-6.95-3.56-8.25l-.02-.29,13.27-3.97,2.09,25.98c.5,6.27,2.46,9.38,7.26,9,4.21-.34,8.16-4.74,7.58-11.9l-1.02-12.62c-.31-3.84-1.3-6.95-3.56-8.26l-.02-.29,13.2-3.96,2.49,30.85c.34,4.21,1.21,6.66,3.25,8.06l.02.29-12.02,3.79-.53-6.57c-1.45,3.24-5.45,7.05-12.53,7.62-8.04.65-13.81-3.57-14.69-14.49Z"/>
      <path class="st4" d="M1119.08,267.91l-1.93-9.2.28-.17c3.81,4,9.56,5.25,13.84,4.9,3.47-.28,5.8-1.8,5.59-4.31-.18-2.21-1.69-3.5-6.61-5.56l-4-1.68c-6.84-2.87-9.51-6.44-9.92-11.53-.52-6.5,5.48-12.18,14.71-12.92,4.72-.38,7.73.12,10.17.89l1.75,8.77-.21.09c-2.11-2.21-6.48-3.86-11.27-3.47-2.95.24-5.59,1.57-5.43,3.63.17,2.07,1.34,2.86,4.65,4.3l5.07,2.12c6.23,2.69,10.68,6.2,11.13,11.88.7,8.71-6.19,13.5-14.83,14.19-4.35.35-10.04-.23-13-1.92Z"/>
      <path class="st4" d="M1150.83,247.22c-1.05-12.99,8.1-22.04,19.47-22.96,13.8-1.11,19.1,8.42,19.85,17.71l-28.34,2.28v.07c.88,10.85,8.29,16.12,17,15.42,5.24-.42,9.52-2.55,12.39-5.68l.23.13c-2.27,5.01-7.99,11.49-18.02,12.3-10.85.87-21.51-6.07-22.57-19.28ZM1178.58,236.67c-.9-3.79-3.57-6.47-7.92-6.12-4.28.35-7.17,3.25-8.31,7.43l16.24-1.31Z"/>
      <path class="st4" d="M1197.9,248.85l-1.21-14.98c-.31-3.84-1.3-6.95-3.56-8.25l-.02-.29,13.27-3.97,2.09,25.98c.5,6.27,2.46,9.38,7.26,9,4.21-.34,8.16-4.74,7.58-11.9l-1.02-12.62c-.31-3.84-1.3-6.95-3.56-8.26l-.02-.29,13.2-3.96,2.49,30.85c.34,4.21,1.2,6.66,3.25,8.06l.02.29-12.02,3.79-.53-6.57c-1.45,3.24-5.45,7.05-12.53,7.62-8.04.65-13.81-3.57-14.69-14.49Z"/>
      <path class="st4" d="M1244.83,249.6l-1.58-19.56c-.31-3.84-1.3-6.95-3.56-8.25l-.02-.29,12.76-3.85.55,6.79c1.37-3.3,5.44-7.2,11.93-7.72,5.31-.43,9.48,1.46,11.87,6.25,1.93-3.72,6.65-7.82,12.78-8.24,7.75-.55,13.07,3.63,13.95,14.55l1.25,15.5c.37,4.58,1.23,7.92,3.06,9.41l.02.29-15.2,1.22-.02-.29c1.57-1.76,1.96-5.21,1.59-9.78l-1.11-13.72c-.54-6.64-2.34-9.62-6.91-9.25-3.98.32-7.7,4.04-7.02,12.45l.94,11.66c.37,4.58,1.31,7.92,3.13,9.4l.02.29-15.35,1.24-.02-.29c1.57-1.76,1.96-5.21,1.59-9.78l-1.11-13.73c-.54-6.64-2.26-9.62-6.91-9.25-3.99.32-7.7,4.04-7.02,12.45l.94,11.66c.37,4.58,1.31,7.92,3.13,9.4l.02.29-15.2,1.23-.02-.29c1.57-1.76,1.88-5.2,1.51-9.78Z"/>
    </g>
    <g>
      <path class="st4" d="M1121.25,474.74l-1.37-17.01c-.16-1.98-.67-3.27-2.42-3.91v-.15s9.48-3.72,9.48-3.72l1.95,24.17c.18,2.28.83,3.93,1.75,4.67v.15s-10.35.83-10.35.83v-.15c.77-.88,1.15-2.61.96-4.88Z"/>
      <path class="st4" d="M1131.96,464.49c-.72-8.96,3.65-15.23,11.48-15.86,7.82-.63,13.15,4.86,13.87,13.82s-3.65,15.23-11.48,15.86c-7.82.63-13.15-4.86-13.87-13.82ZM1149,463.11c-.42-5.22-1.73-10.4-5.21-10.12-3.49.28-3.95,5.6-3.53,10.82.42,5.22,1.72,10.4,5.21,10.12,3.49-.28,3.95-5.6,3.53-10.82Z"/>
      <path class="st4" d="M1159.91,462.23c-.72-8.96,3.65-15.23,11.48-15.86,7.82-.63,13.15,4.86,13.87,13.82s-3.65,15.23-11.48,15.86c-7.82.63-13.15-4.86-13.87-13.82ZM1176.95,460.86c-.42-5.22-1.73-10.4-5.21-10.12s-3.95,5.6-3.53,10.82c.42,5.22,1.73,10.4,5.21,10.12s3.95-5.6,3.53-10.82Z"/>
      <path class="st4" d="M1189.97,469.2l-.78-9.73c-.15-1.91-.57-3.47-1.7-4.11v-.15s7.88-2.04,7.88-2.04l.27,3.31c.59-1.45,2.46-3.45,5.91-3.73,2.39-.19,4.49.64,5.77,2.83,1.05-1.67,3.56-3.58,6.35-3.8,3.6-.29,6.57,1.73,7.03,7.38l.61,7.53c.18,2.28.54,3.95,1.45,4.69v.15s-9.28.75-9.28.75v-.15c.77-.88.93-2.59.74-4.87l-.51-6.35c-.25-3.12-1.09-3.87-2.67-3.74-1.32.11-2.6,1.25-2.31,4.77l.46,5.73c.18,2.28.61,3.94,1.52,4.68v.15s-9.35.75-9.35.75v-.15c.77-.88.93-2.59.74-4.87l-.51-6.35c-.25-3.12-1.09-3.87-2.67-3.74-1.32.11-2.6,1.25-2.31,4.77l.46,5.73c.18,2.28.61,3.94,1.52,4.68v.15s-9.28.75-9.28.75v-.15c.77-.88.85-2.58.67-4.86Z"/>
    </g>
    <path class="st4" d="M1121.54,417.55c-5.36,1.19-10.98,5.32-10.98,5.32-.07-5.57,6.17-8.36,6.17-8.36-6.22-.13-10.22,2.22-10.22,2.22.47-6.76,15.7-9.63,15.7-9.63,6.51-7.37,13.47-15.41,15.3-17.84-6-.53-14.38-2.26-21.25-7.29-3.42,6.36-6.71,14.23-8.36,18.93-.72,2.09-3.02,6.58-7,7.54,0,0,1.69-2.67,1.7-5.71,0,0-7.12,2.86-16.26,9.04-.41-3.52,3.79-8.04,3.79-8.04-5.48,1.2-11,5.07-11,5.07-.03-5.07,5.95-7.96,5.95-7.96-5.97-.15-10.09,2.21-10.09,2.21.46-6.88,15.7-9.76,15.7-9.76,6.63-7.38,15.07-17.57,17-20.26-1.92-3.4-3.77-7.43-4.94-12.53-.71-4.13-1.83-8.6-3.43-11.13-5.56-1.33-9.18-5.35-10.44-6.77-.76-.07-1.2-.79-2.02-1.49-2.26.31-3.38.53-6.15.75-1.76.14-2.91.11-4.68.12-1.66,3.05-4.31,4.79-6.57,4.97-2.9.23-7.03-2.22-7.27-5.25-1.8-.36-4.1-2.08-4.26-4.09-.05-.63.05-1.02.14-1.41-1.03-.17-3.06-1.78-3.23-3.92-.1-1.26.47-2.07,1.93-2.82-2.51.33-4.29.22-6.1-.14-2.31,1.2-3.93,1.58-6.32,1.78-4.16.33-7.45-1.18-7.78-5.33-.01-.13-.04-.5.01-1.4,9.69-.91,20.67-3.06,29.98-5.59.62-.18,3.48-.91,4.61-1,5.29-.43,9.69,2.26,13.52,2.59.55-1.06,1.34-2.26,2.17-2.96,1.24-1.88,5.79-8.45,13.97-9.11,3.53-.29,7.78.51,9.58,4.04,19.94,6.76,20.67,39.41,40.07,37.85,3.65-.29,6.52-2.43,8.81-5.53l-2.77-9.16,5.7,4.61,3.1-5.58-2.22-10.22,5.57,4.62c.98-1.98,2.23-3.86,3.61-5.49l-1.83-14.81,6.11,9.78c1.65-1.53,3.31-2.93,5.35-4.36l.03-15.34,6.09,12.69c1.48-.5,3.43-1.42,5.95-1.75l2.11-14.75,4.04,14c2.29.07,4.59.39,6.52.62l4.12-13.39,1.79,14.31c1.95.6,3.65,1.23,5.48,1.97l5.4-8.55.56,11.62c1.32.66,2.8,1.68,4.17,2.96l5.27-7.02-.38,11.06,3.87,4,3.99-5.52-.47,9.93c3.24,4.05,5.74,8.29,8.23,12.4,10.42,17.54,14.21,34.73,32.85,33.23,1.64-.13,4.75-.89,6.59-1.55-2.76,2-6.66,3.83-11.83,4.25-33.63,2.71-31.71-42.71-65.73-39.96-1.86,5.22-.05,11.92-.05,11.92,11.67.07,22.88,8.55,22.88,8.55l-.35.41c-7.94.64-14.76,18.18-18.01,26.68-.63,1.57-2.76,6.69-7.01,7.41,0,0,1.57-2.54,1.68-5.84,0,0-7.11,2.98-16.24,9.3-.27-3.4,3.78-8.17,3.78-8.17-5.63.96-11.25,5.09-11.25,5.09-.04-5.2,6.19-8.11,6.19-8.11-6.22-.13-10.21,2.34-10.21,2.34.58-7.02,15.71-9.63,15.71-9.63,8.04-8.76,15.18-16.18,15.18-16.18-11.42,1.43-18.83-.89-23.84-4.8-7.85,9.51-12.48,26.11-35.45,30.5-6.34,4.7-11.41,18.92-14,26.1-.6,1.95-3.15,6.59-7.15,7.29,0,0,1.7-2.54,1.71-5.59,0,0-7.14,2.6-16.28,8.79-.24-3.02,3.68-7.78,3.68-7.78ZM1043.24,325.47c-1.75.27-3.26.39-4.78.51.03.38.05.63.21,1,.26.11,1.02.04,1.27.02,2.27-.18,3.2-1.15,3.3-1.53ZM1074.11,341.88c-1.27-.02-3.54.16-4.87.9l-.13-.12c.51-1.56,3.11-2.28,5.13-2.44,1.89-.15,3.67-.04,6.57-.28,7.31-.59,10.32-2.48,12.51-5.19l.25-.02c.05.63-.23,1.92-.34,2.06.64.07,1.4.01,1.89-.15.86-1.97.92-4.38.69-7.16-.26-3.28-.96-5.63-1.97-7.19-3.4.27-7.94.64-11.04-.12-3.73-.71-8.05-2.39-11.2-2.14-1.01.08-3.01.37-3.38.53-7.71,1.89-13.8,3.39-23.21,4.66-.47,2.07-2.68,2.88-4.7,3.04-.25.02-.5.04-.89-.06,1.23,1.17,3.02,1.28,5.03,1.12,3.02-.24,5.47-1.33,8.12-3.06l.14.12c-.09.39-.42,1.05-.54,1.18.78.19,2.3.2,3.56.09,2.9-.23,6-1.12,8.83-2.11,1.35-.49,2.58-.97,3.68-1.56l.13.12c-.32.79-1.11,1.99-1.95,2.57-3.61,2.45-9.51,3.17-9.28,5.95.09,1.13.95,2.33,1.49,2.8.21-.52,1.05-1.1,1.89-1.67,2.54-1.47,6.47-3.06,8.64-4.5l.14.12c-.25,1.67-1.31,2.64-2.4,3.24-2.17,1.32-6.72,3.08-6.56,5.09.1,1.26,1.09,2.57,2.01,2.88.21-.53.78-1.33,1.5-1.9,1.89-1.67,6.43-3.56,8.24-4.72l.14.11c-.27,1.42-1.07,2.5-2.4,3.24-1.93,1.17-5.38,2.46-5.2,4.73.13,1.64,2.8,3.32,4.69,3.17,1.89-.15,3.67-1.69,4.8-3.3ZM1089.72,318.56c-1.26.1-2.3,1.33-2.62,2.11,1.65,0,3.54-.16,5.68-.33-.71-.96-1.93-1.87-3.06-1.78ZM1094.63,338.57c-.76.06-1.89.15-2.67-.04-1.32.87-2.66,1.61-2.78,1.62.43.6,1.49,1.15,2.37,1.08,1.39-.11,2.41-1.59,3.08-2.66ZM1110.91,340.81c-.21-2.64-2.03-4.78-4.38-5.61l1.51-.12c2.27-.18,6.88-1.19,6.4-7.11s-5.2-6.3-7.47-6.12c-.76.06-1.5.25-1.5.25,2.06-1.18,3.64-3.59,3.44-6.11-.36-4.41-4.03-6.01-7.94-5.7-4.41.35-7.97,3.3-10.07,5.63l2.22-.81c4.22-1.1,8.46,5.91,9.1,13.85.64,7.94-2.42,15.54-6.78,15l-2.3-.19c2.43,1.83,6.41,4.05,10.82,3.69,3.53-.29,7.3-2.24,6.94-6.65ZM1098.61,317.08l3.52-3.58,4.55,1.41-3.54,3.2-4.52-1.03ZM1100.56,341.39l4.28-1.99,4.04,2.97-4.29,1.87-4.03-2.84ZM1102.73,328.92l4.46-2.89,4.99,2.13-4.58,2.91-4.86-2.14Z"/>
  </g>
  <g>
    <g>
      <polygon class="st4" points="1681.02 165.81 1359.77 145.11 1323.08 177.57 1294.98 613.78 1327.21 650.67 1648.45 671.36 1685.15 638.91 1713.24 202.7 1681.02 165.81"/>
      <path class="st3" d="M1649.68,674.93l-324.14-20.88-34.13-39.06.09-1.43,28.19-437.65,38.85-34.36,324.14,20.88,34.12,39.06-.09,1.43-28.19,437.65-38.85,34.36ZM1328.88,647.28l318.35,20.51,34.53-30.54,27.91-433.34-30.33-34.72-318.35-20.51-34.53,30.54-27.91,433.34,30.33,34.71Z"/>
    </g>
    <g>
      <path class="st3" d="M1398.71,208.83l-2.05,31.92c-.29,4.58.23,8.03,1.82,9.76l-.02.3-10.79-.69.02-.3c1.8-1.52,2.76-4.87,3.06-9.45l3.17-49.21.3.02,37.76,46.2,2.05-31.92c.29-4.58-.22-8.03-1.82-9.76l.02-.3,10.79.69-.02.3c-1.8,1.52-2.76,4.87-3.06,9.45l-3.17,49.21-.3-.02-37.76-46.2Z"/>
      <path class="st3" d="M1447.56,244.03c.52-8.05,6.09-10.44,14.17-12.59,4.75-1.25,8.83-2.4,11.79-3.32.11-5.11-1.88-8.88-8.82-9.32-4.58-.29-9.5,1.24-12.72,3.93l-.29-.17,1.57-7.02c3.26-1.13,8.58-1.9,13.09-1.61,9.68.62,14.72,5.32,13.95,17.29l-.96,14.85c-.29,4.58.33,6.4,1.92,8.14l-.02.29-9.27,2.22.33-5.17c-3.35,3.64-8.61,4.71-12.15,4.41-8.19-.68-13-5.44-12.59-11.94ZM1472.54,243.26l.69-10.64-6.82,2.23c-6.89,2.15-10.92,3.75-11.23,8.55-.31,4.88,2.7,7.59,7.13,7.88,3.25.21,9.84-1.89,10.23-8.02Z"/>
      <path class="st3" d="M1490.34,246.63l1.6-24.9-6.43-.41.02-.3,13.91-12.09.3.02-.53,8.27,8.42.54c7.09.46,15.47.62,18.77.02l-1.66,25.79c-.45,6.94.95,11.71,7.75,12.15,5.62.36,11.76-4.06,12.39-13.82l.72-11.23c.25-3.84-.43-7.08-2.48-8.69l.02-.29,10.16-2.17-2.01,31.18c-.29,4.58.33,6.4,1.92,8.14l-.02.29-9.27,2.22.48-7.39c-2.09,3.65-7.86,6.91-14.14,6.51-8.94-.58-13.21-5.67-12.54-16.16l1.34-20.83-20.17-1.3-1.51,23.49c-.31,4.8.9,7.92,5.85,8.24,2.07.13,5.38-.54,7.23-2.8l.22.09-1.76,6.56c-1.44.5-3.93,1.08-7.84.83-7.17-.46-11.26-3.77-10.73-11.97Z"/>
      <path class="st3" d="M1563.33,251.48l1.26-19.58c.25-3.84-.43-7.08-2.48-8.69l.02-.29,10.15-2.17-.53,8.2c3.22-5.06,10.72-7.47,16.85-7.08l-.54,8.35-.3-.02c-.63-.63-1.96-1.83-5.14-2.04-5.99-.39-11.13,4.7-11.6,12.01l-.76,11.75c-.29,4.58.23,8.03,1.82,9.76l-.02.3-11.82-.76.02-.3c1.8-1.52,2.76-4.87,3.06-9.45Z"/>
      <path class="st3" d="M1590.73,253.24c.52-8.05,6.09-10.44,14.17-12.59,4.75-1.25,8.83-2.4,11.79-3.32.11-5.11-1.88-8.88-8.82-9.32-4.58-.29-9.5,1.24-12.71,3.93l-.29-.17,1.57-7.02c3.26-1.13,8.58-1.9,13.09-1.61,9.68.62,14.72,5.32,13.95,17.29l-.96,14.85c-.29,4.58.33,6.4,1.92,8.14l-.02.29-9.27,2.22.33-5.17c-3.35,3.64-8.61,4.71-12.15,4.41-8.19-.67-13-5.44-12.59-11.94ZM1615.71,252.48l.69-10.64-6.82,2.23c-6.89,2.15-10.92,3.75-11.23,8.55-.31,4.88,2.7,7.59,7.13,7.88,3.25.21,9.84-1.89,10.23-8.02Z"/>
      <path class="st3" d="M1633.44,255.99l2.5-38.79c.25-3.84-.44-7.08-2.48-8.69l.02-.29,10.16-2.17-3.24,50.39c-.29,4.58.22,8.03,1.82,9.76l-.02.3-11.82-.76.02-.3c1.8-1.52,2.76-4.87,3.06-9.45Z"/>
      <path class="st3" d="M1388.4,314.4l2.42-37.53c.29-4.58-.45-8.04-2.04-9.78l.02-.29,12.86.83-.02.29c-1.8,1.52-2.98,4.85-3.28,9.43l-.9,14.04,28.81,1.85.9-14.04c.29-4.58-.45-8.04-2.04-9.78l.02-.29,12.86.83-.02.29c-1.8,1.52-2.98,4.85-3.28,9.43l-2.42,37.53c-.29,4.58.45,8.04,2.04,9.78l-.02.29-12.86-.83.02-.29c1.81-1.52,2.99-4.85,3.28-9.43l1.16-17.95-28.81-1.85-1.16,17.95c-.29,4.58.45,8.04,2.04,9.78l-.02.29-12.86-.83.02-.29c1.8-1.52,2.98-4.85,3.28-9.43Z"/>
      <path class="st3" d="M1445.06,318.05l1.26-19.58c.25-3.84-.43-7.08-2.48-8.69l.02-.3,10.16-2.17-2.01,31.18c-.29,4.58.22,8.03,1.82,9.76l-.02.29-11.82-.76.02-.29c1.8-1.52,2.76-4.87,3.06-9.45ZM1444.76,275.45v-.07c1.79-1.22,4.93-3.99,6.3-5.6h.15c1.15,1.79,3.91,4.93,5.52,6.37v.07c-1.79,1.22-4.93,3.99-6.3,5.6h-.15c-1.15-1.79-3.91-4.94-5.53-6.37Z"/>
      <path class="st3" d="M1461.69,327.06l-.53-7.82.3-.13c2.96,4.72,7.8,6.81,12.67,7.12,4.36.28,8.13-1.85,8.34-5.03.19-2.88-1.69-4.78-6.76-7.86l-4.36-2.65c-6.28-3.82-8.36-7.29-8.04-12.17.35-5.39,5.63-10.25,14.57-9.67,1.92.12,3.46.37,5,.77-1.79-2.12-3.27-5.7-3.07-8.73.38-5.91,5.6-10.84,14.54-10.27,12.26.79,14.33,11.31,13.86,18.62l-.18,2.73,14.85.96-.02.29-4.63,5.12c-2.17-.81-7.04-1.34-10.5-1.64l-1.53,23.72c-.31,4.8.9,7.92,5.85,8.24,2.07.13,5.38-.54,7.23-2.8l.22.09-1.76,6.56c-1.44.5-3.93,1.08-7.84.83-7.17-.46-11.19-4.8-10.66-13l1.54-23.86-6.43-.41.02-.29,6.84-5.94c.36-5.62.16-14.01-9.22-14.62-4.66-.3-8.15,2.15-8.45,6.73-.21,3.25,1.36,6.62,3.99,9.53l.43,7.08-.23.13c-1.49-2.25-5.56-4.74-10.8-5.07-3.99-.26-6.76,1.35-6.93,4.01-.19,2.88,1.07,4.15,5.64,6.89l4.86,2.91c6.15,3.66,9.18,7.19,8.84,12.44-.51,7.91-7.43,11.69-15.63,11.16-4.14-.27-9.25-1.49-11.99-3.96Z"/>
      <path class="st3" d="M1523.42,313c.86-13.3,11.26-20.49,22.57-19.77,11.15.72,20.62,9.19,19.77,22.49-.86,13.3-11.33,20.49-22.49,19.77-11.3-.73-20.7-9.2-19.84-22.5ZM1558.08,315.16c.3-9.26-4.79-16.63-12.99-17.16-8.27-.53-13.68,6.17-13.97,15.42-.23,9.26,4.85,16.78,13.13,17.31,8.2.53,13.61-6.32,13.84-15.58Z"/>
      <path class="st3" d="M1573.53,326.32l1.26-19.58c.25-3.84-.43-7.08-2.48-8.69l.02-.3,10.16-2.17-.53,8.2c3.22-5.06,10.72-7.47,16.85-7.08l-.54,8.35-.29-.02c-.63-.63-1.96-1.83-5.14-2.04-5.98-.39-11.13,4.7-11.6,12.01l-.76,11.75c-.29,4.58.22,8.03,1.82,9.76l-.02.29-11.82-.76.02-.29c1.8-1.52,2.76-4.87,3.06-9.45Z"/>
      <path class="st3" d="M1610.81,344.15l6.48-10.71-11.52-28.56c-.96-2.44-2.74-5.82-3.51-6.53l.02-.29,10.86.7c-.1,1.55-.18,3.99,1.2,7.87l7,19.15,9.33-18.09c2.03-3.88,2.17-6.09,2.27-7.64l8.57.55v.22c-.87.61-2.57,2.8-4.34,6.1l-21.4,39.65c-1.01,1.79-2.19,4.09-2.39,7.12l-9.68-.62v-.22c1.26-.88,4.11-3.74,7.1-8.67Z"/>
      <path class="st3" d="M1357.75,382.46l15.42-43.67.29.02,12.46,35.74,16.87-33.86.29.02,12.34,49.17c1.12,4.52,2.86,8.64,4.3,10.37l-.02.3-11.82-.76c.61-2.56.45-5.76-.37-9.3l-7.44-31.93-15.72,30.96-.3-.02-11.6-31.91-10.14,29.54c-1.47,4.36-1.53,7.62-1.14,9.65l-10.2-.66.02-.3c2.38-2.44,4.72-7.63,6.72-13.37Z"/>
      <path class="st3" d="M1428.31,386.93l.99-15.37c.25-3.84-.44-7.08-2.48-8.69l.02-.29,10.16-2.17-1.66,25.79c-.45,6.94.95,11.71,7.75,12.15,5.62.36,11.76-4.06,12.39-13.82l.72-11.23c.25-3.84-.43-7.08-2.48-8.69l.02-.29,10.16-2.17-2.01,31.18c-.29,4.58.33,6.4,1.93,8.14l-.02.29-9.27,2.22.48-7.39c-2.09,3.65-7.86,6.91-14.14,6.51-8.94-.58-13.21-5.67-12.54-16.16Z"/>
      <path class="st3" d="M1471.56,401.88l-.53-7.82.3-.13c2.96,4.72,7.8,6.81,12.67,7.12,4.36.28,8.02-1.34,8.25-4.81.19-2.96-1.61-5-6.68-8.07l-4.36-2.65c-6.28-3.82-8.36-7.29-8.04-12.17.35-5.39,6-10.22,14.94-9.65,4.43.29,7.18,1.35,9.48,2.61l.43,7.08-.23.13c-1.49-2.25-5.41-4.72-10.66-5.06-3.99-.26-7.13,1.32-7.3,3.98-.19,2.88,1.07,4.15,5.64,6.89l4.86,2.91c6.15,3.66,9.33,7.2,8.99,12.45-.51,7.91-7.58,11.68-15.78,11.15-4.14-.27-9.25-1.49-11.99-3.96Z"/>
      <path class="st3" d="M1506.12,386c.82-12.71,11.11-20.43,22.49-19.7,12.41.8,16.61,9.38,15.99,19.06l-30.59-1.97c-.11.51-.14.96-.17,1.47-.68,10.64,5.71,18.47,15.91,19.12,5.69.37,10.56-1.55,14.03-4.81l.29.17c-3.14,4.92-8.87,9.82-18.84,9.17-10.64-.68-19.97-8.93-19.1-22.52ZM1536.63,379.88c-.16-4.39-3.24-8.44-8.85-8.8-5.25-.34-10.09,2.24-12.42,7.43l21.28,1.37Z"/>
      <path class="st3" d="M1553.02,394.95l.99-15.37c.25-3.84-.44-7.08-2.48-8.69l.02-.29,10.16-2.17-1.66,25.79c-.45,6.94.95,11.71,7.75,12.15,5.62.36,11.76-4.06,12.39-13.82l.72-11.23c.25-3.84-.43-7.08-2.48-8.69l.02-.29,10.16-2.17-2.01,31.18c-.29,4.58.33,6.4,1.92,8.14l-.02.29-9.27,2.22.48-7.39c-2.09,3.65-7.87,6.91-14.14,6.51-8.94-.58-13.21-5.67-12.54-16.16Z"/>
      <path class="st3" d="M1598.62,402.12l1.26-19.58c.25-3.84-.44-7.08-2.48-8.69l.02-.29,10.15-2.17-.45,6.95c2.08-3.43,6.95-6.53,12.93-6.14,5.91.38,9.67,3.14,11.03,8.5,2.32-3.78,7.52-7.38,14.02-6.89,8.2.6,12.25,5.61,11.58,16.1l-1.02,15.89c-.29,4.58.23,8.03,1.82,9.76l-.02.3-11.82-.76.02-.3c1.81-1.52,2.76-4.87,3.06-9.45l.95-14.7c.45-6.94-.73-11.7-6.79-12.08-5.32-.34-10.88,4.12-11.5,13.88l-.76,11.75c-.29,4.58.23,8.03,1.82,9.76l-.02.3-11.82-.76.02-.3c1.8-1.52,2.76-4.87,3.06-9.45l.95-14.7c.45-6.94-.73-11.69-6.79-12.08-5.32-.34-10.88,4.12-11.5,13.88l-.76,11.75c-.29,4.58.23,8.03,1.82,9.76l-.02.3-11.82-.76.02-.3c1.81-1.52,2.76-4.87,3.06-9.45Z"/>
    </g>
    <g>
      <path class="st3" d="M1450.07,607.33l.16-.17c1.69,1.88,4.19,3.15,6.95,3.33,4.05.26,7.4-1.92,7.68-6.3.28-4.34-2.84-6.87-6.82-7.12-2.54-.16-4.54.48-5.8,1.14l-.1-.12,3.19-13.97,15.55,1,.3,5.11-.11.03c-1.12-1.03-3.14-1.68-6.38-1.89l-5.19-.33-1.39,6.08c.79-.17,2.23-.26,3.45-.18,5.85.38,9.84,4.4,9.46,10.21s-5.25,9.89-11.8,9.47c-3.82-.25-7.44-2.51-9.16-6.28Z"/>
      <path class="st3" d="M1474.08,599.64c.57-8.79,5.63-14.56,13.09-14.08,7.47.48,11.75,6.85,11.18,15.64-.57,8.79-5.63,14.56-13.09,14.08-7.46-.48-11.74-6.85-11.18-15.64ZM1492.1,600.8c.37-5.77-.92-11.47-5.15-11.74-4.23-.27-6.24,5.21-6.61,10.99-.37,5.77.93,11.43,5.15,11.7,4.23.27,6.24-5.17,6.61-10.95Z"/>
      <path class="st3" d="M1501.91,610.81l.63-9.75c.12-1.91-.14-3.52-1.16-4.32v-.15s6.57-.98,6.57-.98l-.22,3.38c.91-1.53,3.19-3.16,6.43-2.95,2.65.17,4.56,1.4,5.4,3.93,1.22-1.69,3.84-3.37,6.89-3.14,3.86.29,6.18,2.72,5.83,8.17l-.5,7.72c-.15,2.28.04,3.99.83,4.85v.15s-7.58-.49-7.58-.49v-.15c.91-.75,1.35-2.43,1.49-4.71l.44-6.84c.21-3.31-.46-4.9-2.74-5.05-1.99-.13-4.08,1.44-4.35,5.63l-.37,5.81c-.15,2.28.08,3.99.87,4.86v.15s-7.66-.49-7.66-.49v-.15c.91-.75,1.35-2.43,1.49-4.71l.44-6.84c.21-3.31-.42-4.9-2.74-5.05-1.98-.13-4.08,1.44-4.35,5.63l-.37,5.81c-.15,2.28.08,3.99.87,4.86v.15s-7.59-.49-7.59-.49v-.15c.91-.75,1.31-2.43,1.46-4.71Z"/>
    </g>
    <path class="st3" d="M1486.89,544.26s6.41-18.96.8-34.01c-6.01-4.95-11.18-11.23-17.16-14.78.41,3.45.41,5.47-.94,8.68-3.97,8.61-14.17,13.52-14.17,13.52,0,0,14.4,2.57,16.05,10.28,0,0-4.48-3.2-11.32-3.13,0,0,6.58,3.97,6.57,10.05,0,0-5.88-5.06-12.39-6.24,0,0,4.57,5.74,4.32,9.65-11.29-9.59-27.57-14.31-27.57-14.31l-.09-.64c3.52-1.55,11.56-10.4,12.17-19.86.3-4.67-.89-9.81-3.35-12.88-7.12,2.45-14.9,19.05-39.37,17.47-6.94-.45-18.12-3.83-21.05-11.36,3.38,2.5,7.65,3.15,11.43,3.4,31.02,2,28-59.24,72.39-56.38,23.46,1.51,28.13,17.39,49.95,18.79,14.12.91,17.29-4.97,30.26-5.78,1.8-2.42,5.52-3.19,8.68-2.99,8.2.53,12.84,7.03,14.12,8.89.84.69,1.65,1.88,2.22,2.93,3.82-.39,8.18-3.15,13.48-2.81,1.13.07,4,.76,4.63.93,9.34,2.37,20.36,4.35,30.06,5.1.07.89.05,1.27.04,1.39-.27,4.16-3.53,5.72-7.7,5.46-2.4-.15-4.02-.51-6.35-1.67-1.8.39-3.58.53-6.09.24,1.47.73,2.05,1.53,1.97,2.79-.14,2.14-2.14,3.79-3.17,3.97.1.39.2.77.16,1.4-.13,2.02-2.4,3.77-4.19,4.16-.19,3.03-4.28,5.55-7.18,5.36-2.27-.15-4.95-1.84-6.65-4.86-1.77.01-2.92.07-4.68-.05-2.77-.18-3.9-.38-6.16-.65-.81.71-1.23,1.44-2,1.52-4.39,5.29-9.85,7.47-14.53,7.3-1.59,1.04-3.04,1.96-4.26,3.27l.16,25.08s15.53,2.65,17.44,10.37c0,0-4.73-3.22-12.33-3.2,0,0,7.34,4.02,7.2,10.09,0,0-6.26-5.09-13.14-6.29,0,0,4.69,5.75,4.44,9.66-12.1-8.76-25.5-13.04-25.5-13.04,0,0,2.89-7.54,2.28-15.81-6.23,2.38-12.47,2.87-16.77,2.85l-.68,18.44s15.52,2.77,17.18,10.48c0,0-4.73-3.22-12.09-3.06,0,0,7.09,3.88,7.22,9.83,0,0-6.4-4.84-13.27-6.3,0,0,4.82,5.75,4.57,9.66-12.11-8.63-25.64-12.92-25.64-12.92ZM1560.34,489.09l-2.29.23c-4.34.61-7.53-6.94-7.02-14.89.51-7.95,4.64-15.02,8.88-13.99l2.23.78c-2.13-2.29-5.74-5.18-10.16-5.47-3.91-.25-7.56,1.41-7.85,5.83-.16,2.52,1.46,4.91,3.54,6.05,0,0-.75-.17-1.51-.22-2.27-.15-6.98.31-7.37,6.24-.38,5.93,4.24,6.86,6.51,7l1.51.1c-2.33.86-4.12,3.03-4.29,5.67-.28,4.42,3.52,6.31,7.05,6.53,4.42.28,8.35-1.87,10.76-3.87ZM1541.07,473.79l4.95-2.21,4.5,2.82-4.83,2.22-4.63-2.83ZM1544.59,487.95l3.99-3.04,4.31,1.92-3.99,2.91-4.32-1.8ZM1546.36,460.46l4.53-1.48,3.57,3.52-4.5,1.1-3.6-3.15ZM1588.85,486.87c.15-2.27-3.32-3.51-5.27-4.64-1.35-.72-2.16-1.79-2.45-3.2l.13-.12c1.83,1.13,6.4,2.95,8.32,4.59.72.55,1.31,1.35,1.53,1.87.91-.32,1.88-1.65,1.96-2.91.13-2.02-4.45-3.71-6.64-4.99-1.1-.58-2.18-1.53-2.45-3.2l.13-.12c2.19,1.41,6.14,2.93,8.71,4.36.85.56,1.7,1.12,1.92,1.64.54-.47,1.38-1.68,1.45-2.82.18-2.78-5.73-3.41-9.38-5.79-.85-.56-1.66-1.75-1.99-2.54l.14-.12c1.1.58,2.34,1.04,3.7,1.5,2.85.94,5.96,1.78,8.87,1.96,1.26.08,2.78.05,3.56-.15-.12-.13-.46-.79-.56-1.18l.13-.12c2.68,1.69,5.14,2.74,8.17,2.93,2.02.13,3.8,0,5.02-1.2-.39.1-.64.09-.89.07-2.02-.13-4.25-.91-4.75-2.97-9.43-1.11-15.54-2.52-23.28-4.28-.37-.15-2.38-.41-3.39-.47-3.15-.2-7.45,1.54-11.17,2.32-3.09.82-7.63.52-11.04.3-.99,1.58-1.65,3.95-1.86,7.23-.18,2.77-.08,5.19.81,7.14.5.16,1.25.21,1.89.12-.12-.13-.42-1.42-.38-2.05l.25.02c2.23,2.68,5.28,4.52,12.6,4.99,2.9.19,4.68.05,6.57.17,2.02.13,4.63.81,5.17,2.36l-.13.12c-1.35-.72-3.62-.87-4.89-.82,1.17,1.59,2.97,3.1,4.86,3.23,1.89.12,4.54-1.61,4.64-3.25ZM1564.25,485.42c-.13,0-1.47-.73-2.81-1.57-.77.2-1.91.13-2.67.08.69,1.06,1.74,2.52,3.12,2.61.88.06,1.93-.51,2.35-1.12ZM1566.02,465.9c-.33-.78-1.39-1.99-2.65-2.07-1.13-.07-2.34.86-3.03,1.83,2.14.14,4.04.26,5.68.24ZM1614.54,471.43c.15-.37.17-.62.19-1-1.51-.1-3.03-.19-4.79-.43.1.39,1.05,1.33,3.32,1.48.25.02,1.01.06,1.27-.04Z"/>
  </g>
</svg>