<?xml version="1.0" encoding="UTF-8"?>
<svg id="Layer_1" xmlns="http://www.w3.org/2000/svg" version="1.1" viewBox="0 0 1298.2 799.88">
  <!-- Generator: Adobe Illustrator 30.5.0, SVG Export Plug-In . SVG Version: 2.1.4 Build 167)  -->
  <defs>
    <style>
      .st0 {
        fill: #efe9e2;
      }
    </style>
  </defs>
  <g>
    <path class="st0" d="M355.7,733l35.49-82.03h.52l39.52,87.1c2.6,5.72,8.19,13.65,10.27,15.34v.52h-21.84c0-3.77-.91-9.49-4.94-18.59l-4.94-11.31h-39.26l-4.68,11.31c-3.77,9.1-4.29,14.82-3.77,18.59h-18.2v-.52c4.16-4.55,8.32-12.22,11.83-20.41ZM405.62,714.54l-15.99-36.4-15.08,36.4h31.07Z"/>
    <path class="st0" d="M486.09,704.01c0-33.28,26.13-53.04,54.99-53.04,14.43,0,24.44,3.25,28.86,5.85l1.95,15.21-.52.13c-5.33-5.72-14.95-11.83-30.94-11.83-20.41,0-39.52,15.47-39.52,40.95,0,24.05,16.25,45.37,41.47,45.37,6.89,0,13.52-1.43,17.16-3.38v-34.97c0-8.06-2.99-14.04-5.98-16.9v-.52h23.92v.52c-2.99,2.86-4.68,8.84-4.68,16.9v22.75c0,8.06,1.04,12.09,4.03,14.95v.52c-6.89,4.94-19.37,9.49-35.75,9.49-27.95,0-54.99-17.94-54.99-52Z"/>
    <path class="st0" d="M640.14,736.51v-66.04c0-8.06-1.43-14.04-4.03-16.9v-.52h57.85l1.95,13.78-.52.13c-3.9-3.38-13.39-4.81-23.53-4.81h-18.46v32.5h17.03c6.11,0,13-.52,17.16-3.38l.52.13v15.47l-.52.13c-4.16-2.86-11.05-3.38-17.16-3.38h-17.03v41.21h22.88c14.17,0,21.45-1.82,24.57-4.94l.39.26-1.82,13.78h-63.31v-.52c2.6-2.86,4.03-8.84,4.03-16.9Z"/>
    <path class="st0" d="M755.84,736.51v-66.04c0-8.06-1.43-14.04-4.03-16.9v-.52h21.32v.52c-2.6,2.86-4.03,8.84-4.03,16.9v66.04c0,8.06,1.43,14.04,4.03,16.9v.52h-21.32v-.52c2.6-2.86,4.03-8.84,4.03-16.9Z"/>
    <path class="st0" d="M831.37,720.78v-50.31c0-8.06-1.69-14.04-4.68-16.9v-.52h22.62v.52c-2.99,2.86-4.68,8.84-4.68,16.9v47.71c0,20.02,8.19,28.21,21.97,28.21,19.24,0,27.82-17.68,27.82-32.37v-43.55c0-8.06-1.69-14.04-4.68-16.9v-.52h22.62v.52c-2.99,2.86-4.68,8.84-4.68,16.9v66.04c0,8.06,1.69,14.04,4.68,16.9v.52h-17.94c.91-3.51,1.04-8.32,1.04-14.95-3.25,7.28-13.65,17.03-30.55,17.03-18.98,0-33.54-9.88-33.54-35.23Z"/>
    <path class="st0" d="M958.64,653.57v-.52h21.97c0,3.77,0,9.49,4.03,18.59l25.48,58.11,24.18-58.11c3.77-9.1,4.16-14.82,4.16-18.59h17.94v.52c-2.08,1.69-5.85,7.15-9.49,15.34l-38.35,87.1h-.52l-39.91-87.1c-2.6-5.72-7.41-13.65-9.49-15.34Z"/>
    <path class="st0" d="M1106.84,736.51l22.36-34.06-21.45-31.98c-6.63-9.88-10.66-14.56-13.65-16.9v-.52h21.71v.52c.13,2.86,2.08,7.8,7.93,16.9l14.43,22.88,14.95-22.88c5.72-8.84,7.54-14.04,7.54-16.9v-.52h18.59v.52c-2.86,2.34-7.41,7.02-14.04,16.9l-21.19,31.46,24.18,34.58c6.63,9.49,10.66,14.56,13.65,16.9v.52h-21.71v-.52c-.13-2.86-1.95-8.06-7.93-16.9l-17.03-25.22-15.86,25.22c-5.59,8.97-7.54,14.04-7.54,16.9v.52h-18.98v-.52c2.86-2.34,7.54-6.89,14.04-16.9Z"/>
    <path class="st0" d="M1219.8,753.41l48.23-91.26h-18.59c-14.17,0-22.36,2.34-25.48,5.46l-.39-.26,2.6-14.3h61.1v.52l-48.1,91.26h24.96c14.17,0,22.1-1.82,25.22-4.94l.39.26-2.47,13.78h-67.47v-.52Z"/>
  </g>
  <g>
    <path class="st0" d="M415.92,536.77c2.6,6.63,10.79,24.96,13.26,29.12.91,1.56,2.47,4.29,7.41,11.18h-21.71c.91-3.77.91-5.07.91-5.72,0-6.89-2.34-12.61-4.03-16.77l-5.85-14.17c-11.83-.39-19.37-.52-34.97-.65l-5.46,11.05c-7.28,14.69-8.84,19.76-9.36,26.26h-18.2c11.96-16.12,12.35-16.77,26.39-43.68l27.43-54.86,24.18,58.24ZM402.4,531.18l-12.74-31.46-14.56,30.42,27.3,1.04Z"/>
    <path class="st0" d="M561.91,561.34v-18.46c0-4.68-.52-5.72-5.33-15.6h21.45c-3.38,5.33-4.68,8.06-4.94,12.22-.26,3.77-.39,19.63-.39,21.84l.26,12.09c-6.24,1.69-16.12,4.55-30.81,4.55-42.64,0-56.55-27.69-56.55-47.06s14.17-52.65,55.25-52.65c8.58,0,16.51,1.04,30.55,2.99l-.26,17.68c-5.2-4.03-15.08-11.83-32.24-11.83-23.53,0-40.69,16.77-40.69,40.17,0,16.51,9.75,42.12,46.28,42.12,8.84,0,13.65-1.3,17.29-2.21l.13-5.85Z"/>
    <path class="st0" d="M683.45,492.44c-5.59-1.95-14.3-4.81-32.24-5.33l.26,8.19v28.47h17.81l13.65.26-7.54,12.87c-9.62-3.77-12.35-4.29-23.66-4.94l-.65,28.86c-.13,4.94-.13,5.59.39,8.19,20.93-.52,29.51-2.21,44.07-8.84l-8.97,16.9h-50.83c3.25-7.15,5.07-11.18,5.07-22.62v-53.56c0-6.89-1.17-15.21-4.03-21.58h53.69l-7.02,13.13Z"/>
    <path class="st0" d="M765.87,559.13c.13,5.2.52,8.32,3.77,17.94h-18.46c3.51-9.88,4.03-11.96,4.03-20.28v-55.9c0-11.31-.65-13.52-3.9-21.58h18.33c-2.99,6.5-3.9,8.84-3.9,18.2l.13,61.62Z"/>
    <path class="st0" d="M903.41,555.62c0,11.57.65,14.95,3.64,21.45h-14.04c.39-4.55.26-9.23,0-13.78-10.14,8.71-21.45,14.69-31.98,14.69-12.09,0-21.19-6.5-26-12.61-5.72-7.15-5.72-12.61-5.72-16.12l-.52-48.62c-.13-7.54-.52-13.52-4.29-21.32h18.85c-1.69,4.42-3.38,9.1-3.25,23.66v30.29c0,5.59,0,14.04,2.34,20.15,4.94,13.39,22.36,13.39,24.44,13.39,13.39,0,21.58-8.97,24.44-15.47,1.69-3.77,1.69-7.8,1.69-13.26v-24.83c0-21.06-.39-23.53-3.38-33.93h16.9c-2.99,10.01-3.12,10.4-3.12,31.46v44.85Z"/>
    <path class="st0" d="M1010.66,577.98h-6.76l-24.05-61.62c-8.06-20.54-13.65-30.16-19.5-37.05h20.54c-.26,3.9-.39,7.54,2.34,15.47,0,.13,13.39,36.92,24.57,63.31,6.24-11.31,15.34-34.19,19.37-44.33,3.12-7.93,9.1-22.88,9.1-29.64,0-1.69-.13-3.25-.39-4.81h19.11c-2.34,2.47-4.03,4.68-7.15,10.01-1.04,1.82-10.53,22.62-11.7,25.35l-25.48,63.31Z"/>
    <path class="st0" d="M1161.72,493.35l-20.15,33.41,18.07,28.73c7.28,11.7,10.53,16.12,17.29,21.58h-23.4l.26-3.38c0-6.37-3.12-11.44-5.33-15.08l-13.13-21.58-11.7,18.72c-7.54,12.09-8.19,17.03-8.84,21.32h-20.93c7.15-6.63,13.13-13.91,20.28-25.35l14.95-24.31-13.91-22.49c-5.72-9.1-11.57-18.33-19.5-25.61h20.15c.26,3.51.39,5.46,5.72,15.08,6.89,12.35,9.36,16.38,13.52,22.49l13.65-22.49c3.25-5.33,4.81-8.58,5.2-15.08h17.94c-2.86,3.77-3.12,4.29-6.5,8.45l-3.64,5.59Z"/>
    <path class="st0" d="M1237.11,568.23c18.33.39,30.03.65,46.67-7.28l-5.59,16.12h-59.8c3.9-6.11,7.8-12.48,11.31-18.72l10.01-18.2,19.11-36.53c2.86-5.33,3.64-6.76,7.93-16.25h-3.12c-21.58,0-31.85,5.59-41.6,10.79,3.51-7.93,6.89-15.73,8.06-18.85h54.08l-47.06,88.92Z"/>
  </g>
  <g>
    <path class="st0" d="M353.85,93.89v-37.31c0-15.51-.09-24.7-.26-27.56-.26-4.16-2.12-6.63-5.59-7.41-1.21-.26-2.9-.39-5.07-.39-1.47,0-2.21-.39-2.21-1.17s.95-1.17,2.86-1.17c2.6,0,6.11.06,10.53.19s7.06.2,7.93.2,3.36-.07,7.48-.2c4.12-.13,7.08-.19,8.9-.19s2.73.39,2.73,1.17-.77,1.17-2.31,1.17c-1.03,0-2.27.13-3.73.39-2.91.52-4.5,2.99-4.75,7.41-.17,2.86-.26,12.05-.26,27.56v24.05c0,1.82.04,4.77.13,8.84.09,4.07.13,7.24.13,9.49,0,9.45-1.04,17.12-3.12,23.01-3.29,9.36-10.66,17.55-22.1,24.57-.78.43-2.95,1.56-6.5,3.38-1.04.52-1.91.78-2.6.78s-1.04-.35-1.04-1.04c0-.52.95-1.3,2.86-2.34,1.91-1.04,3.99-2.69,6.24-4.94,4.5-4.59,7.37-10.75,8.58-18.46.78-4.94,1.17-14.95,1.17-30.03Z"/>
    <path class="st0" d="M438.74,104.16l12.87-84.76c.35-2.25,1.08-3.38,2.21-3.38,1.04,0,2.21,1.34,3.51,4.03l35.49,73.32,35.36-74.23c.95-2.08,1.91-3.12,2.86-3.12,1.13,0,1.91,1.34,2.34,4.03l11.83,80.34c.61,4.33,1.34,7.45,2.21,9.36.87,1.91,2.25,3.17,4.16,3.77,2.86.87,5.55,1.3,8.06,1.3,1.39,0,2.08.3,2.08.91,0,.95-1.13,1.43-3.38,1.43-11.01,0-19.8-.26-26.39-.78-2.52-.17-3.77-.65-3.77-1.43,0-.61.45-1.08,1.36-1.43.91-.35,1.15-2.21.71-5.59l-7.8-57.2h-.52l-28.34,59.14c-2.34,4.86-3.94,7.29-4.81,7.29-.78,0-2.3-2.17-4.55-6.51-8.23-15.72-13.22-25.58-14.95-29.57-2.95-6.42-7.45-16.06-13.52-28.92h-.52l-6.76,51.74c-.26,1.99-.39,4.03-.39,6.11s1.3,3.55,3.9,4.16c1.91.44,3.73.65,5.46.65,1.3,0,1.95.3,1.95.91,0,.95-1.04,1.43-3.12,1.43s-4.75-.06-8-.19c-3.25-.13-5.13-.19-5.65-.19-.69,0-2.62.06-5.79.19-3.16.13-5.52.19-7.08.19s-2.34-.48-2.34-1.43c0-.61.69-.91,2.08-.91s2.69-.13,3.9-.39c2.6-.52,4.38-3.94,5.33-10.27Z"/>
    <path class="st0" d="M634.65,56.58v5.72h.65c7.8-8.06,16.86-17.59,27.17-28.6,4.33-5.11,6.5-8.36,6.5-9.75,0-1.47-.58-2.34-1.75-2.6-1.17-.26-1.75-.69-1.75-1.3,0-.78.69-1.17,2.08-1.17.87,0,3.01.06,6.44.19,3.42.13,5.74.2,6.96.2,1.39,0,3.94-.07,7.67-.2,3.73-.13,6.24-.19,7.54-.19,1.47,0,2.21.39,2.21,1.17s-.65,1.17-1.95,1.17c-2.51,0-5.03.48-7.54,1.43-4.42,1.65-9.1,4.9-14.04,9.75-12.83,12.48-22.19,21.84-28.08,28.08,2.17,2.86,7.97,9.4,17.42,19.63,9.1,9.88,15.04,16.12,17.81,18.72,4.16,3.99,7.11,6.67,8.84,8.06,3.38,2.77,6.67,4.79,9.88,6.04,3.21,1.26,5.85,1.88,7.93,1.88,1.13,0,1.69.35,1.69,1.04,0,.87-1.04,1.3-3.12,1.3h-11.31c-4.16,0-7.15-.09-8.97-.26-3.21-.26-6.07-1.13-8.58-2.6-1.82-1.04-4.33-2.99-7.54-5.85-2.6-2.25-8.67-8.88-18.2-19.89-8.84-10.23-14.13-16.55-15.86-18.98l-1.43-1.95h-.65v11.83c0,14.82.13,24.09.39,27.82.26,4.25,1.82,6.59,4.68,7.02,2.25.35,4.38.52,6.37.52,1.12,0,1.69.35,1.69,1.04,0,.87-.82,1.3-2.47,1.3-2.77,0-6.39-.06-10.85-.19-4.46-.13-7.08-.19-7.86-.19s-3.23.06-7.35.19c-4.12.13-7.13.19-9.03.19-1.73,0-2.6-.43-2.6-1.3,0-.61.95-1,2.86-1.17,1.3-.17,2.6-.3,3.9-.39,1.99-.43,3.25-2.82,3.77-7.15.43-3.38.65-12.61.65-27.69v-22.88c0-15.51-.09-24.7-.26-27.56-.26-4.16-2.12-6.63-5.59-7.41-1.21-.26-2.9-.39-5.07-.39-1.47,0-2.21-.39-2.21-1.17s.95-1.17,2.86-1.17c2.6,0,6.11.06,10.53.19s6.98.2,7.67.2c.95,0,3.42-.07,7.41-.2,3.99-.13,6.76-.19,8.32-.19,1.82,0,2.73.39,2.73,1.17s-.61,1.17-1.82,1.17c-3.03,0-5.16.52-6.37,1.56-1.21,1.04-1.91,3.05-2.08,6.04-.17,2.99-.26,12.24-.26,27.75Z"/>
    <path class="st0" d="M836.4,94.15v14.3c0,2.51-.56,4.07-1.69,4.68-7.36,3.9-17.79,5.85-31.29,5.85-17.23,0-31.2-4.03-41.93-12.09-12.03-9.01-18.05-21.97-18.05-38.87,0-9.79,2.3-18.59,6.89-26.39,3.99-6.85,9.23-12.22,15.73-16.12,9.36-5.63,21.02-8.45,34.97-8.45,8.23,0,15.9.69,23.01,2.08,4.07.78,7.5,1.26,10.27,1.43,1.21.09,1.82.61,1.82,1.56,0-.78-.15.91-.46,5.07-.3,4.16-.45,9.58-.45,16.25,0,1.82-.48,2.73-1.43,2.73-.69,0-1.13-.56-1.3-1.69-.61-4.68-2.08-8.28-4.42-10.79-2.34-2.51-5.81-4.72-10.4-6.63-5.72-2.34-11.92-3.51-18.59-3.51-10.75,0-19.33,2.68-25.74,8.05-7.97,6.66-11.96,17.27-11.96,31.8s4.16,25.88,12.48,35.05c8.32,9.17,19.24,13.76,32.76,13.76,7.19,0,11.4-.91,12.61-2.72.61-.78.91-1.94.91-3.5v-12.18c0-7.43-.04-12.52-.13-15.29-.09-4.15-1.95-6.61-5.59-7.39-1.21-.26-2.9-.39-5.07-.39-1.3,0-1.95-.34-1.95-1.04,0-.87.91-1.3,2.73-1.3,2.51,0,6.02.07,10.53.2,4.51.13,7.28.19,8.32.19,1.3,0,3.79-.06,7.48-.19,3.68-.13,6.26-.2,7.73-.2,1.73,0,2.6.43,2.6,1.3,0,.7-.51,1.04-1.52,1.04s-2.26.13-3.75.39c-3.16.61-4.83,3.08-5,7.41-.09,2.77-.13,7.97-.13,15.6Z"/>
    <path class="st0" d="M912.58,44.88l1.43,54.6c.26,8.67,1.78,13.48,4.55,14.43.26.09,1.95.3,5.07.65,2.6.35,3.9.78,3.9,1.3,0,.87-1,1.3-2.99,1.3-3.29,0-6.72-.06-10.27-.19-3.55-.13-5.5-.19-5.85-.19.08,0-1.56.06-4.94.19-3.38.13-6.42.19-9.1.19-1.91,0-2.86-.43-2.86-1.3,0-.61,1.12-1,3.38-1.17,1.56-.17,3.08-.35,4.55-.52,1.65-.52,2.73-1.91,3.25-4.16.43-1.99.69-5.98.78-11.96l1.17-76.96c.08-2.95.65-4.42,1.69-4.42.69,0,2.3,1.34,4.81,4.03,7.1,7.63,20.54,21.54,40.3,41.73,8.84,9.19,18.37,19.07,28.6,29.64h.65l-1.3-58.37c-.09-3.21-.26-5.42-.52-6.63-.69-2.6-1.99-4.29-3.9-5.07-1.3-.52-3.6-.78-6.89-.78-1.39,0-2.08-.39-2.08-1.17s1.13-1.17,3.38-1.17c2.6,0,5.72.06,9.36.19,3.64.13,5.76.2,6.37.2.09,0,1.6-.07,4.55-.2,2.95-.13,5.68-.19,8.19-.19,1.99,0,2.99.39,2.99,1.17s-.78,1.17-2.34,1.17c-4.33,0-6.98,1.43-7.93,4.29-.43,1.56-.69,3.94-.78,7.15l-1.43,82.03c-.09,2.69-.65,4.03-1.69,4.03-.95,0-2.43-.95-4.42-2.86-8.32-8.23-21.1-20.97-38.35-38.22-5.89-5.81-12.52-12.7-19.89-20.67-3.73-4.07-7.41-8.1-11.05-12.09h-.39Z"/>
    <path class="st0" d="M1140.47,127.56l-20.41-11.96c-5.98,2.25-12.78,3.38-20.41,3.38-17.51,0-31.07-5.68-40.69-17.03-8.15-9.53-12.22-21.06-12.22-34.58,0-12.48,4.12-23.53,12.35-33.15,9.88-11.44,23.53-17.16,40.95-17.16,15.69,0,28.38,4.44,38.09,13.32,9.71,8.88,14.56,20.86,14.56,35.94,0,10.14-2.73,19.46-8.19,27.95-4.08,6.15-8.88,11.09-14.43,14.82l26.13,13.39c20.1,10.31,37.96,15.47,53.56,15.47,9.01,0,17.46-1.52,25.35-4.55,1.13-.43,1.78-.65,1.95-.65.78,0,1.17.39,1.17,1.17,0,.52-.52,1.04-1.56,1.56-13.61,6.5-27.34,9.75-41.21,9.75-9.54,0-18.46-1.39-26.78-4.16-7.71-2.51-17.12-7.02-28.21-13.52ZM1104.46,112.48c7.71,0,14.04-2.34,18.98-7.02,7.37-7.02,11.05-18.89,11.05-35.62,0-14.73-3.99-26.43-11.96-35.1-7.11-7.62-15.6-11.44-25.48-11.44-9.36,0-16.86,3.08-22.49,9.23-6.5,7.11-9.75,17.72-9.75,31.85,0,14.82,3.99,26.69,11.96,35.62,7.45,8.32,16.68,12.48,27.69,12.48Z"/>
    <path class="st0" d="M1264.75,118.98c-18.9,0-33.74-4.7-44.53-14.11-10.79-9.4-16.18-22.21-16.18-38.42,0-14.47,5.06-26.32,15.19-35.55s23.88-13.84,41.26-13.84c6,0,12.3.43,18.91,1.3,3.04.61,7.38,1.34,13.04,2.21,1.3.09,1.96.61,1.96,1.56,0,.26-.11,1-.33,2.21-.22,1.56-.38,3.21-.49,4.94-.11,3.81-.27,8.49-.49,14.04-.17,1.99-.7,2.99-1.56,2.99s-1.3-.95-1.3-2.86c-.09-4.5-1.78-8.49-5.07-11.96-2.25-2.34-5.68-4.25-10.27-5.72-4.94-1.56-10.31-2.34-16.12-2.34-10.4,0-18.55,2.69-24.44,8.06-7.98,7.28-11.96,18.5-11.96,33.67,0,14.3,4.63,25.87,13.91,34.71,8.06,7.71,17.07,11.57,27.04,11.57,5.55,0,9.84-.35,12.87-1.04,4.59-1.04,8.23-3.12,10.92-6.24,2.34-2.6,3.81-5.46,4.42-8.58.35-1.73.91-2.6,1.69-2.6s1.17.65,1.17,1.95c0,.95-.3,3.47-.91,7.54-.69,4.51-1.32,7.71-1.88,9.62-.56,1.91-1.71,3.21-3.45,3.9-4.94,1.99-12.74,2.99-23.4,2.99Z"/>
  </g>
  <g>
    <path class="st0" d="M349.73,282.11v-60.45c0-8.06-1.82-14.04-4.81-16.9v-.52h29.64v.52c-2.99,2.86-4.68,8.84-4.68,16.9v68.12c0,20.28-12.09,33.54-31.46,38.22l-.26-.52c9.88-9.75,11.57-23.27,11.57-45.37Z"/>
    <path class="st0" d="M443.45,280.42l22.49-78.78h.52l27.3,54.47,26.91-54.47h.52l27.95,85.28c2.6,7.93,6.37,14.95,9.23,17.68v.52h-28.73c.52-4.55,0-10.01-1.82-16.25l-13.39-45.24-23.53,46.02h-.52l-22.88-44.33-11.31,42.77c-2.08,8.06-2.08,13.78-1.3,17.03h-22.1v-.52c3.9-4.68,7.67-13.91,10.66-24.18Z"/>
    <path class="st0" d="M618.56,287.7v-66.04c0-8.06-1.82-14.04-4.81-16.9v-.52h29.64v.52c-2.99,2.86-4.68,8.84-4.68,16.9v26.65l23.14-26.39c7.41-8.45,11.05-14.3,11.05-17.68h24.57v.52c-4.55,2.86-8.71,6.89-17.94,17.03l-22.75,24.96,32.11,40.95c7.28,9.36,12.09,14.04,15.34,16.9v.52h-30.55c0-3.51-4.29-11.05-9.23-17.42l-25.74-32.76v32.76c0,8.06,1.69,14.04,4.68,16.9v.52h-29.64v-.52c2.99-2.86,4.81-8.84,4.81-16.9Z"/>
    <path class="st0" d="M747.26,255.2c0-32.63,26.26-53.04,57.72-53.04,13.13,0,24.18,2.99,28.86,5.46l2.47,18.59-.52.13c-5.98-6.11-16.12-11.83-30.55-11.83-17.81,0-35.88,12.22-35.88,37.96,0,23.4,14.04,42.25,37.31,42.25,4.03,0,7.8-.65,10.27-1.69v-31.59c0-8.06-2.47-14.04-5.46-16.9v-.52h30.29v.52c-2.99,2.86-4.68,8.84-4.68,16.9v18.33c0,6.89.91,13.13,3.64,16.77v.52c-6.24,4.94-19.24,10.14-36.27,10.14-31.85,0-57.2-19.24-57.2-52Z"/>
    <path class="st0" d="M922.37,242.2v45.5c0,8.06,1.56,14.04,4.55,16.9v.52h-23.79v-.52c2.99-2.86,4.55-8.84,4.55-16.9v-86.58h.52l69.03,65.91v-45.37c0-8.06-1.56-14.04-4.55-16.9v-.52h23.66v.52c-2.99,2.86-4.55,8.84-4.55,16.9v86.58h-.52l-68.9-66.04Z"/>
    <path class="st0" d="M1109.96,306.55c-2.47.39-4.81.65-7.41.65-29.64,0-54.34-20.15-54.34-52.52s24.7-52.52,54.34-52.52,54.21,20.15,54.21,52.52c0,20.15-9.49,35.49-23.79,44.2,22.23,13.91,39.91,23.66,59.15,23.66,9.23,0,16.9-1.17,24.31-5.33l.13.52c-7.67,8.84-21.19,15.47-36.66,15.47-24.7,0-47.19-13.65-69.94-26.65ZM1134.66,258.19c0-20.8-10.14-43.68-33.54-43.68-19.63,0-30.81,15.86-30.81,36.4,0,21.71,10.4,43.81,33.54,43.81,19.76,0,30.94-15.6,30.81-36.53Z"/>
    <path class="st0" d="M1207.98,255.2c0-32.63,24.05-53.04,56.55-53.04,11.83,0,22.1,2.73,26.65,5.07l2.6,18.72-.52.13c-6.24-6.76-15.47-11.31-28.08-11.18-19.11,0-35.1,12.74-35.1,37.57s15.08,41.99,38.09,41.99c13.39,0,23.66-5.59,29.51-13l.52.13-3.9,19.37c-5.33,3.25-15.34,6.24-28.34,6.24-31.2,0-57.98-19.24-57.98-52Z"/>
  </g>
  <g>
    <path class="st0" d="M.84,255.01c0-7.53,6.06-12.24,13.32-12.24,3.03,0,5.58.69,6.66,1.26l.57,4.29-.12.03c-1.38-1.41-3.72-2.73-7.05-2.73-4.11,0-8.28,2.82-8.28,8.76,0,5.4,3.24,9.75,8.61,9.75.93,0,1.8-.15,2.37-.39v-7.29c0-1.86-.57-3.24-1.26-3.9v-.12h6.99v.12c-.69.66-1.08,2.04-1.08,3.9v4.23c0,1.59.21,3.03.84,3.87v.12c-1.44,1.14-4.44,2.34-8.37,2.34-7.35,0-13.2-4.44-13.2-12Z"/>
    <path class="st0" d="M26.13,262.51v-7.92c0-1.56-.3-2.85-1.17-3.45v-.12l5.46-1.17v3.15c1.14-1.65,3.75-3.15,6.36-3.15v4.5l-.12.03c-.3-.33-1.14-.72-2.31-.72-2.07,0-3.93,1.53-3.93,4.41v4.44c0,1.86.24,3.24.93,3.9v.12h-6.15v-.12c.69-.66.93-2.04.93-3.9Z"/>
    <path class="st0" d="M42.33,268.66l2.22-4.41-5.28-10.77c-.66-1.32-1.5-2.61-1.95-3.03v-.12h6.3c-.09.81.12,1.95.81,3.63l2.4,5.67,2.43-5.67c.69-1.59.87-2.85.78-3.63h4.68v.09c-.54.54-1.32,1.74-2.01,3.21l-7.17,15.36c-.51,1.17-.96,2.43-.96,3.54h-4.86v-.12c.6-.6,1.71-1.95,2.61-3.75Z"/>
    <path class="st0" d="M53.85,258.73c0-5.13,3.21-8.88,7.77-8.88,1.83,0,3.3.78,3.78,1.47v-4.53c0-1.56-.3-2.85-1.17-3.45v-.12l5.46-1.17v20.34c0,1.71.27,2.73,1.05,3.36v.12l-5.04,1.14v-2.61c-.63,1.44-2.61,2.61-4.86,2.61-4.59,0-6.99-3.84-6.99-8.28ZM65.67,258.79c-.03-2.94-1.35-6.39-3.87-6.39-2.25,0-3.51,2.52-3.48,5.64.06,2.97,1.41,6.42,3.93,6.42,2.19,0,3.48-2.49,3.42-5.67Z"/>
    <path class="st0" d="M72.06,258.43c0-5.28,3.72-8.58,8.7-8.58s8.67,3.3,8.67,8.58-3.75,8.58-8.67,8.58-8.7-3.3-8.7-8.58ZM84.87,258.76c-.06-2.94-1.5-6.36-4.35-6.36-2.55,0-3.96,2.43-3.9,5.64.09,2.97,1.56,6.42,4.44,6.42,2.49,0,3.9-2.46,3.81-5.7Z"/>
    <path class="st0" d="M91.8,262.51v-7.95c0-1.56-.3-2.85-1.17-3.45v-.12l5.28-1.14v2.58c.66-1.26,2.76-2.58,5.46-2.58,3.3,0,5.37,1.89,5.37,6.33v6.33c0,1.86.24,3.24.93,3.9v.12h-6.21v-.12c.69-.66.96-2.04.96-3.9v-5.58c0-2.67-.78-4.17-2.79-4.17-1.68,0-3.54,1.47-3.54,4.89v4.86c0,1.86.27,3.24.96,3.9v.12h-6.18v-.12c.69-.66.93-2.04.93-3.9Z"/>
    <path class="st0" d="M119.28,262.51v-15.24c0-1.86-.36-3.21-1.02-3.9v-.12h8.34c5.94,0,8.31,2.04,8.31,5.46,0,2.49-1.29,4.17-3.6,5.13,3.03.84,4.95,2.64,4.95,5.58,0,4.32-2.97,7.11-9.12,7.11h-8.88v-.12c.66-.69,1.02-2.04,1.02-3.9ZM130.23,249.37c-.03-2.04-1.26-3.39-4.02-3.39h-2.28v6.93h1.14c3.54,0,5.19-.96,5.16-3.54ZM131.31,259.6c-.06-2.73-1.8-4.14-5.22-4.14h-2.16v8.31h2.37c3.18,0,5.07-1.32,5.01-4.17Z"/>
    <path class="st0" d="M138.33,258.43c0-5.28,3.72-8.58,8.7-8.58s8.67,3.3,8.67,8.58-3.75,8.58-8.67,8.58-8.7-3.3-8.7-8.58ZM151.14,258.76c-.06-2.94-1.5-6.36-4.35-6.36-2.55,0-3.96,2.43-3.9,5.64.09,2.97,1.56,6.42,4.44,6.42,2.49,0,3.9-2.46,3.81-5.7Z"/>
    <path class="st0" d="M158.16,262.51v-15.72c0-1.56-.3-2.85-1.17-3.45v-.12l5.46-1.17v20.46c0,1.86.24,3.24.93,3.9v.12h-6.15v-.12c.69-.66.93-2.04.93-3.9Z"/>
    <path class="st0" d="M165.39,258.73c0-5.13,3.21-8.88,7.77-8.88,1.83,0,3.3.78,3.78,1.47v-4.53c0-1.56-.3-2.85-1.17-3.45v-.12l5.46-1.17v20.34c0,1.71.27,2.73,1.05,3.36v.12l-5.04,1.14v-2.61c-.63,1.44-2.61,2.61-4.86,2.61-4.59,0-6.99-3.84-6.99-8.28ZM177.21,258.79c-.03-2.94-1.35-6.39-3.87-6.39-2.25,0-3.51,2.52-3.48,5.64.06,2.97,1.41,6.42,3.93,6.42,2.19,0,3.48-2.49,3.42-5.67Z"/>
  </g>
  <g>
    <path class="st0" d="M7.47,79.99v-16.29h-2.22c-2.64,0-4.2.42-5.13,1.2l-.12-.03.54-4.14h18.57l.54,4.14-.12.03c-.93-.78-2.49-1.2-5.13-1.2h-2.28v16.29c0,1.86.42,3.24,1.11,3.9v.12h-6.84v-.12c.69-.66,1.08-2.04,1.08-3.9Z"/>
    <path class="st0" d="M19.83,79.99v-7.92c0-1.56-.3-2.85-1.17-3.45v-.12l5.46-1.17v3.15c1.14-1.65,3.75-3.15,6.36-3.15v4.5l-.12.03c-.3-.33-1.14-.72-2.31-.72-2.07,0-3.93,1.53-3.93,4.41v4.44c0,1.86.24,3.24.93,3.9v.12h-6.15v-.12c.69-.66.93-2.04.93-3.9Z"/>
    <path class="st0" d="M31.26,79.84c0-3.12,2.37-4.23,5.13-5.22,1.53-.54,3.6-1.32,4.62-1.83-.09-1.71-.99-2.7-3.21-2.7-1.89,0-3.9.78-5.19,2.04l-.12-.06.54-3.72c1.53-.6,3.63-1.02,5.82-1.02,3.93,0,6.48,1.71,6.48,6.57v5.97c0,1.71.27,2.73,1.05,3.36v.12l-4.98,1.14v-1.92c-1.26,1.47-3.24,1.92-4.62,1.92-3.24-.03-5.52-1.71-5.52-4.65ZM41.04,79.24v-4.14c-.69.36-1.2.57-2.25,1.05-2.22,1.02-3.15,1.77-3.15,3.21,0,1.59,1.02,2.52,2.49,2.52,1.17,0,2.91-.87,2.91-2.64Z"/>
    <path class="st0" d="M49.05,81.4v-9.33c0-1.56-.3-2.85-1.17-3.45v-.12l5.49-1.17v15.3c0,4.2-2.55,6.72-6.39,7.86l-.06-.12c1.83-2.46,2.13-4.59,2.13-8.97ZM48.27,62.74c0-1.68,1.29-2.58,2.73-2.58s2.73.9,2.73,2.58-1.32,2.64-2.73,2.64-2.73-.96-2.73-2.64Z"/>
    <path class="st0" d="M55.56,79.84c0-3.12,2.37-4.23,5.13-5.22,1.53-.54,3.6-1.32,4.62-1.83-.09-1.71-.99-2.7-3.21-2.7-1.89,0-3.9.78-5.19,2.04l-.12-.06.54-3.72c1.53-.6,3.63-1.02,5.82-1.02,3.93,0,6.48,1.71,6.48,6.57v5.97c0,1.71.27,2.73,1.05,3.36v.12l-4.98,1.14v-1.92c-1.26,1.47-3.24,1.92-4.62,1.92-3.24-.03-5.52-1.71-5.52-4.65ZM65.34,79.24v-4.14c-.69.36-1.2.57-2.25,1.05-2.22,1.02-3.15,1.77-3.15,3.21,0,1.59,1.02,2.52,2.49,2.52,1.17,0,2.91-.87,2.91-2.64Z"/>
    <path class="st0" d="M73.23,79.99v-7.95c0-1.56-.3-2.85-1.17-3.45v-.12l5.28-1.14v2.58c.66-1.26,2.76-2.58,5.46-2.58,3.3,0,5.37,1.89,5.37,6.33v6.33c0,1.86.24,3.24.93,3.9v.12h-6.21v-.12c.69-.66.96-2.04.96-3.9v-5.58c0-2.67-.78-4.17-2.79-4.17-1.68,0-3.54,1.47-3.54,4.89v4.86c0,1.86.27,3.24.96,3.9v.12h-6.18v-.12c.69-.66.93-2.04.93-3.9Z"/>
    <path class="st0" d="M100.71,79.99v-15.24c0-1.86-.36-3.21-1.02-3.9v-.12h8.34c5.94,0,8.31,2.04,8.31,5.46,0,2.49-1.29,4.17-3.6,5.13,3.03.84,4.95,2.64,4.95,5.58,0,4.32-2.97,7.11-9.12,7.11h-8.88v-.12c.66-.69,1.02-2.04,1.02-3.9ZM111.66,66.85c-.03-2.04-1.26-3.39-4.02-3.39h-2.28v6.93h1.14c3.54,0,5.19-.96,5.16-3.54ZM112.74,77.08c-.06-2.73-1.8-4.14-5.22-4.14h-2.16v8.31h2.37c3.18,0,5.07-1.32,5.01-4.17Z"/>
    <path class="st0" d="M119.76,75.91c0-5.28,3.72-8.58,8.7-8.58s8.67,3.3,8.67,8.58-3.75,8.58-8.67,8.58-8.7-3.3-8.7-8.58ZM132.57,76.24c-.06-2.94-1.5-6.36-4.35-6.36-2.55,0-3.96,2.43-3.9,5.64.09,2.97,1.56,6.42,4.44,6.42,2.49,0,3.9-2.46,3.81-5.7Z"/>
    <path class="st0" d="M139.59,79.99v-15.72c0-1.56-.3-2.85-1.17-3.45v-.12l5.46-1.17v20.46c0,1.86.24,3.24.93,3.9v.12h-6.15v-.12c.69-.66.93-2.04.93-3.9Z"/>
    <path class="st0" d="M146.82,76.21c0-5.13,3.21-8.88,7.77-8.88,1.83,0,3.3.78,3.78,1.47v-4.53c0-1.56-.3-2.85-1.17-3.45v-.12l5.46-1.17v20.34c0,1.71.27,2.73,1.05,3.36v.12l-5.04,1.14v-2.61c-.63,1.44-2.61,2.61-4.86,2.61-4.59,0-6.99-3.84-6.99-8.28ZM158.64,76.27c-.03-2.94-1.35-6.39-3.87-6.39-2.25,0-3.51,2.52-3.48,5.64.06,2.97,1.41,6.42,3.93,6.42,2.19,0,3.48-2.49,3.42-5.67Z"/>
  </g>
  <g>
    <path class="st0" d="M.84,709.99c0-7.53,6.06-12.24,13.32-12.24,3.03,0,5.58.69,6.66,1.26l.57,4.29-.12.03c-1.38-1.41-3.72-2.73-7.05-2.73-4.11,0-8.28,2.82-8.28,8.76,0,5.4,3.24,9.75,8.61,9.75.93,0,1.8-.15,2.37-.39v-7.29c0-1.86-.57-3.24-1.26-3.9v-.12h6.99v.12c-.69.66-1.08,2.04-1.08,3.9v4.23c0,1.59.21,3.03.84,3.87v.12c-1.44,1.14-4.44,2.34-8.37,2.34-7.35,0-13.2-4.44-13.2-12Z"/>
    <path class="st0" d="M26.13,717.49v-7.92c0-1.56-.3-2.85-1.17-3.45v-.12l5.46-1.17v3.15c1.14-1.65,3.75-3.15,6.36-3.15v4.5l-.12.03c-.3-.33-1.14-.72-2.31-.72-2.07,0-3.93,1.53-3.93,4.41v4.44c0,1.86.24,3.24.93,3.9v.12h-6.15v-.12c.69-.66.93-2.04.93-3.9Z"/>
    <path class="st0" d="M42.33,723.64l2.22-4.41-5.28-10.77c-.66-1.32-1.5-2.61-1.95-3.03v-.12h6.3c-.09.81.12,1.95.81,3.63l2.4,5.67,2.43-5.67c.69-1.59.87-2.85.78-3.63h4.68v.09c-.54.54-1.32,1.74-2.01,3.21l-7.17,15.36c-.51,1.17-.96,2.43-.96,3.54h-4.86v-.12c.6-.6,1.71-1.95,2.61-3.75Z"/>
    <path class="st0" d="M53.85,713.71c0-5.13,3.21-8.88,7.77-8.88,1.83,0,3.3.78,3.78,1.47v-4.53c0-1.56-.3-2.85-1.17-3.45v-.12l5.46-1.17v20.34c0,1.71.27,2.73,1.05,3.36v.12l-5.04,1.14v-2.61c-.63,1.44-2.61,2.61-4.86,2.61-4.59,0-6.99-3.84-6.99-8.28ZM65.67,713.77c-.03-2.94-1.35-6.39-3.87-6.39-2.25,0-3.51,2.52-3.48,5.64.06,2.97,1.41,6.42,3.93,6.42,2.19,0,3.48-2.49,3.42-5.67Z"/>
    <path class="st0" d="M72.06,713.41c0-5.28,3.72-8.58,8.7-8.58s8.67,3.3,8.67,8.58-3.75,8.58-8.67,8.58-8.7-3.3-8.7-8.58ZM84.87,713.74c-.06-2.94-1.5-6.36-4.35-6.36-2.55,0-3.96,2.43-3.9,5.64.09,2.97,1.56,6.42,4.44,6.42,2.49,0,3.9-2.46,3.81-5.7Z"/>
    <path class="st0" d="M91.8,717.49v-7.95c0-1.56-.3-2.85-1.17-3.45v-.12l5.28-1.14v2.58c.66-1.26,2.76-2.58,5.46-2.58,3.3,0,5.37,1.89,5.37,6.33v6.33c0,1.86.24,3.24.93,3.9v.12h-6.21v-.12c.69-.66.96-2.04.96-3.9v-5.58c0-2.67-.78-4.17-2.79-4.17-1.68,0-3.54,1.47-3.54,4.89v4.86c0,1.86.27,3.24.96,3.9v.12h-6.18v-.12c.69-.66.93-2.04.93-3.9Z"/>
    <path class="st0" d="M119.49,715.81l5.19-18.18h.12l6.3,12.57,6.21-12.57h.12l6.45,19.68c.6,1.83,1.47,3.45,2.13,4.08v.12h-6.63c.12-1.05,0-2.31-.42-3.75l-3.09-10.44-5.43,10.62h-.12l-5.28-10.23-2.61,9.87c-.48,1.86-.48,3.18-.3,3.93h-5.1v-.12c.9-1.08,1.77-3.21,2.46-5.58Z"/>
    <path class="st0" d="M146.07,713.47c0-5.28,3.99-8.64,8.61-8.64,5.61,0,7.44,4.02,7.44,7.8h-11.52v.03c0,4.41,2.82,6.78,6.36,6.78,2.13,0,3.93-.72,5.19-1.89l.09.06c-1.08,1.95-3.6,4.38-7.68,4.38-4.41,0-8.49-3.15-8.49-8.52ZM157.62,710.11c-.24-1.56-1.23-2.73-3-2.73s-3,1.08-3.6,2.73h6.6Z"/>
    <path class="st0" d="M163.74,713.71c0-5.13,3.21-8.88,7.77-8.88,1.83,0,3.3.78,3.78,1.47v-4.53c0-1.56-.3-2.85-1.17-3.45v-.12l5.46-1.17v20.34c0,1.71.27,2.73,1.05,3.36v.12l-5.04,1.14v-2.61c-.63,1.44-2.61,2.61-4.86,2.61-4.59,0-6.99-3.84-6.99-8.28ZM175.56,713.77c-.03-2.94-1.35-6.39-3.87-6.39-2.25,0-3.51,2.52-3.48,5.64.06,2.97,1.41,6.42,3.93,6.42,2.19,0,3.48-2.49,3.42-5.67Z"/>
    <path class="st0" d="M183.63,717.49v-7.92c0-1.56-.3-2.85-1.17-3.45v-.12l5.46-1.17v12.66c0,1.86.24,3.24.93,3.9v.12h-6.15v-.12c.69-.66.93-2.04.93-3.9ZM182.91,700.24c0-1.68,1.26-2.58,2.7-2.58s2.76.9,2.76,2.58-1.35,2.64-2.76,2.64-2.7-.96-2.7-2.64Z"/>
    <path class="st0" d="M191.97,715.66v-6.09c0-1.56-.3-2.85-1.17-3.45v-.12l5.49-1.17v10.56c0,2.55.69,3.87,2.64,3.87,1.71,0,3.45-1.65,3.45-4.56v-5.13c0-1.56-.3-2.85-1.17-3.45v-.12l5.46-1.17v12.54c0,1.71.27,2.73,1.05,3.36v.12l-4.98,1.14v-2.67c-.69,1.26-2.43,2.67-5.31,2.67-3.27,0-5.46-1.89-5.46-6.33Z"/>
    <path class="st0" d="M210.6,717.49v-7.95c0-1.56-.3-2.85-1.17-3.45v-.12l5.28-1.14v2.76c.66-1.29,2.43-2.73,5.07-2.73,2.16,0,3.78.9,4.59,2.91.9-1.44,2.94-2.94,5.43-2.91,3.15.03,5.16,1.89,5.16,6.33v6.3c0,1.86.24,3.24.93,3.9v.12h-6.18v-.12c.69-.66.96-2.04.96-3.9v-5.58c0-2.7-.63-3.96-2.49-3.96-1.62,0-3.24,1.38-3.24,4.8v4.74c0,1.86.27,3.24.96,3.9v.12h-6.24v-.12c.69-.66.96-2.04.96-3.9v-5.58c0-2.7-.6-3.96-2.49-3.96-1.62,0-3.24,1.38-3.24,4.8v4.74c0,1.86.27,3.24.96,3.9v.12h-6.18v-.12c.69-.66.93-2.04.93-3.9Z"/>
  </g>
  <g>
    <path class="st0" d="M2.79,531.32l8.67-19.05h.12l9.63,20.22c.69,1.47,1.8,3.03,2.37,3.54v.12h-6.9c.09-.96-.12-2.34-.99-4.29l-.42-.96H6.39l-.42.96c-.87,1.98-1.02,3.36-.87,4.29H0v-.12c1.02-1.2,1.92-2.82,2.79-4.71ZM13.98,527.93l-3.18-7.26-3.12,7.26h6.3Z"/>
    <path class="st0" d="M25.08,532.13v-15.72c0-1.56-.3-2.85-1.17-3.45v-.12l5.46-1.17v20.46c0,1.86.24,3.24.93,3.9v.12h-6.15v-.12c.69-.66.93-2.04.93-3.9Z"/>
    <path class="st0" d="M35.58,534.68l-1.47,1.47h-.87v-19.77c0-1.56-.3-2.85-1.17-3.45v-.12l5.46-1.14v10.08c.78-1.23,2.64-2.28,4.86-2.28,4.59,0,6.54,4.02,6.57,8.19,0,5.04-3,8.97-8.07,8.97-2.28,0-4.17-.9-5.31-1.95ZM44.46,528.71c-.06-2.94-1.29-6.39-3.84-6.39-2.19,0-3.45,2.49-3.42,5.64.03,3.33,1.38,6.42,3.9,6.42,2.22,0,3.42-2.52,3.36-5.67Z"/>
    <path class="st0" d="M50.85,528.11c0-5.28,3.99-8.64,8.61-8.64,5.61,0,7.44,4.02,7.44,7.8h-11.52v.03c0,4.41,2.82,6.78,6.36,6.78,2.13,0,3.93-.72,5.19-1.89l.09.06c-1.08,1.95-3.6,4.38-7.68,4.38-4.41,0-8.49-3.15-8.49-8.52ZM62.4,524.75c-.24-1.56-1.23-2.73-3-2.73s-3,1.08-3.6,2.73h6.6Z"/>
    <path class="st0" d="M69.36,532.13v-7.92c0-1.56-.3-2.85-1.17-3.45v-.12l5.46-1.17v3.15c1.14-1.65,3.75-3.15,6.36-3.15v4.5l-.12.03c-.3-.33-1.14-.72-2.31-.72-2.07,0-3.93,1.53-3.93,4.41v4.44c0,1.86.24,3.24.93,3.9v.12h-6.15v-.12c.69-.66.93-2.04.93-3.9Z"/>
    <path class="st0" d="M83.31,531.59v-9.12h-2.7v-.12l6.87-6.27h.12v3.87h5.91v.12l-2.04,2.76c-.75-.21-2.43-.3-3.87-.36v8.1c0,2.19.6,3.24,2.58,3.24.96,0,2.16-.45,2.67-1.11l.09.06-.75,3.24c-.9.42-1.92.63-3.45.63-2.91,0-5.43-1.2-5.43-5.04Z"/>
    <path class="st0" d="M95.19,530.3v-6.09c0-1.56-.3-2.85-1.17-3.45v-.12l5.49-1.17v10.56c0,2.55.69,3.87,2.64,3.87,1.71,0,3.45-1.65,3.45-4.56v-5.13c0-1.56-.3-2.85-1.17-3.45v-.12l5.46-1.17v12.54c0,1.71.27,2.73,1.05,3.36v.12l-4.98,1.14v-2.67c-.69,1.26-2.43,2.67-5.31,2.67-3.27,0-5.46-1.89-5.46-6.33Z"/>
    <path class="st0" d="M113.25,535.43l-.48-3.78.12-.06c1.41,1.74,3.69,2.43,5.43,2.43,1.41,0,2.4-.54,2.4-1.56,0-.9-.57-1.47-2.49-2.46l-1.56-.81c-2.67-1.38-3.63-2.91-3.63-4.98,0-2.64,2.61-4.74,6.36-4.74,1.92,0,3.12.3,4.08.69l.42,3.6-.09.03c-.78-.96-2.49-1.77-4.44-1.77-1.2,0-2.31.45-2.31,1.29s.45,1.2,1.74,1.89l1.98,1.02c2.43,1.29,4.11,2.85,4.11,5.16,0,3.54-2.94,5.25-6.45,5.25-1.77,0-4.05-.42-5.19-1.2Z"/>
    <path class="st0" d="M136.41,532.13v-15.24c0-1.86-.42-3.24-1.11-3.9v-.12h6.84v.12c-.69.66-1.08,2.04-1.08,3.9v16.29h4.29c2.91,0,5.13-.42,6.06-1.32l.12.03-.54,4.26h-15.69v-.12c.69-.66,1.11-2.04,1.11-3.9Z"/>
    <path class="st0" d="M153.69,532.13v-7.92c0-1.56-.3-2.85-1.17-3.45v-.12l5.46-1.17v12.66c0,1.86.24,3.24.93,3.9v.12h-6.15v-.12c.69-.66.93-2.04.93-3.9ZM152.97,514.88c0-1.68,1.26-2.58,2.7-2.58s2.76.9,2.76,2.58-1.35,2.64-2.76,2.64-2.7-.96-2.7-2.64Z"/>
    <path class="st0" d="M160.8,538.22c0-1.68,1.23-2.97,2.64-3.63-1.29-.48-1.98-1.41-1.98-2.58,0-1.35,1.23-2.25,2.4-2.64-1.71-.96-2.7-2.55-2.7-4.44,0-3.33,2.82-5.46,7.14-5.46,1.2,0,2.25.15,3.24.48h7.17v.12l-1.74,2.76c-.54-.15-1.29-.24-2.1-.3.42.66.69,1.5.69,2.4,0,3.18-3,5.46-7.26,5.46-.66,0-1.26-.06-1.83-.18-.54.12-.96.42-.96.84,0,.69.84.9,2.22.99l3.21.21c3.66.24,6.24,1.47,6.24,4.23,0,3.78-3.9,6.15-9.03,6.15-3.9,0-7.35-1.5-7.35-4.41ZM172.83,537.35c0-.99-.78-1.83-3.15-1.98l-3-.21c-1.11.18-2.16,1.11-2.16,2.43,0,1.65,1.62,2.4,4.11,2.43,2.34.03,4.2-1.02,4.2-2.67ZM171.33,525.2c-.09-1.71-1.08-3.54-3.09-3.54-1.74,0-2.79,1.17-2.76,2.97.03,1.62,1.02,3.54,3.09,3.54,1.71,0,2.82-1.17,2.76-2.97Z"/>
    <path class="st0" d="M180.06,532.13v-15.72c0-1.56-.3-2.85-1.17-3.45v-.12l5.46-1.17v10.11c.78-1.17,2.82-2.31,5.28-2.31,3.3,0,5.37,2.04,5.37,6.48v6.18c0,1.86.24,3.24.93,3.9v.12h-6.21v-.12c.69-.66.96-2.04.96-3.9v-5.43c0-2.67-.78-4.17-2.79-4.17-1.68,0-3.54,1.32-3.54,4.74v4.86c0,1.86.24,3.24.93,3.9v.12h-6.15v-.12c.69-.66.93-2.04.93-3.9Z"/>
    <path class="st0" d="M198.87,531.59v-9.12h-2.7v-.12l6.87-6.27h.12v3.87h5.91v.12l-2.04,2.76c-.75-.21-2.43-.3-3.87-.36v8.1c0,2.19.6,3.24,2.58,3.24.96,0,2.16-.45,2.67-1.11l.09.06-.75,3.24c-.9.42-1.92.63-3.45.63-2.91,0-5.43-1.2-5.43-5.04Z"/>
  </g>
  <rect class="st0" x="1101.28" y="188.08" width="1" height="134.04" transform="translate(-26.89 183.72) rotate(-9.42)"/>
  <rect class="st0" x="1096.85" y="-.36" width="1" height="135.7" transform="translate(12.89 248.29) rotate(-12.98)"/>
  <g>
    <path class="st0" d="M1060.51,9.87V2.31c0-.81-.17-1.05-.85-1.37v-.06l2.38-.89v9.87c0,.93.21,1.62.56,1.95v.06h-2.64v-.06c.35-.33.56-1.02.56-1.95Z"/>
    <path class="st0" d="M1069.14,3.18c0-1.26-.82-2.1-2.17-2.1s-2.49.86-3.25,1.94l-.04-.06c.34-1.04,1.4-2.96,3.99-2.96,2.32,0,3.28,1.49,3.28,3,0,3.06-4.21,6.92-5.14,7.83h2.68c1.64,0,2.55-.36,2.91-.72l.04.03-.29,1.74h-7.95v-.06c1.68-1.58,5.94-5.4,5.94-8.64Z"/>
    <path class="st0" d="M1072.29,2.45c0-1.54,1.23-2.45,2.52-2.45s2.52.9,2.52,2.45-1.27,2.47-2.52,2.47-2.52-.93-2.52-2.47ZM1076.28,2.46c0-.88-.52-1.59-1.47-1.59s-1.47.71-1.47,1.59c0,.81.51,1.58,1.47,1.58s1.47-.76,1.47-1.58Z"/>
  </g>
  <g>
    <path class="st0" d="M1066.66,196.27v-7.56c0-.81-.17-1.05-.85-1.37v-.06l2.38-.89v9.87c0,.93.21,1.62.56,1.95v.06h-2.64v-.06c.35-.33.56-1.02.56-1.95Z"/>
    <path class="st0" d="M1069.73,192.46c0-3.51,1.83-6.06,4.73-6.06s4.72,2.55,4.72,6.06-1.83,6.06-4.72,6.06-4.73-2.55-4.73-6.06ZM1077.47,192.46c0-2.58-.99-4.98-3.01-4.98s-3.02,2.4-3.02,4.98.99,4.98,3.02,4.98,3.01-2.4,3.01-4.98Z"/>
    <path class="st0" d="M1080.07,188.85c0-1.54,1.23-2.45,2.52-2.45s2.52.9,2.52,2.45-1.28,2.47-2.52,2.47-2.52-.93-2.52-2.47ZM1084.06,188.86c0-.88-.52-1.59-1.47-1.59s-1.47.71-1.47,1.59c0,.81.51,1.58,1.47,1.58s1.47-.76,1.47-1.58Z"/>
  </g>
  <rect class="st0" x="343.87" y="775.01" width="98.25" height="1"/>
  <rect class="st0" x="343.37" y="770.18" width="1" height="10.65"/>
  <rect class="st0" x="441.63" y="770.18" width="1" height="10.65"/>
  <rect class="st0" x="486.23" y="775.01" width="90.4" height="1"/>
  <rect class="st0" x="485.73" y="770.18" width="1" height="10.65"/>
  <rect class="st0" x="576.13" y="770.18" width="1" height="10.65"/>
  <rect class="st0" x="635.95" y="775.01" width="64.81" height="1"/>
  <rect class="st0" x="635.45" y="770.18" width="1" height="10.65"/>
  <rect class="st0" x="700.25" y="770.18" width="1" height="10.65"/>
  <rect class="st0" x="751.86" y="775.01" width="21.12" height="1"/>
  <rect class="st0" x="751.36" y="770.18" width="1" height="10.65"/>
  <rect class="st0" x="772.48" y="770.18" width="1" height="10.65"/>
  <rect class="st0" x="831.09" y="775.01" width="81.51" height="1"/>
  <rect class="st0" x="830.59" y="770.18" width="1" height="10.65"/>
  <rect class="st0" x="912.09" y="770.18" width="1" height="10.65"/>
  <rect class="st0" x="958.54" y="775.01" width="97.76" height="1"/>
  <rect class="st0" x="958.04" y="770.18" width="1" height="10.65"/>
  <rect class="st0" x="1055.8" y="770.18" width="1" height="10.65"/>
  <rect class="st0" x="1092.7" y="775.01" width="89.05" height="1"/>
  <rect class="st0" x="1092.2" y="770.18" width="1" height="10.65"/>
  <rect class="st0" x="1181.25" y="770.18" width="1" height="10.65"/>
  <rect class="st0" x="1219.76" y="775.01" width="68.65" height="1"/>
  <rect class="st0" x="1219.26" y="770.18" width="1" height="10.65"/>
  <rect class="st0" x="1287.91" y="770.18" width="1" height="10.65"/>
  <g>
    <path class="st0" d="M384.71,797.3l3.78-8.25h-3.27c-1.17,0-2.26.16-2.71.55l-.06-.02.23-1.59h7.84v.06l-4.23,9.3c-.29.63-.61,1.65-.46,2.28h-2.48v-.06c.36-.36.77-.96,1.37-2.28Z"/>
    <path class="st0" d="M390.31,797.73l.06-.08c.85.81,1.98,1.26,3.18,1.26,1.57,0,2.92-1.02,2.92-2.93s-1.32-2.91-3.09-2.91c-.98,0-1.91.3-2.46.63l-.03-.06.9-5.65h5.98l.2,1.65-.04.03c-.36-.36-1.2-.63-2.83-.63h-1.95l-.51,3.12c.31-.1.98-.18,1.57-.18,2.31,0,3.98,1.52,3.98,3.93s-1.85,3.96-4.27,3.96c-1.59,0-2.96-.92-3.6-2.15Z"/>
    <path class="st0" d="M400.04,797.63v-7.56c0-.81-.17-1.05-.85-1.36v-.06l2.38-.88v9.87c0,.93.21,1.62.56,1.95v.06h-2.64v-.06c.35-.33.56-1.02.56-1.95Z"/>
  </g>
  <g>
    <path class="st0" d="M521.68,797.3l3.78-8.25h-3.27c-1.17,0-2.26.16-2.71.55l-.06-.02.23-1.59h7.84v.06l-4.23,9.3c-.28.63-.61,1.65-.46,2.28h-2.48v-.06c.36-.36.77-.96,1.37-2.28Z"/>
    <path class="st0" d="M527.5,796.13c0-1.71,1.32-2.85,2.15-3.21-.52-.27-1.38-1.14-1.38-2.27,0-1.5,1.29-2.89,3.61-2.89s3.61,1.4,3.61,2.89c0,1.12-.84,2-1.36,2.27.82.36,2.13,1.5,2.13,3.21,0,1.99-1.53,3.75-4.38,3.75s-4.38-1.76-4.38-3.75ZM534.55,796.11c0-1.67-1.3-2.64-2.67-2.64s-2.67.97-2.67,2.64,1.16,2.69,2.67,2.69,2.67-1.1,2.67-2.69ZM533.91,790.61c0-.97-.85-1.77-2.02-1.77s-2.02.8-2.02,1.77c0,1.08.85,1.81,2.02,1.81s2.02-.73,2.02-1.81Z"/>
    <path class="st0" d="M539.05,797.3l3.78-8.25h-3.27c-1.17,0-2.26.16-2.71.55l-.06-.02.23-1.59h7.84v.06l-4.23,9.3c-.29.63-.61,1.65-.46,2.28h-2.48v-.06c.36-.36.77-.96,1.37-2.28Z"/>
  </g>
  <g>
    <path class="st0" d="M656.84,797.73l.06-.08c.85.81,1.98,1.26,3.18,1.26,1.57,0,2.92-1.02,2.92-2.93s-1.32-2.91-3.09-2.91c-.98,0-1.91.3-2.46.63l-.03-.06.9-5.65h5.98l.2,1.65-.04.03c-.36-.36-1.2-.63-2.83-.63h-1.95l-.51,3.12c.31-.1.98-.18,1.57-.18,2.31,0,3.98,1.52,3.98,3.93s-1.85,3.96-4.27,3.96c-1.59,0-2.96-.92-3.6-2.15Z"/>
    <path class="st0" d="M667.04,799.73v-.06c3.33-.3,4.88-2.41,5.11-4.66-.4.51-1.38,1.19-2.83,1.19-2.1,0-3.79-1.67-3.79-4.2s1.69-4.23,4.12-4.23c2.73,0,4.4,1.95,4.4,5.25s-1.6,6.87-5.76,6.87c-.58,0-1.08-.11-1.25-.15ZM672.2,791.96c0-1.89-1.04-3.12-2.6-3.12s-2.49,1.47-2.49,3.12c0,1.79.99,3.12,2.55,3.12s2.54-1.33,2.54-3.12Z"/>
    <path class="st0" d="M675.88,797.63v-7.56c0-.81-.17-1.05-.85-1.36v-.06l2.38-.88v9.87c0,.93.21,1.62.56,1.95v.06h-2.64v-.06c.35-.33.56-1.02.56-1.95Z"/>
  </g>
  <g>
    <path class="st0" d="M754.62,790.94c0-1.26-.83-2.1-2.17-2.1s-2.49.85-3.25,1.94l-.04-.06c.34-1.03,1.39-2.95,3.99-2.95,2.33,0,3.29,1.48,3.29,3,0,3.06-4.21,6.92-5.14,7.83h2.68c1.63,0,2.55-.36,2.91-.72l.04.03-.29,1.74h-7.95v-.06c1.68-1.57,5.94-5.4,5.94-8.64Z"/>
    <path class="st0" d="M757.92,796.13c0-1.71,1.32-2.85,2.15-3.21-.53-.27-1.38-1.14-1.38-2.27,0-1.5,1.29-2.89,3.61-2.89s3.62,1.4,3.62,2.89c0,1.12-.84,2-1.37,2.27.83.36,2.13,1.5,2.13,3.21,0,1.99-1.53,3.75-4.38,3.75s-4.38-1.76-4.38-3.75ZM764.97,796.11c0-1.67-1.3-2.64-2.67-2.64s-2.67.97-2.67,2.64,1.16,2.69,2.67,2.69,2.67-1.1,2.67-2.69ZM764.33,790.61c0-.97-.86-1.77-2.03-1.77s-2.02.8-2.02,1.77c0,1.08.85,1.81,2.02,1.81s2.03-.73,2.03-1.81Z"/>
    <path class="st0" d="M767.84,794.51c0-3.16,1.68-6.75,5.83-6.75.58,0,1.08.1,1.24.15v.06c-3.33.3-5.08,2.42-5.32,4.66.41-.51,1.44-1.18,2.89-1.18,2.1,0,3.79,1.51,3.79,4.05s-1.7,4.38-4.12,4.38c-2.67,0-4.32-2.07-4.32-5.37ZM774.71,795.68c0-1.78-1.03-3.12-2.59-3.12s-2.52,1.27-2.52,3.06c0,1.89,1.02,3.18,2.58,3.18s2.53-1.47,2.53-3.12Z"/>
  </g>
  <g>
    <path class="st0" d="M862.77,797.3l3.78-8.25h-3.27c-1.17,0-2.26.16-2.71.55l-.06-.02.23-1.59h7.84v.06l-4.23,9.3c-.28.63-.61,1.65-.46,2.28h-2.48v-.06c.36-.36.77-.96,1.37-2.28Z"/>
    <path class="st0" d="M871.02,797.3l3.78-8.25h-3.27c-1.17,0-2.26.16-2.71.55l-.06-.02.23-1.59h7.84v.06l-4.23,9.3c-.28.63-.61,1.65-.46,2.28h-2.48v-.06c.36-.36.77-.96,1.37-2.28Z"/>
    <path class="st0" d="M878.35,797.63v-7.56c0-.81-.17-1.05-.85-1.36v-.06l2.38-.88v9.87c0,.93.21,1.62.56,1.95v.06h-2.64v-.06c.35-.33.56-1.02.56-1.95Z"/>
  </g>
  <g>
    <path class="st0" d="M997.79,797.3l3.78-8.25h-3.27c-1.17,0-2.26.16-2.71.55l-.06-.02.23-1.59h7.84v.06l-4.23,9.3c-.28.63-.61,1.65-.46,2.28h-2.48v-.06c.36-.36.77-.96,1.37-2.28Z"/>
    <path class="st0" d="M1007.3,797.63v-.93h-5.68v-.06l7.15-9.24h.06v8.25c.4,0,1.2-.1,1.68-.44l.06.02v1.89l-.06.02c-.48-.33-1.27-.44-1.68-.44v.93c0,.93.21,1.62.55,1.95v.06h-2.64v-.06c.34-.33.55-1.02.55-1.95ZM1007.3,795.65v-4.5l-3.52,4.5h3.52Z"/>
    <path class="st0" d="M1016.53,790.94c0-1.26-.82-2.1-2.17-2.1s-2.49.85-3.25,1.94l-.04-.06c.34-1.03,1.4-2.95,3.99-2.95,2.32,0,3.28,1.48,3.28,3,0,3.06-4.21,6.92-5.14,7.83h2.68c1.64,0,2.55-.36,2.91-.72l.04.03-.29,1.74h-7.95v-.06c1.68-1.57,5.94-5.4,5.94-8.64Z"/>
  </g>
  <g>
    <path class="st0" d="M1126.86,797.3l3.78-8.25h-3.27c-1.17,0-2.26.16-2.71.55l-.06-.02.23-1.59h7.84v.06l-4.23,9.3c-.29.63-.61,1.65-.46,2.28h-2.48v-.06c.36-.36.77-.96,1.37-2.28Z"/>
    <path class="st0" d="M1133.05,797.73l.06-.08c.85.81,2.02,1.26,3.25,1.26,1.58,0,2.87-1.12,2.87-2.96s-1.38-2.88-3.03-2.88c-.75,0-1.44.18-1.99.48l-.03-.06,3.88-4.45h-1.6c-1.64,0-2.67.27-3.03.63l-.04-.03.39-1.65h6.9v.06l-3.54,4c2.47.14,3.81,1.81,3.81,3.79,0,2.25-1.71,4.02-4.14,4.02-1.59,0-3.1-.92-3.75-2.15Z"/>
    <path class="st0" d="M1141.57,797.73l.06-.08c.85.81,1.98,1.26,3.18,1.26,1.57,0,2.92-1.02,2.92-2.93s-1.32-2.91-3.09-2.91c-.98,0-1.91.3-2.46.63l-.03-.06.9-5.65h5.98l.2,1.65-.04.03c-.36-.36-1.2-.63-2.83-.63h-1.95l-.51,3.12c.31-.1.98-.18,1.57-.18,2.31,0,3.98,1.52,3.98,3.93s-1.85,3.96-4.27,3.96c-1.59,0-2.96-.92-3.6-2.15Z"/>
  </g>
  <g>
    <path class="st0" d="M1242.6,797.73l.06-.08c.85.81,1.98,1.26,3.18,1.26,1.57,0,2.92-1.02,2.92-2.93s-1.32-2.91-3.09-2.91c-.98,0-1.91.3-2.46.63l-.03-.06.9-5.65h5.98l.2,1.65-.04.03c-.36-.36-1.2-.63-2.83-.63h-1.95l-.51,3.12c.31-.1.98-.18,1.57-.18,2.31,0,3.98,1.52,3.98,3.93s-1.85,3.96-4.27,3.96c-1.59,0-2.96-.92-3.6-2.15Z"/>
    <path class="st0" d="M1252.81,799.73v-.06c3.33-.3,4.88-2.41,5.11-4.66-.4.51-1.38,1.19-2.83,1.19-2.1,0-3.79-1.67-3.79-4.2s1.69-4.23,4.12-4.23c2.73,0,4.4,1.95,4.4,5.25s-1.6,6.87-5.76,6.87c-.58,0-1.08-.11-1.25-.15ZM1257.97,791.96c0-1.89-1.04-3.12-2.6-3.12s-2.49,1.47-2.49,3.12c0,1.79.99,3.12,2.55,3.12s2.54-1.33,2.54-3.12Z"/>
    <path class="st0" d="M1265.69,790.94c0-1.26-.82-2.1-2.17-2.1s-2.49.85-3.25,1.94l-.04-.06c.34-1.03,1.4-2.95,3.99-2.95,2.32,0,3.28,1.48,3.28,3,0,3.06-4.21,6.92-5.14,7.83h2.68c1.64,0,2.55-.36,2.91-.72l.04.03-.29,1.74h-7.95v-.06c1.68-1.57,5.94-5.4,5.94-8.64Z"/>
  </g>
</svg>