<?xml version="1.0" encoding="UTF-8"?>
<svg id="Layer_1" xmlns="http://www.w3.org/2000/svg" version="1.1" viewBox="0 0 158.63 158.63">
  <!-- Generator: Adobe Illustrator 30.5.0, SVG Export Plug-In . SVG Version: 2.1.4 Build 167)  -->
  <defs>
    <style>
      .st0 {
        fill: #efe9e2;
      }

      .st1 {
        fill: #efe9e2;
      }
    </style>
  </defs>
  <circle cx="79.31" cy="79.31" r="77.5" fill="#000000"/>
  <path class="st1" d="M79.31,158.63C35.58,158.63,0,123.05,0,79.31S35.58,0,79.31,0s79.31,35.58,79.31,79.31-35.58,79.31-79.31,79.31ZM79.31,5C38.34,5,5,38.34,5,79.31s33.34,74.31,74.31,74.31,74.31-33.34,74.31-74.31S120.29,5,79.31,5Z"/>
  <path class="st0" d="M68.19,103.47v-44.13h-14.28v-.47c11.12-8.9,20.83-21.19,25.52-30.32,4.68,9.13,14.16,21.42,25.28,30.32v.47h-14.51v44.13c0,9.6,1.17,15.68,4.33,19.43v.47h-30.67v-.47c3.16-3.75,4.33-9.83,4.33-19.43Z"/>
</svg>