<?xml version="1.0" encoding="UTF-8"?>
<svg id="Layer_1" xmlns="http://www.w3.org/2000/svg" version="1.1" viewBox="0 0 60 60">
  <!-- Generator: Adobe Illustrator 30.5.0, SVG Export Plug-In . SVG Version: 2.1.4 Build 167)  -->
  <defs>
    <style>
      .st0 {
        fill: #efe9e2;
      }
    </style>
  </defs>
  <rect class="st0" x=".51" y=".51" width="58.98" height="58.98"/>
  <g>
    <path d="M0,0v60h60V0H0ZM58.97,58.97H1.03v-2.24h57.93v2.24ZM58.97,3.28H1.03V1.03h57.93v2.24ZM58.97,6.55h-30.49c-1.09-.08-2.2-.12-3.35-.12h-15.12v.12H1.03v-2.24h57.93v2.24ZM58.97,9.83h-17.88c-1.83-.94-3.85-1.69-6.04-2.24h23.92v2.24ZM58.97,13.1h-13.08c-.43-.39-.87-.76-1.33-1.12-.52-.4-1.07-.77-1.64-1.12h16.05v2.24ZM58.97,16.38h-10.18c-.55-.79-1.17-1.54-1.84-2.24h12.02v2.24ZM58.97,19.66h-8.33c-.34-.78-.73-1.52-1.17-2.24h9.5v2.24ZM58.97,22.93h-7.19c-.2-.77-.44-1.52-.71-2.24h7.91v2.24ZM58.97,26.21h-6.6c-.09-.76-.2-1.51-.35-2.24h6.95v2.24ZM58.97,29.48h-6.43c0-.09,0-.19,0-.28,0-.67-.03-1.32-.08-1.96h6.5v2.24ZM58.97,32.76h-6.66c.1-.73.17-1.48.2-2.24h6.46v2.24ZM58.97,36.03h-7.32c.2-.73.37-1.48.5-2.24h6.82v2.24ZM58.97,39.31h-8.49c.33-.72.61-1.47.87-2.24h7.63v2.24ZM58.97,42.59h-10.34c.49-.72.94-1.46,1.34-2.24h8.99v2.24ZM58.97,45.86h-13.1c.72-.7,1.39-1.45,2.01-2.24h11.09v2.24ZM58.97,49.14h-17.37c1.12-.68,2.17-1.42,3.14-2.24h14.23v2.24ZM58.97,52.41h-25.55c2.27-.55,4.36-1.3,6.27-2.24h19.27v2.24ZM58.97,55.69H1.03v-2.24h8.97v.04h13.96c.6,0,1.19-.01,1.77-.04h33.23v2.24ZM1.03,50.17h10.14c-.24.54-.52.98-.85,1.3l-.32.31v.64H1.03v-2.24ZM1.03,46.9h10.94c-.09.84-.24,1.58-.43,2.24H1.03v-2.24ZM1.03,43.62h11.06v1.06c0,.41-.01.8-.03,1.18H1.03v-2.24ZM1.03,40.35h11.06v2.24H1.03v-2.24ZM1.03,37.07h11.06v2.24H1.03v-2.24ZM1.03,33.79h11.06v2.24H1.03v-2.24ZM1.03,30.52h11.06v2.24H1.03v-2.24ZM1.03,27.24h11.06v2.24H1.03v-2.24ZM1.03,23.97h11.06v2.24H1.03v-2.24ZM1.03,20.69h11.06v2.24H1.03v-2.24ZM1.03,17.41h11.06v2.24H1.03v-2.24ZM1.03,14.14h11.03c.02.35.03.72.03,1.09v1.15H1.03v-2.24ZM1.03,10.86h10.54c.18.66.32,1.41.41,2.24H1.03v-2.24ZM1.03,7.59h8.97v.55l.32.31c.35.33.64.81.89,1.39H1.03v-2.24ZM11.04,7.46h14.09c1.12,0,2.22.04,3.3.12,3.71.27,7.15,1.02,10.17,2.24.77.31,1.52.66,2.24,1.03,1.24.65,2.39,1.4,3.45,2.24.41.33.82.67,1.2,1.03.74.69,1.41,1.44,2.02,2.24.26.34.5.68.74,1.03.47.71.89,1.45,1.27,2.24.16.34.31.68.45,1.03.29.72.54,1.46.75,2.24.09.34.18.68.25,1.03.16.72.28,1.47.36,2.24.04.34.07.69.09,1.03.05.64.08,1.29.08,1.96,0,.09,0,.19,0,.28,0,.35,0,.69-.03,1.03-.04.77-.11,1.51-.21,2.24-.05.35-.1.69-.16,1.03-.14.77-.31,1.52-.52,2.24-.1.35-.21.69-.32,1.03-.27.77-.57,1.52-.92,2.24-.17.35-.35.7-.53,1.03-.43.78-.91,1.53-1.44,2.24-.26.35-.53.7-.82,1.03-.67.8-1.41,1.55-2.21,2.24-.41.36-.83.7-1.27,1.03-1.12.84-2.33,1.59-3.63,2.24-.75.38-1.52.72-2.33,1.03-3.37,1.32-7.22,2.08-11.42,2.24-.57.02-1.14.04-1.72.04h-12.93v-.23c.51-.49.93-1.18,1.26-2.05.12-.32.23-.67.32-1.03.18-.67.31-1.42.39-2.24.03-.34.06-.68.08-1.03.02-.38.03-.77.03-1.18V15.23c0-.38-.01-.74-.03-1.09-.02-.36-.04-.7-.08-1.03-.08-.82-.2-1.57-.38-2.24-.09-.37-.2-.71-.31-1.03-.33-.91-.77-1.63-1.29-2.13v-.23Z"/>
    <path d="M32.83,46.9c.95-.3,1.84-.64,2.67-1.03,1.35-.63,2.55-1.38,3.61-2.24.41-.33.79-.67,1.16-1.03.69-.69,1.3-1.44,1.84-2.24.23-.34.44-.68.63-1.03.4-.71.74-1.46,1.03-2.24.12-.34.24-.68.34-1.03.21-.72.38-1.47.51-2.24.06-.34.1-.69.14-1.03.08-.73.12-1.48.13-2.24,0-.13,0-.26,0-.39,0-.22,0-.43-.01-.65-.02-.76-.07-1.51-.15-2.24-.04-.35-.08-.69-.14-1.03-.12-.77-.28-1.52-.48-2.24-.1-.35-.2-.7-.31-1.03-.26-.78-.58-1.53-.94-2.24-.18-.35-.37-.7-.58-1.03-.49-.8-1.06-1.55-1.7-2.24-.34-.36-.7-.7-1.08-1.03-.98-.85-2.11-1.61-3.39-2.24-.79-.39-1.63-.73-2.53-1.03-2.75-.91-6.07-1.41-10.01-1.41h-4.52v36.52h4.12c3.71,0,6.93-.46,9.68-1.32ZM20.07,46.9h7.83c-1.49.19-3.07.29-4.75.29h-3.08v-.29ZM20.07,43.62h17.32c-1.36.93-2.93,1.67-4.69,2.24h-12.63v-2.24ZM20.07,40.35h20.76c-.39.52-.81,1.01-1.26,1.47-.27.27-.55.52-.84.77h-18.66v-2.24ZM20.07,37.07h22.59c-.31.79-.68,1.54-1.12,2.24h-21.47v-2.24ZM20.07,33.79h23.5c-.13.78-.31,1.53-.54,2.24h-22.96v-2.24ZM20.07,30.52h23.78c0,.77-.05,1.52-.13,2.24h-23.65v-2.24ZM20.07,27.24h23.61c.08.72.14,1.47.16,2.24h-23.77v-2.24ZM20.07,23.97h22.96c.21.71.38,1.46.51,2.24h-23.47v-2.24ZM20.07,20.69h21.59c.4.7.74,1.45,1.03,2.24h-22.62v-2.24ZM20.07,17.41h18.99c.74.68,1.39,1.42,1.95,2.24h-20.94v-2.24ZM20.07,14.14h13.3c1.67.57,3.14,1.32,4.42,2.24h-17.72v-2.24ZM20.07,12.73h3.49c1.95,0,3.76.13,5.43.38h-8.92v-.38Z"/>
  </g>
</svg>