<?xml version="1.0" encoding="UTF-8"?>
<svg id="Layer_1" xmlns="http://www.w3.org/2000/svg" version="1.1" viewBox="0 0 60 60">
  <!-- Generator: Adobe Illustrator 30.5.0, SVG Export Plug-In . SVG Version: 2.1.4 Build 167)  -->
  <defs>
    <style>
      .st0 {
        fill: #efe9e2;
      }
    </style>
  </defs>
  <rect class="st0" x=".49" y=".51" width="58.98" height="58.98"/>
  <path d="M0,0v60h60V0H0ZM58.97,58.97H1.03v-2.24h57.93v2.24ZM58.97,3.28H1.03V1.03h57.93v2.24ZM58.97,6.55h-15.77c-2.38-.62-5.41-1.05-8.97-1.05-2.66,0-5.25.36-7.7,1.05H1.03v-2.24h57.93v2.24ZM58.97,9.83h-10.74l-.1-.82-.06-.5-.44-.26c-.38-.22-.83-.45-1.34-.67h12.68v2.24ZM58.97,13.1h-10.32l-.29-2.24h10.6v2.24ZM58.97,16.38h-9.9l-.08-.59-.21-1.66h10.18v2.24ZM58.97,19.66H19.87c.46-.79.99-1.54,1.57-2.24h37.52v2.24ZM58.97,22.93H18.37c.26-.77.58-1.52.94-2.24h39.66v2.24ZM58.97,26.21h-8.44c.2-.36.41-.66.65-.9l.32-.31v-1.04h7.47v2.24ZM58.97,29.48h-9.39c.11-.84.28-1.6.5-2.24h8.89v2.24ZM58.97,32.76h-9.56v-.66c0-.55.03-1.08.06-1.58h9.5v2.24ZM58.97,36.03h-9.56v-2.24h9.56v2.24ZM58.97,39.31h-9.56v-2.24h9.56v2.24ZM58.97,42.59h-9.56c0-.11,0-.22,0-.34v-1.9h9.56v2.24ZM58.97,45.86h-9.27c-.14-.62-.22-1.35-.26-2.24h9.53v2.24ZM58.97,49.14h-7.76v-.67l-.32-.31c-.37-.35-.65-.76-.87-1.27h8.95v2.24ZM58.97,52.41h-12.9c1.67-.62,3.16-1.37,4.43-2.24h8.47v2.24ZM58.97,55.69H1.03v-2.24h25.67c2.4.63,4.92.96,7.52.96,2.93,0,5.79-.34,8.41-.96h16.32v2.24ZM1.03,50.17h18.16c1.36.88,2.82,1.63,4.36,2.24H1.03v-2.24ZM1.03,46.9h14.13c.46.47.95.93,1.46,1.37.35.3.72.59,1.09.87H1.03v-2.24ZM1.03,43.62h11.46c.52.78,1.09,1.53,1.71,2.24H1.03v-2.24ZM1.03,40.34h9.67c.34.77.72,1.52,1.15,2.24H1.03v-2.24ZM1.03,37.07h8.52c.21.77.45,1.51.72,2.24H1.03v-2.24ZM1.03,33.79h7.87c.1.76.23,1.51.39,2.24H1.03v-2.24ZM1.03,30.52h7.64c0,.76.04,1.51.11,2.24H1.03v-2.24ZM1.03,27.24h7.79c-.08.73-.12,1.48-.14,2.24H1.03v-2.24ZM1.03,23.97h8.35c-.17.73-.32,1.48-.43,2.24H1.03v-2.24ZM1.03,20.69h9.37c-.29.73-.54,1.48-.76,2.24H1.03v-2.24ZM1.03,17.41h10.98c-.43.72-.82,1.47-1.17,2.24H1.03v-2.24ZM1.03,14.14h13.35c-.62.72-1.19,1.46-1.71,2.24H1.03v-2.24ZM1.03,10.86h16.83c-.48.37-.96.76-1.41,1.16-.39.35-.76.71-1.12,1.08H1.03v-2.24ZM1.03,7.59h22.5c-1.49.62-2.9,1.37-4.23,2.24H1.03v-2.24ZM47.32,10.86l.29,2.24.13,1.03.23,1.79-.23.06c-.58-.62-1.27-1.25-2.08-1.85-.49-.36-1.03-.71-1.61-1.03-1.89-1.06-4.29-1.91-7.3-2.24-.88-.1-1.81-.15-2.8-.15-.78,0-1.56.05-2.32.15-2.34.3-4.59,1.07-6.62,2.24-.54.31-1.07.66-1.57,1.03-.89.66-1.73,1.41-2.49,2.24-.3.33-.59.68-.87,1.03-.54.7-1.03,1.45-1.47,2.24-.18.34-.36.68-.52,1.03-.33.71-.62,1.46-.87,2.24-.11.34-.21.68-.29,1.03-.18.72-.32,1.47-.42,2.24-.04.34-.08.68-.11,1.03-.04.56-.07,1.14-.07,1.73,0,.17,0,.34.01.51,0,.35.02.69.04,1.03.05.76.13,1.5.25,2.24.06.35.12.69.19,1.03.16.76.36,1.51.6,2.24.11.35.23.69.36,1.03.29.77.62,1.52,1,2.24.18.35.38.7.58,1.03.47.79.99,1.54,1.56,2.24.29.36.59.7.9,1.03.77.83,1.61,1.58,2.53,2.24.51.37,1.04.72,1.59,1.03,2.16,1.24,4.63,2.03,7.37,2.24.49.04,1,.06,1.51.06.55,0,1.09-.03,1.62-.06,2.46-.18,4.7-.73,6.03-1.44v-15.6c0-.55-.04-1.08-.1-1.58-.04-.36-.09-.7-.15-1.03-.16-.83-.4-1.57-.68-2.24-.16-.37-.33-.72-.51-1.03-.38-.67-.8-1.24-1.23-1.64v-.23h10.67v.23c-.42.41-.78.97-1.09,1.64-.14.32-.27.66-.39,1.03-.2.67-.36,1.41-.46,2.24-.04.33-.07.68-.1,1.03-.04.51-.06,1.03-.06,1.58v10.15c0,.12,0,.23,0,.34,0,.36.01.71.03,1.03.04.86.11,1.6.24,2.24.07.38.16.72.27,1.03.28.83.69,1.47,1.26,2.02v.22h0c-.49.36-1.05.7-1.66,1.03-1.6.87-3.6,1.66-5.96,2.24-2.42.59-5.22.96-8.33.96-2.5,0-4.98-.33-7.35-.96-1.98-.53-3.88-1.28-5.64-2.24-.59-.32-1.16-.67-1.72-1.03-1.01-.67-1.98-1.42-2.87-2.24-.36-.33-.71-.68-1.05-1.03-.66-.7-1.27-1.45-1.84-2.24-.24-.34-.47-.68-.69-1.03-.45-.71-.86-1.46-1.22-2.24-.16-.34-.31-.68-.45-1.03-.29-.72-.55-1.47-.77-2.24-.1-.34-.18-.68-.27-1.03-.17-.73-.31-1.47-.41-2.24-.05-.34-.09-.68-.12-1.03-.07-.73-.11-1.48-.12-2.24,0-.11,0-.22,0-.33,0-.24.01-.47.02-.7.02-.76.07-1.51.15-2.24.04-.35.08-.69.13-1.03.12-.77.27-1.51.45-2.24.09-.35.18-.69.29-1.03.23-.77.5-1.52.8-2.24.15-.35.3-.7.46-1.03.37-.78.79-1.53,1.24-2.24.22-.35.45-.7.69-1.03.57-.79,1.18-1.54,1.84-2.24.33-.36.68-.7,1.04-1.03.88-.82,1.82-1.57,2.81-2.24.54-.37,1.1-.71,1.68-1.03,1.69-.95,3.5-1.7,5.39-2.24,2.14-.61,4.38-.96,6.67-1.03.29,0,.57-.02.86-.02.42,0,.83,0,1.23.02,3.05.09,5.6.5,7.61,1.03,1.8.48,3.16,1.04,4.03,1.56l.09.68.13,1.03ZM33.94,11.74c3.15,0,5.68.55,7.71,1.36h-14.49c1.98-.86,4.24-1.36,6.78-1.36ZM41.43,32.1v.66h-23.74c-.13-.74-.23-1.49-.28-2.24h23.91c.06.5.11,1.02.11,1.58ZM41.43,36.03h-22.9c-.25-.73-.46-1.48-.63-2.24h23.53v2.24ZM41.43,39.31h-21.44c-.4-.72-.75-1.47-1.06-2.24h22.51v2.24ZM41.43,42.59h-19.15c-.62-.7-1.17-1.45-1.68-2.24h20.83v2.24ZM41.43,45.86h-15.25c-1.07-.64-2.04-1.39-2.92-2.24h18.16v2.24ZM41.43,46.9v.15c-1.42.59-3.85,1.13-6.62,1.13-2.44,0-4.64-.46-6.59-1.27h13.21ZM41.14,29.48h-23.78c0-.17-.01-.34-.01-.51,0-.57.03-1.15.09-1.73h22.96c.3.64.57,1.39.75,2.24ZM39.08,25.31c.24.23.49.54.73.9h-22.25c.11-.75.28-1.5.48-2.24h20.71v1.04l.32.31ZM25.19,14.14h18.59c1.2.71,2.15,1.49,2.9,2.24h-24.29c.83-.84,1.77-1.6,2.8-2.24Z"/>
</svg>