<?xml version="1.0" encoding="UTF-8"?>
<svg id="Layer_1" xmlns="http://www.w3.org/2000/svg" version="1.1" viewBox="0 0 520.58 315.17">
  <!-- Generator: Adobe Illustrator 30.5.0, SVG Export Plug-In . SVG Version: 2.1.4 Build 167)  -->
  <defs>
    <style>
      .st0 {
        stroke-width: .56px;
      }

      .st0, .st1, .st2, .st3, .st4 {
        stroke: #000;
        stroke-miterlimit: 10;
      }

      .st1 {
        stroke-width: .56px;
      }

      .st5 {
        fill: #efe9e2;
      }

      .st2 {
        stroke-width: .69px;
      }

      .st3 {
        fill: #fff;
      }

      .st3, .st4 {
        stroke-width: .62px;
      }

      .st4 {
        fill: none;
      }

      .st6 {
        opacity: .15;
      }

      .st7 {
        font-size: 8.67px;
      }

      .st7, .st8 {
        font-family: Grydon-Medium, Grydon;
        font-weight: 500;
      }

      .st8 {
        font-size: 9.22px;
      }
    </style>
  </defs>
  <rect class="st5" width="520.58" height="315.17"/>
  <g>
    <rect class="st6" x="39.37" y="11.56" width="442.78" height="291.81"/>
    <line class="st4" x1="35.65" y1="87.46" x2="485.86" y2="87.46"/>
    <line class="st4" x1="35.65" y1="18.48" x2="485.86" y2="18.48"/>
    <line class="st4" x1="35.65" y1="11.56" x2="485.86" y2="11.56"/>
    <line class="st4" x1="485.86" y1="303.38" x2="35.65" y2="303.38"/>
    <text class="st8" transform="translate(6.1 303.53)"><tspan x="0" y="0">Desc</tspan></text>
    <line class="st4" x1="485.86" y1="245.08" x2="35.65" y2="245.08"/>
    <text class="st8" transform="translate(6.1 25.11)"><tspan x="0" y="0">Cap</tspan></text>
    <text class="st8" transform="translate(6.1 11.56)"><tspan x="0" y="0">Asc</tspan></text>
    <text class="st7" transform="translate(6.1 91.22)"><tspan x="0" y="0">X</tspan></text>
    <text class="st7" transform="translate(509.23 91.22)"><tspan x="0" y="0">X</tspan></text>
    <text class="st8" transform="translate(6.1 248.04)"><tspan x="0" y="0">Base</tspan></text>
    <text class="st8" transform="translate(493.9 303.53)"><tspan x="0" y="0">Desc</tspan></text>
    <text class="st8" transform="translate(498.31 25.11)"><tspan x="0" y="0">Cap</tspan></text>
    <text class="st8" transform="translate(499.55 11.56)"><tspan x="0" y="0">Asc</tspan></text>
    <text class="st8" transform="translate(495.35 248.04)"><tspan x="0" y="0">Base</tspan></text>
    <g>
      <path class="st3" d="M54.23,132.85c0-71.97,59.1-119.37,135.75-119.37,26.92,0,53.83,6.14,64.95,11.41l6.73,49.74-1.17.29c-14.92-14.92-38.62-26.62-67.58-26.62-34.52,0-72.56,20.19-72.56,78.41,0,51.2,26.33,88.35,74.31,88.35,2.63,0,4.97,0,7.61-.29v-63.49c0-18.14-4.1-31.6-10.83-38.03v-1.17h82.5v1.17c-6.73,6.44-10.83,19.89-10.83,38.03v31.3c0,12.87,2.05,32.18,7.61,41.84v1.17c-12.87,11.12-43.01,24.28-83.09,24.28-80.45,0-133.41-46.22-133.41-117.02Z"/>
      <path class="st3" d="M283.89,265.68c0-16.09,10.83-26.92,22.53-33.06-9.95-5.85-16.68-14.92-16.68-26.92,0-13.17,12.29-23.4,23.99-27.79-16.97-9.66-26.33-25.45-26.33-42.42,0-31.3,26.04-52.95,72.26-52.95,12.87,0,24.28,1.76,33.94,4.68h72.85v1.17l-16.97,32.77c-3.8-1.17-10.82-2.05-18.14-2.63,2.05,5.27,3.22,10.82,3.22,16.97,0,28.67-28.67,52.95-74.9,52.95-4.97,0-9.36-.29-14.04-.88-2.05,1.17-3.51,2.93-3.51,5.27,0,5.85,8.49,7.02,17.26,7.61l27.21,1.76c37.74,2.34,62.9,12.87,62.9,41.84,0,43.59-43.88,64.36-92.74,64.36-42.42,0-72.85-15.21-72.85-42.71ZM393.89,256.31c0-6.73-5.27-12.29-22.53-13.46l-32.77-2.05c-6.44,2.93-11.12,8.19-11.12,16.97,0,11.99,10.53,18.72,33.94,18.72,14.63,0,32.47-5.85,32.47-20.19ZM380.44,140.75c0-12.29-4.1-32.18-20.48-32.18-10.53,0-16.68,7.31-16.68,21.36,0,10.24,3.22,32.47,20.48,32.47,10.24,0,16.68-7.61,16.68-21.65Z"/>
      <polygon class="st2" points="189.96 249.89 186.26 246.3 186.26 253.47 189.96 249.89"/>
      <circle class="st1" cx="194.74" cy="215.07" r="1.92"/>
      <g>
        <circle class="st0" cx="360.03" cy="82.53" r="2.24"/>
        <rect class="st0" x="391.85" y="85.2" width="3.93" height="3.93"/>
        <rect class="st0" x="464.48" y="85.25" width="3.93" height="3.93"/>
        <rect class="st0" x="464.48" y="86.39" width="3.93" height="3.93"/>
        <rect class="st0" x="447.65" y="119.52" width="3.93" height="3.93"/>
        <rect class="st0" x="429.48" y="116.56" width="3.93" height="3.93"/>
        <circle class="st0" cx="434.47" cy="135.49" r="2.24"/>
        <circle class="st0" cx="380.44" cy="140.91" r="2.24"/>
        <circle class="st0" cx="343.28" cy="130" r="2.24"/>
        <circle class="st0" cx="360.44" cy="108.77" r="2.24"/>
        <circle class="st0" cx="287.31" cy="135.49" r="2.24"/>
        <rect class="st0" x="311.77" y="175.94" width="3.93" height="3.93"/>
        <rect class="st0" x="343.94" y="185.67" width="3.93" height="3.93"/>
        <circle class="st0" cx="289.91" cy="205.74" r="2.24"/>
        <circle class="st0" cx="342.6" cy="193.09" r="2.24"/>
        <circle class="st0" cx="359.97" cy="188.44" r="2.24"/>
        <circle class="st0" cx="359.97" cy="200.53" r="2.24"/>
        <circle class="st0" cx="386.69" cy="202.17" r="2.24"/>
        <circle class="st0" cx="449.48" cy="244.34" r="2.24"/>
        <circle class="st0" cx="393.89" cy="256.63" r="2.24"/>
        <circle class="st0" cx="371.37" cy="242.86" r="2.24"/>
        <rect class="st0" x="337.27" y="238.84" width="3.93" height="3.93"/>
        <rect class="st0" x="304.82" y="230.59" width="3.93" height="3.93"/>
        <circle class="st0" cx="327.48" cy="257.88" r="2.24"/>
        <circle class="st0" cx="283.89" cy="266.23" r="2.24"/>
        <polygon class="st2" points="359.12 308.39 355.41 304.8 355.41 311.98 359.12 308.39"/>
        <polygon class="st2" points="359.78 276.5 363.49 280.09 363.49 272.91 359.78 276.5"/>
        <polygon class="st2" points="361.59 162.4 365.3 165.99 365.3 158.81 361.59 162.4"/>
      </g>
      <circle class="st0" cx="192.98" cy="48.3" r="2.24"/>
      <circle class="st0" cx="190" cy="13.49" r="2.24"/>
      <rect class="st0" x="252.96" y="23.02" width="3.93" height="3.93"/>
      <rect class="st0" x="258.8" y="73.45" width="3.93" height="3.93"/>
      <rect class="st0" x="260.08" y="72.19" width="3.93" height="3.93"/>
      <rect class="st0" x="189.48" y="110.53" width="3.93" height="3.93"/>
      <rect class="st0" x="189.48" y="111.67" width="3.93" height="3.93"/>
      <rect class="st0" x="271.98" y="110.53" width="3.93" height="3.93"/>
      <rect class="st0" x="271.98" y="111.67" width="3.93" height="3.93"/>
      <rect class="st0" x="268.76" y="222.41" width="3.93" height="3.93"/>
      <rect class="st0" x="268.76" y="223.55" width="3.93" height="3.93"/>
      <circle class="st0" cx="120.42" cy="126.71" r="2.24"/>
      <circle class="st0" cx="54.3" cy="132.86" r="2.24"/>
      <circle class="st0" cx="194.73" cy="215.07" r="2.24"/>
      <circle class="st0" cx="202.34" cy="151.29" r="2.24"/>
      <circle class="st0" cx="263.22" cy="151.29" r="2.24"/>
      <circle class="st0" cx="263.22" cy="182.78" r="2.24"/>
      <rect class="st0" x="200.38" y="212.45" width="3.93" height="3.93"/>
    </g>
  </g>
</svg>