<?xml version="1.0" encoding="UTF-8"?>
<svg id="Layer_1" xmlns="http://www.w3.org/2000/svg" version="1.1" viewBox="0 0 60 60">
  <!-- Generator: Adobe Illustrator 30.5.0, SVG Export Plug-In . SVG Version: 2.1.4 Build 167)  -->
  <defs>
    <style>
      .st0 {
        fill: #efe9e2;
      }
    </style>
  </defs>
  <rect class="st0" x=".43" y=".51" width="58.98" height="58.98"/>
  <path d="M0,0v60h60V0H0ZM58.97,3.28H1.03V1.03h57.93v2.24ZM58.97,6.55H13.36l-1.1-1.19-.31-.33h-1.72v1.52H1.03v-2.24h57.93v2.24ZM58.97,9.83h-9.22c.27-.68.57-1.12.85-1.39l.32-.31v-.55h8.05v2.24ZM58.97,13.1h-9.88c.07-.89.19-1.63.34-2.24h9.55v2.24ZM58.97,16.38h-9.97v-1.15c0-.39,0-.75.02-1.09h9.94v2.24ZM58.97,19.66h-9.97v-2.24h9.97v2.24ZM58.97,22.93h-9.97v-2.24h9.97v2.24ZM58.97,26.21h-9.97v-2.24h9.97v2.24ZM58.97,29.48h-9.97v-2.24h9.97v2.24ZM58.97,32.76h-9.97v-2.24h9.97v2.24ZM58.97,36.03h-9.97v-2.24h9.97v2.24ZM58.97,39.31h-9.97v-2.24h9.97v2.24ZM58.97,42.59h-9.97v-2.24h9.97v2.24ZM58.97,45.86h-9.97v-2.24h9.97v2.24ZM58.97,49.14h-9.97v-2.24h9.97v2.24ZM58.97,52.41h-9.97v-2.24h9.97v2.24ZM58.97,55.69H1.03v-2.24h44.92l1.02,1.1.31.33h1.72v-1.43h9.97v2.24ZM58.97,58.97H1.03v-2.24h57.93v2.24ZM1.03,7.59h9.2v2.24H1.03v-2.24ZM11.27,7.07v-1h.23l.45.48.48.52.48.52,2.09,2.24.48.52.48.52,2.09,2.24.48.52.48.52,2.09,2.24.48.52.48.52,2.09,2.24.48.52.48.52,2.09,2.24.48.52.48.52,2.09,2.24.48.52.48.52,2.09,2.24.48.52.48.52,2.09,2.24.48.52.48.52,2.09,2.24.48.52.48.52,2.09,2.24.48.52.42.45V15.23c0-.38-.01-.74-.02-1.09,0-.18-.02-.35-.03-.52,0-.18-.02-.35-.04-.52-.06-.82-.17-1.57-.32-2.24-.04-.18-.08-.35-.13-.52-.05-.18-.1-.35-.15-.52-.3-.91-.71-1.63-1.23-2.13v-.23h8.47v.23c-.53.5-.93,1.23-1.23,2.13-.05.16-.1.34-.15.52-.05.17-.09.34-.13.52-.15.67-.25,1.42-.32,2.24-.01.17-.03.34-.04.52,0,.17-.02.34-.03.52-.01.36-.02.72-.02,1.09v38.61h-.23l-.37-.39-.48-.52-.48-.52-2.09-2.24-.48-.52-.48-.52-2.09-2.24-.48-.52-.48-.52-2.09-2.24-.48-.52-.48-.52-2.09-2.24-.48-.52-.48-.52-2.09-2.24-.48-.52-.48-.52-2.09-2.24-.48-.52-.48-.52-2.09-2.24-.48-.52-.48-.52-2.09-2.24-.48-.52-.48-.52-2.09-2.24-.48-.52-.48-.52-2.09-2.24-.48-.52-.48-.52-.02-.02v25.05c0,.41,0,.8.02,1.18,0,.18.02.35.03.52.01.17.02.35.04.52.07.82.18,1.57.33,2.24.04.18.09.35.14.52.05.18.1.35.15.52.3.87.7,1.56,1.21,2.05v.23h-8.46v-.23c.51-.49.91-1.18,1.21-2.05.06-.16.1-.34.15-.52.05-.17.09-.34.14-.52.15-.67.26-1.42.33-2.24.01-.17.03-.34.04-.52.01-.17.02-.34.03-.52.02-.38.02-.77.02-1.18V7.07ZM42.21,13.1h-22.76l-2.09-2.24h24.5c.15.61.27,1.35.34,2.24ZM42.29,15.23v1.15h-19.79l-2.09-2.24h21.85c.01.35.02.71.02,1.09ZM42.29,19.66h-16.74l-2.09-2.24h18.83v2.24ZM42.29,22.93h-13.69l-2.09-2.24h15.78v2.24ZM42.29,26.21h-10.64l-2.09-2.24h12.73v2.24ZM42.29,29.48h-7.6l-2.09-2.24h9.68v2.24ZM42.29,32.76h-4.55l-2.09-2.24h6.63v2.24ZM42.29,36.03h-1.5l-2.09-2.24h3.59v2.24ZM42.29,37.07v.58l-.54-.58h.54ZM40.7,8.44c.28.27.59.7.85,1.39h-25.15l-2.09-2.24h26.06v.55l.32.31ZM17.03,46.9h22.83l2.09,2.24h-24.56c-.15-.61-.28-1.34-.35-2.24ZM16.94,44.68v-1.06h19.87l2.09,2.24h-21.93c-.02-.37-.03-.76-.03-1.18ZM16.94,40.34h16.82l2.09,2.24h-18.91v-2.24ZM16.94,37.07h13.77l2.09,2.24h-15.86v-2.24ZM16.94,33.79h10.73l2.09,2.24h-12.81v-2.24ZM16.94,30.52h7.68l2.09,2.24h-9.76v-2.24ZM16.94,27.24h4.63l2.09,2.24h-6.72v-2.24ZM16.94,23.97h1.58l2.09,2.24h-3.67v-2.24ZM16.94,22.93v-.67l.62.67h-.62ZM18.53,51.47c-.27-.26-.56-.67-.82-1.3h25.19l2.09,2.24h-26.14v-.64l-.32-.31ZM1.03,10.86h9.2v2.24H1.03v-2.24ZM1.03,14.14h9.2v2.24H1.03v-2.24ZM1.03,17.41h9.2v2.24H1.03v-2.24ZM1.03,20.69h9.2v2.24H1.03v-2.24ZM1.03,23.97h9.2v2.24H1.03v-2.24ZM1.03,27.24h9.2v2.24H1.03v-2.24ZM1.03,30.52h9.2v2.24H1.03v-2.24ZM1.03,33.79h9.2v2.24H1.03v-2.24ZM1.03,37.07h9.2v2.24H1.03v-2.24ZM1.03,40.34h9.2v2.24H1.03v-2.24ZM1.03,43.62h9.2v1.06c0,.42-.01.81-.03,1.18H1.03v-2.24ZM1.03,46.9h9.11c-.08.9-.2,1.63-.35,2.24H1.03v-2.24ZM1.03,50.17h8.43c-.26.63-.55,1.04-.82,1.3l-.32.31v.64H1.03v-2.24Z"/>
</svg>