<?xml version="1.0" encoding="UTF-8"?>
<svg id="Layer_1" xmlns="http://www.w3.org/2000/svg" version="1.1" viewBox="0 0 6331.37 184.96">
  <!-- Generator: Adobe Illustrator 30.5.0, SVG Export Plug-In . SVG Version: 2.1.4 Build 167)  -->
  <defs>
    <style>
      .st0 {
        fill: #efe9e2;
      }
    </style>
  </defs>
  <path class="st0" d="M139.72,120.4c.42,6.52-1.68,19.57-3.58,23.35-9.68-8-14.73-29.04-16.2-41.24-1.47,6.52-4.21,21.25-8.21,25.88-6.52-8.84-12.2-35.77-12.84-50.5-.42,11.99-8.42,28.62-22.72,34.72,1.68-4.84,2.95-14.1,2.95-24.41,0-13.89-5.26-28.83-19.78-28.83-15.36,0-22.73,13.89-22.73,38.72,0,28.62,12.41,38.3,26.3,38.3s27.56-11.78,33.46-30.93l.63.21c.84,6.94,5.05,18.31,6.94,22.51-6.31,11.36-23.36,22.94-46.71,22.94C24.41,151.12,0,131.13,0,98.09s24.83-53.45,56.18-53.45c52.39,0,73.02,70.7,115.1,89.22-43.35-32.83-57.02-88.38-100.16-93.43l-.21-1.47s3.58-.84,10.1-.84c19.15,0,41.66,3.79,59.76,15.99-3.16,2.94-14.31,7.36-22.31,8.21,10.94,1.47,29.88,7.79,38.09,16.62-3.58,2.95-14.1,5.26-18.52,5.68,9.68,1.68,22.94,5.68,29.04,11.57-2.53,3.16-11.36,5.68-16.62,6.1,20.2,1.05,28.62,8.42,28.62,8.42-5.05,5.05-13.47,7.37-13.47,7.37,14.31,1.89,23.99,8.63,23.99,8.63-3.58,3.16-10.73,4.42-10.73,4.42,7.16,2.74,13.05,5.68,18.73,12.2-2.74,1.05-7.37,2.1-12.84,2.1-8.42,0-15.99-1.05-22.51-6.94.63,4.42.42,9.89-1.05,13.68-9.68-5.26-18.52-22.09-21.46-31.77ZM173.81,63.58c-7.58,0-13.47,3.16-17.25,8-2.74-2.31-9.47-6.31-15.57-8.42,6.73-11.57,16.62-18.52,28.83-18.52,16.41,0,26.3,13.68,24.2,31.77l-1.05.42c-2.31-5.47-7.79-13.26-19.15-13.26Z"/>
  <path class="st0" d="M232.09,93.67c0-51.76,42.5-85.85,97.64-85.85,19.36,0,38.72,4.42,46.71,8.21l4.84,35.77-.84.21c-10.73-10.73-27.78-19.15-48.61-19.15-24.83,0-52.19,14.52-52.19,56.39,0,36.82,18.94,63.55,53.45,63.55,1.89,0,3.58,0,5.47-.21v-45.66c0-13.05-2.95-22.73-7.79-27.36v-.84h59.34v.84c-4.84,4.63-7.79,14.31-7.79,27.36v22.51c0,9.26,1.47,23.15,5.47,30.09v.84c-9.26,8-30.93,17.46-59.76,17.46-57.87,0-95.95-33.25-95.95-84.17Z"/>
  <path class="st0" d="M413.04,146.28V39.39c0-13.05-2.95-22.73-7.79-27.35v-.84h66.28c42.71,0,63.34,19.78,63.34,43.77,0,17.25-9.26,31.77-24.41,40.82l24.62,50.5c8.84,17.89,14.1,23.99,18.1,27.36v.84h-55.55c0-4.63-2.74-15.78-8.21-28.2l-17.89-39.77c-1.89.21-3.37.21-5.26.21h-9.47v39.56c0,13.05,2.95,22.73,7.79,27.36v.84h-59.34v-.84c4.84-4.63,7.79-14.31,7.79-27.36ZM489.43,58.11c-.42-16.41-9.47-23.15-28.62-23.15h-4v47.98h.84c18.94,0,32.19-4.63,31.77-24.83Z"/>
  <path class="st0" d="M597.58,146.28v-45.03l-40.61-61.86c-10.73-16.2-16.83-23.57-21.67-27.35v-.84h61.02c.21,4.63,1.89,13.68,11.15,28.2l19.57,30.72,19.15-30.72c9.47-15.15,12.2-22.73,12.2-28.2h44.19v.84c-4.63,3.79-11.78,10.52-22.73,27.35l-38.51,58.5v48.4c0,13.05,2.95,22.73,7.79,27.36v.84h-59.34v-.84c4.84-4.63,7.79-14.31,7.79-27.36Z"/>
  <path class="st0" d="M716.46,146.28V39.39c0-13.05-2.95-22.73-7.79-27.35v-.84h62.07c50.08,0,99.32,19.99,99.32,77.65s-47.13,85.64-101.42,85.64h-59.97v-.84c4.84-4.63,7.79-14.31,7.79-27.36ZM822.52,94.1c-.21-39.56-20.2-59.13-55.34-59.13h-6.94v115.73h7.58c32.83,0,54.92-17.46,54.71-56.6Z"/>
  <path class="st0" d="M886.06,92.83c0-51.34,39.35-85.01,89.43-85.01s89.43,33.67,89.43,85.01-39.35,85.01-89.43,85.01-89.43-33.67-89.43-85.01ZM1017.36,100.62c0-29.88-12.41-67.75-44.82-67.75-24.83,0-38.93,21.88-38.93,51.76,0,32.62,13.47,68.18,45.03,68.18,24.83,0,38.72-22.09,38.72-52.19ZM948.34,93.04v-.63c7.79-6.31,21.04-19.15,26.72-26.72h.84c5.68,7.58,18.94,20.41,26.72,26.72v.63c-7.79,6.1-21.04,19.15-26.72,26.93h-.84c-5.68-7.79-18.94-20.83-26.72-26.93Z"/>
  <path class="st0" d="M1117.09,90.1v56.18c0,13.05,2.95,22.73,7.79,27.36v.84h-46.08v-.84c4.84-4.63,7.79-14.31,7.79-27.36V6.14h.84l107.74,89.22v-55.97c0-13.05-2.95-22.73-7.79-27.35v-.84h46.08v.84c-4.84,4.63-7.79,14.31-7.79,27.35v140.14h-.84l-107.74-89.43Z"/>
  <path class="st0" d="M1299.73,138.49c-6.52,5.89-14.1,6.94-22.51,6.94-5.47,0-10.1-1.05-12.84-2.1,5.68-6.52,11.57-9.47,18.73-12.2,0,0-7.15-1.26-10.73-4.42,0,0,9.68-6.73,23.99-8.63,0,0-8.42-2.32-13.47-7.37,0,0,8.42-7.37,28.62-8.42-5.26-.42-14.1-2.94-16.62-6.1,6.1-5.89,19.36-9.89,29.04-11.57-4.42-.42-14.94-2.74-18.52-5.68,8.21-8.84,27.15-15.15,38.09-16.62-8-.84-19.15-5.26-22.3-8.21,18.09-12.21,40.61-15.99,59.76-15.99,6.52,0,10.1.84,10.1.84l-.21,1.47c-43.14,5.05-56.81,60.6-100.16,93.43,42.08-18.52,62.7-89.22,115.1-89.22,31.35,0,56.18,19.57,56.18,53.45s-24.41,53.03-57.23,53.03c-23.36,0-40.4-11.57-46.71-22.94,1.89-4.21,6.1-15.57,6.94-22.51l.63-.21c5.89,19.15,19.36,30.93,33.46,30.93s26.3-9.68,26.3-38.3c0-24.83-7.37-38.72-22.73-38.72-14.52,0-19.78,14.94-19.78,28.83,0,10.31,1.26,19.57,2.95,24.41-14.31-6.1-22.3-22.73-22.73-34.72-.63,14.73-6.31,41.66-12.84,50.5-4-4.63-6.73-19.36-8.21-25.88-1.47,12.2-6.52,33.25-16.2,41.24-1.89-3.79-4-16.83-3.58-23.35-2.95,9.68-11.78,26.51-21.46,31.77-1.47-3.79-1.68-9.26-1.05-13.68ZM1292.16,44.65c12.2,0,22.09,6.94,28.83,18.52-6.1,2.1-12.84,6.1-15.57,8.42-3.79-4.84-9.68-8-17.25-8-11.36,0-16.83,7.79-19.15,13.26l-1.05-.42c-2.1-18.09,7.79-31.77,24.2-31.77Z"/>
  <path class="st0" d="M1536.02,146.28V38.12h-17.89c-14.1,0-23.78,2.11-31.98,8.21l-.84-.21,4.63-34.93h136.56l4.63,34.93-.84.21c-8.21-6.1-17.89-8.21-31.98-8.21h-18.52v108.16c0,13.05,2.95,22.73,7.79,27.36v.84h-59.34v-.84c4.84-4.63,7.79-14.31,7.79-27.36Z"/>
  <path class="st0" d="M1650.7,146.28V39.39c0-13.05-2.95-22.73-7.79-27.35v-.84h59.34v.84c-4.84,4.63-7.79,14.31-7.79,27.35v34.93h53.45v-34.93c0-13.05-2.95-22.73-7.79-27.35v-.84h59.34v.84c-4.84,4.63-7.79,14.31-7.79,27.35v106.89c0,13.05,2.95,22.73,7.79,27.36v.84h-59.34v-.84c4.84-4.63,7.79-14.31,7.79-27.36v-45.03h-53.45v45.03c0,13.05,2.95,22.73,7.79,27.36v.84h-59.34v-.84c4.84-4.63,7.79-14.31,7.79-27.36Z"/>
  <path class="st0" d="M1824.5,146.28V39.39c0-13.05-2.95-22.73-7.79-27.35v-.84h104.58l4.63,34.93-.84.21c-8.21-6.1-17.89-8.21-31.98-8.21h-24.83v36.61h18.52c9.89,0,21.04-1.47,27.78-6.1l.84.21v35.98l-.84.21c-6.73-4.63-17.89-6.1-27.78-6.1h-18.52v48.61h18.1c17.88,0,37.24-2.94,45.45-10.52l.84.21-4.63,37.24h-111.31v-.84c4.84-4.63,7.79-14.31,7.79-27.36Z"/>
  <path class="st0" d="M1981.47,65.27l.42-.63c8-2.74,15.36-8.42,21.25-15.15-8.84-1.89-17.46-2.31-26.09.21l-.42-.42,10.73-33.46.63.21c5.47,7.15,12.63,11.78,20.83,15.57-1.05-9.26-3.58-17.68-8.42-24.62v-.84h35.56v.84c-4.84,6.94-7.36,15.36-8.42,24.41,8.21-3.79,15.15-8.42,20.41-15.36l.84-.21,10.73,33.46-.42.42c-8.63-2.74-17.25-2.32-26.3-.42,6.1,6.73,13.05,12.41,21.25,15.36l.42.63-28.2,20.83-.63-.63c-.21-8.84-3.16-16.83-7.58-24.41-4.42,7.58-7.58,15.57-7.79,24.41l-.42.63-28.41-20.83ZM1981.47,157.22l.42-.63c8.21-2.95,14.94-8.21,21.25-15.36-9.05-1.89-17.46-2.32-26.09.21l-.42-.42,10.73-33.46.63.21c5.47,7.16,12.84,11.99,20.83,15.57-1.05-9.26-3.37-17.25-8.42-24.62v-.84h35.56v.84c-4.84,6.94-7.36,15.36-8.42,24.62,8.21-3.79,15.15-8.63,20.41-15.57l.84-.21,10.73,33.46-.42.42c-8.63-2.73-17.25-2.1-26.3-.21,6.1,6.73,13.05,12.2,21.25,15.36l.42.63-28.2,20.62-.63-.63c-.21-8.84-2.95-16.41-7.58-24.41-4.63,8-7.58,15.57-7.79,24.41l-.42.63-28.41-20.62Z"/>
  <path class="st0" d="M2144.97,146.28V38.12h-17.89c-14.1,0-23.78,2.11-31.98,8.21l-.84-.21,4.63-34.93h136.56l4.63,34.93-.84.21c-8.21-6.1-17.89-8.21-31.98-8.21h-18.52v108.16c0,13.05,2.95,22.73,7.79,27.36v.84h-59.34v-.84c4.84-4.63,7.79-14.31,7.79-27.36Z"/>
  <path class="st0" d="M2303.41,146.28v-45.03l-40.61-61.86c-10.73-16.2-16.83-23.57-21.67-27.35v-.84h61.02c.21,4.63,1.89,13.68,11.15,28.2l19.57,30.72,19.15-30.72c9.47-15.15,12.2-22.73,12.2-28.2h44.19v.84c-4.63,3.79-11.78,10.52-22.73,27.35l-38.51,58.5v48.4c0,13.05,2.95,22.73,7.79,27.36v.84h-59.34v-.84c4.84-4.63,7.79-14.31,7.79-27.36Z"/>
  <path class="st0" d="M2422.29,146.28V39.39c0-13.05-2.95-22.73-7.79-27.35v-.84h66.28c42.72,0,63.34,20.83,63.34,44.82,0,30.3-27.99,52.82-68.59,52.82h-9.47v37.45c0,13.05,2.95,22.73,7.79,27.36v.84h-59.34v-.84c4.84-4.63,7.79-14.31,7.79-27.36ZM2498.67,59.16c-.42-16.41-9.47-24.2-28.62-24.2h-4v50.08h.84c18.94,0,32.19-5.68,31.77-25.88Z"/>
  <path class="st0" d="M2562.22,146.28V39.39c0-13.05-2.95-22.73-7.79-27.35v-.84h104.58l4.63,34.93-.84.21c-8.21-6.1-17.89-8.21-31.98-8.21h-24.83v36.61h18.52c9.89,0,21.04-1.47,27.77-6.1l.84.21v35.98l-.84.21c-6.73-4.63-17.88-6.1-27.77-6.1h-18.52v48.61h18.1c17.89,0,37.24-2.94,45.45-10.52l.84.21-4.63,37.24h-111.31v-.84c4.84-4.63,7.79-14.31,7.79-27.36Z"/>
  <path class="st0" d="M2691.62,146.28V39.39c0-13.05-2.95-22.73-7.79-27.35v-.84h104.58l4.63,34.93-.84.21c-8.21-6.1-17.89-8.21-31.98-8.21h-24.83v40.82h16.41c9.89,0,21.04-1.47,27.77-6.1l.84.21v35.98l-.84.21c-6.73-4.63-17.88-6.1-27.77-6.1h-16.41v43.13c0,13.05,2.95,22.73,7.79,27.36v.84h-59.34v-.84c4.84-4.63,7.79-14.31,7.79-27.36Z"/>
  <path class="st0" d="M2797.04,140.6l44.82-104.79-13.89-23.78v-.84h50.29l63.55,137.62c5.47,11.78,11.36,20.62,15.57,24.83v.84h-60.39c1.26-7.15,0-16.83-5.68-30.09l-.84-2.1h-63.97l-.84,2.1c-5.47,13.26-5.89,23.36-4.63,30.09h-42.92v-.84c7.79-8.84,12.63-19.57,18.94-33.04ZM2879.31,115.98l-21.04-50.29-20.83,50.29h41.87Z"/>
  <path class="st0" d="M2945.38,93.67c0-51.76,38.3-85.85,93.43-85.85,19.36,0,34.51,4.42,42.5,8.21l4.84,35.77-.84.21c-9.89-11.15-25.04-18.1-43.77-18.1-24.83,0-48.6,13.47-48.6,55.34,0,38.93,23.15,62.49,53.45,62.49,20.62,0,37.03-8.84,46.08-19.36l.84.21-6.52,35.77c-8.84,5.05-24.41,9.47-45.45,9.47-53.66,0-95.95-33.25-95.95-84.17Z"/>
  <path class="st0" d="M3112.03,146.28V39.39c0-13.05-2.95-22.73-7.79-27.35v-.84h104.58l4.63,34.93-.84.21c-8.21-6.1-17.89-8.21-31.98-8.21h-24.83v36.61h18.52c9.89,0,21.04-1.47,27.77-6.1l.84.21v35.98l-.84.21c-6.73-4.63-17.88-6.1-27.77-6.1h-18.52v48.61h18.1c17.89,0,37.24-2.94,45.45-10.52l.84.21-4.63,37.24h-111.31v-.84c4.84-4.63,7.79-14.31,7.79-27.36Z"/>
  <path class="st0" d="M3255.74,94.52v-3.37c32.83-17.67,58.92-43.98,75.75-75.75h3.37c17.67,32.83,43.98,58.92,75.75,75.75v3.37c-32.41,17.46-58.29,43.34-75.75,75.75h-3.37c-17.25-32.41-43.34-58.5-75.75-75.75ZM3382.83,93.04v-.42c-20.62-11.57-38.3-28.83-49.45-49.66h-.42c-11.15,20.83-28.83,38.09-49.45,49.66v.42c20.62,11.15,38.29,28.41,49.45,49.45h.42c11.15-21.04,28.83-38.3,49.45-49.45Z"/>
  <path class="st0" d="M3449.95,146.28V39.39c0-13.05-2.95-22.73-7.79-27.35v-.84h104.58l4.63,34.93-.84.21c-8.21-6.1-17.89-8.21-31.98-8.21h-24.83v40.82h16.41c9.89,0,21.04-1.47,27.77-6.1l.84.21v35.98l-.84.21c-6.73-4.63-17.88-6.1-27.77-6.1h-16.41v43.13c0,13.05,2.95,22.73,7.79,27.36v.84h-59.34v-.84c4.84-4.63,7.79-14.31,7.79-27.36Z"/>
  <path class="st0" d="M3559.37,92.83c0-51.34,39.35-85.01,89.43-85.01s89.43,33.67,89.43,85.01-39.35,85.01-89.43,85.01-89.43-33.67-89.43-85.01ZM3690.67,100.62c0-29.88-12.41-67.75-44.82-67.75-24.83,0-38.93,21.88-38.93,51.76,0,32.62,13.47,68.18,45.03,68.18,24.83,0,38.72-22.09,38.72-52.19ZM3621.65,93.04v-.63c7.79-6.31,21.04-19.15,26.73-26.72h.84c5.68,7.58,18.94,20.41,26.73,26.72v.63c-7.79,6.1-21.04,19.15-26.73,26.93h-.84c-5.68-7.79-18.94-20.83-26.73-26.93Z"/>
  <path class="st0" d="M3759.89,146.28V39.39c0-13.05-2.95-22.73-7.79-27.35v-.84h66.28c42.72,0,63.34,19.78,63.34,43.77,0,17.25-9.26,31.77-24.41,40.82l24.62,50.5c8.84,17.89,14.1,23.99,18.09,27.36v.84h-55.55c0-4.63-2.74-15.78-8.21-28.2l-17.89-39.77c-1.89.21-3.37.21-5.26.21h-9.47v39.56c0,13.05,2.95,22.73,7.79,27.36v.84h-59.34v-.84c4.84-4.63,7.79-14.31,7.79-27.36ZM3836.28,58.11c-.42-16.41-9.47-23.15-28.62-23.15h-4v47.98h.84c18.94,0,32.19-4.63,31.77-24.83Z"/>
  <path class="st0" d="M3970.94,168.04c0-12.64,11.36-20.19,14.52-34.06-10.94,2.86-22.3,13.66-33.88,13.66-10.1,0-17.46-7.34-17.46-16.52s7.36-16.52,17.46-16.52c11.99,0,22.94,11.01,34.3,13.66-.21-15.7-5.68-29.57-19.57-35.89v-.82c13.89-6.32,19.15-16.52,19.57-34.87-11.57,2.86-22.31,13.66-34.3,13.66-10.1,0-17.46-7.34-17.46-16.52s7.36-16.52,17.46-16.52c11.57,0,22.94,10.81,33.88,13.66-3.16-13.87-14.52-21.41-14.52-34.06,0-9.79,8-16.93,17.89-16.93s18.31,7.14,18.31,16.93c0,12.64-11.36,20.19-14.52,34.06,11.15-2.85,22.09-13.66,33.88-13.66,10.1,0,17.47,7.34,17.47,16.52s-7.37,16.52-17.47,16.52c-11.78,0-22.73-10.81-34.3-13.66.42,18.35,5.68,28.55,19.57,34.87v.82c-13.89,6.32-19.36,20.19-19.57,35.89,11.15-2.65,22.51-13.66,34.3-13.66,10.1,0,17.47,7.34,17.47,16.52s-7.37,16.52-17.47,16.52c-11.78,0-22.73-10.81-33.88-13.66,3.16,13.87,14.52,21.41,14.52,34.06,0,9.79-8,16.93-18.31,16.93s-17.89-7.14-17.89-16.93Z"/>
  <path class="st0" d="M4123.91,90.1v56.18c0,13.05,2.95,22.73,7.79,27.36v.84h-46.08v-.84c4.84-4.63,7.79-14.31,7.79-27.36V6.14h.84l107.74,89.22v-55.97c0-13.05-2.94-22.73-7.78-27.35v-.84h46.08v.84c-4.84,4.63-7.79,14.31-7.79,27.35v140.14h-.84l-107.74-89.43Z"/>
  <path class="st0" d="M4263.62,140.6l44.82-104.79-13.89-23.78v-.84h50.29l63.55,137.62c5.47,11.78,11.36,20.62,15.57,24.83v.84h-60.39c1.26-7.15,0-16.83-5.68-30.09l-.84-2.1h-63.97l-.84,2.1c-5.47,13.26-5.89,23.36-4.63,30.09h-42.92v-.84c7.79-8.84,12.63-19.57,18.94-33.04ZM4345.9,115.98l-21.04-50.29-20.83,50.29h41.87Z"/>
  <path class="st0" d="M4454.68,146.28V38.12h-17.89c-14.1,0-23.78,2.11-31.98,8.21l-.84-.21,4.63-34.93h136.56l4.63,34.93-.84.21c-8.21-6.1-17.89-8.21-31.98-8.21h-18.52v108.16c0,13.05,2.94,22.73,7.78,27.36v.84h-59.34v-.84c4.84-4.63,7.79-14.31,7.79-27.36Z"/>
  <path class="st0" d="M4567.25,118.08V39.39c0-13.05-2.95-22.73-7.79-27.35v-.84h59.34v.84c-4.84,4.63-7.79,14.31-7.79,27.35v71.96c0,27.36,9.47,35.98,25.88,35.98,15.15,0,27.15-14.73,27.15-36.61V39.39c0-13.05-2.95-22.73-7.79-27.35v-.84h59.34v.84c-4.84,4.63-7.78,14.31-7.78,27.35v106.89c0,13.05,2.94,22.73,7.78,27.36v.84h-51.13c1.05-6.1,1.05-13.26,1.05-16.83-5.89,9.68-22.3,20.2-41.87,20.2-35.35,0-56.39-17.89-56.39-59.76Z"/>
  <path class="st0" d="M4740.64,146.28V39.39c0-13.05-2.95-22.73-7.79-27.35v-.84h66.28c42.72,0,63.34,19.78,63.34,43.77,0,17.25-9.26,31.77-24.41,40.82l24.62,50.5c8.84,17.89,14.1,23.99,18.09,27.36v.84h-55.55c0-4.63-2.74-15.78-8.21-28.2l-17.89-39.77c-1.89.21-3.37.21-5.26.21h-9.47v39.56c0,13.05,2.95,22.73,7.79,27.36v.84h-59.34v-.84c4.84-4.63,7.79-14.31,7.79-27.36ZM4817.02,58.11c-.42-16.41-9.47-23.15-28.62-23.15h-4v47.98h.84c18.94,0,32.19-4.63,31.77-24.83Z"/>
  <path class="st0" d="M4898.66,140.6l44.82-104.79-13.89-23.78v-.84h50.29l63.55,137.62c5.47,11.78,11.36,20.62,15.57,24.83v.84h-60.39c1.26-7.15,0-16.83-5.68-30.09l-.84-2.1h-63.97l-.84,2.1c-5.47,13.26-5.89,23.36-4.63,30.09h-42.92v-.84c7.79-8.84,12.63-19.57,18.94-33.04ZM4980.93,115.98l-21.04-50.29-20.83,50.29h41.87Z"/>
  <path class="st0" d="M5071.62,146.28V39.39c0-13.05-2.95-22.73-7.79-27.35v-.84h59.34v.84c-4.84,4.63-7.79,14.31-7.79,27.35v108.16h23.36c17.89,0,37.24-2.94,45.45-10.52l.84.21-4.63,37.24h-116.57v-.84c4.84-4.63,7.79-14.31,7.79-27.36Z"/>
  <path class="st0" d="M5222.9,32.02v-.84c7.58-6.1,21.04-19.15,26.73-27.14h.84c5.68,8,19.15,21.04,26.73,27.14v.84c-7.58,6.1-21.04,19.15-26.73,26.93h-.84c-5.68-7.79-19.15-20.83-26.73-26.93ZM5222.9,93.25v-.84c7.58-6.1,21.04-19.15,26.73-27.14h.84c5.68,8,19.15,21.04,26.73,27.14v.84c-7.58,6.1-21.04,19.15-26.73,26.93h-.84c-5.68-7.79-19.15-20.83-26.73-26.93ZM5222.9,154.7v-.84c7.58-6.1,21.04-19.15,26.73-27.14h.84c5.68,8,19.15,21.04,26.73,27.14v.84c-7.58,6.1-21.04,19.15-26.73,26.93h-.84c-5.68-7.79-19.15-20.83-26.73-26.93Z"/>
  <path class="st0" d="M5327.27,146.28V39.39c0-13.05-2.95-22.73-7.79-27.35v-.84h59.34v.84c-4.84,4.63-7.79,14.31-7.79,27.35v34.93h53.45v-34.93c0-13.05-2.94-22.73-7.78-27.35v-.84h59.34v.84c-4.84,4.63-7.78,14.31-7.78,27.35v106.89c0,13.05,2.94,22.73,7.78,27.36v.84h-59.34v-.84c4.84-4.63,7.78-14.31,7.78-27.36v-45.03h-53.45v45.03c0,13.05,2.95,22.73,7.79,27.36v.84h-59.34v-.84c4.84-4.63,7.79-14.31,7.79-27.36Z"/>
  <path class="st0" d="M5501.07,146.28V39.39c0-13.05-2.95-22.73-7.79-27.35v-.84h59.34v.84c-4.84,4.63-7.79,14.31-7.79,27.35v106.89c0,13.05,2.95,22.73,7.79,27.36v.84h-59.34v-.84c4.84-4.63,7.79-14.31,7.79-27.36Z"/>
  <path class="st0" d="M5574.71,166.27l-5.05-40.4.84-.21c14.52,15.78,34.72,23.78,49.87,23.78,14.1,0,24.41-3.58,24.41-16.2,0-9.05-6.94-15.57-23.57-23.36l-12.63-5.89c-26.93-12.63-37.24-26.3-37.24-47.55,0-30.51,27.15-48.61,62.71-48.61,17.04,0,34.09,3.58,42.5,8.42l4.84,36.61-.84.21c-8.84-10.52-26.09-19.15-43.56-19.15-13.47,0-22.3,5.26-22.3,13.89,0,7.37,2.52,10.52,17.46,17.25l21.67,9.89c23.57,10.73,37.88,25.25,37.88,49.87,0,38.51-31.35,52.82-67.75,52.82-18.31,0-38.09-5.47-49.24-11.36Z"/>
  <path class="st0" d="M5744.52,146.28V38.12h-17.89c-14.1,0-23.78,2.11-31.98,8.21l-.84-.21,4.63-34.93h136.56l4.63,34.93-.84.21c-8.21-6.1-17.89-8.21-31.98-8.21h-18.52v108.16c0,13.05,2.94,22.73,7.78,27.36v.84h-59.34v-.84c4.84-4.63,7.79-14.31,7.79-27.36Z"/>
  <path class="st0" d="M5841.31,92.83c0-51.34,39.35-85.01,89.43-85.01s89.43,33.67,89.43,85.01-39.35,85.01-89.43,85.01-89.43-33.67-89.43-85.01ZM5972.61,100.62c0-29.88-12.41-67.75-44.82-67.75-24.83,0-38.93,21.88-38.93,51.76,0,32.62,13.47,68.18,45.03,68.18,24.83,0,38.72-22.09,38.72-52.19ZM5903.59,93.04v-.63c7.79-6.31,21.04-19.15,26.73-26.72h.84c5.68,7.58,18.94,20.41,26.73,26.72v.63c-7.79,6.1-21.04,19.15-26.73,26.93h-.84c-5.68-7.79-18.94-20.83-26.73-26.93Z"/>
  <path class="st0" d="M6041.84,146.28V39.39c0-13.05-2.95-22.73-7.79-27.35v-.84h66.28c42.72,0,63.34,19.78,63.34,43.77,0,17.25-9.26,31.77-24.41,40.82l24.62,50.5c8.84,17.89,14.1,23.99,18.09,27.36v.84h-55.55c0-4.63-2.74-15.78-8.21-28.2l-17.89-39.77c-1.89.21-3.37.21-5.26.21h-9.47v39.56c0,13.05,2.95,22.73,7.79,27.36v.84h-59.34v-.84c4.84-4.63,7.79-14.31,7.79-27.36ZM6118.22,58.11c-.42-16.41-9.47-23.15-28.62-23.15h-4v47.98h.84c18.94,0,32.19-4.63,31.77-24.83Z"/>
  <path class="st0" d="M6226.37,146.28v-45.03l-40.61-61.86c-10.73-16.2-16.83-23.57-21.67-27.35v-.84h61.02c.21,4.63,1.89,13.68,11.15,28.2l19.57,30.72,19.15-30.72c9.47-15.15,12.2-22.73,12.2-28.2h44.19v.84c-4.63,3.79-11.78,10.52-22.72,27.35l-38.51,58.5v48.4c0,13.05,2.95,22.73,7.79,27.36v.84h-59.34v-.84c4.84-4.63,7.78-14.31,7.78-27.36Z"/>
</svg>