<?xml version="1.0" encoding="UTF-8"?>
<svg id="Layer_1" xmlns="http://www.w3.org/2000/svg" version="1.1" viewBox="0 0 2169.93 373.73">
  <!-- Generator: Adobe Illustrator 30.6.0, SVG Export Plug-In . SVG Version: 2.1.4 Build 109)  -->
  <defs>
    <style>
      .st0 {
        fill: #efe9e2;
      }
    </style>
  </defs>
  <polygon class="st0" points="176.91 5.11 148.92 35.92 136.02 65.78 134.95 90.44 142.05 113.38 160.98 145.33 138.44 169.58 116.5 153.37 93.9 145.09 63.03 146.51 37.71 156.09 3.76 186.26 24.11 207.55 45.76 221.04 64.45 227.19 84.2 228.84 103.13 226.36 123.83 216.54 140.04 203.76 162.63 227.07 151.04 242.45 138.44 267.64 134.71 289.29 136.84 309.99 145.12 331.76 158.85 351.87 177.66 370.44 196.23 351.4 213.38 324.43 217.64 301.12 218.11 278.08 211.61 253.8 198 231.68 195.52 228.01 216.46 206.48 231.13 225.26 248.52 252.03 260.58 276.71 272.18 309.4 276.55 338.03 277.26 365.41 1889.46 365.41 1889.46 342.34 1895.46 307.22 1907.11 272.78 1922.7 243.83 1949.42 205.96 1970.67 228.41 1961.42 242.8 1952.17 264.56 1948.4 283.57 1949.42 309.27 1956.28 331.2 1967.07 347.82 1988.83 369.58 2004.08 355.7 2018.81 336 2028.21 314.24 2030.98 293.68 2029.09 272.61 2021.9 251.37 2010.42 234.58 2003.73 227.55 2027.04 203.57 2038 212.99 2051.71 221.04 2068.67 227.38 2080.66 228.75 2100.71 227.38 2121.95 221.21 2136.51 212.82 2163.07 187.78 2146.62 170.67 2123.32 154.91 2106.36 148.32 2081.69 144.8 2058.73 149.43 2026.69 169.64 2006.13 143.94 2020.7 123.73 2029.78 102.14 2031.49 75.07 2026.69 52.63 2013.67 29.33 1989.73 3.28 1971.7 19.73 1957.13 42.86 1948.57 65.82 1947.88 91.35 1952.17 110.19 1971.87 144.63 1948.57 167.76 1926.12 133.83 1909.68 104.02 1896.14 67.02 1889.63 40.29 1889.46 8.17 276.33 8.17 276.5 27.27 273.93 54.34 266.05 83.12 253.54 110.36 231.44 148.32 216.19 166.39 194.09 141.89 203.69 129.72 216.19 108.14 218.94 83.81 215.38 57.42 203.69 31.72 193.92 18.7 176.91 5.11"/>
  <path d="M2086.56,142.29c-21.37,0-40,10.38-55.57,23.21l-5.5-5.8-13.44-14.66c18.32-21.68,25.34-43.36,25.34-61.68,0-26.56-8.85-50.99-45.5-83.36-36.95,32.37-43.66,58.01-43.66,83.36,0,19.24,5.5,36.03,23.51,60.15-6.41,6.72-12.21,12.82-18.32,19.85-37.25-47.94-62.29-100.46-57.1-157.86H273.59c5.19,57.4-19.85,109.92-57.1,157.86-6.11-7.02-11.91-13.13-18.32-19.85,18.01-24.12,23.51-40.91,23.51-60.15,0-25.34-6.72-50.99-43.66-83.36-36.64,32.37-45.5,56.79-45.5,83.36,0,18.32,7.02,40,25.34,61.68l-13.43,14.66-5.5,5.8c-15.57-12.82-34.2-23.21-55.57-23.21-25.65,0-50.99,7.63-83.36,44.58,32.36,36.95,57.71,44.58,83.36,44.58,23.51,0,41.83-10.99,56.49-23.82l12.21,12.52,7.02,7.02c-19.24,22.29-26.56,44.58-26.56,63.2,0,26.56,8.85,50.99,45.5,83.36,36.95-32.37,43.66-58.01,43.66-83.36,0-19.24-5.8-38.78-22.29-61.68,5.8-5.8,11.3-11.91,17.1-18.32,37.25,47.94,62.29,100.46,57.1,157.86h1622.75c-5.19-57.4,19.85-109.92,57.1-157.86,5.8,6.41,11.3,12.52,17.1,18.32-16.49,22.9-22.29,42.44-22.29,61.68,0,25.34,6.72,50.99,43.66,83.36,36.64-32.37,45.5-56.79,45.5-83.36,0-18.63-7.33-40.92-26.56-63.2l7.02-7.02,12.21-12.52c14.66,12.82,32.98,23.82,56.49,23.82,25.65,0,50.99-7.63,83.36-44.58-32.36-36.95-57.71-44.58-83.36-44.58h-.01ZM1975.42,148.39l4.28-4.27,6.41-6.41,6.41-7.02,3.97-4.58c12.21-15.88,16.49-30.84,16.49-42.75,0-15.88-4.58-30.84-21.07-49.16-15.88,18.01-19.24,32.67-19.24,49.16,0,12.82,3.36,24.43,16.18,42.44l-7.02,7.63-5.8,5.8c-16.79-22.59-21.68-38.17-21.68-55.88,0-23.51,5.5-45.8,37.56-75.11,31.45,29.01,39.39,50.99,39.39,75.11,0,17.1-6.41,36.95-23.21,57.1l-3.97,4.58-5.19,5.5-7.63,7.63-4.28,4.27-18.01,19.85-11.91-14.35,18.32-19.54h0ZM138.63,83.36c0-24.12,7.94-46.11,39.39-75.11,32.06,29.31,37.56,51.6,37.56,75.11,0,17.71-4.89,33.28-21.68,55.88l-5.8-5.8-7.02-7.63c12.82-18.01,16.18-29.62,16.18-42.44,0-16.49-3.36-31.14-19.24-49.16-16.49,18.32-21.07,33.28-21.07,49.16,0,11.91,4.28,26.87,16.49,42.75l3.97,4.58,6.41,7.02,6.41,6.41,4.28,4.27,18.32,19.54-11.91,14.35-18.01-19.85-4.27-4.27-7.63-7.63-5.19-5.5-3.97-4.58c-16.79-20.15-23.2-40-23.2-57.1h-.02ZM135.58,203.35c-13.74,11.91-30.84,21.98-52.21,21.98-23.82,0-46.11-6.41-75.42-38.47,29.31-32.06,51.6-38.47,75.42-38.47,19.24,0,36.64,9.77,51.3,21.68-3.97,4.28-8.55,9.16-12.82,13.13-11.91-9.47-24.73-16.49-38.47-16.49-16.18,0-30.53,3.66-49.16,20.15,18.63,16.49,32.98,20.15,49.16,20.15,15.27,0,27.48-6.41,38.78-15.88l4.58-4.27,12.82-12.82,22.29-24.43,4.89,5.19,7.94,7.94-21.98,23.82-12.82,12.82-4.27,3.97h-.03ZM215.57,290.37c0,23.51-5.5,45.8-37.56,75.11-31.45-29.01-39.39-50.99-39.39-75.11,0-17.4,6.41-37.56,24.43-58.62,4.58,5.19,8.55,10.08,11.6,14.35-13.13,16.49-17.71,31.75-17.71,44.27,0,15.88,4.58,30.84,21.07,49.16,15.88-18.01,19.24-32.67,19.24-49.16,0-13.43-3.67-27.18-14.96-43.97l-3.66-4.89c-3.36-4.89-7.02-9.16-11.6-14.35l-3.97-4.27-6.72-7.02-11.91-12.21c4.58-4.28,8.85-8.85,12.52-12.82l12.21,12.21,6.41,6.72,4.28,4.58c4.27,4.58,8.24,9.47,11.6,13.74l3.66,5.19c15.27,21.37,20.46,39.08,20.46,57.1h0ZM1889.62,362.13H280.31c3.05-57.71-22.9-109.61-59.54-156.33l12.21-14.35c35.72,43.97,62.59,92.82,65.65,149.31h1572.67c3.05-56.49,29.92-105.34,65.65-149.31l12.21,14.35c-36.64,46.72-62.59,98.62-59.54,156.33h0ZM1957.1,205.79l-3.97-4.58-12.52-14.35-3.66-4.58c-35.72-43.97-62.59-92.82-65.65-149.31H298.63c-3.05,56.49-29.92,105.34-65.65,149.31l-3.66,4.58-12.52,14.35-3.97,4.58-17.1,18.01-11.6-14.04,16.79-18.32,3.97-4.58,11.91-14.35,3.97-4.58c36.64-46.72,62.59-98.62,59.54-156.33h1609.31c-3.05,57.71,22.9,109.61,59.54,156.33l3.97,4.58,11.91,14.35,3.97,4.58,16.79,18.32-11.6,14.04-17.1-18.01h0ZM2013.58,215.87l-6.72,7.02-3.97,4.27c-4.58,5.19-8.24,9.47-11.6,14.35l-3.67,4.89c-11.3,16.79-14.96,30.53-14.96,43.97,0,16.49,3.36,31.14,19.24,49.16,16.49-18.32,21.07-33.28,21.07-49.16,0-12.52-4.58-27.79-17.71-44.27,3.05-4.27,7.02-9.16,11.6-14.35,18.01,21.07,24.43,41.22,24.43,58.62,0,24.12-7.94,46.11-39.39,75.11-32.06-29.31-37.56-51.6-37.56-75.11,0-18.01,5.19-35.72,20.46-57.1l3.66-5.19c3.36-4.28,7.33-9.16,11.6-13.74l4.28-4.58,6.41-6.72,12.21-12.21c3.66,3.97,7.94,8.55,12.52,12.82l-11.91,12.21h0ZM2086.56,225.34c-21.37,0-38.47-10.08-52.21-21.98l-4.27-3.97-12.82-12.82-21.98-23.82,7.94-7.94,4.89-5.19,22.29,24.43,12.82,12.82,4.58,4.27c11.3,9.47,23.51,15.88,38.78,15.88,16.18,0,30.53-3.66,49.16-20.15-18.63-16.49-32.98-20.15-49.16-20.15-13.74,0-26.56,7.02-38.47,16.49-4.28-3.97-8.85-8.85-12.82-13.13,14.66-11.91,32.06-21.68,51.3-21.68,23.82,0,46.11,6.41,75.42,38.47-29.31,32.06-51.6,38.47-75.42,38.47h-.03Z"/>
  <g>
    <path class="st0" d="M417.32,243.77V112.44h-14.69c-25.03,0-38.11,4.13-43.62,9.64l-.69-.46,3.21-25.26h135l3.21,25.26-.69.46c-5.51-5.51-18.6-9.64-43.62-9.64h-14.69v131.33c0,14.24,2.98,24.8,8.27,29.85v.92h-39.95v-.92c5.28-5.05,8.27-15.61,8.27-29.85Z"/>
    <path class="st0" d="M568.16,243.77v-59.24l-38.34-57.4c-11.71-17.45-20.2-25.72-25.49-29.85v-.92h38.57c0,7.35,5.51,18.37,14.01,30.77l25.94,38.57,24.11-37.88c6.2-9.64,12.86-22.04,12.86-31.46h31.68v.92c-5.05,4.13-13.09,12.17-24.8,29.85l-35.13,53.5v63.14c0,14.24,2.98,24.8,8.27,29.85v.92h-39.95v-.92c5.28-5.05,8.27-15.61,8.27-29.85Z"/>
    <path class="st0" d="M672.17,243.77v-116.64c0-14.24-2.98-24.8-8.27-29.85v-.92h60.16c39.72,0,61.76,19.29,61.76,45.46,0,33.06-30.08,52.35-67.5,52.35h-22.73v49.59c0,14.24,2.98,24.8,8.27,29.85v.92h-39.95v-.92c5.28-5.05,8.27-15.61,8.27-29.85ZM759.65,144.12c-.46-17.91-12.63-31.68-38.11-31.68h-25.94v65.67h22.5c25.26,0,42.02-11.94,41.56-33.98Z"/>
    <path class="st0" d="M808.55,243.77v-116.64c0-14.24-2.53-24.8-7.12-29.85v-.92h102.17l3.44,24.34-.92.23c-6.89-5.97-23.65-8.5-41.56-8.5h-32.6v57.4h30.08c10.79,0,22.96-.92,30.31-5.97l.92.23v27.32l-.92.23c-7.35-5.05-19.52-5.97-30.31-5.97h-30.08v72.78h40.41c25.03,0,37.88-3.21,43.39-8.72l.69.46-3.21,24.34h-111.81v-.92c4.59-5.05,7.12-15.61,7.12-29.85Z"/>
    <path class="st0" d="M1040.67,243.77V112.44h-14.69c-25.03,0-38.11,4.13-43.62,9.64l-.69-.46,3.21-25.26h135l3.21,25.26-.69.46c-5.51-5.51-18.6-9.64-43.62-9.64h-14.69v131.33c0,14.24,2.98,24.8,8.27,29.85v.92h-39.95v-.92c5.28-5.05,8.27-15.61,8.27-29.85Z"/>
    <path class="st0" d="M1143.07,243.77v-116.64c0-14.24-2.53-24.8-7.12-29.85v-.92h102.17l3.44,24.34-.92.23c-6.89-5.97-23.65-8.5-41.56-8.5h-32.6v57.4h30.08c10.79,0,22.96-.92,30.31-5.97l.92.23v27.32l-.92.23c-7.35-5.05-19.52-5.97-30.31-5.97h-30.08v72.78h40.41c25.03,0,37.88-3.21,43.39-8.72l.69.46-3.21,24.34h-111.81v-.92c4.59-5.05,7.12-15.61,7.12-29.85Z"/>
    <path class="st0" d="M1270.49,263.74l-3.67-29.39.92-.23c10.79,16.07,32.6,27.55,54.19,27.55,23.19,0,38.57-11.94,38.57-31.68,0-17.68-14.92-26.86-36.74-37.88l-10.1-5.05c-27.78-13.78-42.25-27.78-42.25-48.68,0-25.94,19.98-45.69,58.55-45.69,18.6,0,32.83,3.67,42.02,9.64l4.36,27.09-.92.23c-6.66-9.87-22.04-20.43-46.15-20.43-20.43,0-34.67,9.64-34.67,24.11,0,11.94,6.66,19.29,31.91,31.91l14.23,7.12c31.91,16.07,45.23,30.31,45.23,53.73,0,32.83-25.03,52.12-64.52,52.12-17.22,0-38.57-4.59-50.97-14.46Z"/>
    <path class="st0" d="M1448.43,243.77V112.44h-14.69c-25.03,0-38.11,4.13-43.62,9.64l-.69-.46,3.21-25.26h135l3.21,25.26-.69.46c-5.51-5.51-18.6-9.64-43.62-9.64h-14.69v131.33c0,14.24,2.98,24.8,8.27,29.85v.92h-39.95v-.92c5.28-5.05,8.27-15.61,8.27-29.85Z"/>
    <path class="st0" d="M1550.83,243.77v-116.64c0-14.24-2.53-24.8-7.12-29.85v-.92h102.17l3.44,24.34-.92.23c-6.89-5.97-23.65-8.5-41.56-8.5h-32.6v57.4h30.08c10.79,0,22.96-.92,30.31-5.97l.92.23v27.32l-.92.23c-7.35-5.05-19.52-5.97-30.31-5.97h-30.08v72.78h40.41c25.03,0,37.88-3.21,43.39-8.72l.69.46-3.21,24.34h-111.81v-.92c4.59-5.05,7.12-15.61,7.12-29.85Z"/>
    <path class="st0" d="M1683.99,243.77v-116.64c0-14.24-2.98-24.8-8.27-29.85v-.92h60.16c39.72,0,61.76,18.14,61.76,44.31,0,23.42-14.92,39.49-37.42,46.84l31.91,56.25c12.4,21.81,16.3,25.72,20.43,29.85v.92h-37.2c0-14.24-5.74-24.34-9.18-30.77l-28.01-52.12c-2.76.23-5.28.23-8.04.23h-22.73v51.89c0,14.24,2.98,24.8,8.27,29.85v.92h-39.95v-.92c5.28-5.05,8.27-15.61,8.27-29.85ZM1771.47,142.98c-.46-17.91-12.63-30.54-38.11-30.54h-25.94v63.37h22.5c25.26,0,42.02-10.79,41.56-32.83Z"/>
  </g>
</svg>