<?xml version="1.0" encoding="UTF-8"?>
<svg id="Layer_1" xmlns="http://www.w3.org/2000/svg" version="1.1" viewBox="0 0 1664.81 2167.75">
  <!-- Generator: Adobe Illustrator 30.5.0, SVG Export Plug-In . SVG Version: 2.1.4 Build 167)  -->
  <g>
    <path d="M6.54,1791v-42.16c0-5.15-1.16-8.96-3.07-10.79v-.33h24.48c19.75,0,39.17,7.88,39.17,30.62s-18.59,33.78-40,33.78H3.47v-.33c1.91-1.83,3.07-5.64,3.07-10.79ZM48.37,1770.41c-.08-15.6-7.97-23.32-21.83-23.32h-2.74v45.65h2.99c12.95,0,21.66-6.89,21.58-22.33Z"/>
    <path d="M74.01,1785.6v-16.43c0-4.32-.66-7.88-3.07-9.54v-.33l19.09-3.32v29.46c0,6.31,1.91,8.47,5.06,8.47s6.22-3.74,6.22-8.88v-15.85c0-4.32-.66-7.88-3.07-9.54v-.33l19.09-3.32v34.44c0,4.32.66,7.88,3.07,9.54v.33l-17.43,3.15v-6.39c-1.66,2.66-5.15,6.39-13.94,6.39-8.13,0-15.02-5.06-15.02-17.84Z"/>
    <path d="M127.63,1791v-21.99c0-4.32-.66-7.88-3.07-9.54v-.33l18.09-3.15v6.47c1.58-2.99,6.89-6.47,14.77-6.47s14.44,5.06,14.44,17.84v17.18c0,5.15.5,8.96,2.41,10.79v.33h-21v-.33c1.91-1.83,2.57-5.64,2.57-10.79v-14.27c0-7.05-2.41-10.12-5.98-10.12-2.99,0-6.22,2.74-6.22,10.71v13.69c0,5.15.66,8.96,2.57,10.79v.33h-21v-.33c1.91-1.83,2.41-5.64,2.41-10.79Z"/>
    <path d="M181.58,1791v-43.41c0-4.32-.66-7.88-3.07-9.54v-.33l19.09-3.32v39.5l6.31-7.63c2.82-3.4,4.56-6.81,4.81-8.96h16.6v.33c-2.82,2.24-7.14,6.56-10.87,10.96l-4.65,5.39,11.12,17.01c4.65,7.22,7.14,9.46,8.71,10.79l.08.33h-21.91c-.17-1.83-1.66-6.39-4.56-11.12l-5.64-9.21v9.21c0,5.15.5,8.96,2.41,10.79v.33h-20.83v-.33c1.91-1.83,2.41-5.64,2.41-10.79Z"/>
    <path d="M233.53,1791v-43.41c0-4.32-.66-7.88-3.07-9.54v-.33l19.09-3.32v56.6c0,5.15.5,8.96,2.41,10.79v.33h-20.83v-.33c1.91-1.83,2.41-5.64,2.41-10.79Z"/>
    <path d="M255.36,1780.12c0-14.86,11.04-24.15,23.82-24.15,17.1,0,21.99,12.95,21.99,23.07h-29.3c.66,11.37,8.22,15.69,15.93,15.69,5.48,0,9.96-1.41,13.36-4.07l.25.25c-2.82,5.06-10.79,12.53-22.16,12.53-12.37,0-23.9-8.88-23.9-23.32ZM285.48,1770.58c-.58-3.57-2.41-5.89-6.06-5.89s-5.73,2.49-6.72,5.89h12.78Z"/>
    <path d="M305.16,1779.71c0-14.27,9.46-23.74,24.23-23.74s24.32,9.46,24.32,23.74-9.54,23.74-24.32,23.74-24.23-9.38-24.23-23.74ZM337.11,1781.7c0-5.98-1.74-17.01-8.38-17.01-4.73,0-6.89,5.73-6.97,12.95,0,5.97,1.91,17.1,8.55,17.1,4.65,0,6.81-5.73,6.81-13.03Z"/>
    <path d="M360.26,1800.46l-1.41-12.28.25-.08c4.07,4.4,11.29,6.39,15.44,6.39,2.91,0,4.4-1,4.4-2.74s-1.16-2.74-5.73-5.06l-3.57-1.83c-7.3-3.73-10.29-8.55-10.29-14.52,0-8.46,8.55-14.36,19.25-14.36,5.56,0,9.29.75,11.7,1.58l1.33,12.03-.25.08c-2.41-2.9-7.39-4.98-12.28-4.98-2.16,0-4.81.5-4.81,2.24,0,1.41.91,1.99,2.82,3.07l5.23,2.82c6.31,3.4,11.79,8.3,11.79,15.19,0,10.71-8.63,15.44-18.76,15.44-5.23,0-12.03-1.33-15.1-2.99Z"/>
    <path d="M401.35,1788.18v-22.41h-7.72v-.33l23.4-20.17h.33v12.03h15.93v.33l-6.47,9.3c-1.66-.5-5.48-.83-9.46-1v18.17c0,6.81,1.66,9.13,7.14,9.13,2.91,0,5.89-1.41,6.81-2.41l.25.17-2.57,10.46c-3.24,1.58-6.31,1.99-10.37,1.99-8.13,0-17.26-3.15-17.26-15.27Z"/>
    <path d="M432.55,1780.12c0-14.86,11.04-24.15,23.82-24.15,17.1,0,21.99,12.95,21.99,23.07h-29.3c.66,11.37,8.22,15.69,15.93,15.69,5.48,0,9.96-1.41,13.36-4.07l.25.25c-2.82,5.06-10.79,12.53-22.16,12.53-12.37,0-23.9-8.88-23.9-23.32ZM462.68,1770.58c-.58-3.57-2.41-5.89-6.06-5.89s-5.73,2.49-6.72,5.89h12.78Z"/>
    <path d="M484.67,1785.6v-16.43c0-4.32-.66-7.88-3.07-9.54v-.33l19.09-3.32v29.46c0,6.31,1.91,8.47,5.06,8.47s6.22-3.74,6.22-8.88v-15.85c0-4.32-.66-7.88-3.07-9.54v-.33l19.09-3.32v34.44c0,4.32.66,7.88,3.07,9.54v.33l-17.43,3.15v-6.39c-1.66,2.66-5.15,6.39-13.94,6.39-8.13,0-15.02-5.06-15.02-17.84Z"/>
    <path d="M537.21,1800.46l-1.41-12.28.25-.08c4.07,4.4,11.29,6.39,15.44,6.39,2.91,0,4.4-1,4.4-2.74s-1.16-2.74-5.73-5.06l-3.57-1.83c-7.3-3.73-10.29-8.55-10.29-14.52,0-8.46,8.55-14.36,19.25-14.36,5.56,0,9.29.75,11.7,1.58l1.33,12.03-.25.08c-2.41-2.9-7.39-4.98-12.28-4.98-2.16,0-4.81.5-4.81,2.24,0,1.41.91,1.99,2.82,3.07l5.23,2.82c6.31,3.4,11.79,8.3,11.79,15.19,0,10.71-8.63,15.44-18.76,15.44-5.23,0-12.03-1.33-15.1-2.99Z"/>
  </g>
  <g>
    <path d="M7.39,1704.61v-13.71c0-1.67-.3-2.92-.84-3.51v-.11h6.48c5.24,0,7.4,1.7,7.4,4.78,0,2.29-1.13,3.94-3.29,4.89,2.86.78,4.48,2.48,4.48,5.05,0,3.89-2.81,6.24-8.29,6.24h-6.78v-.11c.54-.59.84-1.83.84-3.51ZM17.35,1692.47c-.05-2.08-1.32-3.29-4.16-3.29h-3.05v7.1h1.38c4.29,0,5.88-1.21,5.83-3.81ZM18.54,1702.21c-.05-2.67-1.81-4.13-5.75-4.13h-2.65v8.26h3c3.54,0,5.45-1.19,5.4-4.13Z"/>
    <path d="M24.45,1704.61v-14.17c0-1.4-.32-2.56-1.11-3.1v-.11l3.64-1.03v18.41c0,1.67.27,2.92.89,3.51v.11h-4.32v-.11c.62-.59.89-1.83.89-3.51Z"/>
    <path d="M29.99,1704.61c0-2.94,1.97-3.94,4.86-4.91,1.7-.57,3.16-1.08,4.21-1.49-.08-1.86-.89-3.18-3.43-3.18-1.67,0-3.43.67-4.53,1.73l-.11-.05.41-2.59c1.16-.49,3.08-.89,4.72-.89,3.54,0,5.48,1.59,5.48,5.96v5.43c0,1.67.27,2.32.89,2.92v.11l-3.32,1.03v-1.89c-1.13,1.4-3.02,1.92-4.32,1.89-3-.05-4.86-1.67-4.86-4.05ZM39.06,1703.75v-3.89l-2.43.97c-2.46.95-3.89,1.62-3.89,3.38s1.16,2.7,2.78,2.7c1.19,0,3.54-.92,3.54-3.16Z"/>
    <path d="M44.14,1700.91c0-4.64,3.83-7.69,8.26-7.69,2.05,0,3.27.35,4.13.81l.32,2.67-.11.05c-.86-1-2.35-1.78-4.62-1.78-2.7,0-5.21,1.75-5.21,5.34,0,3.89,2.51,6.59,6.24,6.59,2.08,0,3.43-.73,4.62-2.08l.11.05c-.94,1.86-2.62,3.78-6.26,3.78-3.89,0-7.48-2.78-7.48-7.75Z"/>
    <path d="M59.96,1704.61v-14.17c0-1.4-.32-2.56-1.11-3.1v-.11l3.64-1.03v13.6l3.56-3.51c1.21-1.21,1.65-2.21,1.65-2.65h3.73v.08c-.84.54-1.51,1.19-2.92,2.54l-3.73,3.56,5.4,5.75c1.13,1.19,2.05,2.21,2.48,2.56v.08h-4.21c0-.92-.84-1.94-1.48-2.65l-4.48-4.83v3.86c0,1.67.27,2.92.89,3.51v.11h-4.32v-.11c.62-.59.89-1.83.89-3.51Z"/>
    <path d="M82.75,1704.61v-13.6c0-1.46-.3-1.89-1.54-2.46v-.11l4.29-1.59v17.76c0,1.67.38,2.92,1,3.51v.11h-4.75v-.11c.62-.59,1-1.83,1-3.51Z"/>
    <path d="M91.76,1708.39v-.11c5.99-.54,8.77-4.35,9.2-8.39-.73.92-2.48,2.13-5.1,2.13-3.78,0-6.83-3-6.83-7.56s3.05-7.61,7.42-7.61c4.91,0,7.91,3.51,7.91,9.45s-2.89,12.36-10.37,12.36c-1.05,0-1.94-.19-2.24-.27ZM101.05,1694.41c0-3.4-1.86-5.61-4.67-5.61s-4.48,2.65-4.48,5.61c0,3.21,1.78,5.61,4.59,5.61s4.56-2.4,4.56-5.61Z"/>
    <path d="M107.72,1710.01v-12.55c0-1.4-.32-2.56-1.11-3.1v-.11l3.64-1.03v2.56c.76-1.27,2.65-2.56,4.83-2.56,4.26,0,6.45,3.56,6.45,7.64,0,4.35-2.86,7.8-7.07,7.8-2.02,0-3.54-.94-4.21-1.83v3.18c0,1.67.27,2.92.89,3.51v.11h-4.32v-.11c.62-.59.89-1.84.89-3.51ZM118.73,1701.51c0-3.13-1.46-6.4-4.48-6.4-2.54,0-4.16,2.48-4.16,5.64s1.59,6.29,4.54,6.29c2.46,0,4.1-2.4,4.1-5.53Z"/>
    <path d="M125.19,1704.56v-9.1h-2.35v-.11l4.78-4.72h.11v3.02h5.43v.11l-1.57,1.97c-.81-.24-2.59-.32-3.86-.35v8.67c0,1.75.51,2.86,2.32,2.86.76,0,1.94-.32,2.56-1.19l.08.03-.49,2.43c-.51.22-1.4.49-2.83.49-2.62,0-4.18-1.11-4.18-4.1Z"/>
  </g>
  <g>
    <path d="M6.95,1973.07v-42.16c0-5.15-1.16-8.96-3.07-10.79v-.33h22.33c20.58,0,38.51,8.96,38.51,30.87s-17.51,33.53-39.75,33.53H3.88v-.33c1.91-1.83,3.07-5.64,3.07-10.79ZM50.61,1952.32c-.08-15.6-8.22-24.81-26.23-24.81h-4.56v48.96h4.4c17.1,0,26.47-8.71,26.39-24.15Z"/>
    <path d="M72.6,1968.01v-16.85c0-4.32-.83-7.88-3.24-9.54v-.33l15.19-3.24v29.21c0,7.05,1.91,10.71,7.3,10.71,4.73,0,9.54-4.56,9.54-12.61v-14.19c0-4.32-.83-7.88-3.24-9.54v-.33l15.1-3.24v34.69c0,4.73.75,7.55,2.91,9.29v.33l-13.78,3.15v-7.39c-1.91,3.49-6.72,7.39-14.69,7.39-9.05,0-15.1-5.23-15.1-17.51Z"/>
    <path d="M124.14,1973.07v-21.99c0-4.32-.83-7.88-3.24-9.54v-.33l14.61-3.15v7.14c1.83-3.49,7.63-7.14,15.1-7.14,9.13,0,14.86,5.23,14.86,17.51v17.51c0,5.15.66,8.96,2.57,10.79v.33h-17.18v-.33c1.91-1.83,2.66-5.64,2.66-10.79v-15.44c0-7.39-2.16-11.54-7.72-11.54-4.65,0-9.79,4.07-9.79,13.53v13.44c0,5.15.75,8.96,2.66,10.79v.33h-17.1v-.33c1.91-1.83,2.57-5.64,2.57-10.79Z"/>
    <path d="M175.77,1973.07v-43.49c0-4.32-.83-7.88-3.24-9.54v-.33l15.11-3.24v40.67l8.63-9.21c3.32-3.65,4.81-6.81,4.98-8.55h14.03v.25c-2.74,1.99-5.89,5.06-9.96,9.38l-8.05,8.22,13.86,17.35c4.07,5.39,6.72,8.13,8.22,9.29v.33h-17.43c-.08-2.32-2.08-6.14-4.56-9.63l-9.71-12.03v10.54c0,5.15.66,8.96,2.57,10.79v.33h-17.01v-.33c1.91-1.83,2.57-5.64,2.57-10.79Z"/>
    <path d="M223.57,1973.07v-43.49c0-4.32-.83-7.88-3.24-9.54v-.33l15.11-3.24v56.6c0,5.15.66,8.96,2.57,10.79v.33h-17.01v-.33c1.91-1.83,2.57-5.64,2.57-10.79Z"/>
    <path d="M242.08,1961.95c0-14.61,11.04-23.9,23.82-23.9,15.52,0,20.58,11.12,20.58,21.58h-31.87v.08c0,12.2,7.8,18.76,17.59,18.76,5.89,0,10.87-1.99,14.36-5.23l.25.17c-2.99,5.39-9.96,12.12-21.25,12.12-12.2,0-23.49-8.71-23.49-23.57ZM274.03,1952.66c-.66-4.32-3.4-7.55-8.3-7.55s-8.3,2.99-9.96,7.55h18.26Z"/>
    <path d="M291.05,1961.79c0-14.61,10.29-23.74,24.07-23.74s23.99,9.13,23.99,23.74-10.38,23.74-23.99,23.74-24.07-9.13-24.07-23.74ZM326.48,1962.7c-.17-8.13-4.15-17.59-12.03-17.59-7.05,0-10.96,6.72-10.79,15.6.25,8.22,4.32,17.76,12.28,17.76,6.89,0,10.79-6.81,10.54-15.77Z"/>
    <path d="M345.82,1982.2l-1.33-10.46.33-.17c3.9,4.81,10.21,6.72,15.02,6.72,3.9,0,6.64-1.49,6.64-4.32,0-2.49-1.58-4.07-6.89-6.81l-4.32-2.24c-7.39-3.82-10.04-8.05-10.04-13.78,0-7.3,7.22-13.11,17.59-13.11,5.31,0,8.63.83,11.29,1.91l1.16,9.96-.25.08c-2.16-2.66-6.89-4.9-12.28-4.9-3.32,0-6.39,1.25-6.39,3.57s1.25,3.32,4.81,5.23l5.48,2.82c6.72,3.57,11.37,7.88,11.37,14.27,0,9.79-8.13,14.52-17.84,14.52-4.9,0-11.2-1.16-14.36-3.32Z"/>
    <path d="M385.83,1971.58v-25.23h-7.47v-.33l19-17.35h.33v10.71h16.35v.33l-5.64,7.64c-2.07-.58-6.72-.83-10.71-1v22.41c0,6.06,1.66,8.96,7.14,8.96,2.66,0,5.98-1.25,7.39-3.07l.25.17-2.07,8.96c-2.49,1.16-5.31,1.74-9.54,1.74-8.05,0-15.02-3.32-15.02-13.94Z"/>
    <path d="M413.63,1961.95c0-14.61,11.04-23.9,23.82-23.9,15.52,0,20.58,11.12,20.58,21.58h-31.87v.08c0,12.2,7.8,18.76,17.59,18.76,5.89,0,10.87-1.99,14.36-5.23l.25.17c-2.99,5.39-9.96,12.12-21.25,12.12-12.2,0-23.49-8.71-23.49-23.57ZM445.58,1952.66c-.66-4.32-3.4-7.55-8.3-7.55s-8.3,2.99-9.96,7.55h18.26Z"/>
    <path d="M465.25,1968.01v-16.85c0-4.32-.83-7.88-3.24-9.54v-.33l15.19-3.24v29.21c0,7.05,1.91,10.71,7.3,10.71,4.73,0,9.54-4.56,9.54-12.61v-14.19c0-4.32-.83-7.88-3.24-9.54v-.33l15.1-3.24v34.69c0,4.73.75,7.55,2.91,9.29v.33l-13.78,3.15v-7.39c-1.91,3.49-6.72,7.39-14.69,7.39-9.05,0-15.1-5.23-15.1-17.51Z"/>
    <path d="M515.22,1982.2l-1.33-10.46.33-.17c3.9,4.81,10.21,6.72,15.02,6.72,3.9,0,6.64-1.49,6.64-4.32,0-2.49-1.58-4.07-6.89-6.81l-4.32-2.24c-7.39-3.82-10.04-8.05-10.04-13.78,0-7.3,7.22-13.11,17.59-13.11,5.31,0,8.63.83,11.29,1.91l1.16,9.96-.25.08c-2.16-2.66-6.89-4.9-12.28-4.9-3.32,0-6.39,1.25-6.39,3.57s1.25,3.32,4.81,5.23l5.48,2.82c6.72,3.57,11.37,7.88,11.37,14.27,0,9.79-8.13,14.52-17.84,14.52-4.9,0-11.2-1.16-14.36-3.32Z"/>
  </g>
  <g>
    <path d="M7.39,1886.66v-13.71c0-1.67-.3-2.92-.84-3.51v-.11h6.48c5.24,0,7.4,1.7,7.4,4.78,0,2.29-1.13,3.94-3.29,4.89,2.86.78,4.48,2.48,4.48,5.05,0,3.89-2.81,6.24-8.29,6.24h-6.78v-.11c.54-.59.84-1.83.84-3.51ZM17.35,1874.51c-.05-2.08-1.32-3.29-4.16-3.29h-3.05v7.1h1.38c4.29,0,5.88-1.21,5.83-3.81ZM18.54,1884.26c-.05-2.67-1.81-4.13-5.75-4.13h-2.65v8.26h3c3.54,0,5.45-1.19,5.4-4.13Z"/>
    <path d="M23.97,1882.99c0-4.86,3.62-7.72,7.75-7.72s7.72,2.86,7.72,7.72-3.64,7.72-7.72,7.72-7.75-2.86-7.75-7.72ZM36.63,1882.96c-.11-3.37-2.13-5.94-5.13-5.94s-4.83,2.56-4.72,5.94c.13,3.37,2.16,5.99,5.18,5.99s4.8-2.62,4.67-5.99Z"/>
    <path d="M42.11,1886.66v-14.17c0-1.4-.32-2.56-1.11-3.1v-.11l3.64-1.03v18.41c0,1.67.27,2.92.89,3.51v.11h-4.32v-.11c.62-.59.89-1.83.89-3.51Z"/>
    <path d="M47.92,1883.07c0-4.35,2.86-7.8,7.07-7.8,2.24,0,3.67,1.05,4.13,1.81v-4.59c0-1.4-.32-2.56-1.11-3.1v-.11l3.64-1.03v18.41c0,1.67.27,2.32.89,2.92v.11l-3.35,1.03v-2.56c-.65,1.38-2.54,2.56-4.72,2.56-4.26,0-6.56-3.56-6.56-7.64ZM59.36,1882.99c-.05-3.32-1.92-5.97-4.48-5.97s-4.27,2.65-4.16,5.97c.08,3.35,1.94,5.97,4.54,5.97s4.24-2.62,4.1-5.97Z"/>
    <path d="M73.92,1886.66v-13.6c0-1.46-.3-1.89-1.54-2.46v-.11l4.29-1.59v17.76c0,1.67.38,2.92,1,3.51v.11h-4.75v-.11c.62-.59,1-1.83,1-3.51Z"/>
    <path d="M82.94,1890.44v-.11c5.99-.54,8.77-4.35,9.2-8.39-.73.92-2.48,2.13-5.1,2.13-3.78,0-6.83-3-6.83-7.56s3.05-7.61,7.42-7.61c4.91,0,7.91,3.51,7.91,9.45s-2.89,12.36-10.37,12.36c-1.05,0-1.94-.19-2.24-.27ZM92.22,1876.46c0-3.4-1.86-5.61-4.67-5.61s-4.48,2.65-4.48,5.61c0,3.21,1.78,5.61,4.59,5.61s4.56-2.4,4.56-5.61Z"/>
    <path d="M98.89,1892.06v-12.55c0-1.4-.32-2.56-1.11-3.1v-.11l3.64-1.03v2.56c.76-1.27,2.65-2.56,4.83-2.56,4.26,0,6.45,3.56,6.45,7.64,0,4.35-2.86,7.8-7.07,7.8-2.02,0-3.54-.94-4.21-1.83v3.18c0,1.67.27,2.92.89,3.51v.11h-4.32v-.11c.62-.59.89-1.84.89-3.51ZM109.9,1883.56c0-3.13-1.46-6.4-4.48-6.4-2.54,0-4.16,2.48-4.16,5.64s1.59,6.29,4.54,6.29c2.46,0,4.1-2.4,4.1-5.53Z"/>
    <path d="M116.36,1886.61v-9.1h-2.35v-.11l4.78-4.72h.11v3.02h5.43v.11l-1.57,1.97c-.81-.24-2.59-.32-3.86-.35v8.67c0,1.75.51,2.86,2.32,2.86.76,0,1.94-.32,2.56-1.19l.08.03-.49,2.43c-.51.22-1.4.49-2.83.49-2.62,0-4.18-1.11-4.18-4.1Z"/>
  </g>
  <g>
    <path d="M7.29,2154.64v-42.16c0-5.15-1.08-8.96-2.99-10.79v-.33h20.17c21.41,0,37.76,10.04,37.76,31.12s-16.35,33.28-39.42,33.28H4.3v-.33c1.91-1.83,2.99-5.64,2.99-10.79ZM52.77,2133.8c-.08-15.6-8.46-26.39-30.54-26.39h-6.47v52.29h5.89c21.16,0,31.21-10.46,31.12-25.89Z"/>
    <path d="M71.11,2149.9v-17.26c0-4.32-1-7.88-3.4-9.54v-.33l11.2-3.15v28.96c0,7.8,1.91,13.03,9.54,13.03,6.31,0,12.86-5.39,12.86-16.35v-12.62c0-4.32-1-7.88-3.4-9.54v-.33l11.2-3.15v35.02c0,5.15.83,7.14,2.74,8.96v.33l-10.21,3.15v-8.3c-2.08,4.23-8.3,8.3-15.35,8.3-10.04,0-15.19-5.39-15.19-17.18Z"/>
    <path d="M120.57,2154.64v-21.99c0-4.32-1-7.88-3.4-9.54v-.33l11.2-3.15v7.8c2.08-3.98,8.38-7.8,15.44-7.8,10.04,0,15.19,5.39,15.19,17.18v17.84c0,5.15.83,8.96,2.74,10.79v.33h-13.28v-.33c1.91-1.83,2.74-5.64,2.74-10.79v-16.52c0-7.8-1.91-13.03-9.54-13.03-6.31,0-13.28,5.39-13.28,16.35v13.2c0,5.15.83,8.96,2.74,10.79v.33h-13.28v-.33c1.91-1.83,2.74-5.64,2.74-10.79Z"/>
    <path d="M170.04,2154.64v-43.57c0-4.32-1-7.88-3.4-9.54v-.33l11.2-3.15v41.83l10.96-10.79c3.74-3.73,5.06-6.81,5.06-8.13h11.45v.25c-2.57,1.66-4.65,3.65-8.96,7.8l-11.45,10.96,16.6,17.68c3.49,3.65,6.31,6.8,7.63,7.88v.25h-12.95c0-2.82-2.57-5.98-4.56-8.13l-13.78-14.86v11.87c0,5.15.83,8.96,2.74,10.79v.33h-13.28v-.33c1.91-1.83,2.74-5.64,2.74-10.79Z"/>
    <path d="M213.7,2154.64v-43.57c0-4.32-1-7.88-3.4-9.54v-.33l11.2-3.15v56.6c0,5.15.83,8.96,2.74,10.79v.33h-13.28v-.33c1.91-1.83,2.74-5.64,2.74-10.79Z"/>
    <path d="M229.05,2143.27c0-14.27,10.95-23.65,23.74-23.65,13.94,0,19.25,9.29,19.25,20.17h-34.36c-.08.58-.08,1.08-.08,1.66,0,11.95,7.72,20.25,19.17,20.25,6.39,0,11.7-2.49,15.35-6.39l.33.17c-3.15,5.73-9.21,11.62-20.42,11.62-11.95,0-22.99-8.55-22.99-23.82ZM262.74,2134.22c-.5-4.9-4.23-9.21-10.54-9.21-5.89,0-11.12,3.24-13.36,9.21h23.9Z"/>
    <path d="M277.1,2143.35c0-14.94,11.12-23.74,23.82-23.74s23.74,8.8,23.74,23.74-11.2,23.74-23.74,23.74-23.82-8.8-23.82-23.74ZM316.03,2143.27c-.33-10.37-6.56-18.26-15.77-18.26s-14.86,7.88-14.52,18.26c.42,10.37,6.64,18.42,15.93,18.42s14.77-8.05,14.36-18.42Z"/>
    <path d="M331.46,2163.52l-1.16-8.71.33-.17c3.65,5.06,9.21,7.05,14.69,7.05,4.9,0,8.88-2.08,8.88-5.98,0-3.32-2.16-5.48-8.05-8.55l-5.06-2.66c-7.3-3.82-9.88-7.55-9.88-13.03,0-6.06,5.98-11.87,16.02-11.87,4.98,0,8.13,1,10.79,2.24l1,7.88-.25.17c-1.83-2.41-6.39-4.9-12.28-4.9-4.48,0-7.88,1.99-7.88,4.98,0,3.24,1.49,4.56,6.81,7.3l5.64,2.91c7.14,3.65,10.96,7.39,10.96,13.28,0,8.88-7.63,13.61-16.85,13.61-4.65,0-10.46-1-13.69-3.57Z"/>
    <path d="M370.39,2154.47v-27.97h-7.22v-.33l14.69-14.52h.33v9.29h16.68v.33l-4.81,6.06c-2.49-.75-7.97-1-11.87-1.08v26.64c0,5.39,1.58,8.8,7.14,8.8,2.32,0,5.97-1,7.88-3.65l.25.08-1.49,7.47c-1.58.66-4.32,1.49-8.71,1.49-8.05,0-12.86-3.4-12.86-12.62Z"/>
    <path d="M394.87,2143.27c0-14.27,10.95-23.65,23.74-23.65,13.94,0,19.25,9.29,19.25,20.17h-34.36c-.08.58-.08,1.08-.08,1.66,0,11.95,7.72,20.25,19.17,20.25,6.39,0,11.7-2.49,15.35-6.39l.33.17c-3.15,5.73-9.21,11.62-20.42,11.62-11.95,0-22.99-8.55-22.99-23.82ZM428.57,2134.22c-.5-4.9-4.23-9.21-10.54-9.21-5.89,0-11.12,3.24-13.36,9.21h23.9Z"/>
    <path d="M445.91,2149.9v-17.26c0-4.32-1-7.88-3.4-9.54v-.33l11.2-3.15v28.96c0,7.8,1.91,13.03,9.54,13.03,6.31,0,12.86-5.39,12.86-16.35v-12.62c0-4.32-1-7.88-3.4-9.54v-.33l11.2-3.15v35.02c0,5.15.83,7.14,2.74,8.96v.33l-10.21,3.15v-8.3c-2.08,4.23-8.3,8.3-15.35,8.3-10.04,0-15.19-5.39-15.19-17.18Z"/>
    <path d="M493.3,2163.52l-1.16-8.71.33-.17c3.65,5.06,9.21,7.05,14.69,7.05,4.9,0,8.88-2.08,8.88-5.98,0-3.32-2.16-5.48-8.05-8.55l-5.06-2.66c-7.3-3.82-9.88-7.55-9.88-13.03,0-6.06,5.98-11.87,16.02-11.87,4.98,0,8.13,1,10.79,2.24l1,7.88-.25.17c-1.83-2.41-6.39-4.9-12.28-4.9-4.48,0-7.88,1.99-7.88,4.98,0,3.24,1.49,4.56,6.81,7.3l5.64,2.91c7.14,3.65,10.96,7.39,10.96,13.28,0,8.88-7.63,13.61-16.85,13.61-4.65,0-10.46-1-13.69-3.57Z"/>
  </g>
  <g>
    <path d="M7.63,2066.43l4.59-16.25h.11l5.37,12.71,5.34-12.71h.11l5.64,17.6c.51,1.62,1.24,3.08,1.81,3.67v.11h-4.32c.16-.94.03-2.11-.35-3.37l-3.46-11.45-4.99,11.63h-.11l-4.97-11.34-3,10.99c-.43,1.62-.38,2.81-.19,3.54h-3.72v-.11c.81-.94,1.54-2.89,2.13-5.02Z"/>
    <path d="M31.26,2064.25c0-4.64,3.56-7.69,7.72-7.69,4.54,0,6.26,3.02,6.26,6.56h-11.17c-.03.19-.03.35-.03.54,0,3.89,2.51,6.59,6.24,6.59,2.08,0,3.81-.81,4.99-2.08l.11.05c-1.03,1.86-3,3.78-6.64,3.78-3.89,0-7.48-2.78-7.48-7.75ZM42.22,2061.3c-.16-1.59-1.38-3-3.43-3-1.92,0-3.62,1.05-4.35,3h7.77Z"/>
    <path d="M47.19,2064.35c0-4.35,2.86-7.8,7.07-7.8,2.24,0,3.67,1.05,4.13,1.81v-4.59c0-1.4-.32-2.56-1.11-3.1v-.11l3.64-1.03v18.41c0,1.67.27,2.32.89,2.92v.11l-3.35,1.03v-2.56c-.65,1.38-2.54,2.56-4.72,2.56-4.26,0-6.56-3.56-6.56-7.64ZM58.63,2064.27c-.05-3.32-1.92-5.97-4.48-5.97s-4.27,2.65-4.16,5.97c.08,3.35,1.94,5.97,4.54,5.97s4.24-2.62,4.1-5.97Z"/>
    <path d="M64.98,2067.94v-7.15c0-1.4-.32-2.56-1.11-3.1v-.11l3.64-1.03v11.39c0,1.67.27,2.92.89,3.51v.11h-4.32v-.11c.62-.59.89-1.83.89-3.51ZM64.25,2052.45c0-1.13.86-1.78,1.84-1.78s1.86.65,1.86,1.78-.89,1.81-1.86,1.81-1.84-.67-1.84-1.81Z"/>
    <path d="M71.73,2066.41v-5.62c0-1.4-.32-2.56-1.11-3.1v-.11l3.64-1.03v9.42c0,2.54.62,4.24,3.1,4.24,2.05,0,4.18-1.75,4.18-5.32v-4.1c0-1.4-.32-2.56-1.11-3.1v-.11l3.64-1.03v11.39c0,1.67.27,2.32.89,2.92v.11l-3.32,1.03v-2.7c-.67,1.38-2.7,2.7-4.99,2.7-3.27,0-4.94-1.75-4.94-5.59Z"/>
    <path d="M88.09,2067.94v-7.15c0-1.4-.32-2.56-1.11-3.1v-.11l3.64-1.03v2.54c.67-1.3,2.38-2.54,4.56-2.54s3.59.92,4.21,2.83c.76-1.43,2.56-2.86,4.94-2.83,3,.03,4.59,1.75,4.59,5.59v5.8c0,1.67.27,2.92.89,3.51v.11h-4.32v-.11c.62-.59.89-1.83.89-3.51v-5.37c0-2.54-.54-4.24-2.75-4.24-1.94,0-3.86,1.75-3.86,5.32v4.29c0,1.67.27,2.92.89,3.51v.11h-4.32v-.11c.62-.59.89-1.83.89-3.51v-5.37c0-2.54-.54-4.24-2.75-4.24-1.94,0-3.86,1.75-3.86,5.32v4.29c0,1.67.27,2.92.89,3.51v.11h-4.32v-.11c.62-.59.89-1.83.89-3.51Z"/>
    <path d="M121.14,2067.94v-13.6c0-1.46-.3-1.89-1.54-2.46v-.11l4.29-1.59v17.76c0,1.67.38,2.92,1,3.51v.11h-4.75v-.11c.62-.59,1-1.83,1-3.51Z"/>
    <path d="M130.16,2071.72v-.11c5.99-.54,8.77-4.35,9.2-8.39-.73.92-2.48,2.13-5.1,2.13-3.78,0-6.83-3-6.83-7.56s3.05-7.61,7.42-7.61c4.91,0,7.91,3.51,7.91,9.45s-2.89,12.36-10.37,12.36c-1.05,0-1.94-.19-2.24-.27ZM139.44,2057.74c0-3.4-1.86-5.61-4.67-5.61s-4.48,2.65-4.48,5.61c0,3.21,1.78,5.61,4.59,5.61s4.56-2.4,4.56-5.61Z"/>
    <path d="M146.11,2073.34v-12.55c0-1.4-.32-2.56-1.11-3.1v-.11l3.64-1.03v2.56c.76-1.27,2.65-2.56,4.83-2.56,4.26,0,6.45,3.56,6.45,7.64,0,4.35-2.86,7.8-7.07,7.8-2.02,0-3.54-.94-4.21-1.83v3.18c0,1.67.27,2.92.89,3.51v.11h-4.32v-.11c.62-.59.89-1.84.89-3.51ZM157.13,2064.84c0-3.13-1.46-6.4-4.48-6.4-2.54,0-4.16,2.48-4.16,5.64s1.59,6.29,4.54,6.29c2.46,0,4.1-2.4,4.1-5.53Z"/>
    <path d="M163.58,2067.89v-9.1h-2.35v-.11l4.78-4.72h.11v3.02h5.43v.11l-1.57,1.97c-.81-.24-2.59-.32-3.86-.35v8.67c0,1.75.51,2.86,2.32,2.86.76,0,1.94-.32,2.56-1.19l.08.03-.49,2.43c-.51.22-1.4.49-2.83.49-2.62,0-4.18-1.11-4.18-4.1Z"/>
  </g>
  <g>
    <path d="M823.87,1791v-42.16c0-5.15-1.16-8.96-3.07-10.79v-.33h24.48c19.75,0,39.17,7.88,39.17,30.62s-18.59,33.78-40,33.78h-23.65v-.33c1.91-1.83,3.07-5.64,3.07-10.79ZM865.7,1770.41c-.08-15.6-7.97-23.32-21.83-23.32h-2.74v45.65h2.99c12.95,0,21.66-6.89,21.58-22.33Z"/>
    <path d="M892.84,1779.88v-31.04c0-5.15-1.16-8.96-3.07-10.79v-.33h23.4v.33c-1.91,1.83-3.07,5.64-3.07,10.79v28.38c0,10.79,3.73,14.19,10.21,14.19,5.97,0,10.71-5.81,10.71-14.44v-28.13c0-5.15-1.16-8.96-3.07-10.79v-.33h23.4v.33c-1.91,1.83-3.07,5.64-3.07,10.79v42.16c0,5.15,1.16,8.96,3.07,10.79v.33h-20.17c.41-2.41.41-5.23.41-6.64-2.32,3.82-8.8,7.97-16.51,7.97-13.94,0-22.24-7.05-22.24-23.57Z"/>
    <path d="M973.26,1768.84v22.16c0,5.15,1.16,8.96,3.07,10.79v.33h-18.18v-.33c1.91-1.83,3.07-5.64,3.07-10.79v-55.27h.33l42.49,35.19v-22.08c0-5.15-1.16-8.96-3.07-10.79v-.33h18.18v.33c-1.91,1.83-3.07,5.64-3.07,10.79v55.27h-.33l-42.49-35.27Z"/>
    <path d="M1029.04,1791v-42.16c0-5.15-1.16-8.96-3.07-10.79v-.33h23.4v.33c-1.91,1.83-3.07,5.64-3.07,10.79v16.76l13.69-16.68c3.4-4.23,6.39-8.71,6.39-11.2h18.59v.33c-2.66,1.83-5.56,4.73-11.04,11.04l-12.28,14.27,19.67,27.64c4.81,6.81,7.3,9.46,8.88,10.79v.33h-24.4c0-1.83-1.83-6.56-4.98-11.12l-14.52-20.75v20.75c0,5.15,1.16,8.96,3.07,10.79v.33h-23.4v-.33c1.91-1.83,3.07-5.64,3.07-10.79Z"/>
    <path d="M1094.44,1791v-42.16c0-5.15-1.16-8.96-3.07-10.79v-.33h23.4v.33c-1.91,1.83-3.07,5.64-3.07,10.79v42.66h9.21c7.05,0,14.69-1.16,17.93-4.15l.33.08-1.83,14.69h-45.98v-.33c1.91-1.83,3.07-5.64,3.07-10.79Z"/>
    <path d="M1145.65,1791v-42.16c0-5.15-1.16-8.96-3.07-10.79v-.33h41.25l1.83,13.78-.33.08c-3.24-2.41-7.05-3.24-12.61-3.24h-9.79v14.44h7.3c3.9,0,8.3-.58,10.96-2.41l.33.08v14.19l-.33.08c-2.66-1.83-7.05-2.41-10.96-2.41h-7.3v19.17h7.14c7.05,0,14.69-1.16,17.93-4.15l.33.08-1.83,14.69h-43.9v-.33c1.91-1.83,3.07-5.64,3.07-10.79Z"/>
    <path d="M1192.62,1769.92c0-20.25,15.52-33.53,35.27-33.53s35.27,13.28,35.27,33.53-15.52,33.53-35.27,33.53-35.27-13.28-35.27-33.53ZM1244.41,1772.99c0-11.78-4.9-26.72-17.68-26.72-9.79,0-15.35,8.63-15.35,20.42,0,12.86,5.31,26.89,17.76,26.89,9.79,0,15.27-8.71,15.27-20.58Z"/>
    <path d="M1269.64,1798.88l-1.99-15.93.33-.08c5.73,6.22,13.69,9.38,19.67,9.38,5.56,0,9.63-1.41,9.63-6.39,0-3.57-2.74-6.14-9.29-9.21l-4.98-2.32c-10.62-4.98-14.69-10.37-14.69-18.76,0-12.03,10.71-19.17,24.73-19.17,6.72,0,13.44,1.41,16.76,3.32l1.91,14.44-.33.08c-3.49-4.15-10.29-7.55-17.18-7.55-5.31,0-8.8,2.08-8.8,5.48,0,2.91,1,4.15,6.89,6.81l8.55,3.9c9.3,4.23,14.94,9.96,14.94,19.67,0,15.19-12.37,20.83-26.72,20.83-7.22,0-15.02-2.16-19.42-4.48Z"/>
    <path d="M1336.62,1791v-42.66h-7.05c-5.56,0-9.38.83-12.61,3.24l-.33-.08,1.83-13.78h53.86l1.83,13.78-.33.08c-3.24-2.41-7.05-3.24-12.61-3.24h-7.3v42.66c0,5.15,1.16,8.96,3.07,10.79v.33h-23.4v-.33c1.91-1.83,3.07-5.64,3.07-10.79Z"/>
    <path d="M1381.85,1791v-42.16c0-5.15-1.16-8.96-3.07-10.79v-.33h41.25l1.83,13.78-.33.08c-3.24-2.41-7.05-3.24-12.61-3.24h-9.79v14.44h7.3c3.9,0,8.3-.58,10.96-2.41l.33.08v14.19l-.33.08c-2.66-1.83-7.05-2.41-10.96-2.41h-7.3v19.17h7.14c7.05,0,14.69-1.16,17.93-4.15l.33.08-1.83,14.69h-43.9v-.33c1.91-1.83,3.07-5.64,3.07-10.79Z"/>
    <path d="M1431.73,1779.88v-31.04c0-5.15-1.16-8.96-3.07-10.79v-.33h23.4v.33c-1.91,1.83-3.07,5.64-3.07,10.79v28.38c0,10.79,3.73,14.19,10.21,14.19,5.97,0,10.71-5.81,10.71-14.44v-28.13c0-5.15-1.16-8.96-3.07-10.79v-.33h23.4v.33c-1.91,1.83-3.07,5.64-3.07,10.79v42.16c0,5.15,1.16,8.96,3.07,10.79v.33h-20.17c.41-2.41.41-5.23.41-6.64-2.32,3.82-8.8,7.97-16.51,7.97-13.94,0-22.24-7.05-22.24-23.57Z"/>
    <path d="M1498.96,1798.88l-1.99-15.93.33-.08c5.73,6.22,13.69,9.38,19.67,9.38,5.56,0,9.63-1.41,9.63-6.39,0-3.57-2.74-6.14-9.29-9.21l-4.98-2.32c-10.62-4.98-14.69-10.37-14.69-18.76,0-12.03,10.71-19.17,24.73-19.17,6.72,0,13.44,1.41,16.76,3.32l1.91,14.44-.33.08c-3.49-4.15-10.29-7.55-17.18-7.55-5.31,0-8.8,2.08-8.8,5.48,0,2.91,1,4.15,6.89,6.81l8.55,3.9c9.3,4.23,14.94,9.96,14.94,19.67,0,15.19-12.37,20.83-26.72,20.83-7.22,0-15.02-2.16-19.42-4.48Z"/>
  </g>
  <g>
    <path d="M824.72,1704.61v-13.71c0-1.67-.3-2.92-.84-3.51v-.11h6.48c5.24,0,7.4,1.7,7.4,4.78,0,2.29-1.13,3.94-3.29,4.89,2.86.78,4.48,2.48,4.48,5.05,0,3.89-2.81,6.24-8.29,6.24h-6.78v-.11c.54-.59.84-1.83.84-3.51ZM834.68,1692.47c-.05-2.08-1.32-3.29-4.16-3.29h-3.05v7.1h1.38c4.29,0,5.88-1.21,5.83-3.81ZM835.87,1702.21c-.05-2.67-1.81-4.13-5.75-4.13h-2.65v8.26h3c3.54,0,5.45-1.19,5.4-4.13Z"/>
    <path d="M841.79,1704.61v-14.17c0-1.4-.32-2.56-1.11-3.1v-.11l3.64-1.03v18.41c0,1.67.27,2.92.89,3.51v.11h-4.32v-.11c.62-.59.89-1.83.89-3.51Z"/>
    <path d="M847.32,1704.61c0-2.94,1.97-3.94,4.86-4.91,1.7-.57,3.16-1.08,4.21-1.49-.08-1.86-.89-3.18-3.43-3.18-1.67,0-3.43.67-4.53,1.73l-.11-.05.41-2.59c1.16-.49,3.08-.89,4.72-.89,3.54,0,5.48,1.59,5.48,5.96v5.43c0,1.67.27,2.32.89,2.92v.11l-3.32,1.03v-1.89c-1.13,1.4-3.02,1.92-4.32,1.89-3-.05-4.86-1.67-4.86-4.05ZM856.39,1703.75v-3.89l-2.43.97c-2.46.95-3.89,1.62-3.89,3.38s1.16,2.7,2.78,2.7c1.19,0,3.54-.92,3.54-3.16Z"/>
    <path d="M861.47,1700.91c0-4.64,3.83-7.69,8.26-7.69,2.05,0,3.27.35,4.13.81l.32,2.67-.11.05c-.86-1-2.35-1.78-4.62-1.78-2.7,0-5.21,1.75-5.21,5.34,0,3.89,2.51,6.59,6.24,6.59,2.08,0,3.43-.73,4.62-2.08l.11.05c-.94,1.86-2.62,3.78-6.26,3.78-3.89,0-7.48-2.78-7.48-7.75Z"/>
    <path d="M877.29,1704.61v-14.17c0-1.4-.32-2.56-1.11-3.1v-.11l3.64-1.03v13.6l3.56-3.51c1.21-1.21,1.65-2.21,1.65-2.65h3.73v.08c-.84.54-1.51,1.19-2.92,2.54l-3.73,3.56,5.4,5.75c1.13,1.19,2.05,2.21,2.48,2.56v.08h-4.21c0-.92-.84-1.94-1.48-2.65l-4.48-4.83v3.86c0,1.67.27,2.92.89,3.51v.11h-4.32v-.11c.62-.59.89-1.83.89-3.51Z"/>
    <path d="M900.08,1704.61v-13.6c0-1.46-.3-1.89-1.54-2.46v-.11l4.29-1.59v17.76c0,1.67.38,2.92,1,3.51v.11h-4.75v-.11c.62-.59,1-1.83,1-3.51Z"/>
    <path d="M909.1,1708.39v-.11c5.99-.54,8.77-4.35,9.2-8.39-.73.92-2.48,2.13-5.1,2.13-3.78,0-6.83-3-6.83-7.56s3.05-7.61,7.42-7.61c4.91,0,7.91,3.51,7.91,9.45s-2.89,12.36-10.37,12.36c-1.05,0-1.94-.19-2.24-.27ZM918.38,1694.41c0-3.4-1.86-5.61-4.67-5.61s-4.48,2.65-4.48,5.61c0,3.21,1.78,5.61,4.59,5.61s4.56-2.4,4.56-5.61Z"/>
    <path d="M925.06,1710.01v-12.55c0-1.4-.32-2.56-1.11-3.1v-.11l3.64-1.03v2.56c.76-1.27,2.65-2.56,4.83-2.56,4.26,0,6.45,3.56,6.45,7.64,0,4.35-2.86,7.8-7.07,7.8-2.02,0-3.54-.94-4.21-1.83v3.18c0,1.67.27,2.92.89,3.51v.11h-4.32v-.11c.62-.59.89-1.84.89-3.51ZM936.07,1701.51c0-3.13-1.46-6.4-4.48-6.4-2.54,0-4.16,2.48-4.16,5.64s1.59,6.29,4.54,6.29c2.46,0,4.1-2.4,4.1-5.53Z"/>
    <path d="M942.52,1704.56v-9.1h-2.35v-.11l4.78-4.72h.11v3.02h5.43v.11l-1.57,1.97c-.81-.24-2.59-.32-3.86-.35v8.67c0,1.75.51,2.86,2.32,2.86.76,0,1.94-.32,2.56-1.19l.08.03-.49,2.43c-.51.22-1.4.49-2.83.49-2.62,0-4.18-1.11-4.18-4.1Z"/>
  </g>
  <g>
    <path d="M824.29,1973.07v-42.16c0-5.15-1.16-8.96-3.07-10.79v-.33h22.33c20.58,0,38.51,8.96,38.51,30.87s-17.51,33.53-39.75,33.53h-21.08v-.33c1.91-1.83,3.07-5.64,3.07-10.79ZM867.94,1952.32c-.08-15.6-8.22-24.81-26.23-24.81h-4.56v48.96h4.4c17.1,0,26.47-8.71,26.39-24.15Z"/>
    <path d="M891.26,1962.45v-31.54c0-5.15-1.16-8.96-3.07-10.79v-.33h18.92v.33c-1.91,1.83-2.99,5.64-2.99,10.79v29.38c0,11.79,4.48,16.1,12.12,16.1,9.13,0,14.19-8.55,14.19-17.51v-27.97c0-5.15-1.08-8.96-2.99-10.79v-.33h18.92v.33c-1.91,1.83-3.07,5.64-3.07,10.79v42.16c0,5.15,1.16,8.96,3.07,10.79v.33h-15.85c.5-2.32.58-5.31.58-8.13-2.24,4.32-8.8,9.46-18.01,9.46-13.03,0-21.83-6.72-21.83-23.07Z"/>
    <path d="M966.29,1944.03v29.05c0,5.15,1,8.96,2.9,10.79v.33h-15.19v-.33c1.91-1.83,2.91-5.64,2.91-10.79v-55.27h.33l44.07,42.08v-28.96c0-5.15-1-8.96-2.9-10.79v-.33h15.1v.33c-1.91,1.83-2.91,5.64-2.91,10.79v55.27h-.33l-43.99-42.16Z"/>
    <path d="M1024.22,1973.07v-42.16c0-5.15-1.16-8.96-3.07-10.79v-.33h18.92v.33c-1.91,1.83-2.99,5.64-2.99,10.79v17.01l14.77-16.85c4.73-5.39,7.05-9.13,7.05-11.29h15.69v.33c-2.9,1.83-5.56,4.4-11.45,10.87l-14.52,15.93,20.5,26.14c4.65,5.98,7.72,8.96,9.79,10.79v.33h-19.5c0-2.24-2.74-7.05-5.89-11.12l-16.43-20.91v20.91c0,5.15,1.08,8.96,2.99,10.79v.33h-18.92v-.33c1.91-1.83,3.07-5.64,3.07-10.79Z"/>
    <path d="M1084.23,1973.07v-42.16c0-5.15-1.16-8.96-3.07-10.79v-.33h18.92v.33c-1.91,1.83-2.99,5.64-2.99,10.79v45.07h11.87c8.05,0,14.19-1.16,16.76-3.65l.33.08-1.49,11.79h-43.41v-.33c1.91-1.83,3.07-5.64,3.07-10.79Z"/>
    <path d="M1132.45,1973.07v-42.16c0-5.15-1-8.88-2.82-10.79v-.33h39.09l1.58,11.29-.33.08c-2.91-2.32-7.8-3.15-13.86-3.15h-10.79v17.59h9.13c3.9,0,8.3-.5,10.96-2.32l.33.08v12.03l-.33.08c-2.66-1.83-7.05-2.24-10.96-2.24h-9.13v22.74h10.87c8.05,0,14.19-1.16,16.85-3.65l.25.08-1.49,11.79h-42.16v-.33c1.83-1.91,2.82-5.64,2.82-10.79Z"/>
    <path d="M1178.02,1951.99c0-20.67,15.77-33.53,34.69-33.53s34.61,12.86,34.61,33.53-15.69,33.53-34.61,33.53-34.69-12.86-34.69-33.53ZM1233.21,1954.23c0-13.28-6.89-27.89-21.41-27.89-12.12,0-19.67,10.12-19.67,23.24,0,13.86,7.05,27.97,21.41,27.97,12.2,0,19.75-9.96,19.67-23.32Z"/>
    <path d="M1254.2,1980.63l-1.66-13.28.33-.08c4.81,5.98,12.78,9.63,19.67,9.63s11.78-2.82,11.78-8.88c0-4.98-4.15-7.97-11.29-11.45l-4.32-2.07c-10.37-4.98-15.02-10.21-15.02-18.18,0-10.71,8.96-17.84,22.99-17.84,6.72,0,12.53,1.33,15.93,3.4l1.74,12.12-.33.08c-2.99-3.9-9.13-7.47-16.93-7.47-6.31,0-10.62,2.74-10.62,7.05,0,3.65,1.58,5.56,9.21,9.21l6.81,3.24c10.46,5.06,15.69,10.46,15.69,19.5,0,13.53-10.71,19.83-25.06,19.83-6.72,0-14.44-1.83-18.92-4.81Z"/>
    <path d="M1319.85,1973.07v-45.06h-6.14c-7.3,0-11.62,1.16-14.19,3.32l-.33-.08,1.49-11.45h51.37l1.49,11.45-.33.08c-2.57-2.16-6.89-3.32-14.19-3.32h-6.31v45.06c0,5.15,1.16,8.96,3.07,10.79v.33h-18.92v-.33c1.91-1.83,2.99-5.64,2.99-10.79Z"/>
    <path d="M1361.02,1973.07v-42.16c0-5.15-1-8.88-2.82-10.79v-.33h39.09l1.58,11.29-.33.08c-2.91-2.32-7.8-3.15-13.86-3.15h-10.79v17.59h9.13c3.9,0,8.3-.5,10.96-2.32l.33.08v12.03l-.33.08c-2.66-1.83-7.05-2.24-10.96-2.24h-9.13v22.74h10.87c8.05,0,14.19-1.16,16.85-3.65l.25.08-1.49,11.79h-42.16v-.33c1.83-1.91,2.82-5.64,2.82-10.79Z"/>
    <path d="M1409.49,1962.45v-31.54c0-5.15-1.16-8.96-3.07-10.79v-.33h18.92v.33c-1.91,1.83-2.99,5.64-2.99,10.79v29.38c0,11.79,4.48,16.1,12.12,16.1,9.13,0,14.19-8.55,14.19-17.51v-27.97c0-5.15-1.08-8.96-2.99-10.79v-.33h18.92v.33c-1.91,1.83-3.07,5.64-3.07,10.79v42.16c0,5.15,1.16,8.96,3.07,10.79v.33h-15.85c.5-2.32.58-5.31.58-8.13-2.24,4.32-8.8,9.46-18.01,9.46-13.03,0-21.83-6.72-21.83-23.07Z"/>
    <path d="M1473.81,1980.63l-1.66-13.28.33-.08c4.81,5.98,12.78,9.63,19.67,9.63s11.78-2.82,11.78-8.88c0-4.98-4.15-7.97-11.29-11.45l-4.32-2.07c-10.37-4.98-15.02-10.21-15.02-18.18,0-10.71,8.96-17.84,22.99-17.84,6.72,0,12.53,1.33,15.93,3.4l1.74,12.12-.33.08c-2.99-3.9-9.13-7.47-16.93-7.47-6.31,0-10.62,2.74-10.62,7.05,0,3.65,1.58,5.56,9.21,9.21l6.81,3.24c10.46,5.06,15.69,10.46,15.69,19.5,0,13.53-10.71,19.83-25.06,19.83-6.72,0-14.44-1.83-18.92-4.81Z"/>
  </g>
  <g>
    <path d="M824.72,1886.66v-13.71c0-1.67-.3-2.92-.84-3.51v-.11h6.48c5.24,0,7.4,1.7,7.4,4.78,0,2.29-1.13,3.94-3.29,4.89,2.86.78,4.48,2.48,4.48,5.05,0,3.89-2.81,6.24-8.29,6.24h-6.78v-.11c.54-.59.84-1.83.84-3.51ZM834.68,1874.51c-.05-2.08-1.32-3.29-4.16-3.29h-3.05v7.1h1.38c4.29,0,5.88-1.21,5.83-3.81ZM835.87,1884.26c-.05-2.67-1.81-4.13-5.75-4.13h-2.65v8.26h3c3.54,0,5.45-1.19,5.4-4.13Z"/>
    <path d="M841.3,1882.99c0-4.86,3.62-7.72,7.75-7.72s7.72,2.86,7.72,7.72-3.64,7.72-7.72,7.72-7.75-2.86-7.75-7.72ZM853.96,1882.96c-.11-3.37-2.13-5.94-5.13-5.94s-4.83,2.56-4.72,5.94c.13,3.37,2.16,5.99,5.18,5.99s4.8-2.62,4.67-5.99Z"/>
    <path d="M859.45,1886.66v-14.17c0-1.4-.32-2.56-1.11-3.1v-.11l3.64-1.03v18.41c0,1.67.27,2.92.89,3.51v.11h-4.32v-.11c.62-.59.89-1.83.89-3.51Z"/>
    <path d="M865.25,1883.07c0-4.35,2.86-7.8,7.07-7.8,2.24,0,3.67,1.05,4.13,1.81v-4.59c0-1.4-.32-2.56-1.11-3.1v-.11l3.64-1.03v18.41c0,1.67.27,2.32.89,2.92v.11l-3.35,1.03v-2.56c-.65,1.38-2.54,2.56-4.72,2.56-4.26,0-6.56-3.56-6.56-7.64ZM876.7,1882.99c-.05-3.32-1.92-5.97-4.48-5.97s-4.27,2.65-4.16,5.97c.08,3.35,1.94,5.97,4.54,5.97s4.24-2.62,4.1-5.97Z"/>
    <path d="M891.25,1886.66v-13.6c0-1.46-.3-1.89-1.54-2.46v-.11l4.29-1.59v17.76c0,1.67.38,2.92,1,3.51v.11h-4.75v-.11c.62-.59,1-1.83,1-3.51Z"/>
    <path d="M900.27,1890.44v-.11c5.99-.54,8.77-4.35,9.2-8.39-.73.92-2.48,2.13-5.1,2.13-3.78,0-6.83-3-6.83-7.56s3.05-7.61,7.42-7.61c4.91,0,7.91,3.51,7.91,9.45s-2.89,12.36-10.37,12.36c-1.05,0-1.94-.19-2.24-.27ZM909.55,1876.46c0-3.4-1.86-5.61-4.67-5.61s-4.48,2.65-4.48,5.61c0,3.21,1.78,5.61,4.59,5.61s4.56-2.4,4.56-5.61Z"/>
    <path d="M916.23,1892.06v-12.55c0-1.4-.32-2.56-1.11-3.1v-.11l3.64-1.03v2.56c.76-1.27,2.65-2.56,4.83-2.56,4.26,0,6.45,3.56,6.45,7.64,0,4.35-2.86,7.8-7.07,7.8-2.02,0-3.54-.94-4.21-1.83v3.18c0,1.67.27,2.92.89,3.51v.11h-4.32v-.11c.62-.59.89-1.84.89-3.51ZM927.24,1883.56c0-3.13-1.46-6.4-4.48-6.4-2.54,0-4.16,2.48-4.16,5.64s1.59,6.29,4.54,6.29c2.46,0,4.1-2.4,4.1-5.53Z"/>
    <path d="M933.69,1886.61v-9.1h-2.35v-.11l4.78-4.72h.11v3.02h5.43v.11l-1.57,1.97c-.81-.24-2.59-.32-3.86-.35v8.67c0,1.75.51,2.86,2.32,2.86.76,0,1.94-.32,2.56-1.19l.08.03-.49,2.43c-.51.22-1.4.49-2.83.49-2.62,0-4.18-1.11-4.18-4.1Z"/>
  </g>
  <g>
    <path d="M824.62,2154.64v-42.16c0-5.15-1.08-8.96-2.99-10.79v-.33h20.17c21.41,0,37.76,10.04,37.76,31.12s-16.35,33.28-39.42,33.28h-18.51v-.33c1.91-1.83,2.99-5.64,2.99-10.79ZM870.1,2133.8c-.08-15.6-8.46-26.39-30.54-26.39h-6.47v52.29h5.89c21.16,0,31.21-10.46,31.12-25.89Z"/>
    <path d="M889.52,2144.59v-32.12c0-5.15-1.08-8.96-2.99-10.79v-.33h14.44v.33c-1.91,1.83-2.99,5.64-2.99,10.79v30.46c0,12.78,5.23,18.01,14.03,18.01,12.28,0,17.76-11.29,17.76-20.67v-27.8c0-5.15-1.08-8.96-2.99-10.79v-.33h14.44v.33c-1.91,1.83-2.99,5.64-2.99,10.79v42.16c0,5.15,1.08,8.96,2.99,10.79v.33h-11.45c.58-2.24.66-5.31.66-9.54-2.08,4.65-8.71,10.87-19.5,10.87-12.12,0-21.41-6.31-21.41-22.49Z"/>
    <path d="M959.07,2118.78v35.85c0,5.15.83,8.96,2.74,10.79v.33h-12.12v-.33c1.91-1.83,2.74-5.64,2.74-10.79v-55.27h.33l45.56,48.97v-35.85c0-5.15-.83-8.96-2.74-10.79v-.33h12.12v.33c-1.91,1.83-2.74,5.64-2.74,10.79v55.27h-.33l-45.56-48.97Z"/>
    <path d="M1019.16,2154.64v-42.16c0-5.15-1.08-8.96-2.99-10.79v-.33h14.44v.33c-1.91,1.83-2.99,5.64-2.99,10.79v17.35l15.93-17.1c6.06-6.47,7.63-9.54,7.63-11.37h12.78v.33c-3.24,1.91-5.39,3.9-11.87,10.79l-16.68,17.59,21.33,24.57c4.48,5.15,8.3,8.55,10.71,10.79v.33h-14.61c0-2.57-3.65-7.47-6.89-11.12l-18.34-21v21c0,5.15,1.08,8.96,2.99,10.79v.33h-14.44v-.33c1.91-1.83,2.99-5.64,2.99-10.79Z"/>
    <path d="M1073.69,2154.64v-42.16c0-5.15-1.08-8.96-2.99-10.79v-.33h14.44v.33c-1.91,1.83-2.99,5.64-2.99,10.79v47.47h14.52c9.05,0,13.69-1.16,15.69-3.15l.25.17-1.16,8.8h-40.75v-.33c1.91-1.83,2.99-5.64,2.99-10.79Z"/>
    <path d="M1119.01,2154.64v-42.16c0-5.15-.91-8.96-2.57-10.79v-.33h36.93l1.25,8.8-.33.08c-2.49-2.16-8.55-3.07-15.02-3.07h-11.79v20.75h10.87c3.9,0,8.3-.33,10.96-2.16l.33.08v9.88l-.33.08c-2.66-1.83-7.05-2.16-10.96-2.16h-10.87v26.31h14.61c9.05,0,13.69-1.16,15.69-3.15l.25.17-1.16,8.8h-40.42v-.33c1.66-1.83,2.57-5.64,2.57-10.79Z"/>
    <path d="M1163.16,2133.56c0-21.08,15.93-33.53,34.03-33.53s34.03,12.45,34.03,33.53-15.93,33.53-34.03,33.53-34.03-12.45-34.03-33.53ZM1221.75,2135.05c0-14.77-8.88-29.05-25.15-29.05-14.44,0-23.98,11.54-23.98,25.98s8.71,29.13,25.06,29.13c14.52,0,24.15-11.45,24.07-26.06Z"/>
    <path d="M1238.6,2161.86l-1.33-10.62.33-.08c3.9,5.81,11.79,9.96,19.59,9.96,8.38,0,13.94-4.32,13.94-11.45,0-6.39-5.39-9.71-13.28-13.69l-3.65-1.83c-10.04-4.98-15.27-10.04-15.27-17.59,0-9.38,7.22-16.52,21.16-16.52,6.72,0,11.87,1.33,15.19,3.49l1.58,9.79-.33.08c-2.41-3.57-7.97-7.39-16.68-7.39-7.39,0-12.53,3.49-12.53,8.71,0,4.32,2.41,6.97,11.54,11.54l5.15,2.57c11.54,5.81,16.35,10.96,16.35,19.42,0,11.87-9.05,18.84-23.32,18.84-6.22,0-13.94-1.66-18.42-5.23Z"/>
    <path d="M1302.92,2154.64v-47.47h-5.31c-9.05,0-13.78,1.49-15.77,3.49l-.25-.17,1.16-9.13h48.8l1.16,9.13-.25.17c-1.99-1.99-6.72-3.49-15.77-3.49h-5.31v47.47c0,5.15,1.08,8.96,2.99,10.79v.33h-14.44v-.33c1.91-1.83,2.99-5.64,2.99-10.79Z"/>
    <path d="M1339.94,2154.64v-42.16c0-5.15-.91-8.96-2.57-10.79v-.33h36.93l1.25,8.8-.33.08c-2.49-2.16-8.55-3.07-15.02-3.07h-11.79v20.75h10.87c3.9,0,8.3-.33,10.96-2.16l.33.08v9.88l-.33.08c-2.66-1.83-7.05-2.16-10.96-2.16h-10.87v26.31h14.61c9.05,0,13.69-1.16,15.69-3.15l.25.17-1.16,8.8h-40.42v-.33c1.66-1.83,2.57-5.64,2.57-10.79Z"/>
    <path d="M1386.92,2144.59v-32.12c0-5.15-1.08-8.96-2.99-10.79v-.33h14.44v.33c-1.91,1.83-2.99,5.64-2.99,10.79v30.46c0,12.78,5.23,18.01,14.03,18.01,12.28,0,17.76-11.29,17.76-20.67v-27.8c0-5.15-1.08-8.96-2.99-10.79v-.33h14.44v.33c-1.91,1.83-2.99,5.64-2.99,10.79v42.16c0,5.15,1.08,8.96,2.99,10.79v.33h-11.45c.58-2.24.66-5.31.66-9.54-2.08,4.65-8.71,10.87-19.5,10.87-12.12,0-21.41-6.31-21.41-22.49Z"/>
    <path d="M1448.33,2161.86l-1.33-10.62.33-.08c3.9,5.81,11.79,9.96,19.59,9.96,8.38,0,13.94-4.32,13.94-11.45,0-6.39-5.39-9.71-13.28-13.69l-3.65-1.83c-10.04-4.98-15.27-10.04-15.27-17.59,0-9.38,7.22-16.52,21.16-16.52,6.72,0,11.87,1.33,15.19,3.49l1.58,9.79-.33.08c-2.41-3.57-7.97-7.39-16.68-7.39-7.39,0-12.53,3.49-12.53,8.71,0,4.32,2.41,6.97,11.54,11.54l5.15,2.57c11.54,5.81,16.35,10.96,16.35,19.42,0,11.87-9.05,18.84-23.32,18.84-6.22,0-13.94-1.66-18.42-5.23Z"/>
  </g>
  <g>
    <path d="M824.97,2066.43l4.59-16.25h.11l5.37,12.71,5.34-12.71h.11l5.64,17.6c.51,1.62,1.24,3.08,1.81,3.67v.11h-4.32c.16-.94.03-2.11-.35-3.37l-3.46-11.45-4.99,11.63h-.11l-4.97-11.34-3,10.99c-.43,1.62-.38,2.81-.19,3.54h-3.72v-.11c.81-.94,1.54-2.89,2.13-5.02Z"/>
    <path d="M848.59,2064.25c0-4.64,3.56-7.69,7.72-7.69,4.54,0,6.26,3.02,6.26,6.56h-11.17c-.03.19-.03.35-.03.54,0,3.89,2.51,6.59,6.24,6.59,2.08,0,3.81-.81,4.99-2.08l.11.05c-1.03,1.86-3,3.78-6.64,3.78-3.89,0-7.48-2.78-7.48-7.75ZM859.55,2061.3c-.16-1.59-1.38-3-3.43-3-1.92,0-3.62,1.05-4.35,3h7.77Z"/>
    <path d="M864.52,2064.35c0-4.35,2.86-7.8,7.07-7.8,2.24,0,3.67,1.05,4.13,1.81v-4.59c0-1.4-.32-2.56-1.11-3.1v-.11l3.64-1.03v18.41c0,1.67.27,2.32.89,2.92v.11l-3.35,1.03v-2.56c-.65,1.38-2.54,2.56-4.72,2.56-4.26,0-6.56-3.56-6.56-7.64ZM875.97,2064.27c-.05-3.32-1.92-5.97-4.48-5.97s-4.27,2.65-4.16,5.97c.08,3.35,1.94,5.97,4.54,5.97s4.24-2.62,4.1-5.97Z"/>
    <path d="M882.31,2067.94v-7.15c0-1.4-.32-2.56-1.11-3.1v-.11l3.64-1.03v11.39c0,1.67.27,2.92.89,3.51v.11h-4.32v-.11c.62-.59.89-1.83.89-3.51ZM881.59,2052.45c0-1.13.86-1.78,1.84-1.78s1.86.65,1.86,1.78-.89,1.81-1.86,1.81-1.84-.67-1.84-1.81Z"/>
    <path d="M889.06,2066.41v-5.62c0-1.4-.32-2.56-1.11-3.1v-.11l3.64-1.03v9.42c0,2.54.62,4.24,3.1,4.24,2.05,0,4.18-1.75,4.18-5.32v-4.1c0-1.4-.32-2.56-1.11-3.1v-.11l3.64-1.03v11.39c0,1.67.27,2.32.89,2.92v.11l-3.32,1.03v-2.7c-.67,1.38-2.7,2.7-4.99,2.7-3.27,0-4.94-1.75-4.94-5.59Z"/>
    <path d="M905.43,2067.94v-7.15c0-1.4-.32-2.56-1.11-3.1v-.11l3.64-1.03v2.54c.67-1.3,2.38-2.54,4.56-2.54s3.59.92,4.21,2.83c.76-1.43,2.56-2.86,4.94-2.83,3,.03,4.59,1.75,4.59,5.59v5.8c0,1.67.27,2.92.89,3.51v.11h-4.32v-.11c.62-.59.89-1.83.89-3.51v-5.37c0-2.54-.54-4.24-2.75-4.24-1.94,0-3.86,1.75-3.86,5.32v4.29c0,1.67.27,2.92.89,3.51v.11h-4.32v-.11c.62-.59.89-1.83.89-3.51v-5.37c0-2.54-.54-4.24-2.75-4.24-1.94,0-3.86,1.75-3.86,5.32v4.29c0,1.67.27,2.92.89,3.51v.11h-4.32v-.11c.62-.59.89-1.83.89-3.51Z"/>
    <path d="M938.47,2067.94v-13.6c0-1.46-.3-1.89-1.54-2.46v-.11l4.29-1.59v17.76c0,1.67.38,2.92,1,3.51v.11h-4.75v-.11c.62-.59,1-1.83,1-3.51Z"/>
    <path d="M947.49,2071.72v-.11c5.99-.54,8.77-4.35,9.2-8.39-.73.92-2.48,2.13-5.1,2.13-3.78,0-6.83-3-6.83-7.56s3.05-7.61,7.42-7.61c4.91,0,7.91,3.51,7.91,9.45s-2.89,12.36-10.37,12.36c-1.05,0-1.94-.19-2.24-.27ZM956.78,2057.74c0-3.4-1.86-5.61-4.67-5.61s-4.48,2.65-4.48,5.61c0,3.21,1.78,5.61,4.59,5.61s4.56-2.4,4.56-5.61Z"/>
    <path d="M963.45,2073.34v-12.55c0-1.4-.32-2.56-1.11-3.1v-.11l3.64-1.03v2.56c.76-1.27,2.65-2.56,4.83-2.56,4.26,0,6.45,3.56,6.45,7.64,0,4.35-2.86,7.8-7.07,7.8-2.02,0-3.54-.94-4.21-1.83v3.18c0,1.67.27,2.92.89,3.51v.11h-4.32v-.11c.62-.59.89-1.84.89-3.51ZM974.46,2064.84c0-3.13-1.46-6.4-4.48-6.4-2.54,0-4.16,2.48-4.16,5.64s1.59,6.29,4.54,6.29c2.46,0,4.1-2.4,4.1-5.53Z"/>
    <path d="M980.92,2067.89v-9.1h-2.35v-.11l4.78-4.72h.11v3.02h5.43v.11l-1.57,1.97c-.81-.24-2.59-.32-3.86-.35v8.67c0,1.75.51,2.86,2.32,2.86.76,0,1.94-.32,2.56-1.19l.08.03-.49,2.43c-.51.22-1.4.49-2.83.49-2.62,0-4.18-1.11-4.18-4.1Z"/>
  </g>
  <g>
    <path d="M4.16,136.4c0-52.22,40.02-86.47,90.96-86.47s90.96,34.25,90.96,86.47-40.02,86.47-90.96,86.47S4.16,188.62,4.16,136.4ZM137.72,144.32c0-30.39-12.63-68.92-45.59-68.92-25.26,0-39.6,22.26-39.6,52.65,0,33.17,13.7,69.35,45.8,69.35,25.26,0,39.38-22.47,39.38-53.08Z"/>
    <path d="M203,190.76v-111.94c0-11.13-1.71-20.33-7.92-24.61v-.86l49.23-8.56v145.97c0,13.27,1.28,23.12,6.21,27.82v.86h-53.72v-.86c4.92-4.71,6.21-14.55,6.21-27.82Z"/>
    <path d="M259.29,162.72c0-38.31,28.47-62.28,61.43-62.28,44.09,0,56.72,33.39,56.72,59.5h-75.55c1.71,29.32,21.19,40.45,41.09,40.45,14.13,0,25.68-3.64,34.46-10.49l.64.64c-7.28,13.06-27.83,32.32-57.15,32.32-31.89,0-61.64-22.9-61.64-60.14ZM336.99,138.11c-1.5-9.2-6.21-15.2-15.62-15.2s-14.77,6.42-17.34,15.2h32.96Z"/>
    <path d="M393.07,190.76v-56.72c0-11.13-1.71-20.33-7.92-24.61v-.86l46.66-8.13v16.7c4.07-7.71,17.76-16.7,38.1-16.7s37.24,13.06,37.24,46.02v44.31c0,13.27,1.28,23.12,6.21,27.82v.86h-54.15v-.86c4.92-4.71,6.63-14.55,6.63-27.82v-36.81c0-18.19-6.21-26.11-15.41-26.11-7.71,0-16.05,7.06-16.05,27.61v35.32c0,13.27,1.71,23.12,6.64,27.82v.86h-54.15v-.86c4.92-4.71,6.21-14.55,6.21-27.82Z"/>
    <path d="M529.2,176.85v-42.38c0-11.13-1.71-20.33-7.92-24.61v-.86l49.23-8.56v75.98c0,16.27,4.92,21.83,13.06,21.83s16.05-9.63,16.05-22.9v-40.88c0-11.13-1.71-20.33-7.92-24.61v-.86l49.23-8.56v88.83c0,11.13,1.71,20.33,7.92,24.61v.86l-44.95,8.13v-16.48c-4.28,6.85-13.27,16.48-35.96,16.48-20.98,0-38.74-13.06-38.74-46.02Z"/>
    <path d="M664.68,215.16l-3.64-31.68.64-.21c10.49,11.34,29.11,16.48,39.81,16.48,7.49,0,11.34-2.57,11.34-7.06s-3-7.06-14.77-13.06l-9.2-4.71c-18.83-9.63-26.54-22.04-26.54-37.46,0-21.83,22.04-37.03,49.66-37.03,14.34,0,23.97,1.93,30.18,4.07l3.42,31.04-.64.21c-6.21-7.49-19.05-12.84-31.68-12.84-5.56,0-12.41,1.29-12.41,5.78,0,3.64,2.35,5.14,7.28,7.92l13.48,7.28c16.27,8.78,30.39,21.4,30.39,39.17,0,27.61-22.26,39.81-48.37,39.81-13.48,0-31.04-3.42-38.96-7.71Z"/>
  </g>
  <g>
    <path d="M7.39,18.41V4.7c0-1.67-.3-2.92-.84-3.51v-.11h6.48c5.24,0,7.4,1.7,7.4,4.78,0,2.29-1.13,3.94-3.29,4.89,2.86.78,4.48,2.48,4.48,5.05,0,3.89-2.81,6.24-8.29,6.24h-6.78v-.11c.54-.59.84-1.83.84-3.51ZM17.35,6.26c-.05-2.08-1.32-3.29-4.16-3.29h-3.05v7.1h1.38c4.29,0,5.88-1.21,5.83-3.81ZM18.54,16.01c-.05-2.67-1.81-4.13-5.75-4.13h-2.65v8.26h3c3.54,0,5.45-1.19,5.4-4.13Z"/>
    <path d="M24.45,18.41V4.24c0-1.4-.32-2.56-1.11-3.1v-.11l3.64-1.03v18.41c0,1.67.27,2.92.89,3.51v.11h-4.32v-.11c.62-.59.89-1.83.89-3.51Z"/>
    <path d="M29.99,18.41c0-2.94,1.97-3.94,4.86-4.91,1.7-.57,3.16-1.08,4.21-1.49-.08-1.86-.89-3.18-3.43-3.18-1.67,0-3.43.67-4.53,1.73l-.11-.05.41-2.59c1.16-.49,3.08-.89,4.72-.89,3.54,0,5.48,1.59,5.48,5.96v5.43c0,1.67.27,2.32.89,2.92v.11l-3.32,1.03v-1.89c-1.13,1.4-3.02,1.92-4.32,1.89-3-.05-4.86-1.67-4.86-4.05ZM39.06,17.55v-3.89l-2.43.97c-2.46.95-3.89,1.62-3.89,3.38s1.16,2.7,2.78,2.7c1.19,0,3.54-.92,3.54-3.16Z"/>
    <path d="M44.14,14.71c0-4.64,3.83-7.69,8.26-7.69,2.05,0,3.27.35,4.13.81l.32,2.67-.11.05c-.86-1-2.35-1.78-4.62-1.78-2.7,0-5.21,1.75-5.21,5.34,0,3.89,2.51,6.59,6.24,6.59,2.08,0,3.43-.73,4.62-2.08l.11.05c-.94,1.86-2.62,3.78-6.26,3.78-3.89,0-7.48-2.78-7.48-7.75Z"/>
    <path d="M59.96,18.41V4.24c0-1.4-.32-2.56-1.11-3.1v-.11l3.64-1.03v13.6l3.56-3.51c1.21-1.21,1.65-2.21,1.65-2.65h3.73v.08c-.84.54-1.51,1.19-2.92,2.54l-3.73,3.56,5.4,5.75c1.13,1.19,2.05,2.21,2.48,2.56v.08h-4.21c0-.92-.84-1.94-1.48-2.65l-4.48-4.83v3.86c0,1.67.27,2.92.89,3.51v.11h-4.32v-.11c.62-.59.89-1.83.89-3.51Z"/>
    <path d="M80.69,18.6l.11-.14c1.54,1.46,3.56,2.27,5.72,2.27,2.83,0,5.26-1.83,5.26-5.26s-2.38-5.24-5.56-5.24c-1.75,0-3.43.54-4.43,1.13l-.05-.11,1.62-10.18h10.77l.35,2.97-.08.05c-.65-.65-2.16-1.13-5.1-1.13h-3.51l-.92,5.61c.57-.19,1.75-.32,2.83-.32,4.16,0,7.15,2.73,7.15,7.07s-3.32,7.13-7.69,7.13c-2.86,0-5.32-1.65-6.48-3.86Z"/>
    <path d="M97.16,11.55c0-6.32,3.29-10.9,8.5-10.9s8.5,4.59,8.5,10.9-3.29,10.91-8.5,10.91-8.5-4.59-8.5-10.91ZM111.09,11.55c0-4.64-1.78-8.96-5.43-8.96s-5.43,4.32-5.43,8.96,1.78,8.96,5.43,8.96,5.43-4.32,5.43-8.96Z"/>
    <path d="M117.52,23.81v-12.55c0-1.4-.32-2.56-1.11-3.1v-.11l3.64-1.03v2.56c.76-1.27,2.65-2.56,4.83-2.56,4.26,0,6.45,3.56,6.45,7.64,0,4.35-2.86,7.8-7.07,7.8-2.02,0-3.54-.94-4.21-1.83v3.18c0,1.67.27,2.92.89,3.51v.11h-4.32v-.11c.62-.59.89-1.84.89-3.51ZM128.54,15.3c0-3.13-1.46-6.4-4.48-6.4-2.54,0-4.16,2.48-4.16,5.64s1.59,6.29,4.54,6.29c2.46,0,4.1-2.4,4.1-5.53Z"/>
    <path d="M134.99,18.36v-9.1h-2.35v-.11l4.78-4.72h.11v3.02h5.43v.11l-1.57,1.97c-.81-.24-2.59-.32-3.86-.35v8.67c0,1.75.51,2.86,2.32,2.86.76,0,1.94-.32,2.56-1.19l.08.03-.49,2.43c-.51.22-1.4.49-2.83.49-2.62,0-4.18-1.11-4.18-4.1Z"/>
  </g>
  <g>
    <path d="M5.23,422.23c0-53.29,40.67-86.47,89.47-86.47s89.25,33.18,89.25,86.47-40.45,86.47-89.25,86.47S5.23,475.53,5.23,422.23ZM147.56,428.01c0-34.25-17.76-71.92-55.22-71.92-31.25,0-50.73,26.11-50.73,59.93,0,35.74,18.19,72.13,55.22,72.13,31.46,0,50.94-25.68,50.73-60.14Z"/>
    <path d="M202.79,476.6v-112.15c0-11.13-2.14-20.33-8.35-24.61v-.86l38.95-8.35v145.97c0,13.27,1.71,23.12,6.64,27.82v.86h-43.88v-.86c4.92-4.71,6.63-14.55,6.63-27.82Z"/>
    <path d="M250.52,447.92c0-37.67,28.47-61.64,61.43-61.64,40.02,0,53.08,28.68,53.08,55.65h-82.19v.21c0,31.46,20.12,48.37,45.38,48.37,15.2,0,28.04-5.14,37.03-13.48l.64.43c-7.71,13.91-25.68,31.25-54.79,31.25-31.46,0-60.57-22.47-60.57-60.79ZM332.92,423.94c-1.71-11.13-8.78-19.48-21.4-19.48s-21.4,7.71-25.68,19.48h47.09Z"/>
    <path d="M382.58,476.6v-56.72c0-11.13-2.14-20.33-8.35-24.61v-.86l37.67-8.13v18.41c4.71-8.99,19.69-18.41,38.96-18.41,23.54,0,38.31,13.48,38.31,45.16v45.16c0,13.27,1.71,23.12,6.64,27.82v.86h-44.31v-.86c4.92-4.71,6.85-14.55,6.85-27.82v-39.81c0-19.05-5.57-29.75-19.91-29.75-11.99,0-25.26,10.49-25.26,34.89v34.67c0,13.27,1.93,23.12,6.85,27.82v.86h-44.09v-.86c4.92-4.71,6.63-14.55,6.63-27.82Z"/>
    <path d="M513.15,463.54v-43.45c0-11.13-2.14-20.33-8.35-24.61v-.86l39.17-8.35v75.34c0,18.19,4.92,27.61,18.83,27.61,12.2,0,24.61-11.77,24.61-32.53v-36.6c0-11.13-2.14-20.33-8.35-24.61v-.86l38.95-8.35v89.47c0,12.2,1.93,19.48,7.49,23.97v.86l-35.53,8.13v-19.05c-4.92,8.99-17.34,19.05-37.88,19.05-23.33,0-38.95-13.48-38.95-45.16Z"/>
    <path d="M642,500.14l-3.42-26.97.86-.43c10.06,12.41,26.33,17.34,38.74,17.34,10.06,0,17.12-3.85,17.12-11.13,0-6.42-4.07-10.49-17.76-17.55l-11.13-5.78c-19.05-9.85-25.9-20.76-25.9-35.53,0-18.84,18.62-33.82,45.38-33.82,13.7,0,22.26,2.14,29.11,4.92l3,25.68-.64.21c-5.57-6.85-17.76-12.63-31.68-12.63-8.56,0-16.48,3.21-16.48,9.2s3.21,8.56,12.41,13.48l14.13,7.28c17.34,9.2,29.32,20.33,29.32,36.81,0,25.26-20.98,37.46-46.02,37.46-12.63,0-28.89-3-37.03-8.56Z"/>
  </g>
  <g>
    <path d="M7.39,298.32v-13.71c0-1.67-.3-2.92-.84-3.51v-.11h6.48c5.24,0,7.4,1.7,7.4,4.78,0,2.29-1.13,3.94-3.29,4.89,2.86.78,4.48,2.48,4.48,5.05,0,3.89-2.81,6.24-8.29,6.24h-6.78v-.11c.54-.59.84-1.83.84-3.51ZM17.35,286.18c-.05-2.08-1.32-3.29-4.16-3.29h-3.05v7.1h1.38c4.29,0,5.88-1.21,5.83-3.81ZM18.54,295.92c-.05-2.67-1.81-4.13-5.75-4.13h-2.65v8.26h3c3.54,0,5.45-1.19,5.4-4.13Z"/>
    <path d="M23.97,294.65c0-4.86,3.62-7.72,7.75-7.72s7.72,2.86,7.72,7.72-3.64,7.72-7.72,7.72-7.75-2.86-7.75-7.72ZM36.63,294.62c-.11-3.37-2.13-5.94-5.13-5.94s-4.83,2.56-4.72,5.94c.13,3.37,2.16,5.99,5.18,5.99s4.8-2.62,4.67-5.99Z"/>
    <path d="M42.11,298.32v-14.17c0-1.4-.32-2.56-1.11-3.1v-.11l3.64-1.03v18.41c0,1.67.27,2.92.89,3.51v.11h-4.32v-.11c.62-.59.89-1.83.89-3.51Z"/>
    <path d="M47.92,294.73c0-4.35,2.86-7.8,7.07-7.8,2.24,0,3.67,1.05,4.13,1.81v-4.59c0-1.4-.32-2.56-1.11-3.1v-.11l3.64-1.03v18.41c0,1.67.27,2.32.89,2.92v.11l-3.35,1.03v-2.56c-.65,1.38-2.54,2.56-4.72,2.56-4.26,0-6.56-3.56-6.56-7.64ZM59.36,294.65c-.05-3.32-1.92-5.97-4.48-5.97s-4.27,2.65-4.16,5.97c.08,3.35,1.94,5.97,4.54,5.97s4.24-2.62,4.1-5.97Z"/>
    <path d="M71.87,298.51l.11-.14c1.54,1.46,3.56,2.27,5.72,2.27,2.83,0,5.26-1.83,5.26-5.26s-2.38-5.24-5.56-5.24c-1.75,0-3.43.54-4.43,1.13l-.05-.11,1.62-10.18h10.77l.35,2.97-.08.05c-.65-.65-2.16-1.13-5.1-1.13h-3.51l-.92,5.61c.57-.19,1.75-.32,2.83-.32,4.16,0,7.15,2.73,7.15,7.07s-3.32,7.13-7.69,7.13c-2.86,0-5.32-1.65-6.48-3.86Z"/>
    <path d="M88.34,291.47c0-6.32,3.29-10.9,8.5-10.9s8.5,4.59,8.5,10.9-3.29,10.91-8.5,10.91-8.5-4.59-8.5-10.91ZM102.26,291.47c0-4.64-1.78-8.96-5.43-8.96s-5.43,4.32-5.43,8.96,1.78,8.96,5.43,8.96,5.43-4.32,5.43-8.96Z"/>
    <path d="M108.69,303.72v-12.55c0-1.4-.32-2.56-1.11-3.1v-.11l3.64-1.03v2.56c.76-1.27,2.65-2.56,4.83-2.56,4.26,0,6.45,3.56,6.45,7.64,0,4.35-2.86,7.8-7.07,7.8-2.02,0-3.54-.94-4.21-1.83v3.18c0,1.67.27,2.92.89,3.51v.11h-4.32v-.11c.62-.59.89-1.84.89-3.51ZM119.71,295.22c0-3.13-1.46-6.4-4.48-6.4-2.54,0-4.16,2.48-4.16,5.64s1.59,6.29,4.54,6.29c2.46,0,4.1-2.4,4.1-5.53Z"/>
    <path d="M126.16,298.27v-9.1h-2.35v-.11l4.78-4.72h.11v3.02h5.43v.11l-1.57,1.97c-.81-.24-2.59-.32-3.86-.35v8.67c0,1.75.51,2.86,2.32,2.86.76,0,1.94-.32,2.56-1.19l.08.03-.49,2.43c-.51.22-1.4.49-2.83.49-2.62,0-4.18-1.11-4.18-4.1Z"/>
  </g>
  <g>
    <path d="M6.3,707.43c0-54.36,41.09-86.47,87.75-86.47s87.75,32.11,87.75,86.47-41.09,86.47-87.75,86.47S6.3,761.8,6.3,707.43ZM157.41,711.29c0-38.1-22.9-74.91-64.85-74.91-37.24,0-61.86,29.75-61.86,66.99s22.47,75.13,64.64,75.13c37.46,0,62.28-29.54,62.07-67.21Z"/>
    <path d="M202.57,761.8v-112.37c0-11.13-2.57-20.33-8.78-24.61v-.86l28.89-8.13v145.97c0,13.27,2.14,23.12,7.06,27.82v.86h-34.25v-.86c4.92-4.71,7.06-14.55,7.06-27.82Z"/>
    <path d="M242.17,732.48c0-36.81,28.25-61,61.21-61,35.96,0,49.66,23.97,49.66,52.01h-88.61c-.21,1.5-.21,2.78-.21,4.28,0,30.82,19.91,52.22,49.44,52.22,16.48,0,30.18-6.42,39.6-16.48l.86.43c-8.13,14.77-23.76,29.96-52.65,29.96-30.82,0-59.29-22.05-59.29-61.43ZM329.07,709.15c-1.28-12.63-10.92-23.76-27.18-23.76-15.2,0-28.68,8.35-34.46,23.76h61.64Z"/>
    <path d="M372.09,761.8v-56.72c0-11.13-2.57-20.33-8.78-24.61v-.86l28.89-8.13v20.12c5.35-10.27,21.62-20.12,39.81-20.12,25.9,0,39.17,13.91,39.17,44.31v46.02c0,13.27,2.14,23.12,7.06,27.82v.86h-34.25v-.86c4.92-4.71,7.06-14.55,7.06-27.82v-42.59c0-20.12-4.92-33.6-24.61-33.6-16.27,0-34.25,13.91-34.25,42.17v34.03c0,13.27,2.14,23.12,7.06,27.82v.86h-34.25v-.86c4.92-4.71,7.06-14.55,7.06-27.82Z"/>
    <path d="M497.73,749.6v-44.52c0-11.13-2.57-20.33-8.78-24.61v-.86l28.89-8.13v74.7c0,20.12,4.92,33.6,24.61,33.6,16.27,0,33.18-13.91,33.18-42.16v-32.53c0-11.13-2.57-20.33-8.78-24.61v-.86l28.89-8.13v90.32c0,13.27,2.14,18.41,7.06,23.12v.86l-26.33,8.13v-21.4c-5.35,10.92-21.4,21.4-39.6,21.4-25.9,0-39.17-13.91-39.17-44.31Z"/>
    <path d="M619.95,784.7l-3-22.47.86-.43c9.42,13.06,23.76,18.19,37.88,18.19,12.63,0,22.9-5.35,22.9-15.41,0-8.56-5.56-14.13-20.76-22.04l-13.06-6.85c-18.83-9.85-25.47-19.48-25.47-33.6,0-15.62,15.41-30.61,41.31-30.61,12.84,0,20.97,2.57,27.82,5.78l2.57,20.33-.64.43c-4.71-6.21-16.48-12.63-31.68-12.63-11.56,0-20.33,5.14-20.33,12.84,0,8.35,3.85,11.77,17.55,18.83l14.55,7.49c18.41,9.42,28.25,19.05,28.25,34.25,0,22.9-19.69,35.1-43.45,35.1-11.99,0-26.97-2.57-35.32-9.2Z"/>
  </g>
  <g>
    <path d="M7.63,582.22l4.59-16.25h.11l5.37,12.71,5.34-12.71h.11l5.64,17.6c.51,1.62,1.24,3.08,1.81,3.67v.11h-4.32c.16-.94.03-2.11-.35-3.37l-3.46-11.45-4.99,11.63h-.11l-4.97-11.34-3,10.99c-.43,1.62-.38,2.81-.19,3.54h-3.72v-.11c.81-.94,1.54-2.89,2.13-5.02Z"/>
    <path d="M31.26,580.04c0-4.64,3.56-7.69,7.72-7.69,4.54,0,6.26,3.02,6.26,6.56h-11.17c-.03.19-.03.35-.03.54,0,3.89,2.51,6.59,6.24,6.59,2.08,0,3.81-.81,4.99-2.08l.11.05c-1.03,1.86-3,3.78-6.64,3.78-3.89,0-7.48-2.78-7.48-7.75ZM42.22,577.09c-.16-1.59-1.38-3-3.43-3-1.92,0-3.62,1.05-4.35,3h7.77Z"/>
    <path d="M47.19,580.14c0-4.35,2.86-7.8,7.07-7.8,2.24,0,3.67,1.05,4.13,1.81v-4.59c0-1.4-.32-2.56-1.11-3.1v-.11l3.64-1.03v18.41c0,1.67.27,2.32.89,2.92v.11l-3.35,1.03v-2.56c-.65,1.38-2.54,2.56-4.72,2.56-4.26,0-6.56-3.56-6.56-7.64ZM58.63,580.06c-.05-3.32-1.92-5.97-4.48-5.97s-4.27,2.65-4.16,5.97c.08,3.35,1.94,5.97,4.54,5.97s4.24-2.62,4.1-5.97Z"/>
    <path d="M64.98,583.73v-7.15c0-1.4-.32-2.56-1.11-3.1v-.11l3.64-1.03v11.39c0,1.67.27,2.92.89,3.51v.11h-4.32v-.11c.62-.59.89-1.83.89-3.51ZM64.25,568.24c0-1.13.86-1.78,1.84-1.78s1.86.65,1.86,1.78-.89,1.81-1.86,1.81-1.84-.67-1.84-1.81Z"/>
    <path d="M71.73,582.2v-5.62c0-1.4-.32-2.56-1.11-3.1v-.11l3.64-1.03v9.42c0,2.54.62,4.24,3.1,4.24,2.05,0,4.18-1.75,4.18-5.32v-4.1c0-1.4-.32-2.56-1.11-3.1v-.11l3.64-1.03v11.39c0,1.67.27,2.32.89,2.92v.11l-3.32,1.03v-2.7c-.67,1.38-2.7,2.7-4.99,2.7-3.27,0-4.94-1.75-4.94-5.59Z"/>
    <path d="M88.09,583.73v-7.15c0-1.4-.32-2.56-1.11-3.1v-.11l3.64-1.03v2.54c.67-1.3,2.38-2.54,4.56-2.54s3.59.92,4.21,2.83c.76-1.43,2.56-2.86,4.94-2.83,3,.03,4.59,1.75,4.59,5.59v5.8c0,1.67.27,2.92.89,3.51v.11h-4.32v-.11c.62-.59.89-1.83.89-3.51v-5.37c0-2.54-.54-4.24-2.75-4.24-1.94,0-3.86,1.75-3.86,5.32v4.29c0,1.67.27,2.92.89,3.51v.11h-4.32v-.11c.62-.59.89-1.83.89-3.51v-5.37c0-2.54-.54-4.24-2.75-4.24-1.94,0-3.86,1.75-3.86,5.32v4.29c0,1.67.27,2.92.89,3.51v.11h-4.32v-.11c.62-.59.89-1.83.89-3.51Z"/>
    <path d="M119.09,583.92l.11-.14c1.54,1.46,3.56,2.27,5.72,2.27,2.83,0,5.26-1.83,5.26-5.26s-2.38-5.24-5.56-5.24c-1.75,0-3.43.54-4.43,1.13l-.05-.11,1.62-10.18h10.77l.35,2.97-.08.05c-.65-.65-2.16-1.13-5.1-1.13h-3.51l-.92,5.61c.57-.19,1.75-.32,2.83-.32,4.16,0,7.15,2.73,7.15,7.07s-3.32,7.13-7.69,7.13c-2.86,0-5.32-1.65-6.48-3.86Z"/>
    <path d="M135.56,576.88c0-6.32,3.29-10.9,8.5-10.9s8.5,4.59,8.5,10.9-3.29,10.91-8.5,10.91-8.5-4.59-8.5-10.91ZM149.49,576.88c0-4.64-1.78-8.96-5.43-8.96s-5.43,4.32-5.43,8.96,1.78,8.96,5.43,8.96,5.43-4.32,5.43-8.96Z"/>
    <path d="M155.92,589.13v-12.55c0-1.4-.32-2.56-1.11-3.1v-.11l3.64-1.03v2.56c.76-1.27,2.65-2.56,4.83-2.56,4.26,0,6.45,3.56,6.45,7.64,0,4.35-2.86,7.8-7.07,7.8-2.02,0-3.54-.94-4.21-1.83v3.18c0,1.67.27,2.92.89,3.51v.11h-4.32v-.11c.62-.59.89-1.84.89-3.51ZM166.93,580.63c0-3.13-1.46-6.4-4.48-6.4-2.54,0-4.16,2.48-4.16,5.64s1.59,6.29,4.54,6.29c2.46,0,4.1-2.4,4.1-5.53Z"/>
    <path d="M173.38,583.68v-9.1h-2.35v-.11l4.78-4.72h.11v3.02h5.43v.11l-1.57,1.97c-.81-.24-2.59-.32-3.86-.35v8.67c0,1.75.51,2.86,2.32,2.86.76,0,1.94-.32,2.56-1.19l.08.03-.49,2.43c-.51.22-1.4.49-2.83.49-2.62,0-4.18-1.11-4.18-4.1Z"/>
  </g>
  <g>
    <path d="M821.49,136.38c0-52.22,40.02-86.47,90.96-86.47s90.96,34.25,90.96,86.47-40.02,86.47-90.96,86.47-90.96-34.25-90.96-86.47ZM955.05,144.3c0-30.39-12.63-68.92-45.59-68.92-25.26,0-39.6,22.26-39.6,52.65,0,33.17,13.7,69.35,45.8,69.35,25.26,0,39.38-22.47,39.38-53.08Z"/>
    <path d="M1025.47,190.75v-108.73c0-13.27-3-23.12-7.92-27.83v-.86h60.36v.86c-4.92,4.71-7.92,14.55-7.92,27.83v110.01h23.76c18.19,0,37.88-3,46.23-10.7l.86.21-4.71,37.88h-118.58v-.86c4.92-4.71,7.92-14.55,7.92-27.82ZM1095.46,149.23v-75.98c0-8.99-2.35-16.05-5.56-19.26v-.64h82.83l3.42,29.11-.64.21c-5.99-4.49-12.84-5.99-22.9-5.99h-17.55v21.83h10.7c7.06,0,15.2-1.07,19.91-4.28h.64v29.97l-.64.21c-4.71-3.42-12.84-4.5-19.91-4.5h-10.7v25.9h12.84c12.63,0,26.54-2.14,32.32-7.49l.64.21-3.42,30.82h-87.54v-.64c3.21-3.42,5.56-10.06,5.56-19.48Z"/>
    <path d="M1230.74,133.6v57.15c0,13.27,3,23.12,7.92,27.82v.86h-46.87v-.86c4.92-4.71,7.92-14.55,7.92-27.82V48.2h.86l109.59,90.75v-56.93c0-13.27-3-23.12-7.92-27.83v-.86h46.87v.86c-4.92,4.71-7.92,14.55-7.92,27.83v142.55h-.86l-109.59-90.96Z"/>
    <path d="M1372.43,162.07v-80.05c0-13.27-3-23.12-7.92-27.83v-.86h60.36v.86c-4.92,4.71-7.92,14.55-7.92,27.83v73.2c0,27.83,9.63,36.6,26.33,36.6,15.41,0,27.61-14.98,27.61-37.24v-72.56c0-13.27-3-23.12-7.92-27.83v-.86h60.36v.86c-4.92,4.71-7.92,14.55-7.92,27.83v108.73c0,13.27,3,23.12,7.92,27.82v.86h-52.01c1.07-6.21,1.07-13.48,1.07-17.12-5.99,9.85-22.69,20.55-42.59,20.55-35.96,0-57.36-18.19-57.36-60.79Z"/>
    <path d="M1545.8,211.08l-5.14-41.09.86-.21c14.77,16.05,35.32,24.19,50.73,24.19,14.34,0,24.83-3.64,24.83-16.48,0-9.2-7.06-15.84-23.97-23.76l-12.84-5.99c-27.4-12.84-37.88-26.75-37.88-48.37,0-31.04,27.61-49.44,63.78-49.44,17.34,0,34.67,3.64,43.23,8.56l4.92,37.24-.86.21c-8.99-10.7-26.54-19.48-44.31-19.48-13.7,0-22.69,5.35-22.69,14.13,0,7.49,2.57,10.7,17.76,17.55l22.05,10.06c23.97,10.92,38.53,25.68,38.53,50.73,0,39.17-31.89,53.72-68.92,53.72-18.62,0-38.74-5.57-50.08-11.56Z"/>
  </g>
  <g>
    <path d="M824.72,18.55V4.84c0-1.67-.3-2.92-.84-3.51v-.11h6.48c5.24,0,7.4,1.7,7.4,4.78,0,2.29-1.13,3.94-3.29,4.89,2.86.78,4.48,2.48,4.48,5.05,0,3.89-2.81,6.24-8.29,6.24h-6.78v-.11c.54-.59.84-1.83.84-3.51ZM834.68,6.4c-.05-2.08-1.32-3.29-4.16-3.29h-3.05v7.1h1.38c4.29,0,5.88-1.21,5.83-3.81ZM835.87,16.15c-.05-2.67-1.81-4.13-5.75-4.13h-2.65v8.26h3c3.54,0,5.45-1.19,5.4-4.13Z"/>
    <path d="M841.79,18.55V4.38c0-1.4-.32-2.56-1.11-3.1v-.11l3.64-1.03v18.41c0,1.67.27,2.92.89,3.51v.11h-4.32v-.11c.62-.59.89-1.83.89-3.51Z"/>
    <path d="M847.32,18.55c0-2.94,1.97-3.94,4.86-4.91,1.7-.57,3.16-1.08,4.21-1.49-.08-1.86-.89-3.18-3.43-3.18-1.67,0-3.43.67-4.53,1.73l-.11-.05.41-2.59c1.16-.49,3.08-.89,4.72-.89,3.54,0,5.48,1.59,5.48,5.96v5.43c0,1.67.27,2.32.89,2.92v.11l-3.32,1.03v-1.89c-1.13,1.4-3.02,1.92-4.32,1.89-3-.05-4.86-1.67-4.86-4.05ZM856.39,17.68v-3.89l-2.43.97c-2.46.95-3.89,1.62-3.89,3.38s1.16,2.7,2.78,2.7c1.19,0,3.54-.92,3.54-3.16Z"/>
    <path d="M861.47,14.85c0-4.64,3.83-7.69,8.26-7.69,2.05,0,3.27.35,4.13.81l.32,2.67-.11.05c-.86-1-2.35-1.78-4.62-1.78-2.7,0-5.21,1.75-5.21,5.34,0,3.89,2.51,6.59,6.24,6.59,2.08,0,3.43-.73,4.62-2.08l.11.05c-.94,1.86-2.62,3.78-6.26,3.78-3.89,0-7.48-2.78-7.48-7.75Z"/>
    <path d="M877.29,18.55V4.38c0-1.4-.32-2.56-1.11-3.1v-.11l3.64-1.03v13.6l3.56-3.51c1.21-1.21,1.65-2.21,1.65-2.65h3.73v.08c-.84.54-1.51,1.19-2.92,2.54l-3.73,3.56,5.4,5.75c1.13,1.19,2.05,2.21,2.48,2.56v.08h-4.21c0-.92-.84-1.94-1.48-2.65l-4.48-4.83v3.86c0,1.67.27,2.92.89,3.51v.11h-4.32v-.11c.62-.59.89-1.83.89-3.51Z"/>
    <path d="M898.03,18.74l.11-.14c1.54,1.46,3.56,2.27,5.72,2.27,2.83,0,5.26-1.83,5.26-5.26s-2.38-5.24-5.56-5.24c-1.75,0-3.43.54-4.43,1.13l-.05-.11,1.62-10.18h10.77l.35,2.97-.08.05c-.65-.65-2.16-1.13-5.1-1.13h-3.51l-.92,5.61c.57-.19,1.75-.32,2.83-.32,4.16,0,7.15,2.73,7.15,7.07s-3.32,7.13-7.69,7.13c-2.86,0-5.32-1.65-6.48-3.86Z"/>
    <path d="M914.5,11.69c0-6.32,3.29-10.9,8.5-10.9s8.5,4.59,8.5,10.9-3.29,10.91-8.5,10.91-8.5-4.59-8.5-10.91ZM928.43,11.69c0-4.64-1.78-8.96-5.43-8.96s-5.43,4.32-5.43,8.96,1.78,8.96,5.43,8.96,5.43-4.32,5.43-8.96Z"/>
    <path d="M934.86,23.95v-12.55c0-1.4-.32-2.56-1.11-3.1v-.11l3.64-1.03v2.56c.76-1.27,2.65-2.56,4.83-2.56,4.26,0,6.45,3.56,6.45,7.64,0,4.35-2.86,7.8-7.07,7.8-2.02,0-3.54-.94-4.21-1.83v3.18c0,1.67.27,2.92.89,3.51v.11h-4.32v-.11c.62-.59.89-1.84.89-3.51ZM945.87,15.44c0-3.13-1.46-6.4-4.48-6.4-2.54,0-4.16,2.48-4.16,5.64s1.59,6.29,4.54,6.29c2.46,0,4.1-2.4,4.1-5.53Z"/>
    <path d="M952.32,18.49v-9.1h-2.35v-.11l4.78-4.72h.11v3.02h5.43v.11l-1.57,1.97c-.81-.24-2.59-.32-3.86-.35v8.67c0,1.75.51,2.86,2.32,2.86.76,0,1.94-.32,2.56-1.19l.08.03-.49,2.43c-.51.22-1.4.49-2.83.49-2.62,0-4.18-1.11-4.18-4.1Z"/>
  </g>
  <g>
    <path d="M822.56,422.23c0-53.29,40.67-86.47,89.47-86.47s89.25,33.18,89.25,86.47-40.45,86.47-89.25,86.47-89.47-33.18-89.47-86.47ZM964.9,428.01c0-34.25-17.76-71.92-55.22-71.92-31.25,0-50.73,26.11-50.73,59.93,0,35.74,18.19,72.13,55.22,72.13,31.46,0,50.94-25.68,50.73-60.14Z"/>
    <path d="M1025.26,476.59v-108.73c0-13.27-3-23.12-7.92-27.83v-.86h48.8v.86c-4.92,4.71-7.71,14.55-7.71,27.83v116.22h30.61c20.76,0,36.6-3,43.24-9.42l.86.21-3.85,30.39h-111.94v-.86c4.92-4.71,7.92-14.55,7.92-27.82ZM1086.69,433.79v-70.42c0-11.13-2.14-19.48-6.21-23.54v-.64h79.83l3.21,25.26-.64.43c-5.78-4.92-14.77-6.63-31.46-6.63h-14.55v28.47h11.99c8.56,0,18.19-.43,24.19-4.5l.64.21v26.33l-.64.21c-5.78-4.07-15.62-4.5-24.19-4.5h-11.99v34.46h15.41c17.98,0,30.82-2.14,36.17-7.28l.64.21-3,26.33h-85.61v-.86c4.07-4.07,6.21-12.2,6.21-23.54Z"/>
    <path d="M1212.76,401.68v74.91c0,13.27,2.57,23.12,7.49,27.82v.86h-39.17v-.86c4.92-4.71,7.49-14.55,7.49-27.82v-142.55h.86l113.65,108.52v-74.7c0-13.27-2.57-23.12-7.49-27.83v-.86h38.95v.86c-4.92,4.71-7.49,14.55-7.49,27.83v142.55h-.86l-113.44-108.73Z"/>
    <path d="M1360.02,449.2v-81.33c0-13.27-3-23.12-7.92-27.83v-.86h48.8v.86c-4.92,4.71-7.71,14.55-7.71,27.83v75.77c0,30.39,11.56,41.52,31.25,41.52,23.54,0,36.6-22.05,36.6-45.16v-72.13c0-13.27-2.78-23.12-7.71-27.83v-.86h48.8v.86c-4.92,4.71-7.92,14.55-7.92,27.83v108.73c0,13.27,3,23.12,7.92,27.82v.86h-40.88c1.28-5.99,1.5-13.7,1.5-20.98-5.78,11.13-22.69,24.4-46.45,24.4-33.6,0-56.29-17.34-56.29-59.5Z"/>
    <path d="M1525.9,496.07l-4.28-34.25.86-.21c12.41,15.41,32.96,24.83,50.73,24.83s30.39-7.28,30.39-22.9c0-12.84-10.7-20.55-29.11-29.54l-11.13-5.35c-26.75-12.84-38.74-26.33-38.74-46.87,0-27.61,23.12-46.02,59.29-46.02,17.34,0,32.32,3.42,41.09,8.78l4.5,31.25-.86.21c-7.71-10.06-23.54-19.26-43.66-19.26-16.27,0-27.4,7.06-27.4,18.19,0,9.42,4.07,14.34,23.76,23.76l17.55,8.35c26.97,13.06,40.45,26.97,40.45,50.3,0,34.89-27.61,51.15-64.64,51.15-17.34,0-37.24-4.71-48.8-12.41Z"/>
  </g>
  <g>
    <path d="M824.72,304.47v-13.71c0-1.67-.3-2.92-.84-3.51v-.11h6.48c5.24,0,7.4,1.7,7.4,4.78,0,2.29-1.13,3.94-3.29,4.89,2.86.78,4.48,2.48,4.48,5.05,0,3.89-2.81,6.24-8.29,6.24h-6.78v-.11c.54-.59.84-1.83.84-3.51ZM834.68,292.33c-.05-2.08-1.32-3.29-4.16-3.29h-3.05v7.1h1.38c4.29,0,5.88-1.21,5.83-3.81ZM835.87,302.07c-.05-2.67-1.81-4.13-5.75-4.13h-2.65v8.26h3c3.54,0,5.45-1.19,5.4-4.13Z"/>
    <path d="M841.3,300.8c0-4.86,3.62-7.72,7.75-7.72s7.72,2.86,7.72,7.72-3.64,7.72-7.72,7.72-7.75-2.86-7.75-7.72ZM853.96,300.77c-.11-3.37-2.13-5.94-5.13-5.94s-4.83,2.56-4.72,5.94c.13,3.37,2.16,5.99,5.18,5.99s4.8-2.62,4.67-5.99Z"/>
    <path d="M859.45,304.47v-14.17c0-1.4-.32-2.56-1.11-3.1v-.11l3.64-1.03v18.41c0,1.67.27,2.92.89,3.51v.11h-4.32v-.11c.62-.59.89-1.83.89-3.51Z"/>
    <path d="M865.25,300.88c0-4.35,2.86-7.8,7.07-7.8,2.24,0,3.67,1.05,4.13,1.81v-4.59c0-1.4-.32-2.56-1.11-3.1v-.11l3.64-1.03v18.41c0,1.67.27,2.32.89,2.92v.11l-3.35,1.03v-2.56c-.65,1.38-2.54,2.56-4.72,2.56-4.26,0-6.56-3.56-6.56-7.64ZM876.7,300.8c-.05-3.32-1.92-5.97-4.48-5.97s-4.27,2.65-4.16,5.97c.08,3.35,1.94,5.97,4.54,5.97s4.24-2.62,4.1-5.97Z"/>
    <path d="M889.2,304.66l.11-.14c1.54,1.46,3.56,2.27,5.72,2.27,2.83,0,5.26-1.83,5.26-5.26s-2.38-5.24-5.56-5.24c-1.75,0-3.43.54-4.43,1.13l-.05-.11,1.62-10.18h10.77l.35,2.97-.08.05c-.65-.65-2.16-1.13-5.1-1.13h-3.51l-.92,5.61c.57-.19,1.75-.32,2.83-.32,4.16,0,7.15,2.73,7.15,7.07s-3.32,7.13-7.69,7.13c-2.86,0-5.32-1.65-6.48-3.86Z"/>
    <path d="M905.67,297.62c0-6.32,3.29-10.9,8.5-10.9s8.5,4.59,8.5,10.9-3.29,10.91-8.5,10.91-8.5-4.59-8.5-10.91ZM919.6,297.62c0-4.64-1.78-8.96-5.43-8.96s-5.43,4.32-5.43,8.96,1.78,8.96,5.43,8.96,5.43-4.32,5.43-8.96Z"/>
    <path d="M926.03,309.87v-12.55c0-1.4-.32-2.56-1.11-3.1v-.11l3.64-1.03v2.56c.76-1.27,2.65-2.56,4.83-2.56,4.26,0,6.45,3.56,6.45,7.64,0,4.35-2.86,7.8-7.07,7.8-2.02,0-3.54-.94-4.21-1.83v3.18c0,1.67.27,2.92.89,3.51v.11h-4.32v-.11c.62-.59.89-1.84.89-3.51ZM937.04,301.37c0-3.13-1.46-6.4-4.48-6.4-2.54,0-4.16,2.48-4.16,5.64s1.59,6.29,4.54,6.29c2.46,0,4.1-2.4,4.1-5.53Z"/>
    <path d="M943.5,304.42v-9.1h-2.35v-.11l4.78-4.72h.11v3.02h5.43v.11l-1.57,1.97c-.81-.24-2.59-.32-3.86-.35v8.67c0,1.75.51,2.86,2.32,2.86.76,0,1.94-.32,2.56-1.19l.08.03-.49,2.43c-.51.22-1.4.49-2.83.49-2.62,0-4.18-1.11-4.18-4.1Z"/>
  </g>
  <g>
    <path d="M823.63,707.44c0-54.36,41.09-86.47,87.75-86.47s87.75,32.11,87.75,86.47-41.09,86.47-87.75,86.47-87.75-32.11-87.75-86.47ZM974.74,711.29c0-38.1-22.9-74.91-64.85-74.91-37.24,0-61.86,29.75-61.86,66.99s22.47,75.13,64.64,75.13c37.46,0,62.28-29.54,62.07-67.21Z"/>
    <path d="M1025.04,761.8v-108.73c0-13.27-2.78-23.12-7.71-27.83v-.86h37.24v.86c-4.92,4.71-7.71,14.55-7.71,27.83v122.43h37.46c23.33,0,35.32-3,40.45-8.13l.64.43-3,22.69h-105.09v-.86c4.92-4.71,7.71-14.55,7.71-27.82ZM1077.91,717.71v-64.64c0-13.27-1.71-23.12-6.63-27.83v-.86h76.84l3,21.62-.64.43c-5.14-5.14-16.91-7.06-40.24-7.06h-11.34v34.89h13.27c10.06,0,21.4.21,28.25-4.5l.86.21v22.9l-.86.21c-6.85-4.71-18.19-4.5-28.25-4.5h-13.27v42.81h17.76c23.33,0,35.1-1.93,40.24-7.06l.64.43-2.78,21.62h-83.47v-.86c4.92-4.71,6.63-14.55,6.63-27.82Z"/>
    <path d="M1194.78,669.34v92.46c0,13.27,2.14,23.12,7.06,27.82v.86h-31.25v-.86c4.92-4.71,7.06-14.55,7.06-27.82v-142.55h.86l117.5,126.28v-92.46c0-13.27-2.14-23.12-7.06-27.83v-.86h31.25v.86c-4.92,4.71-7.06,14.55-7.06,27.83v142.55h-.86l-117.5-126.28Z"/>
    <path d="M1347.61,735.9v-82.83c0-13.27-2.78-23.12-7.71-27.83v-.86h37.24v.86c-4.92,4.71-7.71,14.55-7.71,27.83v78.55c0,32.96,13.48,46.45,36.17,46.45,31.68,0,45.8-29.11,45.8-53.29v-71.7c0-13.27-2.78-23.12-7.71-27.83v-.86h37.24v.86c-4.92,4.71-7.71,14.55-7.71,27.83v108.73c0,13.27,2.78,23.12,7.71,27.82v.86h-29.54c1.5-5.78,1.71-13.7,1.71-24.61-5.35,11.99-22.47,28.04-50.3,28.04-31.25,0-55.22-16.27-55.22-58Z"/>
    <path d="M1506,780.42l-3.42-27.4.86-.21c10.06,14.98,30.39,25.68,50.51,25.68,21.62,0,35.96-11.13,35.96-29.54,0-16.48-13.91-25.04-34.25-35.32l-9.42-4.71c-25.9-12.84-39.38-25.9-39.38-45.38,0-24.19,18.62-42.59,54.58-42.59,17.34,0,30.61,3.42,39.17,8.99l4.07,25.26-.86.21c-6.21-9.2-20.55-19.05-43.02-19.05-19.05,0-32.32,8.99-32.32,22.47,0,11.13,6.21,17.98,29.75,29.75l13.27,6.64c29.75,14.98,42.17,28.25,42.17,50.08,0,30.61-23.33,48.59-60.14,48.59-16.05,0-35.96-4.28-47.52-13.48Z"/>
  </g>
  <g>
    <path d="M824.97,588.37l4.59-16.25h.11l5.37,12.71,5.34-12.71h.11l5.64,17.6c.51,1.62,1.24,3.08,1.81,3.67v.11h-4.32c.16-.94.03-2.11-.35-3.37l-3.46-11.45-4.99,11.63h-.11l-4.97-11.34-3,10.99c-.43,1.62-.38,2.81-.19,3.54h-3.72v-.11c.81-.94,1.54-2.89,2.13-5.02Z"/>
    <path d="M848.59,586.19c0-4.64,3.56-7.69,7.72-7.69,4.54,0,6.26,3.02,6.26,6.56h-11.17c-.03.19-.03.35-.03.54,0,3.89,2.51,6.59,6.24,6.59,2.08,0,3.81-.81,4.99-2.08l.11.05c-1.03,1.86-3,3.78-6.64,3.78-3.89,0-7.48-2.78-7.48-7.75ZM859.55,583.24c-.16-1.59-1.38-3-3.43-3-1.92,0-3.62,1.05-4.35,3h7.77Z"/>
    <path d="M864.52,586.29c0-4.35,2.86-7.8,7.07-7.8,2.24,0,3.67,1.05,4.13,1.81v-4.59c0-1.4-.32-2.56-1.11-3.1v-.11l3.64-1.03v18.41c0,1.67.27,2.32.89,2.92v.11l-3.35,1.03v-2.56c-.65,1.38-2.54,2.56-4.72,2.56-4.26,0-6.56-3.56-6.56-7.64ZM875.97,586.21c-.05-3.32-1.92-5.97-4.48-5.97s-4.27,2.65-4.16,5.97c.08,3.35,1.94,5.97,4.54,5.97s4.24-2.62,4.1-5.97Z"/>
    <path d="M882.31,589.88v-7.15c0-1.4-.32-2.56-1.11-3.1v-.11l3.64-1.03v11.39c0,1.67.27,2.92.89,3.51v.11h-4.32v-.11c.62-.59.89-1.83.89-3.51ZM881.59,574.39c0-1.13.86-1.78,1.84-1.78s1.86.65,1.86,1.78-.89,1.81-1.86,1.81-1.84-.67-1.84-1.81Z"/>
    <path d="M889.06,588.35v-5.62c0-1.4-.32-2.56-1.11-3.1v-.11l3.64-1.03v9.42c0,2.54.62,4.24,3.1,4.24,2.05,0,4.18-1.75,4.18-5.32v-4.1c0-1.4-.32-2.56-1.11-3.1v-.11l3.64-1.03v11.39c0,1.67.27,2.32.89,2.92v.11l-3.32,1.03v-2.7c-.67,1.38-2.7,2.7-4.99,2.7-3.27,0-4.94-1.75-4.94-5.59Z"/>
    <path d="M905.43,589.88v-7.15c0-1.4-.32-2.56-1.11-3.1v-.11l3.64-1.03v2.54c.67-1.3,2.38-2.54,4.56-2.54s3.59.92,4.21,2.83c.76-1.43,2.56-2.86,4.94-2.83,3,.03,4.59,1.75,4.59,5.59v5.8c0,1.67.27,2.92.89,3.51v.11h-4.32v-.11c.62-.59.89-1.83.89-3.51v-5.37c0-2.54-.54-4.24-2.75-4.24-1.94,0-3.86,1.75-3.86,5.32v4.29c0,1.67.27,2.92.89,3.51v.11h-4.32v-.11c.62-.59.89-1.83.89-3.51v-5.37c0-2.54-.54-4.24-2.75-4.24-1.94,0-3.86,1.75-3.86,5.32v4.29c0,1.67.27,2.92.89,3.51v.11h-4.32v-.11c.62-.59.89-1.83.89-3.51Z"/>
    <path d="M936.42,590.07l.11-.14c1.54,1.46,3.56,2.27,5.72,2.27,2.83,0,5.26-1.83,5.26-5.26s-2.38-5.24-5.56-5.24c-1.75,0-3.43.54-4.43,1.13l-.05-.11,1.62-10.18h10.77l.35,2.97-.08.05c-.65-.65-2.16-1.13-5.1-1.13h-3.51l-.92,5.61c.57-.19,1.75-.32,2.83-.32,4.16,0,7.15,2.73,7.15,7.07s-3.32,7.13-7.69,7.13c-2.86,0-5.32-1.65-6.48-3.86Z"/>
    <path d="M952.89,583.03c0-6.32,3.29-10.9,8.5-10.9s8.5,4.59,8.5,10.9-3.29,10.91-8.5,10.91-8.5-4.59-8.5-10.91ZM966.82,583.03c0-4.64-1.78-8.96-5.43-8.96s-5.43,4.32-5.43,8.96,1.78,8.96,5.43,8.96,5.43-4.32,5.43-8.96Z"/>
    <path d="M973.25,595.28v-12.55c0-1.4-.32-2.56-1.11-3.1v-.11l3.64-1.03v2.56c.76-1.27,2.65-2.56,4.83-2.56,4.26,0,6.45,3.56,6.45,7.64,0,4.35-2.86,7.8-7.07,7.8-2.02,0-3.54-.94-4.21-1.83v3.18c0,1.67.27,2.92.89,3.51v.11h-4.32v-.11c.62-.59.89-1.84.89-3.51ZM984.26,586.78c0-3.13-1.46-6.4-4.48-6.4-2.54,0-4.16,2.48-4.16,5.64s1.59,6.29,4.54,6.29c2.46,0,4.1-2.4,4.1-5.53Z"/>
    <path d="M990.72,589.83v-9.1h-2.35v-.11l4.78-4.72h.11v3.02h5.43v.11l-1.57,1.97c-.81-.24-2.59-.32-3.86-.35v8.67c0,1.75.51,2.86,2.32,2.86.76,0,1.94-.32,2.56-1.19l.08.03-.49,2.43c-.51.22-1.4.49-2.83.49-2.62,0-4.18-1.11-4.18-4.1Z"/>
  </g>
  <g>
    <path d="M13,1051.54l26.91-93.26h.61l33.79,60.24,33.18-60.24h.61l33.79,100.91c3.06,9.17,7.8,17.74,11.31,20.79v.61h-43.12c.46-5.35-.15-11.62-2.29-19.11l-11.77-41.59-27.06,47.09h-.61l-25.69-44.64-9.79,38.22c-2.45,9.79-2.75,16.67-1.99,20.03H0v-.61c4.59-5.5,9.48-16.36,13-28.44Z"/>
    <path d="M157.47,1050.17v-30.27c0-7.95-1.22-14.53-5.66-17.58v-.61l35.17-6.12v54.28c0,11.62,3.52,15.59,9.33,15.59s11.47-6.88,11.47-16.36v-29.2c0-7.95-1.22-14.53-5.66-17.58v-.61l35.17-6.12v63.45c0,7.95,1.22,14.52,5.66,17.58v.61l-32.11,5.81v-11.77c-3.06,4.89-9.48,11.77-25.69,11.77-14.98,0-27.67-9.33-27.67-32.87Z"/>
    <path d="M250.27,1042.06c0-27.83,16.67-46.48,39.29-46.48,5.96,0,12.84,2.14,14.98,4.74v-20.18c0-7.95-1.22-14.52-5.66-17.58v-.61l35.17-6.12v103.2c0,7.95,1.22,14.52,5.66,17.58v.61l-32.57,5.81v-11.93c-2.75,6.73-12.08,11.93-22.63,11.93-22.63,0-34.25-18.96-34.25-40.98ZM305.93,1042.98c0-11.01-2.9-31.34-14.07-31.34-7.95,0-11.62,10.55-11.77,23.85,0,11.01,3.21,31.5,14.37,31.5,7.8,0,11.47-10.55,11.47-24Z"/>
    <path d="M360.51,1060.1v-46.48h-18.65v-.61l10.55-14.98h8.1v-8.41c0-22.32,16.97-33.79,35.01-33.79,12.84,0,20.33,2.29,25.38,4.43l24.77-4.43v104.27c0,9.48.92,16.51,4.43,19.88v.61h-38.38v-.61c3.52-3.36,4.43-10.4,4.43-19.88v-73.54c0-9.02-6.42-12.38-13.3-12.38-9.17,0-12.84,5.66-12.84,17.74v6.12h20.64v.61l-8.87,17.12c-2.45-.76-7.03-1.22-11.77-1.53v45.87c0,9.48.92,16.51,4.43,19.88v.61h-38.38v-.61c3.52-3.36,4.43-10.4,4.43-19.88Z"/>
    <path d="M456.37,1039.31c0-26.3,17.43-43.73,44.64-43.73s44.8,17.43,44.8,43.73-17.58,43.73-44.8,43.73-44.64-17.28-44.64-43.73ZM515.23,1042.98c0-11.01-3.21-31.34-15.44-31.34-8.71,0-12.69,10.55-12.84,23.85,0,11.01,3.52,31.5,15.75,31.5,8.56,0,12.54-10.55,12.54-24Z"/>
    <path d="M541.68,998.64v-.61h42.5c-.92,5.2.76,11.93,4.74,21.1l6.42,14.52,10.24-22.63c-3.06-5.81-5.96-10.09-8.26-12.38v-.61h37.76c-.92,5.2.92,11.62,4.74,21.1l5.96,14.52,5.66-14.68c3.21-8.26,5.2-16.05,4.28-20.95h28.13v.61c-3.67,4.13-8.41,11.31-12.23,19.57l-31.34,66.36h-.61l-24.92-54.12-25.23,54.12h-.61l-35.47-67.88c-4.43-8.41-8.71-14.98-11.77-18.04Z"/>
  </g>
  <g>
    <path d="M7.39,926.72v-13.71c0-1.67-.3-2.92-.84-3.51v-.11h6.48c5.24,0,7.4,1.7,7.4,4.78,0,2.29-1.13,3.94-3.29,4.89,2.86.78,4.48,2.48,4.48,5.05,0,3.89-2.81,6.24-8.29,6.24h-6.78v-.11c.54-.59.84-1.83.84-3.51ZM17.35,914.58c-.05-2.08-1.32-3.29-4.16-3.29h-3.05v7.1h1.38c4.29,0,5.88-1.21,5.83-3.81ZM18.54,924.32c-.05-2.67-1.81-4.13-5.75-4.13h-2.65v8.26h3c3.54,0,5.45-1.19,5.4-4.13Z"/>
    <path d="M24.45,926.72v-14.17c0-1.4-.32-2.56-1.11-3.1v-.11l3.64-1.03v18.41c0,1.67.27,2.92.89,3.51v.11h-4.32v-.11c.62-.59.89-1.83.89-3.51Z"/>
    <path d="M29.99,926.72c0-2.94,1.97-3.94,4.86-4.91,1.7-.57,3.16-1.08,4.21-1.49-.08-1.86-.89-3.18-3.43-3.18-1.67,0-3.43.67-4.53,1.73l-.11-.05.41-2.59c1.16-.49,3.08-.89,4.72-.89,3.54,0,5.48,1.59,5.48,5.96v5.43c0,1.67.27,2.32.89,2.92v.11l-3.32,1.03v-1.89c-1.13,1.4-3.02,1.92-4.32,1.89-3-.05-4.86-1.67-4.86-4.05ZM39.06,925.86v-3.89l-2.43.97c-2.46.95-3.89,1.62-3.89,3.38s1.16,2.7,2.78,2.7c1.19,0,3.54-.92,3.54-3.16Z"/>
    <path d="M44.14,923.02c0-4.64,3.83-7.69,8.26-7.69,2.05,0,3.27.35,4.13.81l.32,2.67-.11.05c-.86-1-2.35-1.78-4.62-1.78-2.7,0-5.21,1.75-5.21,5.34,0,3.89,2.51,6.59,6.24,6.59,2.08,0,3.43-.73,4.62-2.08l.11.05c-.94,1.86-2.62,3.78-6.26,3.78-3.89,0-7.48-2.78-7.48-7.75Z"/>
    <path d="M59.96,926.72v-14.17c0-1.4-.32-2.56-1.11-3.1v-.11l3.64-1.03v13.6l3.56-3.51c1.21-1.21,1.65-2.21,1.65-2.65h3.73v.08c-.84.54-1.51,1.19-2.92,2.54l-3.73,3.56,5.4,5.75c1.13,1.19,2.05,2.21,2.48,2.56v.08h-4.21c0-.92-.84-1.94-1.48-2.65l-4.48-4.83v3.86c0,1.67.27,2.92.89,3.51v.11h-4.32v-.11c.62-.59.89-1.83.89-3.51Z"/>
    <path d="M80.69,926.91l.11-.14c1.54,1.46,3.64,2.27,5.86,2.27,2.83,0,5.16-2.02,5.16-5.32s-2.48-5.18-5.45-5.18c-1.35,0-2.59.32-3.59.86l-.05-.11,6.99-8.02h-2.89c-2.94,0-4.8.49-5.45,1.13l-.08-.05.7-2.97h12.42v.11l-6.37,7.21c4.45.24,6.86,3.27,6.86,6.83,0,4.05-3.08,7.23-7.45,7.23-2.86,0-5.59-1.65-6.75-3.86Z"/>
    <path d="M96.3,926.91l.11-.14c1.54,1.46,3.56,2.27,5.72,2.27,2.83,0,5.26-1.83,5.26-5.26s-2.38-5.24-5.56-5.24c-1.75,0-3.43.54-4.43,1.13l-.05-.11,1.62-10.18h10.77l.35,2.97-.08.05c-.65-.65-2.16-1.13-5.1-1.13h-3.51l-.92,5.61c.57-.19,1.75-.32,2.83-.32,4.16,0,7.15,2.73,7.15,7.07s-3.32,7.13-7.69,7.13c-2.86,0-5.32-1.65-6.48-3.86Z"/>
    <path d="M113.64,932.12v-12.55c0-1.4-.32-2.56-1.11-3.1v-.11l3.64-1.03v2.56c.76-1.27,2.65-2.56,4.83-2.56,4.26,0,6.45,3.56,6.45,7.64,0,4.35-2.86,7.8-7.07,7.8-2.02,0-3.54-.94-4.21-1.83v3.18c0,1.67.27,2.92.89,3.51v.11h-4.32v-.11c.62-.59.89-1.84.89-3.51ZM124.65,923.62c0-3.13-1.46-6.4-4.48-6.4-2.54,0-4.16,2.48-4.16,5.64s1.59,6.29,4.54,6.29c2.46,0,4.1-2.4,4.1-5.53Z"/>
    <path d="M131.1,926.67v-9.1h-2.35v-.11l4.78-4.72h.11v3.02h5.43v.11l-1.57,1.97c-.81-.24-2.59-.32-3.86-.35v8.67c0,1.75.51,2.86,2.32,2.86.76,0,1.94-.32,2.56-1.19l.08.03-.49,2.43c-.51.22-1.4.49-2.83.49-2.62,0-4.18-1.11-4.18-4.1Z"/>
  </g>
  <g>
    <path d="M13.91,1289.92l26.45-92.65h.61l32.11,64.06,31.65-64.06h.61l32.87,100.3c3.06,9.33,7.49,17.58,10.86,20.79v.61h-33.79c.61-5.35,0-11.77-2.14-19.11l-15.75-53.21-27.67,54.12h-.61l-26.91-52.14-13.3,50.3c-2.45,9.48-2.45,16.21-1.53,20.03H1.38v-.61c4.59-5.5,9.02-16.36,12.54-28.44Z"/>
    <path d="M155.64,1289.16v-31.04c0-7.95-1.53-14.52-5.96-17.58v-.61l27.98-5.96v53.82c0,13,3.52,19.72,13.46,19.72,8.71,0,17.58-8.41,17.58-23.24v-26.14c0-7.95-1.53-14.52-5.96-17.58v-.61l27.83-5.96v63.91c0,8.71,1.38,13.91,5.35,17.12v.61l-25.38,5.81v-13.61c-3.52,6.42-12.38,13.61-27.06,13.61-16.67,0-27.83-9.63-27.83-32.26Z"/>
    <path d="M244.77,1279.22c0-26.14,16.36-45.26,39.6-45.26,9.33,0,16.82,3.98,19.26,7.49v-23.09c0-7.95-1.53-14.53-5.96-17.58v-.61l27.83-5.96v103.66c0,8.71,1.38,13.91,5.35,17.12v.61l-25.69,5.81v-13.3c-3.21,7.34-13.3,13.3-24.77,13.3-23.39,0-35.62-19.57-35.62-42.2ZM305.01,1279.52c-.15-14.98-6.88-32.57-19.72-32.57-11.47,0-17.89,12.84-17.74,28.74.31,15.14,7.19,32.72,20.03,32.72,11.16,0,17.74-12.69,17.43-28.9Z"/>
    <path d="M353.02,1298.48v-49.23h-18.35v-.46l9.17-12.38h9.17v-11.31c0-22.02,17.74-30.88,33.18-30.88,10.55,0,17.12,1.68,22.17,3.67l18.35-3.67v104.27c0,9.48,1.22,16.51,4.74,19.88v.61h-31.5v-.61c3.52-3.36,4.74-10.4,4.74-19.88v-77.21c0-7.95-5.05-13-14.37-13-9.79,0-15.29,5.96-15.29,18.04v10.09h22.02v.61l-8.87,14.07c-2.75-.76-7.8-1.38-13.15-1.68v49.08c0,9.48,1.22,16.51,4.74,19.88v.61h-31.5v-.61c3.52-3.36,4.74-10.4,4.74-19.88Z"/>
    <path d="M438.94,1277.69c0-26.91,18.96-43.73,44.34-43.73s44.19,16.82,44.19,43.73-19.11,43.73-44.19,43.73-44.34-16.82-44.34-43.73ZM504.22,1279.37c-.31-14.98-7.64-32.41-22.17-32.41-13,0-20.18,12.38-19.88,28.74.46,15.14,7.95,32.72,22.63,32.72,12.69,0,19.88-12.54,19.42-29.05Z"/>
    <path d="M574.4,1237.02v-.61h29.97c-.46,4.13.92,9.94,4.13,18.5l9.94,27.37,9.94-27.37c2.91-7.95,4.43-14.52,3.98-18.5h22.63v.61c-2.75,2.91-6.88,8.72-10.09,16.21l-29.97,69.72h-.61l-22.63-52.44-23.09,52.44h-.46l-33.94-70.48c-3.36-6.57-7.64-13.3-9.94-15.44v-.61h32.57c-.46,4.13.46,9.94,4.13,18.5l11.47,27.98,12.08-29.36-.46-1.07c-3.06-6.57-7.19-13.15-9.63-15.44Z"/>
  </g>
  <g>
    <path d="M7.39,1164.84v-13.71c0-1.67-.3-2.92-.84-3.51v-.11h6.48c5.24,0,7.4,1.7,7.4,4.78,0,2.29-1.13,3.94-3.29,4.89,2.86.78,4.48,2.48,4.48,5.05,0,3.89-2.81,6.24-8.29,6.24h-6.78v-.11c.54-.59.84-1.83.84-3.51ZM17.35,1152.69c-.05-2.08-1.32-3.29-4.16-3.29h-3.05v7.1h1.38c4.29,0,5.88-1.21,5.83-3.81ZM18.54,1162.43c-.05-2.67-1.81-4.13-5.75-4.13h-2.65v8.26h3c3.54,0,5.45-1.19,5.4-4.13Z"/>
    <path d="M23.97,1161.17c0-4.86,3.62-7.72,7.75-7.72s7.72,2.86,7.72,7.72-3.64,7.72-7.72,7.72-7.75-2.86-7.75-7.72ZM36.63,1161.14c-.11-3.37-2.13-5.94-5.13-5.94s-4.83,2.56-4.72,5.94c.13,3.37,2.16,5.99,5.18,5.99s4.8-2.62,4.67-5.99Z"/>
    <path d="M42.11,1164.84v-14.17c0-1.4-.32-2.56-1.11-3.1v-.11l3.64-1.03v18.41c0,1.67.27,2.92.89,3.51v.11h-4.32v-.11c.62-.59.89-1.83.89-3.51Z"/>
    <path d="M47.92,1161.25c0-4.35,2.86-7.8,7.07-7.8,2.24,0,3.67,1.05,4.13,1.81v-4.59c0-1.4-.32-2.56-1.11-3.1v-.11l3.64-1.03v18.41c0,1.67.27,2.32.89,2.92v.11l-3.35,1.03v-2.56c-.65,1.38-2.54,2.56-4.72,2.56-4.26,0-6.56-3.56-6.56-7.64ZM59.36,1161.17c-.05-3.32-1.92-5.97-4.48-5.97s-4.27,2.65-4.16,5.97c.08,3.35,1.94,5.97,4.54,5.97s4.24-2.62,4.1-5.97Z"/>
    <path d="M71.87,1165.03l.11-.14c1.54,1.46,3.64,2.27,5.86,2.27,2.83,0,5.16-2.02,5.16-5.32s-2.48-5.18-5.45-5.18c-1.35,0-2.59.32-3.59.86l-.05-.11,6.99-8.02h-2.89c-2.94,0-4.8.49-5.45,1.13l-.08-.05.7-2.97h12.42v.11l-6.37,7.21c4.45.24,6.86,3.27,6.86,6.83,0,4.05-3.08,7.23-7.45,7.23-2.86,0-5.59-1.65-6.75-3.86Z"/>
    <path d="M87.47,1165.03l.11-.14c1.54,1.46,3.56,2.27,5.72,2.27,2.83,0,5.26-1.83,5.26-5.26s-2.38-5.24-5.56-5.24c-1.75,0-3.43.54-4.43,1.13l-.05-.11,1.62-10.18h10.77l.35,2.97-.08.05c-.65-.65-2.16-1.13-5.1-1.13h-3.51l-.92,5.61c.57-.19,1.75-.32,2.83-.32,4.16,0,7.15,2.73,7.15,7.07s-3.32,7.13-7.69,7.13c-2.86,0-5.32-1.65-6.48-3.86Z"/>
    <path d="M104.81,1170.23v-12.55c0-1.4-.32-2.56-1.11-3.1v-.11l3.64-1.03v2.56c.76-1.27,2.65-2.56,4.83-2.56,4.26,0,6.45,3.56,6.45,7.64,0,4.35-2.86,7.8-7.07,7.8-2.02,0-3.54-.94-4.21-1.83v3.18c0,1.67.27,2.92.89,3.51v.11h-4.32v-.11c.62-.59.89-1.84.89-3.51ZM115.82,1161.73c0-3.13-1.46-6.4-4.48-6.4-2.54,0-4.16,2.48-4.16,5.64s1.59,6.29,4.54,6.29c2.46,0,4.1-2.4,4.1-5.53Z"/>
    <path d="M122.27,1164.78v-9.1h-2.35v-.11l4.78-4.72h.11v3.02h5.43v.11l-1.57,1.97c-.81-.24-2.59-.32-3.86-.35v8.67c0,1.75.51,2.86,2.32,2.86.76,0,1.94-.32,2.56-1.19l.08.03-.49,2.43c-.51.22-1.4.49-2.83.49-2.62,0-4.18-1.11-4.18-4.1Z"/>
  </g>
  <g>
    <path d="M14.68,1528.16l25.99-92.04h.61l30.43,72.01,30.27-72.01h.61l31.96,99.69c2.9,9.17,7.03,17.43,10.24,20.79v.61h-24.46c.92-5.35.15-11.93-1.99-19.11l-19.57-64.83-28.29,65.9h-.61l-28.13-64.22-16.97,62.23c-2.45,9.17-2.14,15.9-1.07,20.03H2.6v-.61c4.59-5.35,8.71-16.36,12.08-28.44Z"/>
    <path d="M153.8,1528.01v-31.8c0-7.95-1.83-14.53-6.27-17.58v-.61l20.64-5.81v53.36c0,14.37,3.52,24,17.58,24,11.62,0,23.7-9.94,23.7-30.12v-23.24c0-7.95-1.83-14.53-6.27-17.58v-.61l20.64-5.81v64.52c0,9.48,1.53,13.15,5.05,16.51v.61l-18.81,5.81v-15.29c-3.82,7.8-15.29,15.29-28.29,15.29-18.5,0-27.98-9.94-27.98-31.65Z"/>
    <path d="M239.27,1516.39c0-24.62,16.21-44.19,40.06-44.19,12.69,0,20.79,5.96,23.39,10.24v-25.99c0-7.95-1.83-14.52-6.27-17.58v-.61l20.64-5.81v104.27c0,9.48,1.53,13.15,5.05,16.51v.61l-18.96,5.81v-14.52c-3.67,7.8-14.37,14.52-26.76,14.52-24.16,0-37.15-20.18-37.15-43.27ZM304.09,1515.93c-.31-18.81-10.86-33.79-25.38-33.79s-24.16,14.98-23.55,33.79c.46,18.96,11.01,33.79,25.69,33.79s24-14.83,23.24-33.79Z"/>
    <path d="M345.52,1536.72v-51.83h-18.04v-.46l7.8-9.79h10.24v-14.07c0-21.86,18.35-28.13,31.34-28.13,8.26,0,14.07,1.22,18.96,2.91l11.77-2.91v104.27c0,9.48,1.53,16.51,5.04,19.88v.61h-24.46v-.61c3.52-3.36,5.05-10.4,5.05-19.88v-80.88c0-6.73-3.82-13.45-15.44-13.45-10.55,0-17.89,6.27-17.89,18.19v14.07h23.55v.61l-8.87,11.16c-3.06-.92-8.71-1.53-14.68-1.83v52.14c0,9.48,1.53,16.51,5.05,19.88v.61h-24.46v-.61c3.52-3.36,5.04-10.4,5.04-19.88Z"/>
    <path d="M421.51,1515.93c0-27.52,20.49-43.73,43.88-43.73s43.73,16.21,43.73,43.73-20.64,43.73-43.73,43.73-43.88-16.21-43.88-43.73ZM493.21,1515.78c-.61-19.11-12.08-33.64-29.05-33.64s-27.37,14.52-26.76,33.64c.76,19.11,12.23,33.94,29.36,33.94s27.22-14.83,26.45-33.94Z"/>
    <path d="M551.46,1475.26v-.61h22.17c0,3.21.76,8.1,3.52,16.05l13.76,40.06,14.22-40.06c2.75-7.8,3.67-12.84,3.67-16.05h17.28v.61c-1.68,1.38-5.35,5.96-8.1,13l-28.59,72.93h-.46l-20.49-50.76-20.79,50.76h-.46l-32.41-72.93c-2.14-4.89-6.42-11.62-8.1-13v-.61h22.63c0,3.21.31,8.1,3.52,16.05l16.51,41.43,13.76-35.17-3.52-8.71c-1.99-4.89-6.42-11.62-8.1-13Z"/>
  </g>
  <g>
    <path d="M7.63,1401.7l4.59-16.25h.11l5.37,12.71,5.34-12.71h.11l5.64,17.6c.51,1.62,1.24,3.08,1.81,3.67v.11h-4.32c.16-.94.03-2.11-.35-3.37l-3.46-11.45-4.99,11.63h-.11l-4.97-11.34-3,10.99c-.43,1.62-.38,2.81-.19,3.54h-3.72v-.11c.81-.94,1.54-2.89,2.13-5.02Z"/>
    <path d="M31.26,1399.51c0-4.64,3.56-7.69,7.72-7.69,4.54,0,6.26,3.02,6.26,6.56h-11.17c-.03.19-.03.35-.03.54,0,3.89,2.51,6.59,6.24,6.59,2.08,0,3.81-.81,4.99-2.08l.11.05c-1.03,1.86-3,3.78-6.64,3.78-3.89,0-7.48-2.78-7.48-7.75ZM42.22,1396.57c-.16-1.59-1.38-3-3.43-3-1.92,0-3.62,1.05-4.35,3h7.77Z"/>
    <path d="M47.19,1399.62c0-4.35,2.86-7.8,7.07-7.8,2.24,0,3.67,1.05,4.13,1.81v-4.59c0-1.4-.32-2.56-1.11-3.1v-.11l3.64-1.03v18.41c0,1.67.27,2.32.89,2.92v.11l-3.35,1.03v-2.56c-.65,1.38-2.54,2.56-4.72,2.56-4.26,0-6.56-3.56-6.56-7.64ZM58.63,1399.54c-.05-3.32-1.92-5.97-4.48-5.97s-4.27,2.65-4.16,5.97c.08,3.35,1.94,5.97,4.54,5.97s4.24-2.62,4.1-5.97Z"/>
    <path d="M64.98,1403.21v-7.15c0-1.4-.32-2.56-1.11-3.1v-.11l3.64-1.03v11.39c0,1.67.27,2.92.89,3.51v.11h-4.32v-.11c.62-.59.89-1.83.89-3.51ZM64.25,1387.72c0-1.13.86-1.78,1.84-1.78s1.86.65,1.86,1.78-.89,1.81-1.86,1.81-1.84-.67-1.84-1.81Z"/>
    <path d="M71.73,1401.67v-5.62c0-1.4-.32-2.56-1.11-3.1v-.11l3.64-1.03v9.42c0,2.54.62,4.24,3.1,4.24,2.05,0,4.18-1.75,4.18-5.32v-4.1c0-1.4-.32-2.56-1.11-3.1v-.11l3.64-1.03v11.39c0,1.67.27,2.32.89,2.92v.11l-3.32,1.03v-2.7c-.67,1.38-2.7,2.7-4.99,2.7-3.27,0-4.94-1.75-4.94-5.59Z"/>
    <path d="M88.09,1403.21v-7.15c0-1.4-.32-2.56-1.11-3.1v-.11l3.64-1.03v2.54c.67-1.3,2.38-2.54,4.56-2.54s3.59.92,4.21,2.83c.76-1.43,2.56-2.86,4.94-2.83,3,.03,4.59,1.75,4.59,5.59v5.8c0,1.67.27,2.92.89,3.51v.11h-4.32v-.11c.62-.59.89-1.83.89-3.51v-5.37c0-2.54-.54-4.24-2.75-4.24-1.94,0-3.86,1.75-3.86,5.32v4.29c0,1.67.27,2.92.89,3.51v.11h-4.32v-.11c.62-.59.89-1.83.89-3.51v-5.37c0-2.54-.54-4.24-2.75-4.24-1.94,0-3.86,1.75-3.86,5.32v4.29c0,1.67.27,2.92.89,3.51v.11h-4.32v-.11c.62-.59.89-1.83.89-3.51Z"/>
    <path d="M119.09,1403.4l.11-.14c1.54,1.46,3.64,2.27,5.86,2.27,2.83,0,5.16-2.02,5.16-5.32s-2.48-5.18-5.45-5.18c-1.35,0-2.59.32-3.59.86l-.05-.11,6.99-8.02h-2.89c-2.94,0-4.8.49-5.45,1.13l-.08-.05.7-2.97h12.42v.11l-6.37,7.21c4.45.24,6.86,3.27,6.86,6.83,0,4.05-3.08,7.23-7.45,7.23-2.86,0-5.59-1.65-6.75-3.86Z"/>
    <path d="M134.69,1403.4l.11-.14c1.54,1.46,3.56,2.27,5.72,2.27,2.83,0,5.26-1.83,5.26-5.26s-2.38-5.24-5.56-5.24c-1.75,0-3.43.54-4.43,1.13l-.05-.11,1.62-10.18h10.77l.35,2.97-.08.05c-.65-.65-2.16-1.13-5.1-1.13h-3.51l-.92,5.61c.57-.19,1.75-.32,2.83-.32,4.16,0,7.15,2.73,7.15,7.07s-3.32,7.13-7.69,7.13c-2.86,0-5.32-1.65-6.48-3.86Z"/>
    <path d="M152.03,1408.61v-12.55c0-1.4-.32-2.56-1.11-3.1v-.11l3.64-1.03v2.56c.76-1.27,2.65-2.56,4.83-2.56,4.26,0,6.45,3.56,6.45,7.64,0,4.35-2.86,7.8-7.07,7.8-2.02,0-3.54-.94-4.21-1.83v3.18c0,1.67.27,2.92.89,3.51v.11h-4.32v-.11c.62-.59.89-1.84.89-3.51ZM163.04,1400.11c0-3.13-1.46-6.4-4.48-6.4-2.54,0-4.16,2.48-4.16,5.64s1.59,6.29,4.54,6.29c2.46,0,4.1-2.4,4.1-5.53Z"/>
    <path d="M169.5,1403.16v-9.1h-2.35v-.11l4.78-4.72h.11v3.02h5.43v.11l-1.57,1.97c-.81-.24-2.59-.32-3.86-.35v8.67c0,1.75.51,2.86,2.32,2.86.76,0,1.94-.32,2.56-1.19l.08.03-.49,2.43c-.51.22-1.4.49-2.83.49-2.62,0-4.18-1.11-4.18-4.1Z"/>
  </g>
  <g>
    <path d="M830.33,1051.55l26.91-93.26h.61l33.79,60.24,33.18-60.24h.61l33.79,100.91c3.06,9.17,7.8,17.74,11.31,20.79v.61h-43.12c.46-5.35-.15-11.62-2.29-19.11l-11.77-41.59-27.06,47.09h-.61l-25.69-44.64-9.79,38.22c-2.45,9.79-2.75,16.67-1.99,20.03h-30.88v-.61c4.59-5.5,9.48-16.36,13-28.44Z"/>
    <path d="M974.2,1039.62v-57.18c0-9.48-2.14-16.51-5.66-19.88v-.61h43.12v.61c-3.52,3.36-5.66,10.4-5.66,19.88v52.29c0,19.88,6.88,26.14,18.81,26.14,11.01,0,19.72-10.7,19.72-26.6v-51.83c0-9.48-2.14-16.51-5.66-19.88v-.61h43.12v.61c-3.52,3.36-5.66,10.4-5.66,19.88v77.67c0,9.48,2.14,16.51,5.66,19.88v.61h-37.15c.76-4.43.76-9.63.76-12.23-4.28,7.03-16.21,14.68-30.43,14.68-25.69,0-40.98-13-40.98-43.42Z"/>
    <path d="M1100.18,1060.11v-77.67c0-9.48-2.14-16.51-5.66-19.88v-.61h45.1c36.39,0,72.17,14.52,72.17,56.42s-34.25,62.23-73.69,62.23h-43.57v-.61c3.52-3.36,5.66-10.4,5.66-19.88ZM1177.24,1022.19c-.15-28.74-14.68-42.96-40.21-42.96h-5.04v84.09h5.5c23.85,0,39.91-12.69,39.75-41.13Z"/>
    <path d="M1227.38,1060.11v-77.67c0-9.48-2.14-16.51-5.66-19.88v-.61h75.99l3.36,25.38-.61.15c-5.96-4.43-13-5.96-23.24-5.96h-18.04v29.66h11.92c7.19,0,15.29-1.07,20.18-4.43l.61.15v26.14l-.61.15c-4.89-3.36-13-4.43-20.18-4.43h-11.92v31.34c0,9.48,2.14,16.51,5.66,19.88v.61h-43.12v-.61c3.52-3.36,5.66-10.4,5.66-19.88Z"/>
    <path d="M1316.82,1060.11v-77.67c0-9.48-2.14-16.51-5.66-19.88v-.61h43.12v.61c-3.52,3.36-5.66,10.4-5.66,19.88v78.59h16.97c13,0,27.06-2.14,33.02-7.64l.61.15-3.36,27.06h-84.7v-.61c3.52-3.36,5.66-10.4,5.66-19.88ZM1359.93,1002.77c0-26.14,18.65-43.27,44.03-43.27s44.03,17.12,44.03,43.27-18.65,43.27-44.03,43.27-44.03-17.28-44.03-43.27ZM1417.73,1006.75c0-15.14-3.21-32.41-15.29-32.41-8.1,0-12.23,9.02-12.23,24.16,0,16.67,3.67,32.57,15.44,32.57,8.1,0,12.08-9.17,12.08-24.31Z"/>
    <path d="M1444.02,962.56v-.61h46.02c-.92,5.2.31,12.08,4.13,21.86l14.98,38.07,15.29-36.08-2.29-5.2c-3.67-8.71-8.1-14.98-11.16-18.04v-.61h45.26c-.92,5.2.76,11.92,4.13,21.86l12.23,35.93,12.69-35.93c3.52-10.09,5.5-16.97,4.59-21.86h31.19v.61c-4.89,5.04-9.48,11.62-14.68,24l-39.9,96.48h-.61l-31.19-73.08-32.41,73.08h-.61l-45.56-102.44c-3.67-8.41-9.02-14.98-12.08-18.04Z"/>
  </g>
  <g>
    <path d="M824.72,926.72v-13.71c0-1.67-.3-2.92-.84-3.51v-.11h6.48c5.24,0,7.4,1.7,7.4,4.78,0,2.29-1.13,3.94-3.29,4.89,2.86.78,4.48,2.48,4.48,5.05,0,3.89-2.81,6.24-8.29,6.24h-6.78v-.11c.54-.59.84-1.83.84-3.51ZM834.68,914.58c-.05-2.08-1.32-3.29-4.16-3.29h-3.05v7.1h1.38c4.29,0,5.88-1.21,5.83-3.81ZM835.87,924.32c-.05-2.67-1.81-4.13-5.75-4.13h-2.65v8.26h3c3.54,0,5.45-1.19,5.4-4.13Z"/>
    <path d="M841.79,926.72v-14.17c0-1.4-.32-2.56-1.11-3.1v-.11l3.64-1.03v18.41c0,1.67.27,2.92.89,3.51v.11h-4.32v-.11c.62-.59.89-1.83.89-3.51Z"/>
    <path d="M847.32,926.72c0-2.94,1.97-3.94,4.86-4.91,1.7-.57,3.16-1.08,4.21-1.49-.08-1.86-.89-3.18-3.43-3.18-1.67,0-3.43.67-4.53,1.73l-.11-.05.41-2.59c1.16-.49,3.08-.89,4.72-.89,3.54,0,5.48,1.59,5.48,5.96v5.43c0,1.67.27,2.32.89,2.92v.11l-3.32,1.03v-1.89c-1.13,1.4-3.02,1.92-4.32,1.89-3-.05-4.86-1.67-4.86-4.05ZM856.39,925.86v-3.89l-2.43.97c-2.46.95-3.89,1.62-3.89,3.38s1.16,2.7,2.78,2.7c1.19,0,3.54-.92,3.54-3.16Z"/>
    <path d="M861.47,923.02c0-4.64,3.83-7.69,8.26-7.69,2.05,0,3.27.35,4.13.81l.32,2.67-.11.05c-.86-1-2.35-1.78-4.62-1.78-2.7,0-5.21,1.75-5.21,5.34,0,3.89,2.51,6.59,6.24,6.59,2.08,0,3.43-.73,4.62-2.08l.11.05c-.94,1.86-2.62,3.78-6.26,3.78-3.89,0-7.48-2.78-7.48-7.75Z"/>
    <path d="M877.29,926.72v-14.17c0-1.4-.32-2.56-1.11-3.1v-.11l3.64-1.03v13.6l3.56-3.51c1.21-1.21,1.65-2.21,1.65-2.65h3.73v.08c-.84.54-1.51,1.19-2.92,2.54l-3.73,3.56,5.4,5.75c1.13,1.19,2.05,2.21,2.48,2.56v.08h-4.21c0-.92-.84-1.94-1.48-2.65l-4.48-4.83v3.86c0,1.67.27,2.92.89,3.51v.11h-4.32v-.11c.62-.59.89-1.83.89-3.51Z"/>
    <path d="M898.03,926.91l.11-.14c1.54,1.46,3.64,2.27,5.86,2.27,2.83,0,5.16-2.02,5.16-5.32s-2.48-5.18-5.45-5.18c-1.35,0-2.59.32-3.59.86l-.05-.11,6.99-8.02h-2.89c-2.94,0-4.8.49-5.45,1.13l-.08-.05.7-2.97h12.42v.11l-6.37,7.21c4.45.24,6.86,3.27,6.86,6.83,0,4.05-3.08,7.23-7.45,7.23-2.86,0-5.59-1.65-6.75-3.86Z"/>
    <path d="M913.64,926.91l.11-.14c1.54,1.46,3.56,2.27,5.72,2.27,2.83,0,5.26-1.83,5.26-5.26s-2.38-5.24-5.56-5.24c-1.75,0-3.43.54-4.43,1.13l-.05-.11,1.62-10.18h10.77l.35,2.97-.08.05c-.65-.65-2.16-1.13-5.1-1.13h-3.51l-.92,5.61c.57-.19,1.75-.32,2.83-.32,4.16,0,7.15,2.73,7.15,7.07s-3.32,7.13-7.69,7.13c-2.86,0-5.32-1.65-6.48-3.86Z"/>
    <path d="M930.97,932.12v-12.55c0-1.4-.32-2.56-1.11-3.1v-.11l3.64-1.03v2.56c.76-1.27,2.65-2.56,4.83-2.56,4.26,0,6.45,3.56,6.45,7.64,0,4.35-2.86,7.8-7.07,7.8-2.02,0-3.54-.94-4.21-1.83v3.18c0,1.67.27,2.92.89,3.51v.11h-4.32v-.11c.62-.59.89-1.84.89-3.51ZM941.98,923.62c0-3.13-1.46-6.4-4.48-6.4-2.54,0-4.16,2.48-4.16,5.64s1.59,6.29,4.54,6.29c2.46,0,4.1-2.4,4.1-5.53Z"/>
    <path d="M948.44,926.67v-9.1h-2.35v-.11l4.78-4.72h.11v3.02h5.43v.11l-1.57,1.97c-.81-.24-2.59-.32-3.86-.35v8.67c0,1.75.51,2.86,2.32,2.86.76,0,1.94-.32,2.56-1.19l.08.03-.49,2.43c-.51.22-1.4.49-2.83.49-2.62,0-4.18-1.11-4.18-4.1Z"/>
  </g>
  <g>
    <path d="M831.25,1289.92l26.45-92.65h.61l32.11,64.06,31.65-64.06h.61l32.87,100.3c3.06,9.33,7.49,17.58,10.86,20.79v.61h-33.79c.61-5.35,0-11.77-2.14-19.11l-15.75-53.21-27.67,54.12h-.61l-26.91-52.14-13.3,50.3c-2.45,9.48-2.45,16.21-1.53,20.03h-25.99v-.61c4.59-5.5,9.02-16.36,12.54-28.44Z"/>
    <path d="M972.06,1278.91v-58.1c0-9.48-2.14-16.51-5.66-19.88v-.61h34.86v.61c-3.52,3.36-5.5,10.4-5.5,19.88v54.12c0,21.71,8.26,29.66,22.32,29.66,16.82,0,26.14-15.75,26.14-32.26v-51.52c0-9.48-1.99-16.51-5.5-19.88v-.61h34.86v.61c-3.52,3.36-5.66,10.4-5.66,19.88v77.67c0,9.48,2.14,16.51,5.66,19.88v.61h-29.2c.92-4.28,1.07-9.79,1.07-14.98-4.13,7.95-16.21,17.43-33.18,17.43-24,0-40.21-12.38-40.21-42.5Z"/>
    <path d="M1093.3,1298.48v-77.67c0-9.48-2.14-16.51-5.66-19.88v-.61h41.13c37.92,0,70.94,16.51,70.94,56.88s-32.26,61.77-73.24,61.77h-38.83v-.61c3.52-3.36,5.66-10.4,5.66-19.88ZM1173.72,1260.26c-.15-28.74-15.14-45.71-48.31-45.71h-8.41v90.21h8.1c31.5,0,48.77-16.05,48.62-44.49Z"/>
    <path d="M1216.83,1298.48v-77.67c0-9.48-2.14-16.51-5.66-19.88v-.61h71.86l2.91,20.79-.61.15c-5.35-4.28-14.37-5.81-25.53-5.81h-19.26v35.01h14.37c7.19,0,15.29-.76,20.18-4.13l.61.15v22.17l-.61.15c-4.89-3.36-13-4.28-20.18-4.28h-14.37v33.94c0,9.48,1.99,16.51,5.5,19.88v.61h-34.86v-.61c3.52-3.36,5.66-10.4,5.66-19.88Z"/>
    <path d="M1303.36,1298.48v-77.67c0-9.48-2.14-16.51-5.66-19.88v-.61h34.86v.61c-3.52,3.36-5.5,10.4-5.5,19.88v83.02h21.86c14.83,0,26.14-2.14,30.88-6.73l.61.15-2.75,21.71h-79.96v-.61c3.52-3.36,5.66-10.4,5.66-19.88ZM1339.9,1242.52c0-27.52,20.18-44.65,45.26-44.65s45.41,17.12,45.41,44.65-20.18,44.64-45.41,44.64-45.26-17.28-45.26-44.64ZM1407.18,1245.43c0-16.82-6.73-34.4-23.09-34.4-13.15,0-20.79,11.47-20.79,28.29,0,17.74,6.73,34.55,23.09,34.55,13.3,0,20.79-11.47,20.79-28.44Z"/>
    <path d="M1426.89,1200.93v-.61h35.78c-.46,4.74.46,11.47,4.43,21.86l19.88,51.37,17.58-45.41-3.67-9.17c-3.06-7.8-8.1-15.59-10.7-18.04v-.61h34.86c-.46,4.74.92,11.16,4.43,21.86l16.51,49.69,17.43-49.69c3.67-10.55,5.2-17.28,4.74-21.86h26.14v.61c-3.67,3.52-8.41,9.94-12.84,20.95l-39.14,99.53h-.61l-28.9-72.78-29.97,72.78h-.61l-43.73-102.44c-3.21-7.64-9.02-15.59-11.62-18.04Z"/>
  </g>
  <g>
    <path d="M824.72,1164.84v-13.71c0-1.67-.3-2.92-.84-3.51v-.11h6.48c5.24,0,7.4,1.7,7.4,4.78,0,2.29-1.13,3.94-3.29,4.89,2.86.78,4.48,2.48,4.48,5.05,0,3.89-2.81,6.24-8.29,6.24h-6.78v-.11c.54-.59.84-1.83.84-3.51ZM834.68,1152.69c-.05-2.08-1.32-3.29-4.16-3.29h-3.05v7.1h1.38c4.29,0,5.88-1.21,5.83-3.81ZM835.87,1162.43c-.05-2.67-1.81-4.13-5.75-4.13h-2.65v8.26h3c3.54,0,5.45-1.19,5.4-4.13Z"/>
    <path d="M841.3,1161.17c0-4.86,3.62-7.72,7.75-7.72s7.72,2.86,7.72,7.72-3.64,7.72-7.72,7.72-7.75-2.86-7.75-7.72ZM853.96,1161.14c-.11-3.37-2.13-5.94-5.13-5.94s-4.83,2.56-4.72,5.94c.13,3.37,2.16,5.99,5.18,5.99s4.8-2.62,4.67-5.99Z"/>
    <path d="M859.45,1164.84v-14.17c0-1.4-.32-2.56-1.11-3.1v-.11l3.64-1.03v18.41c0,1.67.27,2.92.89,3.51v.11h-4.32v-.11c.62-.59.89-1.83.89-3.51Z"/>
    <path d="M865.25,1161.25c0-4.35,2.86-7.8,7.07-7.8,2.24,0,3.67,1.05,4.13,1.81v-4.59c0-1.4-.32-2.56-1.11-3.1v-.11l3.64-1.03v18.41c0,1.67.27,2.32.89,2.92v.11l-3.35,1.03v-2.56c-.65,1.38-2.54,2.56-4.72,2.56-4.26,0-6.56-3.56-6.56-7.64ZM876.7,1161.17c-.05-3.32-1.92-5.97-4.48-5.97s-4.27,2.65-4.16,5.97c.08,3.35,1.94,5.97,4.54,5.97s4.24-2.62,4.1-5.97Z"/>
    <path d="M889.2,1165.03l.11-.14c1.54,1.46,3.64,2.27,5.86,2.27,2.83,0,5.16-2.02,5.16-5.32s-2.48-5.18-5.45-5.18c-1.35,0-2.59.32-3.59.86l-.05-.11,6.99-8.02h-2.89c-2.94,0-4.8.49-5.45,1.13l-.08-.05.7-2.97h12.42v.11l-6.37,7.21c4.45.24,6.86,3.27,6.86,6.83,0,4.05-3.08,7.23-7.45,7.23-2.86,0-5.59-1.65-6.75-3.86Z"/>
    <path d="M904.81,1165.03l.11-.14c1.54,1.46,3.56,2.27,5.72,2.27,2.83,0,5.26-1.83,5.26-5.26s-2.38-5.24-5.56-5.24c-1.75,0-3.43.54-4.43,1.13l-.05-.11,1.62-10.18h10.77l.35,2.97-.08.05c-.65-.65-2.16-1.13-5.1-1.13h-3.51l-.92,5.61c.57-.19,1.75-.32,2.83-.32,4.16,0,7.15,2.73,7.15,7.07s-3.32,7.13-7.69,7.13c-2.86,0-5.32-1.65-6.48-3.86Z"/>
    <path d="M922.14,1170.23v-12.55c0-1.4-.32-2.56-1.11-3.1v-.11l3.64-1.03v2.56c.76-1.27,2.65-2.56,4.83-2.56,4.26,0,6.45,3.56,6.45,7.64,0,4.35-2.86,7.8-7.07,7.8-2.02,0-3.54-.94-4.21-1.83v3.18c0,1.67.27,2.92.89,3.51v.11h-4.32v-.11c.62-.59.89-1.84.89-3.51ZM933.15,1161.73c0-3.13-1.46-6.4-4.48-6.4-2.54,0-4.16,2.48-4.16,5.64s1.59,6.29,4.54,6.29c2.46,0,4.1-2.4,4.1-5.53Z"/>
    <path d="M939.61,1164.78v-9.1h-2.35v-.11l4.78-4.72h.11v3.02h5.43v.11l-1.57,1.97c-.81-.24-2.59-.32-3.86-.35v8.67c0,1.75.51,2.86,2.32,2.86.76,0,1.94-.32,2.56-1.19l.08.03-.49,2.43c-.51.22-1.4.49-2.83.49-2.62,0-4.18-1.11-4.18-4.1Z"/>
  </g>
  <g>
    <path d="M832.01,1528.16l25.99-92.04h.61l30.43,72.01,30.27-72.01h.61l31.96,99.69c2.9,9.17,7.03,17.43,10.24,20.79v.61h-24.46c.92-5.35.15-11.93-1.99-19.11l-19.57-64.83-28.29,65.9h-.61l-28.13-64.22-16.97,62.23c-2.45,9.17-2.14,15.9-1.07,20.03h-21.1v-.61c4.59-5.35,8.71-16.36,12.08-28.44Z"/>
    <path d="M969.76,1518.22v-59.17c0-9.48-1.99-16.51-5.5-19.88v-.61h26.6v.61c-3.52,3.36-5.5,10.4-5.5,19.88v56.11c0,23.55,9.63,33.18,25.84,33.18,22.63,0,32.72-20.79,32.72-38.07v-51.22c0-9.48-1.99-16.51-5.5-19.88v-.61h26.6v.61c-3.52,3.36-5.5,10.4-5.5,19.88v77.67c0,9.48,1.99,16.51,5.5,19.88v.61h-21.1c1.07-4.13,1.22-9.79,1.22-17.58-3.82,8.56-16.05,20.03-35.93,20.03-22.32,0-39.45-11.62-39.45-41.43Z"/>
    <path d="M1086.11,1536.72v-77.67c0-9.48-1.99-16.51-5.5-19.88v-.61h37.15c39.45,0,69.57,18.5,69.57,57.33s-30.12,61.31-72.62,61.31h-34.1v-.61c3.52-3.36,5.5-10.4,5.5-19.88ZM1169.9,1498.35c-.15-28.74-15.6-48.62-56.26-48.62h-11.93v96.32h10.86c38.99,0,57.49-19.26,57.33-47.7Z"/>
    <path d="M1205.82,1536.72v-77.67c0-9.48-1.99-16.51-5.5-19.88v-.61h67.73l2.29,16.21-.61.15c-4.59-3.98-15.75-5.66-27.67-5.66h-20.64v40.52h16.97c7.19,0,15.29-.61,20.18-3.98l.61.15v18.19l-.61.15c-4.89-3.36-13-3.97-20.18-3.97h-16.97v36.39c0,9.48,1.99,16.51,5.5,19.88v.61h-26.6v-.61c3.52-3.36,5.5-10.4,5.5-19.88Z"/>
    <path d="M1289.45,1536.72v-77.67c0-9.48-1.99-16.51-5.5-19.88v-.61h26.6v.61c-3.52,3.36-5.5,10.4-5.5,19.88v87.46h26.76c16.67,0,25.23-2.14,28.9-5.81l.46.31-2.14,16.21h-75.07v-.61c3.52-3.36,5.5-10.4,5.5-19.88Z"/>
    <path d="M1362.38,1497.89c0-38.83,29.36-61.77,62.69-61.77s62.69,22.93,62.69,61.77-29.36,61.77-62.69,61.77-62.69-22.93-62.69-61.77ZM1470.32,1500.64c0-27.21-16.36-53.51-46.33-53.51-26.6,0-44.19,21.25-44.19,47.86s16.05,53.67,46.17,53.67c26.76,0,44.49-21.1,44.34-48.01Z"/>
    <path d="M1481.48,1439.18v-.61h25.53c0,4.43.76,10.85,4.89,21.86l24.62,64.83,19.88-54.89-4.89-13.15c-2.45-6.73-7.95-16.05-10.4-18.04v-.61h24.46c0,4.43,1.22,10.4,4.89,21.86l20.64,63.45,22.17-63.45c3.98-11.16,4.89-17.43,4.89-21.86h21.25v.61c-2.45,1.99-7.49,8.41-11.16,18.04l-38.38,102.44h-.61l-26.6-72.32-27.37,72.32h-.61l-42.05-102.44c-2.75-6.73-8.71-16.05-11.16-18.04Z"/>
  </g>
  <g>
    <path d="M824.97,1401.7l4.59-16.25h.11l5.37,12.71,5.34-12.71h.11l5.64,17.6c.51,1.62,1.24,3.08,1.81,3.67v.11h-4.32c.16-.94.03-2.11-.35-3.37l-3.46-11.45-4.99,11.63h-.11l-4.97-11.34-3,10.99c-.43,1.62-.38,2.81-.19,3.54h-3.72v-.11c.81-.94,1.54-2.89,2.13-5.02Z"/>
    <path d="M848.59,1399.51c0-4.64,3.56-7.69,7.72-7.69,4.54,0,6.26,3.02,6.26,6.56h-11.17c-.03.19-.03.35-.03.54,0,3.89,2.51,6.59,6.24,6.59,2.08,0,3.81-.81,4.99-2.08l.11.05c-1.03,1.86-3,3.78-6.64,3.78-3.89,0-7.48-2.78-7.48-7.75ZM859.55,1396.57c-.16-1.59-1.38-3-3.43-3-1.92,0-3.62,1.05-4.35,3h7.77Z"/>
    <path d="M864.52,1399.62c0-4.35,2.86-7.8,7.07-7.8,2.24,0,3.67,1.05,4.13,1.81v-4.59c0-1.4-.32-2.56-1.11-3.1v-.11l3.64-1.03v18.41c0,1.67.27,2.32.89,2.92v.11l-3.35,1.03v-2.56c-.65,1.38-2.54,2.56-4.72,2.56-4.26,0-6.56-3.56-6.56-7.64ZM875.97,1399.54c-.05-3.32-1.92-5.97-4.48-5.97s-4.27,2.65-4.16,5.97c.08,3.35,1.94,5.97,4.54,5.97s4.24-2.62,4.1-5.97Z"/>
    <path d="M882.31,1403.21v-7.15c0-1.4-.32-2.56-1.11-3.1v-.11l3.64-1.03v11.39c0,1.67.27,2.92.89,3.51v.11h-4.32v-.11c.62-.59.89-1.83.89-3.51ZM881.59,1387.72c0-1.13.86-1.78,1.84-1.78s1.86.65,1.86,1.78-.89,1.81-1.86,1.81-1.84-.67-1.84-1.81Z"/>
    <path d="M889.06,1401.67v-5.62c0-1.4-.32-2.56-1.11-3.1v-.11l3.64-1.03v9.42c0,2.54.62,4.24,3.1,4.24,2.05,0,4.18-1.75,4.18-5.32v-4.1c0-1.4-.32-2.56-1.11-3.1v-.11l3.64-1.03v11.39c0,1.67.27,2.32.89,2.92v.11l-3.32,1.03v-2.7c-.67,1.38-2.7,2.7-4.99,2.7-3.27,0-4.94-1.75-4.94-5.59Z"/>
    <path d="M905.43,1403.21v-7.15c0-1.4-.32-2.56-1.11-3.1v-.11l3.64-1.03v2.54c.67-1.3,2.38-2.54,4.56-2.54s3.59.92,4.21,2.83c.76-1.43,2.56-2.86,4.94-2.83,3,.03,4.59,1.75,4.59,5.59v5.8c0,1.67.27,2.92.89,3.51v.11h-4.32v-.11c.62-.59.89-1.83.89-3.51v-5.37c0-2.54-.54-4.24-2.75-4.24-1.94,0-3.86,1.75-3.86,5.32v4.29c0,1.67.27,2.92.89,3.51v.11h-4.32v-.11c.62-.59.89-1.83.89-3.51v-5.37c0-2.54-.54-4.24-2.75-4.24-1.94,0-3.86,1.75-3.86,5.32v4.29c0,1.67.27,2.92.89,3.51v.11h-4.32v-.11c.62-.59.89-1.83.89-3.51Z"/>
    <path d="M936.42,1403.4l.11-.14c1.54,1.46,3.64,2.27,5.86,2.27,2.83,0,5.16-2.02,5.16-5.32s-2.48-5.18-5.45-5.18c-1.35,0-2.59.32-3.59.86l-.05-.11,6.99-8.02h-2.89c-2.94,0-4.8.49-5.45,1.13l-.08-.05.7-2.97h12.42v.11l-6.37,7.21c4.45.24,6.86,3.27,6.86,6.83,0,4.05-3.08,7.23-7.45,7.23-2.86,0-5.59-1.65-6.75-3.86Z"/>
    <path d="M952.03,1403.4l.11-.14c1.54,1.46,3.56,2.27,5.72,2.27,2.83,0,5.26-1.83,5.26-5.26s-2.38-5.24-5.56-5.24c-1.75,0-3.43.54-4.43,1.13l-.05-.11,1.62-10.18h10.77l.35,2.97-.08.05c-.65-.65-2.16-1.13-5.1-1.13h-3.51l-.92,5.61c.57-.19,1.75-.32,2.83-.32,4.16,0,7.15,2.73,7.15,7.07s-3.32,7.13-7.69,7.13c-2.86,0-5.32-1.65-6.48-3.86Z"/>
    <path d="M969.36,1408.61v-12.55c0-1.4-.32-2.56-1.11-3.1v-.11l3.64-1.03v2.56c.76-1.27,2.65-2.56,4.83-2.56,4.26,0,6.45,3.56,6.45,7.64,0,4.35-2.86,7.8-7.07,7.8-2.02,0-3.54-.94-4.21-1.83v3.18c0,1.67.27,2.92.89,3.51v.11h-4.32v-.11c.62-.59.89-1.84.89-3.51ZM980.38,1400.11c0-3.13-1.46-6.4-4.48-6.4-2.54,0-4.16,2.48-4.16,5.64s1.59,6.29,4.54,6.29c2.46,0,4.1-2.4,4.1-5.53Z"/>
    <path d="M986.83,1403.16v-9.1h-2.35v-.11l4.78-4.72h.11v3.02h5.43v.11l-1.57,1.97c-.81-.24-2.59-.32-3.86-.35v8.67c0,1.75.51,2.86,2.32,2.86.76,0,1.94-.32,2.56-1.19l.08.03-.49,2.43c-.51.22-1.4.49-2.83.49-2.62,0-4.18-1.11-4.18-4.1Z"/>
  </g>
</svg>