<?xml version="1.0" encoding="UTF-8"?>
<svg id="Layer_1" xmlns="http://www.w3.org/2000/svg" version="1.1" viewBox="0 0 914.27 166.75">
  <!-- Generator: Adobe Illustrator 30.5.0, SVG Export Plug-In . SVG Version: 2.1.4 Build 167)  -->
  <defs>
    <style>
      .st0 {
        fill: #f0e4cf;
      }

      .st1 {
        fill: #2c1611;
      }
    </style>
  </defs>
  <g>
    <polygon class="st0" points="79.41 162.86 3.8 109.68 3.8 56.96 79.42 3.79 910.47 3.89 910.45 162.96 79.41 162.86"/>
    <path class="st1" d="M80.62,7.59l826.05.1-.02,151.47-826.05-.1L7.59,107.71v-48.77S80.62,7.59,80.62,7.59M78.22,0l-1.96,1.38L3.23,52.72,0,54.99v3.94S0,107.7,0,107.7v3.94s3.22,2.27,3.22,2.27l73.02,51.36,1.96,1.38h2.4s826.05.1,826.05.1h7.59s0-7.59,0-7.59l.02-151.47V.1s-7.59,0-7.59,0L80.63,0h-2.4Z"/>
  </g>
  <rect class="st1" x="693.18" y="23.08" width="5.06" height="119.69"/>
  <path class="st1" d="M78.1,112.35h-.54c-10.26-12.83-24.44-23.77-34.97-29.17,10.53-5.4,24.71-16.61,34.98-29.43h.54s0,17.15,0,17.15h46.86c11.07,0,18.1-1.34,22.42-4.99h.54v34.03h-.54c-4.32-3.65-11.34-5-22.42-5h-46.86s0,17.42,0,17.42Z"/>
  <g>
    <path class="st1" d="M187.54,109.1v-50.62c0-6.18-1.39-10.76-3.68-12.95v-.4h31.39c20.23,0,29.99,9.87,29.99,21.23,0,14.35-13.25,25.01-32.49,25.01h-4.48s0,17.74,0,17.74c0,6.18,1.39,10.76,3.68,12.95v.4h-28.1v-.4c2.29-2.19,3.69-6.77,3.69-12.95ZM223.71,67.85c-.2-7.77-4.48-11.46-13.55-11.46h-1.89s0,23.71,0,23.71h.4c8.97,0,15.25-2.69,15.05-12.25Z"/>
    <path class="st1" d="M253.8,109.11v-50.62c0-6.18-1.39-10.76-3.68-12.95v-.4h28.1v.4c-2.29,2.19-3.69,6.77-3.69,12.95v51.21s11.05,0,11.05,0c8.47,0,17.64-1.39,21.52-4.98l.4.1-2.19,17.64h-55.2v-.41c2.29-2.19,3.69-6.77,3.69-12.95Z"/>
    <path class="st1" d="M317.86,106.43l30.5-63.67h.4s33.57,67.56,33.57,67.56c2.69,5.48,5.88,9.76,7.87,11.76v.4h-29.1c.5-2.89.2-6.88-1.69-11.86h-29.19c-1.89,4.88-2.29,9.16-1.79,11.85h-19.93v-.4c3.49-4.28,6.28-9.27,9.37-15.64ZM354.03,98.16l-8.97-20.43-9.27,20.42h18.23Z"/>
    <path class="st1" d="M409.43,82.52v26.6c0,6.18,1.39,10.76,3.68,12.95v.4h-21.82v-.4c2.29-2.19,3.69-6.78,3.69-12.95V42.77h.41l51.01,42.25v-26.5c0-6.18-1.39-10.76-3.68-12.95v-.4h21.82v.4c-2.29,2.19-3.69,6.77-3.69,12.95v66.36h-.41l-51.01-42.35Z"/>
    <path class="st1" d="M480.37,109.14v-50.62c0-6.18-1.39-10.76-3.68-12.95v-.4h49.52s2.19,16.55,2.19,16.55l-.4.1c-3.89-2.89-8.47-3.89-15.14-3.89h-11.76s0,17.33,0,17.33h8.77c4.68,0,9.96-.7,13.15-2.89l.4.1v17.04s-.4.1-.4.1c-3.19-2.19-8.47-2.89-13.15-2.89h-8.77s0,23.02,0,23.02h8.57c8.47,0,17.64-1.39,21.52-4.98l.4.1-2.19,17.64h-52.71v-.41c2.29-2.19,3.69-6.77,3.69-12.95Z"/>
    <path class="st1" d="M560.98,109.15v-51.21s-8.46,0-8.46,0c-6.68,0-11.26,1-15.15,3.88l-.4-.1,2.19-16.54h64.67s2.19,16.55,2.19,16.55l-.4.1c-3.89-2.89-8.47-3.89-15.14-3.89h-8.77s0,51.21,0,51.21c0,6.18,1.39,10.76,3.68,12.95v.4h-28.1v-.4c2.29-2.19,3.69-6.78,3.69-12.95Z"/>
    <path class="st1" d="M611.89,118.62l-2.39-19.13.4-.1c6.87,7.47,16.44,11.26,23.61,11.26,6.68,0,11.56-1.69,11.56-7.67,0-4.28-3.29-7.37-11.16-11.06l-5.98-2.79c-12.75-5.98-17.63-12.46-17.63-22.52,0-14.45,12.86-23.01,29.7-23.01,8.07,0,16.14,1.7,20.13,3.99l2.29,17.34-.4.1c-4.18-4.98-12.35-9.07-20.62-9.07-6.38,0-10.56,2.49-10.56,6.58,0,3.49,1.2,4.98,8.27,8.17l10.26,4.68c11.16,5.08,17.93,11.96,17.93,23.62,0,18.23-14.85,25.01-32.09,25-8.67,0-18.04-2.59-23.32-5.38Z"/>
  </g>
  <g>
    <path class="st1" d="M823.33,61.64l.24-.3c2.98,2.8,7.21,4.23,10.54,4.23,7.62,0,11.02-4.35,11.02-9.77,0-5.78-4.53-9.06-10.13-9.06-2.32,0-4.65.59-6.25,1.19l-.12-.24,13.94-15.84h-8.88c-3.99,0-6.73.59-9.05,2.32l-.24-.06,2.26-9.89h32.88v.24l-13.88,15.78c8.64,1.61,12.63,7.51,12.63,15.25,0,8.94-7.51,15.9-18.35,15.9-8.28,0-14.06-4.89-16.62-9.77Z"/>
    <path class="st1" d="M867.52,62.48v-30.26c0-3.69-.83-6.43-2.2-7.75v-.24h29.61s1.31,9.89,1.31,9.89l-.24.06c-2.32-1.73-5.06-2.32-9.05-2.32h-7.03s0,11.56,0,11.56h4.65c2.8,0,5.96-.42,7.86-1.73l.24.06v10.19s-.24.06-.24.06c-1.91-1.31-5.06-1.73-7.86-1.73h-4.65s0,12.21,0,12.21c0,3.69.83,6.43,2.2,7.75v.24h-16.8v-.24c1.37-1.31,2.21-4.05,2.21-7.74Z"/>
  </g>
  <g>
    <path class="st1" d="M806.89,124.03c.67.29,1.34.58,2,.85-.64-.27-1.31-.55-2-.85Z"/>
    <path class="st1" d="M748.18,85.33c.23.22.47.45.71.67-.24-.23-.48-.45-.71-.67Z"/>
    <path class="st1" d="M803.18,124.88c.43.18.86.36,1.27.53,21.9,8.87,39.7,10.3,44.91,2.17,5.92-9.26-6.22-28.14-28.39-46.6-2.1-9.15-7.63-17.52-16.16-22.98-8.54-5.46-18.47-6.99-27.66-5.05-25.99-12.35-48.17-15.45-54.08-6.2-5.05,7.89,3.05,22.79,19.29,38.45.04.04.08.08.13.12.23.22.47.45.71.67,6.12,5.77,15.93,14.12,29.27,22.66,11.17,7.15,21.18,12.11,28.72,15.37.67.29,1.34.58,2,.85ZM769.08,55.65c-6.16,2.87-11.6,7.46-15.54,13.61-1.84,2.87-3.22,5.9-4.19,9.01-9.08-9.82-13.27-18.62-10.15-23.5,3.46-5.41,15.09-4.67,29.88.88ZM809.62,116.87c2.42-2.18,4.6-4.71,6.45-7.59,3.94-6.16,5.82-13.03,5.85-19.84,11.3,11.13,16.88,21.43,13.41,26.85-3.13,4.89-12.93,4.75-25.71.58Z"/>
    <path class="st1" d="M793.37,125.38c-9.45,2.24-19.75.8-28.58-4.85-8.83-5.65-14.46-14.42-16.38-23.95,9.72,9.12,21.34,16.3,21.34,16.3,0,0,11.3,7.49,23.61,12.5Z"/>
    <path class="st1" d="M748.06,85.21s.08.08.13.12c-.04-.04-.08-.08-.13-.12Z"/>
    <path class="st1" d="M810.16,125.41c-.42-.17-.85-.35-1.27-.53.43.18.86.36,1.27.53Z"/>
  </g>
</svg>