<?xml version="1.0" encoding="UTF-8"?>
<svg id="Layer_1" xmlns="http://www.w3.org/2000/svg" version="1.1" viewBox="0 0 972.79 166.78">
  <!-- Generator: Adobe Illustrator 30.5.0, SVG Export Plug-In . SVG Version: 2.1.4 Build 167)  -->
  <defs>
    <style>
      .st0 {
        fill: #f0e4cf;
      }

      .st1 {
        fill: #2c1611;
      }
    </style>
  </defs>
  <g>
    <polygon class="st1" points="3.79 162.86 3.79 3.8 893.38 3.93 968.99 57.1 968.99 109.81 893.38 162.99 3.79 162.86"/>
    <path class="st0" d="M7.59,7.59l884.59.13,73.02,51.35v48.77l-73.02,51.35-884.59-.13V7.59M0,0v166.65h7.59s884.59.13,884.59.13h2.4s1.96-1.38,1.96-1.38l73.02-51.35,3.22-2.27v-56.66l-3.22-2.27L896.54,1.51l-1.96-1.38h-2.4S7.59,0,7.59,0H0Z"/>
  </g>
  <rect class="st0" x="203.34" y="23.14" width="5.06" height="119.69"/>
  <path class="st0" d="M894.69,95.19h-46.86c-11.07,0-18.1,1.35-22.42,5h-.54v-34.03h.54c4.32,3.65,11.34,5,22.42,5h46.86v-17.15h.54c10.26,12.83,24.45,24.04,34.98,29.44-10.53,5.4-24.71,16.34-34.98,29.17h-.54v-17.42Z"/>
  <g>
    <path class="st0" d="M247.17,86.41c0-24.51,20.13-40.65,46.23-40.65,9.17,0,18.33,2.09,22.12,3.89l2.29,16.94-.4.1c-5.08-5.08-13.15-9.07-23.02-9.07-11.76,0-24.71,6.88-24.71,26.7,0,17.44,8.97,30.09,25.31,30.09.9,0,1.69,0,2.59-.1v-21.62c0-6.18-1.4-10.76-3.69-12.95v-.4h28.1v.4c-2.29,2.19-3.69,6.78-3.69,12.95v10.66c0,4.38.7,10.96,2.59,14.25v.4c-4.38,3.79-14.65,8.27-28.3,8.27-27.4,0-45.44-15.74-45.44-39.86Z"/>
    <path class="st0" d="M335.85,111.32v-50.62c0-6.18-1.4-10.76-3.69-12.95v-.4h49.52l2.19,16.54-.4.1c-3.89-2.89-8.47-3.89-15.15-3.89h-11.76v17.34h8.77c4.68,0,9.96-.7,13.15-2.89l.4.1v17.04l-.4.1c-3.19-2.19-8.47-2.89-13.15-2.89h-8.77v23.02h8.57c8.47,0,17.64-1.39,21.52-4.98l.4.1-2.19,17.64h-52.71v-.4c2.29-2.19,3.69-6.78,3.69-12.95Z"/>
    <path class="st0" d="M394.24,86.02c0-24.31,18.63-40.25,42.35-40.25s42.35,15.94,42.35,40.25-18.63,40.25-42.35,40.25-42.35-15.94-42.35-40.25ZM456.41,89.7c0-14.15-5.88-32.08-21.22-32.08-11.76,0-18.43,10.36-18.43,24.51,0,15.44,6.38,32.28,21.32,32.28,11.76,0,18.33-10.46,18.33-24.71Z"/>
    <path class="st0" d="M489.19,111.32v-50.62c0-6.18-1.4-10.76-3.69-12.95v-.4h28.1v.4c-2.29,2.19-3.69,6.78-3.69,12.95v51.21h11.06c8.47,0,17.64-1.39,21.52-4.98l.4.1-2.19,17.64h-55.2v-.4c2.29-2.19,3.69-6.78,3.69-12.95Z"/>
    <path class="st0" d="M546.18,86.02c0-24.31,18.63-40.25,42.35-40.25s42.35,15.94,42.35,40.25-18.63,40.25-42.35,40.25-42.35-15.94-42.35-40.25ZM608.36,89.7c0-14.15-5.88-32.08-21.22-32.08-11.76,0-18.43,10.36-18.43,24.51,0,15.44,6.38,32.28,21.32,32.28,11.76,0,18.33-10.46,18.33-24.71Z"/>
    <path class="st0" d="M637.55,86.41c0-24.51,20.13-40.65,46.23-40.65,9.17,0,18.33,2.09,22.12,3.89l2.29,16.94-.4.1c-5.08-5.08-13.15-9.07-23.02-9.07-11.76,0-24.71,6.88-24.71,26.7,0,17.44,8.97,30.09,25.31,30.09.9,0,1.69,0,2.59-.1v-21.62c0-6.18-1.4-10.76-3.69-12.95v-.4h28.1v.4c-2.29,2.19-3.69,6.78-3.69,12.95v10.66c0,4.38.7,10.96,2.59,14.25v.4c-4.38,3.79-14.65,8.27-28.3,8.27-27.4,0-45.44-15.74-45.44-39.86Z"/>
    <path class="st0" d="M741.97,111.32v-21.32l-19.23-29.29c-5.08-7.67-7.97-11.16-10.26-12.95v-.4h28.9c.1,2.19.9,6.48,5.28,13.35l9.27,14.55,9.07-14.55c4.48-7.17,5.78-10.76,5.78-13.35h20.92v.4c-2.19,1.79-5.58,4.98-10.76,12.95l-18.23,27.7v22.92c0,6.18,1.39,10.76,3.69,12.95v.4h-28.1v-.4c2.29-2.19,3.69-6.78,3.69-12.95Z"/>
  </g>
  <g>
    <path class="st0" d="M41.9,62.65v-1.91h-21.56v-.24L54.05,22.03h.24v31.87c2.8,0,5.96-.42,7.86-1.73l.24.06v10.19l-.24.06c-1.91-1.31-5.06-1.73-7.86-1.73v1.91c0,3.69.83,6.43,2.2,7.74v.24h-16.8v-.24c1.37-1.31,2.2-4.05,2.2-7.74ZM41.9,53.9v-9.77l-8.22,9.77h8.22Z"/>
    <path class="st0" d="M68.94,62.65v-30.26c0-3.69-.83-6.43-2.2-7.74v-.24h29.61l1.31,9.89-.24.06c-2.32-1.73-5.06-2.32-9.05-2.32h-7.03v11.56h4.65c2.8,0,5.96-.42,7.86-1.73l.24.06v10.19l-.24.06c-1.91-1.31-5.06-1.73-7.86-1.73h-4.65v12.21c0,3.69.83,6.43,2.2,7.74v.24h-16.8v-.24c1.37-1.31,2.2-4.05,2.2-7.74Z"/>
  </g>
  <g>
    <polygon class="st0" points="181.67 34.06 168.13 34.06 138.7 58.64 138.7 65.51 181.67 65.51 181.67 34.06"/>
    <polygon class="st0" points="138.7 72.05 110.31 93.89 110.31 100.75 181.67 100.75 181.67 69.3 138.7 72.05"/>
    <polygon class="st0" points="110.31 108.08 75.42 130.5 75.42 139.78 181.67 139.78 181.67 104.54 110.31 108.08"/>
  </g>
</svg>