<?xml version="1.0" encoding="UTF-8"?>
<svg id="Layer_1" xmlns="http://www.w3.org/2000/svg" version="1.1" viewBox="0 0 979.39 166.86">
  <!-- Generator: Adobe Illustrator 30.5.0, SVG Export Plug-In . SVG Version: 2.1.4 Build 167)  -->
  <defs>
    <style>
      .st0 {
        fill: #f0e4cf;
      }

      .st1 {
        fill: #2c1611;
      }
    </style>
  </defs>
  <g>
    <polygon class="st1" points="3.8 162.86 3.83 3.8 899.99 4 975.59 57.19 975.58 109.91 899.95 163.06 3.8 162.86"/>
    <path class="st0" d="M7.63,7.59l891.16.2,73.01,51.37v48.77s-73.05,51.33-73.05,51.33l-891.16-.2.03-151.47M.04,0v7.59S0,159.06,0,159.06v7.59s7.59,0,7.59,0l891.16.2h2.4s1.96-1.38,1.96-1.38l73.03-51.33,3.22-2.27v-3.94s.01-48.77.01-48.77v-3.94s-3.22-2.27-3.22-2.27L903.16,1.59l-1.96-1.38h-2.4S7.63,0,7.63,0H.04Z"/>
  </g>
  <rect class="st0" x="197.41" y="23.05" width="5.06" height="119.69"/>
  <path class="st0" d="M901.23,95.22h-46.86c-11.07-.01-18.1,1.33-22.42,4.98h-.54v-34.03h.55c4.32,3.65,11.34,5,22.42,5h46.86s0-17.14,0-17.14h.54c10.26,12.83,24.44,24.05,34.97,29.45-10.54,5.4-24.72,16.34-34.99,29.16h-.54v-17.42Z"/>
  <g>
    <path class="st0" d="M243.83,103.71l17.55-60.78h.4l22.01,39.26,21.63-39.25h.4s22,65.77,22,65.77c1.99,5.98,5.08,11.56,7.37,13.55v.4h-28.1c.3-3.49-.1-7.58-1.49-12.46l-7.67-27.1-17.64,30.68h-.4s-16.73-29.1-16.73-29.1l-6.38,24.91c-1.6,6.38-1.8,10.86-1.3,13.05h-20.13v-.4c2.99-3.59,6.18-10.66,8.47-18.53Z"/>
    <path class="st0" d="M346.46,109.31v-50.62c.01-6.18-1.38-10.76-3.67-12.95v-.4h28.1v.41c-2.29,2.19-3.69,6.77-3.69,12.95v50.62c-.01,6.18,1.38,10.76,3.67,12.95v.4h-28.1v-.41c2.29-2.19,3.69-6.77,3.69-12.95Z"/>
    <path class="st0" d="M401.17,82.72v26.6c0,6.18,1.39,10.76,3.68,12.95v.4h-21.82v-.4c2.29-2.19,3.69-6.77,3.69-12.95l.02-66.36h.4l51.01,42.26v-26.5c0-6.18-1.39-10.76-3.68-12.95v-.4h21.82v.4c-2.29,2.19-3.69,6.77-3.69,12.95l-.02,66.36h-.4l-51.01-42.36Z"/>
    <path class="st0" d="M472.1,109.34v-50.62c.01-6.18-1.38-10.76-3.67-12.95v-.4h49.52s2.19,16.55,2.19,16.55l-.4.1c-3.89-2.89-8.47-3.89-15.14-3.89h-11.76s0,17.33,0,17.33h8.77c4.68,0,9.96-.69,13.15-2.88l.4.1v17.04s-.4.1-.4.1c-3.19-2.19-8.47-2.89-13.15-2.89h-8.77s0,23.01,0,23.01h8.57c8.47,0,17.64-1.39,21.52-4.98l.4.1-2.2,17.64h-52.71v-.41c2.29-2.19,3.69-6.77,3.69-12.95Z"/>
    <path class="st0" d="M536.97,109.36v-50.62c.01-6.18-1.38-10.76-3.67-12.95v-.4h31.39c20.23.01,29.99,9.38,29.99,20.74,0,8.17-4.39,15.04-11.56,19.33l11.65,23.92c4.18,8.47,6.67,11.36,8.57,12.96v.4h-26.31c0-2.2-1.29-7.48-3.88-13.36l-8.46-18.83c-.9.1-1.59.1-2.49.1h-4.48s0,18.73,0,18.73c0,6.18,1.39,10.76,3.68,12.95v.4h-28.1v-.41c2.29-2.19,3.69-6.77,3.69-12.95ZM573.14,67.61c-.2-7.77-4.48-10.96-13.55-10.96h-1.89v22.72s.39,0,.39,0c8.97,0,15.25-2.19,15.05-11.75Z"/>
    <path class="st0" d="M614.19,106.68l30.5-63.66h.4l33.56,67.56c2.69,5.48,5.88,9.77,7.87,11.76v.4h-29.1c.5-2.9.2-6.88-1.69-11.86h-29.19c-1.89,4.88-2.29,9.16-1.8,11.85h-19.93v-.4c3.49-4.28,6.28-9.27,9.37-15.64ZM650.36,98.42l-8.96-20.43-9.27,20.42h18.23Z"/>
    <path class="st0" d="M697.28,109.39v-50.62c.01-6.18-1.38-10.76-3.67-12.95v-.4h28.1v.4c-2.29,2.19-3.69,6.78-3.69,12.95v51.21s11.05,0,11.05,0c8.47,0,17.64-1.39,21.52-4.98l.4.1-2.2,17.64h-55.2v-.41c2.29-2.19,3.69-6.77,3.69-12.95Z"/>
    <path class="st0" d="M759.35,118.87l-2.39-19.13.4-.1c6.87,7.47,16.44,11.26,23.61,11.26,6.68,0,11.56-1.69,11.56-7.67,0-4.28-3.29-7.37-11.16-11.06l-5.98-2.79c-12.75-5.98-17.63-12.46-17.63-22.52,0-14.45,12.86-23.01,29.7-23.01,8.07,0,16.14,1.7,20.13,3.99l2.29,17.34-.4.1c-4.18-4.98-12.35-9.07-20.62-9.07-6.38,0-10.56,2.49-10.56,6.57,0,3.49,1.19,4.98,8.27,8.17l10.26,4.68c11.16,5.08,17.93,11.96,17.93,23.62,0,18.23-14.85,25.01-32.09,25-8.67,0-18.04-2.59-23.31-5.39Z"/>
  </g>
  <g>
    <path class="st0" d="M42.55,38.29c0-4.53-2.26-7.39-7.33-7.39-5.54,0-9.59,3.21-11.98,6.13l-.18-.24c1.49-4.29,6.56-13.52,18.29-13.52,9.83,0,14.65,5.25,14.65,12.57,0,8.4-7.21,17.99-15.85,26.98h4.77c5.06,0,10.54-.83,12.87-2.97l.24.06-1.31,10.54H22.17v-.25c6.26-5.3,20.38-20.31,20.38-31.92Z"/>
    <path class="st0" d="M65.06,62.48v-30.26c0-3.69-.83-6.43-2.2-7.75v-.24h29.61s1.31,9.9,1.31,9.9l-.24.06c-2.32-1.73-5.06-2.33-9.05-2.33h-7.03s0,11.56,0,11.56h4.65c2.8,0,5.96-.42,7.86-1.72l.24.06v10.19s-.24.06-.24.06c-1.91-1.31-5.06-1.73-7.86-1.73h-4.65s0,12.21,0,12.21c0,3.69.83,6.43,2.2,7.74v.24h-16.8v-.24c1.37-1.31,2.21-4.05,2.21-7.74Z"/>
  </g>
  <g>
    <polygon class="st0" points="118.51 139.77 88.16 117.64 75.61 120.58 76.99 133.22 87.92 139.76 118.51 139.77"/>
    <polygon class="st0" points="127.02 139.77 115.33 87.44 97.31 73.13 90.49 93.19 105.43 139.76 127.02 139.77"/>
    <polygon class="st0" points="143.6 139.77 163.01 46.98 149.19 36.23 128.85 57.38 116.54 139.77 143.6 139.77"/>
    <polygon class="st0" points="138.26 139.77 150.59 100.44 168.11 88.79 172.78 107.59 159.46 139.78 138.26 139.77"/>
    <polygon class="st1" points="155.97 96.87 150.59 100.44 138.26 139.77 133.17 139.77 148.04 98.93 156.84 93.15 155.97 96.87"/>
    <polygon class="st1" points="119.66 118.98 116.54 139.77 111.56 139.77 118.66 115.07 119.66 118.98"/>
    <polygon class="st1" points="100.35 123.93 105.43 139.76 101.05 139.76 99.19 129.13 100.35 123.93"/>
  </g>
</svg>