<?xml version="1.0" encoding="UTF-8"?>
<svg id="Layer_1" xmlns="http://www.w3.org/2000/svg" version="1.1" viewBox="0 0 1101.52 166.71">
  <!-- Generator: Adobe Illustrator 30.6.0, SVG Export Plug-In . SVG Version: 2.1.4 Build 109)  -->
  <defs>
    <style>
      .st0 {
        fill: #f0e4cf;
      }

      .st1 {
        fill: #2c1611;
      }

      .st2 {
        fill: #25053d;
      }
    </style>
  </defs>
  <g>
    <polygon class="st0" points="79.42 162.91 3.8 109.74 3.8 57.02 79.41 3.85 1097.73 3.79 1097.74 162.86 80.62 162.91 79.42 162.91"/>
    <path class="st1" d="M1093.93,7.59v151.47l-1013.32.05L7.59,107.77v-48.77L80.61,7.64l1013.32-.05M1101.52,0h-7.59L80.61.05h-2.4l-1.96,1.38L3.22,52.79l-3.22,2.27v56.65l3.22,2.27,73.03,51.35,1.96,1.38h2.4l1013.32-.05h7.59V0h0Z"/>
  </g>
  <rect class="st2" x="888.86" y="23.02" width="4" height="119.69"/>
  <path class="st1" d="M78.15,112.55h-.54c-10.27-12.83-24.45-23.77-34.98-29.17,10.53-5.4,24.71-16.61,34.98-29.44h.54v17.15h46.86c11.07,0,18.1-1.35,22.42-5h.54v34.03h-.54c-4.32-3.65-11.34-5-22.42-5h-46.86v17.42h0Z"/>
  <g>
    <path class="st1" d="M199.81,109.21v-51.21h-8.47c-6.68,0-11.26,1-15.15,3.89l-.4-.1,2.19-16.54h64.67l2.19,16.54-.4.1c-3.89-2.89-8.47-3.89-15.15-3.88h-8.77v51.21c0,6.18,1.4,10.76,3.69,12.95v.4h-28.1v-.4c2.29-2.19,3.69-6.78,3.69-12.95h0Z"/>
    <path class="st1" d="M253.57,109.2v-50.62c0-6.18-1.4-10.76-3.69-12.95v-.4h28.1v.4c-2.29,2.19-3.69,6.78-3.69,12.95v16.54h25.31v-16.54c0-6.18-1.4-10.76-3.69-12.95v-.4h28.1v.4c-2.29,2.19-3.69,6.78-3.69,12.95v50.62c0,6.18,1.4,10.76,3.69,12.95v.4h-28.1v-.4c2.29-2.19,3.69-6.78,3.69-12.95v-21.32h-25.31v21.32c0,6.18,1.4,10.76,3.69,12.95v.4h-28.1v-.4c2.29-2.19,3.69-6.78,3.69-12.95Z"/>
    <path class="st1" d="M337.86,109.2v-50.62c0-6.18-1.4-10.76-3.69-12.95v-.4h49.52l2.19,16.54-.4.1c-3.89-2.89-8.47-3.89-15.15-3.89h-11.76v17.34h8.77c4.68,0,9.96-.7,13.15-2.89l.4.1v17.04l-.4.1c-3.19-2.19-8.47-2.89-13.15-2.89h-8.77v23.02h8.57c8.47,0,17.64-1.4,21.52-4.98l.4.1-2.19,17.64h-52.71v-.4c2.29-2.19,3.69-6.78,3.69-12.95h.01Z"/>
    <path class="st1" d="M399.14,109.2v-50.62c0-6.18-1.4-10.76-3.69-12.95v-.4h31.39c20.23,0,29.99,9.36,29.99,20.72,0,8.17-4.38,15.05-11.56,19.33l11.66,23.91c4.19,8.47,6.68,11.36,8.57,12.95v.4h-26.31c0-2.19-1.29-7.47-3.89-13.35l-8.47-18.83c-.9.1-1.59.1-2.49.1h-4.48v18.73c0,6.18,1.4,10.76,3.69,12.95v.4h-28.1v-.4c2.29-2.19,3.69-6.78,3.69-12.95h0ZM435.31,67.45c-.2-7.77-4.48-10.96-13.55-10.96h-1.89v22.72h.4c8.97,0,15.25-2.19,15.04-11.76Z"/>
    <path class="st1" d="M465.3,83.88c0-24.31,18.63-40.26,42.34-40.26s42.35,15.94,42.35,40.25-18.63,40.25-42.34,40.26c-23.71,0-42.35-15.94-42.35-40.25ZM527.48,87.57c0-14.15-5.88-32.08-21.22-32.08-11.76,0-18.43,10.36-18.43,24.51,0,15.44,6.38,32.28,21.32,32.28,11.76,0,18.33-10.46,18.33-24.71Z"/>
    <path class="st1" d="M560.26,109.19v-50.62c0-6.18-1.4-10.76-3.69-12.95v-.4h31.39c20.23,0,29.99,9.86,29.99,21.22,0,14.35-13.25,25.01-32.48,25.01h-4.48v17.74c0,6.18,1.4,10.76,3.69,12.95v.4h-28.1v-.4c2.29-2.19,3.69-6.78,3.69-12.95h-.01ZM596.43,67.94c-.2-7.77-4.48-11.46-13.55-11.46h-1.89v23.71h.4c8.97,0,15.25-2.69,15.04-12.26h0Z"/>
    <path class="st1" d="M623.03,83.88c0-24.31,18.63-40.26,42.34-40.26s42.35,15.94,42.35,40.25-18.63,40.25-42.34,40.26-42.35-15.94-42.35-40.25ZM685.2,87.56c0-14.15-5.88-32.08-21.22-32.08-11.76,0-18.43,10.36-18.43,24.51,0,15.44,6.38,32.28,21.32,32.28,11.76,0,18.33-10.46,18.33-24.71h0Z"/>
    <path class="st1" d="M720.87,109.18v-50.62c0-6.18-1.4-10.76-3.69-12.95v-.4h29.39c23.71,0,47.03,9.46,47.03,36.76s-22.32,40.55-48.03,40.56h-28.4v-.4c2.29-2.19,3.69-6.78,3.69-12.95h.01ZM771.09,84.47c-.1-18.73-9.57-28-26.21-28h-3.29v54.8h3.59c15.54,0,26.01-8.27,25.91-26.8Z"/>
    <path class="st1" d="M803.28,118.64l-2.39-19.13.4-.1c6.88,7.47,16.44,11.26,23.61,11.26,6.68,0,11.56-1.69,11.56-7.67,0-4.28-3.29-7.37-11.16-11.06l-5.98-2.79c-12.75-5.98-17.64-12.45-17.64-22.52,0-14.45,12.85-23.02,29.69-23.02,8.07,0,16.14,1.69,20.13,3.98l2.29,17.34-.4.1c-4.18-4.98-12.35-9.07-20.62-9.07-6.38,0-10.56,2.49-10.56,6.58,0,3.49,1.2,4.98,8.27,8.17l10.26,4.68c11.16,5.08,17.94,11.96,17.94,23.61,0,18.23-14.85,25.01-32.08,25.01-8.67,0-18.04-2.59-23.32-5.38h0Z"/>
  </g>
  <g>
    <path class="st1" d="M1028.7,62.55v-27.58c0-3.22-.66-5.36-3.4-6.61v-.24l15.79-4.77v39.2c0,3.69.84,6.43,2.21,7.74v.24h-16.8v-.24c1.37-1.31,2.2-4.05,2.2-7.74h0Z"/>
    <path class="st1" d="M1051.63,62.55v-30.26c0-3.69-.84-6.43-2.21-7.74v-.24h29.61l1.31,9.89-.24.06c-2.32-1.73-5.06-2.32-9.05-2.32h-7.03v11.56h4.65c2.8,0,5.96-.42,7.86-1.73l.24.06v10.19l-.24.06c-1.91-1.31-5.06-1.73-7.86-1.73h-4.65v12.21c0,3.69.83,6.43,2.21,7.74v.24h-16.8v-.24c1.37-1.31,2.2-4.05,2.2-7.74h0Z"/>
  </g>
  <g>
    <g>
      <path class="st1" d="M945.44,121.1c-4.67-3.09-5.8-7.39-5.85-7.57l-.08-.31.08-.31c.85-3.47,5.54-6.03,7.62-7.02-.89-4.97-3.62-11.31-3.65-11.38l-1.09-2.52,15.31,4.73v12.49c0,1.02-.23,1.98-.67,2.79-1.68,3.13-5.21,3.22-5.61,3.22h-3.85c-.21.03-.42.12-.54.2-.09.06-.13.1-.14.12-.48.71.15,2.39.73,3.3l.52.83-1.88,2.01-.89-.59h-.01Z"/>
      <path class="st0" d="M944.72,94.02l11.79,3.64v11.56c0,.76-.16,1.52-.52,2.19-1.36,2.52-4.36,2.55-4.5,2.55h-3.86c-.54.05-.93.22-1.2.38-.21.13-.39.29-.53.49-1.17,1.73.71,4.68.71,4.68l-.48.52c-4.32-2.85-5.32-6.83-5.32-6.83.91-3.72,7.79-6.56,7.79-6.56-.71-5.3-3.89-12.64-3.89-12.64M940.21,89.98l2.18,5.04c.03.06,2.38,5.53,3.38,10.17-2.53,1.3-6.55,3.88-7.42,7.42l-.15.61.15.61c.05.2,1.3,4.96,6.38,8.32l1.78,1.18,1.46-1.56.48-.52,1.34-1.43-1.06-1.66c-.31-.5-.58-1.2-.67-1.66h3.42c.47-.01,4.69-.12,6.72-3.9.54-1,.82-2.17.82-3.39v-13.43l-1.78-.55-11.79-3.64-5.25-1.62h0Z"/>
    </g>
    <g>
      <path class="st1" d="M964.76,142.47l-1.49-1.05.5-.98c1.78-3.48,4.84-4,6.51-4,.32,0,.61.02.85.04.84-1.18,1.67-3.16,1.98-3.99,0-.05.01-.09.02-.14.03-.38-.1-.78-.36-1.13-.45-.6-1.13-1.14-1.49-1.41-.3-.22-.6-.45-.88-.69-6.03-5.13-7.12-12.29-7.16-12.6-2.39-13.61,9.1-27.19,9.59-27.76l.64-.75,19.75,9.92-11.94,23.12,4.25,10.78-4.26,10.84h-10.24l-.3-.17c-.87-.51-1.7-.76-2.49-.76-1.18,0-1.87.59-1.9.61l-.75.65-.83-.56v.03Z"/>
      <path class="st0" d="M973.78,89.61l17.72,8.9-11.62,22.5,4.28,10.86-3.76,9.58h-9.03c-1.2-.7-2.25-.94-3.12-.94-1.74,0-2.75.94-2.75.94l-.59-.42c1.44-2.81,3.86-3.31,5.38-3.31.81,0,1.37.14,1.37.14,1.39-1.47,2.67-4.99,2.67-4.99.03-.13.05-.27.06-.4.06-.71-.18-1.42-.61-1.99-.55-.73-1.32-1.35-1.75-1.67-.28-.21-.55-.41-.82-.63-5.74-4.88-6.73-11.81-6.73-11.81-2.32-13.22,9.3-26.75,9.3-26.75M973.14,86.46l-1.29,1.5c-.51.59-12.34,14.59-9.87,28.81.11.72,1.39,8.06,7.59,13.33.32.27.63.5.95.74.51.38.97.81,1.23,1.15.06.08.1.17.1.23-.34.88-.87,2.08-1.39,2.97h-.19c-3.33,0-6.11,1.71-7.64,4.68l-1,1.95,1.79,1.27.59.42,1.82,1.28,1.34-1.46c.12-.08.49-.29,1.06-.29s1.18.2,1.85.59l.59.35h11.44l.63-1.6,3.76-9.58.36-.93-.37-.93-3.86-9.79,11.09-21.48,1.17-2.27-2.29-1.15-17.72-8.9-1.77-.89h.03Z"/>
    </g>
    <g>
      <path class="st1" d="M985.85,142.06l-1.49-1.05.5-.98c1.78-3.48,4.84-3.99,6.51-3.99.32,0,.61.02.85.04.84-1.18,1.67-3.15,1.98-3.99,0-.05.01-.09.02-.14.03-.38-.1-.78-.36-1.13-.45-.6-1.13-1.14-1.49-1.41-.3-.22-.6-.45-.88-.69-6.03-5.13-7.12-12.29-7.17-12.6-1.31-7.46,1.55-14.91,4.48-20.21-7.69,10.17-6.63,20.68-6.61,20.81l.18,1.62-1.62-.23c-5.75-.81-9.52-4.79-9.68-4.96l-.31-.34-.02-.46c-.13-2.47-.44-4.9-.8-7.02v4.03c0,1.01-.23,1.98-.67,2.79-1.68,3.13-5.21,3.22-5.61,3.22h-3.85c-.22.03-.42.12-.54.2-.09.06-.13.11-.14.12-.48.71.15,2.39.73,3.3l.52.83-1.88,2.01-.89-.59c-4.67-3.09-5.8-7.39-5.85-7.57l-.08-.31.08-.31c.85-3.47,5.54-6.03,7.62-7.02-.29-1.63-.78-3.4-1.31-5.06.1,1.63.09,2.72.08,2.81l-.04,2.49-1.99-1.5c-5.91-4.47-11.38-9.78-14.11-12.55-.51-.51-.99-1.05-1.47-1.59l-.34-.38c-1.78-1.98-4.13-2.27-5.38-2.27-.54,0-.88.05-.88.06l-9.75,1.41c-.32.04-.61.06-.87.06-1.22,0-2.08-.35-2.35-.47-3.13-1.24-5.53-5.27-5.93-5.97-.9-1.28-1.23-2.6-.99-3.93.4-2.16,2.19-3.41,2.39-3.54,13.31-9.67,19.65-10.72,21.76-10.72.32,0,.54.02.68.04,4.9.34,9.99,4.43,11.96,6.18,1.09.97,2.03,1.73,2.95,2.39,3.9,2.78,7.83,4.4,11.67,4.81.45.05.91.07,1.37.07,1.6,0,3.24-.29,4.86-.86,4.06-1.42,8.61-2.14,13.51-2.14,3.81,0,6.38.45,6.48.47,44.63,8.43,66.65,18.26,67.33,30.04.85,14.78-33.68,25.7-35.15,26.16l-1.06.33-1.45-3.12,1.22-.5c6.07-2.5,22.05-10.24,23.1-15.99.18-.99-.15-1.85-1.05-2.68-2-1.87-7.42-3.07-13.82-3.07-7.99,0-15.71,1.84-20.15,4.81l-2.95,1.97,2.62-8.58-7.97,15.43,4.25,10.78-4.26,10.84h-10.24l-.3-.17c-.87-.51-1.7-.76-2.49-.76-1.18,0-1.87.59-1.9.61l-.75.65-.83-.56.02.03Z"/>
      <path class="st0" d="M938.19,66.18c.36,0,.53.04.53.04,4.56.28,9.48,4.28,11.27,5.87.98.87,1.99,1.71,3.06,2.47,4.88,3.48,9.16,4.71,12.27,5.04.5.05,1.01.08,1.51.08,1.79,0,3.58-.33,5.28-.93,4.72-1.65,9.48-2.07,13.09-2.07s6.26.45,6.26.45c127.38,24.06,32.02,53.74,32.02,53.74l-.43-.92s30.99-12.76,22.44-20.77c-2.35-2.2-8.16-3.42-14.69-3.42-7.38,0-15.67,1.56-20.85,5.02l3.77-12.34-1.13-.36-11.62,22.5,4.28,10.86-3.76,9.58h-9.03c-1.2-.7-2.25-.94-3.12-.94-1.74,0-2.75.94-2.75.94l-.59-.42c1.44-2.81,3.86-3.31,5.38-3.31.81,0,1.37.14,1.37.14,1.4-1.47,2.67-4.99,2.67-4.99.03-.13.05-.27.06-.4.06-.71-.18-1.42-.61-1.99-.55-.73-1.32-1.35-1.75-1.67-.28-.21-.55-.41-.82-.63-5.74-4.88-6.73-11.81-6.73-11.81-2.32-13.22,9.3-26.75,9.3-26.75h-1.4c-14.35,12.1-12.54,27.67-12.54,27.67-5.38-.76-8.93-4.57-8.93-4.57-.38-7.36-2.37-14.29-2.37-14.29l-.96-.2v11.56c0,.76-.16,1.52-.52,2.19-1.36,2.52-4.36,2.55-4.5,2.55h-3.86c-.54.05-.93.22-1.2.38-.21.13-.39.29-.53.49-1.17,1.73.71,4.68.71,4.68l-.48.52c-4.32-2.85-5.32-6.83-5.32-6.83.91-3.72,7.79-6.56,7.79-6.56-.71-5.3-3.89-12.64-3.89-12.64l-1.06-.24c1.13,4.98,1.06,9.85,1.06,9.85-5.99-4.52-11.57-9.99-13.97-12.43-.61-.62-1.18-1.27-1.76-1.92-2.1-2.33-4.83-2.69-6.32-2.69-.67,0-1.09.07-1.09.07l-9.72,1.4c-.24.03-.48.04-.69.04-1.13,0-1.84-.36-1.84-.36-2.93-1.13-5.37-5.49-5.37-5.49-2.44-3.42,1.03-5.74,1.03-5.74,13.3-9.66,19.35-10.51,21.05-10.51M938.19,63.65h0c-2.77,0-9.38,1.43-22.52,10.97-.43.3-2.41,1.8-2.87,4.33-.21,1.14-.17,2.89,1.16,4.83.51.89,3.08,5.08,6.51,6.46.41.18,1.43.57,2.84.57.34,0,.68-.02,1.02-.07l9.76-1.41h.08s.26-.05.66-.05c1.04,0,2.99.24,4.44,1.85l.33.37c.48.54.98,1.09,1.51,1.63,2.75,2.79,8.27,8.15,14.25,12.67l.76.57c-2.31,1.44-4.92,3.62-5.6,6.39l-.15.61.15.61c.05.2,1.3,4.96,6.38,8.32l1.78,1.18,1.46-1.56.48-.52,1.34-1.43-1.06-1.66c-.31-.5-.58-1.2-.67-1.66h3.4c.43-.01,4-.1,6.16-3l.34.36c.17.18,4.24,4.47,10.43,5.35l3.25.46-.1-.83c.88,2.78,2.82,7.19,6.94,10.69.32.27.63.5.95.74.51.38.97.81,1.23,1.15.06.08.1.17.1.23-.34.88-.87,2.08-1.39,2.97h-.19c-3.33,0-6.11,1.71-7.64,4.68l-1,1.95,1.79,1.27.59.42,1.82,1.28,1.34-1.46c.12-.08.49-.29,1.06-.29s1.18.2,1.85.59l.59.35h11.44l.63-1.6,3.76-9.58.36-.93-.37-.93-3.86-9.79,2.17-4.2,5.44-3.64c4.24-2.84,11.69-4.6,19.45-4.6,6.93,0,11.5,1.37,12.96,2.73.75.7.73,1.16.67,1.53-.16.85-1.42,4.06-11.17,9.58-5.59,3.16-11.11,5.45-11.16,5.47l-2.45,1.01,1.12,2.4.43.92.93,2,2.11-.66c3.78-1.18,36.93-11.95,36.04-27.44-.35-6.07-5.57-11.44-15.97-16.42-11.22-5.37-28.84-10.35-52.37-14.79-.14-.02-2.81-.49-6.73-.49-5.05,0-9.73.74-13.93,2.21-1.49.52-2.99.79-4.44.79-.42,0-.83-.02-1.24-.07-2.5-.27-6.44-1.28-11.07-4.58-.88-.63-1.79-1.36-2.85-2.3-2.56-2.27-7.58-6.12-12.66-6.49-.2-.03-.47-.05-.81-.05h0Z"/>
    </g>
  </g>
</svg>