<?xml version="1.0" encoding="UTF-8"?>
<svg id="Layer_1" xmlns="http://www.w3.org/2000/svg" version="1.1" viewBox="0 0 1101.53 166.65">
  <!-- Generator: Adobe Illustrator 30.5.0, SVG Export Plug-In . SVG Version: 2.1.4 Build 167)  -->
  <defs>
    <style>
      .st0 {
        fill: #f0e4cf;
      }

      .st1 {
        fill: #2c1611;
      }
    </style>
  </defs>
  <g>
    <polygon class="st1" points="3.79 162.86 3.79 3.79 1022.11 3.79 1097.73 56.97 1097.73 109.68 1022.11 162.86 7.59 162.86 3.79 162.86"/>
    <path class="st0" d="M1020.91,7.59l73.02,51.35v48.77l-73.02,51.35H7.59S7.59,7.59,7.59,7.59h1013.32M1023.31,0H7.59S0,0,0,0v166.65h7.59s1013.32,0,1013.32,0h2.4l1.96-1.38,73.02-51.35,3.22-2.27v-56.66l-3.22-2.27L1025.28,1.38l-1.96-1.38h0Z"/>
  </g>
  <rect class="st0" x="192.62" y="23.01" width="5.06" height="119.69"/>
  <path class="st0" d="M1019.56,96.92h-53.08c-12.54,0-20.5,1.53-25.39,5.66h-.61v-38.55h.61c4.9,4.13,12.85,5.66,25.39,5.66h53.08v-19.43h.61c11.63,14.53,27.69,27.23,39.62,33.35-11.93,6.12-27.99,18.51-39.62,33.04h-.61v-19.73Z"/>
  <g>
    <path class="st0" d="M235.87,118.51l-2.39-19.13.4-.1c6.88,7.47,16.44,11.26,23.61,11.26,6.68,0,11.56-1.69,11.56-7.67,0-4.28-3.29-7.37-11.16-11.06l-5.98-2.79c-12.75-5.98-17.64-12.46-17.64-22.52,0-14.45,12.85-23.02,29.69-23.02,8.07,0,16.14,1.69,20.13,3.99l2.29,17.34-.4.1c-4.18-4.98-12.35-9.07-20.62-9.07-6.38,0-10.56,2.49-10.56,6.58,0,3.49,1.2,4.98,8.27,8.17l10.26,4.68c11.16,5.08,17.94,11.96,17.94,23.62,0,18.23-14.85,25.01-32.08,25.01-8.67,0-18.04-2.59-23.32-5.38Z"/>
    <path class="st0" d="M301.13,106.36l30.49-63.67h.4l33.58,67.56c2.69,5.48,5.88,9.76,7.87,11.76v.4h-29.1c.5-2.89.2-6.88-1.69-11.86h-29.19c-1.89,4.88-2.29,9.17-1.79,11.86h-19.93v-.4c3.49-4.28,6.28-9.27,9.37-15.64ZM337.3,98.09l-8.97-20.43-9.27,20.43h18.23Z"/>
    <path class="st0" d="M375.26,95.7v-37.27c0-6.18-1.39-10.76-3.69-12.95v-.4h28.1v.4c-2.29,2.19-3.69,6.78-3.69,12.95v34.08c0,12.95,4.48,17.04,12.26,17.04,7.17,0,12.85-6.97,12.85-17.34v-33.78c0-6.18-1.4-10.76-3.69-12.95v-.4h28.1v.4c-2.29,2.19-3.69,6.78-3.69,12.95v50.62c0,6.18,1.4,10.76,3.69,12.95v.4h-24.21c.5-2.89.5-6.28.5-7.97-2.79,4.58-10.56,9.56-19.83,9.56-16.74,0-26.7-8.47-26.7-28.3Z"/>
    <path class="st0" d="M457.36,109.05v-50.62c0-6.18-1.4-10.76-3.69-12.95v-.4h31.39c20.23,0,29.99,9.37,29.99,20.72,0,8.17-4.38,15.05-11.56,19.33l11.66,23.91c4.18,8.47,6.68,11.36,8.57,12.95v.4h-26.31c0-2.19-1.29-7.47-3.89-13.35l-8.47-18.83c-.9.1-1.59.1-2.49.1h-4.48v18.73c0,6.18,1.4,10.76,3.69,12.95v.4h-28.1v-.4c2.29-2.19,3.69-6.78,3.69-12.95ZM493.53,67.3c-.2-7.77-4.48-10.96-13.55-10.96h-1.89v22.72h.4c8.97,0,15.25-2.19,15.05-11.76Z"/>
    <path class="st0" d="M522.53,83.74c0-24.31,18.63-40.25,42.35-40.25s42.35,15.94,42.35,40.25-18.63,40.25-42.35,40.25-42.35-15.94-42.35-40.25ZM584.7,87.43c0-14.15-5.88-32.08-21.22-32.08-11.76,0-18.43,10.36-18.43,24.51,0,15.44,6.38,32.28,21.32,32.28,11.76,0,18.33-10.46,18.33-24.71Z"/>
    <path class="st0" d="M618.38,109.05v-50.62c0-6.18-1.4-10.76-3.69-12.95v-.4h31.39c20.23,0,29.99,9.86,29.99,21.22,0,14.35-13.25,25.01-32.48,25.01h-4.48v17.74c0,6.18,1.4,10.76,3.69,12.95v.4h-28.1v-.4c2.29-2.19,3.69-6.78,3.69-12.95ZM654.55,67.8c-.2-7.77-4.48-11.46-13.55-11.46h-1.89v23.71h.4c8.97,0,15.25-2.69,15.05-12.26Z"/>
    <path class="st0" d="M681.15,83.74c0-24.31,18.63-40.25,42.35-40.25s42.35,15.94,42.35,40.25-18.63,40.25-42.35,40.25-42.35-15.94-42.35-40.25ZM743.32,87.43c0-14.15-5.88-32.08-21.22-32.08-11.76,0-18.43,10.36-18.43,24.51,0,15.44,6.38,32.28,21.32,32.28,11.76,0,18.33-10.46,18.33-24.71Z"/>
    <path class="st0" d="M777,109.05v-50.62c0-6.18-1.4-10.76-3.69-12.95v-.4h29.39c23.71,0,47.03,9.47,47.03,36.77s-22.32,40.55-48.03,40.55h-28.4v-.4c2.29-2.19,3.69-6.78,3.69-12.95ZM827.22,84.34c-.1-18.73-9.57-28-26.21-28h-3.29v54.8h3.59c15.54,0,26.01-8.27,25.91-26.8Z"/>
    <path class="st0" d="M857.41,118.51l-2.39-19.13.4-.1c6.88,7.47,16.44,11.26,23.61,11.26,6.68,0,11.56-1.69,11.56-7.67,0-4.28-3.29-7.37-11.16-11.06l-5.98-2.79c-12.75-5.98-17.64-12.46-17.64-22.52,0-14.45,12.85-23.02,29.69-23.02,8.07,0,16.14,1.69,20.13,3.99l2.29,17.34-.4.1c-4.18-4.98-12.35-9.07-20.62-9.07-6.38,0-10.56,2.49-10.56,6.58,0,3.49,1.2,4.98,8.27,8.17l10.26,4.68c11.16,5.08,17.94,11.96,17.94,23.62,0,18.23-14.85,25.01-32.08,25.01-8.67,0-18.04-2.59-23.32-5.38Z"/>
  </g>
  <g>
    <path class="st0" d="M22.09,47.63c0-14.65,12.03-24.3,27.64-24.3,5.48,0,10.96,1.25,13.22,2.32l1.37,10.13-.24.06c-3.04-3.04-7.86-5.42-13.76-5.42-7.03,0-14.77,4.11-14.77,15.96,0,10.42,5.36,17.99,15.13,17.99.54,0,1.01,0,1.55-.06v-12.93c0-3.69-.83-6.43-2.2-7.74v-.24h16.8v.24c-1.37,1.31-2.2,4.05-2.2,7.74v6.37c0,2.62.42,6.55,1.55,8.52v.24c-2.62,2.26-8.76,4.94-16.92,4.94-16.38,0-27.16-9.41-27.16-23.83Z"/>
    <path class="st0" d="M76.3,62.52v-30.26c0-3.69-.83-6.43-2.2-7.74v-.24h29.61l1.31,9.89-.24.06c-2.32-1.73-5.06-2.32-9.05-2.32h-7.03v11.56h4.65c2.8,0,5.96-.42,7.86-1.73l.24.06v10.19l-.24.06c-1.91-1.31-5.06-1.73-7.86-1.73h-4.65v12.21c0,3.69.83,6.43,2.2,7.74v.24h-16.8v-.24c1.37-1.31,2.2-4.05,2.2-7.74Z"/>
  </g>
  <g>
    <g>
      <path class="st0" d="M116.16,143.81c-.05-.05-.08-.06-.15-.06-.2,0-.45.13-.54.19l-.32.21h-.4s-6.69.01-6.69.01l-2.71-7.16,7.54-18.97,11.41,4.02-7.47,17.31c1,.66,1.57,1.96,1.78,3.12l.16.87-1.92,1.12-.69-.65Z"/>
      <path class="st1" d="M113.62,119.63l8.98,3.16-7.52,17.43c.11-.02.21-.03.3-.03,1.53,0,1.98,2.51,1.98,2.51l-.33.19c-.32-.31-.68-.41-1.02-.41-.68,0-1.26.41-1.26.41h-5.82l-2.23-5.88,6.91-17.38M112.16,116.44l-.9,2.26-6.91,17.38-.36.91.35.92,2.23,5.88.62,1.63h8.49l.18-.16.81.77,1.64-.95.33-.19,1.54-.89-.32-1.75c-.21-1.17-.72-2.35-1.51-3.22l6.58-15.24,1.07-2.49-2.56-.9-8.98-3.16-2.29-.81h0Z"/>
    </g>
    <g>
      <path class="st0" d="M99.99,143.7s-.04-.04-.04-.04c0,.02-.17.11-.27.2l-.35.29h-.48s-7.68.01-7.68.01l-3.73-20.78,10.54.54,2.38,15.48c1.3.35,1.98,1.82,2.18,3.11l.13.85-2.01,1.16-.68-.83Z"/>
      <path class="st1" d="M88.98,124.73l7.92.4,2.4,15.56c.18-.07.34-.11.49-.11,1.2,0,1.52,2.11,1.52,2.11l-.33.19c-.3-.36-.63-.48-.95-.48-.63,0-1.17.48-1.17.48h-6.62l-3.26-18.17M85.93,122.04l.56,3.14,3.26,18.17.37,2.08h9.66l.61.73,1.85-1.08.33-.19,1.49-.86-.26-1.7c-.23-1.53-1-3.06-2.28-3.81l-2.12-13.77-.31-2.04-2.06-.1-7.92-.4-3.18-.16h0Z"/>
    </g>
    <g>
      <path class="st0" d="M90.9,143.7s0,0-.01,0c-.06,0-.21.08-.3.15l-.35.29h-.48s-6.26.01-6.26.01l-1.71-6.81,7.34-12.32.17-5.02-.48,2.29-1.46-.71c-14.58-7.12-27.68-10.73-38.91-10.73-12.43,0-18.06,4.57-18.11,4.62l-1.13.94-1.76-2.88.59-.7c5.6-6.58,20.87-10.25,29.76-11.11,2.31-.22,4.62-.39,6.86-.55,6.64-.48,12.91-.94,18.87-2.73,6.29-1.89,11.29-5.42,16.12-8.82,7.13-5.03,14.51-10.23,26.07-10.35,4.23-3,9.66-16.08,11.43-20.98,8.09-23.51,17.85-32.07,24.61-35.11,1.26-.57,2.61-.86,4.01-.86,2.04,0,4.01.61,5.71,1.78l2.12,1.45c1.23.84,1.6,2.45.88,3.74l-.71,1.27c-.5.9-1.45,1.46-2.47,1.46-.1,0-.2,0-.3-.02h-.09s-1.58-.42-1.58-.42c-.49-.13-.99-.19-1.5-.19-1.84,0-3.59.87-4.68,2.32-7.19,9.55-9.92,27.05-12.32,42.49-1.92,12.36-3.58,23.03-7.16,28.71l-1.54,2.45-.75-2.8s-.75-2.65-3.02-5.72c3.65,8.79,2.84,20.48,2.68,22.37l4.84,17.78c1.48.39,2.29,2.03,2.55,3.46l.16.87-1.92,1.12-.69-.65c-.05-.05-.08-.06-.15-.06-.2,0-.45.13-.54.19l-.32.21h-.4s-9.84.01-9.84.01l-7.59-22.1-2.23-9.88.35,11.07-.74.36c-.35.17-8.69,4.13-17.95,4.13-.57,0-1.15-.02-1.72-.05l-1.44-.08.27-1.42s.41-2.69-1.18-9.03c.29,6.54-1.1,8.93-1.31,9.25l-8.99,13.53c.68.63,1.08,1.63,1.24,2.54l.15.87-2.03,1.17-.68-.83Z"/>
      <path class="st1" d="M165.79,23.59c1.75,0,3.5.53,4.99,1.55l2.12,1.45c.68.46.89,1.37.49,2.08l-.71,1.27c-.28.5-.8.81-1.37.81-.05,0-.11,0-.16,0l-1.49-.39c-.6-.16-1.21-.23-1.81-.23-2.2,0-4.33,1.01-5.69,2.82-13,17.26-11.59,58.66-19.54,71.29,0,0-1.63-6.07-7.83-10.85h-1.46c8.4,7.96,6.46,27.94,6.46,27.94l5.14,18.88c.11-.02.21-.03.3-.03,1.53,0,1.98,2.51,1.98,2.51l-.33.19c-.32-.31-.69-.41-1.02-.41-.68,0-1.26.41-1.26.41h-8.94l-7.27-21.18-3.88-17.21-1.06.62.55,17.34s-8.32,4-17.4,4c-.55,0-1.1-.01-1.65-.05,0,0,.89-4.72-3.48-17.01h-1.13c2.25,12.56-.18,16.31-.18,16.31l-9.95,14.97c.17-.07.33-.11.47-.11,1.17,0,1.53,2.11,1.53,2.11l-.33.19c-.3-.36-.63-.48-.95-.48-.63,0-1.17.48-1.17.48h-5.27l-1.34-5.34,7.24-12.15.49-14.2-1.14.64-1.81,8.61c-17.2-8.4-30.18-10.86-39.47-10.86-13.14,0-18.93,4.92-18.93,4.92l-.52-.85c4.87-5.73,18.88-9.7,28.92-10.67,9-.87,17.8-.87,25.97-3.33,15.91-4.78,22.98-19.12,42.21-19.12,5.59-3.41,12.24-21.81,12.24-21.81,8.17-23.75,18-31.72,23.94-34.39,1.12-.5,2.3-.74,3.49-.74M165.79,21.06c-1.58,0-3.1.33-4.53.97-6.99,3.14-17.05,11.91-25.3,35.87-2.33,6.44-7.17,17.26-10.66,20.11-11.71.23-19.16,5.49-26.37,10.57-4.97,3.5-9.66,6.81-15.76,8.65-5.83,1.75-12.03,2.2-18.59,2.68-2.25.16-4.57.33-6.9.56-9.1.88-24.76,4.68-30.61,11.55l-1.19,1.39.95,1.56.52.85,1.54,2.53,2.26-1.92s5.41-4.31,17.28-4.31c11.05,0,23.95,3.57,38.36,10.6l1.12.54-.05,1.39-6.91,11.6-.53.9.25,1.01,1.34,5.34.48,1.91h8.16l.61.73,1.85-1.08.33-.19,1.52-.88-.3-1.74c-.14-.81-.44-1.67-.91-2.4l8.44-12.71-.31,1.62,2.88.16c.59.03,1.19.05,1.79.05,9.55,0,18.14-4.08,18.5-4.25l1.42-.68,6.75,19.65.59,1.71h11.67l.18-.16.81.77,1.64-.95.33-.19,1.53-.89-.32-1.75c-.31-1.7-1.24-3.41-2.74-4.18l-4.62-16.96c.12-1.49.39-6.09-.16-11.42l2.58-4.09c3.71-5.9,5.39-16.7,7.34-29.19,2.38-15.3,5.08-32.63,12.08-41.93.86-1.14,2.23-1.81,3.67-1.81.4,0,.79.05,1.18.15l1.49.39.18.05.19.02c.14.02.29.02.43.02,1.48,0,2.85-.81,3.58-2.11l.71-1.27c1.05-1.87.5-4.19-1.27-5.4l-2.12-1.45c-1.91-1.31-4.13-2-6.42-2h0Z"/>
    </g>
  </g>
</svg>