<?xml version="1.0" encoding="UTF-8"?>
<svg id="Layer_1" xmlns="http://www.w3.org/2000/svg" version="1.1" viewBox="0 0 2323.35 517.3">
  <!-- Generator: Adobe Illustrator 30.5.0, SVG Export Plug-In . SVG Version: 2.1.4 Build 167)  -->
  <defs>
    <style>
      .st0 {
        opacity: .6;
      }
    </style>
  </defs>
  <rect x="92.2" y="343.67" width="2147.83" height="2.81"/>
  <rect x="92.2" y="5.88" width="2147.83" height="2.81"/>
  <rect x="92.2" y="109.47" width="2147.83" height="2.81"/>
  <g>
    <path d="M586.77,504.65v-18.37c0-2.24-.47-3.91-1.3-4.7v-.15h6.29v.15c-.83.8-1.3,2.46-1.3,4.7v20.69h6.33c3.94,0,5.97-.51,6.83-1.37l.11.07-.51,3.83h-17.76v-.14c.83-.8,1.3-2.46,1.3-4.7Z"/>
    <path d="M606.4,504.65v-9.58c0-1.88-.43-3.44-1.48-4.16v-.14l4.88-1.37v15.26c0,2.24.36,3.91,1.19,4.7v.14h-5.79v-.14c.83-.8,1.19-2.46,1.19-4.7ZM605.43,483.89c0-1.52,1.16-2.39,2.46-2.39s2.5.87,2.5,2.39-1.19,2.42-2.5,2.42-2.46-.9-2.46-2.42Z"/>
    <path d="M614.79,504.65v-9.58c0-1.88-.43-3.44-1.48-4.16v-.14l4.88-1.37v3.4c.9-1.74,3.65-3.4,6.73-3.4,4.38,0,6.62,2.35,6.62,7.49v7.78c0,2.24.36,3.91,1.19,4.7v.14h-5.79v-.14c.83-.8,1.19-2.46,1.19-4.7v-7.2c0-3.4-.83-5.68-4.16-5.68-2.75,0-5.79,2.35-5.79,7.12v5.75c0,2.24.36,3.91,1.19,4.7v.14h-5.79v-.14c.83-.8,1.19-2.46,1.19-4.7Z"/>
    <path d="M636.17,504.65v-9.58c0-1.88-.43-3.44-1.48-4.16v-.14l4.88-1.37v15.26c0,2.24.36,3.91,1.19,4.7v.14h-5.79v-.14c.83-.8,1.19-2.46,1.19-4.7ZM635.19,483.89c0-1.52,1.16-2.39,2.46-2.39s2.5.87,2.5,2.39-1.19,2.42-2.5,2.42-2.46-.9-2.46-2.42Z"/>
    <path d="M644.55,504.65v-9.58c0-1.88-.43-3.44-1.48-4.16v-.14l4.88-1.37v3.4c.9-1.74,3.65-3.4,6.73-3.4,4.38,0,6.62,2.35,6.62,7.49v7.78c0,2.24.36,3.91,1.19,4.7v.14h-5.79v-.14c.83-.8,1.19-2.46,1.19-4.7v-7.2c0-3.4-.83-5.68-4.16-5.68-2.75,0-5.79,2.35-5.79,7.12v5.75c0,2.24.36,3.91,1.19,4.7v.14h-5.79v-.14c.83-.8,1.19-2.46,1.19-4.7Z"/>
    <path d="M664.7,511.95c0-2.06,1.63-3.8,3.54-4.63-1.84-.47-2.71-1.59-2.71-2.89,0-1.63,1.48-2.57,2.86-2.97-2.03-1.12-3.29-3-3.29-5.42,0-4.16,3.62-6.65,8.28-6.65,1.3,0,2.5.18,3.62.58h8.32v.15l-2.1,2.64c-.83-.25-1.81-.36-2.82-.43.76.98,1.23,2.28,1.23,3.73,0,4.09-3.65,6.58-8.25,6.58-.94,0-1.84-.11-2.64-.29-1.05.14-1.88.61-1.88,1.34,0,.94.98,1.3,3.18,1.45l4.41.33c4.12.29,7.27,1.92,7.27,4.99,0,3.72-3.98,6.87-10.31,6.87-4.19,0-8.72-1.7-8.72-5.35ZM680.1,511.05c0-1.59-1.19-2.89-4.85-3.15l-3.15-.22c-1.88.07-3.83,1.63-3.83,3.72,0,2.53,2.64,3.51,5.71,3.54,3.76.04,6.11-1.74,6.11-3.91ZM678.11,496c-.18-2.6-2.06-4.52-4.92-4.52s-4.67,1.92-4.59,4.52c.07,2.6,2.06,4.52,4.92,4.52s4.77-1.92,4.59-4.52Z"/>
  </g>
  <g>
    <path d="M.26,18.58C.26,10.15,6.43,5.14,14.3,5.14c2.97,0,5.77.73,6.86,1.32l.56,3.86-.13.07c-1.62-1.68-3.99-2.9-7.38-2.87-5.8,0-10.18,4.38-10.18,10.38,0,6.43,3.99,11.5,10.91,11.5,3.59,0,6.23-1.48,7.75-3.53l.13.03-.96,4.19c-1.25.82-3.92,1.68-7.22,1.68C7.22,31.77.26,27.22.26,18.58Z"/>
    <path d="M24.53,26.82c0-3.59,2.41-4.81,5.93-6,2.08-.69,3.86-1.32,5.14-1.81-.1-2.27-1.09-3.89-4.19-3.89-2.04,0-4.19.82-5.54,2.11l-.13-.07.49-3.16c1.42-.59,3.76-1.09,5.77-1.09,4.32,0,6.69,1.94,6.69,7.28v6.62c0,2.04.33,2.83,1.09,3.56v.13l-4.05,1.25v-2.31c-1.38,1.71-3.69,2.34-5.27,2.31-3.66-.07-5.93-2.04-5.93-4.94ZM35.6,25.77v-4.75l-2.97,1.19c-3,1.15-4.75,1.98-4.75,4.12s1.42,3.3,3.39,3.3c1.45,0,4.32-1.12,4.32-3.86Z"/>
    <path d="M42.75,33.42v-15.33c0-1.71-.4-3.13-1.35-3.79v-.13l4.45-1.25v3.13c.92-1.55,3.23-3.13,5.9-3.13,5.21,0,7.88,4.35,7.88,9.33,0,5.31-3.49,9.53-8.64,9.53-2.47,0-4.32-1.15-5.14-2.24v3.89c0,2.04.33,3.56,1.09,4.28v.13h-5.27v-.13c.76-.73,1.09-2.24,1.09-4.28ZM56.2,23.03c0-3.82-1.78-7.81-5.47-7.81-3.1,0-5.08,3.03-5.08,6.89s1.94,7.68,5.54,7.68c3,0,5.01-2.93,5.01-6.76Z"/>
  </g>
  <path d="M3.56,117.68l5.67-8.64-5.44-8.11c-1.68-2.5-2.7-3.69-3.46-4.28v-.13h5.5v.13c.03.73.53,1.98,2.01,4.28l3.66,5.8,3.79-5.8c1.45-2.24,1.91-3.56,1.91-4.28v-.13h4.71v.13c-.73.59-1.88,1.78-3.56,4.28l-5.37,7.98,6.13,8.77c1.68,2.41,2.7,3.69,3.46,4.28v.13h-5.5v-.13c-.03-.73-.49-2.04-2.01-4.28l-4.32-6.39-4.02,6.39c-1.42,2.27-1.91,3.56-1.91,4.28v.13H0v-.13c.72-.59,1.91-1.75,3.56-4.28Z"/>
  <g>
    <path d="M2.21,340.66v-16.74c0-2.04-.36-3.56-1.02-4.28v-.13h7.91c6.39,0,9.03,2.08,9.03,5.83,0,2.8-1.38,4.81-4.02,5.97,3.49.96,5.47,3.03,5.47,6.16,0,4.75-3.43,7.61-10.12,7.61H1.19v-.13c.66-.73,1.02-2.24,1.02-4.28ZM14.37,325.83c-.07-2.54-1.62-4.02-5.08-4.02h-3.72v8.67h1.68c5.24,0,7.18-1.48,7.12-4.65ZM15.82,337.73c-.07-3.26-2.21-5.04-7.02-5.04h-3.23v10.09h3.66c4.32,0,6.66-1.45,6.59-5.04Z"/>
    <path d="M21.92,340.66c0-3.59,2.41-4.81,5.93-6,2.08-.69,3.86-1.32,5.14-1.81-.1-2.27-1.09-3.89-4.19-3.89-2.04,0-4.19.82-5.54,2.11l-.13-.07.49-3.16c1.42-.59,3.76-1.09,5.77-1.09,4.32,0,6.69,1.94,6.69,7.28v6.62c0,2.04.33,2.83,1.09,3.56v.13l-4.05,1.25v-2.31c-1.38,1.71-3.69,2.34-5.27,2.31-3.66-.07-5.93-2.04-5.93-4.94ZM33,339.61v-4.75l-2.97,1.19c-3,1.15-4.75,1.98-4.75,4.12s1.42,3.3,3.4,3.3c1.45,0,4.32-1.12,4.32-3.86Z"/>
    <path d="M39.43,344.19l-.46-3.46.13-.07c1.45,2.01,3.66,2.8,5.83,2.8,1.94,0,3.53-.82,3.53-2.37,0-1.32-.86-2.17-3.2-3.39l-2.01-1.05c-2.9-1.52-3.92-3-3.92-5.17,0-2.41,2.37-4.71,6.36-4.71,1.98,0,3.23.4,4.28.89l.4,3.13-.1.07c-.73-.96-2.54-1.94-4.88-1.94-1.78,0-3.13.79-3.13,1.98,0,1.29.59,1.81,2.7,2.9l2.24,1.15c2.83,1.45,4.35,2.93,4.35,5.27,0,3.53-3.03,5.41-6.69,5.41-1.85,0-4.15-.4-5.44-1.42Z"/>
    <path d="M53.5,336.15c0-5.67,4.35-9.39,9.43-9.39,5.54,0,7.65,3.69,7.65,8.01h-13.65c-.03.23-.03.43-.03.66,0,4.75,3.07,8.04,7.61,8.04,2.54,0,4.65-.99,6.1-2.54l.13.07c-1.25,2.27-3.66,4.61-8.11,4.61-4.75,0-9.13-3.39-9.13-9.46ZM66.88,332.55c-.2-1.94-1.68-3.66-4.19-3.66-2.34,0-4.42,1.29-5.31,3.66h9.49Z"/>
  </g>
  <g>
    <path d="M2263.46,18.58c0-8.44,6.16-13.45,14.04-13.45,2.97,0,5.77.73,6.86,1.32l.56,3.86-.13.07c-1.62-1.68-3.99-2.9-7.38-2.87-5.8,0-10.18,4.38-10.18,10.38,0,6.43,3.99,11.5,10.91,11.5,3.59,0,6.23-1.48,7.75-3.53l.13.03-.96,4.19c-1.25.82-3.92,1.68-7.22,1.68-7.42,0-14.37-4.55-14.37-13.18Z"/>
    <path d="M2287.72,26.82c0-3.59,2.41-4.81,5.93-6,2.08-.69,3.86-1.32,5.14-1.81-.1-2.27-1.09-3.89-4.19-3.89-2.04,0-4.19.82-5.54,2.11l-.13-.07.49-3.16c1.42-.59,3.76-1.09,5.77-1.09,4.32,0,6.69,1.94,6.69,7.28v6.62c0,2.04.33,2.83,1.09,3.56v.13l-4.05,1.25v-2.31c-1.38,1.71-3.69,2.34-5.27,2.31-3.66-.07-5.93-2.04-5.93-4.94ZM2298.8,25.77v-4.75l-2.97,1.19c-3,1.15-4.75,1.98-4.75,4.12s1.42,3.3,3.39,3.3c1.45,0,4.32-1.12,4.32-3.86Z"/>
    <path d="M2305.95,33.42v-15.33c0-1.71-.4-3.13-1.35-3.79v-.13l4.45-1.25v3.13c.92-1.55,3.23-3.13,5.9-3.13,5.21,0,7.88,4.35,7.88,9.33,0,5.31-3.49,9.53-8.63,9.53-2.47,0-4.32-1.15-5.14-2.24v3.89c0,2.04.33,3.56,1.09,4.28v.13h-5.27v-.13c.76-.73,1.09-2.24,1.09-4.28ZM2319.4,23.03c0-3.82-1.78-7.81-5.47-7.81-3.1,0-5.08,3.03-5.08,6.89s1.94,7.68,5.54,7.68c3,0,5.01-2.93,5.01-6.76Z"/>
  </g>
  <path d="M2304.14,117.68l5.67-8.64-5.44-8.11c-1.68-2.5-2.7-3.69-3.46-4.28v-.13h5.5v.13c.03.73.53,1.98,2.01,4.28l3.66,5.8,3.79-5.8c1.45-2.24,1.91-3.56,1.91-4.28v-.13h4.71v.13c-.73.59-1.88,1.78-3.56,4.28l-5.37,7.98,6.13,8.77c1.68,2.41,2.7,3.69,3.46,4.28v.13h-5.5v-.13c-.03-.73-.49-2.04-2.01-4.28l-4.32-6.39-4.02,6.39c-1.42,2.27-1.91,3.56-1.91,4.28v.13h-4.81v-.13c.72-.59,1.91-1.75,3.56-4.28Z"/>
  <g>
    <path d="M2254.82,340.66v-16.74c0-2.04-.36-3.56-1.02-4.28v-.13h7.91c6.39,0,9.03,2.08,9.03,5.83,0,2.8-1.38,4.81-4.02,5.97,3.49.96,5.47,3.03,5.47,6.16,0,4.75-3.43,7.61-10.12,7.61h-8.27v-.13c.66-.73,1.02-2.24,1.02-4.28ZM2266.98,325.83c-.07-2.54-1.62-4.02-5.08-4.02h-3.72v8.67h1.68c5.24,0,7.18-1.48,7.12-4.65ZM2268.43,337.73c-.07-3.26-2.21-5.04-7.02-5.04h-3.23v10.09h3.66c4.32,0,6.66-1.45,6.59-5.04Z"/>
    <path d="M2274.54,340.66c0-3.59,2.41-4.81,5.93-6,2.08-.69,3.86-1.32,5.14-1.81-.1-2.27-1.09-3.89-4.19-3.89-2.04,0-4.19.82-5.54,2.11l-.13-.07.49-3.16c1.42-.59,3.76-1.09,5.77-1.09,4.32,0,6.69,1.94,6.69,7.28v6.62c0,2.04.33,2.83,1.09,3.56v.13l-4.05,1.25v-2.31c-1.38,1.71-3.69,2.34-5.27,2.31-3.66-.07-5.93-2.04-5.93-4.94ZM2285.61,339.61v-4.75l-2.97,1.19c-3,1.15-4.75,1.98-4.75,4.12s1.42,3.3,3.39,3.3c1.45,0,4.32-1.12,4.32-3.86Z"/>
    <path d="M2292.04,344.19l-.46-3.46.13-.07c1.45,2.01,3.66,2.8,5.83,2.8,1.94,0,3.53-.82,3.53-2.37,0-1.32-.86-2.17-3.2-3.39l-2.01-1.05c-2.9-1.52-3.92-3-3.92-5.17,0-2.41,2.37-4.71,6.36-4.71,1.98,0,3.23.4,4.28.89l.4,3.13-.1.07c-.73-.96-2.54-1.94-4.88-1.94-1.78,0-3.13.79-3.13,1.98,0,1.29.59,1.81,2.7,2.9l2.24,1.15c2.83,1.45,4.35,2.93,4.35,5.27,0,3.53-3.03,5.41-6.69,5.41-1.85,0-4.15-.4-5.44-1.42Z"/>
    <path d="M2306.12,336.15c0-5.67,4.35-9.39,9.43-9.39,5.54,0,7.65,3.69,7.65,8.01h-13.65c-.03.23-.03.43-.03.66,0,4.75,3.07,8.04,7.61,8.04,2.54,0,4.65-.99,6.1-2.54l.13.07c-1.25,2.27-3.66,4.61-8.11,4.61-4.75,0-9.13-3.39-9.13-9.46ZM2319.5,332.55c-.2-1.94-1.68-3.66-4.19-3.66-2.34,0-4.42,1.29-5.31,3.66h9.49Z"/>
  </g>
  <g>
    <path d="M1687.54,495.46c0-9.19,6.94-14.61,14.83-14.61s14.83,5.42,14.83,14.61-6.94,14.61-14.83,14.61-14.83-5.42-14.83-14.61ZM1713.07,496.11c0-6.44-3.87-12.66-10.96-12.66-6.29,0-10.45,5.03-10.45,11.32s3.8,12.69,10.92,12.69c6.33,0,10.52-4.99,10.49-11.36Z"/>
    <path d="M1720.7,504.65v-18.99c0-1.88-.43-3.44-1.48-4.16v-.15l4.88-1.37v24.66c0,2.24.36,3.91,1.19,4.7v.14h-5.79v-.14c.83-.8,1.19-2.46,1.19-4.7Z"/>
    <path d="M1728.11,499.84c0-5.82,3.83-10.45,9.48-10.45,3,0,4.92,1.41,5.53,2.42v-6.15c0-1.88-.43-3.44-1.48-4.16v-.15l4.88-1.37v24.66c0,2.24.36,3.11,1.19,3.91v.15l-4.48,1.37v-3.44c-.87,1.84-3.4,3.44-6.33,3.44-5.71,0-8.79-4.77-8.79-10.23ZM1743.45,499.73c-.07-4.45-2.57-7.99-6-7.99s-5.71,3.54-5.57,7.99c.11,4.48,2.6,7.99,6.08,7.99s5.68-3.51,5.5-7.99Z"/>
    <path d="M1750.21,508.51l-.51-3.8.15-.07c1.59,2.21,4.01,3.07,6.4,3.07,2.13,0,3.87-.9,3.87-2.6,0-1.45-.94-2.39-3.51-3.72l-2.21-1.16c-3.18-1.66-4.3-3.29-4.3-5.68,0-2.64,2.6-5.17,6.98-5.17,2.17,0,3.54.43,4.7.98l.43,3.44-.11.07c-.8-1.05-2.78-2.13-5.35-2.13-1.95,0-3.44.87-3.44,2.17,0,1.41.65,1.99,2.97,3.18l2.46,1.27c3.11,1.59,4.77,3.22,4.77,5.79,0,3.87-3.33,5.93-7.34,5.93-2.03,0-4.56-.43-5.97-1.56Z"/>
    <path d="M1767.89,504.57v-12.19h-3.15v-.14l6.4-6.33h.14v4.05h7.27v.15l-2.1,2.64c-1.08-.33-3.47-.43-5.17-.47v11.61c0,2.35.69,3.83,3.11,3.83,1.01,0,2.6-.43,3.44-1.59l.11.04-.65,3.25c-.69.29-1.88.65-3.8.65-3.51,0-5.61-1.48-5.61-5.5Z"/>
    <path d="M1783.91,512.17l2.82-5.42-6.51-13.56c-.54-1.16-1.52-2.75-1.92-3.07v-.15h5.32c0,.76.04,1.95.83,3.8l4.01,9.11,3.98-9.11c.87-1.95.87-3.04.87-3.8h4.19v.11c-.4.33-1.16,1.45-1.92,3.11l-9.19,20c-.43.9-.94,2.06-.94,3.54h-4.74v-.11c.58-.47,1.88-1.95,3.18-4.45Z"/>
    <path d="M1799.28,504.65v-18.99c0-1.88-.43-3.44-1.48-4.16v-.15l4.88-1.37v24.66c0,2.24.36,3.91,1.19,4.7v.14h-5.79v-.14c.83-.8,1.19-2.46,1.19-4.7Z"/>
    <path d="M1805.97,499.69c0-6.22,4.77-10.31,10.34-10.31,6.08,0,8.39,4.05,8.39,8.79h-14.97c-.04.25-.04.47-.04.72,0,5.21,3.36,8.82,8.35,8.82,2.78,0,5.1-1.08,6.69-2.78l.15.07c-1.37,2.5-4.01,5.06-8.9,5.06-5.21,0-10.02-3.72-10.02-10.38ZM1820.65,495.75c-.22-2.13-1.84-4.01-4.59-4.01-2.57,0-4.85,1.41-5.82,4.01h10.42Z"/>
  </g>
  <g class="st0">
    <path d="M173.03,287.31V71.61c0-23.58-4.8-30.57-24.89-39.73v-1.75L240.71,0v287.31c0,27.07,6.11,47.16,16.16,56.76v1.75h-99.99v-1.75c10.04-9.61,16.16-29.69,16.16-56.76Z"/>
    <path d="M331.97,349.32v-1.75c80.78-10.48,126.19-62.44,135.36-122.7-10.04,9.61-33.19,23.58-67.68,23.58-61.57,0-113.53-47.16-113.53-120.95S338.09,0,414.5,0c84.71,0,132.3,56.76,132.3,150.64s-49.78,202.17-183.39,202.17c-13.54,0-26.2-2.18-31.44-3.49ZM475.19,123.13c0-51.52-24.45-82.53-59.82-82.53s-58.51,34.5-58.51,82.53,24.02,82.96,59.38,82.96,58.95-32.75,58.95-82.96Z"/>
    <path d="M577.8,241.9c0-44.97,31-77.72,58.51-91.26-18.78-11.35-37.99-35.37-37.99-65.5,0-48.03,41.48-85.15,111.78-85.15s112.22,37.11,112.22,85.15c0,30.13-19.21,54.14-37.99,65.5,27.07,13.1,58.07,46.28,58.07,91.26,0,62.88-49.34,110.91-132.3,110.91s-132.3-48.03-132.3-110.91ZM770.36,241.03c0-44.1-27.51-69.86-60.26-69.86s-60.26,25.76-60.26,69.86,25.76,69.86,60.26,69.86,60.26-27.51,60.26-69.86ZM755.08,84.71c0-26.64-17.9-48.47-44.97-48.47s-44.54,21.83-44.54,48.47c0,29.69,17.9,50.65,44.54,50.65s44.97-20.96,44.97-50.65Z"/>
    <path d="M872.54,176.4c0-104.36,55.45-176.4,144.09-176.4s144.09,72.05,144.09,176.4-55.45,176.4-144.09,176.4-144.09-72.05-144.09-176.4ZM1086.49,176.4c0-68.55-19.65-134.92-69.86-134.92s-69.86,66.37-69.86,134.92,19.65,134.49,69.86,134.49,69.86-65.93,69.86-134.49Z"/>
    <path d="M1331.45,287.31v-112.65c0-23.58-4.8-30.56-24.89-39.73v-1.75l91.7-30.13v184.26c0,27.07,6.11,47.16,16.16,56.76v1.75h-99.12v-1.75c10.04-9.61,16.16-29.69,16.16-56.76Z"/>
    <path d="M1462.44,405.21v-1.75c67.68-12.66,110.91-57.2,120.95-108.29-10.48,9.61-28.82,17.9-50.65,17.9-62.88,0-101.3-45.85-101.3-102.61,0-59.82,46.28-107.42,113.53-107.42,75.1,0,113.96,51.96,113.96,130.12,0,90.39-62.44,173.35-175.97,173.79-6.99,0-16.16-.87-20.52-1.75ZM1586.88,207.84c0-38.42-14.41-65.93-43.23-65.93s-42.35,31-42.35,65.93,13.1,65.93,42.35,65.93,43.23-29.69,43.23-65.93Z"/>
    <path d="M1684.26,257.62c0-36.24,22.71-64.19,48.03-75.54-19.65-10.48-33.62-33.19-33.62-57.64,0-40.17,34.49-75.54,99.55-75.54s99.12,35.37,99.12,75.54c0,26.2-13.97,47.59-33.62,58.07,24.89,10.92,48.03,38.86,48.03,75.1,0,51.52-36.68,95.19-113.53,95.19s-113.96-43.66-113.96-95.19ZM1841.01,258.93c0-34.49-15.28-58.95-42.79-58.95s-42.79,24.45-42.79,58.95,15.28,58.95,42.79,58.95,42.79-25.33,42.79-58.95ZM1833.15,124.01c0-25.76-13.1-42.79-34.93-42.79s-35.37,17.03-35.37,42.79,13.1,43.23,35.37,43.23,34.93-17.9,34.93-43.23Z"/>
    <path d="M1930.52,227.49c0-69.43,50.21-124.44,133.61-124.44s133.18,55.02,133.18,124.44-50.21,125.32-133.18,125.32-133.61-55.45-133.61-125.32ZM2124.83,227.49c0-41.92-18.34-84.71-60.69-84.71s-61.13,42.79-61.13,84.71,18.34,85.15,61.13,85.15,60.69-42.35,60.69-85.15Z"/>
  </g>
</svg>