<?xml version="1.0" encoding="UTF-8"?>
<svg id="Layer_1" xmlns="http://www.w3.org/2000/svg" version="1.1" viewBox="0 0 3807.27 373.72">
  <!-- Generator: Adobe Illustrator 30.5.0, SVG Export Plug-In . SVG Version: 2.1.4 Build 167)  -->
  <defs>
    <style>
      .st0 {
        fill: #efe9e2;
      }
    </style>
  </defs>
  <polygon class="st0" points="176.98 3.59 154.53 28.89 141.39 49.72 135.19 71.79 135.19 91.14 138.51 108.5 147.84 127.34 161.48 144.95 138.51 169.5 119.81 154.62 97.99 145.94 78.15 144.95 54.84 148.27 34.26 159.09 14.91 174.46 3.26 186.74 11.19 196.04 25.82 208.68 43.18 219.6 61.78 226.54 80.38 228.77 100.72 226.54 120.31 218.36 137.17 206.95 140.15 203.72 162.22 226.79 152.55 239.19 140.64 260.51 134.44 287.55 136.18 306.39 141.39 323.26 152.55 343.84 176.98 370.13 187.51 362 201.65 345.33 213.55 323.75 218.76 301.19 218.76 278.03 213.8 260.02 204.13 243.9 195.2 231 202.15 221.08 216.53 205.71 229.18 223.68 253.73 264.98 267.37 296.97 274.06 323.26 277.29 348.55 277.29 365.36 3529.51 365.36 3529.51 337.11 3534.86 306.21 3544.33 278.08 3556.65 254.42 3588.98 206.74 3610.05 228.17 3599.87 244.06 3590.66 268 3587.91 291.03 3589.33 314.25 3597.37 332.47 3608.98 350.5 3629.14 369.61 3647.73 351.22 3661.66 330.32 3668.63 312.46 3672.02 289.25 3667.61 265.67 3659.52 248.17 3644.16 226.74 3665.95 204.24 3681.31 216.03 3702.2 226.21 3720.42 229.24 3745.24 226.38 3763.82 219.06 3783.82 205.67 3803.82 186.86 3782.39 165.84 3762.57 152.8 3741.32 145.84 3718.28 144.41 3699.17 150.48 3682.38 159.06 3669.16 168.88 3645.95 145.3 3657.02 129.23 3667.61 110.12 3671.31 88.69 3669.52 62.26 3661.31 41.36 3647.91 22.25 3627.73 3.59 3613.62 17.25 3600.23 35.65 3594.87 47.61 3589.16 64.4 3588.62 79.05 3587.91 92.8 3593.44 112.26 3602.55 129.41 3611.66 142.62 3609.52 146.91 3592.73 163.7 3588.98 165.66 3568.62 139.95 3545.22 97.08 3533.61 64.4 3528.97 38.51 3528.44 8.12 277.05 8.12 277.73 24.02 274.48 52.3 269.33 74.75 260.94 98.74 250.31 118.79 239.69 136.96 217.07 166.78 194.1 144.33 200.78 134.9 212.44 113.31 218.95 90.86 217.75 68.92 214.15 50.59 204.55 32.94 191.36 15.8 176.98 3.59"/>
  <path d="M3723.92,142.28c-21.37,0-40,10.38-55.57,23.2l-5.5-5.8-13.44-14.66c18.32-21.68,25.34-43.36,25.34-61.68,0-26.56-8.85-50.99-45.49-83.35-36.95,32.36-43.66,58.01-43.66,83.35,0,19.24,5.5,36.03,23.51,60.15-6.41,6.72-12.21,12.82-18.32,19.85-37.25-47.94-62.29-100.45-57.1-157.86h-57.64,1.81H273.57c5.19,57.4-19.85,109.92-57.1,157.86-6.11-7.02-11.91-13.13-18.32-19.85,18.01-24.12,23.51-40.91,23.51-60.15,0-25.34-6.72-50.99-43.66-83.35-36.64,32.36-45.49,56.79-45.49,83.35,0,18.32,7.02,40,25.34,61.68l-13.43,14.66-5.5,5.8c-15.57-12.82-34.2-23.2-55.57-23.2-25.65,0-50.99,7.63-83.36,44.58,32.36,36.94,57.71,44.58,83.36,44.58,23.51,0,41.83-10.99,56.48-23.82l12.21,12.52,7.02,7.02c-19.24,22.29-26.56,44.58-26.56,63.2,0,26.56,8.85,50.99,45.49,83.35,36.95-32.36,43.66-58.01,43.66-83.35,0-19.24-5.8-38.78-22.29-61.68,5.8-5.8,11.3-11.91,17.1-18.32,37.25,47.94,62.29,100.45,57.1,157.86h3204.29-1.81,57.64c-5.19-57.4,19.85-109.92,57.1-157.86,5.8,6.41,11.3,12.52,17.1,18.32-16.49,22.9-22.29,42.44-22.29,61.68,0,25.34,6.72,50.99,43.66,83.35,36.64-32.36,45.49-56.79,45.49-83.35,0-18.63-7.33-40.91-26.56-63.2l7.02-7.02,12.21-12.52c14.66,12.82,32.98,23.82,56.49,23.82,25.65,0,50.99-7.63,83.35-44.58-32.36-36.94-57.71-44.58-83.35-44.58ZM3612.78,148.39l4.28-4.27,6.41-6.41,6.41-7.02,3.97-4.58c12.21-15.88,16.49-30.84,16.49-42.75,0-15.88-4.58-30.84-21.07-49.16-15.88,18.01-19.24,32.67-19.24,49.16,0,12.82,3.36,24.43,16.18,42.44l-7.02,7.63-5.8,5.8c-16.79-22.59-21.68-38.17-21.68-55.88,0-23.51,5.5-45.8,37.56-75.11,31.45,29.01,39.39,50.99,39.39,75.11,0,17.1-6.41,36.95-23.2,57.1l-3.97,4.58-5.19,5.5-7.63,7.63-4.28,4.27-18.01,19.85-11.91-14.35,18.32-19.54ZM138.62,83.35c0-24.12,7.94-46.1,39.39-75.11,32.06,29.31,37.56,51.6,37.56,75.11,0,17.71-4.89,33.28-21.68,55.88l-5.8-5.8-7.02-7.63c12.82-18.01,16.18-29.62,16.18-42.44,0-16.49-3.36-31.14-19.24-49.16-16.49,18.32-21.07,33.28-21.07,49.16,0,11.91,4.28,26.87,16.49,42.75l3.97,4.58,6.41,7.02,6.41,6.41,4.28,4.27,18.32,19.54-11.91,14.35-18.01-19.85-4.27-4.27-7.63-7.63-5.19-5.5-3.97-4.58c-16.79-20.15-23.2-40-23.2-57.1ZM135.57,203.35c-13.74,11.91-30.84,21.98-52.21,21.98-23.82,0-46.11-6.41-75.42-38.47,29.31-32.06,51.6-38.47,75.42-38.47,19.24,0,36.64,9.77,51.3,21.68-3.97,4.28-8.55,9.16-12.82,13.13-11.91-9.47-24.73-16.49-38.47-16.49-16.18,0-30.53,3.66-49.16,20.15,18.63,16.49,32.98,20.15,49.16,20.15,15.27,0,27.48-6.41,38.78-15.88l4.58-4.27,12.82-12.82,22.29-24.43,4.89,5.19,7.94,7.94-21.98,23.82-12.82,12.82-4.27,3.97ZM215.56,290.37c0,23.51-5.5,45.8-37.56,75.11-31.45-29.01-39.39-50.99-39.39-75.11,0-17.4,6.41-37.56,24.43-58.62,4.58,5.19,8.55,10.08,11.6,14.35-13.13,16.49-17.71,31.75-17.71,44.27,0,15.88,4.58,30.84,21.07,49.16,15.88-18.01,19.24-32.67,19.24-49.16,0-13.43-3.67-27.17-14.96-43.97l-3.66-4.89c-3.36-4.89-7.02-9.16-11.6-14.35l-3.97-4.27-6.72-7.02-11.91-12.21c4.58-4.28,8.85-8.85,12.52-12.82l12.21,12.21,6.41,6.72,4.28,4.58c4.27,4.58,8.24,9.46,11.6,13.74l3.66,5.19c15.27,21.37,20.46,39.08,20.46,57.1ZM3526.98,362.12h-50.92,1.81H280.29c3.05-57.71-22.9-109.61-59.54-156.33l12.21-14.35c35.72,43.97,62.59,92.82,65.65,149.31h3179.26-1.81,32.6c3.05-56.49,29.92-105.34,65.65-149.31l12.21,14.35c-36.64,46.72-62.59,98.62-59.54,156.33ZM3594.46,205.79l-3.97-4.58-12.52-14.35-3.66-4.58c-35.72-43.97-62.59-92.82-65.65-149.31h-32.6,1.81H298.61c-3.05,56.49-29.92,105.34-65.65,149.31l-3.66,4.58-12.52,14.35-3.97,4.58-17.1,18.01-11.6-14.04,16.79-18.32,3.97-4.58,11.91-14.35,3.97-4.58c36.64-46.72,62.59-98.62,59.54-156.33h3197.57-1.81,50.92c-3.05,57.71,22.9,109.61,59.54,156.33l3.97,4.58,11.91,14.35,3.97,4.58,16.79,18.32-11.6,14.04-17.1-18.01ZM3650.94,215.87l-6.72,7.02-3.97,4.27c-4.58,5.19-8.24,9.47-11.6,14.35l-3.67,4.89c-11.3,16.79-14.96,30.53-14.96,43.97,0,16.49,3.36,31.14,19.24,49.16,16.49-18.32,21.07-33.28,21.07-49.16,0-12.52-4.58-27.79-17.71-44.27,3.05-4.27,7.02-9.16,11.6-14.35,18.01,21.07,24.43,41.22,24.43,58.62,0,24.12-7.94,46.1-39.39,75.11-32.06-29.31-37.56-51.6-37.56-75.11,0-18.01,5.19-35.72,20.46-57.1l3.66-5.19c3.36-4.28,7.33-9.16,11.6-13.74l4.28-4.58,6.41-6.72,12.21-12.21c3.66,3.97,7.94,8.55,12.52,12.82l-11.91,12.21ZM3723.92,225.33c-21.37,0-38.47-10.08-52.21-21.98l-4.27-3.97-12.82-12.82-21.98-23.82,7.94-7.94,4.89-5.19,22.29,24.43,12.82,12.82,4.58,4.27c11.3,9.46,23.51,15.88,38.78,15.88,16.18,0,30.53-3.66,49.16-20.15-18.63-16.49-32.98-20.15-49.16-20.15-13.74,0-26.56,7.02-38.47,16.49-4.28-3.97-8.85-8.85-12.82-13.13,14.66-11.91,32.06-21.68,51.3-21.68,23.82,0,46.1,6.41,75.42,38.47-29.31,32.06-51.6,38.47-75.42,38.47Z"/>
  <g>
    <path class="st0" d="M380.88,243.76v-116.64c0-14.24-2.98-24.8-8.27-29.85v-.92h39.95v.92c-5.28,5.05-8.27,15.61-8.27,29.85v131.33h40.18c25.03,0,37.88-3.21,43.39-8.73l.69.46-3.21,24.34h-112.73v-.92c5.28-5.05,8.27-15.61,8.27-29.85ZM442.64,196.46v-69.34c0-14.24-1.38-24.8-5.97-29.85v-.92h34.44v.92c-4.59,5.05-5.97,15.61-5.97,29.85v69.34c0,14.23,1.38,24.8,5.97,29.85v.92h-34.44v-.92c4.59-5.05,5.97-15.61,5.97-29.85Z"/>
    <path class="st0" d="M537.92,144.57v99.19c0,14.23,2.3,24.8,7.58,29.85v.92h-33.52v-.92c5.28-5.05,7.58-15.61,7.58-29.85V90.85h.92l126.05,135.46v-99.19c0-14.24-2.3-24.8-7.58-29.85v-.92h33.52v.92c-5.28,5.05-7.58,15.61-7.58,29.85v152.91h-.92l-126.05-135.46Z"/>
    <path class="st0" d="M703,243.76v-116.64c0-14.24-2.53-24.8-7.12-29.85v-.92h37.65v.92c-4.59,5.05-7.12,15.61-7.12,29.85v116.64c0,14.23,2.53,24.8,7.12,29.85v.92h-37.65v-.92c4.59-5.05,7.12-15.61,7.12-29.85Z"/>
    <path class="st0" d="M782.9,144.57v99.19c0,14.23,2.3,24.8,7.58,29.85v.92h-33.52v-.92c5.28-5.05,7.58-15.61,7.58-29.85V90.85h.92l126.05,135.46v-99.19c0-14.24-2.3-24.8-7.58-29.85v-.92h33.52v.92c-5.28,5.05-7.58,15.61-7.58,29.85v152.91h-.92l-126.05-135.46Z"/>
    <path class="st0" d="M939.02,186.36c0-58.78,46.15-93.68,97.12-93.68,25.49,0,43.16,5.74,50.97,10.33l3.44,26.86-.92.23c-9.41-10.1-26.4-20.89-54.64-20.89-36.05,0-69.8,27.32-69.8,72.32,0,42.48,28.7,80.13,73.24,80.13,12.17,0,23.88-2.53,30.31-5.97v-61.76c0-14.23-5.28-24.8-10.56-29.85v-.92h42.25v.92c-5.28,5.05-8.27,15.61-8.27,29.85v40.18c0,14.23,1.84,21.35,7.12,26.4v.92c-12.17,8.72-34.21,16.76-63.14,16.76-49.36,0-97.12-31.69-97.12-91.84Z"/>
    <path class="st0" d="M1293.51,249.04c-12.63,15.84-33.06,29.16-57.17,29.16-34.67,0-55.33-25.03-55.33-49.36,0-38.8,36.74-50.97,57.86-57.63l-52.35-73.93v-.92h123.06l5.97,25.26-.69.46c-5.51-5.51-21.35-9.64-46.38-9.64h-43.62l72.09,102.4c5.05-11.02,8.27-24.57,8.27-42.02,0-7.35-1.38-17.22-4.13-21.35v-.92h26.4c0,23.42-7.81,55.56-21.12,77.83l6.66,9.41c10.56,14.92,23.88,28.47,33.98,35.82v.92h-44.77c0-8.95-3.9-17.68-8.72-25.49ZM1238.18,259.6c20.2,0,37.65-10.79,46.15-23.88l-36.74-52.12c-23.42,7.35-40.41,22.04-40.41,43.16,0,24.57,17.22,32.83,31,32.83Z"/>
    <path class="st0" d="M1407.38,185.44c0-58.32,44.08-92.76,94.14-92.76s94.14,34.44,94.14,92.76-44.08,92.76-94.14,92.76-94.14-34.44-94.14-92.76ZM1569.48,189.58c0-40.87-24.57-80.36-69.57-80.36-39.95,0-66.35,31.91-66.35,71.86s24.11,80.59,69.34,80.59c40.18,0,66.81-31.68,66.58-72.09Z"/>
    <path class="st0" d="M1623.43,243.76v-116.64c0-14.24-2.98-24.8-8.27-29.85v-.92h39.95v.92c-5.28,5.05-8.27,15.61-8.27,29.85v131.33h40.18c25.03,0,37.88-3.21,43.39-8.73l.69.46-3.21,24.34h-112.73v-.92c5.28-5.05,8.27-15.61,8.27-29.85Z"/>
    <path class="st0" d="M1749.94,243.76v-116.64c0-14.24-2.98-24.8-8.27-29.85v-.92h55.79c59.24,0,104.47,27.78,104.47,86.1s-45.23,92.07-109.06,92.07h-51.2v-.92c5.28-5.05,8.27-15.61,8.27-29.85ZM1875.76,186.13c-.23-43.16-23.42-73.01-84.49-73.01h-17.91v144.65h16.3c58.55,0,86.33-28.93,86.1-71.63Z"/>
    <path class="st0" d="M1922.36,263.74l-3.67-29.39.92-.23c10.79,16.07,32.6,27.55,54.19,27.55,23.19,0,38.57-11.94,38.57-31.68,0-17.68-14.92-26.86-36.74-37.88l-10.1-5.05c-27.78-13.78-42.25-27.78-42.25-48.68,0-25.94,19.97-45.69,58.55-45.69,18.6,0,32.83,3.67,42.02,9.64l4.36,27.09-.92.23c-6.66-9.87-22.04-20.43-46.15-20.43-20.43,0-34.67,9.64-34.67,24.11,0,11.94,6.66,19.29,31.91,31.91l14.24,7.12c31.91,16.07,45.23,30.31,45.23,53.73,0,32.83-25.03,52.12-64.52,52.12-17.22,0-38.57-4.59-50.97-14.46Z"/>
    <path class="st0" d="M2100.3,243.76V112.43h-14.69c-25.03,0-38.11,4.13-43.62,9.64l-.69-.46,3.21-25.26h135l3.21,25.26-.69.46c-5.51-5.51-18.6-9.64-43.62-9.64h-14.69v131.33c0,14.23,2.98,24.8,8.27,29.85v.92h-39.95v-.92c5.28-5.05,8.27-15.61,8.27-29.85Z"/>
    <path class="st0" d="M2246.54,243.76v-59.24l-38.34-57.4c-11.71-17.45-20.21-25.72-25.49-29.85v-.92h38.57c0,7.35,5.51,18.37,14.01,30.77l25.94,38.57,24.11-37.88c6.2-9.64,12.86-22.04,12.86-31.46h31.68v.92c-5.05,4.13-13.09,12.17-24.8,29.85l-35.13,53.5v63.14c0,14.23,2.99,24.8,8.27,29.85v.92h-39.95v-.92c5.28-5.05,8.27-15.61,8.27-29.85Z"/>
    <path class="st0" d="M2350.55,243.76v-116.64c0-14.24-2.99-24.8-8.27-29.85v-.92h39.95v.92c-5.28,5.05-8.27,15.61-8.27,29.85v131.33h40.18c25.03,0,37.88-3.21,43.39-8.73l.69.46-3.21,24.34h-112.73v-.92c5.28-5.05,8.27-15.61,8.27-29.85ZM2407.26,196.46v-69.34c0-14.24-1.84-24.8-7.12-29.85v-.92h82.43l3.21,23.19-.69.46c-5.51-5.51-18.14-7.58-43.17-7.58h-12.17v37.42h14.24c10.79,0,22.96.23,30.31-4.82l.92.23v24.57l-.92.23c-7.35-5.05-19.52-4.82-30.31-4.82h-14.24v45.92h19.06c25.03,0,37.65-2.07,43.17-7.58l.69.46-2.98,23.19h-89.54v-.92c5.28-5.05,7.12-15.61,7.12-29.85Z"/>
    <path class="st0" d="M2581.06,243.76v-116.64c0-14.24-2.99-24.8-8.27-29.85v-.92h101.71l3.44,24.34-.92.23c-6.89-5.97-23.65-8.5-41.56-8.5h-31v60.84h25.49c10.79,0,22.96-.92,30.31-5.97l.92.23v27.32l-.92.23c-7.35-5.05-19.52-5.97-30.31-5.97h-25.49v54.64c0,14.23,2.98,24.8,8.27,29.85v.92h-39.95v-.92c5.28-5.05,8.27-15.61,8.27-29.85Z"/>
    <path class="st0" d="M2705.5,243.76v-116.64c0-14.24-2.53-24.8-7.12-29.85v-.92h37.65v.92c-4.59,5.05-7.12,15.61-7.12,29.85v116.64c0,14.23,2.53,24.8,7.12,29.85v.92h-37.65v-.92c4.59-5.05,7.12-15.61,7.12-29.85Z"/>
    <path class="st0" d="M2757.61,186.36c0-58.78,46.15-93.68,97.12-93.68,25.49,0,43.16,5.74,50.97,10.33l3.44,26.86-.92.23c-9.41-10.1-26.4-20.89-54.64-20.89-36.05,0-69.8,27.32-69.8,72.32,0,42.48,28.7,80.13,73.24,80.13,12.17,0,23.88-2.53,30.31-5.97v-61.76c0-14.23-5.28-24.8-10.56-29.85v-.92h42.25v.92c-5.28,5.05-8.26,15.61-8.26,29.85v40.18c0,14.23,1.84,21.35,7.12,26.4v.92c-12.17,8.72-34.21,16.76-63.14,16.76-49.36,0-97.12-31.69-97.12-91.84Z"/>
    <path class="st0" d="M2946.11,215.98v-88.85c0-14.24-2.99-24.8-8.27-29.85v-.92h39.95v.92c-5.28,5.05-8.27,15.61-8.27,29.85v84.26c0,35.36,14.46,49.82,38.8,49.82,33.98,0,49.13-31.23,49.13-57.17v-76.92c0-14.24-2.99-24.8-8.27-29.85v-.92h60.15c39.72,0,61.76,18.14,61.76,44.31,0,23.42-14.92,39.49-37.42,46.84l31.91,56.25c12.4,21.81,16.3,25.71,20.43,29.85v.92h-37.2c0-11.71-5.74-24.34-9.18-30.77l-28.01-52.12c-2.75.23-5.28.23-8.04.23h-22.73v51.89c0,14.23,2.98,24.8,8.27,29.85v.92h-31.68c1.61-6.2,1.84-14.69,1.84-26.4-5.74,12.86-24.11,30.08-53.96,30.08-33.52,0-59.24-17.45-59.24-62.22ZM3144.94,142.97c-.46-17.91-12.63-30.54-38.11-30.54h-25.94v63.37h22.5c25.26,0,42.02-10.79,41.56-32.83Z"/>
    <path class="st0" d="M3204.16,243.76v-116.64c0-14.24-2.53-24.8-7.12-29.85v-.92h102.17l3.44,24.34-.92.23c-6.89-5.97-23.65-8.5-41.56-8.5h-32.6v57.4h30.08c10.79,0,22.96-.92,30.31-5.97l.92.23v27.32l-.92.23c-7.35-5.05-19.52-5.97-30.31-5.97h-30.08v72.78h40.41c25.03,0,37.88-3.21,43.39-8.73l.69.46-3.21,24.34h-111.81v-.92c4.59-5.05,7.12-15.61,7.12-29.85Z"/>
    <path class="st0" d="M3331.58,263.74l-3.67-29.39.92-.23c10.79,16.07,32.6,27.55,54.19,27.55,23.19,0,38.57-11.94,38.57-31.68,0-17.68-14.92-26.86-36.74-37.88l-10.1-5.05c-27.78-13.78-42.25-27.78-42.25-48.68,0-25.94,19.97-45.69,58.55-45.69,18.6,0,32.83,3.67,42.02,9.64l4.36,27.09-.92.23c-6.66-9.87-22.04-20.43-46.15-20.43-20.43,0-34.67,9.64-34.67,24.11,0,11.94,6.66,19.29,31.91,31.91l14.24,7.12c31.91,16.07,45.23,30.31,45.23,53.73,0,32.83-25.03,52.12-64.52,52.12-17.22,0-38.57-4.59-50.97-14.46Z"/>
  </g>
</svg>