<?xml version="1.0" encoding="UTF-8"?>
<svg id="Layer_1" xmlns="http://www.w3.org/2000/svg" version="1.1" viewBox="0 0 776.16 399.79">
  <!-- Generator: Adobe Illustrator 30.5.0, SVG Export Plug-In . SVG Version: 2.1.4 Build 167)  -->
  <path d="M92.51,180.32c-8.62,1.18-17.64,6.86-17.64,6.86.39-8.62,10.58-12.15,10.58-12.15-9.8-.98-16.27,2.16-16.27,2.16,1.76-10.39,25.68-12.94,25.68-12.94,10.98-10.58,22.74-22.15,25.87-25.68-9.41-1.57-21.95-5.29-31.95-13.92-6.08,9.41-12.15,21.17-15.29,28.22-1.37,3.14-5.49,9.8-11.76,10.78,0,0,2.94-3.92,3.33-8.62,0,0-11.37,3.53-26.26,11.96-.2-5.49,6.86-11.96,6.86-11.96-8.82,1.18-17.83,6.47-17.83,6.47.59-7.84,10.39-11.56,10.39-11.56-9.41-.98-16.07,2.16-16.07,2.16,1.76-10.58,25.68-13.13,25.68-13.13,11.17-10.58,25.28-25.28,28.81-29.2-2.55-5.49-4.9-11.96-6.08-19.99-5.29-41.55-31.56-42.14-31.56-42.14l-1.76-5.49h25.48c-7.84-7.45-18.62-8.43-24.11-8.43-2.16,0-3.72.2-3.72.2v-16.27l6.86,4.31,13.52-5.29c4.51-1.76,10.39-3.33,17.25-3.33,47.43,0,38.42,66.44,73.11,66.44,5.68,0,10.39-2.94,14.31-7.45l-3.14-14.5,8.23,7.84c1.76-2.74,3.53-5.1,5.29-8.23l-1.96-16.07,7.84,7.84c1.96-2.94,4.12-5.68,6.47-8.04l-1.18-23.13,8.43,15.88c2.74-2.16,5.49-4.12,8.82-6.08l1.96-23.72,7.64,20.38c2.55-.59,5.49-1.76,9.6-1.96l4.9-22.54,4.7,22.15c3.53.39,6.86,1.18,10,1.76l8.04-20.19.78,22.34c2.94,1.18,5.68,2.35,8.43,3.72l9.21-12.54-.39,18.03c1.96,1.37,3.92,2.94,6.08,5.1l9.02-10.19-2.16,17.05c1.76,1.96,3.72,4.31,5.49,6.66l7.06-8.04-1.96,15.29c4.31,6.66,7.84,13.52,11.17,20.19,13.72,28.42,17.64,55.47,46.45,55.47,2.55,0,7.64-.78,10.58-1.57-4.51,2.74-10.98,5.1-18.82,5.1-52.33,0-43.71-69.97-96.63-69.97-3.53,7.84-1.76,18.42-1.76,18.42,18.23,1.57,34.5,16.07,34.5,16.07l-.59.59c-12.35,0-25.28,26.26-31.36,39-.98,2.35-5.1,10-11.76,10.58,0,0,2.74-3.72,3.33-8.82,0,0-11.17,3.72-26.07,12.35,0-5.29,6.86-12.15,6.86-12.15-8.82.78-18.03,6.47-18.03,6.47.59-8.04,10.39-11.76,10.39-11.76-9.41-.98-15.88,2.35-15.88,2.35,1.57-10.78,25.48-12.94,25.48-12.94,13.52-12.54,25.48-23.13,25.48-23.13-17.84.78-29.2-3.72-36.26-10.39-13.52,13.72-22.74,38.81-58.6,42.73-10.39,6.47-20.19,27.83-24.89,38.61-1.37,2.94-5.68,9.8-11.96,10.39,0,0,2.94-3.72,3.33-8.43,0,0-11.37,3.14-26.26,11.56,0-4.7,6.66-11.56,6.66-11.56ZM61.74,27.05c0-2.35-1.37-4.31-3.33-4.31-2.16,0-3.53,1.96-3.53,4.31,0,2.55,1.37,4.31,3.53,4.31,1.96,0,3.33-1.76,3.33-4.31Z"/>
  <path d="M586.43,162.48c-9.02.98-17.84,6.66-17.84,6.66.39-8.23,10-11.96,10-11.96-9.02-1.18-16.07,2.16-16.07,2.16,1.96-10.58,26.07-12.74,26.07-12.74l29.79-2.74c-18.62-1.57-30.58-5.1-32.73-5.49l-.2-.78c1.57-4.12,2.94-7.45,4.7-10.39-15.48,2.55-29.01,12.74-47.43,17.44,3.33,5.49,4.51,9.6,4.51,9.6l-.39.59-103.29,10.39c1.76-5.68,14.11-9.6,14.11-9.6-12.35-4.7-20.38-1.18-20.38-1.18,4.9-10.78,17.84-8.82,17.84-8.82-6.47-6.66-15.29-5.49-15.29-5.49,5.49-7.06,19.99-4.12,27.05-1.37,0-3.14-2.94-8.43-2.94-8.43,5.88,1.96,10,6.47,12.54,9.41l29.6,2.74c-11.17-3.53-23.91-10-30.97-22.74l-50.76.2c1.96-5.68,14.7-8.23,14.7-8.23-11.96-5.88-19.99-2.94-19.99-2.94,5.49-10.39,18.23-7.06,18.23-7.06-5.49-7.25-14.7-6.86-14.7-6.86,6.08-6.66,20.58-2.55,27.05.98.39-3.33-1.96-8.62-1.96-8.62,5.49,2.35,9.6,7.25,11.76,10.78l10.39,1.96c-8.43-46.65-33.91-46.26-33.91-46.26l-1.76-5.49h25.28c-7.84-7.25-18.42-8.43-23.91-8.43-2.35,0-3.72.2-3.72.2v-16.07l6.86,4.12,16.46-6.47c3.14-.98,8.43-2.16,13.33-2.16,45.08,0,35.67,66.84,76.05,66.84,6.27,0,11.76-.39,15.48-1.37l-2.16-8.82,7.84,7.06c2.35-.59,4.51-1.57,6.86-2.55l-1.57-11.56,8.23,8.23c2.16-.59,4.31-1.76,6.66-2.94l-.78-19.8,8.43,16.27c2.94-1.37,5.88-2.74,9.21-3.72l1.37-19.99,6.66,18.03c3.33-.39,6.86-.59,10.78-.59l4.9-22.34,4.31,22.54c4.12.2,7.84.78,11.37,1.37l7.25-17.64.39,19.6,9.6,4.12,8.62-11.37-.59,16.07,6.86,5.49,8.62-9.8-2.16,15.68c2.16,2.16,3.92,4.12,5.88,6.66l6.27-7.25-1.37,13.52c20.38,26.85,36.26,49.2,65.86,49.2,7.45,0,15.68-1.57,18.82-2.35-4.12,3.72-17.64,7.64-28.62,7.64-44.69,0-57.62-26.26-88-38.22-7.25,10.39-19.01,17.05-19.01,17.05,13.33,6.86,21.36,19.8,21.36,19.8l-.2.78c-7.84-.2-37.04,2.55-47.24,5.29-1.37,2.94-5.49,9.8-12.15,10.78,0,0,2.94-3.92,3.53-8.62,0,0-11.56,3.33-26.26,12.15,0-5.49,6.86-12.15,6.86-12.15ZM458.44,33.32c0-2.35-1.18-4.31-3.33-4.31s-3.33,1.96-3.33,4.31,1.18,4.31,3.33,4.31,3.33-1.96,3.33-4.31Z"/>
  <path d="M119.95,388.23c-8.43,1.18-17.64,6.86-17.64,6.86.59-8.62,10.58-12.15,10.58-12.15-9.6-.98-16.07,2.16-16.07,2.16,1.57-10.39,25.48-12.94,25.48-12.94,10.98-10.58,22.74-22.15,25.87-25.68-9.21-1.57-21.95-5.29-31.95-13.92-6.08,9.41-12.15,21.17-15.29,28.22-1.37,3.14-5.49,9.8-11.76,10.78,0,0,2.94-3.92,3.33-8.62,0,0-11.37,3.53-26.26,11.96-.2-5.49,6.86-11.96,6.86-11.96-8.62,1.18-17.64,6.47-17.64,6.47.59-7.84,10.19-11.56,10.19-11.56-9.21-.98-15.88,2.16-15.88,2.16,1.57-10.58,25.48-13.13,25.48-13.13,11.17-10.58,25.48-25.28,28.81-29.2-2.55-5.49-4.9-11.96-6.08-19.99-.59-6.47-1.76-13.52-3.92-17.64-8.43-2.74-13.52-9.41-15.29-11.76-1.18-.2-1.76-1.37-2.94-2.55-3.53.2-5.29.39-9.6.39-2.74,0-4.51-.2-7.25-.39-2.94,4.51-7.25,6.86-10.78,6.86-4.51,0-10.58-4.31-10.58-9.02-2.74-.78-6.08-3.72-6.08-6.86,0-.98.2-1.57.39-2.16-1.57-.39-4.51-3.14-4.51-6.47,0-1.96.98-3.14,3.33-4.12-3.92.2-6.66-.2-9.41-.98-3.72,1.57-6.27,1.96-10,1.96-6.47,0-11.37-2.74-11.37-9.21,0-.2,0-.78.2-2.16,15.09-.2,32.34-2.16,47.04-4.9.98-.2,5.49-.98,7.25-.98,8.23,0,14.7,4.7,20.58,5.68.98-1.57,2.35-3.33,3.72-4.31,2.16-2.74,10-12.35,22.74-12.35,5.49,0,11.96,1.76,14.31,7.45,29.99,12.94,27.05,63.5,57.23,63.5,5.68,0,10.39-2.94,14.31-7.45l-3.14-14.5,8.23,7.84,5.49-8.23-2.16-16.07,8.04,7.84c1.76-2.94,3.92-5.68,6.27-8.04l-.98-23.13,8.23,15.88c2.74-2.16,5.49-4.12,8.82-6.08l1.96-23.72,7.84,20.38c2.35-.59,5.49-1.76,9.41-1.96l5.1-22.54,4.51,22.15c3.53.39,7.06,1.18,10,1.76l8.04-20.19.98,22.34c2.94,1.18,5.49,2.35,8.23,3.72l9.41-12.54-.59,18.03c1.96,1.18,4.12,2.94,6.08,5.1l9.02-10.19-1.96,17.05,5.49,6.66,6.86-8.04-1.96,15.29c4.51,6.66,7.84,13.52,11.17,20.19,13.92,28.42,17.64,55.47,46.65,55.47,2.55,0,7.45-.78,10.39-1.57-4.51,2.74-10.78,5.1-18.82,5.1-52.33,0-43.71-69.97-96.63-69.97-3.53,7.84-1.57,18.42-1.57,18.42,18.03,1.57,34.3,16.07,34.3,16.07l-.59.59c-12.35,0-25.09,26.26-31.16,39-1.18,2.35-5.1,10-11.76,10.58,0,0,2.74-3.72,3.33-8.82,0,0-11.37,3.72-26.26,12.35,0-5.29,6.86-12.15,6.86-12.15-8.82.78-18.03,6.47-18.03,6.47.59-8.04,10.58-11.76,10.58-11.76-9.6-.98-16.07,2.35-16.07,2.35,1.76-10.78,25.48-12.94,25.48-12.94,13.52-12.54,25.48-23.13,25.48-23.13-17.84.78-29.01-3.72-36.26-10.39-13.33,13.72-22.54,38.81-58.6,42.73-10.39,6.47-19.99,27.83-24.89,38.61-1.18,2.94-5.68,9.8-11.96,10.39,0,0,2.94-3.72,3.33-8.43,0,0-11.37,3.14-26.26,11.56,0-4.7,6.66-11.56,6.66-11.56ZM10.39,236.14c-2.74.2-5.1.2-7.45.2,0,.59,0,.98.2,1.57.39.2,1.57.2,1.96.2,3.53,0,5.1-1.37,5.29-1.96ZM56.06,265.34c-1.96-.2-5.49-.2-7.64.78l-.2-.2c.98-2.35,5.1-3.14,8.23-3.14,2.94,0,5.68.39,10.19.39,11.37,0,16.27-2.55,19.99-6.47h.39c0,.98-.59,2.94-.78,3.14.98.2,2.16.2,2.94,0,1.57-2.94,1.96-6.66,1.96-10.98,0-5.1-.78-8.82-2.16-11.37-5.29,0-12.35,0-17.05-1.57-5.68-1.57-12.15-4.7-17.05-4.7-1.57,0-4.7.2-5.29.39-12.15,1.96-21.76,3.53-36.46,4.31-.98,3.14-4.51,4.12-7.64,4.12-.39,0-.78,0-1.37-.2,1.76,1.96,4.51,2.35,7.64,2.35,4.7,0,8.62-1.37,12.94-3.72l.2.2c-.2.59-.78,1.57-.98,1.76,1.18.39,3.53.59,5.49.59,4.51,0,9.41-.98,13.92-2.16,2.16-.59,4.12-1.18,5.88-1.96l.2.2c-.59,1.18-1.96,2.94-3.33,3.72-5.88,3.33-15.09,3.72-15.09,8.04,0,1.76,1.18,3.72,1.96,4.51.39-.78,1.76-1.57,3.14-2.35,4.12-1.96,10.39-3.92,13.92-5.88l.2.2c-.59,2.55-2.35,3.92-4.12,4.7-3.53,1.76-10.78,3.92-10.78,7.06,0,1.96,1.37,4.12,2.74,4.7.39-.78,1.37-1.96,2.55-2.74,3.14-2.35,10.39-4.7,13.33-6.27l.2.2c-.59,2.16-1.96,3.72-4.12,4.7-3.14,1.57-8.62,3.14-8.62,6.66,0,2.55,3.92,5.49,6.86,5.49s5.88-2.16,7.84-4.51ZM83.1,231.23c-1.96,0-3.72,1.76-4.31,2.94,2.55.2,5.49.2,8.82.2-.98-1.57-2.74-3.14-4.51-3.14ZM88.2,262.79c-1.18,0-2.94,0-4.12-.39-2.16,1.18-4.31,2.16-4.51,2.16.59.98,2.16,1.96,3.53,1.96,2.16,0,3.92-2.16,5.1-3.72ZM113.09,268.28c0-4.12-2.55-7.64-6.08-9.21h2.35c3.53,0,10.78-.98,10.78-10.19s-7.25-10.39-10.78-10.39c-1.18,0-2.35.2-2.35.2,3.33-1.57,6.08-5.1,6.08-9.02,0-6.86-5.49-9.8-11.56-9.8-6.86,0-12.74,4.12-16.27,7.45l3.53-.98c6.66-1.18,12.35,10.19,12.35,22.54s-5.68,23.72-12.35,22.34l-3.53-.59c3.53,3.14,9.41,7.06,16.27,7.06,5.49,0,11.56-2.55,11.56-9.41ZM97.02,230.06l5.88-5.1,6.86,2.74-5.88,4.51-6.86-2.16ZM97.02,267.89l6.86-2.55,5.88,5.1-6.86,2.35-5.88-4.9ZM101.92,248.88l7.25-3.92,7.45,3.92-7.45,3.92-7.25-3.92Z"/>
  <path d="M584.27,370.39c-9.02,1.18-17.84,6.47-17.84,6.47.39-8.04,10.19-11.76,10.19-11.76-9.02-1.18-16.07,2.16-16.07,2.16,1.96-10.58,26.07-12.74,26.07-12.74l29.4-2.74c-19.01-1.37-30.77-5.29-32.34-5.68l-.2-.59c1.37-3.92,2.94-7.25,4.51-10.19-15.48,2.55-28.81,12.74-47.24,17.25,3.53,5.49,4.7,9.6,4.7,9.6l-.59.59-102.7,10.39c1.76-5.68,14.31-9.6,14.31-9.6-12.54-4.9-20.58-.98-20.58-.98,4.7-10.98,18.03-9.02,18.03-9.02-6.66-6.47-15.48-5.29-15.48-5.29,5.49-7.06,19.99-4.12,27.05-1.37,0-3.14-2.94-8.43-2.94-8.43,5.49,1.76,10,6.27,12.54,9.41l29.4,2.74c-11.17-3.53-23.91-10.19-30.97-22.74h-50.57c1.96-5.29,14.7-8.04,14.7-8.04-11.76-5.88-19.99-2.94-19.99-2.94,5.49-10.39,18.23-7.06,18.23-7.06-5.29-7.25-14.7-6.86-14.7-6.86,6.08-6.66,20.58-2.55,27.05,1.18.39-3.33-2.16-8.82-2.16-8.82,5.68,2.35,9.8,7.25,11.96,10.78l10,1.96c-1.57-9.41-3.92-16.86-6.86-22.93-12.15-.59-19.6-10-21.76-12.94-1.18-.2-1.76-1.37-2.94-2.55-3.53.2-5.29.39-9.6.39-2.74,0-4.51-.2-7.25-.39-2.94,4.51-7.25,6.86-10.78,6.86-4.51,0-10.58-4.31-10.58-9.02-2.74-.78-6.08-3.72-6.08-6.86,0-.98.2-1.57.39-2.16-1.57-.39-4.51-3.14-4.51-6.47,0-1.96.98-3.14,3.33-4.12-3.92.2-6.66-.2-9.41-.98-3.72,1.57-6.27,1.96-10,1.96-6.47,0-11.37-2.74-11.37-9.21,0-.2,0-.78.2-2.16,15.09-.2,32.34-2.16,47.04-4.9.98-.2,5.49-.98,7.25-.98,8.23,0,14.7,4.7,20.58,5.68.98-1.57,2.35-3.33,3.72-4.31,2.16-2.74,10-12.35,22.74-12.35,5.68,0,12.35,1.96,14.5,8.04,34.3,9.6,26.85,65.66,69.19,65.66,4.31,0,8.43-.39,12.35-1.37l-2.16-8.62,7.45,7.06c2.35-.59,4.7-1.57,7.06-2.55l-1.57-11.56,8.23,8.43c1.96-.78,4.31-2.16,6.66-3.14l-.78-19.6,8.04,16.07,9.21-3.72,1.57-19.8,6.66,17.84c3.33-.39,6.66-.78,10.78-.78l4.7-21.95,4.31,22.34c4.31.2,7.84.98,11.37,1.37l7.06-17.64.59,19.8c3.33,1.18,6.47,2.55,9.6,3.92l8.62-11.37-.59,16.27c2.35,1.57,4.51,3.33,6.86,5.29l8.23-9.8-1.96,15.48c1.96,2.35,3.92,4.31,6.08,6.66l6.27-7.25-1.57,13.72c20.38,26.66,36.06,48.61,65.27,48.61,7.84,0,15.68-1.37,18.82-2.35-3.92,3.92-17.44,7.84-28.42,7.84-44.3,0-57.23-26.26-87.42-38.02-7.45,10.39-19.01,16.86-19.01,16.86,13.33,6.86,21.36,19.99,21.36,19.99l-.39.59c-7.64-.2-36.85,2.55-47.04,5.29-1.18,2.94-5.29,9.8-11.96,10.58,0,0,2.74-3.72,3.33-8.43,0,0-11.37,3.33-26.07,11.96,0-5.49,6.86-11.96,6.86-11.96ZM371.03,240.06c-2.74.2-5.1.2-7.45.2,0,.59,0,.98.2,1.57.39.2,1.57.2,1.96.2,3.53,0,5.1-1.37,5.29-1.96ZM416.7,269.26c-1.96-.2-5.49-.2-7.64.78l-.2-.2c.98-2.35,5.1-3.14,8.23-3.14,2.94,0,5.68.39,10.19.39,11.37,0,16.27-2.55,19.99-6.47h.39c0,.98-.59,2.94-.78,3.14.98.2,2.16.2,2.94,0,1.57-2.94,1.96-6.66,1.96-10.98,0-5.1-.78-8.82-2.16-11.37-5.29,0-12.35,0-17.05-1.57-5.68-1.57-12.15-4.7-17.05-4.7-1.57,0-4.7.2-5.29.39-12.15,1.96-21.76,3.53-36.46,4.31-.98,3.14-4.51,4.12-7.64,4.12-.39,0-.78,0-1.37-.2,1.76,1.96,4.51,2.35,7.64,2.35,4.7,0,8.62-1.37,12.94-3.72l.2.2c-.2.59-.78,1.57-.98,1.76,1.18.39,3.53.59,5.49.59,4.51,0,9.41-.98,13.92-2.16,2.16-.59,4.12-1.18,5.88-1.96l.2.2c-.59,1.18-1.96,2.94-3.33,3.72-5.88,3.33-15.09,3.72-15.09,8.04,0,1.76,1.18,3.72,1.96,4.51.39-.78,1.76-1.57,3.14-2.35,4.12-1.96,10.39-3.92,13.92-5.88l.2.2c-.59,2.55-2.35,3.92-4.12,4.7-3.53,1.76-10.78,3.92-10.78,7.06,0,1.96,1.37,4.12,2.74,4.7.39-.78,1.37-1.96,2.55-2.74,3.14-2.35,10.39-4.7,13.33-6.27l.2.2c-.59,2.16-1.96,3.72-4.12,4.7-3.14,1.57-8.62,3.14-8.62,6.66,0,2.55,3.92,5.49,6.86,5.49s5.88-2.16,7.84-4.51ZM443.74,235.15c-1.96,0-3.72,1.76-4.31,2.94,2.55.2,5.49.2,8.82.2-.98-1.57-2.74-3.14-4.51-3.14ZM448.84,266.71c-1.18,0-2.94,0-4.12-.39-2.16,1.18-4.31,2.16-4.51,2.16.59.98,2.16,1.96,3.53,1.96,2.16,0,3.92-2.16,5.1-3.72ZM473.73,272.2c0-4.12-2.55-7.64-6.08-9.21h2.35c3.53,0,10.78-.98,10.78-10.19s-7.25-10.39-10.78-10.39c-1.18,0-2.35.2-2.35.2,3.33-1.57,6.08-5.1,6.08-9.02,0-6.86-5.49-9.8-11.56-9.8-6.86,0-12.74,4.12-16.27,7.45l3.53-.98c6.66-1.18,12.35,10.19,12.35,22.54s-5.68,23.72-12.35,22.34l-3.53-.59c3.53,3.14,9.41,7.06,16.27,7.06,5.49,0,11.56-2.55,11.56-9.41ZM457.66,233.98l5.88-5.1,6.86,2.74-5.88,4.51-6.86-2.16ZM457.66,271.81l6.86-2.55,5.88,5.1-6.86,2.35-5.88-4.9ZM462.56,252.79l7.25-3.92,7.45,3.92-7.45,3.92-7.25-3.92Z"/>
</svg>