<?xml version="1.0" encoding="UTF-8"?>
<svg id="Layer_1" xmlns="http://www.w3.org/2000/svg" version="1.1" viewBox="0 0 3342.05 373.72">
  <!-- Generator: Adobe Illustrator 30.5.0, SVG Export Plug-In . SVG Version: 2.1.4 Build 167)  -->
  <defs>
    <style>
      .st0 {
        fill: #efe9e2;
      }
    </style>
  </defs>
  <g>
    <polygon class="st0" points="176.87 3.59 154.43 28.89 141.28 49.72 135.08 71.79 135.08 91.14 138.4 108.5 147.73 127.34 161.37 144.95 138.4 169.5 119.71 154.62 97.88 145.94 78.04 144.95 54.73 148.27 34.15 159.09 14.81 174.46 3.15 186.74 11.09 196.04 25.72 208.68 43.08 219.6 61.68 226.54 80.28 228.77 100.61 226.54 120.2 218.36 137.07 206.95 140.04 203.72 162.11 226.79 152.44 239.19 140.54 260.51 134.34 287.55 136.07 306.39 141.28 323.26 152.44 343.84 176.87 370.13 187.41 362 201.54 345.33 213.45 323.75 218.66 301.19 218.66 278.03 213.7 260.02 204.02 243.9 195.1 231 202.04 221.08 216.42 205.71 229.07 223.68 253.62 264.98 267.26 296.97 273.96 323.26 277.18 348.55 277.18 365.36 3064.04 365.36 3064.04 337.11 3069.4 306.21 3078.87 278.08 3091.19 254.42 3123.51 206.74 3144.59 228.17 3134.41 244.06 3125.2 268 3122.44 291.03 3123.87 314.25 3131.91 332.47 3143.52 350.5 3163.67 369.61 3182.27 351.22 3196.2 330.32 3203.17 312.46 3206.56 289.25 3202.14 265.67 3194.06 248.17 3178.7 226.74 3200.49 204.24 3215.85 216.03 3236.74 226.21 3254.96 229.24 3279.78 226.38 3298.35 219.06 3318.36 205.67 3338.36 186.86 3316.93 165.84 3297.1 152.8 3275.85 145.84 3252.81 144.41 3233.7 150.48 3216.92 159.06 3203.7 168.88 3180.48 145.3 3191.56 129.23 3202.14 110.12 3205.84 88.69 3204.06 62.26 3195.84 41.36 3182.45 22.25 3162.27 3.59 3148.16 17.25 3134.76 35.65 3129.41 47.61 3123.69 64.4 3123.16 79.05 3122.44 92.8 3127.98 112.26 3137.09 129.41 3146.19 142.62 3144.05 146.91 3127.26 163.7 3123.51 165.66 3103.15 139.95 3079.76 97.08 3068.15 64.4 3063.51 38.51 3062.97 8.12 276.94 8.12 277.63 24.02 274.37 52.3 269.23 74.75 260.83 98.74 250.21 118.79 239.58 136.96 216.96 166.78 194 144.33 200.68 134.9 212.33 113.31 218.85 90.86 217.65 68.92 214.05 50.59 204.45 32.94 191.25 15.8 176.87 3.59"/>
    <path d="M3258.7,142.28c-21.37,0-40,10.38-55.57,23.2l-5.5-5.8-13.44-14.66c18.32-21.68,25.34-43.36,25.34-61.68,0-26.56-8.85-50.99-45.49-83.35-36.95,32.36-43.66,58.01-43.66,83.35,0,19.24,5.5,36.03,23.51,60.15-6.41,6.72-12.21,12.82-18.32,19.85-37.25-47.94-62.29-100.45-57.1-157.86H273.57c5.19,57.4-19.85,109.92-57.1,157.86-6.11-7.02-11.91-13.13-18.32-19.85,18.01-24.12,23.51-40.91,23.51-60.15,0-25.34-6.72-50.99-43.66-83.35-36.64,32.36-45.49,56.79-45.49,83.35,0,18.32,7.02,40,25.34,61.68l-13.43,14.66-5.5,5.8c-15.57-12.82-34.2-23.2-55.57-23.2-25.65,0-50.99,7.63-83.36,44.58,32.36,36.94,57.71,44.58,83.36,44.58,23.51,0,41.83-10.99,56.48-23.82l12.21,12.52,7.02,7.02c-19.24,22.29-26.56,44.58-26.56,63.2,0,26.56,8.85,50.99,45.49,83.35,36.95-32.36,43.66-58.01,43.66-83.35,0-19.24-5.8-38.78-22.29-61.68,5.8-5.8,11.3-11.91,17.1-18.32,37.25,47.94,62.29,100.45,57.1,157.86h2794.9c-5.19-57.4,19.85-109.92,57.1-157.86,5.8,6.41,11.3,12.52,17.1,18.32-16.49,22.9-22.29,42.44-22.29,61.68,0,25.34,6.72,50.99,43.66,83.35,36.64-32.36,45.49-56.79,45.49-83.35,0-18.63-7.33-40.91-26.56-63.2l7.02-7.02,12.21-12.52c14.66,12.82,32.98,23.82,56.49,23.82,25.65,0,50.99-7.63,83.35-44.58-32.36-36.94-57.71-44.58-83.35-44.58ZM3147.56,148.39l4.28-4.27,6.41-6.41,6.41-7.02,3.97-4.58c12.21-15.88,16.49-30.84,16.49-42.75,0-15.88-4.58-30.84-21.07-49.16-15.88,18.01-19.24,32.67-19.24,49.16,0,12.82,3.36,24.43,16.18,42.44l-7.02,7.63-5.8,5.8c-16.79-22.59-21.68-38.17-21.68-55.88,0-23.51,5.5-45.8,37.56-75.11,31.45,29.01,39.39,50.99,39.39,75.11,0,17.1-6.41,36.95-23.2,57.1l-3.97,4.58-5.19,5.5-7.63,7.63-4.28,4.27-18.01,19.85-11.91-14.35,18.32-19.54ZM138.62,83.35c0-24.12,7.94-46.1,39.39-75.11,32.06,29.31,37.56,51.6,37.56,75.11,0,17.71-4.89,33.28-21.68,55.88l-5.8-5.8-7.02-7.63c12.82-18.01,16.18-29.62,16.18-42.44,0-16.49-3.36-31.14-19.24-49.16-16.49,18.32-21.07,33.28-21.07,49.16,0,11.91,4.28,26.87,16.49,42.75l3.97,4.58,6.41,7.02,6.41,6.41,4.28,4.27,18.32,19.54-11.91,14.35-18.01-19.85-4.27-4.27-7.63-7.63-5.19-5.5-3.97-4.58c-16.79-20.15-23.2-40-23.2-57.1ZM135.57,203.35c-13.74,11.91-30.84,21.98-52.21,21.98-23.82,0-46.11-6.41-75.42-38.47,29.31-32.06,51.6-38.47,75.42-38.47,19.24,0,36.64,9.77,51.3,21.68-3.97,4.28-8.55,9.16-12.82,13.13-11.91-9.47-24.73-16.49-38.47-16.49-16.18,0-30.53,3.66-49.16,20.15,18.63,16.49,32.98,20.15,49.16,20.15,15.27,0,27.48-6.41,38.78-15.88l4.58-4.27,12.82-12.82,22.29-24.43,4.89,5.19,7.94,7.94-21.98,23.82-12.82,12.82-4.27,3.97ZM215.56,290.37c0,23.51-5.5,45.8-37.56,75.11-31.45-29.01-39.39-50.99-39.39-75.11,0-17.4,6.41-37.56,24.43-58.62,4.58,5.19,8.55,10.08,11.6,14.35-13.13,16.49-17.71,31.75-17.71,44.27,0,15.88,4.58,30.84,21.07,49.16,15.88-18.01,19.24-32.67,19.24-49.16,0-13.43-3.67-27.17-14.96-43.97l-3.66-4.89c-3.36-4.89-7.02-9.16-11.6-14.35l-3.97-4.27-6.72-7.02-11.91-12.21c4.58-4.28,8.85-8.85,12.52-12.82l12.21,12.21,6.41,6.72,4.28,4.58c4.27,4.58,8.24,9.46,11.6,13.74l3.66,5.19c15.27,21.37,20.46,39.08,20.46,57.1ZM3061.76,362.12H280.29c3.05-57.71-22.9-109.61-59.54-156.33l12.21-14.35c35.72,43.97,62.59,92.82,65.65,149.31h2744.83c3.05-56.49,29.92-105.34,65.65-149.31l12.21,14.35c-36.64,46.72-62.59,98.62-59.54,156.33ZM3129.24,205.79l-3.97-4.58-12.52-14.35-3.66-4.58c-35.72-43.97-62.59-92.82-65.65-149.31H298.61c-3.05,56.49-29.92,105.34-65.65,149.31l-3.66,4.58-12.52,14.35-3.97,4.58-17.1,18.01-11.6-14.04,16.79-18.32,3.97-4.58,11.91-14.35,3.97-4.58c36.64-46.72,62.59-98.62,59.54-156.33h2781.47c-3.05,57.71,22.9,109.61,59.54,156.33l3.97,4.58,11.91,14.35,3.97,4.58,16.79,18.32-11.6,14.04-17.1-18.01ZM3185.72,215.87l-6.72,7.02-3.97,4.27c-4.58,5.19-8.24,9.47-11.6,14.35l-3.67,4.89c-11.3,16.79-14.96,30.53-14.96,43.97,0,16.49,3.36,31.14,19.24,49.16,16.49-18.32,21.07-33.28,21.07-49.16,0-12.52-4.58-27.79-17.71-44.27,3.05-4.27,7.02-9.16,11.6-14.35,18.01,21.07,24.43,41.22,24.43,58.62,0,24.12-7.94,46.1-39.39,75.11-32.06-29.31-37.56-51.6-37.56-75.11,0-18.01,5.19-35.72,20.46-57.1l3.66-5.19c3.36-4.28,7.33-9.16,11.6-13.74l4.28-4.58,6.41-6.72,12.21-12.21c3.66,3.97,7.94,8.55,12.52,12.82l-11.91,12.21ZM3258.7,225.33c-21.37,0-38.47-10.08-52.21-21.98l-4.27-3.97-12.82-12.82-21.98-23.82,7.94-7.94,4.89-5.19,22.29,24.43,12.82,12.82,4.58,4.27c11.3,9.46,23.51,15.88,38.78,15.88,16.18,0,30.53-3.66,49.16-20.15-18.63-16.49-32.98-20.15-49.16-20.15-13.74,0-26.56,7.02-38.47,16.49-4.28-3.97-8.85-8.85-12.82-13.13,14.66-11.91,32.06-21.68,51.3-21.68,23.82,0,46.1,6.41,75.42,38.47-29.31,32.06-51.6,38.47-75.42,38.47Z"/>
  </g>
  <g>
    <path class="st0" d="M380.65,243.76v-116.64c0-14.24-2.53-24.8-7.12-29.85v-.92h37.65v.92c-4.59,5.05-7.12,15.61-7.12,29.85v116.64c0,14.23,2.53,24.8,7.12,29.85v.92h-37.65v-.92c4.59-5.05,7.12-15.61,7.12-29.85Z"/>
    <path class="st0" d="M432.76,186.36c0-58.78,46.15-93.68,97.12-93.68,25.49,0,43.16,5.74,50.97,10.33l3.44,26.86-.92.23c-9.41-10.1-26.4-20.89-54.64-20.89-36.05,0-69.8,27.32-69.8,72.32,0,42.48,28.7,80.13,73.24,80.13,12.17,0,23.88-2.53,30.31-5.97v-61.76c0-14.23-5.28-24.8-10.56-29.85v-.92h42.25v.92c-5.28,5.05-8.27,15.61-8.27,29.85v40.18c0,14.23,1.84,21.35,7.12,26.4v.92c-12.17,8.72-34.21,16.76-63.14,16.76-49.36,0-97.12-31.69-97.12-91.84Z"/>
    <path class="st0" d="M625.85,215.98v-88.85c0-14.24-2.98-24.8-8.27-29.85v-.92h39.95v.92c-5.28,5.05-8.27,15.61-8.27,29.85v84.26c0,35.36,14.46,49.82,38.8,49.82,33.98,0,49.13-31.23,49.13-57.17v-76.92c0-14.24-2.98-24.8-8.27-29.85v-.92h39.95v.92c-5.28,5.05-8.27,15.61-8.27,29.85v116.64c0,14.23,2.98,24.8,8.27,29.85v.92h-31.68c1.61-6.2,1.84-14.69,1.84-26.4-5.74,12.86-24.11,30.08-53.96,30.08-33.52,0-59.24-17.45-59.24-62.22Z"/>
    <path class="st0" d="M796.89,237.56l62.68-144.88h.92l69.8,153.83c4.59,10.1,14.46,24.11,18.14,27.09v.92h-38.57c0-6.66-1.61-16.76-8.73-32.83l-8.72-19.98h-69.34l-8.27,19.98c-6.66,16.07-7.58,26.17-6.66,32.83h-32.14v-.92c7.35-8.04,14.69-21.58,20.89-36.05ZM885.06,204.96l-28.24-64.29-26.63,64.29h54.87Z"/>
    <path class="st0" d="M981.94,144.57v99.19c0,14.23,2.3,24.8,7.58,29.85v.92h-33.52v-.92c5.28-5.05,7.58-15.61,7.58-29.85V90.85h.92l126.05,135.46v-99.19c0-14.24-2.3-24.8-7.58-29.85v-.92h33.52v.92c-5.28,5.05-7.58,15.61-7.58,29.85v152.91h-.92l-126.05-135.46Z"/>
    <path class="st0" d="M1135.08,185.44c0-58.32,44.08-92.76,94.14-92.76s94.14,34.44,94.14,92.76-44.08,92.76-94.14,92.76-94.14-34.44-94.14-92.76ZM1297.18,189.58c0-40.87-24.57-80.36-69.57-80.36-39.95,0-66.35,31.91-66.35,71.86s24.11,80.59,69.34,80.59c40.18,0,66.81-31.68,66.58-72.09Z"/>
    <path class="st0" d="M1449.86,263.97c-15.84,6.89-34.9,10.56-55.79,10.56h-51.2v-.92c5.28-5.05,8.27-15.61,8.27-29.85v-116.64c0-14.24-2.98-24.8-8.27-29.85v-.92h55.79c19.75,0,38.11,3.21,53.27,9.41,14.69-8.5,32.14-13.09,50.28-13.09,50.05,0,94.13,34.44,94.13,92.76s-44.08,92.76-94.13,92.76c-19.06,0-36.97-4.82-52.35-14.24ZM1390.85,257.77c16.76,0,31-2.3,42.71-6.66-15.84-16.07-25.49-38.11-25.49-65.67s10.1-50.28,25.94-66.12c-11.48-4.13-25.03-6.2-41.56-6.2h-17.91v144.65h16.3ZM1454.22,239.4c15.15-12.4,22.96-30.77,22.73-53.27-.23-24.11-7.35-43.62-23.88-56.48-11.94,12.86-18.83,31.23-18.83,51.43,0,21.81,6.89,43.16,19.98,58.32ZM1570.17,189.58c0-40.87-24.57-80.36-69.57-80.36-11.02,0-20.89,2.3-29.62,6.66,19.97,14.23,32.14,36.28,32.14,66.58s-12.63,54.64-33.52,70.26c9.41,5.74,20.89,8.95,33.98,8.95,40.18,0,66.81-31.68,66.58-72.09Z"/>
    <path class="st0" d="M1641.8,144.57v99.19c0,14.23,2.3,24.8,7.58,29.85v.92h-33.52v-.92c5.28-5.05,7.58-15.61,7.58-29.85V90.85h.92l126.05,135.46v-99.19c0-14.24-2.3-24.8-7.58-29.85v-.92h33.52v.92c-5.28,5.05-7.58,15.61-7.58,29.85v152.91h-.92l-126.05-135.46Z"/>
    <path class="st0" d="M1852.56,237.56l62.68-144.88h.92l69.8,153.83c4.59,10.1,14.46,24.11,18.14,27.09v.92h-38.57c0-6.66-1.61-16.76-8.72-32.83l-8.73-19.98h-69.34l-8.27,19.98c-6.66,16.07-7.58,26.17-6.66,32.83h-32.14v-.92c7.35-8.04,14.69-21.58,20.89-36.05ZM1940.73,204.96l-28.24-64.29-26.63,64.29h54.87Z"/>
    <path class="st0" d="M2037.61,144.57v99.19c0,14.23,2.3,24.8,7.58,29.85v.92h-33.52v-.92c5.28-5.05,7.58-15.61,7.58-29.85V90.85h.92l126.05,135.46v-99.19c0-14.24-2.3-24.8-7.58-29.85v-.92h33.52v.92c-5.28,5.05-7.58,15.61-7.58,29.85v152.91h-.92l-126.05-135.46Z"/>
    <path class="st0" d="M2193.73,186.36c0-58.78,46.15-93.68,97.12-93.68,25.49,0,43.16,5.74,50.97,10.33l3.44,26.86-.92.23c-9.41-10.1-26.4-20.89-54.64-20.89-36.05,0-69.8,27.32-69.8,72.32,0,42.48,28.7,80.13,73.24,80.13,12.17,0,23.88-2.53,30.31-5.97v-61.76c0-14.23-5.28-24.8-10.56-29.85v-.92h42.25v.92c-5.28,5.05-8.26,15.61-8.26,29.85v40.18c0,14.23,1.84,21.35,7.12,26.4v.92c-12.17,8.72-34.21,16.76-63.14,16.76-49.36,0-97.12-31.69-97.12-91.84Z"/>
    <path class="st0" d="M2386.82,243.76v-116.64c0-14.24-2.99-24.8-8.27-29.85v-.92h39.95v.92c-5.28,5.05-8.27,15.61-8.27,29.85v131.33h40.18c25.03,0,37.88-3.21,43.39-8.73l.69.46-3.21,24.34h-112.73v-.92c5.28-5.05,8.27-15.61,8.27-29.85ZM2448.58,196.46v-69.34c0-14.24-1.38-24.8-5.97-29.85v-.92h34.44v.92c-4.59,5.05-5.97,15.61-5.97,29.85v69.34c0,14.23,1.38,24.8,5.97,29.85v.92h-34.44v-.92c4.59-5.05,5.97-15.61,5.97-29.85Z"/>
    <path class="st0" d="M2511.49,186.36c0-58.78,42.93-93.68,97.81-93.68,20.66,0,40.18,5.05,47.76,9.18l3.9,26.86-.92.46c-11.25-11.71-27.78-20.21-51.43-19.98-40.41,0-70.95,30.54-70.95,72.32,0,44.77,27.78,80.13,76,80.13,25.03,0,43.39-10.33,53.96-24.57l.92.23-6.66,29.16c-8.72,5.74-27.32,11.71-50.28,11.71-51.66,0-100.1-31.69-100.1-91.84Z"/>
    <path class="st0" d="M2692.41,215.98v-88.85c0-14.24-2.99-24.8-8.27-29.85v-.92h39.95v.92c-5.28,5.05-8.27,15.61-8.27,29.85v84.26c0,35.36,14.46,49.82,38.8,49.82,33.98,0,49.13-31.23,49.13-57.17v-76.92c0-14.24-2.99-24.8-8.27-29.85v-.92h39.95v.92c-5.28,5.05-8.27,15.61-8.27,29.85v116.64c0,14.23,2.98,24.8,8.27,29.85v.92h-31.68c1.61-6.2,1.84-14.69,1.84-26.4-5.74,12.86-24.11,30.08-53.96,30.08-33.52,0-59.24-17.45-59.24-62.22Z"/>
    <path class="st0" d="M2862.3,263.74l-3.67-29.39.92-.23c10.79,16.07,32.6,27.55,54.19,27.55,23.19,0,38.57-11.94,38.57-31.68,0-17.68-14.92-26.86-36.74-37.88l-10.1-5.05c-27.78-13.78-42.25-27.78-42.25-48.68,0-25.94,19.97-45.69,58.55-45.69,18.6,0,32.83,3.67,42.02,9.64l4.36,27.09-.92.23c-6.66-9.87-22.04-20.43-46.15-20.43-20.43,0-34.67,9.64-34.67,24.11,0,11.94,6.66,19.29,31.91,31.91l14.24,7.12c31.91,16.07,45.23,30.31,45.23,53.73,0,32.83-25.03,52.12-64.52,52.12-17.22,0-38.57-4.59-50.97-14.46Z"/>
  </g>
</svg>