<?xml version="1.0" encoding="UTF-8"?>
<svg id="Layer_1" xmlns="http://www.w3.org/2000/svg" version="1.1" viewBox="0 0 859.21 542.78">
  <!-- Generator: Adobe Illustrator 30.5.0, SVG Export Plug-In . SVG Version: 2.1.4 Build 167)  -->
  <path d="M603.09,409.43c.89,10.68,7.57,19.14,7.57,19.14-14.24-1.33-24.03-16.91-27.15-23.59-10.68-24.48-32.93-72.99-56.52-87.67-81.44-8.9-102.36-65.87-133.07-97.02-16.02,15.13-41.83,25.37-82.33,23.59,0,0,27.15,24.03,57.85,52.51,0,0,54.29,4.9,57.85,29.37,0,0-14.69-7.57-36.05-5.34,0,0,22.25,8.46,23.59,26.7,0,0-20.92-12.91-40.94-14.69,0,0,15.58,15.58,15.58,27.59-33.82-19.58-59.19-28.04-59.19-28.04,1.34,11.57,7.57,20.03,7.57,20.03-15.13-1.34-24.48-18.69-26.7-24.03-13.8-28.93-43.17-88.56-71.21-88.56l-1.34-1.33s36.94-32.93,78.33-36.49c0,0,4.01-24.03-4.01-41.83-120.16,0-100.58,158.88-219.4,158.88-17.8,0-32.49-5.34-42.72-11.57,6.68,1.78,18.25,3.56,24.03,3.56,65.42,0,74.32-61.42,105.47-125.95,7.57-15.13,15.58-30.71,25.37-45.84l-4.45-34.71,16.02,18.25c4.01-5.34,8.46-10.68,12.46-15.13l-4.9-38.72,20.47,23.14c4.9-4.9,9.35-8.46,13.8-11.57l-.89-40.94,20.92,28.48c6.23-3.12,12.46-5.79,19.14-8.46l1.78-50.73,18.25,45.84c7.12-1.33,14.69-3.12,22.7-4.01L351.64,0l11.13,51.18c9.35.44,16.02,3.12,21.81,4.45l17.36-46.28,4.45,53.85c7.57,4.45,13.8,8.9,20.03,13.8l19.14-36.05-2.67,52.51c5.34,5.34,10.24,11.57,14.69,18.25l17.8-17.8-4.45,36.49c4.01,7.12,8.01,12.46,12.02,18.69l18.69-17.8-7.12,32.93c8.9,10.24,19.58,16.91,32.49,16.91,78.77,0,58.3-150.87,166-150.87,15.58,0,28.93,3.56,39.16,7.57l30.71,12.02,15.58-9.79v36.94s-3.56-.44-8.46-.44c-12.46,0-36.94,2.22-54.74,19.14h57.85l-4,12.46s-59.63,1.33-71.65,95.68c-2.67,18.25-8.01,32.93-13.8,45.39,8.01,8.9,40.05,42.28,65.42,66.31,0,0,54.29,5.79,58.3,29.82,0,0-15.13-7.12-36.49-4.9,0,0,22.25,8.46,23.59,26.26,0,0-20.47-12.02-40.5-14.69,0,0,16.02,14.69,15.58,27.15-33.82-19.14-59.64-27.15-59.64-27.15.89,10.68,7.57,19.58,7.57,19.58-14.24-2.22-23.59-17.36-26.7-24.48-7.12-16.02-20.92-42.72-34.71-64.09-22.7,19.58-51.18,28.04-72.54,31.6,7.12,8.01,33.82,34.27,58.75,58.3,0,0,54.29,5.79,58.3,29.37,0,0-14.69-7.12-36.94-4.9,0,0,23.14,8.01,24.03,27.59,0,0-20.47-12.91-40.05-15.58,0,0,15.13,15.58,15.13,26.26-33.82-19.14-59.63-26.26-59.63-26.26ZM733.04,61.42c0-5.34-3.12-9.79-8.01-9.79-4.45,0-7.57,4.45-7.57,9.79,0,5.79,3.12,9.79,7.57,9.79,4.9,0,8.01-4,8.01-9.79Z"/>
  <g>
    <path d="M338.45,539.16v-12.55c0-1.4-.32-2.56-1.11-3.1v-.11l3.64-1.03v2.56c.76-1.27,2.65-2.56,4.83-2.56,4.26,0,6.45,3.56,6.45,7.64,0,4.35-2.86,7.8-7.07,7.8-2.02,0-3.54-.94-4.21-1.83v3.18c0,1.67.27,2.92.89,3.51v.11h-4.32v-.11c.62-.59.89-1.84.89-3.51ZM349.46,530.66c0-3.13-1.46-6.4-4.48-6.4-2.54,0-4.16,2.48-4.16,5.64s1.59,6.29,4.54,6.29c2.46,0,4.1-2.4,4.1-5.53Z"/>
    <path d="M353.89,533.77c0-2.94,1.97-3.94,4.86-4.91,1.7-.57,3.16-1.08,4.21-1.49-.08-1.86-.89-3.18-3.43-3.18-1.67,0-3.43.67-4.54,1.73l-.11-.05.41-2.59c1.16-.49,3.08-.89,4.72-.89,3.54,0,5.48,1.59,5.48,5.96v5.43c0,1.67.27,2.32.89,2.92v.11l-3.32,1.03v-1.89c-1.13,1.4-3.02,1.92-4.32,1.89-3-.05-4.86-1.67-4.86-4.05ZM362.96,532.9v-3.89l-2.43.97c-2.46.95-3.89,1.62-3.89,3.38s1.16,2.7,2.78,2.7c1.19,0,3.54-.92,3.54-3.16Z"/>
    <path d="M368.9,533.77v-7.15c0-1.4-.32-2.56-1.11-3.1v-.11l3.64-1.03v3c1.05-1.92,3.72-2.97,5.96-2.97v3.05h-.11c-.24-.22-.76-.62-1.92-.62-2.19,0-3.94,1.97-3.94,4.64v4.29c0,1.67.27,2.92.89,3.51v.11h-4.32v-.11c.62-.59.89-1.83.89-3.51Z"/>
    <path d="M378.65,530.07c0-4.64,3.56-7.69,7.72-7.69,4.53,0,6.26,3.02,6.26,6.56h-11.17c-.03.19-.03.35-.03.54,0,3.89,2.51,6.59,6.24,6.59,2.08,0,3.81-.81,4.99-2.08l.11.05c-1.03,1.86-3,3.78-6.64,3.78-3.89,0-7.48-2.78-7.48-7.75ZM389.61,527.13c-.16-1.59-1.38-3-3.43-3-1.92,0-3.62,1.05-4.35,3h7.77Z"/>
    <path d="M395.04,533.77v-7.15c0-1.4-.32-2.56-1.11-3.1v-.11l3.64-1.03v2.54c.67-1.3,2.73-2.54,5.02-2.54,3.27,0,4.94,1.75,4.94,5.59v5.8c0,1.67.27,2.92.89,3.51v.11h-4.32v-.11c.62-.59.89-1.83.89-3.51v-5.37c0-2.54-.62-4.24-3.1-4.24-2.05,0-4.32,1.75-4.32,5.32v4.29c0,1.67.27,2.92.89,3.51v.11h-4.32v-.11c.62-.59.89-1.83.89-3.51Z"/>
    <path d="M411.13,533.77v-14.17c0-1.4-.32-2.56-1.11-3.1v-.11l3.64-1.03v18.41c0,1.67.27,2.92.89,3.51v.11h-4.32v-.11c.62-.59.89-1.83.89-3.51Z"/>
    <path d="M416.12,530.07c0-4.64,3.56-7.69,7.72-7.69,4.53,0,6.26,3.02,6.26,6.56h-11.17c-.03.19-.03.35-.03.54,0,3.89,2.51,6.59,6.24,6.59,2.08,0,3.81-.81,4.99-2.08l.11.05c-1.03,1.86-3,3.78-6.64,3.78-3.89,0-7.48-2.78-7.48-7.75ZM427.08,527.13c-.16-1.59-1.38-3-3.43-3-1.92,0-3.62,1.05-4.35,3h7.77Z"/>
    <path d="M433.89,533.77v-9.15h-3.19v-.08l1.38-1.73h1.81v-2.48c0-3.86,2.62-4.97,4.91-4.97,1.19,0,2.4.27,2.86.51l.35,2.54-.11.03c-.59-.97-1.92-1.32-2.92-1.32-1.86,0-2.56,1.11-2.56,3.21v2.48h5.51v.11l-1.57,1.97c-.81-.24-2.59-.32-3.94-.35v9.23c0,1.67.27,2.92.89,3.51v.11h-4.32v-.11c.62-.59.89-1.83.89-3.51Z"/>
    <path d="M443.37,533.71v-9.1h-2.35v-.11l4.78-4.72h.11v3.02h5.43v.11l-1.57,1.97c-.81-.24-2.59-.32-3.86-.35v8.67c0,1.75.51,2.86,2.32,2.86.76,0,1.94-.32,2.56-1.19l.08.03-.49,2.43c-.51.22-1.4.49-2.83.49-2.62,0-4.18-1.11-4.18-4.1Z"/>
    <path d="M452.9,536.14c0-1.03.81-1.65,1.7-1.65s1.73.62,1.73,1.65-.84,1.67-1.73,1.67-1.7-.62-1.7-1.67Z"/>
    <path d="M459.08,536.65l-.38-2.83.11-.05c1.19,1.65,3,2.29,4.78,2.29,1.59,0,2.89-.67,2.89-1.94,0-1.08-.7-1.78-2.62-2.78l-1.65-.86c-2.38-1.24-3.21-2.46-3.21-4.24,0-1.97,1.94-3.86,5.21-3.86,1.62,0,2.65.32,3.51.73l.32,2.56-.08.05c-.59-.78-2.08-1.59-4-1.59-1.46,0-2.56.65-2.56,1.62,0,1.05.49,1.48,2.21,2.38l1.83.95c2.32,1.19,3.56,2.4,3.56,4.32,0,2.89-2.48,4.43-5.48,4.43-1.51,0-3.4-.32-4.45-1.16Z"/>
    <path d="M470.99,536.65l-.38-2.83.11-.05c1.19,1.65,3,2.29,4.78,2.29,1.59,0,2.89-.67,2.89-1.94,0-1.08-.7-1.78-2.62-2.78l-1.65-.86c-2.38-1.24-3.21-2.46-3.21-4.24,0-1.97,1.94-3.86,5.21-3.86,1.62,0,2.65.32,3.51.73l.32,2.56-.08.05c-.59-.78-2.08-1.59-3.99-1.59-1.46,0-2.56.65-2.56,1.62,0,1.05.49,1.48,2.21,2.38l1.84.95c2.32,1.19,3.56,2.4,3.56,4.32,0,2.89-2.48,4.43-5.48,4.43-1.51,0-3.4-.32-4.45-1.16Z"/>
    <path d="M482.57,530.07c0-4.45,3.29-7.69,7.96-7.69s7.96,3.24,7.96,7.69-3.29,7.75-7.96,7.75-7.96-3.27-7.96-7.75ZM495.39,530.07c0-3.27-1.75-5.83-4.86-5.83s-4.86,2.56-4.86,5.83,1.75,5.88,4.86,5.88,4.86-2.56,4.86-5.88Z"/>
    <path d="M501.01,533.77v-7.23c0-1.46-.3-1.89-1.54-2.46v-.11l4.18-1.59v11.39c0,1.67.38,2.92,1,3.51v.11h-4.64v-.11c.62-.59,1-1.83,1-3.51Z"/>
  </g>
  <g>
    <rect x="31.42" y="464.84" width="814.94" height="2.32"/>
    <rect x="49.57" y="450.76" width="2.32" height="30.49"/>
    <rect x="806.21" y="450.76" width="2.32" height="30.49"/>
    <g>
      <path d="M16.39,489.33c0-2.27-1.48-3.78-3.91-3.78s-4.48,1.54-5.86,3.48l-.08-.11c.62-1.86,2.51-5.32,7.18-5.32,4.18,0,5.91,2.67,5.91,5.4,0,5.51-7.58,12.44-9.26,14.09h4.83c2.94,0,4.59-.65,5.24-1.3l.08.05-.51,3.13H5.7v-.11c3.02-2.83,10.69-9.72,10.69-15.55Z"/>
      <path d="M22.09,494.51c0-6.32,3.29-10.91,8.5-10.91s8.5,4.59,8.5,10.91-3.29,10.9-8.5,10.9-8.5-4.59-8.5-10.9ZM36.01,494.51c0-4.64-1.78-8.96-5.43-8.96s-5.43,4.32-5.43,8.96,1.78,8.96,5.43,8.96,5.43-4.32,5.43-8.96Z"/>
      <path d="M.97,533.77v-13.71c0-1.67-.35-2.92-.97-3.51v-.11h4.7v.11c-.62.59-.97,1.84-.97,3.51v15.44h4.72c2.94,0,4.45-.38,5.1-1.03l.08.05-.38,2.86H0v-.11c.62-.59.97-1.84.97-3.51Z"/>
      <path d="M15.28,536.12l-.43-3.46.11-.03c1.27,1.89,3.83,3.24,6.37,3.24,2.73,0,4.53-1.4,4.53-3.73,0-2.08-1.75-3.16-4.32-4.45l-1.19-.59c-3.27-1.62-4.97-3.27-4.97-5.72,0-3.05,2.35-5.37,6.88-5.37,2.19,0,3.86.43,4.94,1.13l.51,3.19-.11.03c-.78-1.16-2.59-2.4-5.43-2.4-2.4,0-4.08,1.13-4.08,2.83,0,1.4.78,2.27,3.75,3.75l1.67.84c3.75,1.89,5.32,3.56,5.32,6.32,0,3.86-2.94,6.13-7.58,6.13-2.02,0-4.53-.54-5.99-1.7Z"/>
      <path d="M32.02,533.77v-13.71c0-1.67-.3-2.92-.84-3.51v-.11h6.48c5.24,0,7.4,1.7,7.4,4.78,0,2.29-1.13,3.94-3.29,4.89,2.86.78,4.48,2.48,4.48,5.05,0,3.89-2.81,6.24-8.29,6.24h-6.78v-.11c.54-.59.84-1.84.84-3.51ZM41.98,521.62c-.05-2.08-1.32-3.29-4.16-3.29h-3.05v7.1h1.38c4.29,0,5.88-1.21,5.83-3.81ZM43.17,531.36c-.05-2.67-1.81-4.13-5.75-4.13h-2.65v8.26h3c3.54,0,5.45-1.19,5.4-4.13Z"/>
    </g>
    <g>
      <path d="M827.13,501.37v-1.67h-10.23v-.11l12.88-16.63h.11v14.85c.73,0,2.16-.19,3.02-.78l.11.03v3.4l-.11.03c-.86-.59-2.29-.78-3.02-.78v1.67c0,1.67.38,2.92,1,3.51v.11h-4.75v-.11c.62-.59,1-1.84,1-3.51ZM827.13,497.8v-8.1l-6.34,8.1h6.34Z"/>
      <path d="M834.37,494.51c0-6.32,3.29-10.91,8.5-10.91s8.5,4.59,8.5,10.91-3.29,10.9-8.5,10.9-8.5-4.59-8.5-10.9ZM848.29,494.51c0-4.64-1.78-8.96-5.43-8.96s-5.43,4.32-5.43,8.96,1.78,8.96,5.43,8.96,5.43-4.32,5.43-8.96Z"/>
      <path d="M811.73,533.77v-13.71c0-1.67-.35-2.92-.97-3.51v-.11h7.07c4.67,0,7.26,2.13,7.26,5.21,0,2.75-1.75,4.64-4.4,5.51l3.75,6.61c1.46,2.56,1.92,3.02,2.4,3.51v.11h-4.37c0-1.67-.67-2.86-1.08-3.62l-3.29-6.13c-.32.03-.62.03-.94.03h-2.67v6.1c0,1.67.35,2.92.97,3.51v.11h-4.7v-.11c.62-.59.97-1.84.97-3.51ZM822.01,521.92c-.05-2.11-1.48-3.59-4.48-3.59h-3.05v7.45h2.65c2.97,0,4.94-1.27,4.89-3.86Z"/>
      <path d="M828.25,536.12l-.43-3.46.11-.03c1.27,1.89,3.83,3.24,6.37,3.24,2.73,0,4.53-1.4,4.53-3.73,0-2.08-1.75-3.16-4.32-4.45l-1.19-.59c-3.27-1.62-4.97-3.27-4.97-5.72,0-3.05,2.35-5.37,6.88-5.37,2.19,0,3.86.43,4.94,1.13l.51,3.19-.11.03c-.78-1.16-2.59-2.4-5.43-2.4-2.4,0-4.08,1.13-4.08,2.83,0,1.4.78,2.27,3.75,3.75l1.67.84c3.75,1.89,5.32,3.56,5.32,6.32,0,3.86-2.94,6.13-7.58,6.13-2.02,0-4.53-.54-5.99-1.7Z"/>
      <path d="M844.99,533.77v-13.71c0-1.67-.3-2.92-.84-3.51v-.11h6.48c5.24,0,7.4,1.7,7.4,4.78,0,2.29-1.13,3.94-3.29,4.89,2.86.78,4.48,2.48,4.48,5.05,0,3.89-2.81,6.24-8.29,6.24h-6.78v-.11c.54-.59.84-1.84.84-3.51ZM854.95,521.62c-.05-2.08-1.32-3.29-4.16-3.29h-3.05v7.1h1.38c4.29,0,5.88-1.21,5.83-3.81ZM856.14,531.36c-.05-2.67-1.81-4.13-5.75-4.13h-2.65v8.26h3c3.54,0,5.45-1.19,5.4-4.13Z"/>
    </g>
    <g>
      <path d="M396.58,501.37v-13.6c0-1.46-.3-1.89-1.54-2.46v-.11l4.29-1.59v17.76c0,1.67.38,2.92,1,3.51v.11h-4.75v-.11c.62-.59,1-1.84,1-3.51Z"/>
      <path d="M406.14,500.77l6.8-14.85h-5.88c-2.11,0-4.08.3-4.89,1l-.11-.03.4-2.86h14.12v.11l-7.61,16.74c-.51,1.13-1.11,2.97-.84,4.1h-4.45v-.11c.65-.65,1.38-1.73,2.46-4.1Z"/>
      <path d="M416.34,495.75c0-5.7,3.02-12.15,10.5-12.15,1.05,0,1.94.19,2.24.27v.11c-5.99.54-9.15,4.35-9.58,8.4.73-.92,2.59-2.13,5.21-2.13,3.78,0,6.83,2.73,6.83,7.29s-3.05,7.88-7.42,7.88c-4.8,0-7.77-3.72-7.77-9.66ZM428.71,497.86c0-3.21-1.86-5.61-4.67-5.61s-4.53,2.29-4.53,5.51c0,3.4,1.84,5.72,4.64,5.72s4.56-2.65,4.56-5.61Z"/>
      <path d="M433.08,494.51c0-6.32,3.29-10.91,8.5-10.91s8.5,4.59,8.5,10.91-3.29,10.9-8.5,10.9-8.5-4.59-8.5-10.9ZM447.01,494.51c0-4.64-1.78-8.96-5.43-8.96s-5.43,4.32-5.43,8.96,1.78,8.96,5.43,8.96,5.43-4.32,5.43-8.96Z"/>
    </g>
  </g>
</svg>